<?xml version="1.0" encoding="utf-8"?>
<!-- Generator: Adobe Illustrator 22.0.1, SVG Export Plug-In . SVG Version: 6.00 Build 0)  -->
<!DOCTYPE svg PUBLIC "-//W3C//DTD SVG 1.1//EN" "http://www.w3.org/Graphics/SVG/1.1/DTD/svg11.dtd">
<svg version="1.1" id="Layer_1" xmlns="http://www.w3.org/2000/svg" xmlns:xlink="http://www.w3.org/1999/xlink" x="0px" y="0px"
	 viewBox="0 0 141 256" style="enable-background:new 0 0 141 256;" xml:space="preserve">
<style type="text/css">
	.st0{stroke:#000000;stroke-linecap:round;}
	.st1{fill:#673607;stroke:#000000;stroke-linecap:round;}
	.st2{fill:none;stroke:#E2A981;stroke-linecap:round;}
	.st3{fill:#85A3AE;}
	.st4{fill:#5F7077;}
	.st5{fill:none;stroke:#000000;stroke-linecap:round;stroke-linejoin:round;}
	.st6{fill:#FFCC99;stroke:#000000;stroke-linecap:round;stroke-linejoin:round;}
	.st7{fill:#EAAF75;}
	.st8{fill:#656D70;}
	.st9{fill:#B2B2B2;}
	.st10{fill:#474C4E;}
	.st11{fill:#505658;}
	.st12{fill:#865F10;}
	.st13{fill:#FFCC99;}
	.st14{fill:#F9C695;}
	.st15{fill:#E5DDD4;}
	.st16{fill:#E0AD7C;}
	.st17{fill:#110900;}
	.st18{fill:#513600;}
</style>
<title>andrew</title>
<desc>Created with Sketch.</desc>
<g id="Page-1">
	<g id="Artboard-Copy" transform="translate(-1893.000000, -186.000000)">
		<g id="andrew" transform="translate(1893.000000, 186.000000)">
			<g id="body" transform="translate(0.000000, 55.000000)">
				
					<g id="shoe-copy" transform="translate(55.581540, 144.204082) scale(-1, 1) translate(-55.581540, -144.204082) translate(42.081540, 133.204082)">
					<path id="Rectangle-50" class="st0" d="M-9.5,62.8c3.3-1.7,4.9-5.8,3.7-9.2l-0.4-1.1C-7.5,49-11,47.9-14,50l-14.7,10.4
						c-3,2.1-2.7,5.1,0.6,6.7l-0.9-0.4c3.3,1.5,8.7,1.5,12-0.2L-9.5,62.8z"/>
					<path id="Rectangle-50_1_" class="st1" d="M-9.9,60.2c3.1-1.6,4.7-5.5,3.5-8.8l-0.4-1.1c-1.2-3.3-4.5-4.3-7.4-2.3l-15.3,10.7
						c-2.9,2-2.6,4.8,0.6,6.2l-0.7-0.3c3.2,1.4,8.4,1.3,11.5-0.3L-9.9,60.2z"/>
					<polyline id="Path-10" class="st2" points="-16.4,49.8 -19.3,57.3 -23.4,55.2 -11.7,51.9 					"/>
				</g>
				<g id="shoe-copy_1_" transform="translate(10.000000, 133.000000)">
					<path id="Rectangle-50_2_" class="st0" d="M53.5,62.8c3.3-1.7,4.9-5.8,3.7-9.2l-0.4-1.1C55.5,49,52,47.9,49,50L34.3,60.5
						c-3,2.1-2.7,5.1,0.6,6.7L34,66.7c3.3,1.5,8.7,1.5,12-0.2L53.5,62.8z"/>
					<path id="Rectangle-50_3_" class="st1" d="M53.1,60.2c3.1-1.6,4.7-5.5,3.5-8.8l-0.4-1.1c-1.2-3.3-4.5-4.3-7.4-2.3L33.6,58.6
						c-2.9,2-2.6,4.8,0.6,6.2l-0.7-0.3c3.2,1.4,8.4,1.3,11.5-0.3L53.1,60.2z"/>
					<polyline id="Path-10_1_" class="st2" points="46.6,49.8 43.7,57.3 39.6,55.2 51.3,51.9 					"/>
				</g>
				<g id="pants" transform="translate(21.423847, 57.571429)">
					<polygon id="pant" class="st3" points="66,46.4 31.5,46.4 31.5,125.4 43.7,125.4 43.7,62.6 52.8,62.6 52.8,125.4 66,125.4 
											"/>
					<path id="shadow" class="st4" d="M63,47l0.5,79.1h3L67,47H63z M40.1,60c-0.5,44.1-0.3,66.2,0.5,66.5c0.2,0,1.5-0.1,4.1-0.5
						l-0.5-62.9h9.4V126h4.2l-0.9-66H40.1z M34.5,47l-3-0.5L32,126h2.3L34.5,47z"/>
					<path id="pant-lines" class="st5" d="M44.9,46.4h-4.5c-0.7,6.4-2.9,9.4-6.5,8.8h-2 M41.4,126h-7.6 M46.5,60.2l-1.7-13.8h12.1
						h7.2H67v9.6V126h-2.9H56h-2.4V62.5h-1.9h-4.9h-2.2V126h-3.2 M40.5,46.4h-9v9V126h2.3 M57.1,46.4c0.3,5.1,2.6,8.3,7,9.6l2.9,0.3
						 M52.1,46.4l-0.2,13.4L51.9,62 M46.6,60l0.3,2.1"/>
				</g>
				
					<g id="arm1" transform="translate(63.040707, 72.341338) scale(-1, 1) rotate(-15.000000) translate(-63.040707, -72.341338) translate(54.540707, 58.841338)">
					
						<g id="Group" transform="translate(8.570378, 13.514537) rotate(-4.000000) translate(-8.570378, -13.514537) translate(1.570378, 0.514537)">
						<path id="Layer0_17_MEMBER_3_MEMBER_0_MEMBER_1_1_STROKES" class="st6" d="M-32.9,39l1.2,11.7c0.1,0.6,0,1.1-0.2,1.6
							c-0.3,0.4-0.8,0.7-1.3,0.7c-0.5,0.1-1,0-1.5-0.3c-0.3-0.4-0.6-0.8-0.7-1.4l-1-7.3l-1.2,2.6l1.4,10.8c0.1,0.5-0.1,1-0.4,1.4
							c-0.2,0.5-0.6,0.8-1.2,0.9c-0.5,0.1-1-0.1-1.4-0.5c-0.3-0.3-0.5-0.7-0.6-1.1c-0.4,0-0.7-0.2-1-0.4c-0.3-0.3-0.6-0.6-0.6-1
							c-0.4,0-0.8-0.2-1.1-0.5c-0.3-0.3-0.5-0.7-0.6-1.3l-1.6-12.5c-0.4-2.2,3.4-8.1,3.6-8.4L-32.9,39z"/>
						<path id="Shape" class="st7" d="M-43.7,39.7c-0.9,2-1.3,2.4-1,1.3c-0.2,0.4-0.2,0.8-0.2,1.3l1.6,12.4c0.1,0.5,0.3,0.9,0.6,1.2
							c0.3,0.3,0.7,0.4,1.1,0.4c-0.1-0.1-0.1-0.2-0.1-0.4c0,0.1,0,0.3,0.1,0.4c0.1,0.4,0.3,0.7,0.6,1c0.3,0.2,0.6,0.3,1,0.4
							c-0.1-0.1-0.1-0.1-0.1-0.2l-1.4-10.9l-1.8-2.4L-43.7,39.7z"/>
					</g>
				</g>
				
					<g id="arm1_1_" transform="translate(14.769629, 73.422970) rotate(-15.000000) translate(-14.769629, -73.422970) translate(6.269629, 59.922970)">
					
						<g id="Group_1_" transform="translate(8.728989, 13.492429) rotate(-4.000000) translate(-8.728989, -13.492429) translate(1.728989, 0.492429)">
						<path id="Layer0_17_MEMBER_3_MEMBER_0_MEMBER_1_1_STROKES_1_" class="st6" d="M26.6,59.5l1.2,11.7c0.1,0.6,0,1.1-0.2,1.6
							c-0.3,0.4-0.8,0.7-1.3,0.7c-0.5,0.1-1,0-1.5-0.3c-0.3-0.4-0.6-0.8-0.7-1.4l-1-7.3L22,67l1.4,10.8c0.1,0.5-0.1,1-0.4,1.4
							c-0.2,0.5-0.6,0.8-1.2,0.9c-0.5,0.1-1-0.1-1.4-0.5c-0.3-0.3-0.5-0.7-0.6-1.1c-0.4,0-0.7-0.2-1-0.4c-0.3-0.3-0.6-0.6-0.6-1
							c-0.4,0-0.8-0.2-1.1-0.5c-0.3-0.3-0.5-0.7-0.6-1.3L14.7,63c-0.4-2.2,3.4-8.1,3.6-8.4L26.6,59.5z"/>
						<path id="Shape_1_" class="st7" d="M15.9,60.2c-0.9,2-1.3,2.4-1,1.3c-0.2,0.4-0.2,0.8-0.2,1.3l1.6,12.4
							c0.1,0.5,0.3,0.9,0.6,1.2c0.3,0.3,0.7,0.4,1.1,0.4c-0.1-0.1-0.1-0.2-0.1-0.4c0,0.1,0,0.3,0.1,0.4c0.1,0.4,0.3,0.7,0.6,1
							c0.3,0.2,0.6,0.3,1,0.4c-0.1-0.1-0.1-0.1-0.1-0.2l-1.4-10.9l-1.8-2.4L15.9,60.2z"/>
					</g>
				</g>
			</g>
			<g>
				<path class="st8" d="M107.7,129.9l-1.4-10.2c-0.9-6.6-5.4-11.9-11.4-14.1c-2.9-2.3-6.5-3.7-10.4-3.7H58.9
					c-3.2,0-6.3,0.9-8.8,2.5c-6,1.5-10.7,6.1-12.5,12l-3.2,10.8l-0.1,0.3c-3,5.4-2,20.3-1.9,23.4l6.1,18.5l7.1-3.6
					c-1.1-9.1-1.6-15.8-1.5-19.9c0.1-4,1.5-7.8,4.3-11.3c0.1-0.1,0.2-0.2,0.2-0.3c0.2-0.2,0.3-0.5,0.5-0.8l2.6,10
					c0.2,0.7,0.5,1.4,0.8,2.1v15.5h37.1v-15.6c0.3-0.6,0.6-1.3,0.8-2l2.5-9.9c0.3-0.1,0.5-0.3,0.8-0.4c2,6.9,2.6,12.1,2,15.9
					c-0.7,4.1-1.5,9.2-2.6,15.3l10,4l4.8-21C108.5,144.2,109.5,134.4,107.7,129.9L107.7,129.9"/>
				<path d="M38.4,169.5l-6.1-18.6c0-0.6-0.1-2.9-0.1-2.9c-0.1-3.8-0.2-6.7,0-9.4c0.2-5.3,0.9-9,2.1-11l0.1-0.3l0-0.1l3.2-10.7
					c1.7-5.9,6.5-10.5,12.5-12l0.1,0c2.6-1.6,5.6-2.5,8.7-2.5h25.6c3.8,0,7.5,1.3,10.4,3.7l0.1,0c6.1,2.2,10.4,7.6,11.3,14.1
					l1.4,10.2l0.1,0l0.1,0.4c1.2,3.9,0.9,12.3-0.1,17.2l-4.8,21l-10-4l0.1-0.4c1-6,1.8-10.9,2.5-14.9c0.6-3.7-0.1-9.1-2-15.9
					c-0.3,0.1-0.5,0.3-0.8,0.4l-2.5,9.9c-0.2,0.7-0.4,1.4-0.8,2v15.6H52.4v-15.5c-0.4-0.7-0.6-1.3-0.8-2.1l-2.6-10
					c-0.2,0.3-0.3,0.6-0.5,0.8c-0.1,0.1-0.2,0.2-0.2,0.3c-2.7,3.5-4.1,7.3-4.3,11.3c-0.1,4,0.4,10.6,1.5,19.5l0,0.3L38.4,169.5
					 M33.3,150.8l5.7,17.3l5.4-2.7c-1.1-8.8-1.5-15.3-1.4-19.3c0.1-4.2,1.6-8.2,4.5-11.9c0.1-0.1,0.1-0.2,0.2-0.3
					c0.1-0.2,0.3-0.4,0.4-0.7l1.2-2.4l3.3,12.6c0.2,0.6,0.4,1.3,0.7,1.8l0.1,0.2v14.8h35.1v-14.8l0.1-0.2c0.3-0.6,0.5-1.2,0.7-1.8
					l2.6-10.3l0.4-0.2c0.2-0.1,0.5-0.3,0.7-0.4l1.1-0.6l0.4,1.2c2,7,2.7,12.5,2.1,16.3c-0.6,3.9-1.5,8.7-2.4,14.5l8.2,3.3l4.6-19.9
					c1-4.6,1.3-12.4,0.3-16.3l-0.2,0l-1.5-11.1c-0.8-6.1-5-11.2-10.8-13.3l-0.2-0.1c-2.9-2.3-6.3-3.5-9.9-3.5H58.9
					c-2.9,0-5.8,0.8-8.3,2.4l-0.2,0.1c-5.7,1.5-10.2,5.8-11.9,11.4l-3.3,11c-0.1,0.1-0.1,0.2-0.2,0.3c-1.1,1.9-1.7,5.5-1.9,10.6
					c-0.1,2.7-0.1,5.6,0,9.3C33.2,148,33.3,150.3,33.3,150.8"/>
				<path class="st9" d="M45.8,138.8c-0.3,0.7-0.6,1.4-0.9,2.2L45.8,138.8"/>
				<path class="st10" d="M45.8,116.3l-3.3,30.7l0.5-1.3c0.2-4.1,1.7-7.9,4.5-11.5c0.1-0.1,0.1-0.2,0.2-0.3c0-0.1,0.1-0.1,0.1-0.2
					l0.2-0.4l1-2.3c0,0.1,0.1,0.2,0.1,0.3l0.2-0.4l3.3,12.6c0.2,0.6,0.4,1.3,0.7,1.8l0.1,0.2v12.8c0,0.6,0,1.3,0,2h4.9
					c-1.8-6.8-1.7-9.7-1.3-15.7c0.2-4.1,1.2-7.9,3-11.3c-3.3-0.9-6.2-2.7-8.6-5.6c-2.4-2.9-3.8-6.1-4.1-9.6L45.8,116.3"/>
				<path d="M58.3,160.2h-4.9c0,0.2,0,0.5,0,0.7c0.6,0.2,1.3,0.3,2.1,0.3c0.8,0,1.8-0.1,2.9-0.3C58.4,160.6,58.4,160.4,58.3,160.2
					 M47.8,133.7c0,0.1-0.1,0.1-0.1,0.2c-0.1,0.1-0.1,0.2-0.2,0.3c-2.8,3.6-4.3,7.5-4.5,11.5l1.9-4.7c0.2-0.7,0.5-1.5,0.9-2.2
					L47.8,133.7 M49.3,130.8l-0.2,0.4c2.3,8,3.6,12.9,3.9,14.7c0.2,1.6,0.4,5.7,0.4,12.3v-12.8l-0.1-0.2c-0.3-0.6-0.6-1.2-0.7-1.8
					L49.3,130.8"/>
				<path class="st9" d="M94.5,136.8l0,0.2l0.1,0.5C94.6,137.2,94.5,137,94.5,136.8"/>
				<path class="st10" d="M95,118.4l-1.5,3.5c0.7,4.1,0,7-2,8.5c-2,1.5-4.9,2.6-8.6,3.4l2,11.3c0.3,5.4-0.1,10.4-1.3,15.1h4.9v-14
					l0-0.1v-0.7l0.1-0.2c0.3-0.6,0.5-1.2,0.7-1.8l2.6-10.3l0.4-0.2c0.2-0.1,0.5-0.3,0.7-0.4l0.2-0.1l0.3-0.8l0.1,0.6l0.5-0.3
					l0.4,1.2c0.8,2.8,1.4,5.4,1.8,7.7L95,118.4"/>
				<path d="M88.4,160.2h-4.9c-0.1,0.2-0.1,0.5-0.2,0.7c1.1,0.2,2.1,0.3,2.9,0.3s1.6-0.1,2.1-0.3V160.2 M93.2,132.3l-0.2,0.1
					c-0.2,0.1-0.5,0.3-0.7,0.4l-0.4,0.2l-2.6,10.3c-0.2,0.6-0.4,1.2-0.7,1.8l-0.1,0.2v0.7L93.2,132.3 M94.1,131.7l-0.5,0.3l0.9,4.7
					c0.1,0.2,0.1,0.5,0.2,0.7l1.9,7.6l-0.3-4.4c-0.4-2.3-1-4.9-1.8-7.7L94.1,131.7"/>
				<path class="st11" d="M81.8,102.9h-0.8v0.5c0,2.1-2.9,3.6-6.9,3.6h-3c-5.5,0-8.6-1.4-9-4.1h-2.7c-0.3,0.1-0.6,0.1-0.9,0.2
					c0.8,3,3.3,6,8.1,7c2,0.4,3.9,0.7,5.8,0.7c2.7,0,5.6-0.5,8.9-1.8C86.7,107.1,86,104.6,81.8,102.9"/>
				<path d="M80.9,102.6v0.3h0.8C81.5,102.8,81.2,102.7,80.9,102.6 M62,102.5c-0.7,0.1-1.6,0.2-2.6,0.4H62
					C62,102.8,62,102.6,62,102.5"/>
				<path class="st12" d="M51.9,74.4c0,0,0-5.2,0-10.4c0,0,0.8-1.7,2.6-5l-5-2.4l5.4-1.2c0,0,0.7-1.9,2.2-5.8c1.6,2,2.4,3,2.4,3
					l7.6-3.6c-0.4,1.6-0.6,2.4-0.6,2.4l5.4-4.5c-0.5,2,3,4.5,3,4.5l8.8,0.2l-2,1.6l8.6,2.4l-2.2,1.6c3.5,2.9,5.3,4.4,5.2,4.4
					l-1.6,1.6c0.4,5.6-0.4,11.7-0.4,11.7h-36L51.9,74.4z"/>
				<path d="M91.5,75.4h-36l-3.7-0.5c-0.1,0-0.2-0.1-0.3-0.1c-0.2-0.2-0.2-0.2-0.1-10.8l0,0c0.1-0.4,0.6-1.3,2.4-4.8l-4.6-2.2
					C49.1,57,49,56.8,49,56.6c0-0.2,0.2-0.4,0.4-0.4l5.2-1.1c0.2-0.7,0.8-2.2,2.1-5.5c0.1-0.2,0.2-0.3,0.4-0.3c0.2,0,0.4,0,0.5,0.2
					c1.2,1.4,1.8,2.2,2.2,2.7l7.3-3.4c0.2-0.1,0.4-0.1,0.5,0.1c0.1,0.1,0.2,0.3,0.2,0.5c-0.1,0.3-0.1,0.6-0.2,0.9l4.2-3.5
					c0.2-0.1,0.4-0.2,0.6,0c0.2,0.1,0.3,0.3,0.2,0.5c-0.2,0.9,0.8,2.4,2.7,3.9l8.7,0.2c0.2,0,0.4,0.1,0.5,0.3c0.1,0.2,0,0.4-0.2,0.6
					l-1.2,1l7.7,2.1c0.2,0.1,0.3,0.2,0.4,0.4c0,0.2,0,0.4-0.2,0.5l-1.7,1.2c5,4.2,5,4.2,4.9,4.5L93.9,62l-1.4,1.4
					c0.3,4.8-0.2,11.5-0.5,11.9C91.8,75.4,91.6,75.4,91.5,75.4z M52.4,74l3.2,0.4l35.5,0c0.2-1.4,0.7-6.5,0.3-11.2
					c0-0.1,0-0.3,0.1-0.4l1.2-1.2c-0.5-0.5-1.8-1.6-4.8-4c-0.1-0.1-0.2-0.2-0.2-0.4c0-0.2,0.1-0.3,0.2-0.4l1.4-1l-7.6-2.1
					c-0.2-0.1-0.3-0.2-0.4-0.4c0-0.2,0-0.4,0.2-0.5l0.9-0.7L75,51.9c-0.1,0-0.2,0-0.3-0.1c-1.1-0.9-2.8-2.3-3.1-3.8L67,51.8
					c-0.1,0.2-0.2,0.2-0.4,0.2c-0.2,0-0.4-0.1-0.5-0.3c0-0.1,0-0.3,0-0.4c0-0.1,0.1-0.4,0.3-1.3l-6.7,3.2c-0.2,0.1-0.4,0-0.6-0.1
					l-0.1-0.1c-0.1-0.1-0.4-0.6-1.8-2.2c-1.5,3.8-1.8,4.7-1.9,4.9l0,0.1c-0.1,0.2-0.2,0.3-0.4,0.3l-4,0.9l3.7,1.8
					c0.1,0.1,0.2,0.2,0.3,0.3c0,0.1,0,0.3,0,0.4c-1.9,3.6-2.4,4.6-2.6,4.9C52.4,68.7,52.4,72.8,52.4,74z"/>
				<path class="st13" d="M57.8,74.9c-1.1-1-2.4-1.5-3.8-1.5c-1.5,0-2.8,0.5-3.9,1.5c-1,1-1.6,2.1-1.6,3.5S49,81,50.1,82
					c1.1,1,2.4,1.5,3.9,1.5c1.5,0,2.8-0.5,3.8-1.5c1.1-1,1.7-2.2,1.7-3.6S58.9,75.9,57.8,74.9z"/>
				<path d="M54,83.9c-1.6,0-3.1-0.5-4.3-1.6c-1.2-1.1-1.7-2.4-1.7-3.9c0-1.5,0.6-2.8,1.7-3.9c1.2-1.1,2.6-1.6,4.3-1.6
					c1.6,0,3,0.5,4.2,1.6c1.2,1.1,1.8,2.4,1.8,3.9c0,1.5-0.6,2.8-1.8,3.9C57,83.4,55.6,83.9,54,83.9z M54,73.9
					c-1.4,0-2.6,0.4-3.6,1.3c-0.9,0.9-1.4,1.9-1.4,3.1c0,1.2,0.5,2.3,1.4,3.2c1,0.9,2.2,1.3,3.6,1.3c1.4,0,2.5-0.4,3.5-1.3
					c1-0.9,1.5-2,1.5-3.2c0-1.2-0.5-2.3-1.5-3.1l0,0C56.5,74.4,55.4,73.9,54,73.9z"/>
				<path class="st7" d="M56.4,76.3c-0.7-0.6-1.5-0.9-2.4-0.9s-1.8,0.3-2.5,0.9c-0.7,0.6-1,1.3-1,2.1s0.3,1.5,1,2.1
					c0.7,0.6,1.5,0.9,2.5,0.9s1.8-0.3,2.4-0.9c0.7-0.6,1.1-1.3,1.1-2.1S57.1,76.9,56.4,76.3z"/>
				<path class="st13" d="M93.8,74.9c-1.1-1-2.4-1.5-3.8-1.5c-1.5,0-2.8,0.5-3.9,1.5c-1,1-1.6,2.1-1.6,3.5S85,81,86.1,82
					c1.1,1,2.4,1.5,3.9,1.5c1.5,0,2.8-0.5,3.8-1.5c1.1-1,1.7-2.2,1.7-3.6S94.9,75.9,93.8,74.9z"/>
				<path d="M90,83.9c-1.6,0-3.1-0.5-4.3-1.6c-1.2-1.1-1.7-2.4-1.7-3.9c0-1.5,0.6-2.8,1.7-3.9c1.2-1.1,2.6-1.6,4.3-1.6
					c1.6,0,3,0.5,4.2,1.6c1.2,1.1,1.8,2.4,1.8,3.9c0,1.5-0.6,2.8-1.8,3.9C93,83.4,91.6,83.9,90,83.9z M90,73.9
					c-1.4,0-2.6,0.4-3.6,1.3c-0.9,0.9-1.4,1.9-1.4,3.1c0,1.2,0.5,2.3,1.4,3.2c1,0.9,2.2,1.3,3.6,1.3c1.4,0,2.5-0.4,3.5-1.3
					c1-0.9,1.5-2,1.5-3.2c0-1.2-0.5-2.3-1.5-3.1l0,0C92.5,74.4,91.4,73.9,90,73.9z"/>
				<path class="st7" d="M92.4,76.3c-0.7-0.6-1.5-0.9-2.4-0.9s-1.8,0.3-2.5,0.9c-0.7,0.6-1,1.3-1,2.1s0.3,1.5,1,2.1
					c0.7,0.6,1.5,0.9,2.5,0.9s1.8-0.3,2.4-0.9c0.7-0.6,1.1-1.3,1.1-2.1S93.1,76.9,92.4,76.3z"/>
				<path class="st13" d="M66.3,99.1c-2.5,0-3.7-0.8-3.8-2.5v7.2c0,1.8,4.5,3.1,7,3.1h5c2.5,0,5.9-1.3,5.9-3.1v-7.2
					c-0.1,1.7-1.4,2.5-3.8,2.5H66.3"/>
				<path class="st7" d="M80.4,89.9c0-1.7-1.3-2.6-3.8-2.6H66.3c-2.5,0-3.8,0.9-3.8,2.6v9.8c0.1,1.6,1.4,2.5,3.8,2.5h10.3
					c2.5,0,3.7-0.8,3.8-2.5V89.9"/>
				<path d="M74,107h-3c-5.8,0-9-1.6-9-4.6V86.2c0-1.5,0.7-3.2,4.3-3.2h10.3c3.6,0,4.3,1.8,4.3,3.2v17.3C80.9,105.5,78,107,74,107
					 M66.3,83.9c-3,0-3.3,1.3-3.3,2.2v16.3c0,3.1,5,3.6,8,3.6h3c3.3,0,5.9-1.2,5.9-2.6V86.2c0-1-0.3-2.2-3.3-2.2H66.3"/>
				<path class="st14" d="M72,57.4c10.2,0,18.5,8.3,18.5,18.5v5c0,10.2-8.3,18.5-18.5,18.5c-10.2,0-18.5-8.3-18.5-18.5v-5
					C53.5,65.7,61.8,57.4,72,57.4"/>
				<path d="M72,99.4c-10.2,0-18.5-8.3-18.5-18.5v-5c0-10.2,8.3-18.5,18.5-18.5s18.5,8.3,18.5,18.5v5C90.5,91.1,82.2,99.4,72,99.4
					 M72,58.4c-9.6,0-17.5,7.9-17.5,17.5v5c0,9.6,7.9,17.5,17.5,17.5s17.5-7.9,17.5-17.5v-5C89.5,66.3,81.6,58.4,72,58.4"/>
				<path class="st15" d="M88.1,90.1c-1.6,2.8-4,5.2-6.8,6.8c1.8-0.8,3.5-2,5.1-3.6c0.8-0.8,1.5-1.6,2.1-2.5
					C88.4,90.6,88.2,90.4,88.1,90.1 M55.7,89.7c-0.1,0.1-0.1,0.2-0.2,0.3c0.7,1.2,1.6,2.3,2.7,3.4c0.3,0.3,0.6,0.6,0.9,0.8
					C57.7,92.9,56.6,91.4,55.7,89.7"/>
				<path class="st16" d="M88.1,90.1c-1.6,2.8-4,5.2-6.8,6.8c0,0,0,0,0.1,0C84.1,95.3,86.4,93,88.1,90.1
					C88.1,90.1,88.1,90.1,88.1,90.1 M55.7,89.7C55.7,89.7,55.7,89.7,55.7,89.7c0.9,1.7,2,3.2,3.4,4.5c0,0,0.1,0.1,0.1,0.1
					C57.8,93,56.6,91.4,55.7,89.7 M73.6,82.4h-3.6c-4.8,0-8.9,1.7-12.3,5c-0.4,0.5-0.9,0.9-1.3,1.4c2.9,5.7,8.8,9.6,15.6,9.6l0,0
					c6.6,0,12.4-3.7,15.4-9.2c-0.5-0.6-1-1.2-1.6-1.8C82.4,84.1,78.4,82.4,73.6,82.4"/>
				<path class="st17" d="M87.4,89.2c-3,5.5-8.8,9.2-15.4,9.2h2.1c2.6,0,4.9-0.5,7.1-1.5c2.8-1.6,5.2-4,6.8-6.8
					C87.8,89.8,87.6,89.5,87.4,89.2 M56.4,88.8c-0.2,0.3-0.5,0.6-0.7,0.9c0.9,1.7,2.1,3.3,3.5,4.6c3.2,2.8,6.9,4.1,11.3,4.1H72
					C65.2,98.4,59.3,94.5,56.4,88.8"/>
				<path class="st12" d="M71.4,65.4l1.2-7l9.6,6.3l1.4-2.9l1-0.3c-3.4-6.4-8.6-9-15.6-7.8l-11.4,1.9c1.3,4.1,1.9,6.2,1.8,6.2
					c2.3-1.5,3.5-2.3,3.5-2.3l0.6,0.6L71.4,65.4z"/>
				<path d="M71.4,65.9c-0.1,0-0.2,0-0.3-0.1l-7.9-5.4c-0.2-0.2-0.3-0.5-0.1-0.7c0.2-0.2,0.5-0.3,0.7-0.1l7.3,4.9l1-6.2
					c0-0.2,0.1-0.3,0.3-0.4c0.2-0.1,0.3-0.1,0.5,0l9.1,6l1.2-2.4c0.1-0.1,0.2-0.2,0.3-0.3l1-0.3c0.3-0.1,0.5,0.1,0.6,0.3
					c0.1,0.3-0.1,0.5-0.3,0.6l-0.8,0.2L82.6,65c-0.1,0.1-0.2,0.2-0.3,0.3c-0.1,0-0.3,0-0.4-0.1L73,59.3l-1,6.2
					c0,0.2-0.1,0.3-0.3,0.4L71.4,65.9z"/>
				<path d="M72.2,88.9c-2.3,0-4.6-0.7-6.9-2.1c-0.2-0.1-0.3-0.4-0.2-0.7c0.1-0.2,0.4-0.3,0.7-0.2c4.4,2.6,8.5,2.6,12.5,0
					c0.2-0.1,0.5-0.1,0.7,0.1c0.1,0.2,0.1,0.5-0.1,0.7C76.6,88.2,74.4,88.9,72.2,88.9z"/>
				<path d="M74.5,82.9h-4c-0.1,0-0.3-0.1-0.4-0.2c-0.1-0.1-0.1-0.3-0.1-0.4l1-6.5c0-0.3,0.3-0.5,0.6-0.4c0.3,0,0.5,0.3,0.4,0.6
					L71,81.9h3.4c0.3,0,0.5,0.2,0.5,0.5S74.7,82.9,74.5,82.9z"/>
				<path class="st18" d="M64.2,77.1c0.2-0.2,0.3-0.4,0.3-0.7c0-0.3-0.1-0.5-0.3-0.7s-0.4-0.3-0.7-0.3s-0.6,0.1-0.8,0.3
					c-0.1,0.2-0.2,0.4-0.2,0.7c0,0.3,0.1,0.5,0.2,0.7c0.2,0.2,0.5,0.3,0.8,0.3S64,77.3,64.2,77.1z"/>
				<path class="st18" d="M81.2,77.1c0.2-0.2,0.3-0.4,0.3-0.7c0-0.3-0.1-0.5-0.3-0.7c-0.2-0.2-0.4-0.3-0.7-0.3s-0.6,0.1-0.8,0.3
					c-0.1,0.2-0.2,0.4-0.2,0.7c0,0.3,0.1,0.5,0.2,0.7c0.2,0.2,0.5,0.3,0.8,0.3S81,77.3,81.2,77.1z"/>
			</g>
		</g>
	</g>
</g>
</svg>
