<?xml version="1.0" encoding="UTF-8"?>
<svg width="3354px" height="405px" viewBox="0 0 3354 405" version="1.1" xmlns="http://www.w3.org/2000/svg" xmlns:xlink="http://www.w3.org/1999/xlink">
    <!-- Generator: Sketch 47.1 (45422) - http://www.bohemiancoding.com/sketch -->
    <title>Slice</title>
    <desc>Created with Sketch.</desc>
    <defs></defs>
    <g id="Page-1" stroke="none" stroke-width="1" fill="none" fill-rule="evenodd">
        <path d="M0,405 L0,240 L79,240 L79,354 L113,354 L113,211.5 L164,211.5 L164,354 L194,354 L194,281 L244,281 L244,304 L266.5,304 L266.5,350 L298.5,350 L298.5,211.5 L329.5,240 L329.5,295.5 L353.5,295.5 L353.5,331.5 L387,331.5 L387,354 L450.5,354 C449.899037,233.878219 449.899037,170.211552 450.5,163 C451.100963,155.788448 456.767629,146.788448 467.5,136 C480.175483,126.666667 491.842149,122 502.5,122 C518.486776,122 525,126.5 537,136 C545,142.333333 551.5,152.5 556.5,166.5 L556.5,354 L576.5,354 C571.833333,193.333333 571.833333,103.166667 576.5,83.5 C583.5,54 596.253208,19.5 615,19.5 C633.746792,19.5 646,54 651.5,83.5 C655.166667,103.166667 655.166667,193.333333 651.5,354 L684.5,354 L684.5,136 L743,99 L743,350 L785,350 L785,67.5 L851.5,67.5 L851.5,202.498521 L911,202.498521 L911,288.5 L938,288.5 L938,122 L985,122 L985,295.5 L1004,295.5 L1004,233 L1022.5,233 L1022.5,184.5 L1044,184.5 L1044,136 L1078.5,136 L1078.5,184.5 L1105,184.5 L1105,233 L1127,233 L1127,122 L1177,122 L1177,233 L1202,233 L1202,117.5 L1257,117.5 L1257,233 L1285,233 L1285,184.5 L1326,184.5 L1326,233 L1361,233 L1361,153.5 L1394.5,153.5 L1394.5,117.5 L1410,117.5 L1410,153.5 L1435.5,153.5 L1435.5,132 L1454.5,132 L1450.5,192.5 L1478,192.5 L1478,217.5 L1522,217.5 L1522,295.5 L1557,295.5 L1557,249.5 L1595.5,249.5 L1595.5,206.5 L1616,206.5 L1616,146.5 L1658.5,146.5 L1658.5,170.5 L1697.5,170.5 L1697.5,263 L1783,263 L1783,281 L1811,281 L1811,192.5 L1854,192.5 L1854,233 L1897.5,233 L1897.5,111 L1933,111 L1933,240 L1976.5,240 L2000.5,103.5 L1993.5,58 L2011.5,58 L2020,8.52651283e-14 L2035,58 L2053,58 L2044.5,106.5 L2069,240 L2091,240 L2091,146.5 L2115.5,146.5 L2115.5,170.5 L2137,170.5 L2137,70.5 L2166.5,70.5 L2166.5,103.5 L2197.5,103.5 L2197.5,132 L2248,132 L2248,197.5 L2302,197.5 L2302,312.5 L2328,321.5 L2328,215.5 L2356.5,215.5 L2356.5,191 L2374.5,191 L2374.5,283.5 L2405.5,283.5 L2405.5,321.5 L2425,321.5 L2425,215.5 L2466,215.5 L2466,254.5 L2499.5,254.5 L2499.5,228.5 L2522,228.5 L2522,177.5 L2547.5,177.5 L2547.5,149 L2598.5,149 L2598.5,202.5 L2620,202.5 L2620,254.5 L2644.5,254.5 L2644.5,321.5 L2676.5,321.5 L2676.5,215.5 L2701,215.5 L2701,283.5 L2762,283.5 L2762,171 L2793,171 L2793,263.5 L2821,263.5 L2825,220.5 L2846.5,220.5 L2846.5,183.5 L2866,183.5 L2866,156.5 L2879.5,156.5 L2879.5,207.5 L2900.5,207.5 L2900.5,254.5 L2918.5,254.5 L2922.5,156.5 L2955.5,156.5 L2955.5,254.5 L2969,254.5 L2973,183.5 L3006,183.5 L3006,254.5 L3041.5,254.5 L3041.5,161 L3064,156.5 L3064,127 L3084,127 L3084,102 L3106.5,102 L3106.5,156.5 L3124.5,156.5 L3124.5,224.5 L3152.5,224.5 L3152.5,240.5 L3205.5,240.5 L3205.5,161 L3229.5,161 L3229.5,115.5 L3264,115.5 L3264,82 L3283.5,82 L3283.5,96 L3310.5,96 L3310.5,156.5 L3354,156.5 L3354,405 L0,405 Z" id="City-1" fill="#F1F5F6"></path>
    </g>
</svg>