<?xml version="1.0" encoding="UTF-8"?>
<svg width="24px" height="29px" viewBox="0 0 24 29" version="1.1" xmlns="http://www.w3.org/2000/svg" xmlns:xlink="http://www.w3.org/1999/xlink">
    <!-- Generator: Sketch 47.1 (45422) - http://www.bohemiancoding.com/sketch -->
    <title>Slice</title>
    <desc>Created with Sketch.</desc>
    <defs></defs>
    <g id="Page-1" stroke="none" stroke-width="1" fill="none" fill-rule="evenodd" stroke-linecap="round">
        <g id="Group-10" transform="translate(-131.000000, -98.000000)" stroke="#000000" fill="#FFFFFF">
            <path d="M154.606061,99 L175,99 L175,98.6978917 C199.749728,95.9619481 219,74.9790451 219,49.5 C219,24.0209549 199.749728,3.03805186 175,0.302108278 L175,0 L51,0 L51,0.0222933431 C50.5018181,0.00746618913 50.001781,0 49.5,0 C22.1619049,0 0,22.1619049 0,49.5 C0,76.8380951 22.1619049,99 49.5,99 C50.001781,99 50.5018181,98.9925338 51.0000065,98.9777065 L51,99 L131.272727,99 L144,127 L154.606061,99 Z" id="Combined-Shape"></path>
        </g>
    </g>
</svg>