<?xml version="1.0" encoding="utf-8"?>
<!-- Generator: Adobe Illustrator 22.0.1, SVG Export Plug-In . SVG Version: 6.00 Build 0)  -->
<!DOCTYPE svg PUBLIC "-//W3C//DTD SVG 1.1//EN" "http://www.w3.org/Graphics/SVG/1.1/DTD/svg11.dtd">
<svg version="1.1" id="Layer_1" xmlns="http://www.w3.org/2000/svg" xmlns:xlink="http://www.w3.org/1999/xlink" x="0px" y="0px"
	 viewBox="0 0 131 227" style="enable-background:new 0 0 131 227;" xml:space="preserve">
<style type="text/css">
	.st0{fill:#000066;}
	.st1{fill:#FFCC99;}
	.st2{fill:#EAAF75;}
	.st3{fill:#E3365F;}
	.st4{fill:#FFFFFF;}
	.st5{fill:#513600;}
	.st6{fill:#003366;}
	.st7{fill:#4A6E6E;}
	.st8{fill:#669999;}
	.st9{fill:#99CCCC;}
</style>
<g>
	<path class="st0" d="M48.8,77.3c-1.1-1.5-2.5-2.3-4.2-2.6s-3.4,0.2-4.8,1.3c-1.4,1.2-2.3,2.6-2.5,4.5l-3.8,27.3
		c-0.3,1.8,0.1,3.5,1.2,4.9c1.1,1.5,2.5,2.4,4.3,2.6c1.8,0.2,3.4-0.2,4.8-1.4c1.5-1.1,2.3-2.6,2.6-4.4L50,82.3
		C50.3,80.4,49.8,78.8,48.8,77.3z"/>
	<path d="M39.7,116.6c-0.3,0-0.7,0-1-0.1c-1.9-0.3-3.5-1.2-4.7-2.9c-1.2-1.6-1.6-3.4-1.4-5.3l3.8-27.4c0.3-2,1.2-3.6,2.7-4.8
		c1.6-1.2,3.4-1.7,5.3-1.4v0c1.9,0.3,3.5,1.2,4.7,2.8c1.2,1.6,1.7,3.4,1.4,5.4l-3.8,27.4c-0.3,2-1.2,3.6-2.8,4.8
		C42.7,116.1,41.2,116.6,39.7,116.6z M43.4,75.6c-1.3,0-2.5,0.4-3.6,1.3c-1.4,1.1-2.1,2.4-2.4,4.1l-3.8,27.4
		c-0.2,1.7,0.1,3.2,1.2,4.6c1,1.4,2.4,2.2,4,2.5c1.7,0.2,3.1-0.2,4.5-1.2c1.4-1,2.2-2.4,2.4-4.1l3.8-27.4c0.2-1.7-0.2-3.2-1.2-4.7
		c-1-1.4-2.3-2.2-4-2.4v0C44,75.6,43.7,75.6,43.4,75.6z"/>
	<path class="st1" d="M111.5,73.5l-0.9,0.6c-0.5,0.4-0.8,0.9-0.9,1.3c-0.1,0.4,0,0.9,0.2,1.3l0.3-1
		C110.4,74.8,110.8,74.1,111.5,73.5z M118.4,83.3c1-0.3,0.4-0.4-1.6-0.3l3.5-2.4l1-2.7l8-6.2c0.1,0,0.1-0.1,0.1-0.2
		c0.3-0.3,0.4-0.6,0.5-1c0.1-0.6,0-1.1-0.3-1.5c-0.3-0.4-0.8-0.7-1.3-0.6c-0.5-0.1-0.9,0-1.3,0.3l-7.9,6.2l-2.6,0.1l5.3-4.2
		c0.4-0.4,0.7-0.8,0.8-1.2c0-0.5-0.2-1-0.5-1.4c-0.3-0.4-0.7-0.7-1.2-0.8c-0.5,0-1,0.1-1.4,0.5l-8.3,6.5c-0.6,0.5-0.9,1.2-1,2
		l-0.2,0.9l-0.6,3.8c-0.2,1.4,0.6,2.3,2.3,2.6l5.5-0.2C117.7,83.4,118.1,83.4,118.4,83.3z"/>
	<path class="st2" d="M116.8,82.8c2.1-0.1,2.6,0,1.6,0.3c0.4,0,0.8-0.2,1.1-0.5l9.3-7.2c0.4-0.3,0.6-0.7,0.7-1.1
		c0-0.4,0-0.8-0.2-1.2c-0.1,0.1-0.1,0.2-0.3,0.3c0.1-0.1,0.2-0.2,0.3-0.3c0.3-0.2,0.5-0.6,0.5-1c0-0.4-0.1-0.7-0.2-1.1
		c0,0.1-0.1,0.2-0.1,0.2l-8.1,6.3l-1,2.8L116.8,82.8z"/>
	<path d="M111.8,84.3L111.8,84.3c-2.6-0.4-2.8-2.1-2.7-3l0.4-2.3c-0.2-0.1-0.3-0.3-0.3-0.5l0.7-3.8c0-0.3,0.3-0.4,0.5-0.4l0.1-0.1
		l8.5-6.6c0.5-0.4,1.1-0.6,1.7-0.6c0.7,0.2,1.2,0.5,1.6,1c0.4,0.5,0.6,1.1,0.6,1.7l0,0.1c-0.1,0.6-0.5,1.1-1,1.5l-4.2,3.3l0.9,0
		l7.9-6.2c0.5-0.4,1.1-0.5,1.7-0.4c0.7,0,1.2,0.3,1.7,0.8c0.4,0.5,0.6,1.2,0.4,1.9c-0.1,0.4-0.2,0.7-0.4,1c0.1,0.3,0.2,0.7,0.1,1
		c-0.1,0.6-0.3,1-0.6,1.3c0.1,0.3,0.1,0.6,0,0.9c-0.2,0.6-0.5,1-0.9,1.3l-9.1,6.9c-0.3,0.2-0.6,0.4-0.9,0.5
		c-0.1,0.1-0.2,0.2-0.3,0.2c-0.4,0.1-0.8,0.2-1.3,0.2L111.8,84.3L111.8,84.3z M110.5,77.2c0.2,0.1,0.3,0.3,0.3,0.5l-0.6,3.7
		c-0.1,0.7,0,1.6,1.7,1.9l5.3-0.2c0.2,0,0.5,0,0.6,0c0.1-0.1,0.2-0.2,0.4-0.3c0.3,0,0.5-0.1,0.8-0.4l9.1-6.9
		c0.3-0.2,0.5-0.5,0.5-0.8l0-0.2c-0.1,0-0.3-0.1-0.4-0.2c-0.1-0.2-0.1-0.5,0.2-0.7c0.1-0.1,0.2-0.2,0.3-0.3l0,0
		c0.2-0.2,0.3-0.4,0.4-0.7c0-0.2,0-0.4-0.1-0.6l0,0c-0.2,0.1-0.5,0.1-0.7-0.2c-0.1-0.2-0.1-0.5,0.1-0.6c0.1-0.2,0.4-0.4,0.6-0.3
		l0.2,0.1c0.1-0.2,0.2-0.4,0.2-0.6c0.1-0.4,0-0.8-0.3-1.1c-0.2-0.3-0.5-0.5-0.9-0.5l-0.1,0c-0.3-0.1-0.6,0-0.9,0.2l-8.1,6.3
		c-0.1,0.1-0.2,0.1-0.3,0.1l-2.7,0.1c-0.2,0-0.4-0.1-0.5-0.3c-0.1-0.2,0-0.4,0.2-0.6l5.5-4.3c0.3-0.3,0.5-0.6,0.6-0.9
		c0-0.4-0.1-0.7-0.4-1.1c-0.3-0.3-0.6-0.5-1-0.6c-0.3,0-0.6,0.1-1,0.4l-8.5,6.6c-0.1,0.1-0.2,0.1-0.3,0.1L110.5,77.2z"/>
	<path class="st0" d="M114,85.8c0.7-1,0.5-1.8-0.5-2.5l-3.7-2.5c-1-0.7-1.8-0.5-2.5,0.5l-2.5,3.7c-0.7,1-0.5,1.8,0.5,2.5l3.7,2.5
		c1,0.7,1.8,0.5,2.5-0.5L114,85.8z"/>
	<path d="M110.2,90.8c-0.4,0-0.9-0.2-1.4-0.5l-3.7-2.5c-0.6-0.4-1-0.9-1.1-1.4c-0.1-0.5,0.1-1.1,0.5-1.7L107,81
		c0.8-1.2,1.9-1.4,3.2-0.6l3.7,2.5c0.6,0.4,1,0.9,1.1,1.4c0.1,0.5-0.1,1.1-0.5,1.7l-2.5,3.7C111.5,90.4,110.9,90.8,110.2,90.8z
		 M109.4,89.5c0.7,0.5,1.3,0.4,1.8-0.4l2.5-3.7c0.3-0.4,0.4-0.7,0.3-1c-0.1-0.3-0.3-0.5-0.6-0.8l-3.7-2.5c-0.7-0.5-1.3-0.4-1.8,0.4
		l-2.5,3.7c-0.3,0.4-0.4,0.7-0.3,1c0.1,0.3,0.3,0.5,0.6,0.8L109.4,89.5z"/>
	<path class="st0" d="M32.7,95L32.7,95l7.2,7.1c1,1,1.6,2.3,1.5,3.8c0,1.6-0.6,2.9-1.7,4c-1.1,1.1-2.4,4.2-4,4.2
		c-1,0.1-4.7-3.5-11-10.7l-2.8-2.8l-2.9-2.9c-1-1-1.5-2.2-1.5-3.7l5.5-5.9l0.1,0c1.5-0.1,2.8,0.4,3.9,1.4L32.7,95z"/>
	<path d="M35.1,114.6c-0.1,0-0.3,0-0.4-0.1l-16.3-16c-1.2-1.1-1.7-2.5-1.7-4.2c0-0.1,0.1-0.2,0.1-0.3l5.7-6.1
		c0.1-0.1,0.2-0.2,0.4-0.2c1.8-0.1,3.2,0.4,4.4,1.5l15.1,14c0.2,0.2,0.2,0.5,0,0.7c-0.2,0.2-0.5,0.2-0.7,0L26.8,90
		c-1-0.9-2.1-1.3-3.5-1.3l-5.5,5.9c0,1.3,0.4,2.4,1.4,3.2l3,3l13.2,13c0.2,0.2,0.2,0.5,0,0.7C35.4,114.6,35.3,114.6,35.1,114.6z"/>
	<path class="st0" d="M84.1,77.8c1-1.5,2.4-2.4,4.2-2.7c1.8-0.3,3.4,0.1,4.9,1.2c1.5,1.1,2.3,2.6,2.6,4.4l4.4,27.2
		c0.3,1.8-0.1,3.5-1.1,5c-1.1,1.5-2.5,2.4-4.2,2.7c-1.8,0.3-3.4-0.1-4.8-1.3c-1.5-1.1-2.4-2.5-2.7-4.4l-4.4-27.2
		C82.7,81.1,83,79.4,84.1,77.8z"/>
	<path d="M93.3,115.4c-1.5,0-2.9-0.5-4.2-1.4c-1.6-1.1-2.6-2.7-3-4.6l-4.4-26.7c-0.3-1.9,0.1-3.7,1.3-5.3c1.2-1.6,2.7-2.5,4.7-2.8h0
		c1.9-0.3,3.8,0.1,5.4,1.2c1.6,1.2,2.6,2.7,2.9,4.7l4.4,26.7c0.3,1.9-0.1,3.7-1.3,5.3c-1.2,1.6-2.8,2.6-4.7,2.9
		C94.1,115.4,93.7,115.4,93.3,115.4z M87.8,75.5c-1.7,0.3-3,1.1-4,2.5c-1,1.4-1.4,2.9-1.1,4.6l4.4,26.7c0.3,1.7,1.1,3,2.5,3.9
		c1.4,1,2.9,1.4,4.7,1.1c1.7-0.3,3-1.1,4.1-2.5c1-1.4,1.4-2.9,1.1-4.5L95,80.6c-0.3-1.7-1.1-3-2.5-4C91.1,75.6,89.6,75.2,87.8,75.5
		L87.8,75.5z"/>
	<path class="st2" d="M8.1,85c0.3,0.4,0.6,0.7,1,0.9c-0.9-0.6-0.3-0.6,1.8,0.2l-2.7-3.7l0-3.2L2.2,70c-0.1,0-0.1-0.1-0.1-0.2
		c-0.3,0.3-0.5,0.6-0.6,1c-0.1,0.5,0,0.9,0.1,1.3c0,0.1,0.1,0.3,0.2,0.4c-0.1-0.1-0.1-0.2-0.2-0.4c-0.3,0.3-0.6,0.7-0.7,1.1
		c-0.1,0.5,0,0.9,0.3,1.3L8.1,85z"/>
	<path class="st1" d="M18.1,81.6l-0.1,1c0.3-0.3,0.5-0.7,0.6-1.1c0-0.5-0.1-1.1-0.5-1.6L17.6,79C18.1,79.8,18.2,80.6,18.1,81.6z
		 M14.7,87.8c1.6,0.3,2.6-0.2,2.8-1.6l0.5-3.7l0.1-0.9c0.1-0.8,0-1.6-0.4-2.2l-5.8-8.7c-0.3-0.5-0.6-0.8-1.1-0.9
		c-0.5,0-1,0.1-1.4,0.3c-0.4,0.3-0.7,0.7-0.8,1.1c0,0.5,0.1,0.9,0.3,1.4l3.7,5.6l-2.4-1l-5.5-8.3c-0.3-0.4-0.7-0.6-1.1-0.7
		c-0.5-0.2-0.9-0.2-1.4,0.1C2,68.6,1.7,69,1.7,69.6c-0.1,0.4,0,0.8,0.2,1.1c0,0.1,0,0.2,0.1,0.2l5.6,8.4l0.1,2.8l2.5,3.4
		c-1.9-0.8-2.4-0.8-1.5-0.3c0.3,0.2,0.6,0.4,1.1,0.5L14.7,87.8z"/>
	<path d="M15.5,88.4c-0.3,0-0.6,0-0.9-0.1l-0.1,0l-5-2C9,86.1,8.6,86,8.3,85.8c-0.4-0.2-0.6-0.6-0.8-0.9l-0.1-0.2l-6.7-9.8
		c-0.3-0.5-0.5-1-0.5-1.5c0.1-0.4,0.2-0.7,0.4-1c-0.1-0.3-0.2-0.7-0.1-1.1c0.1-0.5,0.3-0.8,0.6-1.1l0.1-0.1c0-0.2,0-0.3,0-0.5
		c0.1-0.7,0.4-1.3,1-1.6c0.6-0.4,1.2-0.4,1.8-0.2c0.6,0.1,1,0.4,1.4,0.9l5.4,8.2l0.7,0.3l-2.8-4.2c-0.3-0.6-0.5-1.2-0.4-1.7
		c0.2-0.7,0.5-1.1,1-1.5c0.5-0.3,1.1-0.5,1.7-0.4l0.1,0c0.6,0.2,1.1,0.6,1.4,1.2l5.8,8.7c0.4,0.8,0.6,1.6,0.5,2.6l-0.1,0.9L18,86.3
		C17.9,87.1,17.3,88.4,15.5,88.4z M14.8,87.4c1.7,0.3,2.1-0.5,2.2-1.2l0.5-3.7l0.1-0.9c0.1-0.8,0-1.4-0.3-1.9L11.5,71
		c-0.2-0.4-0.5-0.6-0.8-0.7c-0.4,0-0.7,0.1-1,0.3c-0.3,0.2-0.5,0.5-0.6,0.8c0,0.3,0.1,0.6,0.3,1l3.7,5.6c0.1,0.2,0.1,0.4,0,0.6
		c-0.1,0.2-0.4,0.2-0.6,0.1l-2.4-1c-0.1,0-0.2-0.1-0.2-0.2l-5.5-8.3c-0.2-0.3-0.4-0.4-0.8-0.4l-0.2,0c-0.3-0.1-0.6-0.1-0.9,0.1
		c-0.3,0.2-0.5,0.5-0.5,0.9c0,0.3,0,0.6,0.1,0.8l0,0.1c0.1,0.1,0.1,0.3,0.1,0.5c-0.1,0.3-0.4,0.4-0.7,0.3l-0.2-0.1l0,0.2
		c0,0.3,0,0.6,0.2,0.8c0.1,0.2,0.1,0.4-0.1,0.6c-0.2,0.2-0.3,0.4-0.3,0.6c0,0.2,0.1,0.5,0.3,0.8l6.9,10.1c0.1,0.2,0.2,0.4,0.3,0.5
		l0.1,0.1c0.2,0.2,0.5,0.3,0.9,0.4L14.8,87.4z"/>
	<path class="st0" d="M19.1,93.4l3.3-2.9c0.9-0.8,0.9-1.6,0.1-2.5l-2.9-3.3c-0.8-0.9-1.6-0.9-2.5-0.2l-3.3,2.9
		C13,88.3,13,89.1,13.8,90l2.9,3.3C17.5,94.1,18.3,94.2,19.1,93.4z"/>
	<path d="M18,94.4l-0.1,0c-0.5,0-1.1-0.3-1.5-0.9l-2.9-3.3c-1-1.1-0.9-2.2,0.2-3.2l3.3-2.9c0.5-0.5,1.1-0.7,1.6-0.7
		c0.5,0,1.1,0.3,1.5,0.9l2.9,3.3c1,1.1,0.9,2.2-0.2,3.2l-3.3,2.9C19,94.2,18.5,94.4,18,94.4z M18.4,84.5c-0.3,0-0.5,0.1-0.9,0.4
		l-3.3,2.9c-0.7,0.6-0.7,1.1-0.1,1.8l2.9,3.3c0.3,0.3,0.6,0.5,0.9,0.5c0.3,0,0.6-0.1,0.9-0.4l0,0l3.3-2.9c0.7-0.6,0.7-1.1,0.1-1.8
		l-2.9-3.3C19,84.7,18.7,84.6,18.4,84.5L18.4,84.5z"/>
	<path class="st0" d="M107.8,98.3L107.8,98.3l-2.2,3.4L107.8,98.3z M90.6,103.2c-0.8,1.2-1,2.6-0.7,4c0.4,1.5,1.2,2.7,2.5,3.6
		c1.3,0.9,2.7,1.2,4.2,0.9c1.5-0.3,2,0.1,1.5,1l7.4-11.4l2.1-3.4l2.2-3.4c0.8-1.2,1-2.5,0.6-3.9l-6.7-4.5l-0.1,0
		c-1.5,0.3-2.6,1-3.5,2.2l-4.3,6.6l0.1,0.1L90.6,103.2z"/>
	<path d="M98.1,113.8c-0.1,0-0.2,0-0.3-0.1c-0.2-0.2-0.3-0.5-0.1-0.7l9.8-15.1l0,0l2.2-3.4c0.7-1.1,0.9-2.2,0.6-3.5l-6.7-4.5
		c-1.4,0.3-2.4,0.9-3.1,2l-4.3,6.6l-0.1,0.2l-5.5,8.4c-0.2,0.2-0.5,0.3-0.7,0.1c-0.2-0.2-0.3-0.5-0.1-0.7l5.4-8.2l0.1-0.2l4.4-6.8
		c0.9-1.4,2.2-2.2,3.9-2.5c0.1,0,0.3,0,0.4,0.1l7,4.8c0.1,0.1,0.2,0.2,0.2,0.3c0.4,1.6,0.2,3.1-0.7,4.5l-2.2,3.4l-2.1,3.4
		c-0.1,0.1-0.2,0.2-0.3,0.2l-7.5,11.5C98.4,113.7,98.3,113.8,98.1,113.8z"/>
	<path class="st0" d="M92.5,78.2c0.2-0.9,0.4-1.8,0.5-2.6h-3.2v-0.9c-15.4-7.5-30.4-7.5-45.2-0.2c0,0-0.8,0.4-2.4,1.3l2.3,4.6
		l-0.9,2.2c-2.6-1.2-3.8-1.6-3.7-1.3c2.8,4.4,4.3,6.7,4.3,7c0.4,3.2,1.2,6.2,2.4,9c1.3,3.1,1.9,5.7,1.7,7.7
		c-0.4,12.7,0.5,19.8,2.7,21.3v0.5l32.6,0.2c1.8-3.2,2.6-10.5,2.3-21.8v-0.3h0c0,0.1,0,0.2,0,0.3c0.2-0.3,0.8-2.1,2-5.5
		c1.5-4.2,2.4-8.1,2.8-11.6C90.8,87.8,91.4,84.5,92.5,78.2z"/>
	<path d="M83.1,127.5L83.1,127.5L51,127.2c-0.3,0-0.5-0.2-0.5-0.5c0-0.1,0.1-0.3,0.2-0.4c-2.4-1.7-3.3-8.8-2.9-21.7
		c0.2-2-0.4-4.5-1.7-7.5c-1.2-2.8-2.1-5.9-2.5-9.1c0-0.3,0.2-0.5,0.4-0.6c0.3,0,0.5,0.2,0.6,0.4c0.4,3.1,1.2,6.1,2.4,8.9
		c1.4,3.1,2,5.8,1.8,7.9c-0.5,15.4,1.1,19.8,2.5,20.8c0.2,0.2,0.3,0.4,0.1,0.7l31.3,0.2c1.6-3.2,2.3-10.2,2.1-20.7
		c-0.2-0.1-0.3-0.3-0.3-0.5c0-0.1,0-0.3,0-0.4c0-0.3,0.2-0.4,0.5-0.4h0c0.2-0.6,0.7-2,1.8-5c1.4-4.2,2.3-8.1,2.7-11.5
		c0-0.3,0.3-0.5,0.5-0.4c0.3,0,0.5,0.3,0.4,0.5c-0.4,3.6-1.3,7.5-2.8,11.8c-1.3,3.9-1.8,5.1-1.9,5.4c0.3,11.4-0.5,18.6-2.3,22
		C83.4,127.4,83.2,127.5,83.1,127.5z M42,76.5c-0.2,0-0.3-0.1-0.4-0.2c-0.1-0.2-0.1-0.5,0.2-0.7c1.4-0.9,2.1-1.3,2.4-1.4
		c14.7-7.6,29.8-7.5,45.1,0.3c0.2,0.1,0.3,0.4,0.2,0.7c-0.1,0.2-0.4,0.3-0.7,0.2c-14.9-7.7-29.8-7.8-44.2-0.3l-0.1,0
		c-0.1,0.1-0.6,0.3-2.2,1.3L42,76.5z"/>
	<path class="st1" d="M71,74c2,0,3-1.1,3-3.2v-7.7C73.9,65,72.9,66,71,66H63c-1.9,0-2.9-1-3-3v7.8c0,2.1,1,3.2,3,3.2H71z"/>
	<path class="st2" d="M71,52H63c-2,0-3,1.1-3,3.2V67c0.1,2,1.1,3,3,3H71c1.9,0,2.9-1,3-2.9V55.2C74,53.1,73,52,71,52z"/>
	<path d="M71,75.5H63c-1.6,0-3.5-0.7-3.5-3.8V51.3c0-3.2,1.9-3.8,3.5-3.8H71c1.6,0,3.5,0.7,3.5,3.8v20.4
		C74.5,74.8,72.6,75.5,71,75.5z M63,48.5c-1.7,0-2.5,0.9-2.5,2.8v20.4c0,1.9,0.8,2.8,2.5,2.8H71c1.7,0,2.5-0.9,2.5-2.8V51.3
		c0-1.9-0.8-2.8-2.5-2.8H63z"/>
	<rect x="54.5" y="51.6" transform="matrix(0.9488 -0.3159 0.3159 0.9488 -13.6318 20.1647)" class="st1" width="1.8" height="1"/>
	<path class="st1" d="M86.5,33c-1.5,0-2.8,0.5-3.9,1.5c-1,1-1.6,2.1-1.6,3.5s0.5,2.6,1.6,3.6c1.1,1,2.4,1.5,3.9,1.5
		c1.5,0,2.8-0.5,3.8-1.5c1.1-1,1.7-2.2,1.7-3.6s-0.6-2.5-1.7-3.5C89.3,33.5,88,33,86.5,33z"/>
	<path class="st2" d="M84,35.9c-0.7,0.6-1,1.3-1,2.1s0.3,1.5,1,2.1c0.7,0.6,1.5,0.9,2.5,0.9s1.8-0.3,2.4-0.9
		c0.7-0.6,1.1-1.3,1.1-2.1s-0.4-1.5-1.1-2.1c-0.7-0.6-1.5-0.9-2.4-0.9S84.7,35.3,84,35.9z"/>
	<path d="M86.5,43.5c-1.6,0-3.1-0.5-4.3-1.6c-1.2-1.1-1.7-2.4-1.7-3.9c0-1.5,0.6-2.8,1.7-3.9c1.2-1.1,2.6-1.6,4.3-1.6
		c1.6,0,3,0.5,4.2,1.6c1.2,1.1,1.8,2.4,1.8,3.9c0,1.5-0.6,2.8-1.8,3.9C89.5,43,88.1,43.5,86.5,43.5z M86.5,33.5
		c-1.4,0-2.6,0.4-3.6,1.3c-0.9,0.9-1.4,1.9-1.4,3.1c0,1.2,0.5,2.3,1.4,3.2c1,0.9,2.2,1.3,3.6,1.3c1.4,0,2.5-0.4,3.5-1.3
		c1-0.9,1.5-2,1.5-3.2c0-1.2-0.5-2.3-1.5-3.1C89,33.9,87.9,33.5,86.5,33.5z"/>
	<path class="st1" d="M43.6,33.5c-1,1-1.6,2.1-1.6,3.5s0.5,2.6,1.6,3.6c1.1,1,2.4,1.5,3.9,1.5c1.5,0,2.8-0.5,3.8-1.5
		c1.1-1,1.7-2.2,1.7-3.6s-0.6-2.5-1.7-3.5c-1.1-1-2.4-1.5-3.8-1.5C46,32,44.7,32.5,43.6,33.5z M44,37c0-0.8,0.4-1.5,1.2-2.1
		C46,34.3,46.9,34,48,34s2,0.3,2.8,0.9c0.8,0.6,1.2,1.3,1.2,2.1s-0.4,1.5-1.2,2.1C50,39.7,49.1,40,48,40s-2-0.3-2.8-0.9
		C44.4,38.5,44,37.8,44,37z"/>
	<path class="st2" d="M45,34.9c-0.7,0.6-1,1.3-1,2.1s0.3,1.5,1,2.1c0.7,0.6,1.5,0.9,2.5,0.9s1.8-0.3,2.4-0.9
		c0.7-0.6,1.1-1.3,1.1-2.1s-0.4-1.5-1.1-2.1c-0.7-0.6-1.5-0.9-2.4-0.9S45.7,34.3,45,34.9z"/>
	<path d="M47.5,42.5c-1.6,0-3.1-0.5-4.3-1.6c-1.2-1.1-1.7-2.4-1.7-3.9c0-1.5,0.6-2.8,1.7-3.9c1.2-1.1,2.6-1.6,4.3-1.6
		c1.6,0,3,0.5,4.2,1.6c1.2,1.1,1.8,2.4,1.8,3.9c0,1.5-0.6,2.8-1.8,3.9C50.5,42,49.1,42.5,47.5,42.5z M47.5,32.5
		c-1.4,0-2.6,0.4-3.6,1.3c-0.9,0.9-1.4,1.9-1.4,3.1c0,1.2,0.5,2.3,1.4,3.2c1,0.9,2.2,1.3,3.6,1.3c1.4,0,2.5-0.4,3.5-1.3
		c1-0.9,1.5-2,1.5-3.2c0-1.2-0.5-2.3-1.5-3.1C50,32.9,48.9,32.5,47.5,32.5z"/>
	<path class="st1" d="M68.8,14h-3.6c-4.7,0-10.3,0.6-13.7,4.5C48.2,22.4,48,32.5,48,38V46c0,5.5,1.7,10.2,5,14.1
		C56.4,64,60.4,66,65.2,66h3.6c4.7,0,8.8-2,12.1-5.9C84.3,56.2,86,51.5,86,46V38c0-5.5-0.6-15-4-19C78.7,15.1,73.6,14,68.8,14z"/>
	<path d="M68.8,66.5h-3.6c-4.9,0-9.1-2-12.6-6.1c-3.4-4-5.1-8.8-5.1-14.4V38c0-4.6,0-14,3.6-18.3c2.7-3.1,6.7-2.8,10.5-2.4
		c1.2,0.1,2.4,0.2,3.5,0.2h3.6c1.2,0,2.4-0.1,3.5-0.2c3.6-0.4,7.4-0.7,10.1,2.4c3.6,4.2,4.1,13.3,4.1,18.3V46
		c0,5.6-1.7,10.5-5.2,14.4C77.9,64.5,73.7,66.5,68.8,66.5z M57.9,18c-2.3,0-4.4,0.5-6,2.3c-3.4,4-3.4,13.2-3.4,17.6V46
		c0,5.4,1.6,10,4.9,13.8c3.3,3.8,7.2,5.7,11.8,5.7h3.6c4.6,0,8.5-1.9,11.7-5.7c3.3-3.8,4.9-8.4,4.9-13.8V38c0-4.9-0.5-13.7-3.9-17.6
		c-2.3-2.7-5.7-2.4-9.2-2.1c-1.2,0.1-2.4,0.2-3.6,0.2h-3.6c-1.2,0-2.4-0.1-3.6-0.2C60.3,18.2,59.1,18,57.9,18z"/>
	<path class="st3" d="M72.2,44.8H60.8c-1.2,0-1.8,0.7-1.8,2.1v3.1c0,1.4,0.6,2.1,1.8,2.1h11.3c1.2,0,1.8-0.7,1.8-2.1v-3.1
		C74,45.5,73.4,44.8,72.2,44.8z"/>
	<path class="st4" d="M72.2,49H60.8c-1.2,0-1.8,0.3-1.8,0.9v1.3c0,0.6,0.6,0.9,1.8,0.9h11.3c1.2,0,1.8-0.3,1.8-0.9v-1.3
		C74,49.3,73.4,49,72.2,49z"/>
	<path d="M72.2,52.7H60.8c-1.5,0-2.3-0.9-2.3-2.6v-3.1c0-1.7,0.8-2.6,2.3-2.6h11.3c1.5,0,2.3,0.9,2.3,2.6v3.1
		C74.5,51.8,73.7,52.7,72.2,52.7z M60.8,45.5c-0.7,0-1.3,0.2-1.3,1.6v3.1c0,1.4,0.7,1.6,1.3,1.6h11.3c0.7,0,1.3-0.2,1.3-1.6v-3.1
		c0-1.4-0.7-1.6-1.3-1.6H60.8z"/>
	<path class="st5" d="M53,46.8c3.6,0.2,6.6,0.2,9,0c2.4-0.2,4-1,5-2.4c0.9,1.5,3,2.3,6.5,2.5c2.8,0.2,5.3,0.1,7.6,0
		c-0.7-1.9-1.3-3.3-1.9-4.2c-0.8-1.1-1.8-1.8-3.2-2.1c-4.8-0.2-7.7-0.3-8.5-0.3c-5-0.3-8.2-0.1-9.9,0.6C55.3,41.7,53.8,43.7,53,46.8
		z"/>
	<path class="st1" d="M69,41.1c0.7-0.6,1-1.3,1-2.1v0h-7v0c0,0.8,0.3,1.5,1,2.1s1.4,0.9,2.4,0.9h0.3C67.6,42,68.4,41.7,69,41.1z"/>
	<path class="st5" d="M69.3,55h-4.5c-0.5,0-0.7,0.2-0.7,0.6v0.8c0,0.4,0.2,0.6,0.7,0.6h4.5c0.5,0,0.7-0.2,0.7-0.6v-0.8
		C70,55.2,69.8,55,69.3,55z"/>
	<path class="st5" d="M87.7,23.5c1.1-5.6-0.4-8.5-4.5-8.9c-0.8-0.1-1.5-0.1-2.2-0.1c0.1-0.5,0.1-1.1-0.1-1.8
		c-0.9-2.6-1.5-4.2-1.9-4.7c-0.4-0.5-0.8-1.1-1.2-1.8c-0.1-0.1-0.2-0.2-0.2-0.4c-0.6-0.8-1.2-1.5-2-2c-0.5-0.3-0.8-0.6-1.1-0.8
		c-4.1-2.6-7.5-2.6-10.3,0c-0.1,0.1-0.2,0.1-0.2,0.1c1.8,0.5,2.8,1.1,2.8,1.8c0,0.4-0.1,0.8-0.3,1.2c-0.2,0.3-0.4,0.5-0.7,0.7
		c-0.8,0.6-2.9,1-6.5,1.3c-3.6,0.3-6.1,0.9-7.4,1.8c-1.9,1.4-3.3,3.1-4.1,5.2c-0.4,1.1-0.6,2-0.6,2.7L46,32.3l3.4,1.4
		c0.2-5.5,0.6-8.8,1.3-10c0.9-1.4,1.5-2.2,1.7-2.4c0.9-0.7,2.5-0.8,4.7-0.4c2.2,0.4,5.3,0.4,9.3,0c4-0.4,7.1-0.9,9.5-1.4
		c2.4-0.5,4.4,1,6,4.7c1.6,3.6,2.2,6.9,1.7,9.8l3.5-1.6C87.3,28,87.4,25.1,87.7,23.5z"/>
	<path d="M83.8,34.5c-0.1,0-0.2,0-0.3-0.1c-0.1-0.1-0.2-0.3-0.2-0.5c0.5-2.8-0.1-6-1.7-9.6c-1.5-3.4-3.3-4.9-5.4-4.4l0,0
		c-2.4,0.5-5.6,1-9.6,1.4c-4,0.4-7.2,0.4-9.4,0c-2.1-0.4-3.5-0.3-4.4,0.3c-0.1,0.1-0.4,0.3-1.6,2.3c-0.5,0.7-1.1,3-1.3,9.7
		c0,0.2-0.1,0.3-0.2,0.4c-0.1,0.1-0.3,0.1-0.5,0l-3.4-1.4c-0.2-0.1-0.3-0.3-0.3-0.5L46.3,18c0-0.8,0.3-1.8,0.7-2.9
		c0.9-2.2,2.3-4,4.3-5.5c1.4-1,3.9-1.7,7.7-1.9c4.3-0.4,5.8-0.9,6.3-1.2c0.3-0.2,0.4-0.4,0.6-0.6c0.2-0.3,0.3-0.6,0.3-0.9
		c0-0.2-0.2-0.7-2.5-1.4c-0.2-0.1-0.4-0.3-0.4-0.5c0-0.2,0.1-0.3,0.3-0.4l0.1-0.1c2.9-2.7,6.6-2.7,10.9-0.1c0.3,0.3,0.7,0.5,1.2,0.8
		c0.8,0.5,1.6,1.3,2.2,2.1C77.9,5.6,78,5.7,78,5.7l0.1,0.1c0.4,0.7,0.8,1.3,1.2,1.8c0.4,0.6,1.1,2.2,2,4.9c0.2,0.6,0.3,1.1,0.2,1.5
		c0.6,0,1.1,0.1,1.7,0.1c1.8,0.2,3.2,0.8,4.1,2c1.2,1.6,1.5,4.1,0.8,7.5c-0.3,1.5-0.4,4.5-0.4,8.7c0,0.2-0.1,0.4-0.3,0.5L84,34.5
		L83.8,34.5z M77,18.9c2.2,0,4,1.7,5.6,5.1c1.5,3.3,2.1,6.4,1.9,9.2l2.4-1.1c0-4.2,0.1-7,0.4-8.6c0.6-3.1,0.4-5.3-0.6-6.7
		c-0.7-1-1.8-1.5-3.4-1.6C82.3,15,81.6,15,80.9,15c-0.2,0-0.3-0.1-0.4-0.2c-0.1-0.1-0.1-0.3-0.1-0.4c0.1-0.4,0.1-0.9-0.1-1.6
		c-1.1-3.1-1.6-4.2-1.8-4.6c-0.4-0.5-0.8-1.1-1.2-1.8C77.1,6.3,77,6.1,77,5.9c-0.5-0.7-1.1-1.3-1.9-1.8c-0.5-0.3-0.9-0.6-1.2-0.8
		c-3.6-2.3-6.6-2.4-9.1-0.5c1.5,0.5,2.2,1.2,2.3,2c0,0.6-0.1,1.1-0.4,1.5c-0.2,0.3-0.5,0.6-0.8,0.9c-0.5,0.4-1.8,1-6.8,1.5
		c-3.5,0.3-5.9,0.8-7.2,1.8c-1.8,1.3-3.1,3-3.9,5c-0.4,1-0.6,1.9-0.6,2.6l-0.8,13.9l2.4,1c0.2-5.2,0.6-8.3,1.4-9.5
		c1.2-2,1.7-2.4,1.9-2.6c1-0.8,2.7-0.9,5.1-0.5c2.2,0.4,5.2,0.4,9.1,0c3.9-0.4,7.1-0.9,9.5-1.4C76.3,18.9,76.6,18.9,77,18.9z
		 M76.1,19.5L76.1,19.5L76.1,19.5z"/>
	<path class="st5" d="M61.7,36.7c0.2-0.2,0.3-0.4,0.3-0.7s-0.1-0.5-0.3-0.7C61.5,35.1,61.3,35,61,35s-0.5,0.1-0.7,0.3
		C60.1,35.5,60,35.7,60,36s0.1,0.5,0.3,0.7c0.2,0.2,0.4,0.3,0.7,0.3S61.5,36.9,61.7,36.7z"/>
	<path class="st5" d="M73.7,36.7c0.2-0.2,0.3-0.4,0.3-0.7s-0.1-0.5-0.3-0.7C73.5,35.1,73.3,35,73,35s-0.5,0.1-0.7,0.3
		C72.1,35.5,72,35.7,72,36s0.1,0.5,0.3,0.7c0.2,0.2,0.4,0.3,0.7,0.3S73.5,36.9,73.7,36.7z"/>
	<path class="st6" d="M92.9,217.8c-1.4-1.2-3.8-2.5-7.3-3.8C88.7,215.3,91.2,216.6,92.9,217.8z M71.9,210.1c0,0.1,0,0.2,0,0.4
		c-1.5,3.9-1.7,6.8-0.8,8.7c0.6,0.7,1.5,1.3,2.7,1.8c10.2,2.6,16.6,3,19.2,1.2c0.8-0.3,1-1.3,0.8-2.9c-0.1-0.6-0.5-1.2-1.2-1.8
		c-1.7-1.1-4.1-2.3-7.1-3.6c-0.4-0.1-0.8-0.3-1.2-0.5C78.1,211,74,210,71.9,210.1z"/>
	<path d="M88.4,226.5c-3.7,0-8.9-1-15.4-2.9c-1.5-0.6-2.6-1.5-3.3-2.4c-1.2-2.5-1-6.2,0.7-11.3v-0.4c0-0.3,0.2-0.5,0.5-0.5
		c2.4-0.2,6.8,1,13.5,3.8l0,0l0,0c0.2,0.1,0.3,0.1,0.5,0.2c0.2,0.1,0.5,0.2,0.7,0.3c3.4,1.3,5.8,2.5,7.2,3.7
		c1.9,1.3,2.9,2.6,3.1,3.7c0.2,2.2-0.2,3.6-1.3,4.1C93.3,226,91.3,226.5,88.4,226.5z M70,216.8c-0.1,1.6,0.1,2.9,0.6,3.9
		c0.5,0.7,1.4,1.4,2.7,2c11,3.2,18,3.7,20.7,1.4l0.1-0.1c0.9-0.4,0.9-1.9,0.8-3.1c-0.1-0.4-0.3-0.8-0.7-1.3c0.1,1.6-0.2,2.6-1.1,3.1
		c-2.7,2-9.1,1.6-19.5-1.1c-1.4-0.5-2.3-1.2-3-1.9l-0.1-0.1C70.3,218.7,70.1,217.8,70,216.8z M71.5,219c0.5,0.6,1.3,1.1,2.5,1.6
		c9.9,2.6,16.2,3,18.6,1.2l0.1-0.1c0.7-0.3,0.7-1.5,0.5-2.5c0-0.4-0.4-1-1-1.5c-1.6-1.1-4-2.3-7-3.6c-0.4-0.1-0.8-0.3-1.2-0.5
		c-5.6-2.1-9.5-3.1-11.7-3.2l0,0.1C70.9,214.5,70.7,217.3,71.5,219z"/>
	<path class="st6" d="M47.7,213.9c-3.4,1.4-5.8,2.7-7.1,3.8C42.2,216.6,44.6,215.3,47.7,213.9z M61.2,210.5c0-0.1,0-0.3,0-0.4
		c-2-0.1-6.1,0.9-12.2,3.2c-0.4,0.2-0.8,0.3-1.2,0.5c-3,1.3-5.4,2.5-7,3.6c-0.7,0.6-1.1,1.2-1.2,1.8c-0.2,1.6,0.1,2.6,0.8,2.9
		c2.5,1.9,8.8,1.5,18.8-1.2c1.2-0.5,2.1-1.1,2.7-1.7C62.9,217.3,62.6,214.4,61.2,210.5z"/>
	<path d="M44.9,226.5c-2.8,0-4.8-0.5-6.1-1.6c-1.1-0.5-1.5-1.9-1.3-4.1c0.2-1.2,1.2-2.4,3.1-3.8c1.3-1.1,3.7-2.4,7-3.7
		c0.2-0.1,0.5-0.2,0.7-0.3c0.1,0,0.3-0.1,0.4-0.2c6.6-2.8,10.9-4,13.3-3.8c0.3,0,0.5,0.2,0.5,0.5v0.4c1.6,5.1,1.9,8.7,0.7,11.2
		c-0.7,1-1.7,1.8-3.2,2.5C53.6,225.5,48.6,226.5,44.9,226.5z M39.2,219.6c-0.4,0.5-0.6,0.9-0.6,1.3c-0.1,1.2-0.1,2.7,0.7,3.1
		l0.1,0.1c2.6,2.3,9.4,1.8,20.3-1.4c1.2-0.5,2.1-1.2,2.7-2c0.5-1,0.6-2.2,0.6-3.7c0,1-0.3,1.8-0.6,2.6l-0.1,0.1
		c-0.6,0.7-1.6,1.4-2.9,1.9c-10.2,2.8-16.5,3.1-19.2,1.1C39.4,222.2,39.1,221.2,39.2,219.6z M48.1,214.2c-2.9,1.3-5.3,2.5-6.9,3.6
		c-0.6,0.5-0.9,1-1,1.4c-0.1,1-0.1,2.2,0.5,2.5l0.1,0.1c2.4,1.8,8.5,1.4,18.3-1.3c1-0.4,1.9-0.9,2.4-1.5c0.9-1.7,0.6-4.5-0.8-8.3
		l0-0.1c-2.1,0-5.9,1.1-11.4,3.2l0,0C48.9,213.9,48.5,214.1,48.1,214.2z"/>
	<path class="st7" d="M82,137.5l-2.5-0.3V213H82V137.5z M79.5,137.3l2.5,0.3V127h-2.5V137.3z M73.1,142.2l-16.5-3.1l12.2,5.5h1.6
		V213h3.8v-70.8H73.1z M59.6,141.6V213h2.7v-68.4h7.2v-2.4L59.6,141.6z M53,136l-2,0.8V213h2V136z M53,127h-2v10.1l2-0.8V127z"/>
	<path class="st8" d="M73.4,127c0.3,5.4,2.3,8.8,6.1,10.1V127H73.4z M53,127v9.5c3.2,0.7,5-2.5,5.6-9.5H53z M64.2,141.9h4.6
		l0.2-14.6l-0.2,14.6h3.7V213h7v-75.9c-3.9-1.3-1.3-4.4-1.5-9.8L62.7,127L64.2,141.9z M62.7,127h-8.9c-0.6,6.8,2.5,9.8-0.8,9.2V213
		h6.7v-71.1h4.5L62.7,127z"/>
	<path d="M82,213.9H70.3c-0.3,0-0.5-0.2-0.5-0.5v-68.5h-6.9v68.5c0,0.3-0.2,0.5-0.5,0.5H51c-0.3,0-0.5-0.2-0.5-0.5V127
		c0-0.3,0.2-0.5,0.5-0.5h22.4h0h0H82c0.3,0,0.5,0.2,0.5,0.5v10.7v0v75.7C82.5,213.7,82.3,213.9,82,213.9z M70.8,212.9h10.7v-74.8
		l-2.1-0.3l-0.1,0c-3.9-1.4-6.1-4.9-6.4-10.4h-3.4l-0.2,16.4h1c0.3,0,0.5,0.2,0.5,0.5V212.9z M59.6,212.9h2.3v-68.5
		c0-0.3,0.2-0.5,0.5-0.5H64l-0.2-1.6c-0.1-0.1-0.2-0.2-0.2-0.3l-1.5-14.5h-2.9c-0.4,4.7-1.5,7.6-3.2,8.9c-0.9,0.6-1.9,0.9-3,0.6
		h-1.5v75.9H59.6z M65,143.9h3.3v0l0.1-2.4l0.1-14h-5.3l1.4,13.8c0.1,0.1,0.2,0.2,0.2,0.3L65,143.9L65,143.9z M79.6,136.9l1.9,0.3
		v-9.7h-7.6C74.2,132.5,76.1,135.6,79.6,136.9z M51.5,136H53l0.1,0c0.9,0.2,1.6,0,2.3-0.5c1.4-1.1,2.4-3.8,2.8-8.1h-6.7V136z"/>
	<path class="st9" d="M82.5,206.6H69.5c-1,0-1.5,0.3-1.5,1v3.9c0,0.6,0.5,1,1.5,1h12.9c1,0,1.5-0.3,1.5-1v-3.9
		C84,206.9,83.5,206.6,82.5,206.6z"/>
	<path d="M82,213H69.5c-1.9,0-2.1-1.1-2.1-1.6v-3.9c0-0.5,0.2-1.6,2.1-1.6H82c1.9,0,2.1,1.1,2.1,1.6v3.9C84.1,211.9,83.9,213,82,213
		z M69.5,207.2c-0.9,0-0.9,0.3-0.9,0.4v3.9c0,0.1,0,0.4,0.9,0.4H82c0.9,0,0.9-0.3,0.9-0.4v-3.9c0-0.1,0-0.4-0.9-0.4H69.5z"/>
	<path class="st9" d="M62.6,206.6H50.4c-0.9,0-1.4,0.3-1.4,1v3.9c0,0.6,0.5,1,1.4,1h12.2c0.9,0,1.4-0.3,1.4-1v-3.9
		C64,206.9,63.5,206.6,62.6,206.6z"/>
	<path d="M62.6,213H50.4c-1.8,0-2-1.1-2-1.6v-3.9c0-0.5,0.2-1.6,2-1.6h12.2c1.8,0,2,1.1,2,1.6v3.9C64.6,211.9,64.4,213,62.6,213z
		 M50.4,207.2c-0.8,0-0.8,0.3-0.8,0.4v3.9c0,0.1,0,0.4,0.8,0.4h12.2c0.8,0,0.8-0.3,0.8-0.4v-3.9c0-0.1,0-0.4-0.8-0.4H50.4z"/>
</g>
</svg>
