<?xml version="1.0" encoding="utf-8"?>
<!-- Generator: Adobe Illustrator 22.0.1, SVG Export Plug-In . SVG Version: 6.00 Build 0)  -->
<!DOCTYPE svg PUBLIC "-//W3C//DTD SVG 1.1//EN" "http://www.w3.org/Graphics/SVG/1.1/DTD/svg11.dtd">
<svg version="1.1" id="Layer_1" xmlns="http://www.w3.org/2000/svg" xmlns:xlink="http://www.w3.org/1999/xlink" x="0px" y="0px"
	 viewBox="0 0 131 227" style="enable-background:new 0 0 131 227;" xml:space="preserve">
<style type="text/css">
	.st0{fill:#000066;}
	.st1{fill:#FFCC99;}
	.st2{fill:#EAAF75;}
	.st3{fill:#FFFFFF;}
	.st4{fill:#513600;}
	.st5{fill:#003366;}
	.st6{fill:#4A6E6E;}
	.st7{fill:#669999;}
	.st8{fill:#99CCCC;}
</style>
<title>steffan</title>
<desc>Created with Sketch.</desc>
<g>
	<path class="st0" d="M47.8,77.3c-1.1-1.5-2.5-2.3-4.2-2.6s-3.4,0.2-4.8,1.3c-1.4,1.2-2.3,2.6-2.5,4.5l-3.8,27.3
		c-0.3,1.8,0.1,3.5,1.2,4.9c1.1,1.5,2.5,2.4,4.3,2.6c1.8,0.2,3.4-0.2,4.8-1.4c1.5-1.1,2.3-2.6,2.6-4.4L49,82.3
		C49.3,80.4,48.8,78.8,47.8,77.3z"/>
	<path d="M38.7,116.6c-0.3,0-0.7,0-1-0.1c-1.9-0.3-3.5-1.2-4.7-2.9c-1.2-1.6-1.6-3.4-1.4-5.3l3.8-27.4c0.3-2,1.2-3.6,2.7-4.8
		c1.6-1.2,3.4-1.7,5.3-1.4v0c1.9,0.3,3.5,1.2,4.7,2.8c1.2,1.6,1.7,3.4,1.4,5.4l-3.8,27.4c-0.3,2-1.2,3.6-2.8,4.8
		C41.7,116.1,40.2,116.6,38.7,116.6z M42.4,75.6c-1.3,0-2.5,0.4-3.6,1.3c-1.4,1.1-2.1,2.4-2.4,4.1l-3.8,27.4
		c-0.2,1.7,0.1,3.2,1.2,4.6c1,1.4,2.4,2.2,4,2.5c1.7,0.2,3.1-0.2,4.5-1.2c1.4-1,2.2-2.4,2.4-4.1l3.8-27.4c0.2-1.7-0.2-3.2-1.2-4.7
		c-1-1.4-2.3-2.2-4-2.4v0C43,75.6,42.7,75.6,42.4,75.6z"/>
	<path class="st1" d="M46,145l-0.1-1.1c-0.1-0.6-0.3-1.1-0.7-1.5c-0.4-0.3-0.8-0.4-1.2-0.5l0.7,0.8C45.4,143.4,45.9,144.1,46,145z
		 M34.1,146.2c-0.2,1,0.1,0.6,1-1.2l0.4,4.2l1.9,2.2l1.4,10l0.1,0.2c0.1,0.4,0.3,0.7,0.6,0.9c0.5,0.4,0.9,0.5,1.5,0.4
		c0.6-0.1,1-0.3,1.2-0.8c0.3-0.4,0.5-0.8,0.4-1.3l-1.4-9.9l1.2-2.3l0.9,6.7c0.1,0.5,0.3,1,0.7,1.3c0.5,0.3,0.9,0.4,1.5,0.3
		c0.5-0.1,1-0.3,1.3-0.6c0.3-0.4,0.4-0.9,0.3-1.4l-1.5-10.4c-0.1-0.7-0.6-1.4-1.2-1.9l-0.7-0.6l-3-2.4c-1.2-0.9-2.3-0.6-3.4,0.7
		l-2.6,4.9C34.3,145.5,34.1,145.8,34.1,146.2z"/>
	<path class="st2" d="M35.2,145c-0.9,1.9-1.3,2.3-1,1.3c-0.2,0.3-0.2,0.7-0.2,1.2l1.6,11.6c0.1,0.5,0.3,0.9,0.6,1.2
		c0.3,0.2,0.7,0.4,1.1,0.4c-0.1-0.1-0.1-0.2-0.1-0.4c0,0.1,0,0.3,0.1,0.4c0.1,0.4,0.3,0.7,0.6,1c0.3,0.2,0.7,0.3,1,0.4l-0.1-0.2
		l-1.4-10.2l-1.9-2.3L35.2,145z"/>
	<path d="M40.6,163.5c-0.6,0-1.1-0.2-1.6-0.6c-0.3-0.3-0.5-0.6-0.7-0.9c-0.3-0.1-0.7-0.2-1-0.4c-0.5-0.3-0.7-0.7-0.8-1.2
		c-0.3-0.1-0.6-0.2-0.8-0.4c-0.4-0.4-0.6-0.9-0.7-1.5l-1.5-11.3c0-0.4,0-0.7,0-1c-0.1-0.1-0.1-0.2-0.1-0.3c0.1-0.4,0.2-0.8,0.5-1.2
		l2.4-4.7l0.1-0.1c1.6-2,3.2-1.3,3.9-0.8l1.8,1.5c0.2-0.1,0.4-0.1,0.6,0l3,2.5c0.2,0.2,0.2,0.4,0.1,0.7l0,0.2l1.5,10.7
		c0.1,0.6,0,1.3-0.3,1.8c-0.5,0.5-1,0.8-1.7,0.9c-0.6,0.1-1.2,0-1.8-0.4l-0.1-0.1c-0.4-0.4-0.7-0.9-0.8-1.6L42,150l-0.4,0.8l1.4,10
		c0.1,0.6-0.1,1.2-0.5,1.7c-0.3,0.6-0.9,0.9-1.6,1C40.8,163.5,40.7,163.5,40.6,163.5z M39.3,161.7c0.1,0.2,0.2,0.3,0.4,0.5
		c0.3,0.3,0.7,0.4,1.1,0.3c0.4,0,0.7-0.2,0.8-0.5l0.1-0.1c0.2-0.3,0.3-0.6,0.3-0.9l-1.4-10.1c0-0.1,0-0.2,0-0.3l1.2-2.4
		c0.1-0.2,0.3-0.3,0.5-0.3c0.2,0,0.4,0.2,0.4,0.4l1,6.9c0.1,0.4,0.2,0.7,0.5,1c0.3,0.2,0.7,0.3,1.1,0.2c0.4-0.1,0.8-0.2,1-0.5
		c0.2-0.3,0.2-0.6,0.1-1L45,144.1c0-0.1,0-0.2,0.1-0.3l-1.8-1.5c-0.2,0.1-0.4,0.1-0.6,0l-2.9-2.4c-0.6-0.4-1.4-0.8-2.5,0.6l-2.4,4.7
		c-0.1,0.2-0.2,0.4-0.3,0.6c0.1,0.1,0.1,0.3,0,0.5c-0.1,0.2-0.1,0.5-0.1,0.9l1.5,11.3c0,0.4,0.2,0.6,0.4,0.8l0.1,0.1
		c0.1-0.1,0.2-0.2,0.4-0.2c0.3,0,0.5,0.2,0.5,0.5c0.1,0.1,0.1,0.3,0.1,0.4l0,0.1c0,0.3,0.2,0.5,0.4,0.7c0.2,0.1,0.3,0.2,0.6,0.2l0,0
		c0-0.3,0.2-0.5,0.5-0.5c0.2,0,0.4,0.2,0.5,0.4c0.2,0.2,0.1,0.5,0,0.7L39.3,161.7z"/>
	<path class="st0" d="M35,140.2c0,1.2,0.6,1.8,1.8,1.8h4.5c1.2,0,1.8-0.6,1.8-1.8v-4.4c0-1.2-0.6-1.8-1.8-1.8h-4.5
		c-1.2,0-1.8,0.6-1.8,1.8V140.2z"/>
	<path d="M41.2,142.5h-4.5c-1.5,0-2.3-0.8-2.3-2.3v-4.4c0-1.5,0.8-2.3,2.3-2.3h4.5c1.5,0,2.3,0.8,2.3,2.3v4.4
		C43.5,141.7,42.7,142.5,41.2,142.5z M36.8,134.5c-0.9,0-1.3,0.4-1.3,1.3v4.4c0,0.9,0.4,1.3,1.3,1.3h4.5c0.9,0,1.3-0.4,1.3-1.3v-4.4
		c0-0.9-0.4-1.3-1.3-1.3H36.8z"/>
	<path class="st0" d="M44.9,125.3L44.9,125.3l-0.2-10.1c0-1.5-0.6-2.7-1.7-3.7c-1.2-1.1-2.5-1.6-4.1-1.5c-1.6,0-4.7-1.1-5.8,0
		c-0.7,0.7-0.7,5.8,0.3,15.3l0.2,4l0.1,4.1c0,1.4,0.6,2.6,1.7,3.6h8.1l0,0c1.1-1.1,1.6-2.3,1.6-3.8L44.9,125.3z"/>
	<path d="M43.2,137.5h-8.4c-0.1,0-0.2,0-0.3-0.1c-1.3-1.1-1.9-2.5-1.9-4.1l-0.1-4.2L32,110.5c0-0.3,0.2-0.5,0.5-0.5
		c0.3,0,0.5,0.2,0.5,0.5l0.6,22.8c0,1.3,0.5,2.3,1.4,3.2h8c1-1,1.5-2.1,1.5-3.4v-20.6c0-0.3,0.2-0.5,0.5-0.5s0.5,0.2,0.5,0.5v20.6
		c0,1.6-0.6,3-1.9,4.2C43.6,137.4,43.4,137.5,43.2,137.5z"/>
	<path class="st0" d="M83.1,77.8c1-1.5,2.4-2.4,4.2-2.7c1.8-0.3,3.4,0.1,4.9,1.2c1.5,1.1,2.3,2.6,2.6,4.4l4.4,27.2
		c0.3,1.8-0.1,3.5-1.1,5c-1.1,1.5-2.5,2.4-4.2,2.7c-1.8,0.3-3.4-0.1-4.8-1.3c-1.5-1.1-2.4-2.5-2.7-4.4l-4.4-27.2
		C81.7,81.1,82,79.4,83.1,77.8z"/>
	<path d="M92.3,115.4c-1.5,0-2.9-0.5-4.2-1.4c-1.6-1.1-2.6-2.7-3-4.6l-4.4-26.7c-0.3-1.9,0.1-3.7,1.3-5.3c1.2-1.6,2.7-2.5,4.7-2.8h0
		c1.9-0.3,3.8,0.1,5.4,1.2c1.6,1.2,2.6,2.7,2.9,4.7l4.4,26.7c0.3,1.9-0.1,3.7-1.3,5.3c-1.2,1.6-2.8,2.6-4.7,2.9
		C93.1,115.4,92.7,115.4,92.3,115.4z M86.8,75.5c-1.7,0.3-3,1.1-4,2.5c-1,1.4-1.4,2.9-1.1,4.6l4.4,26.7c0.3,1.7,1.1,3,2.5,3.9
		c1.4,1,2.9,1.4,4.7,1.1c1.7-0.3,3-1.1,4.1-2.5c1-1.4,1.4-2.9,1.1-4.5L94,80.6c-0.3-1.7-1.1-3-2.5-4C90.1,75.6,88.6,75.2,86.8,75.5
		L86.8,75.5z"/>
	<path class="st2" d="M98.2,146.6c0.1-0.5,0-0.9-0.2-1.3c0.3,1.1-0.1,0.6-1.2-1.3l-0.3,4.5l-2.1,2.4l-1.4,10.8L93,162
		c0.4,0,0.8-0.2,1.1-0.4c0.4-0.3,0.6-0.7,0.7-1.1c0.1-0.1,0.1-0.2,0.1-0.4c0,0.1,0,0.3-0.1,0.4c0.5,0,0.9-0.2,1.2-0.4
		c0.4-0.3,0.5-0.7,0.6-1.2L98.2,146.6z"/>
	<path class="st1" d="M88.3,142.8L89,142c-0.4,0-0.9,0.2-1.2,0.5c-0.4,0.4-0.6,0.9-0.7,1.5l-0.1,1C87.1,144.2,87.6,143.4,88.3,142.8
		z M94.9,140.1c-1.1-1.3-2.1-1.5-3.2-0.6l-2.8,2.5l-0.6,0.6c-0.6,0.6-1,1.2-1.1,1.9L86,155c-0.1,0.5,0,1,0.2,1.4
		c0.4,0.4,0.8,0.6,1.3,0.6c0.5,0,0.9-0.1,1.3-0.3c0.3-0.3,0.5-0.8,0.6-1.3l0.7-6.7l1.2,2.3l-1.1,9.9c0,0.5,0.1,0.9,0.4,1.2
		c0.2,0.5,0.6,0.7,1.1,0.8c0.5,0.1,0.9-0.1,1.4-0.5c0.3-0.3,0.5-0.6,0.6-0.9l0-0.2l1.1-10.1l1.7-2.2l0.2-4.2c0.9,1.8,1.3,2.2,1,1.2
		c-0.1-0.3-0.2-0.7-0.5-1.1L94.9,140.1z"/>
	<path d="M92.1,163.5c-0.1,0-0.2,0-0.3,0c-0.7-0.1-1.2-0.4-1.5-1c-0.4-0.4-0.6-1-0.5-1.6l1.1-9.8l-0.3-0.7l-0.6,5
		c-0.1,0.7-0.4,1.2-0.8,1.6c-0.6,0.4-1.1,0.5-1.7,0.5c-0.6-0.1-1.2-0.3-1.6-0.8l-0.1-0.1c-0.3-0.5-0.4-1.1-0.3-1.8l1.1-10.4
		c0.2-0.9,0.6-1.6,1.3-2.2l0.6-0.6l2.8-2.5c0.8-0.6,2.3-1.4,4,0.6l0.1,0.1l2.5,4.8c0.2,0.4,0.4,0.7,0.5,1.1c0.2,0.4,0.1,0.8,0.1,1.2
		l0,0.3l-1.2,11.8c0,0.6-0.2,1.1-0.6,1.5c-0.3,0.3-0.6,0.4-0.9,0.5c-0.1,0.3-0.3,0.7-0.6,0.9c-0.4,0.3-0.7,0.5-1.2,0.5l-0.1,0
		c-0.1,0.1-0.2,0.3-0.3,0.4C93.1,163.3,92.6,163.5,92.1,163.5z M90.3,148.3c0.2,0,0.4,0.1,0.4,0.3l1.2,2.3c0,0.1,0.1,0.2,0.1,0.3
		l-1.1,9.9c0,0.3,0.1,0.6,0.3,0.8l0.1,0.1c0.2,0.3,0.4,0.5,0.7,0.5c0.3,0,0.7-0.1,1-0.4c0.2-0.2,0.4-0.4,0.4-0.7l0-0.1
		c0-0.2,0.1-0.3,0.3-0.4c0.2-0.1,0.5,0,0.7,0.2l0.1,0.2l0.1-0.1c0.2-0.2,0.3-0.4,0.4-0.7c0-0.2,0.2-0.4,0.4-0.4
		c0.3,0,0.5-0.1,0.7-0.3c0.2-0.2,0.3-0.5,0.3-0.8l1.2-12.1c0-0.2,0.1-0.4,0-0.6l-0.1-0.2c-0.1-0.3-0.2-0.6-0.4-0.9l-2.5-4.8
		c-1.1-1.3-1.9-1-2.5-0.5l-2.8,2.5l-0.6,0.6c-0.6,0.5-0.9,1-1,1.7l-1.1,10.4c-0.1,0.4,0,0.8,0.1,1.1c0.3,0.3,0.6,0.4,0.9,0.5
		c0.3,0,0.7-0.1,1-0.3c0.2-0.2,0.3-0.5,0.4-1l0.7-6.7C89.8,148.5,89.9,148.3,90.3,148.3L90.3,148.3z"/>
	<path class="st0" d="M95.1,133l-4.4,0.1c-1.2,0-1.7,0.6-1.7,1.8l0.1,4.4c0,1.2,0.6,1.7,1.8,1.7l4.4-0.1c1.2,0,1.7-0.6,1.7-1.8
		l-0.1-4.4C96.9,133.5,96.3,133,95.1,133z"/>
	<path d="M90.8,141.5c-0.7,0-1.2-0.2-1.6-0.5c-0.4-0.4-0.6-0.9-0.6-1.7l-0.1-4.4c0-1.5,0.7-2.3,2.2-2.3l4.4-0.1
		c0.7,0,1.3,0.2,1.7,0.5c0.4,0.4,0.6,0.9,0.6,1.7l0.1,4.4c0,1.5-0.7,2.3-2.2,2.3l-4.4,0.1L90.8,141.5z M95.2,133.5L95.2,133.5
		l-4.5,0.1c-0.9,0-1.2,0.4-1.2,1.3l0.1,4.4c0,0.4,0.1,0.8,0.3,1c0.2,0.2,0.5,0.3,1,0.3l4.4-0.1c0.9,0,1.2-0.4,1.2-1.3l-0.1-4.4
		c0-0.4-0.1-0.8-0.3-1C95.9,133.6,95.6,133.5,95.2,133.5z M95.1,133L95.1,133L95.1,133z"/>
	<path class="st0" d="M99,127.9l-0.1,0l0.1-4L99,127.9z M87.2,114.4c0-1.5,0.5-2.7,1.6-3.7c1.1-1.1,2.5-1.6,4-1.6s2.9,0.5,4,1.5
		c1.1,1.1,1.8,1.1,1.8,0l0,13.7l-0.1,4l0,4.1c0,1.4-0.5,2.6-1.6,3.6l-8.1,0.2l0,0c-1.1-1-1.7-2.3-1.7-3.7l0-7.9l0.1,0L87.2,114.4z"
		/>
	<path d="M88.9,136.5c-0.1,0-0.3-0.1-0.4-0.1c-1.3-1.2-2-2.6-2-4.2l0-8.1l0-0.2l0-9.8c0-0.3,0.2-0.5,0.5-0.5h0
		c0.3,0,0.5,0.2,0.5,0.5l0,10l0,0.2l0,7.9c0,1.3,0.5,2.4,1.5,3.4l8-0.2c1-0.9,1.4-2,1.4-3.3l0-4.2l0,0l0-17.8c0-0.3,0.2-0.5,0.5-0.5
		s0.5,0.2,0.5,0.5l0,13.7c0.1,0.1,0.1,0.2,0.1,0.3l-0.1,4l0,0l0,4c0,1.6-0.6,3-1.8,4.1c-0.1,0.1-0.2,0.1-0.3,0.1L88.9,136.5
		L88.9,136.5z"/>
	<path class="st0" d="M91.5,78.2c0.2-0.9,0.4-1.8,0.5-2.6h-3.2v-0.9c-15.4-7.5-30.4-7.5-45.2-0.2c0,0-0.8,0.4-2.4,1.3l2.3,4.6
		l-0.9,2.2c-2.6-1.2-3.8-1.6-3.7-1.3c2.8,4.4,4.3,6.7,4.3,7c0.4,3.2,1.2,6.2,2.4,9c1.3,3.1,1.9,5.7,1.7,7.7
		c-0.4,12.7,0.5,19.8,2.7,21.3v0.5l32.6,0.2c1.8-3.2,2.6-10.5,2.3-21.8v-0.3h0c0,0.1,0,0.2,0,0.3c0.2-0.3,0.8-2.1,2-5.5
		c1.5-4.2,2.4-8.1,2.8-11.6C89.8,87.8,90.4,84.5,91.5,78.2z"/>
	<path d="M82.1,127.5L82.1,127.5L50,127.2c-0.3,0-0.5-0.2-0.5-0.5c0-0.1,0.1-0.3,0.2-0.4c-2.4-1.7-3.3-8.8-2.9-21.7
		c0.2-2-0.4-4.5-1.7-7.5c-1.2-2.8-2.1-5.9-2.5-9.1c0-0.3,0.2-0.5,0.4-0.6c0.3,0,0.5,0.2,0.6,0.4c0.4,3.1,1.2,6.1,2.4,8.9
		c1.4,3.1,2,5.8,1.8,7.9c-0.5,15.4,1.1,19.8,2.5,20.8c0.2,0.2,0.3,0.4,0.1,0.7l31.3,0.2c1.6-3.2,2.3-10.2,2.1-20.7
		c-0.2-0.1-0.3-0.3-0.3-0.5c0-0.1,0-0.3,0-0.4c0-0.3,0.2-0.4,0.5-0.4h0c0.2-0.6,0.7-2,1.8-5c1.4-4.2,2.3-8.1,2.7-11.5
		c0-0.3,0.3-0.5,0.5-0.4c0.3,0,0.5,0.3,0.4,0.5c-0.4,3.6-1.3,7.5-2.8,11.8c-1.3,3.9-1.8,5.1-1.9,5.4c0.3,11.4-0.5,18.6-2.3,22
		C82.4,127.4,82.2,127.5,82.1,127.5z M41,76.5c-0.2,0-0.3-0.1-0.4-0.2c-0.1-0.2-0.1-0.5,0.2-0.7c1.4-0.9,2.1-1.3,2.4-1.4
		c14.7-7.6,29.8-7.5,45.1,0.3c0.2,0.1,0.3,0.4,0.2,0.7c-0.1,0.2-0.4,0.3-0.7,0.2c-14.9-7.7-29.8-7.8-44.2-0.3l-0.1,0
		c-0.1,0.1-0.6,0.3-2.2,1.3L41,76.5z"/>
	<path class="st1" d="M70,74c2,0,3-1.1,3-3.2v-7.7C72.9,65,71.9,66,70,66H62c-1.9,0-2.9-1-3-3v7.8c0,2.1,1,3.2,3,3.2H70z"/>
	<path class="st2" d="M70,48H62c-2,0-3,1.1-3,3.2V63c0.1,2,1.1,3,3,3H70c1.9,0,2.9-1,3-2.9V51.2C73,49.1,72,48,70,48z"/>
	<path d="M70,75.5H62c-1.6,0-3.5-0.7-3.5-3.8V51.3c0-3.2,1.9-3.8,3.5-3.8H70c1.6,0,3.5,0.7,3.5,3.8v20.4
		C73.5,74.8,71.6,75.5,70,75.5z M62,48.5c-1.7,0-2.5,0.9-2.5,2.8v20.4c0,1.9,0.8,2.8,2.5,2.8H70c1.7,0,2.5-0.9,2.5-2.8V51.3
		c0-1.9-0.8-2.8-2.5-2.8H62z"/>
	<rect x="53.5" y="51.6" transform="matrix(0.9488 -0.3159 0.3159 0.9488 -13.6831 19.8487)" class="st1" width="1.8" height="1"/>
	<path class="st1" d="M85.5,33c-1.5,0-2.8,0.5-3.9,1.5c-1,1-1.6,2.1-1.6,3.5s0.5,2.6,1.6,3.6c1.1,1,2.4,1.5,3.9,1.5
		c1.5,0,2.8-0.5,3.8-1.5c1.1-1,1.7-2.2,1.7-3.6s-0.6-2.5-1.7-3.5C88.3,33.5,87,33,85.5,33z"/>
	<path class="st2" d="M83,35.9c-0.7,0.6-1,1.3-1,2.1s0.3,1.5,1,2.1c0.7,0.6,1.5,0.9,2.5,0.9s1.8-0.3,2.4-0.9
		c0.7-0.6,1.1-1.3,1.1-2.1s-0.4-1.5-1.1-2.1c-0.7-0.6-1.5-0.9-2.4-0.9S83.7,35.3,83,35.9z"/>
	<path d="M85.5,43.5c-1.6,0-3.1-0.5-4.3-1.6c-1.2-1.1-1.7-2.4-1.7-3.9c0-1.5,0.6-2.8,1.7-3.9c1.2-1.1,2.6-1.6,4.3-1.6
		c1.6,0,3,0.5,4.2,1.6c1.2,1.1,1.8,2.4,1.8,3.9c0,1.5-0.6,2.8-1.8,3.9C88.5,43,87.1,43.5,85.5,43.5z M85.5,33.5
		c-1.4,0-2.6,0.4-3.6,1.3c-0.9,0.9-1.4,1.9-1.4,3.1c0,1.2,0.5,2.3,1.4,3.2c1,0.9,2.2,1.3,3.6,1.3c1.4,0,2.5-0.4,3.5-1.3
		c1-0.9,1.5-2,1.5-3.2c0-1.2-0.5-2.3-1.5-3.1C88,33.9,86.9,33.5,85.5,33.5z"/>
	<path class="st1" d="M42.6,33.5c-1,1-1.6,2.1-1.6,3.5s0.5,2.6,1.6,3.6c1.1,1,2.4,1.5,3.9,1.5c1.5,0,2.8-0.5,3.8-1.5
		c1.1-1,1.7-2.2,1.7-3.6s-0.6-2.5-1.7-3.5c-1.1-1-2.4-1.5-3.8-1.5C45,32,43.7,32.5,42.6,33.5z M43,37c0-0.8,0.4-1.5,1.2-2.1
		C45,34.3,45.9,34,47,34s2,0.3,2.8,0.9c0.8,0.6,1.2,1.3,1.2,2.1s-0.4,1.5-1.2,2.1C49,39.7,48.1,40,47,40s-2-0.3-2.8-0.9
		C43.4,38.5,43,37.8,43,37z"/>
	<path class="st2" d="M44,34.9c-0.7,0.6-1,1.3-1,2.1s0.3,1.5,1,2.1c0.7,0.6,1.5,0.9,2.5,0.9s1.8-0.3,2.4-0.9
		c0.7-0.6,1.1-1.3,1.1-2.1s-0.4-1.5-1.1-2.1c-0.7-0.6-1.5-0.9-2.4-0.9S44.7,34.3,44,34.9z"/>
	<path d="M46.5,42.5c-1.6,0-3.1-0.5-4.3-1.6c-1.2-1.1-1.7-2.4-1.7-3.9c0-1.5,0.6-2.8,1.7-3.9c1.2-1.1,2.6-1.6,4.3-1.6
		c1.6,0,3,0.5,4.2,1.6c1.2,1.1,1.8,2.4,1.8,3.9c0,1.5-0.6,2.8-1.8,3.9C49.5,42,48.1,42.5,46.5,42.5z M46.5,32.5
		c-1.4,0-2.6,0.4-3.6,1.3c-0.9,0.9-1.4,1.9-1.4,3.1c0,1.2,0.5,2.3,1.4,3.2c1,0.9,2.2,1.3,3.6,1.3c1.4,0,2.5-0.4,3.5-1.3
		c1-0.9,1.5-2,1.5-3.2c0-1.2-0.5-2.3-1.5-3.1C49,32.9,47.9,32.5,46.5,32.5z"/>
	<path class="st1" d="M67.8,15h-3.6c-4.7,0-8.8,1.9-12.2,5.8c-3.3,3.9-5,8.6-5,14.2V43c0,5.5,1.7,10.2,5,14.1
		C55.4,61,59.4,63,64.2,63h3.6c4.7,0,8.8-2,12.1-5.9C83.3,53.2,85,48.5,85,43V35c0-5.5-1.7-10.2-5.1-14.2C76.6,16.9,72.6,15,67.8,15
		z"/>
	<path d="M67.8,63.5h-3.6c-4.9,0-9.1-2-12.6-6.1c-3.4-4-5.1-8.8-5.1-14.4V35c0-5.6,1.7-10.5,5.1-14.5c3.5-4,7.7-6,12.6-6h3.6
		c4.9,0,9.1,2,12.5,6c3.4,4,5.2,8.9,5.2,14.5V43c0,5.6-1.7,10.5-5.2,14.4C76.9,61.5,72.7,63.5,67.8,63.5z M64.2,15.5
		c-4.6,0-8.5,1.9-11.8,5.6c-3.2,3.8-4.9,8.5-4.9,13.8V43c0,5.4,1.6,10,4.9,13.8c3.3,3.8,7.2,5.7,11.8,5.7h3.6
		c4.6,0,8.5-1.9,11.7-5.7c3.3-3.8,4.9-8.4,4.9-13.8V35c0-5.4-1.7-10-4.9-13.8c-3.2-3.7-7.2-5.6-11.7-5.6H64.2z"/>
	<path class="st3" d="M71.2,44H59.8c-1.2,0-1.8,0.6-1.8,1.7v2.5c0,1.2,0.6,1.7,1.8,1.7h11.3c1.2,0,1.8-0.6,1.8-1.7v-2.5
		C73,44.6,72.4,44,71.2,44z"/>
	<path d="M71.2,50.5H59.8c-1.5,0-2.3-0.8-2.3-2.2v-2.5c0-1.4,0.8-2.2,2.3-2.2h11.3c1.5,0,2.3,0.8,2.3,2.2v2.5
		C73.5,49.7,72.7,50.5,71.2,50.5z M59.8,44.5c-0.9,0-1.3,0.4-1.3,1.2v2.5c0,0.9,0.4,1.2,1.3,1.2h11.3c0.9,0,1.3-0.4,1.3-1.2v-2.5
		c0-0.9-0.4-1.2-1.3-1.2H59.8z"/>
	<path class="st4" d="M52,47.8c3.6,0.2,6.6,0.2,9,0c2.4-0.2,4-1,5-2.4c0.9,1.5,3,2.3,6.5,2.5c2.8,0.2,5.3,0.1,7.6,0
		c-0.7-1.9-1.3-3.3-1.9-4.2c-0.8-1.1-1.8-1.8-3.2-2.1c-4.8-0.2-7.7-0.3-8.5-0.3c-5-0.3-8.2-0.1-9.9,0.6C54.3,42.7,52.8,44.7,52,47.8
		z"/>
	<path class="st1" d="M68,42.1c0.7-0.6,1-1.3,1-2.1v0h-7v0c0,0.8,0.3,1.5,1,2.1s1.4,0.9,2.3,0.9h0.3C66.6,43,67.4,42.7,68,42.1z"/>
	<path class="st4" d="M68.3,52h-4.5c-0.5,0-0.7,0.2-0.7,0.6v0.8c0,0.4,0.2,0.6,0.7,0.6h4.5c0.5,0,0.7-0.2,0.7-0.6v-0.8
		C69,52.2,68.8,52,68.3,52z"/>
	<path class="st4" d="M86.7,23.5c1.1-5.6-0.4-8.5-4.5-8.9c-0.8-0.1-1.5-0.1-2.2-0.1c0.1-0.5,0.1-1.1-0.1-1.8
		c-0.9-2.6-1.5-4.2-1.9-4.7c-0.4-0.5-0.8-1.1-1.2-1.8c-0.1-0.1-0.2-0.2-0.2-0.4c-0.6-0.8-1.2-1.5-2-2c-0.5-0.3-0.8-0.6-1.1-0.8
		c-4.1-2.6-7.5-2.6-10.3,0c-0.1,0.1-0.2,0.1-0.2,0.1c1.8,0.5,2.8,1.1,2.8,1.8c0,0.4-0.1,0.8-0.3,1.2c-0.2,0.3-0.4,0.5-0.7,0.7
		c-0.8,0.6-2.9,1-6.5,1.3c-3.6,0.3-6.1,0.9-7.4,1.8c-1.9,1.4-3.3,3.1-4.1,5.2c-0.4,1.1-0.6,2-0.6,2.7L45,32.3l3.4,1.4
		c0.2-5.5,0.6-8.8,1.3-10c0.9-1.4,1.5-2.2,1.7-2.4c0.9-0.7,2.5-0.8,4.7-0.4c2.2,0.4,5.3,0.4,9.3,0c4-0.4,7.1-0.9,9.5-1.4
		c2.4-0.5,4.4,1,6,4.7c1.6,3.6,2.2,6.9,1.7,9.8l3.5-1.6C86.3,28,86.4,25.1,86.7,23.5z"/>
	<path d="M82.8,34.5c-0.1,0-0.2,0-0.3-0.1c-0.1-0.1-0.2-0.3-0.2-0.5c0.5-2.8-0.1-6-1.7-9.6c-1.5-3.4-3.3-4.9-5.4-4.4l0,0
		c-2.4,0.5-5.6,1-9.6,1.4c-4,0.4-7.2,0.4-9.4,0c-2.1-0.4-3.5-0.3-4.4,0.3c-0.1,0.1-0.4,0.3-1.6,2.3c-0.5,0.7-1.1,3-1.3,9.7
		c0,0.2-0.1,0.3-0.2,0.4c-0.1,0.1-0.3,0.1-0.5,0l-3.4-1.4c-0.2-0.1-0.3-0.3-0.3-0.5L45.3,18c0-0.8,0.3-1.8,0.7-2.9
		c0.9-2.2,2.3-4,4.3-5.5c1.4-1,3.9-1.7,7.7-1.9c4.3-0.4,5.8-0.9,6.3-1.2c0.3-0.2,0.4-0.4,0.6-0.6c0.2-0.3,0.3-0.6,0.3-0.9
		c0-0.2-0.2-0.7-2.5-1.4c-0.2-0.1-0.4-0.3-0.4-0.5c0-0.2,0.1-0.3,0.3-0.4l0.1-0.1c2.9-2.7,6.6-2.7,10.9-0.1c0.3,0.3,0.7,0.5,1.2,0.8
		c0.8,0.5,1.6,1.3,2.2,2.1C76.9,5.6,77,5.7,77,5.7l0.1,0.1c0.4,0.7,0.8,1.3,1.2,1.8c0.4,0.6,1.1,2.2,2,4.9c0.2,0.6,0.3,1.1,0.2,1.5
		c0.6,0,1.1,0.1,1.7,0.1c1.8,0.2,3.2,0.8,4.1,2c1.2,1.6,1.5,4.1,0.8,7.5c-0.3,1.5-0.4,4.5-0.4,8.7c0,0.2-0.1,0.4-0.3,0.5L83,34.5
		L82.8,34.5z M76,18.9c2.2,0,4,1.7,5.6,5.1c1.5,3.3,2.1,6.4,1.9,9.2l2.4-1.1c0-4.2,0.1-7,0.4-8.6c0.6-3.1,0.4-5.3-0.6-6.7
		c-0.7-1-1.8-1.5-3.4-1.6C81.3,15,80.6,15,79.9,15c-0.2,0-0.3-0.1-0.4-0.2c-0.1-0.1-0.1-0.3-0.1-0.4c0.1-0.4,0.1-0.9-0.1-1.6
		c-1.1-3.1-1.6-4.2-1.8-4.6c-0.4-0.5-0.8-1.1-1.2-1.8C76.1,6.3,76,6.1,76,5.9c-0.5-0.7-1.1-1.3-1.9-1.8c-0.5-0.3-0.9-0.6-1.2-0.8
		c-3.6-2.3-6.6-2.4-9.1-0.5c1.5,0.5,2.2,1.2,2.3,2c0,0.6-0.1,1.1-0.4,1.5c-0.2,0.3-0.5,0.6-0.8,0.9c-0.5,0.4-1.8,1-6.8,1.5
		c-3.5,0.3-5.9,0.8-7.2,1.8c-1.8,1.3-3.1,3-3.9,5c-0.4,1-0.6,1.9-0.6,2.6l-0.8,13.9l2.4,1c0.2-5.2,0.6-8.3,1.4-9.5
		c1.2-2,1.7-2.4,1.9-2.6c1-0.8,2.7-0.9,5.1-0.5c2.2,0.4,5.2,0.4,9.1,0c3.9-0.4,7.1-0.9,9.5-1.4C75.3,18.9,75.6,18.9,76,18.9z
		 M75.1,19.5L75.1,19.5L75.1,19.5z"/>
	<path class="st4" d="M60.7,36.7c0.2-0.2,0.3-0.4,0.3-0.7s-0.1-0.5-0.3-0.7C60.5,35.1,60.3,35,60,35s-0.5,0.1-0.7,0.3
		C59.1,35.5,59,35.7,59,36s0.1,0.5,0.3,0.7c0.2,0.2,0.4,0.3,0.7,0.3S60.5,36.9,60.7,36.7z"/>
	<path class="st4" d="M72.7,36.7c0.2-0.2,0.3-0.4,0.3-0.7s-0.1-0.5-0.3-0.7C72.5,35.1,72.3,35,72,35s-0.5,0.1-0.7,0.3
		C71.1,35.5,71,35.7,71,36s0.1,0.5,0.3,0.7c0.2,0.2,0.4,0.3,0.7,0.3S72.5,36.9,72.7,36.7z"/>
	<path class="st5" d="M91.9,217.8c-1.4-1.2-3.8-2.5-7.3-3.8C87.7,215.3,90.2,216.6,91.9,217.8z M70.9,210.1c0,0.1,0,0.2,0,0.4
		c-1.5,3.9-1.7,6.8-0.8,8.7c0.6,0.7,1.5,1.3,2.7,1.8c10.2,2.6,16.6,3,19.2,1.2c0.8-0.3,1-1.3,0.8-2.9c-0.1-0.6-0.5-1.2-1.2-1.8
		c-1.7-1.1-4.1-2.3-7.1-3.6c-0.4-0.1-0.8-0.3-1.2-0.5C77.1,211,73,210,70.9,210.1z"/>
	<path d="M87.4,226.5c-3.7,0-8.9-1-15.4-2.9c-1.5-0.6-2.6-1.5-3.3-2.4c-1.2-2.5-1-6.2,0.7-11.3v-0.4c0-0.3,0.2-0.5,0.5-0.5
		c2.4-0.2,6.8,1,13.5,3.8l0,0l0,0c0.2,0.1,0.3,0.1,0.5,0.2c0.2,0.1,0.5,0.2,0.7,0.3c3.4,1.3,5.8,2.5,7.2,3.7
		c1.9,1.3,2.9,2.6,3.1,3.7c0.2,2.2-0.2,3.6-1.3,4.1C92.3,226,90.3,226.5,87.4,226.5z M69,216.8c-0.1,1.6,0.1,2.9,0.6,3.9
		c0.5,0.7,1.4,1.4,2.7,2c11,3.2,18,3.7,20.7,1.4l0.1-0.1c0.9-0.4,0.9-1.9,0.8-3.1c-0.1-0.4-0.3-0.8-0.7-1.3c0.1,1.6-0.2,2.6-1.1,3.1
		c-2.7,2-9.1,1.6-19.5-1.1c-1.4-0.5-2.3-1.2-3-1.9l-0.1-0.1C69.3,218.7,69.1,217.8,69,216.8z M70.5,219c0.5,0.6,1.3,1.1,2.5,1.6
		c9.9,2.6,16.2,3,18.6,1.2l0.1-0.1c0.7-0.3,0.7-1.5,0.5-2.5c0-0.4-0.4-1-1-1.5c-1.6-1.1-4-2.3-7-3.6c-0.4-0.1-0.8-0.3-1.2-0.5
		c-5.6-2.1-9.5-3.1-11.7-3.2l0,0.1C69.9,214.5,69.7,217.3,70.5,219z"/>
	<path class="st5" d="M46.7,213.9c-3.4,1.4-5.8,2.7-7.1,3.8C41.2,216.6,43.6,215.3,46.7,213.9z M60.2,210.5c0-0.1,0-0.3,0-0.4
		c-2-0.1-6.1,0.9-12.2,3.2c-0.4,0.2-0.8,0.3-1.2,0.5c-3,1.3-5.4,2.5-7,3.6c-0.7,0.6-1.1,1.2-1.2,1.8c-0.2,1.6,0.1,2.6,0.8,2.9
		c2.5,1.9,8.8,1.5,18.8-1.2c1.2-0.5,2.1-1.1,2.7-1.7C61.9,217.3,61.6,214.4,60.2,210.5z"/>
	<path d="M43.9,226.5c-2.8,0-4.8-0.5-6.1-1.6c-1.1-0.5-1.5-1.9-1.3-4.1c0.2-1.2,1.2-2.4,3.1-3.8c1.3-1.1,3.7-2.4,7-3.7
		c0.2-0.1,0.5-0.2,0.7-0.3c0.1,0,0.3-0.1,0.4-0.2c6.6-2.8,10.9-4,13.3-3.8c0.3,0,0.5,0.2,0.5,0.5v0.4c1.6,5.1,1.9,8.7,0.7,11.2
		c-0.7,1-1.7,1.8-3.2,2.5C52.6,225.5,47.6,226.5,43.9,226.5z M38.2,219.6c-0.4,0.5-0.6,0.9-0.6,1.3c-0.1,1.2-0.1,2.7,0.7,3.1
		l0.1,0.1c2.6,2.3,9.4,1.8,20.3-1.4c1.2-0.5,2.1-1.2,2.7-2c0.5-1,0.6-2.2,0.6-3.7c0,1-0.3,1.8-0.6,2.6l-0.1,0.1
		c-0.6,0.7-1.6,1.4-2.9,1.9c-10.2,2.8-16.5,3.1-19.2,1.1C38.4,222.2,38.1,221.2,38.2,219.6z M47.1,214.2c-2.9,1.3-5.3,2.5-6.9,3.6
		c-0.6,0.5-0.9,1-1,1.4c-0.1,1-0.1,2.2,0.5,2.5l0.1,0.1c2.4,1.8,8.5,1.4,18.3-1.3c1-0.4,1.9-0.9,2.4-1.5c0.9-1.7,0.6-4.5-0.8-8.3
		l0-0.1c-2.1,0-5.9,1.1-11.4,3.2l0,0C47.9,213.9,47.5,214.1,47.1,214.2z"/>
	<path class="st6" d="M81,137.5l-2.5-0.3V213H81V137.5z M78.5,137.3l2.5,0.3V127h-2.5V137.3z M72.1,142.2l-16.5-3.1l12.2,5.5h1.6
		V213h3.8v-70.8H72.1z M58.6,141.6V213h2.7v-68.4h7.2v-2.4L58.6,141.6z M52,136l-2,0.8V213h2V136z M52,127h-2v10.1l2-0.8V127z"/>
	<path class="st7" d="M72.4,127c0.3,5.4,2.3,8.8,6.1,10.1V127H72.4z M52,127v9.5c3.2,0.7,5-2.5,5.6-9.5H52z M63.2,141.9h4.6
		l0.2-14.6l-0.2,14.6h3.7V213h7v-75.9c-3.9-1.3-1.3-4.4-1.5-9.8L61.7,127L63.2,141.9z M61.7,127h-8.9c-0.6,6.8,2.5,9.8-0.8,9.2V213
		h6.7v-71.1h4.5L61.7,127z"/>
	<path d="M81,213.9H69.3c-0.3,0-0.5-0.2-0.5-0.5v-68.5h-6.9v68.5c0,0.3-0.2,0.5-0.5,0.5H50c-0.3,0-0.5-0.2-0.5-0.5V127
		c0-0.3,0.2-0.5,0.5-0.5h22.4h0h0H81c0.3,0,0.5,0.2,0.5,0.5v10.7v0v75.7C81.5,213.7,81.3,213.9,81,213.9z M69.8,212.9h10.7v-74.8
		l-2.1-0.3l-0.1,0c-3.9-1.4-6.1-4.9-6.4-10.4h-3.4l-0.2,16.4h1c0.3,0,0.5,0.2,0.5,0.5V212.9z M58.6,212.9h2.3v-68.5
		c0-0.3,0.2-0.5,0.5-0.5H63l-0.2-1.6c-0.1-0.1-0.2-0.2-0.2-0.3l-1.5-14.5h-2.9c-0.4,4.7-1.5,7.6-3.2,8.9c-0.9,0.6-1.9,0.9-3,0.6
		h-1.5v75.9H58.6z M64,143.9h3.3v0l0.1-2.4l0.1-14h-5.3l1.4,13.8c0.1,0.1,0.2,0.2,0.2,0.3L64,143.9L64,143.9z M78.6,136.9l1.9,0.3
		v-9.7h-7.6C73.2,132.5,75.1,135.6,78.6,136.9z M50.5,136H52l0.1,0c0.9,0.2,1.6,0,2.3-0.5c1.4-1.1,2.4-3.8,2.8-8.1h-6.7V136z"/>
	<path class="st8" d="M81.5,206.6H68.5c-1,0-1.5,0.3-1.5,1v3.9c0,0.6,0.5,1,1.5,1h12.9c1,0,1.5-0.3,1.5-1v-3.9
		C83,206.9,82.5,206.6,81.5,206.6z"/>
	<path d="M81,213H68.5c-1.9,0-2.1-1.1-2.1-1.6v-3.9c0-0.5,0.2-1.6,2.1-1.6H81c1.9,0,2.1,1.1,2.1,1.6v3.9C83.1,211.9,82.9,213,81,213
		z M68.5,207.2c-0.9,0-0.9,0.3-0.9,0.4v3.9c0,0.1,0,0.4,0.9,0.4H81c0.9,0,0.9-0.3,0.9-0.4v-3.9c0-0.1,0-0.4-0.9-0.4H68.5z"/>
	<path class="st8" d="M61.6,206.6H49.4c-0.9,0-1.4,0.3-1.4,1v3.9c0,0.6,0.5,1,1.4,1h12.2c0.9,0,1.4-0.3,1.4-1v-3.9
		C63,206.9,62.5,206.6,61.6,206.6z"/>
	<path d="M61.6,213H49.4c-1.8,0-2-1.1-2-1.6v-3.9c0-0.5,0.2-1.6,2-1.6h12.2c1.8,0,2,1.1,2,1.6v3.9C63.6,211.9,63.4,213,61.6,213z
		 M49.4,207.2c-0.8,0-0.8,0.3-0.8,0.4v3.9c0,0.1,0,0.4,0.8,0.4h12.2c0.8,0,0.8-0.3,0.8-0.4v-3.9c0-0.1,0-0.4-0.8-0.4H49.4z"/>
</g>
</svg>
