<?xml version="1.0" encoding="utf-8"?>
<!-- Generator: Adobe Illustrator 22.0.1, SVG Export Plug-In . SVG Version: 6.00 Build 0)  -->
<!DOCTYPE svg PUBLIC "-//W3C//DTD SVG 1.1//EN" "http://www.w3.org/Graphics/SVG/1.1/DTD/svg11.dtd">
<svg version="1.1" id="Layer_1" xmlns="http://www.w3.org/2000/svg" xmlns:xlink="http://www.w3.org/1999/xlink" x="0px" y="0px"
	 viewBox="0 0 130 270" style="enable-background:new 0 0 130 270;" xml:space="preserve">
<style type="text/css">
	.st0{fill:#222222;}
	.st1{fill:#EAAF75;}
	.st2{fill:#FFCC99;}
	.st3{fill:#B1B1B1;}
	.st4{fill:#909394;}
	.st5{fill:#67696A;}
	.st6{fill:#080B0C;}
	.st7{fill:#FFDBA8;}
	.st8{fill:#2B292F;}
	.st9{fill:#EEF1F7;}
	.st10{fill:#174D6E;}
	.st11{fill:#FCDBA7;}
	.st12{fill:#E2A981;}
	.st13{fill:#FFFFFF;}
</style>
<g>
	<path class="st0" d="M82.7,68.6c0-5.8-0.9-15.7-4.7-19.8c-3.8-4.1-8.4-6.1-13.8-6.1s-10,2-13.8,6.1c-3.8,4.1-5.2,13.5-5.2,19.3
		c-0.7,3.5-1,5.9-1,7c0,3.6,0,2.7,0,7.5c0,1.9,1,4.4,1,7.5c0,1.7-0.9,3.8-1,7c0,1.5,1.9,4.2,2,7.5c0.1,1.6-0.3,4.2-1,8.1h38.5
		c-1-3.2-1.2-5.7-0.5-7.5c1-2.7,1.1-6.1,1-7.5c-0.2-4.2-1.5-5.4-1.5-9.1s1.5-4.4,1.5-7.6s-0.5-2.5-0.5-5.4
		C83.7,74,83.4,71.6,82.7,68.6z"/>
	<path class="st1" d="M32.8,172.2c-0.8,1.9-1.1,2.3-0.9,1.3c-0.2,0.3-0.2,0.7-0.1,1.2l2.4,11.3c0.1,0.5,0.3,0.8,0.7,1.1
		c0.3,0.2,0.7,0.3,1.1,0.3c-0.1-0.1-0.1-0.2-0.1-0.4c0,0.1,0.1,0.3,0.1,0.4c0.1,0.4,0.3,0.7,0.7,0.9c0.3,0.2,0.7,0.3,1,0.3l-0.1-0.2
		l-2.1-9.9l-2-2.1L32.8,172.2z"/>
	<path class="st2" d="M43.5,171.5l-0.2-0.9c-0.2-0.5-0.4-0.9-0.9-1.2c-0.4-0.2-0.8-0.3-1.3-0.3l0.8,0.6
		C42.8,170.1,43.3,170.7,43.5,171.5z M37.8,166.6c-1.2-0.8-2.4-0.5-3.4,0.9l-2.3,5c-0.2,0.4-0.3,0.8-0.4,1.1c-0.2,1,0.1,0.6,0.9-1.3
		l0.7,4.2l2,2.1l2.1,9.9l0.1,0.2c0.1,0.4,0.4,0.7,0.7,0.9c0.5,0.3,1,0.4,1.5,0.3c0.6-0.1,0.9-0.4,1.1-0.9c0.3-0.4,0.5-0.8,0.3-1.3
		l-2.1-9.8l1-2.4l1.4,6.6c0.1,0.5,0.4,0.9,0.7,1.2c0.5,0.2,1,0.3,1.5,0.2s0.9-0.3,1.3-0.7c0.2-0.4,0.3-0.9,0.1-1.4l-2.2-10.3
		c-0.2-0.7-0.7-1.3-1.4-1.8l-0.7-0.6L37.8,166.6z"/>
	<path d="M39.5,190.5c-0.5,0-0.9-0.2-1.4-0.5c-0.3-0.3-0.6-0.5-0.7-0.9c-0.3,0-0.7-0.1-0.9-0.3c-0.4-0.2-0.6-0.5-0.8-0.9
		c-0.4-0.1-0.7-0.2-1-0.4c-0.5-0.4-0.7-0.8-0.9-1.4l-2.4-11.4c-0.1-0.3-0.1-0.5-0.1-0.8v-0.2c0.1-0.4,0.2-0.8,0.4-1.3l2.2-5.1
		c1.6-2.3,3.2-1.7,4-1.2l3.1,2.3h0.1c0.2-0.1,0.4-0.1,0.5,0.1l0.8,0.6c0.9,0.5,1.5,1.2,1.7,2.1c0.1,0.2,0,0.4-0.2,0.6l2,9.4
		c0.2,0.6,0.1,1.2-0.2,1.8c-0.4,0.6-1,0.9-1.6,1s-1.2,0-1.8-0.2l-0.1-0.1c-0.4-0.4-0.7-0.9-0.9-1.5l-1.1-5.1l-0.3,0.8l2.1,9.7
		c0.1,0.6,0,1.2-0.4,1.7c-0.3,0.6-0.8,1-1.5,1.1C39.8,190.5,39.6,190.5,39.5,190.5z M38.2,188.7c0.1,0.2,0.3,0.4,0.4,0.5
		c0.3,0.2,0.7,0.3,1,0.2c0.4-0.1,0.6-0.3,0.8-0.6l0.1-0.1c0.2-0.3,0.3-0.6,0.2-0.9l-2.1-9.9c0-0.1,0-0.2,0-0.3l1-2.4
		c0.1-0.2,0.3-0.3,0.5-0.3c0.2,0,0.4,0.2,0.4,0.4l1.4,6.7c0.1,0.4,0.3,0.7,0.5,0.9c0.3,0.2,0.7,0.2,1.1,0.1c0.4-0.1,0.7-0.3,0.9-0.6
		c0.1-0.3,0.2-0.6,0.1-1l-2.2-10.5c0-0.1,0-0.2,0-0.3c-0.2-0.3-0.5-0.5-0.9-0.8l-0.8-0.6h-0.1c-0.2,0.1-0.3,0.1-0.5-0.1l-3.1-2.3
		c-0.6-0.4-1.5-0.7-2.5,0.8l-2.1,5c-0.1,0.2-0.1,0.3-0.2,0.4c0,0.1,0,0.2,0,0.3c-0.1,0.2-0.1,0.5,0,0.9l2.4,11.4
		c0.1,0.3,0.2,0.6,0.5,0.8c0.1,0.1,0.2,0.1,0.3,0.1c0.1-0.2,0.2-0.3,0.4-0.3c0.3,0,0.5,0.2,0.5,0.5c0.1,0.1,0.1,0.3,0.1,0.5
		c0.1,0.2,0.2,0.3,0.4,0.5c0.1,0.1,0.3,0.1,0.4,0.1s0.2-0.1,0.2-0.1c0.2,0,0.4,0.1,0.5,0.3C38.2,188.5,38.2,188.6,38.2,188.7z"/>
	<path class="st1" d="M97.2,170.2c0.8,1.9,1.1,2.3,0.9,1.3c0.2,0.3,0.2,0.7,0.1,1.2L95.8,184c-0.1,0.5-0.3,0.8-0.7,1.1
		c-0.3,0.2-0.7,0.3-1.1,0.3c0.1-0.1,0.1-0.2,0.1-0.4c0,0.1-0.1,0.3-0.1,0.4c-0.1,0.4-0.3,0.7-0.7,0.9c-0.3,0.2-0.7,0.3-1,0.3
		l0.1-0.2l2.1-9.9l2-2.1L97.2,170.2z"/>
	<path class="st2" d="M86.6,169.5l0.2-0.9c0.2-0.5,0.4-0.9,0.9-1.2c0.4-0.2,0.8-0.3,1.3-0.3l-0.8,0.6
		C87.3,168.1,86.8,168.7,86.6,169.5z M92.3,164.6c1.2-0.8,2.4-0.5,3.4,0.9l2.3,5c0.2,0.4,0.3,0.8,0.4,1.1c0.2,1-0.1,0.6-0.9-1.3
		l-0.7,4.2l-2,2.1l-2.1,9.9l-0.1,0.2c-0.1,0.4-0.4,0.7-0.7,0.9c-0.5,0.3-1,0.4-1.5,0.3c-0.6-0.1-0.9-0.4-1.1-0.9
		c-0.3-0.4-0.5-0.8-0.3-1.3l2.1-9.8l-1-2.4l-1.4,6.6c-0.1,0.5-0.4,0.9-0.7,1.2c-0.5,0.2-1,0.3-1.5,0.2s-0.9-0.3-1.3-0.7
		c-0.2-0.4-0.3-0.9-0.1-1.4l2.2-10.3c0.2-0.7,0.7-1.3,1.4-1.8l0.7-0.6L92.3,164.6z"/>
	<path d="M90.6,188.5c-0.2,0-0.3,0-0.5,0c-0.7-0.1-1.2-0.5-1.5-1.1c-0.4-0.5-0.5-1.1-0.4-1.7l2.1-9.7l-0.3-0.8l-1.1,5.1
		c-0.2,0.7-0.5,1.2-0.9,1.5l-0.1,0.1c-0.6,0.3-1.2,0.4-1.8,0.2c-0.6-0.1-1.1-0.4-1.5-0.9c-0.3-0.6-0.4-1.2-0.2-1.9l1.9-9.4
		c-0.2-0.1-0.3-0.3-0.2-0.6c0.2-0.9,0.8-1.6,1.8-2.1l0.8-0.6c0.1-0.1,0.3-0.1,0.5-0.1h0.1l3.1-2.3c0.8-0.6,2.5-1.2,4,1.1l2.2,5.2
		c0.2,0.4,0.3,0.9,0.4,1.3v0.2c0,0.2,0,0.5-0.1,0.8l-2.4,11.4c-0.1,0.6-0.4,1.1-0.8,1.4c-0.3,0.2-0.7,0.4-1.1,0.4
		c-0.2,0.3-0.4,0.6-0.8,0.8c-0.3,0.2-0.7,0.3-1,0.3c-0.2,0.3-0.4,0.6-0.7,0.8C91.5,188.4,91,188.5,90.6,188.5z M89.8,173
		c0.2,0,0.4,0.1,0.5,0.3l1,2.4c0,0.1,0,0.2,0,0.3l-2.1,9.9c-0.1,0.3,0,0.6,0.2,0.9l0.1,0.1c0.1,0.3,0.4,0.5,0.8,0.6s0.7,0,1.1-0.3
		c0.2-0.1,0.3-0.3,0.4-0.5c0-0.1,0.1-0.2,0.2-0.3c0.1-0.2,0.3-0.3,0.5-0.3l0.2,0.1c0.2,0,0.3-0.1,0.5-0.2c0.2-0.1,0.3-0.2,0.4-0.4
		c0-0.1,0-0.3,0.1-0.4v-0.1c0-0.3,0.3-0.5,0.5-0.5s0.4,0.1,0.4,0.3c0.1,0,0.2-0.1,0.3-0.2c0.2-0.2,0.4-0.5,0.5-0.8l2.4-11.4
		c0.1-0.4,0.1-0.7,0-0.9c0-0.1-0.1-0.2,0-0.3c0-0.1-0.1-0.3-0.2-0.4l-2.2-5.1c-1-1.5-1.9-1.2-2.5-0.7l-3.1,2.2
		c-0.1,0.1-0.3,0.1-0.5,0.1h-0.1l-0.8,0.6c-0.4,0.2-0.7,0.5-0.9,0.8v0.3l-2.2,10.4c-0.1,0.4-0.1,0.8,0.1,1.1
		c0.2,0.2,0.5,0.4,0.9,0.5s0.8,0,1.1-0.1c0.3-0.2,0.4-0.6,0.5-1l1.4-6.7C89.4,173.1,89.6,173,89.8,173L89.8,173z M92,186.4L92,186.4
		L92,186.4L92,186.4L92,186.4z"/>
	<path class="st3" d="M85.6,116.7c0.2,0.5,0.3,1,0.5,1.5l11,47.6l-9.5,2.2l-1.8-7.9v28.6c0,6.1-4.9,11-11,11h-10
		c-11.6,0-21-9.4-21-21V158l-3.2,12.7l-9.5-2.4l12.7-50.9c0.7-11,9.8-19.7,21-19.7C75.6,97.7,84.6,106,85.6,116.7"/>
	<path d="M74.7,199.7h-10c-11.6,0-21-9.4-21-21V158l-3.2,12.7l-9.5-2.4l12.7-50.9c0.7-11,9.9-19.7,21-19.7
		c10.9,0,19.9,8.2,20.9,19.1v0.1c0.2,0.4,0.3,0.9,0.4,1.4l11,47.6l-9.5,2.2l-1.8-7.9v28.6C85.7,194.7,80.7,199.7,74.7,199.7
		 M43.7,153.7l1,0.1v24.8c0,11,9,20,20,20h10c5.5,0,10-4.5,10-10v-33l1-0.1l2.6,11.2l7.6-1.8l-10.8-46.6c-0.1-0.4-0.2-0.9-0.4-1.3
		l-0.1-0.2c-1-10.4-9.5-18.2-19.9-18.2c-10.5,0-19.3,8.3-20,18.8l-12.5,50l7.5,1.9L43.7,153.7"/>
	<path class="st4" d="M57.2,198.3v1.9h14v-0.5h-6.5C62,199.7,59.5,199.2,57.2,198.3"/>
	<path class="st5" d="M57.2,198.3L57.2,198.3c2.3,0.9,4.8,1.4,7.5,1.4h6.5h-6.5C62,199.7,59.5,199.2,57.2,198.3 M57.2,169.7v27.6
		c2.3,0.9,4.8,1.4,7.5,1.4h6.5v-27L57.2,169.7"/>
	<path class="st6" d="M57.2,197.2v1.1c2.3,0.9,4.8,1.4,7.5,1.4h6.5v-1h-6.5C62,198.7,59.5,198.2,57.2,197.2"/>
	<path d="M56.9,265c3.5-1.8,5.2-6.1,3.8-9.8l-0.4-1.1c-1.4-3.7-5.1-4.7-8.3-2.4l-12,8.9c-3.2,2.3-2.9,5.8,0.5,7.6l-1.5-0.8
		c3.4,1.9,9.1,2,12.6,0.2L56.9,265z"/>
	<path class="st7" d="M55.2,255.7L55.2,255.7c1.7,0,3-1.3,3-3v-65h-6v65C52.2,254.3,53.5,255.7,55.2,255.7z"/>
	<path d="M55.2,256.2c-1.9,0-3.5-1.6-3.5-3.5v-65.5h7v65.5C58.7,254.6,57.1,256.2,55.2,256.2z M52.7,188.2v64.5
		c0,1.4,1.1,2.5,2.5,2.5s2.5-1.1,2.5-2.5v-64.5H52.7z"/>
	<path class="st7" d="M58.2,252.7l-5,7.5c-0.7-2.7-3.2-3.5-7.5-2.5c4-3,6.3-5.3,7-7L58.2,252.7z"/>
	<path d="M73.5,265.8c-3.8-2-5.9-6.9-4.7-11l0.6-2c1.2-4.1,4.6-5,7.7-2.1l12.1,11.6c3.1,2.9,2.3,6.4-1.8,7.7l3.7-1.2
		c-4.1,1.3-10.4,0.7-14.2-1.3L73.5,265.8z"/>
	<path class="st7" d="M73.2,255.7L73.2,255.7c1.7,0,3-1.3,3-3v-65h-6v65C70.2,254.3,71.5,255.7,73.2,255.7z"/>
	<path d="M73.2,256.2c-1.9,0-3.5-1.6-3.5-3.5v-65.5h7v65.5C76.7,254.6,75.1,256.2,73.2,256.2z M70.7,188.2v64.5
		c0,1.4,1.1,2.5,2.5,2.5s2.5-1.1,2.5-2.5v-64.5H70.7z"/>
	<path class="st8" d="M78.1,163.1c-1-7-7.1-12.4-14.4-12.4c-7.8,0-14.1,6.1-14.5,13.8c-0.6,0.9-0.9,2-0.8,3.2l2.3,71h8.5l0.9-66h8.3
		l0.8,66h8l2.8-71v-0.2C80,165.7,79.3,164.1,78.1,163.1z"/>
	<path d="M77.2,239.2h-8c-0.3,0-0.5-0.2-0.5-0.5l-0.8-65.5h-7.3l-0.9,65.5c0,0.3-0.2,0.5-0.5,0.5h-8.5c-0.3,0-0.5-0.2-0.5-0.5
		l-2.3-71c0-1.2,0.3-2.3,0.8-3.4c0.4-8,7-14.2,15-14.2c7.3,0,13.7,5.4,14.8,12.7c1.3,1.2,2,2.9,2,4.6v0.2l-2.8,71
		C77.7,239,77.5,239.2,77.2,239.2z M69.7,238.2h7l2.8-70.7c0-1.5-0.7-3-1.8-4c-0.1-0.1-0.1-0.2-0.2-0.3c-1-6.8-6.9-12-13.9-12
		c-7.5,0-13.6,5.9-14,13.4l-0.1,0.2c-0.5,0.9-0.8,1.9-0.8,2.9l2.3,70.5h7.5l0.9-65.5c0-0.3,0.2-0.5,0.5-0.5h8.3
		c0.3,0,0.5,0.2,0.5,0.5L69.7,238.2z"/>
	<path class="st9" d="M61.5,101.7h4.8c3.3,0,5.9,2.6,6,5.9l0.8,46.6l-18-0.5l0.3-46C55.5,104.3,58.2,101.7,61.5,101.7z"/>
	<path d="M73.2,154.2l-18-0.5l0.3-46c0-3.3,2.7-6,6-6h4.8c3.2,0,5.9,2.6,6,5.9L73.2,154.2z M56.2,152.7l16,0.4l-0.8-45.6
		c0-2.7-2.3-4.9-5-4.9h-4.8c-2.7,0-5,2.2-5,5L56.2,152.7z"/>
	
		<rect x="56.2" y="114.3" transform="matrix(0.9999 -1.171832e-02 1.171832e-02 0.9999 -1.3408 0.7602)" class="st10" width="16" height="1"/>
	
		<rect x="56.2" y="107.3" transform="matrix(0.9999 -1.171832e-02 1.171832e-02 0.9999 -1.2588 0.7597)" class="st10" width="16" height="1"/>
	<rect x="56.2" y="122.2" class="st10" width="16" height="1"/>
	<rect x="56.2" y="128.2" class="st10" width="16" height="1"/>
	<rect x="56.2" y="135.2" class="st10" width="16" height="1"/>
	<rect x="56.2" y="143.2" class="st10" width="16" height="1"/>
	<rect x="56.2" y="149.2" class="st10" width="16" height="1"/>
	<path class="st3" d="M55.7,152.2c0.3,9.7-1.8,25.5-6.5,47.5c-3,0.5-4-12.5-4-23.5c0-8,0-20.8,0-38.5"/>
	<path d="M49,200.2c-0.4,0-0.7-0.1-1-0.4c-3-2.6-3.3-18.7-3.3-23.6v-39h1v39c0,12.3,1.2,21.3,2.9,22.8l0.2,0.1
		c4.6-21.6,6.7-37.4,6.4-46.9v-0.5h1v0.5c0.3,9.7-1.9,25.7-6.5,47.6l-0.1,0.3l-0.3,0.1L49,200.2z"/>
	<path class="st3" d="M72.7,153.7c0.3,9,2.8,24.5,7.5,46.5c3,0.5,5.5-8.5,5.5-19.5c0-8-0.8-22.2-2.5-42.5"/>
	<path d="M80.4,200.7c-0.1,0-0.2,0-0.3,0l-0.3-0.1l-0.1-0.3c-4.7-21.9-7.2-37.6-7.5-46.6v-0.5h1v0.5c0.3,8.9,2.8,24.4,7.4,46
		c0.2,0,0.4-0.2,0.7-0.4c1.9-1.7,3.9-8.6,3.9-18.7c0-8-0.8-22.2-2.5-42.5v-0.5l1-0.1v0.5c1.7,20.2,2.5,34.6,2.5,42.5
		c0,9.3-1.8,17.3-4.3,19.4C81.4,200.5,81,200.7,80.4,200.7z"/>
	<path class="st5" d="M48.7,200.2h-1v-0.5c1-19.9,1.5-33.9,1.5-41.5c0-18-0.8-30.1-1.2-36.7c-0.2-2.4-0.3-3.9-0.3-4.8
		c0-4.7,1-9,3.1-12.7l0.2-0.4l0.9,0.5l-0.2,0.4c-2,3.6-2.9,7.7-2.9,12.3c0,0.8,0.1,2.4,0.3,4.7c0.4,6.6,1.2,18.8,1.2,36.8
		c0,7.6-0.5,21.6-1.5,41.5L48.7,200.2z"/>
	<path class="st5" d="M79.2,196.1l-0.1-0.5c-2-19.8-3.3-33.7-3.7-41.4c-0.9-18-0.8-30.2-0.7-36.8c0-2.4,0.1-3.9,0-4.7
		c-0.2-4.6-1.4-8.6-3.6-12.1l-0.3-0.4l0.9-0.5l0.3,0.4c2.2,3.6,3.5,7.8,3.7,12.6c0,0.9,0,2.4,0,4.8c-0.1,6.6-0.3,18.8,0.7,36.7
		c0.4,7.6,1.6,21.5,3.7,41.3l0.1,0.5L79.2,196.1z"/>
	<path class="st11" d="M61.3,98.6c-1.4,0-2.1-1-2.1-2.9v8.8c2.1,2.7,3.1,3.2,4.5,3.2h1.5c1.4,0,3-1,4-3.2v-8.8
		c-0.1,2-0.8,2.9-2.1,2.9H61.3z"/>
	<path class="st1" d="M67.1,80.7h-5.7c-1.4,0-2.1,1.1-2.1,3.2v11.9c0.1,1.9,0.8,2.9,2.1,2.9h5.7c1.4,0,2.1-1,2.1-2.9v-12
		C69.2,81.7,68.5,80.7,67.1,80.7z"/>
	<path d="M64.7,108.2h-0.5c-3.8,0-5.5-3.5-5.5-6V83c0-3.1,1.4-3.8,2.6-3.8H67c1.2,0,2.6,0.7,2.6,3.8v19.2
		C69.7,104.7,68,108.2,64.7,108.2z M61.3,80.2c-0.4,0-1.6,0-1.6,2.8v19.2c0,2.1,1.4,5,4.5,5h0.5c2.6,0,4-2.9,4-5V83
		c0-2.8-1.2-2.8-1.6-2.8H61.3z"/>
	<path class="st7" d="M70.7,252.7l5,7.5c0.7-2.7,3.2-3.5,7.5-2.5c-4-3-6.3-5.3-7-7L70.7,252.7z"/>
	<path class="st11" d="M54.5,76.2c1.1-1,1.7-2.2,1.7-3.6c0-1.4-0.6-2.5-1.7-3.5s-2.4-1.5-3.8-1.5c-1.5,0-2.8,0.5-3.9,1.5
		c-1,1-1.6,2.1-1.6,3.5c0,1.4,0.5,2.6,1.6,3.6s2.4,1.5,3.9,1.5S53.5,77.2,54.5,76.2z"/>
	<path d="M50.7,78.2c-1.6,0-3.1-0.5-4.3-1.6c-1.2-1.1-1.7-2.4-1.7-3.9s0.6-2.8,1.7-3.9c1.2-1.1,2.6-1.6,4.3-1.6c1.6,0,3,0.5,4.2,1.6
		c1.2,1.1,1.8,2.4,1.8,3.9s-0.6,2.8-1.8,3.9l0,0C53.7,77.6,52.3,78.2,50.7,78.2z M50.7,68.2c-1.4,0-2.6,0.4-3.6,1.3
		c-0.9,0.9-1.4,1.9-1.4,3.1c0,1.2,0.5,2.3,1.4,3.2c1,0.9,2.2,1.3,3.6,1.3c1.4,0,2.5-0.4,3.5-1.3c1-0.9,1.5-2,1.5-3.2
		s-0.5-2.3-1.5-3.1C53.2,68.6,52.1,68.2,50.7,68.2z"/>
	<path class="st1" d="M53.1,74.8c0.7-0.6,1.1-1.3,1.1-2.1c0-0.8-0.4-1.5-1.1-2.1c-0.7-0.6-1.5-0.9-2.4-0.9s-1.8,0.3-2.5,0.9
		c-0.7,0.6-1,1.3-1,2.1s0.3,1.5,1,2.1c0.7,0.6,1.5,0.9,2.5,0.9S52.5,75.4,53.1,74.8z"/>
	<path class="st11" d="M72.2,72.6c0,1.4,0.5,2.6,1.6,3.6s2.4,1.5,3.9,1.5s2.8-0.5,3.8-1.5c1.1-1,1.7-2.2,1.7-3.6s-0.6-2.5-1.7-3.5
		s-2.4-1.5-3.8-1.5c-1.5,0-2.8,0.5-3.9,1.5S72.2,71.3,72.2,72.6z"/>
	<path d="M77.7,78.2c-1.6,0-3.1-0.5-4.3-1.6c-1.2-1.1-1.7-2.4-1.7-3.9s0.6-2.8,1.7-3.9c1.2-1.1,2.6-1.6,4.3-1.6c1.6,0,3,0.5,4.2,1.6
		s1.8,2.4,1.8,3.9s-0.6,2.8-1.8,3.9C80.7,77.6,79.3,78.2,77.7,78.2z M77.7,68.2c-1.4,0-2.6,0.4-3.6,1.3c-0.9,0.9-1.4,1.9-1.4,3.1
		c0,1.2,0.5,2.3,1.4,3.2c1,0.9,2.2,1.3,3.6,1.3s2.5-0.4,3.5-1.3c1-0.9,1.5-2,1.5-3.2s-0.5-2.3-1.5-3.1
		C80.2,68.6,79.1,68.2,77.7,68.2z"/>
	<path class="st1" d="M74.2,72.7c0,0.8,0.3,1.5,1,2.1c0.7,0.6,1.5,0.9,2.5,0.9s1.8-0.3,2.4-0.9c0.7-0.6,1.1-1.3,1.1-2.1
		c0-0.8-0.4-1.5-1.1-2.1c-0.7-0.6-1.5-0.9-2.4-0.9s-1.8,0.3-2.5,0.9C74.5,71.1,74.2,71.9,74.2,72.7z"/>
	<path class="st7" d="M78,67.1l-1.7,15.7c-0.7,6.2-5.9,10.9-12.2,10.9c-6.2,0-11.4-4.7-12-11l-1.5-16.1c3.1-1.6,7.3-7.4,10.5-14.9
		c0.8-2,1.5-3.9,2.1-5.8c0.4,0,0.7,0,1.1,0h0.3c0.6,2.3,1.4,4.7,2.4,7.2C70.4,60.8,74.9,66.4,78,67.1z"/>
	<path d="M64.2,93.7c-6.3,0-11.4-4.7-12-11l-1.5-16.1l0.3-0.2c3.2-1.8,7.2-7.6,10.2-14.7c0.8-1.8,1.4-3.6,2-5.4l0.1-0.3h0.4
		c0.2,0,0.4,0,0.7,0h0.4l0.1,0.4c0.6,2.2,1.4,4.6,2.3,6.9c3,7.1,7.3,12.8,10.5,13.8l0.4,0.1l-1.7,15.6C75.7,89,70.5,93.7,64.2,93.7z
		 M51.7,67.1l1.5,15.5c0.5,5.7,5.3,10,11,10c5.8,0,10.6-4.3,11.2-10L77,67.8c-3.4-1.4-7.6-7-10.7-14.2c-0.9-2.2-1.7-4.4-2.2-6.5
		c-0.5,1.6-1.2,3.3-1.9,5C59.1,59.2,55.1,65,51.7,67.1z"/>
	<path d="M64.2,79.2c-0.8,0-1.6-0.4-2.3-1.1L61.8,78V66.2c0-0.3,0.2-0.5,0.5-0.5s0.5,0.2,0.5,0.5v11.3c0.5,0.5,1,0.7,1.5,0.7
		c0.9,0,1.6-0.8,1.6-0.8c0.2-0.2,0.5-0.2,0.7-0.1c0.2,0.2,0.2,0.5,0.1,0.7C66.5,78,65.6,79.1,64.2,79.2L64.2,79.2z"/>
	<path d="M58.5,66.9c-0.2,0.2-0.3,0.5-0.3,0.7c0,0.2,0.1,0.5,0.3,0.7c0.2,0.2,0.4,0.3,0.7,0.3s0.5-0.1,0.7-0.3s0.3-0.4,0.3-0.7
		c0-0.3-0.1-0.5-0.3-0.7c-0.2-0.2-0.4-0.3-0.7-0.3S58.7,66.8,58.5,66.9z"/>
	<path d="M69.9,68.3c0.2-0.2,0.3-0.4,0.3-0.7s-0.1-0.5-0.3-0.7c-0.2-0.2-0.4-0.3-0.7-0.3s-0.5,0.1-0.7,0.3c-0.2,0.2-0.3,0.5-0.3,0.7
		s0.1,0.5,0.3,0.7c0.2,0.2,0.4,0.3,0.7,0.3S69.7,68.6,69.9,68.3z"/>
	<path class="st12" d="M60.2,82.7l8.7-0.5c-0.7,3.7-2.1,5.5-4.2,5.5C62.5,87.7,61,86,60.2,82.7z"/>
	<path class="st12" d="M59.9,81.7h9c-0.3-1-1.8-1.5-4.5-1.5S60.3,80.7,59.9,81.7z"/>
	<path class="st13" d="M60.2,81.7h8.7c-0.8,2.7-2.3,4-4.4,4S61,84.3,60.2,81.7z"/>
	<path d="M64.6,86.2c-2.3,0-4-1.5-4.8-4.4c0-0.2,0-0.3,0.1-0.4s0.2-0.2,0.4-0.2H69c0.2,0,0.3,0.1,0.4,0.2s0.1,0.3,0.1,0.4
		C68.5,84.7,66.9,86.2,64.6,86.2z M60.9,82.2c0.8,2,2,3,3.7,3s2.9-1,3.7-3H60.9z"/>
</g>
</svg>
