<?xml version="1.0" encoding="utf-8"?>
<!-- Generator: Adobe Illustrator 22.0.1, SVG Export Plug-In . SVG Version: 6.00 Build 0)  -->
<!DOCTYPE svg PUBLIC "-//W3C//DTD SVG 1.1//EN" "http://www.w3.org/Graphics/SVG/1.1/DTD/svg11.dtd">
<svg version="1.1" id="Layer_1" xmlns="http://www.w3.org/2000/svg" xmlns:xlink="http://www.w3.org/1999/xlink" x="0px" y="0px"
	 viewBox="0 0 130 270" style="enable-background:new 0 0 130 270;" xml:space="preserve">
<style type="text/css">
	.st0{fill:#673607;}
	.st1{fill:#E2A981;}
	.st2{fill:#85A3AE;}
	.st3{fill:#5F7077;}
	.st4{fill:#FFCC99;}
	.st5{fill:#EAAF75;}
	.st6{fill:#656D70;}
	.st7{fill:#B2B2B2;}
	.st8{fill:#474C4E;}
	.st9{fill:#505658;}
	.st10{fill:#865F10;}
	.st11{fill:#F9C695;}
	.st12{fill:#E5DDD4;}
	.st13{fill:#E0AD7C;}
	.st14{fill:#110900;}
	.st15{fill:#513600;}
</style>
<g>
	<path d="M73.2,264.5c-3.3-1.7-4.9-5.8-3.7-9.2l0.4-1.1c1.3-3.5,4.7-4.5,7.7-2.4l14.7,10.4c3,2.1,2.7,5.1-0.6,6.7l0.9-0.4
		c-3.3,1.5-8.7,1.5-12-0.2L73.2,264.5z"/>
	<path d="M86.9,270c-2.4,0-4.7-0.5-6.5-1.3l-7.5-3.7c-3.5-1.8-5.3-6.2-3.9-9.9l0.4-1.1c0.7-1.8,1.9-3.1,3.5-3.6c1.6-0.5,3.4-0.2,5,1
		l14.7,10.4c1.6,1.1,2.4,2.6,2.3,4c-0.1,1.2-0.8,2.2-2.1,3l0,0.1l0,0l-0.9,0.4l0,0C90.5,269.7,88.7,270,86.9,270z M73.4,264l7.5,3.7
		c3,1.5,7.9,1.7,11.1,0.4c1.2-0.7,1.9-1.5,2-2.5c0.1-1.1-0.6-2.2-1.9-3.1l-14.7-10.4c-1.3-0.9-2.8-1.2-4.1-0.8
		c-1.3,0.4-2.3,1.5-2.9,3l-0.4,1.1C68.8,258.6,70.4,262.5,73.4,264z"/>
	<path class="st0" d="M73.6,261.9c-3.1-1.6-4.7-5.5-3.5-8.8l0.4-1.1c1.2-3.3,4.5-4.3,7.4-2.3L93,260.3c2.9,2,2.6,4.8-0.6,6.2
		l0.7-0.3c-3.2,1.4-8.4,1.3-11.5-0.3L73.6,261.9z"/>
	<path d="M87.8,267.7c-2.3,0-4.7-0.4-6.4-1.3l-8-4c-3.4-1.7-5-5.9-3.8-9.4l0.4-1.1c0.6-1.7,1.8-3,3.4-3.5c1.5-0.5,3.2-0.2,4.8,0.9
		l15.3,10.7c1.5,1.1,2.3,2.4,2.2,3.8c-0.1,1.2-0.9,2.2-2.2,2.9l0,0l-0.7,0.3l0,0C91.2,267.4,89.5,267.7,87.8,267.7z M74.8,249.1
		c-0.4,0-0.8,0.1-1.1,0.2c-1.2,0.4-2.2,1.4-2.7,2.9l-0.4,1.1c-1.1,3.1,0.4,6.7,3.3,8.2l8,4c2.9,1.5,7.6,1.6,10.7,0.5
		c1.2-0.6,1.9-1.4,2-2.3c0.1-1-0.5-2-1.8-2.9l-15.3-10.7C76.6,249.5,75.7,249.1,74.8,249.1z"/>
	<path class="st1" d="M82.8,259.8l-1.5-4l-5.9-1.7c-0.3-0.1-0.4-0.3-0.3-0.6s0.3-0.4,0.6-0.3l5.2,1.5l-1.1-3c-0.1-0.3,0-0.5,0.3-0.6
		c0.3-0.1,0.5,0,0.6,0.3l1.4,3.6l6.4,1.8L82.8,259.8z M82.4,256.1l0.9,2.2l2.5-1.3L82.4,256.1z"/>
	<path d="M58.1,264.3c3.3-1.7,4.9-5.8,3.7-9.2l-0.4-1.1c-1.3-3.5-4.7-4.5-7.7-2.4L38.9,262c-3,2.1-2.7,5.1,0.6,6.7l-0.9-0.4
		c3.3,1.5,8.7,1.5,12-0.2L58.1,264.3z"/>
	<path d="M44.3,269.8c-1.8,0-3.5-0.3-5-0.8l0,0l0,0l-0.9-0.4h0l0-0.1c-1.2-0.8-2-1.8-2.1-3c-0.1-1.4,0.7-2.9,2.3-4l14.7-10.4
		c1.6-1.1,3.4-1.5,5-1c1.6,0.5,2.9,1.8,3.5,3.6l0.4,1.1c1.3,3.7-0.4,8.1-3.9,9.9l-7.5,3.7C49.1,269.3,46.7,269.8,44.3,269.8z
		 M39.3,268c3.2,1.3,8.1,1.1,11.1-0.4l7.5-3.7c3.1-1.5,4.6-5.4,3.4-8.6l-0.4-1.1c-0.6-1.5-1.6-2.6-2.9-3c-1.3-0.4-2.8-0.1-4.1,0.8
		l-14.7,10.4c-1.3,0.9-2,2-1.9,3.1C37.4,266.4,38.1,267.3,39.3,268z M58.1,264.3L58.1,264.3L58.1,264.3z"/>
	<path class="st0" d="M57.7,261.7c3.1-1.6,4.7-5.5,3.5-8.8l-0.4-1.1c-1.2-3.3-4.5-4.3-7.4-2.3l-15.3,10.7c-2.9,2-2.6,4.8,0.6,6.2
		l-0.7-0.3c3.2,1.4,8.4,1.3,11.5-0.3L57.7,261.7z"/>
	<path d="M43.5,267.5c-1.7,0-3.4-0.2-4.8-0.7l0,0l-0.7-0.3l0,0c-1.3-0.7-2.1-1.8-2.2-2.9c-0.1-1.4,0.6-2.7,2.2-3.8l15.3-10.7
		c1.5-1.1,3.2-1.4,4.8-0.9c1.5,0.5,2.7,1.7,3.4,3.5l0.4,1.1c1.3,3.5-0.4,7.8-3.8,9.4l-8,4C48.2,267,45.8,267.5,43.5,267.5z
		 M38.7,265.7c3.1,1.2,7.8,1,10.7-0.5l8-4c2.9-1.5,4.4-5.1,3.3-8.2l-0.4-1.1c-0.5-1.4-1.5-2.5-2.7-2.9c-1.2-0.4-2.6-0.1-3.9,0.8
		l-15.3,10.7c-1.2,0.9-1.9,1.9-1.8,2.9C36.8,264.3,37.5,265.1,38.7,265.7z"/>
	<path class="st1" d="M48.5,259.6l-5.7-3l6.4-1.8l1.4-3.6c0.1-0.3,0.4-0.4,0.6-0.3c0.3,0.1,0.4,0.4,0.3,0.6l-1.1,3l5.2-1.5
		c0.3-0.1,0.5,0.1,0.6,0.3c0.1,0.3-0.1,0.5-0.3,0.6l-5.9,1.7L48.5,259.6z M45.5,256.8l2.5,1.3l0.9-2.2L45.5,256.8z"/>
	<polyline class="st2" points="82,172.5 47.5,172.5 47.5,251.5 59.7,251.5 59.7,188.7 68.8,188.7 68.8,251.5 82,251.5 82,172.5 	"/>
	<path class="st3" d="M79,173l0.5,79.1h3L83,173H79 M56.1,186.1c-0.5,44.1-0.3,66.2,0.5,66.5c0.2,0,1.5-0.1,4.1-0.5l-0.5-62.9h9.4
		v62.9h4.2l-0.9-66H56.1 M50.6,173l-3-0.5l0.5,79.6h2.3L50.6,173"/>
	<path d="M83,252.5H69.6c-0.3,0-0.5-0.2-0.5-0.5v-63h-8v63c0,0.3-0.2,0.5-0.5,0.5H47.5c-0.3,0-0.5-0.2-0.5-0.5v-79.5
		c0-0.3,0.2-0.5,0.5-0.5h25.6h0H83c0.3,0,0.5,0.2,0.5,0.5v9.9v0V252C83.5,252.3,83.3,252.5,83,252.5 M70.1,251.5h12.4v-68.7
		l-2.4-0.3c-4.5-1.3-7-4.5-7.4-9.6h-4l-0.2,15h1.2c0.3,0,0.5,0.2,0.5,0.5V251.5 M57.4,251.5h2.7v-63c0-0.3,0.2-0.5,0.5-0.5h1.8
		l-0.2-1.3c-0.1-0.1-0.2-0.2-0.2-0.4L60.3,173h-3.5c-0.5,4-1.5,6.6-3.2,7.9c-1.1,0.8-2.3,1.1-3.8,0.8l-1.7,0v69.8H57.4 M63.4,188.1
		h4l0.1-2.2l0.2-12.8h-6.3l1.6,12.6c0.1,0.1,0.2,0.2,0.2,0.3L63.4,188.1L63.4,188.1 M73.7,173c0.4,4.6,2.6,7.4,6.6,8.6l2.2,0.2V173
		H73.7 M48,180.8h1.8c1.3,0.2,2.3,0,3.1-0.7c1.4-1.1,2.4-3.5,2.8-7.1H48V180.8"/>
	<path class="st4" d="M86.9,178.4l-4.9,10.7c-0.3,0.5-0.4,1-0.3,1.6c0.2,0.5,0.5,0.9,1,1.1c0.5,0.2,1,0.3,1.5,0.2
		c0.4-0.2,0.8-0.6,1.1-1.1l3.3-6.6l0.3,2.8l-4.9,9.8c-0.2,0.5-0.3,1,0,1.5c0.1,0.6,0.3,1,0.8,1.2c0.5,0.2,1,0.2,1.5,0
		c0.4-0.2,0.7-0.4,0.9-0.8c0.4,0.1,0.7,0.1,1.1,0c0.4-0.2,0.7-0.4,0.9-0.8c0.4,0.1,0.8,0.1,1.2-0.1c0.4-0.2,0.7-0.5,1-1l5.6-11.3
		c1.1-2-0.6-8.7-0.7-9.1L86.9,178.4z"/>
	<path d="M85.5,200.2c-0.3,0-0.7-0.1-1-0.2c-0.6-0.3-1-0.8-1.1-1.5c-0.2-0.6-0.2-1.2,0.1-1.8l4.8-9.6l-0.1-1l-2.5,5.1
		c-0.3,0.6-0.8,1.1-1.3,1.4l-0.1,0c-0.6,0.1-1.3,0.1-1.8-0.2c-0.6-0.3-1-0.7-1.2-1.4c-0.2-0.7,0-1.4,0.3-2l4.9-10.7
		c0.1-0.1,0.2-0.2,0.4-0.3l9.5-2c0.1,0,0.3,0,0.4,0.1s0.2,0.2,0.2,0.3c0,0,0,0.2,0.1,0.4c1,4.8,1.2,7.8,0.5,9l-5.6,11.3
		c-0.3,0.6-0.7,1-1.2,1.2c-0.4,0.2-0.8,0.2-1.2,0.2c-0.2,0.3-0.6,0.5-1,0.7c-0.4,0.1-0.7,0.1-1.1,0.1c-0.3,0.3-0.6,0.5-0.9,0.7
		C86.2,200.1,85.8,200.2,85.5,200.2z M88.5,183.7L88.5,183.7c0.3,0,0.5,0.2,0.5,0.4l0.3,2.8c0,0.1,0,0.2,0,0.3l-4.9,9.8
		c-0.2,0.3-0.2,0.7,0,1l0,0.1c0,0.4,0.2,0.6,0.6,0.8c0.3,0.2,0.7,0.2,1.1,0c0.3-0.1,0.5-0.3,0.7-0.6c0.1-0.2,0.3-0.3,0.5-0.2
		c0.3,0.1,0.6,0.1,0.9,0c0.3-0.1,0.5-0.3,0.6-0.5c0.1-0.2,0.3-0.3,0.6-0.2c0.3,0.1,0.6,0.1,0.9-0.1c0.3-0.1,0.5-0.4,0.7-0.8
		l5.6-11.3c0.4-0.7,0.6-2.7-0.6-8.3l-8.7,1.8l-4.8,10.5c-0.3,0.5-0.3,0.8-0.2,1.2c0.1,0.3,0.4,0.6,0.7,0.8c0.4,0.2,0.7,0.2,1.1,0.2
		c0.3-0.2,0.6-0.5,0.8-0.9l3.3-6.6C88.2,183.8,88.3,183.7,88.5,183.7z"/>
	<path class="st5" d="M96.8,182.5c0.2,2.2,0.4,2.7,0.5,1.6c0.1,0.4,0,0.8-0.3,1.3l-5.5,11.2c-0.2,0.5-0.6,0.8-1,1
		c-0.4,0.1-0.8,0.2-1.2,0.1c0.1-0.1,0.2-0.2,0.2-0.3c0,0.1-0.1,0.3-0.2,0.3c-0.2,0.3-0.5,0.6-0.9,0.8c-0.4,0.1-0.7,0.1-1.1,0
		c0.1,0,0.1-0.1,0.2-0.2l4.9-9.8l2.5-1.7L96.8,182.5z"/>
	<path class="st4" d="M43.3,179.4l4.9,10.7c0.3,0.5,0.4,1,0.3,1.6c-0.2,0.5-0.5,0.9-1,1.1c-0.5,0.2-1,0.3-1.5,0.2
		c-0.4-0.2-0.8-0.6-1.1-1.1l-3.3-6.6l-0.3,2.8l4.9,9.8c0.2,0.5,0.3,1,0,1.5c-0.1,0.6-0.3,1-0.8,1.2c-0.5,0.2-1,0.2-1.5,0
		c-0.4-0.2-0.7-0.4-0.9-0.8c-0.4,0.1-0.7,0.1-1.1,0c-0.4-0.2-0.7-0.4-0.9-0.8c-0.4,0.1-0.8,0.1-1.2-0.1c-0.4-0.2-0.7-0.5-1-1
		l-5.6-11.3c-1.1-2,0.6-8.7,0.7-9.1L43.3,179.4z"/>
	<path d="M44.6,201.2c-0.3,0-0.6-0.1-1-0.2c-0.4-0.2-0.7-0.4-1-0.7c-0.3,0-0.7,0-1-0.1c-0.4-0.2-0.8-0.4-1-0.7c-0.4,0-0.8,0-1.1-0.2
		c-0.5-0.3-1-0.7-1.2-1.2l-5.6-11.3c-0.7-1.3-0.5-4.2,0.5-9c0-0.2,0.1-0.3,0.1-0.4c0-0.1,0.1-0.3,0.2-0.3c0.1-0.1,0.3-0.1,0.4-0.1
		l9.5,2c0.2,0,0.3,0.1,0.4,0.3l4.9,10.7c0.3,0.6,0.4,1.2,0.3,1.9c-0.3,0.7-0.7,1.2-1.3,1.4c-0.6,0.3-1.2,0.4-1.8,0.2l-0.1,0
		c-0.5-0.3-1-0.7-1.3-1.3l-2.5-5.1l-0.1,1l4.8,9.6c0.3,0.6,0.3,1.2,0.1,1.8c-0.1,0.7-0.5,1.2-1.1,1.5
		C45.3,201.1,45,201.2,44.6,201.2z M42.9,199.2c0.2,0,0.3,0.1,0.4,0.2c0.2,0.3,0.4,0.5,0.7,0.6c0.4,0.2,0.8,0.2,1.1,0
		c0.4-0.2,0.5-0.4,0.6-0.8l0-0.1c0.2-0.4,0.1-0.7,0-1l-4.9-9.8c0-0.1-0.1-0.2,0-0.3l0.3-2.8c0-0.2,0.2-0.4,0.4-0.4
		c0.2,0,0.4,0.1,0.5,0.3l3.3,6.6c0.2,0.4,0.5,0.7,0.8,0.9c0.4,0.1,0.7,0,1.1-0.2c0.4-0.2,0.6-0.4,0.8-0.8c0.1-0.3,0-0.7-0.2-1.1
		l-4.9-10.5l-8.7-1.8c-1.2,5.6-1,7.6-0.6,8.3l5.6,11.3c0.2,0.4,0.4,0.6,0.7,0.8c0.3,0.1,0.5,0.1,0.8,0c0.2-0.1,0.4,0,0.6,0.2
		c0.1,0.2,0.4,0.4,0.7,0.5c0.2,0.1,0.5,0.1,0.8,0L42.9,199.2z"/>
	<path class="st5" d="M33.3,183.6c-0.2,2.2-0.4,2.7-0.5,1.6c-0.1,0.4,0,0.8,0.3,1.3l5.5,11.2c0.2,0.5,0.6,0.8,1,1
		c0.4,0.1,0.8,0.2,1.2,0.1c-0.1-0.1-0.2-0.2-0.2-0.3c0,0.1,0.1,0.3,0.2,0.3c0.2,0.3,0.5,0.6,0.9,0.8c0.4,0.1,0.7,0.1,1.1,0
		c-0.1,0-0.1-0.1-0.2-0.2l-4.9-9.8l-2.5-1.7L33.3,183.6z"/>
	<path class="st6" d="M102.3,143.4l-1.4-10.2c-0.9-6.6-5.4-11.9-11.4-14.1c-2.9-2.3-6.5-3.7-10.4-3.7H53.5c-3.2,0-6.3,0.9-8.8,2.5
		c-6,1.5-10.7,6.1-12.5,12l-3.2,10.8l-0.1,0.3c-3,5.4-2,20.3-1.9,23.4L33,183l7.1-3.6c-1.1-9.1-1.6-15.8-1.5-19.9
		c0.1-4,1.5-7.8,4.3-11.3c0.1-0.1,0.2-0.2,0.2-0.3c0.2-0.2,0.3-0.5,0.5-0.8l2.6,10c0.2,0.7,0.5,1.4,0.8,2.1v15.5h37.1v-15.6
		c0.3-0.6,0.6-1.3,0.8-2l2.5-9.9c0.3-0.1,0.5-0.3,0.8-0.4c2,6.9,2.6,12.1,2,15.9c-0.7,4.1-1.5,9.2-2.6,15.3l10,4l4.8-21
		C103.1,157.7,104.1,147.9,102.3,143.4L102.3,143.4"/>
	<path d="M33,183l-6.1-18.6c0-0.6-0.1-2.9-0.1-2.9c-0.1-3.8-0.2-6.7,0-9.4c0.2-5.3,0.9-9,2.1-11l0.1-0.3l0-0.1l3.2-10.7
		c1.7-5.9,6.5-10.5,12.5-12l0.1,0c2.6-1.6,5.6-2.5,8.7-2.5h25.6c3.8,0,7.5,1.3,10.4,3.7l0.1,0c6.1,2.2,10.4,7.6,11.3,14.1l1.4,10.2
		l0.1,0l0.1,0.4c1.2,3.9,0.9,12.3-0.1,17.2l-4.8,21l-10-4l0.1-0.4c1-6,1.8-10.9,2.5-14.9c0.6-3.7-0.1-9.1-2-15.9v0
		c-0.3,0.1-0.5,0.3-0.8,0.4l-2.5,9.9c-0.2,0.7-0.4,1.4-0.8,2v15.6H47v-15.5c-0.4-0.7-0.6-1.3-0.8-2.1l-2.6-10
		c-0.2,0.3-0.3,0.6-0.5,0.8c-0.1,0.1-0.2,0.2-0.2,0.3c-2.7,3.5-4.1,7.3-4.3,11.3c-0.1,4,0.4,10.6,1.5,19.5l0,0.3L33,183 M27.9,164.3
		l5.7,17.3l5.4-2.7c-1.1-8.8-1.5-15.3-1.4-19.3c0.1-4.2,1.6-8.2,4.5-11.9c0.1-0.1,0.1-0.2,0.2-0.3c0.1-0.2,0.3-0.4,0.4-0.7l1.2-2.4
		l3.3,12.6c0.2,0.6,0.4,1.3,0.7,1.8l0.1,0.2v14.7h35.1v-14.8l0.1-0.2c0.3-0.6,0.5-1.2,0.7-1.8l2.6-10.3l0.4-0.2
		c0.2-0.1,0.5-0.3,0.7-0.4l1.1-0.6l0.4,1.2c2,7.1,2.7,12.4,2.1,16.3c-0.6,3.9-1.5,8.7-2.4,14.5l8.2,3.3l4.6-19.9
		c1-4.6,1.3-12.4,0.3-16.3l-0.2,0l-1.5-11.1c-0.8-6.1-5-11.2-10.8-13.3l-0.2-0.1c-2.9-2.3-6.3-3.5-9.9-3.5H53.5
		c-2.9,0-5.8,0.8-8.3,2.4l-0.2,0.1c-5.7,1.5-10.2,5.8-11.9,11.4l-3.3,11c-0.1,0.1-0.1,0.2-0.2,0.3c-1.1,1.9-1.7,5.5-1.9,10.6
		c-0.1,2.7-0.1,5.6,0,9.3C27.8,161.5,27.9,163.8,27.9,164.3"/>
	<path class="st7" d="M40.4,152.3c-0.3,0.7-0.6,1.4-0.9,2.2L40.4,152.3"/>
	<path class="st8" d="M40.4,129.8l-3.3,30.7l0.5-1.3c0.2-4.1,1.7-7.9,4.5-11.5c0.1-0.1,0.1-0.2,0.2-0.3c0-0.1,0.1-0.1,0.1-0.2
		l0.2-0.4l1-2.3c0,0.1,0.1,0.2,0.1,0.3l0.2-0.4l3.3,12.6c0.2,0.6,0.4,1.3,0.7,1.8l0.1,0.2v12.8c0,0.6,0,1.3,0,2h4.9
		c-1.8-6.8-1.7-9.7-1.3-15.7c0.2-4.1,1.2-7.9,3-11.3c-3.3-0.9-6.2-2.7-8.6-5.6c-2.4-2.9-3.8-6.1-4.1-9.6L40.4,129.8"/>
	<path d="M52.9,173.7H48c0,0.2,0,0.5,0,0.7c0.6,0.2,1.3,0.3,2.1,0.3c0.8,0,1.8-0.1,2.9-0.3C53,174.1,53,173.9,52.9,173.7
		 M42.4,147.2c0,0.1-0.1,0.1-0.1,0.2c-0.1,0.1-0.1,0.2-0.2,0.3c-2.8,3.6-4.3,7.5-4.5,11.5l1.9-4.7c0.2-0.7,0.5-1.4,0.9-2.2
		L42.4,147.2 M43.9,144.3l-0.2,0.4c2.3,8,3.6,12.9,3.9,14.7c0.2,1.6,0.4,5.7,0.4,12.3v-12.8l-0.1-0.2c-0.3-0.6-0.6-1.2-0.7-1.8
		L43.9,144.3"/>
	<path class="st7" d="M89.1,150.3l0,0.2l0.1,0.5C89.2,150.7,89.1,150.5,89.1,150.3"/>
	<path class="st8" d="M89.6,131.9l-1.5,3.5c0.7,4.1,0,7-2,8.5c-2,1.5-4.9,2.6-8.6,3.4l2,11.3c0.3,5.4-0.1,10.4-1.3,15.1H83v-14
		l0-0.1v-0.7l0.1-0.2c0.3-0.6,0.5-1.2,0.7-1.8l2.6-10.3l0.4-0.2c0.2-0.1,0.5-0.3,0.7-0.4l0.2-0.1l0.3-0.8l0.1,0.6l0.5-0.3l0.4,1.2
		c0.8,2.8,1.4,5.3,1.8,7.6L89.6,131.9"/>
	<path d="M83,173.7h-4.9c-0.1,0.2-0.1,0.5-0.2,0.7c1.1,0.2,2.1,0.3,2.9,0.3c0.8,0,1.6-0.1,2.1-0.3V173.7 M87.8,145.8l-0.2,0.1
		c-0.2,0.1-0.5,0.3-0.7,0.4l-0.4,0.2l-2.6,10.3c-0.2,0.6-0.4,1.2-0.7,1.8l-0.1,0.2v0.7L87.8,145.8 M88.7,145.3l-0.5,0.3l0.9,4.7
		c0.1,0.2,0.1,0.5,0.2,0.7l1.9,7.6l-0.3-4.5c-0.4-2.3-1-4.8-1.8-7.6L88.7,145.3"/>
	<path class="st9" d="M76.4,116.4h-0.8v0.5c0,2.1-2.9,3.6-6.9,3.6h-3c-5.5,0-8.6-1.4-9-4.1H54c-0.3,0.1-0.6,0.1-0.9,0.2
		c0.8,3,3.3,6,8.1,7c2,0.4,3.9,0.7,5.8,0.7c2.7,0,5.6-0.5,8.9-1.8C81.3,120.6,80.6,118.1,76.4,116.4"/>
	<path d="M75.5,116.2v0.3h0.8C76.1,116.3,75.8,116.2,75.5,116.2 M56.6,116c-0.7,0.1-1.6,0.2-2.6,0.4h2.7
		C56.6,116.3,56.6,116.2,56.6,116"/>
	<path class="st10" d="M46.5,87.9c0,0,0-5.2,0-10.4c0,0,0.8-1.7,2.6-5l-5-2.4l5.4-1.2c0,0,0.7-1.9,2.2-5.8c1.6,2,2.4,3,2.4,3
		l7.6-3.6c-0.4,1.6-0.6,2.4-0.6,2.4l5.4-4.5c-0.5,2,3,4.5,3,4.5l8.8,0.2l-2,1.6l8.6,2.4l-2.2,1.6c3.5,2.9,5.3,4.4,5.2,4.4l-1.6,1.6
		c0.4,5.6-0.4,11.7-0.4,11.7h-36L46.5,87.9z"/>
	<path d="M86.1,88.9h-36l-3.7-0.5c-0.1,0-0.2-0.1-0.3-0.1c-0.2-0.2-0.2-0.2-0.1-10.8l0,0c0.1-0.4,0.6-1.3,2.4-4.8l-4.6-2.2
		c-0.2-0.1-0.3-0.3-0.3-0.5c0-0.2,0.2-0.4,0.4-0.4l5.2-1.1c0.2-0.7,0.8-2.2,2.1-5.5c0.1-0.2,0.2-0.3,0.4-0.3c0.2,0,0.4,0,0.5,0.2
		c1.2,1.4,1.8,2.2,2.2,2.7l7.3-3.4c0.2-0.1,0.4-0.1,0.5,0.1c0.1,0.1,0.2,0.3,0.2,0.5c-0.1,0.3-0.1,0.6-0.2,0.9l4.2-3.5
		c0.2-0.1,0.4-0.2,0.6,0c0.2,0.1,0.3,0.3,0.2,0.5c-0.2,0.9,0.8,2.4,2.7,3.9l8.7,0.2c0.2,0,0.4,0.1,0.5,0.3c0.1,0.2,0,0.4-0.2,0.6
		l-1.2,1l7.7,2.1c0.2,0.1,0.3,0.2,0.4,0.4c0,0.2,0,0.4-0.2,0.5l-1.7,1.2c5,4.2,5,4.2,4.9,4.5l-0.1,0.2L87,76.9
		c0.3,4.8-0.2,11.5-0.5,11.9C86.4,88.9,86.2,88.9,86.1,88.9z M47,87.5l3.2,0.4l35.5,0c0.2-1.4,0.7-6.5,0.3-11.2c0-0.1,0-0.3,0.1-0.4
		l1.2-1.2c-0.5-0.5-1.8-1.6-4.8-4c-0.1-0.1-0.2-0.2-0.2-0.4c0-0.2,0.1-0.3,0.2-0.4l1.4-1l-7.6-2.1C76.1,67.2,76,67,76,66.8
		c0-0.2,0-0.4,0.2-0.5l0.9-0.7l-7.5-0.2c-0.1,0-0.2,0-0.3-0.1c-1.1-0.9-2.8-2.3-3.1-3.8l-4.6,3.8c-0.1,0.2-0.2,0.2-0.4,0.2
		c-0.2,0-0.4-0.1-0.5-0.3c0-0.1,0-0.3,0-0.4c0-0.1,0.1-0.4,0.3-1.3l-6.7,3.2c-0.2,0.1-0.4,0-0.6-0.1l-0.1-0.1
		c-0.1-0.1-0.4-0.6-1.8-2.2c-1.5,3.8-1.8,4.7-1.9,4.9l0,0.1c-0.1,0.2-0.2,0.3-0.4,0.3l-4,0.9l3.7,1.8c0.1,0.1,0.2,0.2,0.3,0.3
		c0,0.1,0,0.3,0,0.4c-1.9,3.6-2.4,4.6-2.6,4.9C47,82.2,47,86.3,47,87.5z"/>
	<path class="st4" d="M52.4,88.4c-1.1-1-2.4-1.5-3.8-1.5c-1.5,0-2.8,0.5-3.9,1.5c-1,1-1.6,2.1-1.6,3.5s0.5,2.6,1.6,3.6
		c1.1,1,2.4,1.5,3.9,1.5c1.5,0,2.8-0.5,3.8-1.5c1.1-1,1.7-2.2,1.7-3.6S53.5,89.4,52.4,88.4z"/>
	<path d="M48.6,97.4c-1.6,0-3.1-0.5-4.3-1.6c-1.2-1.1-1.7-2.4-1.7-3.9c0-1.5,0.6-2.8,1.7-3.9c1.2-1.1,2.6-1.6,4.3-1.6
		c1.6,0,3,0.5,4.2,1.6c1.2,1.1,1.8,2.4,1.8,3.9c0,1.5-0.6,2.8-1.8,3.9C51.6,96.9,50.2,97.4,48.6,97.4z M48.6,87.4
		c-1.4,0-2.6,0.4-3.6,1.3c-0.9,0.9-1.4,1.9-1.4,3.1c0,1.2,0.5,2.3,1.4,3.2c1,0.9,2.2,1.3,3.6,1.3c1.4,0,2.5-0.4,3.5-1.3
		c1-0.9,1.5-2,1.5-3.2c0-1.2-0.5-2.3-1.5-3.1l0,0C51.1,87.9,50,87.4,48.6,87.4z"/>
	<path class="st5" d="M51,89.8c-0.7-0.6-1.5-0.9-2.4-0.9s-1.8,0.3-2.5,0.9c-0.7,0.6-1,1.3-1,2.1s0.3,1.5,1,2.1
		c0.7,0.6,1.5,0.9,2.5,0.9s1.8-0.3,2.4-0.9c0.7-0.6,1.1-1.3,1.1-2.1S51.7,90.4,51,89.8z"/>
	<path class="st4" d="M88.4,88.4c-1.1-1-2.4-1.5-3.8-1.5c-1.5,0-2.8,0.5-3.9,1.5c-1,1-1.6,2.1-1.6,3.5s0.5,2.6,1.6,3.6
		c1.1,1,2.4,1.5,3.9,1.5c1.5,0,2.8-0.5,3.8-1.5c1.1-1,1.7-2.2,1.7-3.6S89.5,89.4,88.4,88.4z"/>
	<path d="M84.6,97.4c-1.6,0-3.1-0.5-4.3-1.6c-1.2-1.1-1.7-2.4-1.7-3.9c0-1.5,0.6-2.8,1.7-3.9c1.2-1.1,2.6-1.6,4.3-1.6
		c1.6,0,3,0.5,4.2,1.6c1.2,1.1,1.8,2.4,1.8,3.9c0,1.5-0.6,2.8-1.8,3.9C87.6,96.9,86.2,97.4,84.6,97.4z M84.6,87.4
		c-1.4,0-2.6,0.4-3.6,1.3c-0.9,0.9-1.4,1.9-1.4,3.1c0,1.2,0.5,2.3,1.4,3.2c1,0.9,2.2,1.3,3.6,1.3c1.4,0,2.5-0.4,3.5-1.3
		c1-0.9,1.5-2,1.5-3.2c0-1.2-0.5-2.3-1.5-3.1l0,0C87.1,87.9,86,87.4,84.6,87.4z"/>
	<path class="st5" d="M87,89.8c-0.7-0.6-1.5-0.9-2.4-0.9s-1.8,0.3-2.5,0.9c-0.7,0.6-1,1.3-1,2.1s0.3,1.5,1,2.1
		c0.7,0.6,1.5,0.9,2.5,0.9s1.8-0.3,2.4-0.9c0.7-0.6,1.1-1.3,1.1-2.1S87.7,90.4,87,89.8z"/>
	<path class="st4" d="M60.9,112.6c-2.5,0-3.7-0.8-3.8-2.5v7.2c0,1.8,4.5,3.1,7,3.1h5c2.5,0,5.9-1.3,5.9-3.1v-7.2
		c-0.1,1.7-1.4,2.5-3.8,2.5H60.9"/>
	<path class="st5" d="M75,103.4c0-1.7-1.3-2.6-3.8-2.6H60.9c-2.5,0-3.8,0.9-3.8,2.6v9.8c0.1,1.6,1.4,2.5,3.8,2.5h10.3
		c2.5,0,3.7-0.8,3.8-2.5V103.4"/>
	<path d="M68.6,120.5h-3c-5.8,0-9-1.6-9-4.6V99.7c0-1.5,0.7-3.2,4.3-3.2h10.3c3.6,0,4.3,1.8,4.3,3.2v17.3
		C75.5,119,72.6,120.5,68.6,120.5 M60.9,97.4c-3,0-3.3,1.3-3.3,2.2v16.3c0,3.1,5,3.6,8,3.6h3c3.3,0,5.9-1.2,5.9-2.6V99.7
		c0-1-0.3-2.2-3.3-2.2H60.9"/>
	<path class="st11" d="M66.6,70.9c10.2,0,18.5,8.3,18.5,18.5v5c0,10.2-8.3,18.5-18.5,18.5c-10.2,0-18.5-8.3-18.5-18.5v-5
		C48.1,79.2,56.4,70.9,66.6,70.9"/>
	<path d="M66.6,112.9c-10.2,0-18.5-8.3-18.5-18.5v-5c0-10.2,8.3-18.5,18.5-18.5s18.5,8.3,18.5,18.5v5
		C85.1,104.6,76.8,112.9,66.6,112.9 M66.6,71.9c-9.6,0-17.5,7.9-17.5,17.5v5c0,9.6,7.9,17.5,17.5,17.5s17.5-7.9,17.5-17.5v-5
		C84.1,79.8,76.2,71.9,66.6,71.9"/>
	<path class="st12" d="M82.7,103.6c-1.6,2.8-4,5.2-6.8,6.8c1.8-0.8,3.5-2,5.1-3.6c0.8-0.8,1.5-1.6,2.1-2.5
		C83,104.1,82.8,103.9,82.7,103.6 M50.3,103.2c-0.1,0.1-0.1,0.2-0.2,0.3c0.7,1.2,1.6,2.3,2.7,3.4c0.3,0.3,0.6,0.6,0.9,0.8
		C52.3,106.4,51.2,104.9,50.3,103.2"/>
	<path class="st13" d="M82.6,103.6c-1.6,2.8-4,5.2-6.8,6.8c0,0,0,0,0.1,0C78.7,108.8,81,106.5,82.6,103.6
		C82.7,103.6,82.6,103.6,82.6,103.6 M50.3,103.2C50.3,103.2,50.3,103.2,50.3,103.2c0.9,1.7,2,3.2,3.4,4.5c0,0,0.1,0.1,0.1,0.1
		C52.4,106.5,51.2,104.9,50.3,103.2 M68.2,95.9h-3.6c-4.8,0-8.9,1.7-12.3,5c-0.4,0.5-0.9,0.9-1.3,1.4c2.9,5.7,8.8,9.6,15.6,9.6l0,0
		c6.6,0,12.4-3.7,15.4-9.2c-0.5-0.6-1-1.2-1.6-1.8C77,97.6,73,95.9,68.2,95.9"/>
	<path class="st14" d="M82,102.7c-3,5.5-8.8,9.2-15.4,9.2h2.1c2.6,0,4.9-0.5,7.1-1.5c2.8-1.6,5.2-4,6.8-6.8
		C82.4,103.3,82.2,103,82,102.7 M51,102.3c-0.2,0.3-0.5,0.6-0.7,0.9c0.9,1.7,2.1,3.3,3.5,4.6c3.2,2.8,6.9,4.1,11.3,4.1h1.5
		C59.8,111.9,53.9,108,51,102.3"/>
	<path class="st10" d="M65.9,78.9l1.2-7l9.6,6.3l1.4-2.9l1-0.3c-3.4-6.4-8.6-9-15.6-7.8l-11.4,1.9c1.3,4.1,1.9,6.2,1.8,6.2
		c2.3-1.5,3.5-2.3,3.5-2.3l0.6,0.6L65.9,78.9z"/>
	<path d="M66,79.4c-0.1,0-0.2,0-0.3-0.1L57.8,74c-0.2-0.2-0.3-0.5-0.1-0.7s0.5-0.3,0.7-0.1l7.3,4.9l1-6.2c0-0.2,0.1-0.3,0.3-0.4
		c0.2-0.1,0.3-0.1,0.5,0l9.1,6l1.2-2.4c0.1-0.1,0.2-0.2,0.3-0.3l1-0.3c0.3-0.1,0.5,0.1,0.6,0.3c0.1,0.3-0.1,0.5-0.3,0.6l-0.8,0.2
		l-1.3,2.7c-0.1,0.1-0.2,0.2-0.3,0.3c-0.1,0-0.3,0-0.4-0.1l-8.9-5.9l-1,6.2c0,0.2-0.1,0.3-0.3,0.4L66,79.4z"/>
	<path d="M66.8,102.4c-2.3,0-4.6-0.7-6.9-2.1c-0.2-0.1-0.3-0.4-0.2-0.7c0.1-0.2,0.4-0.3,0.7-0.2c4.4,2.6,8.5,2.6,12.5,0
		c0.2-0.1,0.5-0.1,0.7,0.1c0.1,0.2,0.1,0.5-0.1,0.7C71.2,101.8,69,102.4,66.8,102.4z"/>
	<path d="M69,96.4h-4c-0.1,0-0.3-0.1-0.4-0.2c-0.1-0.1-0.1-0.3-0.1-0.4l1-6.5c0-0.3,0.3-0.5,0.6-0.4c0.3,0,0.5,0.3,0.4,0.6l-0.9,5.9
		H69c0.3,0,0.5,0.2,0.5,0.5S69.3,96.4,69,96.4z"/>
	<path class="st15" d="M58.8,90.6c0.2-0.2,0.3-0.4,0.3-0.7c0-0.3-0.1-0.5-0.3-0.7s-0.4-0.3-0.7-0.3s-0.6,0.1-0.8,0.3
		c-0.1,0.2-0.2,0.4-0.2,0.7c0,0.3,0.1,0.5,0.2,0.7c0.2,0.2,0.5,0.3,0.8,0.3S58.6,90.8,58.8,90.6z"/>
	<path class="st15" d="M75.8,90.6c0.2-0.2,0.3-0.4,0.3-0.7c0-0.3-0.1-0.5-0.3-0.7c-0.2-0.2-0.4-0.3-0.7-0.3s-0.6,0.1-0.8,0.3
		c-0.1,0.2-0.2,0.4-0.2,0.7c0,0.3,0.1,0.5,0.2,0.7c0.2,0.2,0.5,0.3,0.8,0.3S75.6,90.8,75.8,90.6z"/>
</g>
</svg>
