<?xml version="1.0" encoding="utf-8"?>
<!-- Generator: Adobe Illustrator 22.0.1, SVG Export Plug-In . SVG Version: 6.00 Build 0)  -->
<!DOCTYPE svg PUBLIC "-//W3C//DTD SVG 1.1//EN" "http://www.w3.org/Graphics/SVG/1.1/DTD/svg11.dtd">
<svg version="1.1" id="Layer_1" xmlns="http://www.w3.org/2000/svg" xmlns:xlink="http://www.w3.org/1999/xlink" x="0px" y="0px"
	 viewBox="0 0 130 270" style="enable-background:new 0 0 130 270;" xml:space="preserve">
<style type="text/css">
	.st0{fill:#0070D2;}
	.st1{fill:#FFFFFF;}
	.st2{fill:#27E300;}
	.st3{fill:#51889C;}
	.st4{fill:#236B86;}
	.st5{fill:#EAAF75;}
	.st6{fill:#FFCC99;}
	.st7{fill:#0B4935;}
	.st8{fill:#0A3D2C;}
	.st9{fill:#31A7D1;}
	.st10{fill:#FFD5AC;}
	.st11{fill:#A77D27;}
	.st12{fill:#513600;}
</style>
<g>
	<path class="st0" d="M97.8,261.3c-1.6-1.2-4.5-2.5-8.6-3.8C92.9,258.8,95.8,260.1,97.8,261.3z M72.9,253.6c0,0.1,0,0.2,0,0.4
		c-1.8,3.9-2.1,6.8-0.9,8.7c0.7,0.7,1.7,1.3,3.2,1.8c12.1,2.6,19.7,3,22.7,1.2c0.9-0.3,1.2-1.3,1-2.9c-0.1-0.6-0.5-1.2-1.4-1.8
		c-2-1.1-4.8-2.3-8.5-3.6c-0.5-0.1-0.9-0.3-1.4-0.5C80.3,254.5,75.4,253.5,72.9,253.6z"/>
	<path class="st1" d="M87.5,256.8c-7.8-2.7-13-3.9-15.7-3.7c0,0.1,0,0.3,0,0.5c-1.9,5-2.2,8.6-0.9,10.9c0.7,0.9,1.1,1.5,2.7,2.1
		c11.6,2.8,21.3,4,25.1,2c1.1-0.4,2.3-2.2,2-4.2c-0.2-1-1.3-2.2-3.4-3.4c0.9,0.6,1.4,1.3,1.4,1.8c0.2,1.6-0.1,2.6-1,3
		c-3,1.9-10.6,1.5-22.6-1.2c-1.5-0.5-2.5-1.1-3.2-1.8c-1.2-1.9-0.9-4.8,0.9-8.8c0-0.1,0-0.3,0-0.4C75.3,253.5,80.2,254.5,87.5,256.8
		c0.2,0.1,0.4,0.1,0.6,0.2c0.3,0.1,0.5,0.2,0.8,0.2c4,1.3,6.8,2.5,8.4,3.7c-2-1.1-4.8-2.3-8.4-3.7C88.5,257.1,88,257,87.5,256.8z"/>
	<path d="M93,270c-5.6,0-13.1-1.5-19.4-3c-1.8-0.6-2.3-1.3-2.9-2.1l-0.1-0.2c-1.4-2.5-1.2-6.2,0.8-11.3V253c0-0.3,0.2-0.5,0.5-0.5
		c2.8-0.2,8,1,15.9,3.7l0,0l0,0c0.2,0.1,0.4,0.1,0.6,0.2c0.3,0.1,0.6,0.2,0.8,0.3c4,1.3,6.8,2.5,8.5,3.7c2.3,1.3,3.5,2.6,3.7,3.8
		c0.3,2.2-1,4.2-2.3,4.7C97.6,269.7,95.5,270,93,270z M72.3,253.5v0.2c-1.9,4.8-2.2,8.3-0.9,10.5l0.1,0.1c0.6,0.8,1,1.2,2.4,1.7
		c12.6,3.1,21.4,3.8,24.7,2c0.9-0.3,2-1.9,1.7-3.7c-0.1-0.3-0.3-0.8-1-1.5c0.2,1.7-0.2,2.8-1.3,3.3c-3.1,2-10.6,1.6-22.9-1.1
		c-1.6-0.5-2.7-1.2-3.5-1.9l-0.1-0.1c-1.3-2-1-5,0.8-9.2V253.5L72.3,253.5L72.3,253.5z M72.4,262.5c0.6,0.6,1.6,1.2,3,1.6
		c11.8,2.6,19.3,3,22.2,1.2c0.7-0.3,1-1.1,0.7-2.5c0-0.3-0.3-0.8-1.2-1.5c-2-1.1-4.8-2.3-8.3-3.6c-0.4-0.1-0.9-0.3-1.4-0.5
		c-6.8-2.1-11.5-3.2-14-3.2v0.1C71.7,258,71.4,260.7,72.4,262.5z"/>
	<path class="st2" d="M74.5,264l-1.8-0.9c1.7-3.2,4.7-5.4,8.9-6.5l0.5,1.9C78.5,259.4,76,261.2,74.5,264z"/>
	<path class="st2" d="M78.7,264.9l-1.8-0.9c1.3-2.6,4.1-4.4,8.4-5.5l0.5,1.9C82.1,261.4,79.7,262.9,78.7,264.9z"/>
	<path class="st2" d="M83.4,265.9l-1.8-0.9c1.3-2.6,4.1-4.4,8.4-5.5l0.5,1.9C86.8,262.4,84.5,263.9,83.4,265.9z"/>
	<path class="st0" d="M30.2,261.3c1.6-1.2,4.5-2.5,8.6-3.8C35.1,258.8,32.2,260.1,30.2,261.3z M55.1,253.6c0,0.1,0,0.2,0,0.4
		c1.8,3.9,2.1,6.8,0.9,8.7c-0.7,0.7-1.7,1.3-3.2,1.8c-12.1,2.6-19.7,3-22.7,1.2c-0.9-0.3-1.2-1.3-1-2.9c0.1-0.6,0.5-1.2,1.4-1.8
		c2-1.1,4.8-2.3,8.5-3.6c0.5-0.1,0.9-0.3,1.4-0.5C47.7,254.5,52.6,253.5,55.1,253.6z"/>
	<path class="st1" d="M40.5,256.8c7.8-2.7,13-3.9,15.7-3.7c0,0.1,0,0.3,0,0.5c1.9,5,2.2,8.6,0.9,10.9c-0.7,0.9-1.1,1.5-2.7,2.1
		c-11.6,2.8-21.3,4-25.1,2c-1.1-0.4-2.3-2.2-2-4.2c0.2-1,1.3-2.2,3.4-3.4c-0.9,0.6-1.4,1.3-1.4,1.8c-0.2,1.6,0.1,2.6,1,3
		c3,1.9,10.6,1.5,22.6-1.2c1.5-0.5,2.5-1.1,3.2-1.8c1.2-1.9,0.9-4.8-0.9-8.8c0-0.1,0-0.3,0-0.4C52.7,253.5,47.8,254.5,40.5,256.8
		c-0.2,0.1-0.4,0.1-0.6,0.2c-0.3,0.1-0.5,0.2-0.8,0.2c-4,1.3-6.8,2.5-8.4,3.7c2-1.1,4.8-2.3,8.4-3.7C39.5,257.1,40,257,40.5,256.8z"
		/>
	<path d="M35.1,270c-2.5,0-4.7-0.3-6.1-1.1c-1.3-0.5-2.6-2.5-2.3-4.7c0.2-1.2,1.4-2.4,3.7-3.8c1.7-1.2,4.5-2.4,8.5-3.7
		c0.2-0.1,0.5-0.2,0.8-0.3c0.2-0.1,0.4-0.1,0.6-0.2l0,0c7.9-2.7,13.1-3.9,15.9-3.7c0.3,0,0.5,0.2,0.5,0.5v0.4
		c2,5.1,2.3,8.8,0.8,11.2l-0.2,0.2c-0.6,0.8-1.1,1.5-2.8,2.1C48.2,268.5,40.7,270,35.1,270z M28.7,262.9c-0.7,0.6-0.9,1.1-1,1.5
		c-0.2,1.8,0.8,3.3,1.7,3.6c3.4,1.8,12.2,1.1,24.9-2c1.4-0.5,1.7-1,2.3-1.7l0.1-0.2c1.2-2.1,0.9-5.6-1-10.4v-0.2h-0.1l0,0v0.3
		c1.8,4.1,2.1,7.1,0.8,9.2l-0.1,0.1c-0.7,0.7-1.8,1.4-3.4,1.9c-12.3,2.8-19.9,3.1-23,1.1C28.9,265.7,28.5,264.6,28.7,262.9z
		 M30.9,261.3c-0.9,0.7-1.2,1.2-1.2,1.5c-0.2,1.4,0,2.2,0.7,2.4c3,1.9,10.5,1.5,22.3-1.2c1.3-0.4,2.3-1,2.9-1.6
		c1-1.7,0.7-4.5-0.9-8.3V254c-2.5,0-7.2,1.1-14,3.2c-0.5,0.2-1,0.4-1.4,0.5C35.7,259,32.9,260.2,30.9,261.3z"/>
	<path class="st2" d="M53.5,264c-1.5-2.8-4-4.6-7.7-5.5l0.5-1.9c4.2,1.1,7.2,3.3,8.9,6.5L53.5,264z"/>
	<path class="st2" d="M49.3,264.9c-1-2.1-3.4-3.6-7.1-4.5l0.5-1.9c4.2,1.1,7,2.9,8.3,5.5L49.3,264.9z"/>
	<path class="st2" d="M44.6,265.9c-1-2.1-3.4-3.6-7.1-4.5l0.5-1.9c4.2,1.1,7,2.9,8.3,5.5L44.6,265.9z"/>
	<polygon class="st3" points="86.6,159.5 42.5,159.5 42.5,256.5 58.1,256.5 58.1,179.3 69.7,179.3 69.7,256.5 86.6,256.5 	"/>
	<path class="st4" d="M82.4,160.1l0.6,96.8h3.9l0.6-96.8H82.4z M53.4,176.1c-0.6,54-0.4,81.1,0.6,81.4c0.2,0.1,1.9-0.1,5.1-0.6
		l-0.6-77h11.9v77h5.3l-1.1-80.8L53.4,176.1L53.4,176.1z M46.4,160.1l-3.9-0.6l0.6,97.4H46L46.4,160.1z"/>
	<path d="M86.6,257.4H69.9c-0.3,0-0.5-0.2-0.5-0.5v-77.2H59.3v77.2c0,0.3-0.2,0.5-0.5,0.5H42.5c-0.3,0-0.5-0.2-0.5-0.5v-97.4
		c0-0.3,0.2-0.5,0.5-0.5h25.6l0,0h6.2l0,0h12.3c0.3,0,0.5,0.2,0.5,0.5v12.1l0,0v85.3C87.1,257.1,86.9,257.4,86.6,257.4z M70.4,256.4
		H86V172l-3.1-0.3c-5.6-1.6-8.6-5.5-9.1-11.7h-5.3l-0.3,18.6l0,0h1.6c0.3,0,0.5,0.2,0.5,0.5v77.3H70.4z M54.8,256.4h3.5v-77.2
		c0-0.3,0.2-0.5,0.5-0.5h2.4l-0.3-1.8c-0.1-0.1-0.2-0.2-0.3-0.4L58.5,160h-4.6c-0.6,4.9-1.9,8.1-4,9.7c-1.3,1-2.9,1.3-4.7,1h-2.3
		v85.6h11.9V256.4z M62.1,178.6h5.1v-0.1l0.1-2.7l0.2-15.8h-8l2,15.6c0.1,0.1,0.2,0.2,0.3,0.4l0.4,2.5L62.1,178.6z M74.8,160
		c0.5,5.7,3.2,9.3,8.3,10.7L86,171v-11H74.8z M43,169.7h2.4c1.6,0.3,2.9,0,4-0.8c1.8-1.4,3-4.4,3.6-8.9H43V169.7z"/>
	<path class="st5" d="M103.1,176.1c0.1-0.6,0.1-1.1-0.1-1.5c0.3,1.3-0.2,0.7-1.3-1.6l-0.7,5.2l-2.6,2.6L96,193.2
		c0,0.1,0,0.2-0.1,0.2c0.5,0,0.9-0.1,1.3-0.3c0.5-0.3,0.8-0.7,0.9-1.2c0.1-0.1,0.2-0.3,0.2-0.4c0,0.2-0.1,0.3-0.2,0.4
		c0.5,0,1-0.1,1.5-0.4c0.4-0.3,0.7-0.8,0.8-1.4L103.1,176.1z"/>
	<path class="st6" d="M92.1,170.9l0.9-0.8c-0.5,0-1,0.2-1.4,0.4c-0.5,0.4-0.8,1-0.9,1.7l-0.2,1.2C90.6,172.5,91.2,171.6,92.1,170.9z
		 M99.9,168.5c-1.1-1.6-2.3-1.9-3.7-0.9l-3.4,2.6l-0.8,0.7c-0.8,0.6-1.2,1.3-1.4,2.1l-2.1,11.9c-0.2,0.6-0.1,1.2,0.2,1.7
		c0.4,0.4,0.8,0.7,1.4,0.8s1.1,0,1.5-0.3c0.4-0.4,0.7-0.8,0.8-1.4l1.4-7.6l1.2,2.7l-2.1,11.3c-0.1,0.6,0.1,1.1,0.4,1.5
		c0.2,0.6,0.6,0.9,1.2,1s1.1,0,1.6-0.5c0.4-0.3,0.6-0.6,0.7-1l0.1-0.2l2.1-11.5l2.1-2.4l0.6-4.8c0.9,2.1,1.3,2.6,1.1,1.5
		c0-0.4-0.2-0.8-0.5-1.3L99.9,168.5z"/>
	<path d="M94.9,195.1c-0.2,0-0.3,0-0.5,0c-0.7-0.1-1.3-0.6-1.6-1.2c-0.4-0.5-0.6-1.1-0.5-1.8l2.1-11.2l-0.5-1.1l-1.1,6
		c-0.2,0.7-0.5,1.3-1,1.7c-0.6,0.4-1.3,0.5-2,0.4s-1.3-0.5-1.7-1l-0.1-0.1c-0.3-0.6-0.4-1.3-0.2-2l2.1-11.9c0.2-1,0.8-1.8,1.6-2.4
		l0.8-0.7l3.4-2.6c1.1-0.8,2.7-1.2,4.4,1l0.1,0.1l2.5,5.7c0.3,0.4,0.4,0.9,0.5,1.3l0,0c0.2,0.5,0.1,0.9,0,1.4l-0.1,0.3l-2.3,13.5
		c-0.1,0.6-0.3,1.2-0.8,1.6c-0.4,0.3-0.7,0.4-1.1,0.5c-0.2,0.4-0.4,0.7-0.8,1s-0.8,0.5-1.3,0.5h-0.2c-0.1,0.2-0.3,0.3-0.4,0.4
		C96,194.9,95.5,195.1,94.9,195.1z M93.9,177.5c0.2,0,0.4,0.1,0.5,0.3l1.2,2.7c0,0.1,0.1,0.2,0,0.3l-2.1,11.3c-0.1,0.4,0,0.7,0.3,1
		l0.1,0.1c0.2,0.4,0.4,0.6,0.9,0.7c0.4,0.1,0.8,0,1.2-0.4c0.3-0.2,0.5-0.5,0.6-0.8v-0.1c0-0.2,0.1-0.4,0.3-0.4
		c0.3-0.1,0.5,0,0.7,0.3c0,0.1,0.1,0.2,0,0.4c0.1,0,0.2-0.1,0.3-0.2c0.3-0.2,0.4-0.5,0.5-0.8c0.1-0.2,0.2-0.4,0.5-0.4
		s0.6-0.1,0.8-0.3c0.2-0.2,0.4-0.5,0.4-1l2.4-13.9c0.1-0.3,0.1-0.5,0.1-0.7l-0.1-0.2c0-0.3-0.2-0.7-0.4-1.1l-2.5-5.7
		c-1.2-1.7-2.2-1.3-2.9-0.8l-3.4,2.6l-0.8,0.7c-0.7,0.5-1.1,1.2-1.3,1.9L89,185c-0.1,0.5-0.1,0.9,0.1,1.3c0.3,0.3,0.7,0.5,1.1,0.6
		s0.8,0,1.2-0.2c0.2-0.2,0.5-0.6,0.6-1.1l1.4-7.6C93.4,177.7,93.6,177.5,93.9,177.5L93.9,177.5z M96.6,193L96.6,193L96.6,193z
		 M96.6,192.7L96.6,192.7L96.6,192.7z"/>
	<path class="st7" d="M98.5,162l-4.4-0.2c-1.2,0-1.8,0.5-1.8,1.7l-0.2,4.4c0,1.2,0.5,1.8,1.7,1.8l4.4,0.2c1.2,0,1.8-0.5,1.8-1.7
		l0.2-4.4C100.3,162.7,99.7,162.1,98.5,162z"/>
	<path d="M98.3,170.4h-0.2l-4.4-0.2c-0.7,0-1.3-0.2-1.6-0.6c-0.4-0.4-0.5-1-0.5-1.7l0.2-4.4c0.1-1.5,0.9-2.2,2.3-2.2l4.4,0.2
		c0.7,0,1.3,0.2,1.6,0.6c0.4,0.4,0.5,1,0.5,1.7l-0.2,4.4C100.4,169.7,99.7,170.4,98.3,170.4z M94,162.3c-0.8,0-1.1,0.4-1.2,1.2
		l-0.2,4.4c0,0.4,0.1,0.8,0.3,1c0.2,0.2,0.5,0.3,0.9,0.3l4.4,0.2c0.9,0,1.3-0.3,1.3-1.2l0.2-4.4c0-0.4-0.1-0.8-0.3-1
		c-0.2-0.2-0.5-0.3-0.9-0.3l0,0l-4.4-0.2H94z"/>
	<path class="st7" d="M94.3,102.6c-1.8,0.2-3.4,0.9-4.5,2.3c-1.2,1.4-1.7,3.1-1.6,4.9l2.6,27c0.2,1.8,1,3.3,2.5,4.5
		c1.4,1.2,3.1,1.7,4.9,1.6c1.8-0.2,3.4-1,4.6-2.4c1.2-1.4,1.7-3,1.5-4.8l-2.6-27c-0.2-1.8-1-3.3-2.4-4.5
		C97.8,102.9,96.2,102.4,94.3,102.6z"/>
	<path d="M97.5,143.3c-1.7,0-3.2-0.6-4.6-1.7c-1.6-1.2-2.4-2.8-2.6-4.8l-2.6-27c-0.2-1.9,0.4-3.7,1.7-5.2c1.3-1.5,2.9-2.3,4.9-2.5
		s3.8,0.4,5.3,1.6c1.5,1.3,2.4,2.9,2.6,4.8l2.6,27c0.2,1.9-0.4,3.7-1.6,5.2c-1.3,1.5-3,2.4-4.9,2.6C98,143.3,97.8,143.3,97.5,143.3z
		 M95,103c-0.2,0-0.4,0-0.6,0c-1.7,0.2-3.1,0.9-4.2,2.2c-1.1,1.3-1.6,2.8-1.4,4.5l2.6,27c0.2,1.7,0.9,3,2.3,4.1
		c1.3,1.1,2.8,1.6,4.6,1.4c1.7-0.2,3.1-0.9,4.3-2.2c1.1-1.3,1.6-2.7,1.4-4.4l-2.6-27c-0.2-1.7-0.9-3-2.2-4.2
		C97.8,103.5,96.5,103,95,103z M94.3,102.6L94.3,102.6L94.3,102.6z"/>
	<path class="st7" d="M103.7,139.1c0.4,1.6,0.1,6.1-0.9,13.6l-0.4,3.9l-0.3,4.1c-0.1,1.4-0.7,2.6-1.9,3.5l-8.1-0.4v-0.1
		c-1-1.1-1.5-2.4-1.4-3.8l1.8-20.4"/>
	<path d="M100.4,164.8l-8.5-0.4l-0.1-0.2c-1.2-1.2-1.7-2.7-1.6-4.2l1.8-20.4l1,0.1L91.2,160c-0.1,1.3,0.3,2.4,1.2,3.4l7.7,0.4
		c1-0.8,1.5-1.8,1.5-3l0.3-4.1l0.4-4c1.1-7.4,1.4-12,1-13.4l1-0.3c0.5,1.6,0.2,6.2-0.9,13.8l-0.4,3.9l-0.3,4.1
		c-0.1,1.5-0.8,2.9-2,3.9L100.4,164.8z"/>
	<path class="st5" d="M26.3,177c-0.1-0.6-0.1-1.1,0.1-1.5c-0.3,1.3,0.2,0.7,1.3-1.6l0.7,5.2l2.6,2.6l2.4,12.4c0,0.1,0,0.2,0.1,0.2
		c-0.5,0-0.9-0.1-1.3-0.3c-0.5-0.3-0.8-0.7-0.9-1.2c-0.1-0.1-0.2-0.3-0.2-0.4c0,0.2,0.1,0.3,0.2,0.4c-0.5,0-1-0.1-1.5-0.4
		c-0.4-0.3-0.7-0.8-0.8-1.4L26.3,177z"/>
	<path class="st6" d="M37.3,171.8l-0.8-0.8c0.5,0,1,0.2,1.4,0.4c0.5,0.4,0.8,1,0.9,1.7l0.2,1.2C38.8,173.3,38.2,172.5,37.3,171.8z
		 M29.5,169.4c1.1-1.6,2.3-1.9,3.6-0.9l3.4,2.6l0.8,0.7c0.8,0.6,1.2,1.3,1.4,2.1l2.1,11.9c0.2,0.6,0.1,1.2-0.2,1.7
		c-0.4,0.4-0.8,0.7-1.4,0.8c-0.6,0.1-1.1,0-1.5-0.3c-0.4-0.4-0.7-0.8-0.8-1.4l-1.4-7.6l-1.2,2.7l2.1,11.3c0.1,0.6-0.1,1.1-0.4,1.5
		c-0.2,0.6-0.6,0.9-1.2,1c-0.6,0.1-1.1,0-1.6-0.5c-0.4-0.3-0.6-0.6-0.7-1l-0.1-0.2l-2.1-11.5l-2.1-2.4l-0.6-4.8
		c-0.9,2.1-1.3,2.6-1.1,1.5c0-0.4,0.2-0.8,0.5-1.3L29.5,169.4z"/>
	<path d="M34.5,195.9c-0.5,0-1.1-0.2-1.6-0.6c-0.2-0.1-0.3-0.3-0.4-0.4h-0.2c-0.5,0-0.9-0.2-1.3-0.4c-0.4-0.3-0.6-0.7-0.8-1.1
		c-0.4-0.1-0.7-0.2-1.1-0.5c-0.5-0.5-0.7-1-0.8-1.6l-2.4-13.8c-0.1-0.4-0.2-0.9,0-1.4l0,0c0.1-0.4,0.2-0.8,0.5-1.3l2.5-5.7L29,169
		c1.7-2.3,3.3-1.8,4.4-1.1l3.4,2.6l0.8,0.7c0.8,0.6,1.4,1.5,1.6,2.4l2.1,11.9c0.2,0.7,0.1,1.4-0.2,2l-0.1,0.1c-0.5,0.5-1,0.9-1.7,1
		s-1.3,0-1.9-0.3c-0.6-0.5-0.9-1-1.1-1.7l-1.1-6l-0.5,1.1l2.1,11.2c0.1,0.7-0.1,1.3-0.5,1.8c-0.3,0.7-0.8,1.1-1.6,1.2
		C34.8,195.9,34.6,195.9,34.5,195.9z M32.9,193.6L32.9,193.6c0.2,0.4,0.3,0.7,0.6,0.9c0.4,0.3,0.8,0.4,1.2,0.4
		c0.4-0.1,0.7-0.3,0.9-0.7l0.1-0.1c0.3-0.3,0.3-0.6,0.3-1.1l-2.1-11.3c0-0.1,0-0.2,0-0.3l1.2-2.7c0.1-0.2,0.3-0.3,0.5-0.3
		s0.4,0.2,0.4,0.4l1.4,7.6c0.1,0.5,0.3,0.9,0.7,1.1c0.3,0.2,0.7,0.2,1.2,0.2c0.4-0.1,0.8-0.3,1.1-0.6c0.2-0.4,0.2-0.8,0.1-1.3
		L38.3,174c-0.2-0.7-0.6-1.3-1.3-1.8l-0.8-0.7l-3.4-2.6c-0.7-0.5-1.7-0.9-2.9,0.8l-2.5,5.7c-0.3,0.5-0.4,0.8-0.4,1.2l-0.1,0.2
		c0,0.2,0,0.4,0.1,0.7l0.1,0.3l2.3,13.5c0.1,0.5,0.2,0.8,0.5,1c0.2,0.1,0.5,0.2,0.8,0.3c0.2,0,0.4,0.2,0.5,0.4
		c0.1,0.3,0.3,0.6,0.6,0.9c0.1,0.1,0.2,0.1,0.3,0.1c0-0.1,0-0.2,0-0.4c0.1-0.3,0.4-0.4,0.7-0.3C32.8,193.3,32.9,193.5,32.9,193.6z
		 M32.9,193.9L32.9,193.9L32.9,193.9z M32.8,193.5L32.8,193.5z"/>
	<path class="st7" d="M30.9,162.9l4.4-0.2c1.2,0,1.8,0.5,1.8,1.7l0.2,4.4c0,1.2-0.5,1.8-1.7,1.8l-4.4,0.2c-1.2,0-1.8-0.5-1.8-1.7
		l-0.2-4.4C29.2,163.6,29.7,163,30.9,162.9z"/>
	<path d="M31.1,171.3c-1.4,0-2.1-0.8-2.2-2.2l-0.2-4.4c0-0.7,0.1-1.3,0.5-1.7s0.9-0.6,1.6-0.6l4.4-0.2c1.4-0.1,2.3,0.7,2.3,2.2
		l0.2,4.4c0,0.7-0.1,1.3-0.5,1.7s-0.9,0.6-1.6,0.6L31.1,171.3L31.1,171.3z M35.4,163.2L35.4,163.2l-4.5,0.2l0,0
		c-0.4,0-0.8,0.1-0.9,0.3c-0.2,0.2-0.3,0.5-0.3,1l0.2,4.4c0,0.9,0.4,1.3,1.3,1.2l4.4-0.2c0.4,0,0.8-0.1,0.9-0.3
		c0.2-0.2,0.3-0.5,0.3-1l-0.2-4.4C36.6,163.6,36.2,163.2,35.4,163.2z M30.9,162.9L30.9,162.9L30.9,162.9z"/>
	<path class="st7" d="M35.1,103.5c1.8,0.2,3.4,0.9,4.5,2.3c1.2,1.4,1.7,3.1,1.6,4.9l-2.6,27c-0.2,1.8-1,3.3-2.5,4.5
		c-1.4,1.2-3.1,1.7-4.9,1.6c-1.8-0.2-3.4-1-4.6-2.4c-1.2-1.4-1.7-3-1.5-4.8l2.6-27c0.2-1.8,1-3.3,2.4-4.5
		C31.6,103.8,33.2,103.3,35.1,103.5z"/>
	<path d="M31.9,144.2c-0.2,0-0.5,0-0.7,0c-2-0.2-3.6-1-4.9-2.6c-1.3-1.5-1.8-3.2-1.6-5.2l2.6-27c0.2-1.9,1.1-3.6,2.6-4.8
		c1.6-1.2,3.4-1.8,5.3-1.6c2,0.2,3.6,1,4.9,2.5c1.3,1.5,1.9,3.3,1.7,5.2l-2.6,27c-0.2,1.9-1.1,3.6-2.6,4.8
		C35.1,143.6,33.6,144.2,31.9,144.2z M34.4,103.9c-1.5,0-2.8,0.5-4,1.4c-1.3,1.1-2.1,2.5-2.2,4.2l-2.6,27c-0.2,1.7,0.3,3.1,1.4,4.4
		c1.1,1.3,2.5,2.1,4.3,2.2c1.7,0.2,3.2-0.3,4.6-1.4c1.4-1.1,2.1-2.4,2.3-4.1l2.6-27c0.2-1.7-0.3-3.1-1.4-4.5c-1.1-1.3-2.5-2-4.2-2.2
		C34.8,103.9,34.6,103.9,34.4,103.9z"/>
	<path class="st7" d="M25.7,140c-0.4,1.6-0.1,6.1,0.9,13.6l0.4,3.9l0.3,4.1c0.1,1.4,0.7,2.6,1.9,3.5l8.1-0.4v-0.1
		c1-1.1,1.5-2.4,1.4-3.8l-1.8-20.4"/>
	<path d="M29,165.6l-0.1-0.1c-1.3-1-2-2.3-2-3.9l-0.3-4.1l-0.4-3.9c-1.1-7.6-1.4-12.2-0.9-13.8l1,0.3c-0.4,1.5-0.1,6,1,13.4l0.4,4
		l0.3,4.1c0.1,1.2,0.6,2.2,1.5,3.1l7.7-0.4c0.9-1,1.3-2.1,1.2-3.4l-1.8-20.4l1-0.1l1.8,20.4c0.1,1.6-0.5,3-1.6,4.2l-0.1,0.1
		l-0.2,0.1L29,165.6z"/>
	<path class="st7" d="M97.5,104l-4-2.3c-19.7-8.2-39-8.3-58-0.3c0,0-1.1,0.5-3.1,1.4c-3.3-1.3-2.6,5.3-2.3,5.6c3.6,4.8,5,7.8,5,8.1
		c0.5,3.5,1.6,6.9,3.1,9.9c1.7,3.4,2.4,6.2,2.2,8.5c-0.5,14,1.7,20.8,1.7,24.4h45c1.4-3.5,1.8-11.6,1.4-24v-0.4c0,0.1,0,0.3,0,0.4
		c0.2-0.3,1.1-2.3,2.6-6c1.9-4.7,3.1-8.9,3.6-12.8C94.7,116.3,97.3,104.9,97.5,104z"/>
	<path d="M87,160L87,160c-0.4-0.1-0.5-0.3-0.5-0.6l0.1-0.7c1-5.4,2.1-11.4,1.7-23.3c0-0.1,0-0.2,0.1-0.3c0.1-0.2,0.5-1.1,2.5-6
		c1.8-4.6,3-8.9,3.4-12.7c0-0.3,0.3-0.5,0.6-0.4c0.3,0,0.5,0.3,0.4,0.6c-0.5,3.9-1.6,8.3-3.5,13c-1.7,4.3-2.3,5.6-2.5,6
		c0.3,11.9-0.8,18-1.8,23.4l-0.1,0.7C87.4,159.8,87.2,160,87,160z M42.5,160c-0.3,0-0.5-0.2-0.5-0.5c-0.2-2.1-0.5-3.9-0.9-5.9
		c-0.8-4.3-1.7-9.2-1.3-18.8c0.2-2.2-0.6-5-2.4-8.2c-1.8-3.1-3-6.5-3.6-10.1c0-0.3,0.1-0.5,0.4-0.6c0.3,0,0.5,0.1,0.6,0.4
		c0.6,3.5,1.7,6.8,3.4,9.8c1.9,3.5,2.8,6.4,2.6,8.8c-0.4,9.4,0.5,14.3,1.3,18.5c0.4,2,0.7,3.9,0.9,6C43,159.7,42.8,160,42.5,160
		L42.5,160z M29.5,105c-0.2,0-0.3-0.1-0.4-0.3c-0.1-0.2,0-0.5,0.2-0.7c2.2-1.2,3-1.7,3.4-1.8c20.7-9.8,42.1-9.6,63.6,0.4
		c0.3,0.1,0.4,0.4,0.2,0.7c-0.1,0.3-0.4,0.4-0.7,0.2c-21.2-9.9-42.4-10-62.8-0.4h-0.1c-0.2,0.1-0.8,0.4-3.2,1.7L29.5,105z"/>
	<path class="st8" d="M65.5,120.5c-4-16.6-13.5-25-17-29.4c2.5-4.1,33.5-5.9,34-0.6C80,95.2,69,115.2,65.5,120.5z"/>
	<path d="M65.3,121.7l-0.3-1.1c-3.3-13.8-10.5-21.9-14.7-26.7c-0.9-1-1.6-1.8-2.2-2.5l-0.2-0.3l0.2-0.3c2.2-3.6,22.2-5.2,30.6-3.3
		c2.7,0.6,4.2,1.6,4.3,2.9v0.1l-0.1,0.1c-2.2,4.2-13.4,24.6-17,30L65.3,121.7z M49.1,91.1c0.5,0.6,1.2,1.4,1.9,2.2
		c4.2,4.8,11.2,12.6,14.7,26c4.1-6.5,14-24.6,16.3-28.8c-0.2-0.9-1.5-1.5-3.5-2C70.3,86.6,51.9,88.3,49.1,91.1z"/>
	<rect x="42.5" y="159.5" class="st7" width="45" height="5"/>
	<path d="M87.5,164.5h-45v-5h45V164.5z M43.5,163.5h43v-3h-43V163.5z"/>
	<path class="st9" d="M65.5,119c-1-5.7-4-12.2-9-19.5l1-3L77,99C72,108,68.2,114.7,65.5,119z"/>
	<path d="M66,164c-0.2,0-0.4-0.2-0.5-0.4c-0.7-3.7-0.8-6.9-0.5-9.7c0.5-3.8,1-11.9-0.5-15.2c-1-2.4-1-6.1,0-10.8l0.5-7.4
		c0-0.3,0.3-0.5,0.5-0.5c0.3,0,0.5,0.3,0.5,0.5l-0.5,7.5c-1,4.6-1,8,0,10.3c1.5,3.6,1.1,11.6,0.5,15.8c-0.3,2.6-0.2,5.7,0.5,9.3
		C66.5,163.7,66.4,163.9,66,164L66,164z"/>
	<path class="st6" d="M66.2,75.5L66.2,75.5c5.3,0,9.7,4.3,9.7,9.7V95c0,5.3-4.3,9.7-9.7,9.7c-5.3,0-9.7-4.3-9.7-9.7v-9.8
		C56.5,79.8,60.8,75.5,66.2,75.5z"/>
	<path d="M66.2,104.7c-5.3,0-9.7-4.3-9.7-9.7v-9.8c0-5.3,4.3-9.7,9.7-9.7c5.3,0,9.7,4.3,9.7,9.7V95
		C75.8,100.3,71.5,104.7,66.2,104.7z M66.2,76.5c-4.8,0-8.7,3.9-8.7,8.7V95c0,4.8,3.9,8.7,8.7,8.7s8.7-3.9,8.7-8.7v-9.8
		C74.8,80.4,70.9,76.5,66.2,76.5z"/>
	<path class="st5" d="M66.4,69.5L66.4,69.5c4.5,0,8.1,3.6,8.1,8.1v12.9c0,4.5-3.6,8.1-8.1,8.1s-8.1-3.6-8.1-8.1V77.6
		C58.2,73.1,61.9,69.5,66.4,69.5z"/>
	<path class="st6" d="M47.9,60.7c-3.3,0-6,2.6-6,5.9c0,3.2,2.7,5.9,6,5.9"/>
	<path d="M47.9,73c-3.6,0-6.5-2.9-6.5-6.4s2.9-6.4,6.5-6.4v1c-3,0-5.5,2.4-5.5,5.4s2.5,5.4,5.5,5.4V73z"/>
	<path class="st6" d="M84,60.7c3.3,0,6,2.6,6,5.9c0,3.2-2.7,5.9-6,5.9"/>
	<path d="M84,73v-1c3,0,5.5-2.4,5.5-5.4S87,61.2,84,61.2v-1c3.6,0,6.5,2.9,6.5,6.4S87.6,73,84,73z"/>
	<path class="st10" d="M65.8,38.5L65.8,38.5c10.9,0,19.8,8.9,19.8,19.8v16.3c0,10.9-8.9,19.8-19.8,19.8S46,85.5,46,74.6V58.3
		C45.9,47.4,54.8,38.5,65.8,38.5z"/>
	<path d="M65.8,94.9c-11.2,0-20.3-9.1-20.3-20.3V58.3c0-11.2,9.1-20.3,20.3-20.3s20.3,9.1,20.3,20.3v16.3
		C86.1,85.8,77,94.9,65.8,94.9z M65.8,39c-10.6,0-19.3,8.7-19.3,19.3v16.3c0,10.6,8.7,19.3,19.3,19.3c10.7,0,19.3-8.7,19.3-19.3
		V58.3C85.1,47.7,76.4,39,65.8,39z"/>
	<path class="st11" d="M82,46c-1.3-1.6-7,0.5-1,10.5S84,75,80,75c-2.7,0-4.5-1-5.5-3c-11.3,0-17,0.2-17,0.5C57.5,73,57,75,52,75
		s-6.2-14.5-2.5-18.5C52,53.8,52.1,50,50,45c-2.6,4-3.8,9.5-3.7,16.5c0,1.5-0.5,3.3-0.5,4.2v6.9c0,0.1,0,0.4,0,0.6
		c0,1,0.1,2.7,0.2,5.1c0,0.2,0,0.3,0.1,0.5c0.5,3.6,2.2,6.7,5,9.4c3.5,3.5,7.4,5.8,12.4,5.8h4c5,0,9.2-2.3,12.7-5.7
		c2.8-2.7,4.5-5.7,5.1-9.3c0-0.2,0-0.4,0-0.6c0.1-2,0.2-3.5,0.2-4.5c0-0.6,0-1,0-1.3v-6.9c0-1.3-0.1-2.9-0.3-4.7
		C85.2,53.7,84.1,48.7,82,46z"/>
	<path d="M65.8,94.9c-11.2,0-20.3-9.1-20.3-20.3V58.3c0-11.2,9.1-20.3,20.3-20.3s20.3,9.1,20.3,20.3v16.3
		C86.1,85.8,77,94.9,65.8,94.9z M65.8,39c-10.6,0-19.3,8.7-19.3,19.3v16.3c0,10.6,8.7,19.3,19.3,19.3c10.7,0,19.3-8.7,19.3-19.3
		V58.3C85.1,47.7,76.4,39,65.8,39z"/>
	<path class="st10" d="M61.5,76.5h10c1.7,0,3,1.3,3,3s-1.3,3-3,3h-10c-1.7,0-3-1.3-3-3S59.8,76.5,61.5,76.5z"/>
	<path class="st11" d="M59.5,70.5h6c1.1,0,2,0.9,2,2s-0.9,2-2,2h-6c-1.1,0-2-0.9-2-2S58.4,70.5,59.5,70.5z"/>
	<path class="st11" d="M67.5,70.5h5c1.1,0,2,0.9,2,2s-0.9,2-2,2h-5c-1.1,0-2-0.9-2-2S66.4,70.5,67.5,70.5z"/>
	<path class="st1" d="M57.5,74.5h18l-1.5,3c-0.7,1.3-2.1,2.2-3.6,2.2h-7.7c-1.5,0-2.9-0.8-3.6-2.2L57.5,74.5z"/>
	<path d="M70.4,79.7h-7.7c-1.5,0-2.9-0.8-3.6-2.2l-1.5-3h17.9l-1.5,3C73.3,78.9,71.9,79.7,70.4,79.7z M59.2,75.5l0.8,1.6
		c0.5,1,1.5,1.6,2.7,1.6h7.7c1.1,0,2.2-0.6,2.7-1.6l0.8-1.6H59.2z"/>
	<path class="st10" d="M61.5,68.5C61.5,71,66,73,66,73s4.5-2,4.5-4.5"/>
	<path d="M87.3,63.3H45.8c-0.3,0-0.5-0.2-0.5-0.5s0.2-0.5,0.5-0.5h41.5c0.3,0,0.5,0.2,0.5,0.5S87.6,63.3,87.3,63.3z"/>
	<path class="st10" d="M70.5,60.5h10c1.1,0,2,0.9,2,2v4c0,1.1-0.9,2-2,2h-10c-1.1,0-2-0.9-2-2v-4C68.5,61.4,69.4,60.5,70.5,60.5z"/>
	<path d="M80,68.5h-9c-1.4,0-2.5-1.1-2.5-2.5v-3c0-1.4,1.1-2.5,2.5-2.5h9c1.4,0,2.5,1.1,2.5,2.5v3C82.5,67.4,81.4,68.5,80,68.5z
		 M71,61.5c-0.8,0-1.5,0.7-1.5,1.5v3c0,0.8,0.7,1.5,1.5,1.5h9c0.8,0,1.5-0.7,1.5-1.5v-3c0-0.8-0.7-1.5-1.5-1.5H71z"/>
	<path class="st10" d="M51.5,60.5h10c1.1,0,2,0.9,2,2v4c0,1.1-0.9,2-2,2h-10c-1.1,0-2-0.9-2-2v-4C49.5,61.4,50.4,60.5,51.5,60.5z"/>
	<path d="M61,68.5h-9c-1.4,0-2.5-1.1-2.5-2.5v-3c0-1.4,1.1-2.5,2.5-2.5h9c1.4,0,2.5,1.1,2.5,2.5v3C63.5,67.4,62.4,68.5,61,68.5z
		 M52,61.5c-0.8,0-1.5,0.7-1.5,1.5v3c0,0.8,0.7,1.5,1.5,1.5h9c0.8,0,1.5-0.7,1.5-1.5v-3c0-0.8-0.7-1.5-1.5-1.5H52z"/>
	<path class="st12" d="M60.2,64.2c0.2-0.2,0.3-0.4,0.3-0.7s-0.1-0.5-0.3-0.7c-0.2-0.2-0.4-0.3-0.7-0.3s-0.5,0.1-0.7,0.3
		c-0.2,0.2-0.3,0.4-0.3,0.7s0.1,0.5,0.3,0.7c0.2,0.2,0.4,0.3,0.7,0.3S60,64.4,60.2,64.2z"/>
	<path class="st12" d="M73.2,64.2c0.2-0.2,0.3-0.4,0.3-0.7s-0.1-0.5-0.3-0.7c-0.2-0.2-0.4-0.3-0.7-0.3s-0.5,0.1-0.7,0.3
		c-0.2,0.2-0.3,0.4-0.3,0.7s0.1,0.5,0.3,0.7c0.2,0.2,0.4,0.3,0.7,0.3S73,64.4,73.2,64.2z"/>
</g>
</svg>
