<?xml version="1.0" encoding="utf-8"?>
<!-- Generator: Adobe Illustrator 22.0.1, SVG Export Plug-In . SVG Version: 6.00 Build 0)  -->
<!DOCTYPE svg PUBLIC "-//W3C//DTD SVG 1.1//EN" "http://www.w3.org/Graphics/SVG/1.1/DTD/svg11.dtd">
<svg version="1.1" id="Layer_1" xmlns="http://www.w3.org/2000/svg" xmlns:xlink="http://www.w3.org/1999/xlink" x="0px" y="0px"
	 viewBox="0 0 130 270" style="enable-background:new 0 0 130 270;" xml:space="preserve">
<style type="text/css">
	.st0{fill:#F7DAC7;}
	.st1{fill:#E0AC89;}
	.st2{fill:#FFCC99;}
	.st3{fill:#DDBBA5;}
	.st4{fill:#F9D2B7;}
	.st5{fill:#CBAC7C;}
	.st6{fill:#FAD2B5;}
	.st7{fill:#CFC6A6;}
	.st8{fill:#BD9662;}
	.st9{fill:#3A3111;}
	.st10{fill:#CAB086;}
	.st11{fill:#B0965A;}
	.st12{fill:#FFFFFF;}
	.st13{fill:#8B692A;}
	.st14{fill:#513600;}
</style>
<g>
	<path class="st0" d="M68.7,82c1.6,0,2.3-1.1,2.3-3.2v-7.7c0,1.9-0.8,2.9-2.3,2.9h-6.3c-1.5,0-2.3-1-2.3-3v7.8
		c0,2.1,0.8,3.2,2.3,3.2H68.7"/>
	<path class="st1" d="M68.7,56h-6.3c-1.6,0-2.3,1.1-2.3,3.2V71c0.1,2,0.8,3,2.3,3h6.3c1.5,0,2.3-1,2.3-2.9V59.2
		C71,57.1,70.2,56,68.7,56"/>
	<path d="M68.7,82.5h-6.3c-1.3,0-2.8-0.7-2.8-3.8V58.3c0-3.2,1.5-3.8,2.8-3.8h6.3c1.3,0,2.8,0.7,2.8,3.8v20.4
		C71.5,81.8,70,82.5,68.7,82.5 M62.3,55.5c-0.8,0-1.8,0.3-1.8,2.8v20.4c0,2.5,1,2.8,1.8,2.8h6.3c0.8,0,1.8-0.3,1.8-2.8V58.3
		c0-2.5-1-2.8-1.8-2.8H62.3"/>
	<polyline class="st2" points="52.7,60.9 52.4,59.9 54.1,59.4 54.4,60.3 52.7,60.9 	"/>
	<path class="st0" d="M79.6,42.5c-1,1-1.6,2.1-1.6,3.5c0,1.4,0.5,2.6,1.6,3.6c1.1,1,2.4,1.5,3.9,1.5c1.5,0,2.8-0.5,3.8-1.5
		c1.1-1,1.7-2.2,1.7-3.6c0-1.4-0.6-2.5-1.7-3.5c-1.1-1-2.4-1.5-3.8-1.5C82,41,80.7,41.5,79.6,42.5"/>
	<path d="M83.5,51.5c-1.6,0-3.1-0.5-4.3-1.6c-1.2-1.1-1.7-2.4-1.7-3.9c0-1.5,0.6-2.8,1.7-3.9l0,0c1.2-1,2.6-1.6,4.3-1.6
		c1.6,0,3,0.5,4.2,1.6c1.2,1.1,1.8,2.4,1.8,3.9c0,1.5-0.6,2.8-1.8,3.9C86.5,51,85.1,51.5,83.5,51.5 M79.9,42.8
		c-0.9,0.9-1.4,1.9-1.4,3.1c0,1.2,0.5,2.3,1.4,3.2c1,0.9,2.2,1.3,3.6,1.3c1.4,0,2.5-0.4,3.5-1.3c1-0.9,1.5-2,1.5-3.2
		c0-1.2-0.5-2.3-1.5-3.1c-1-0.9-2.1-1.3-3.5-1.3C82.1,41.5,80.9,41.9,79.9,42.8"/>
	<path class="st3" d="M81,43.9c-0.7,0.6-1,1.3-1,2.1s0.3,1.5,1,2.1c0.7,0.6,1.5,0.9,2.5,0.9c1,0,1.8-0.3,2.4-0.9
		c0.7-0.6,1.1-1.3,1.1-2.1s-0.4-1.5-1.1-2.1c-0.7-0.6-1.5-0.9-2.4-0.9C82.5,43,81.7,43.3,81,43.9"/>
	<path class="st0" d="M42.6,41.5c-1,1-1.6,2.1-1.6,3.5c0,1.4,0.5,2.6,1.6,3.6c1.1,1,2.4,1.5,3.9,1.5c1.5,0,2.8-0.5,3.8-1.5
		c1.1-1,1.7-2.2,1.7-3.6c0-1.4-0.6-2.5-1.7-3.5c-1.1-1-2.4-1.5-3.8-1.5C45,40,43.7,40.5,42.6,41.5"/>
	<path d="M46.5,50.5c-1.6,0-3.1-0.5-4.3-1.6c-1.2-1.1-1.7-2.4-1.7-3.9c0-1.5,0.6-2.8,1.7-3.9l0,0c1.2-1,2.6-1.6,4.3-1.6
		c1.6,0,3,0.5,4.2,1.6c1.2,1.1,1.8,2.4,1.8,3.9c0,1.5-0.6,2.8-1.8,3.9C49.5,50,48.1,50.5,46.5,50.5 M42.9,41.8
		c-0.9,0.9-1.4,1.9-1.4,3.1c0,1.2,0.5,2.3,1.4,3.2c1,0.9,2.2,1.3,3.6,1.3c1.4,0,2.5-0.4,3.5-1.3c1-0.9,1.5-2,1.5-3.2
		c0-1.2-0.5-2.3-1.5-3.1c-1-0.9-2.1-1.3-3.5-1.3C45.1,40.5,43.9,40.9,42.9,41.8"/>
	<path class="st1" d="M44,42.9c-0.7,0.6-1,1.3-1,2.1s0.3,1.5,1,2.1c0.7,0.6,1.5,0.9,2.5,0.9c1,0,1.8-0.3,2.4-0.9
		c0.7-0.6,1.1-1.3,1.1-2.1s-0.4-1.5-1.1-2.1c-0.7-0.6-1.5-0.9-2.4-0.9C45.5,42,44.7,42.3,44,42.9"/>
	<path class="st4" d="M62.3,22h5.8c8.3,0,15,6.7,15,15c0,0.5,0,0.9-0.1,1.4l-1.7,19C80.5,65.1,74.1,71,66.3,71H65
		c-7.5,0-13.8-5.5-14.8-12.9l-2.7-19c-1.2-8.2,4.5-15.8,12.7-17C60.9,22.1,61.6,22,62.3,22"/>
	<path d="M66.3,71H65c-7.4,0-13.8-5.5-14.8-12.9l-2.7-19c-1.2-8.2,4.5-15.8,12.7-17c0.7-0.1,1.4-0.2,2.1-0.2h5.8c8.3,0,15,6.7,15,15
		c0,0.5,0,0.9-0.1,1.4l-1.7,19C80.5,65.1,74.1,71,66.3,71 M62.3,23c-0.7,0-1.3,0-2,0.1c-7.6,1.1-13,8.2-11.9,15.8l2.7,19
		c1,6.9,6.9,12,13.9,12h1.3c7.3,0,13.3-5.5,13.9-12.7l1.7-19c0-0.4,0.1-0.9,0.1-1.3c0-7.7-6.3-14-14-14H62.3"/>
	<path class="st5" d="M67.4,49h-5.6c-1.6,0-3.2,0.5-4.5,1.4l-2,1.4c0.2,0,0.4,0,0.5,0.1c1.2,0.1,2.4,0.2,3.9,0.2
		c1.8,0,3.7-0.1,5.8-0.2c0.5,0,1,0,1.5,0c1.9,0,3.6,0.2,5.1,0.4c0.7-0.3,1.4-0.4,1.9-0.4c0.6,0,0.9,0.2,1,0.8l0,0
		c-0.1-0.5-0.3-1-0.8-1.2l-1.6-1C71,49.5,69.2,49,67.4,49"/>
	<path class="st6" d="M63,42.4c0,2.8,0,6.8,0,6.8l4-0.2"/>
	<path d="M63,49.7l0-0.5l-0.5-0.1c0-0.3,0-4,0-6.7c0-0.3,0.2-0.5,0.5-0.5c0.3,0,0.5,0.2,0.5,0.5c0,3.7,0,5.4,0,6.3l3.5-0.1l0,0
		c0.3,0,0.5,0.2,0.5,0.5c0,0.3-0.2,0.5-0.5,0.5L63,49.7z"/>
	<path class="st7" d="M56.9,68.6c0.8,0.6,1.7,1.1,2.6,1.4V70C58.6,69.6,57.7,69.1,56.9,68.6 M49,50C49,50,48.9,50,49,50
		c0.1,1.7,0.4,4.1,0.7,7c0.3,2.4,1.1,4.7,2.4,6.6c-0.9-1.6-1.6-3.3-1.9-5.2c0-0.1,0-0.2-0.1-0.3L49,50"/>
	<path class="st8" d="M60.5,70.3v0.1c1.2,0.4,2.5,0.6,3.8,0.6h0.3c0.1,0,0.1,0,0.2,0C63.3,71,61.9,70.7,60.5,70.3"/>
	<path class="st9" d="M59.5,70v0.1c0.3,0.1,0.7,0.3,1,0.4v-0.1C60.2,70.2,59.8,70.1,59.5,70"/>
	<path class="st10" d="M48.6,47.4C48.6,47.4,48.6,47.4,48.6,47.4c0,0.4,0.1,1,0.2,1.6c0,0,0,0,0.1,0L48.6,47.4"/>
	<path class="st9" d="M48.9,49C48.8,49,48.8,49,48.9,49c0,0.3,0,0.7,0.1,1.1c0,0,0.1,0,0.1,0L48.9,49"/>
	<path class="st8" d="M48.5,46.5c0,0,0,0.3,0.1,0.9c0,0,0,0,0,0L48.5,46.5"/>
	<path class="st5" d="M56.6,68.4c0.1,0.1,0.2,0.2,0.3,0.2c0.8,0.5,1.7,1,2.6,1.3c0.3,0.1,0.7,0.2,1,0.4c1.4,0.4,2.8,0.7,4.3,0.7
		c0,0,0,0,0,0C61.8,71,58.9,70,56.6,68.4 M50.2,58.5c0.3,1.9,1,3.6,1.9,5.2c0.1,0.1,0.2,0.3,0.3,0.4C51.3,62.4,50.6,60.5,50.2,58.5
		 M81,49c-1,3-2.5,3.7-4.8,3.7c-0.4,0-0.8,0-1.2-0.1c0,0,0,0.1,0,0.1c0,0,0,0,0,0c0,0,0,0,0,0c0,0,0,0,0,0c0,0,0,0,0,0c0,0,0,0,0,0
		c0,0,0,0,0,0c0,0,0,0,0,0c0,0,0,0,0,0c0,0,0,0,0,0c0,0,0,0,0,0c0,0,0,0,0,0c0,0,0,0,0,0c0,0,0,0,0,0c0,0,0,0,0,0c0,0,0,0,0,0
		c0,0,0,0,0,0c0,0,0,0,0,0c0,0,0,0,0,0c0,0,0,0,0,0c0,0,0,0,0,0c0,0,0,0,0,0c0,0,0,0,0,0c0,0,0,0,0,0c0,0,0,0,0,0c0,0,0,0,0,0
		c0,0,0,0,0,0c0,0,0,0,0,0c0,0,0,0,0,0c0,0,0-0.1,0-0.1c-0.8-0.1-1.8-0.2-2.8-0.3c0,0-0.1,0-0.1,0c-2.7,1-6.6,3.5-7.1,3.5
		c0,0,0,0,0,0c-1,0-9-0.5-9-3.3c0-0.2-0.1-0.4-0.2-0.5c-2.6-0.3-4.6-1.1-5.9-2.6l1.2,8.6c1,6.9,6.9,12,13.9,12h1.3
		c7.3,0,13.3-5.5,13.9-12.7L81,49"/>
	<path class="st9" d="M48.5,46.5C48.5,46.5,48.5,46.5,48.5,46.5l0.1,0.9l0.2,1.6l0.1,1l1.2,8.1c0,0.1,0,0.2,0.1,0.3
		c0.3,2.1,1.1,4,2.2,5.6c0.7,1.1,1.6,2.1,2.6,2.9l1,0.8c0.2,0.2,0.4,0.4,0.6,0.5c2.4,1.6,5.2,2.6,8.2,2.6c2.8,0,5.6-0.8,8.1-2.3
		l1.6-1c3.4-2,5.6-5.6,6-9.5c0.7-7.5,1.1-11.2,1.1-11.2c0,0,0,0,0,0c-0.1,0.7-0.3,1.4-0.5,2l-0.8,8.3C79.6,64.5,73.6,70,66.3,70H65
		c-6.9,0-12.9-5.2-13.9-12l-1.2-8.6C49.3,48.7,48.8,47.7,48.5,46.5C48.5,46.5,48.5,46.5,48.5,46.5"/>
	<path class="st11" d="M75,52.8C75,52.8,75,52.8,75,52.8C75,52.8,75,52.8,75,52.8 M75,52.8C75,52.8,75,52.8,75,52.8
		C75,52.8,75,52.8,75,52.8 M75,52.8C75,52.8,75,52.8,75,52.8C75,52.8,75,52.8,75,52.8 M75,52.8C75,52.8,75,52.8,75,52.8
		C75,52.8,75,52.8,75,52.8 M75,52.8C75,52.8,75,52.8,75,52.8C75,52.8,75,52.8,75,52.8 M75,52.8C75,52.8,75,52.8,75,52.8
		C75,52.8,75,52.8,75,52.8 M75,52.8C75,52.8,75,52.8,75,52.8C75,52.8,75,52.8,75,52.8 M75,52.8C75,52.8,75,52.8,75,52.8
		C75,52.8,75,52.8,75,52.8 M75,52.8C75,52.8,75,52.8,75,52.8C75,52.8,75,52.8,75,52.8 M75,52.8C75,52.8,75,52.8,75,52.8
		C75,52.8,75,52.8,75,52.8 M75,52.8C75,52.8,75,52.8,75,52.8C75,52.8,75,52.8,75,52.8 M75,52.8C75,52.8,75,52.8,75,52.8
		C75,52.8,75,52.8,75,52.8 M75,52.8C75,52.8,75,52.8,75,52.8C75,52.8,75,52.8,75,52.8 M75,52.8C75,52.8,75,52.8,75,52.8
		C75,52.8,75,52.8,75,52.8 M75,52.6c0,0,0,0.1,0,0.1C75,52.7,75,52.7,75,52.6L75,52.6 M67,52c-0.5,0-1,0-1.5,0
		c-2.1,0.1-4.1,0.2-5.8,0.2c-1.4,0-2.7-0.1-3.9-0.2c0.1,0.1,0.2,0.3,0.2,0.5c0,2.8,7.9,3.3,9,3.3c0,0,0,0,0,0c0.6,0,4.4-2.4,7.1-3.5
		C70.6,52.1,68.9,52,67,52"/>
	<path class="st12" d="M56,52c0,4.4,4.3,8,9.5,8c5.2,0,9.5-3.6,9.5-8c-3.9,0-6.8,0-8.9,0C64,52,60.6,52,56,52z"/>
	<path d="M65.5,60c-5,0-9.1-3.3-9.5-7.5l0-0.5h19l0,0.5C74.6,56.7,70.5,60,65.5,60z M57.1,53c0.6,3.4,4.2,6,8.4,6
		c4.2,0,7.8-2.6,8.4-6H57.1z"/>
	<path class="st13" d="M75.5,27c-4.4,0.7-7.8,1-10.2,1c-3.6,0-6.6,0.4-8.8,0c-2.2-0.4-5.2,2.1-6.5,5s-1.6,8.3-1.7,13.8L47,45
		c0-7,0-14,0-21c4-8.5,23-14.5,30.5-1.5c4.8-2,7.1,5,6.5,7.5c0,4.3-1.1,10-0.5,15l-2,1.8c0-3.3,0.2-11-1.4-14.6
		C79,29.7,77.5,28,75.5,27z"/>
	<path d="M48.3,47.3c-0.2,0-0.3-0.1-0.4-0.2l-1.3-1.8c-0.1-0.1-0.1-0.2-0.1-0.3V24l0-0.2c2.4-5,9.5-9,16.6-9.3
		c6.3-0.3,11.5,2.4,14.6,7.4c1.5-0.5,2.9-0.2,4.1,0.8c2.2,1.8,3,5.6,2.7,7.4c0,1.6-0.2,3.4-0.3,5.3c-0.3,3.2-0.5,6.5-0.2,9.6
		c0,0.2,0,0.3-0.2,0.4l-2,1.8c-0.1,0.1-0.4,0.2-0.5,0.1C81.1,47.2,81,47,81,46.8l0-1c0-3.6,0-10.3-1.4-13.5c-1-2.3-2.4-3.9-4.2-4.8
		c-4.3,0.7-7.7,1-10.1,1c-1.3,0-2.5,0-3.6,0.1c-2,0.1-3.8,0.2-5.3-0.1c-1.9-0.4-4.7,1.8-6,4.7c-1.3,2.8-1.5,8.1-1.7,13.6
		c0,0.2-0.2,0.4-0.4,0.5L48.3,47.3z M75.5,26.5l0.2,0.1c2,1,3.7,2.9,4.8,5.4C82,35.3,82,42,82,45.7l1-0.9c-0.3-3.1-0.1-6.4,0.2-9.5
		c0.2-1.9,0.3-3.7,0.3-5.3l0-0.1c0.3-1.5-0.5-4.9-2.3-6.5c-1-0.9-2.2-1-3.5-0.5c-0.2,0.1-0.5,0-0.6-0.2c-3.9-6.7-10.3-7.4-13.9-7.3
		c-6.6,0.3-13.5,4.1-15.7,8.6v20.7l0.3,0.4c0.2-5.1,0.5-9.7,1.7-12.5c1.3-2.9,4.4-5.8,7.1-5.3c1.4,0.2,3.1,0.2,5.1,0.1
		c1.1,0,2.3-0.1,3.6-0.1C67.7,27.5,71.1,27.2,75.5,26.5L75.5,26.5z"/>
	<path d="M81.8,42.4H48.2c-0.3,0-0.5-0.2-0.5-0.5s0.2-0.5,0.5-0.5h33.5c0.3,0,0.5,0.2,0.5,0.5S82,42.4,81.8,42.4z"/>
	<ellipse class="st0" cx="57.5" cy="43" rx="4.5" ry="5"/>
	<path d="M57.5,48.5c-2.8,0-5-2.5-5-5.5s2.2-5.5,5-5.5s5,2.5,5,5.5S60.3,48.5,57.5,48.5z M57.5,38.5c-2.2,0-4,2-4,4.5s1.8,4.5,4,4.5
		s4-2,4-4.5S59.7,38.5,57.5,38.5z"/>
	<ellipse class="st0" cx="72.5" cy="43" rx="4.5" ry="5"/>
	<path d="M72.5,48.5c-2.8,0-5-2.5-5-5.5s2.2-5.5,5-5.5s5,2.5,5,5.5S75.3,48.5,72.5,48.5z M72.5,38.5c-2.2,0-4,2-4,4.5s1.8,4.5,4,4.5
		s4-2,4-4.5S74.7,38.5,72.5,38.5z"/>
	<path class="st14" d="M59.7,43.7c0.2-0.2,0.3-0.4,0.3-0.7s-0.1-0.5-0.3-0.7C59.5,42.1,59.3,42,59,42s-0.5,0.1-0.7,0.3
		C58.1,42.5,58,42.7,58,43s0.1,0.5,0.3,0.7c0.2,0.2,0.4,0.3,0.7,0.3S59.5,43.9,59.7,43.7z"/>
	<path class="st14" d="M71.7,43.7c0.2-0.2,0.3-0.4,0.3-0.7s-0.1-0.5-0.3-0.7C71.5,42.1,71.3,42,71,42s-0.5,0.1-0.7,0.3
		C70.1,42.5,70,42.7,70,43s0.1,0.5,0.3,0.7c0.2,0.2,0.4,0.3,0.7,0.3S71.5,43.9,71.7,43.7z"/>
</g>
</svg>
