<?xml version="1.0" encoding="utf-8"?>
<!-- Generator: Adobe Illustrator 22.0.1, SVG Export Plug-In . SVG Version: 6.00 Build 0)  -->
<!DOCTYPE svg PUBLIC "-//W3C//DTD SVG 1.1//EN" "http://www.w3.org/Graphics/SVG/1.1/DTD/svg11.dtd">
<svg version="1.1" id="Layer_1" xmlns="http://www.w3.org/2000/svg" xmlns:xlink="http://www.w3.org/1999/xlink" x="0px" y="0px"
	 viewBox="0 0 130 270" style="enable-background:new 0 0 130 270;" xml:space="preserve">
<style type="text/css">
	.st0{fill:#F7DAC7;}
	.st1{fill:#E0AC89;}
	.st2{fill:#FFCC99;}
	.st3{fill:#DDBBA5;}
	.st4{fill:#CAA486;}
	.st5{fill:#3A2411;}
	.st6{fill:#8B572A;}
	.st7{fill:#513600;}
</style>
<g>
	<path class="st0" d="M68.7,79c1.6,0,2.3-1.1,2.3-3.2v-7.7c0,1.9-0.8,2.9-2.3,2.9h-6.3c-1.5,0-2.3-1-2.3-3v7.8
		c0,2.1,0.8,3.2,2.3,3.2H68.7z"/>
	<path class="st1" d="M68.7,53h-6.3c-1.6,0-2.3,1.1-2.3,3.2V68c0.1,2,0.8,3,2.3,3h6.3c1.5,0,2.3-1,2.3-2.9V56.2
		C71,54.1,70.2,53,68.7,53"/>
	<path d="M68.7,79.5h-6.3c-1.3,0-2.8-0.7-2.8-3.8V55.3c0-3.2,1.5-3.8,2.8-3.8h6.3c1.3,0,2.8,0.7,2.8,3.8v20.4
		C71.5,78.8,70,79.5,68.7,79.5 M62.3,52.5c-0.8,0-1.8,0.3-1.8,2.8v20.4c0,2.5,1,2.8,1.8,2.8h6.3c0.8,0,1.8-0.3,1.8-2.8V55.3
		c0-2.5-1-2.8-1.8-2.8H62.3"/>
	<polyline class="st2" points="52.7,57.9 52.4,56.9 54.1,56.4 54.4,57.3 52.7,57.9 	"/>
	<path class="st0" d="M79.6,39.5c-1,1-1.6,2.1-1.6,3.5c0,1.4,0.5,2.6,1.6,3.6c1.1,1,2.4,1.5,3.9,1.5c1.5,0,2.8-0.5,3.8-1.5
		c1.1-1,1.7-2.2,1.7-3.6c0-1.4-0.6-2.5-1.7-3.5c-1.1-1-2.4-1.5-3.8-1.5C82,38,80.7,38.5,79.6,39.5"/>
	<path d="M83.5,48.5c-1.6,0-3.1-0.5-4.3-1.6c-1.2-1.1-1.7-2.4-1.7-3.9c0-1.5,0.6-2.8,1.7-3.9l0,0c1.2-1,2.6-1.6,4.3-1.6
		c1.6,0,3,0.5,4.2,1.6c1.2,1.1,1.8,2.4,1.8,3.9c0,1.5-0.6,2.8-1.8,3.9C86.5,48,85.1,48.5,83.5,48.5 M79.9,39.8
		c-0.9,0.9-1.4,1.9-1.4,3.1c0,1.2,0.5,2.3,1.4,3.2c1,0.9,2.2,1.3,3.6,1.3c1.4,0,2.5-0.4,3.5-1.3c1-0.9,1.5-2,1.5-3.2
		c0-1.2-0.5-2.3-1.5-3.1c-1-0.9-2.1-1.3-3.5-1.3C82.1,38.5,80.9,38.9,79.9,39.8"/>
	<path class="st3" d="M81,40.9c-0.7,0.6-1,1.3-1,2.1c0,0.8,0.3,1.5,1,2.1c0.7,0.6,1.5,0.9,2.5,0.9c1,0,1.8-0.3,2.4-0.9
		c0.7-0.6,1.1-1.3,1.1-2.1c0-0.8-0.4-1.5-1.1-2.1c-0.7-0.6-1.5-0.9-2.4-0.9C82.5,40,81.7,40.3,81,40.9"/>
	<path class="st0" d="M42.6,38.5c-1,1-1.6,2.1-1.6,3.5c0,1.4,0.5,2.6,1.6,3.6c1.1,1,2.4,1.5,3.9,1.5c1.5,0,2.8-0.5,3.8-1.5
		c1.1-1,1.7-2.2,1.7-3.6c0-1.4-0.6-2.5-1.7-3.5c-1.1-1-2.4-1.5-3.8-1.5C45,37,43.7,37.5,42.6,38.5"/>
	<path d="M46.5,47.5c-1.6,0-3.1-0.5-4.3-1.6c-1.2-1.1-1.7-2.4-1.7-3.9c0-1.5,0.6-2.8,1.7-3.9l0,0c1.2-1,2.6-1.6,4.3-1.6
		c1.6,0,3,0.5,4.2,1.6c1.2,1.1,1.8,2.4,1.8,3.9c0,1.5-0.6,2.8-1.8,3.9C49.5,47,48.1,47.5,46.5,47.5 M42.9,38.8
		c-0.9,0.9-1.4,1.9-1.4,3.1c0,1.2,0.5,2.3,1.4,3.2c1,0.9,2.2,1.3,3.6,1.3c1.4,0,2.5-0.4,3.5-1.3c1-0.9,1.5-2,1.5-3.2
		c0-1.2-0.5-2.3-1.5-3.1c-1-0.9-2.1-1.3-3.5-1.3C45.1,37.5,43.9,37.9,42.9,38.8"/>
	<path class="st1" d="M44,39.9c-0.7,0.6-1,1.3-1,2.1c0,0.8,0.3,1.5,1,2.1c0.7,0.6,1.5,0.9,2.5,0.9c1,0,1.8-0.3,2.4-0.9
		c0.7-0.6,1.1-1.3,1.1-2.1c0-0.8-0.4-1.5-1.1-2.1c-0.7-0.6-1.5-0.9-2.4-0.9C45.5,39,44.7,39.3,44,39.9"/>
	<path class="st0" d="M62.8,19h5c8.3,0,15,6.7,15,15v19c0,8.3-6.7,15-15,15h-5c-8.3,0-15-6.7-15-15V34C47.8,25.7,54.6,19,62.8,19"/>
	<path d="M67.3,68h-4c-8.5,0-15.5-7-15.5-15.5v-18c0-8.5,7-15.5,15.5-15.5h4c8.5,0,15.5,7,15.5,15.5v18C82.8,61,75.9,68,67.3,68
		 M63.3,20c-8,0-14.5,6.5-14.5,14.5v18c0,8,6.5,14.5,14.5,14.5h4c8,0,14.5-6.5,14.5-14.5v-18c0-8-6.5-14.5-14.5-14.5H63.3"/>
	<path class="st4" d="M48.8,43.2v9.3c0,0,0,0,0,0c0,0.2,0,0.4,0,0.6c0,0.3,0,0.5,0,0.8C49.6,61.2,55.8,67,63.3,67h4
		c8,0,14.5-6.5,14.5-14.5v-8.2c-0.6,2.8-2.8,3.7-5.4,3.7c-4.5,0-10.3-2.8-11.2-2.8c0,0,0,0,0,0c-0.4,0-1.9,0.6-3.7,1.1
		c-1.9,0.6-4.2,1.1-6.3,1.1C52.4,47.4,49.8,46.4,48.8,43.2"/>
	<path class="st5" d="M82,42.4c0,0.7-0.1,1.3-0.2,1.9v8.2c0,8-6.5,14.5-14.5,14.5h-4c-7.5,0-13.8-5.8-14.4-13.2
		c0.2,2.9,1.2,5.7,2.9,8l0.5,0.8c2.1,2.9,5.5,4.7,9.1,4.7h6.3c3.9,0,7.6-1.7,10.2-4.7l0.2-0.2C80.7,59.5,82,55.8,82,52
		C82,48.8,82,45.6,82,42.4 M48.5,41.1c0,0,0.1,3.8,0.4,11.4c0,0,0,0,0,0v-9.3C48.7,42.6,48.5,41.9,48.5,41.1
		C48.5,41.1,48.5,41.1,48.5,41.1"/>
	<path d="M65.5,53.5c-2.3,0-4.6-0.7-6.9-2.1c-0.2-0.1-0.3-0.4-0.2-0.7c0.1-0.2,0.4-0.3,0.7-0.2c4.4,2.6,8.5,2.6,12.5,0
		c0.2-0.1,0.5-0.1,0.7,0.1c0.1,0.2,0.1,0.5-0.1,0.7C70,52.8,67.8,53.5,65.5,53.5z"/>
	<path class="st0" d="M62,45L62,45c0,0.9,0.3,1.6,1,2.1s1.4,0.9,2.3,0.9h0.3c0.9,0,1.7-0.3,2.3-0.9c0.7-0.6,1-1.3,1-2.1v0"/>
	<path d="M65.7,48.5h-0.3c-1,0-1.9-0.3-2.7-1c-0.8-0.7-1.1-1.5-1.1-2.5l1,0v0c0,0.7,0.3,1.2,0.8,1.7c0.6,0.5,1.2,0.7,2,0.7h0.3
		c0.8,0,1.5-0.2,2-0.7c0.5-0.5,0.8-1,0.8-1.7l1,0c0,1-0.4,1.8-1.1,2.5C67.6,48.2,66.7,48.5,65.7,48.5z"/>
	<path class="st6" d="M72.8,23.5c-2.4,0.5-3.9,2-8.2,2s-5.4-1.6-7.6-2c-2.2-0.4-6.1,1.9-7.4,4.8s-1.2,10-1.3,15.5L46.1,37
		c0.2-6.3,0.7-10.4,1.5-12.4c1.2-2.9,8.2-9,17.1-9.1s15.1,5.9,17.3,9.3S83.9,33,84.4,38l-2.1,6.4c0-3.3-0.6-11.6-2.3-15.2
		C78.4,25.5,75.1,23,72.8,23.5z"/>
	<path d="M82.3,44.9L82.3,44.9c-0.3,0-0.5-0.3-0.5-0.5c0-3.4-0.7-11.6-2.2-15C78.1,26,75,23.5,72.9,24l0,0c-0.8,0.2-1.4,0.4-2.2,0.7
		c-1.5,0.6-3.2,1.3-6.1,1.3c-2.8,0-4.3-0.7-5.6-1.3c-0.7-0.3-1.3-0.6-2.1-0.7c-1.9-0.4-5.6,1.8-6.9,4.5c-1,2.3-1.1,7.5-1.2,12.1
		c0,1.1,0,2.2-0.1,3.2c0,0.2-0.2,0.4-0.4,0.5c-0.2,0-0.5-0.1-0.5-0.3l-2.2-6.8l0-0.2c0.2-6.4,0.7-10.5,1.5-12.5
		c1.3-3.1,8.6-9.3,17.5-9.4l0.2,0c10.9,0,16.9,8.6,17.6,9.6c1.8,2.7,2,6,2.2,9.6c0.1,1.2,0.2,2.5,0.3,3.7l0,0.2l-2.1,6.4
		C82.7,44.8,82.5,44.9,82.3,44.9z M73.4,22.9c2.5,0,5.5,2.5,7.1,6c1.3,2.9,2,8.6,2.2,12.6l1.2-3.6c-0.1-1.3-0.2-2.5-0.3-3.7
		c-0.2-3.6-0.5-6.6-2.1-9.1c-0.6-0.9-6.4-9.2-16.9-9.1c-8.5,0.1-15.4,5.8-16.6,8.7c-0.7,1.9-1.2,5.9-1.5,12.1l1.2,3.9l0-0.2
		c0.1-4.9,0.2-10,1.3-12.5c1.4-3,5.4-5.6,8-5.1c0.9,0.2,1.6,0.5,2.3,0.8c1.2,0.6,2.6,1.2,5.2,1.2c2.7,0,4.2-0.6,5.7-1.2
		c0.8-0.3,1.5-0.6,2.3-0.8C72.9,22.9,73.2,22.9,73.4,22.9z M72.8,23.5L72.8,23.5L72.8,23.5z"/>
	<path class="st7" d="M59.7,41.7c0.2-0.2,0.3-0.4,0.3-0.7s-0.1-0.5-0.3-0.7C59.5,40.1,59.3,40,59,40s-0.5,0.1-0.7,0.3
		C58.1,40.5,58,40.7,58,41s0.1,0.5,0.3,0.7c0.2,0.2,0.4,0.3,0.7,0.3S59.5,41.9,59.7,41.7z"/>
	<path class="st7" d="M71.7,41.7c0.2-0.2,0.3-0.4,0.3-0.7s-0.1-0.5-0.3-0.7C71.5,40.1,71.3,40,71,40s-0.5,0.1-0.7,0.3
		C70.1,40.5,70,40.7,70,41s0.1,0.5,0.3,0.7c0.2,0.2,0.4,0.3,0.7,0.3S71.5,41.9,71.7,41.7z"/>
</g>
</svg>
