<?xml version="1.0" encoding="utf-8"?>
<!-- Generator: Adobe Illustrator 22.0.1, SVG Export Plug-In . SVG Version: 6.00 Build 0)  -->
<!DOCTYPE svg PUBLIC "-//W3C//DTD SVG 1.1//EN" "http://www.w3.org/Graphics/SVG/1.1/DTD/svg11.dtd">
<svg version="1.1" id="Layer_1" xmlns="http://www.w3.org/2000/svg" xmlns:xlink="http://www.w3.org/1999/xlink" x="0px" y="0px"
	 viewBox="0 0 130 270" style="enable-background:new 0 0 130 270;" xml:space="preserve">
<style type="text/css">
	.st0{fill:#0088FF;}
	.st1{fill:#10C150;}
	.st2{fill:#E5C3DC;}
	.st3{fill:#AC851A;}
	.st4{fill:#FFCC99;}
	.st5{fill:#EAAF75;}
	.st6{fill:#D3D6DC;}
	.st7{fill:#B1B1B1;}
	.st8{fill:#FF98B3;}
	.st9{fill:#FFFFFF;}
	.st10{fill:#A6CDDB;}
	.st11{fill:#EFCC68;}
	.st12{fill:#B49D87;}
	.st13{fill:#695C50;}
	.st14{fill:#856D57;}
</style>
<title>Artboard Copy</title>
<desc>Created with Sketch.</desc>
<g>
	<path class="st0" d="M57.3,112.8h22.3c2.7,0,4.9,2.1,5,4.7c1,18.9,0.4,32.6-1.8,41.2c-10.5,0-20.1,0-29,0c-0.9-5.3-1.4-18.9-1.5-41
		C52.3,115.1,54.5,112.8,57.3,112.8L57.3,112.8z"/>
	<path d="M54.2,158.3v0.5c7.7,0,7.8,0,16.3,0c5.9,0,6,0,11.9,0h0.4l0.1-0.4c1.4-5.9,2.1-14.2,2.1-24.7c0-4.9-0.2-10.3-0.5-16.1
		c-0.1-2.7-2.3-4.7-5-4.7H57.3h0h0c-2.8,0-5,2.2-5,5l0,0c0.1,21.5,0.5,35,1.4,40.5l0.1,0.4h0.4V158.3l0.5-0.1
		c-0.9-5.4-1.3-19-1.4-40.4l0,0c0-2.2,1.8-4,4-4h0h22.3c2.1,0,3.9,1.7,4,3.8c0.3,5.9,0.5,11.2,0.5,16.1c0,10.5-0.7,18.7-2.1,24.5
		l0.5,0.1v-0.5c-5.9,0-6,0-11.9,0c-8.5,0-8.6,0-16.3,0V158.3l0.5-0.1L54.2,158.3z"/>
	<path class="st1" d="M55.3,114.3c4-1.5,23.5-1.5,27.5,0.5c1.5,4.5,1,15,1,27.5c-13.8,0-20.2,0-30,0
		C53.8,134.8,51.3,115.3,55.3,114.3z"/>
	<path class="st2" d="M59.3,200.8L59.3,200.8c2.2,0,4,1.8,4,4v46c0,2.2-1.8,4-4,4s-4-1.8-4-4v-46C55.3,202.6,57.1,200.8,59.3,200.8z
		"/>
	<path d="M59.3,201.3v0.5c1.7,0,3,1.3,3,3v46c0,1.7-1.3,3-3,3c-1.7,0-3-1.3-3-3v-46c0-1.7,1.3-3,3-3V201.3v-0.5c-2.2,0-4,1.8-4,4v46
		c0,2.2,1.8,4,4,4c2.2,0,4-1.8,4-4v-46c0-2.2-1.8-4-4-4V201.3z"/>
	<path class="st2" d="M78.3,200.8L78.3,200.8c2.2,0,4,1.8,4,4v46c0,2.2-1.8,4-4,4c-2.2,0-4-1.8-4-4v-46
		C74.3,202.6,76.1,200.8,78.3,200.8z"/>
	<path d="M78.3,201.3v0.5c1.7,0,3,1.3,3,3v46c0,1.7-1.3,3-3,3c-1.7,0-3-1.3-3-3v-46c0-1.7,1.3-3,3-3V201.3v-0.5c-2.2,0-4,1.8-4,4v46
		c0,2.2,1.8,4,4,4c2.2,0,4-1.8,4-4v-46c0-2.2-1.8-4-4-4V201.3z"/>
	<path class="st3" d="M65.1,110.8h14.2c0.9,0,1.7-0.1,2.5-0.3c0.9,0.8,2.1,1.3,3.5,1.3c2.7,0,5-2,5-4.4c2.3-0.8,4-2.8,4-5.1
		s-1.7-4.2-4-5.1V77.8c0-13.3-10.7-24-24-24c-13.3,0-24,10.7-24,24v9c-3.4,0.2-6,2.8-6,6c0,1.4,0.5,2.8,1.5,3.8
		c-2.1,1.6-3.5,4-3.5,6.7c0,4.7,4,8.5,9,8.5c2,0,3.9-0.6,5.4-1.7c1.1,0.4,2.3,0.7,3.6,0.7h3.2c1.1,1.2,2.8,2,4.8,2
		S64,112,65.1,110.8"/>
	<path d="M60.3,112.8c-1.9,0-3.7-0.7-4.8-2h-3.2c-1.3,0-2.5-0.2-3.6-0.7c-1.6,1.1-3.4,1.7-5.4,1.7c-5,0-9-3.8-9-8.5
		c0-2.6,1.3-5.1,3.5-6.7l0,0h0c-0.9-1.1-1.5-2.4-1.5-3.8c0-3.1,2.6-5.7,6-6v-9c0-13.2,10.8-24,24-24c13.2,0,24,10.8,24,24v19.4
		c2.4,0.9,4,2.9,4,5.1c0,2.2-1.6,4.2-4,5.1c0,2.4-2.3,4.4-5,4.4c-1.3,0-2.6-0.5-3.5-1.3c-0.8,0.2-1.7,0.3-2.5,0.3H65.1
		C63.9,112.1,62.2,112.8,60.3,112.8z M48.5,109l0.5,0.2c1,0.4,2.1,0.6,3.3,0.6h3.6l0.3,0.3c0.9,1,2.5,1.7,4.1,1.7s3.1-0.6,4.1-1.7h0
		l0.3-0.3h14.6c0.8,0,1.5-0.1,2.3-0.3l0.5-0.1l0.4,0.3c0.8,0.7,1.8,1,2.8,1c2.2,0,4-1.5,4-3.4l0-0.7l0.7-0.2c2-0.7,3.3-2.3,3.3-4.1
		S92,98.9,90,98.2l-0.7-0.2V77.8c0-12.7-10.3-23-23-23c-12.7,0-23,10.3-23,23v9.9l-0.9,0.1c-2.8,0.2-5.1,2.4-5.1,5
		c0,1.2,0.4,2.2,1.2,3.1l0.7,0.8l-0.9,0.6c-1.9,1.4-3.1,3.6-3.1,5.9c0,4.1,3.6,7.5,8,7.5c1.7,0,3.4-0.5,4.8-1.5L48.5,109z"/>
	<path class="st4" d="M65.4,108.7c-1.4,0-2.1-0.8-2.1-2.4v7.3c0,1.8-3.9,2.7-2.5,2.7h15c1.4,0-2.5-0.9-2.5-2.7v-7.3
		c-0.1,1.6-0.8,2.4-2.1,2.4H65.4z"/>
	<path class="st5" d="M71.2,94.8h-5.7c-1.4,0-2.1,0.9-2.1,2.6v9.9c0.1,1.6,0.8,2.4,2.1,2.4h5.7c1.4,0,2.1-0.8,2.1-2.4v-9.9
		C73.3,95.7,72.6,94.8,71.2,94.8"/>
	<path d="M75.3,116.3h-14c-0.2,0-0.7,0-0.8-0.4c-0.1-0.4,0.2-0.7,0.7-0.9c0.6-0.4,1.6-1,1.6-1.7V96.4c0-2.7,1.6-3.1,2.6-3.1h5.7
		c1,0,2.6,0.4,2.6,3.1v16.8c0,0.7,1,1.4,1.6,1.7c0.5,0.3,0.8,0.5,0.7,0.9C76,116.3,75.5,116.3,75.3,116.3 M62.4,115.3h11.7
		c-0.7-0.5-1.4-1.2-1.4-2.1V96.4c0-1.9-0.9-2.1-1.6-2.1h-5.7c-0.8,0-1.6,0.2-1.6,2.1v16.8C63.8,114.1,63.1,114.8,62.4,115.3"/>
	<path class="st4" d="M60.3,84.8c0-1.4-0.6-2.5-1.7-3.5c-1.1-1-2.4-1.5-3.8-1.5c-1.5,0-2.8,0.5-3.9,1.5c-1,1-1.6,2.1-1.6,3.5
		s0.5,2.6,1.6,3.6c1.1,1,2.4,1.5,3.9,1.5c1.5,0,2.8-0.5,3.8-1.5C59.7,87.3,60.3,86.1,60.3,84.8z"/>
	<path d="M54.8,90.3c-1.6,0-3.1-0.5-4.3-1.6c-1.2-1.1-1.7-2.4-1.7-3.9c0-1.5,0.6-2.8,1.7-3.9c1.2-1.1,2.6-1.6,4.3-1.6
		c1.6,0,3,0.5,4.2,1.6c1.2,1.1,1.8,2.4,1.8,3.9c0,1.5-0.6,2.8-1.8,3.9C57.8,89.8,56.4,90.3,54.8,90.3z M54.8,80.3
		c-1.4,0-2.6,0.4-3.6,1.3c-0.9,0.9-1.4,1.9-1.4,3.1c0,1.2,0.5,2.3,1.4,3.2c1,0.9,2.2,1.3,3.6,1.3c1.4,0,2.5-0.4,3.5-1.3
		c1-0.9,1.5-2,1.5-3.2c0-1.2-0.5-2.3-1.5-3.1C57.3,80.7,56.2,80.3,54.8,80.3z"/>
	<path class="st6" d="M51.8,94.8c1.4,0,2.5-0.8,2.5-1.7s-1.1-4.3-2.5-4.3s-2.5,3.3-2.5,4.3S50.4,94.8,51.8,94.8z"/>
	<path class="st7" d="M52.3,93.8c-0.6,0-1-0.4-1-1v-2c0-0.6,0.4-1,1-1s1,0.4,1,1v2C53.3,93.4,52.8,93.8,52.3,93.8z"/>
	<path class="st5" d="M51.3,84.8c0,0.8,0.3,1.5,1,2.1c0.7,0.6,1.5,0.9,2.5,0.9s1.8-0.3,2.4-0.9c0.7-0.6,1.1-1.3,1.1-2.1
		s-0.4-1.5-1.1-2.1c-0.7-0.6-1.5-0.9-2.4-0.9s-1.8,0.3-2.5,0.9C51.6,83.3,51.3,84,51.3,84.8z"/>
	<path class="st4" d="M76.3,84.8c0,1.4,0.5,2.6,1.6,3.6c1.1,1,2.4,1.5,3.9,1.5c1.5,0,2.8-0.5,3.8-1.5c1.1-1,1.7-2.2,1.7-3.6
		s-0.6-2.5-1.7-3.5c-1.1-1-2.4-1.5-3.8-1.5c-1.5,0-2.8,0.5-3.9,1.5C76.8,82.2,76.3,83.4,76.3,84.8z"/>
	<path class="st5" d="M78.3,84.8c0,0.8,0.3,1.5,1,2.1c0.7,0.6,1.5,0.9,2.5,0.9s1.8-0.3,2.4-0.9c0.7-0.6,1.1-1.3,1.1-2.1
		s-0.4-1.5-1.1-2.1c-0.7-0.6-1.5-0.9-2.4-0.9s-1.8,0.3-2.5,0.9C78.6,83.3,78.3,84,78.3,84.8z"/>
	<path d="M81.8,90.3c-1.6,0-3.1-0.5-4.3-1.6c-1.2-1.1-1.7-2.4-1.7-3.9c0-1.5,0.6-2.8,1.7-3.9c1.2-1.1,2.6-1.6,4.3-1.6
		c1.6,0,3,0.5,4.2,1.6c1.2,1.1,1.8,2.4,1.8,3.9c0,1.5-0.6,2.8-1.8,3.9C84.8,89.8,83.4,90.3,81.8,90.3z M81.8,80.3
		c-1.4,0-2.6,0.4-3.6,1.3c-0.9,0.9-1.4,1.9-1.4,3.1c0,1.2,0.5,2.3,1.4,3.2c1,0.9,2.2,1.3,3.6,1.3c1.4,0,2.5-0.4,3.5-1.3
		c1-0.9,1.5-2,1.5-3.2c0-1.2-0.5-2.3-1.5-3.1C84.3,80.7,83.2,80.3,81.8,80.3z"/>
	<path class="st6" d="M84.8,94.8c1.4,0,2.5-0.8,2.5-1.7s-1.1-4.3-2.5-4.3s-2.5,3.3-2.5,4.3S83.4,94.8,84.8,94.8z"/>
	<path class="st7" d="M85.3,93.8c-0.6,0-1-0.4-1-1v-2c0-0.6,0.4-1,1-1s1,0.4,1,1v2C86.3,93.4,85.8,93.8,85.3,93.8z"/>
	<path class="st4" d="M53.3,79.5v6.2c0,4.5,1.5,8.2,4.4,11.4c2.9,3.1,6.5,4.7,10.6,4.7c4.2,0,7.7-1.6,10.6-4.7s4.4-6.9,4.4-11.4V80
		c-1.7-0.4-2.2-3.1-1.5-7.9c1-7.3-4-9.9-6.5-8.4c0-4-14-1.5-13.5,6.9c0,6.4-2.4,7.3-7.5,8.9H53.3"/>
	<path d="M68.3,102.3c-4.3,0-8-1.6-11-4.9c-3-3.2-4.5-7.2-4.5-11.7V79h1.4c5-1.6,7.1-2.3,7.1-8.4c-0.2-2.9,1.3-5.5,4.1-7.3
		c3.1-1.9,7.2-2.6,9.2-1.5c0.5,0.3,0.8,0.6,1,1.1c1.1-0.4,2.5-0.2,3.7,0.6c2.3,1.5,3.4,4.7,2.9,8.6c-0.6,4.5-0.2,7,1.1,7.4l0.4,0.1
		v6.1c0,4.6-1.5,8.5-4.5,11.7C76.3,100.7,72.6,102.3,68.3,102.3z M53.8,80v5.7c0,4.3,1.4,8,4.3,11c2.8,3,6.3,4.5,10.2,4.5
		c4,0,7.4-1.5,10.2-4.5c2.8-3,4.2-6.7,4.2-11v-5.4c-1.7-0.8-2.2-3.5-1.5-8.3c0.5-3.4-0.4-6.3-2.4-7.6c-1.1-0.7-2.4-0.9-3.3-0.3
		l-0.8,0.4v-0.9c0-0.4-0.2-0.7-0.6-0.9c-1.5-0.8-5.2-0.4-8.2,1.4c-1.8,1.1-3.9,3.2-3.7,6.4c0,6.9-2.8,7.8-7.8,9.4l-0.2,0H53.8z"/>
	<path class="st8" d="M68.3,93.8c-1.1,0-2,0.3-2.9,0.8c-0.8,0.5-1.1,1.1-1.1,1.8c0,0.7,0.4,1.2,1.1,1.7c0.8,0.5,1.8,0.8,2.9,0.8
		s2-0.3,2.8-0.8c0.8-0.5,1.2-1,1.2-1.7c0-0.7-0.4-1.3-1.2-1.8C70.3,94.1,69.4,93.8,68.3,93.8"/>
	<path class="st9" d="M61,89.8c-1.5,0-2.5,1-1.1,2.1c2.4,2.6,4.3,3.9,5.7,3.9h5c1.2,0,3.1-1.3,5.7-3.8c1.3-1.2,0.2-2.2-1.4-2.2H61z"
		/>
	<path d="M70.6,96.3h-5c-1.5,0-3.5-1.3-6-4c-0.9-0.7-0.8-1.4-0.7-1.8c0.3-0.7,1.1-1.2,2.2-1.2h0h13.9h0c1.1,0,2.1,0.5,2.4,1.2
		c0.1,0.4,0.2,1.1-0.6,1.9C73.8,95,71.9,96.3,70.6,96.3z M61,90.3c-0.7,0-1.1,0.3-1.2,0.5c-0.1,0.2,0.1,0.5,0.4,0.7
		c2.9,3.1,4.5,3.8,5.3,3.8h5c0.7,0,2.2-0.6,5.4-3.7c0.2-0.1,0.5-0.5,0.4-0.8c-0.1-0.3-0.6-0.6-1.4-0.6h0H61L61,90.3z"/>
	<path d="M68.8,88.3c-0.8,0-1.5-0.2-2.1-0.7c-0.5-0.5-0.8-1.1-0.9-1.7c0-0.3,0.2-0.5,0.5-0.5c0.3,0,0.5,0.2,0.5,0.5
		c0,0.4,0.2,0.7,0.5,1c0.4,0.3,0.9,0.5,1.5,0.5c0.6,0,1-0.2,1.4-0.5c0.4-0.3,0.6-0.6,0.6-1c0-0.3,0.3-0.5,0.5-0.5
		c0.3,0,0.5,0.3,0.5,0.5c-0.1,0.7-0.4,1.3-0.9,1.7C70.3,88,69.6,88.3,68.8,88.3z"/>
	<path d="M60.6,80.1c-0.2,0.2-0.3,0.5-0.3,0.7s0.1,0.5,0.3,0.7c0.2,0.2,0.4,0.3,0.7,0.3s0.5-0.1,0.7-0.3c0.2-0.2,0.3-0.4,0.3-0.7
		s-0.1-0.5-0.3-0.7c-0.2-0.2-0.4-0.3-0.7-0.3S60.8,79.9,60.6,80.1z"/>
	<path d="M76,81.5c0.2-0.2,0.3-0.4,0.3-0.7s-0.1-0.5-0.3-0.7c-0.2-0.2-0.4-0.3-0.7-0.3s-0.5,0.1-0.7,0.3c-0.2,0.2-0.3,0.5-0.3,0.7
		s0.1,0.5,0.3,0.7c0.2,0.2,0.4,0.3,0.7,0.3S75.8,81.7,76,81.5z"/>
	<path class="st10" d="M57.3,163.1c-3.1,2.9-5,7-5,11.6v8.2h0.2l2.3,60.5h8.5l2.3-58.5c0-0.7,0-1.3-0.2-2h6.3l1.5,61h10l0.9-61h0.1
		v-8.2c0-4.6-1.9-8.7-5-11.6v-5.3h-22V163.1z"/>
	<path d="M57.3,163.1l-0.3-0.4c-3.2,3-5.2,7.3-5.2,12v8.2c0,0.1,0.1,0.3,0.1,0.4c0.1,0.1,0.2,0.1,0.4,0.1h0.2v-0.5l-0.5,0l2.3,60.5
		c0,0.3,0.2,0.5,0.5,0.5h8.5c0.3,0,0.5-0.2,0.5-0.5l2.3-58.5c0-0.1,0-0.2,0-0.4c0-0.6-0.1-1.2-0.2-1.7l-0.5,0.1v0.5h5.8l1.5,60.5
		c0,0.3,0.2,0.5,0.5,0.5h10c0.3,0,0.5-0.2,0.5-0.5l0.9-61l-0.5,0v0.5h0.1c0.1,0,0.3-0.1,0.4-0.1c0.1-0.1,0.1-0.2,0.1-0.4v-8.2
		c0-4.7-2-9-5.2-12l-0.3,0.4h0.5v-5.3c0-0.1-0.1-0.3-0.1-0.4c-0.1-0.1-0.2-0.1-0.4-0.1h-22c-0.1,0-0.3,0.1-0.4,0.1
		c-0.1,0.1-0.1,0.2-0.1,0.4v5.3H57.3l-0.3-0.4L57.3,163.1h0.5v-4.8h21v4.8c0,0.1,0.1,0.3,0.2,0.4c3,2.8,4.8,6.8,4.8,11.3v8.2h0.5
		v-0.5h-0.1c-0.3,0-0.5,0.2-0.5,0.5l-0.9,60.5h-9l-1.5-60.5c0-0.3-0.2-0.5-0.5-0.5h-6.3c-0.1,0-0.3,0.1-0.4,0.2
		c-0.1,0.1-0.1,0.3-0.1,0.4c0.1,0.5,0.1,1,0.1,1.6c0,0.1,0,0.2,0,0.3l-2.3,58h-7.5l-2.3-60c0-0.3-0.2-0.5-0.5-0.5h-0.2v0.5h0.5v-8.2
		c0-4.4,1.9-8.4,4.8-11.3c0.1-0.1,0.2-0.2,0.2-0.4H57.3z"/>
	<polyline points="67.3,183.8 66.8,157.3 65.8,157.3 66.3,183.8 	"/>
	<polyline points="70.2,183.9 73.3,157.8 72.4,157.7 69.2,183.7 	"/>
	<polyline points="57.3,163.4 80.3,163.4 80.3,162.4 57.3,162.4 	"/>
	<path d="M61.8,163.4c0,0.3,0,0.5,0,0.8c0,2.5-0.7,4.2-2.1,5.4c-1.4,1.2-3.5,1.8-6.4,1.8c-0.3,0-0.5,0.2-0.5,0.5
		c0,0.3,0.2,0.5,0.5,0.5c3.1,0,5.5-0.6,7.1-2c1.6-1.4,2.4-3.5,2.4-6.1c0-0.3,0-0.6,0-0.9c0-0.3-0.3-0.5-0.5-0.5
		C62,162.8,61.8,163.1,61.8,163.4L61.8,163.4z"/>
	<path d="M72.8,163.3c0,0.3,0,0.6,0,0.9c0,2.6,0.8,4.7,2.4,6.1c1.6,1.4,4,2,7.1,2c0.3,0,0.5-0.2,0.5-0.5c0-0.3-0.2-0.5-0.5-0.5
		c-2.9,0-5.1-0.6-6.4-1.8c-1.4-1.2-2.1-2.9-2.1-5.4c0-0.3,0-0.5,0-0.8c0-0.3-0.2-0.5-0.5-0.5S72.8,163,72.8,163.3L72.8,163.3z"/>
	<path class="st11" d="M61,266.1c3.5-1.8,5.2-6.1,3.8-9.8l-0.4-1.1c-1.4-3.7-5.1-4.7-8.3-2.4l-12,8.9c-3.2,2.3-2.9,5.8,0.5,7.6
		l-1.5-0.8c3.4,1.9,9.1,2,12.6,0.2L61,266.1z"/>
	<path d="M61,266.1l0.2,0.4c2.9-1.4,4.6-4.5,4.6-7.6c0-1-0.2-1.9-0.5-2.9l-0.4-1.1c-1-2.5-3-4-5.3-4c-1.3,0-2.6,0.4-3.8,1.3l-12,8.9
		c-1.6,1.2-2.4,2.7-2.4,4.2c0,1.7,1.1,3.3,3,4.3l0.5-0.9l-1.5-0.8l-0.5,0.9c1.9,1,4.4,1.5,6.8,1.5c2.2,0,4.5-0.4,6.2-1.3l0,0
		l5.3-2.6L61,266.1l-0.2-0.4l-5.3,2.6l0,0c-1.6,0.8-3.7,1.2-5.8,1.2c-2.3,0-4.6-0.5-6.3-1.4l-0.5,0.9l1.5,0.8l0.5-0.9
		c-1.7-0.9-2.5-2.2-2.5-3.4c0-1.1,0.6-2.3,2-3.3l12-8.9c1.1-0.8,2.1-1.1,3.2-1.1c1.8,0,3.5,1.1,4.3,3.3l0.4,1.1
		c0.3,0.8,0.5,1.7,0.5,2.5c0,2.7-1.5,5.4-4,6.7L61,266.1z"/>
	<path class="st12" d="M54.3,252.1l-10.2,7.6c-3.2,2.3-2.9,5.8,0.5,7.6l-1.5-0.8c3.4,1.9,9.1,2,12.6,0.2l5.3-2.6
		c3.5-1.8,5.2-6.1,3.8-9.8l-0.4-1.1l-0.1-0.3v-4.1h-10V252.1z"/>
	<path d="M54.3,252.1l-0.3-0.4l-10.2,7.6c-1.6,1.2-2.4,2.7-2.4,4.2c0,1.7,1.1,3.3,3,4.3l0.5-0.9l-1.5-0.8l-0.5,0.9
		c1.9,1,4.4,1.5,6.8,1.5c2.2,0,4.5-0.4,6.2-1.3l0,0l5.3-2.6c2.9-1.4,4.6-4.5,4.6-7.6c0-1-0.2-1.9-0.5-2.9l-0.4-1.1l-0.1-0.2v-4.5
		h-11v3.8H54.3l-0.3-0.4L54.3,252.1h0.5v-2.8h9v3.7l0.1,0.3l0.4,1.1c0.3,0.8,0.5,1.7,0.5,2.5c0,2.7-1.5,5.4-4,6.7l-5.3,2.6l0,0
		c-1.6,0.8-3.7,1.2-5.8,1.2c-2.3,0-4.6-0.5-6.3-1.4l-0.5,0.9l1.5,0.8l0.5-0.9c-1.7-0.9-2.5-2.2-2.5-3.4c0-1.1,0.6-2.3,2-3.3
		l10.4-7.7v-0.3H54.3z"/>
	<path class="st13" d="M55.8,249.9l1.3,5.3l-3.7-0.6l6.6-3.3c0.2-0.1,0.3-0.4,0.2-0.7c-0.1-0.2-0.4-0.3-0.7-0.2l-9.4,4.7l8.3,1.4
		l-1.7-6.7c-0.1-0.3-0.3-0.4-0.6-0.4C55.9,249.4,55.7,249.7,55.8,249.9L55.8,249.9z"/>
	<path class="st14" d="M62.3,262.7c-0.2-1-1-1.9-2.1-2.6c-1.2-0.7-2.7-1.3-4.8-1.8l-0.1,0.5l0.2,0.4c1.9-1.1,3.3-2.2,4.2-3.6
		c1-1.3,1.5-2.8,1.5-4.3c0-0.9-0.2-1.8-0.5-2.7l-0.2-0.5l-0.9,0.3l0.2,0.5c0.3,0.8,0.4,1.6,0.4,2.4c0,1.3-0.4,2.6-1.3,3.7
		c-0.9,1.2-2.2,2.3-3.9,3.3L54,259l1.2,0.3c2,0.5,3.5,1.1,4.5,1.7c1,0.6,1.5,1.3,1.6,1.9l0.1,0.5l1-0.2L62.3,262.7L62.3,262.7z"/>
	<path class="st11" d="M76.6,266.1c-3.5-1.8-5.2-6.1-3.8-9.8l0.4-1.1c1.4-3.7,5.1-4.7,8.3-2.4l12,8.9c3.2,2.3,2.9,5.8-0.5,7.6
		l1.5-0.8c-3.4,1.9-9.1,2-12.6,0.2L76.6,266.1z"/>
	<path d="M76.6,266.1l0.2-0.4c-2.5-1.2-4-3.9-4-6.7c0-0.9,0.1-1.7,0.5-2.5l0,0l0.4-1.1l0,0c0.9-2.2,2.5-3.3,4.3-3.3
		c1,0,2.1,0.4,3.2,1.1l12,8.9c1.4,1,2,2.2,2,3.3c0,1.2-0.8,2.5-2.5,3.4l0.5,0.9l1.5-0.8l-0.5-0.9c-1.7,0.9-4,1.4-6.3,1.4
		c-2.1,0-4.2-0.4-5.8-1.2l0,0l-5.3-2.6l0,0L76.6,266.1l-0.2,0.4l5.3,2.6l0,0c1.8,0.9,4,1.3,6.2,1.3c2.5,0,4.9-0.5,6.8-1.5l-0.5-0.9
		l-1.5,0.8l0.5,0.9c1.9-1,3-2.6,3-4.3c0-1.5-0.8-3-2.4-4.2l-12-8.9c-1.2-0.9-2.5-1.3-3.8-1.3c-2.3,0-4.3,1.4-5.3,4l0,0l-0.4,1.1l0,0
		c-0.4,0.9-0.5,1.9-0.5,2.9c0,3.1,1.7,6.1,4.6,7.6l0,0L76.6,266.1z"/>
	<path class="st12" d="M83.3,252.1l10.2,7.6c3.2,2.3,2.9,5.8-0.5,7.6l1.5-0.8c-3.4,1.9-9.1,2-12.6,0.2l-5.3-2.6
		c-3.5-1.8-5.2-6.1-3.8-9.8l0.4-1.1c0-0.1,0.1-0.2,0.1-0.4h0v-5h10V252.1z"/>
	<path d="M83.3,252.1l-0.3,0.4l10.2,7.6c1.4,1,2,2.2,2,3.3c0,1.2-0.8,2.5-2.5,3.4l0.5,0.9l1.5-0.8l-0.5-0.9c-1.7,0.9-4,1.4-6.3,1.4
		c-2.1,0-4.2-0.4-5.8-1.2l0,0l-5.3-2.6l0,0c-2.5-1.2-4-3.9-4-6.7c0-0.9,0.1-1.7,0.5-2.5l0,0l0.4-1.1l0,0c0-0.1,0.1-0.2,0.1-0.3
		l0.3-0.7h-0.3v-4h9v4.1l0.2,0.1L83.3,252.1h0.5v-4.8h-11v6h0.5v-0.5l-0.5-0.2c-0.1,0.1-0.1,0.3-0.2,0.4l0,0l-0.4,1.1l0,0
		c-0.4,0.9-0.5,1.9-0.5,2.9c0,3.1,1.7,6.1,4.6,7.6l5.3,2.6l0,0c1.8,0.9,4,1.3,6.2,1.3c2.5,0,4.9-0.5,6.8-1.5l-0.5-0.9l-1.5,0.8
		l0.5,0.9c1.9-1,3-2.6,3-4.3c0-1.5-0.8-3-2.4-4.2l-10.2-7.6L83.3,252.1h0.5H83.3z"/>
	<path class="st13" d="M81.8,248.7l-1.7,8.3l7.3-2l-8.9-6.1c-0.2-0.2-0.5-0.1-0.7,0.1c-0.2,0.2-0.1,0.5,0.1,0.7l7.1,4.9l-3.7,1
		l1.3-6.7c0.1-0.3-0.1-0.5-0.4-0.6C82.1,248.3,81.9,248.4,81.8,248.7L81.8,248.7z"/>
	<path class="st14" d="M77.3,263.3c0-0.8,0.4-1.5,1.3-2.2c0.9-0.7,2.4-1.3,4.3-1.8l1.2-0.3l-1.1-0.6c-1.7-1-2.9-2-3.7-3.2
		c-0.8-1.2-1.2-2.5-1.2-3.9c0-1,0.2-2.1,0.6-3.3l0.2-0.5l-0.9-0.3l-0.2,0.5c-0.5,1.3-0.7,2.5-0.7,3.6c0,1.6,0.5,3.1,1.4,4.5
		c0.9,1.3,2.3,2.5,4,3.5l0.2-0.4l-0.1-0.5c-2,0.5-3.6,1.1-4.7,2c-1.1,0.8-1.7,1.8-1.7,3v0.5h1V263.3L77.3,263.3z"/>
</g>
</svg>
