<?xml version="1.0" encoding="utf-8"?>
<!-- Generator: Adobe Illustrator 22.0.1, SVG Export Plug-In . SVG Version: 6.00 Build 0)  -->
<!DOCTYPE svg PUBLIC "-//W3C//DTD SVG 1.1//EN" "http://www.w3.org/Graphics/SVG/1.1/DTD/svg11.dtd">
<svg version="1.1" id="Layer_1" xmlns="http://www.w3.org/2000/svg" xmlns:xlink="http://www.w3.org/1999/xlink" x="0px" y="0px"
	 viewBox="0 0 130 270" style="enable-background:new 0 0 130 270;" xml:space="preserve">
<style type="text/css">
	.st0{fill:#F1B375;}
	.st1{fill:#C88E55;}
	.st2{fill:#FFCC99;}
	.st3{fill:#EAAF75;}
	.st4{fill:#433326;}
	.st5{fill:#FFFFFF;}
	.st6{fill:#513600;}
</style>
<g>
	<path class="st0" d="M69,95c2,0,3-1.1,3-3.2v-7.7C71.9,86,70.9,87,69,87H61c-1.9,0-2.9-1-3-3v7.8c0,2.1,1,3.2,3,3.2H69z"/>
	<path class="st1" d="M69,69H61c-2,0-3,1.1-3,3.2V84c0.1,2,1.1,3,3,3H69c1.9,0,2.9-1,3-2.9V72.2C72,70.1,71,69,69,69z"/>
	<path d="M69,95.5H61c-1.6,0-3.5-0.7-3.5-3.8V71.3c0-3.2,1.9-3.8,3.5-3.8H69c1.6,0,3.5,0.7,3.5,3.8v20.4
		C72.5,94.8,70.6,95.5,69,95.5z M61,68.5c-1.7,0-2.5,0.9-2.5,2.8v20.4c0,1.9,0.8,2.8,2.5,2.8H69c1.7,0,2.5-0.9,2.5-2.8V71.3
		c0-1.9-0.8-2.8-2.5-2.8H61z"/>
	<path class="st2" d="M83.5,55c-1.5,0-2.8,0.5-3.9,1.5c-1,1-1.6,2.1-1.6,3.5s0.5,2.6,1.6,3.6c1.1,1,2.4,1.5,3.9,1.5
		c1.5,0,2.8-0.5,3.8-1.5c1.1-1,1.7-2.2,1.7-3.6s-0.6-2.5-1.7-3.5C86.3,55.5,85,55,83.5,55z"/>
	<path d="M83.5,65.5c-1.6,0-3.1-0.5-4.3-1.6c-1.2-1.1-1.7-2.4-1.7-3.9c0-1.5,0.6-2.8,1.7-3.9c1.2-1.1,2.6-1.6,4.3-1.6
		c1.6,0,3,0.5,4.2,1.6c1.2,1.1,1.8,2.4,1.8,3.9c0,1.5-0.6,2.8-1.8,3.9C86.5,65,85.1,65.5,83.5,65.5z M83.5,55.5
		c-1.4,0-2.6,0.4-3.6,1.3c-0.9,0.9-1.4,1.9-1.4,3.1c0,1.2,0.5,2.3,1.4,3.2c1,0.9,2.2,1.3,3.6,1.3c1.4,0,2.5-0.4,3.5-1.3
		c1-0.9,1.5-2,1.5-3.2c0-1.2-0.5-2.3-1.5-3.1C86,55.9,84.9,55.5,83.5,55.5z"/>
	<path class="st3" d="M81,57.9c-0.7,0.6-1,1.3-1,2.1s0.3,1.5,1,2.1c0.7,0.6,1.5,0.9,2.5,0.9s1.8-0.3,2.4-0.9
		c0.7-0.6,1.1-1.3,1.1-2.1s-0.4-1.5-1.1-2.1c-0.7-0.6-1.5-0.9-2.4-0.9S81.7,57.3,81,57.9z"/>
	<path class="st2" d="M46.5,55c-1.5,0-2.8,0.5-3.9,1.5c-1,1-1.6,2.1-1.6,3.5s0.5,2.6,1.6,3.6c1.1,1,2.4,1.5,3.9,1.5
		c1.5,0,2.8-0.5,3.8-1.5c1.1-1,1.7-2.2,1.7-3.6s-0.6-2.5-1.7-3.5C49.3,55.5,48,55,46.5,55z"/>
	<path d="M46.5,65.5c-1.6,0-3.1-0.5-4.3-1.6c-1.2-1.1-1.7-2.4-1.7-3.9c0-1.5,0.6-2.8,1.7-3.9c1.2-1.1,2.6-1.6,4.3-1.6
		c1.6,0,3,0.5,4.2,1.6c1.2,1.1,1.8,2.4,1.8,3.9c0,1.5-0.6,2.8-1.8,3.9C49.5,65,48.1,65.5,46.5,65.5z M46.5,55.5
		c-1.4,0-2.6,0.4-3.6,1.3c-0.9,0.9-1.4,1.9-1.4,3.1c0,1.2,0.5,2.3,1.4,3.2c1,0.9,2.2,1.3,3.6,1.3c1.4,0,2.5-0.4,3.5-1.3
		c1-0.9,1.5-2,1.5-3.2c0-1.2-0.5-2.3-1.5-3.1C49,55.9,47.9,55.5,46.5,55.5z"/>
	<path class="st3" d="M44,57.9c-0.7,0.6-1,1.3-1,2.1s0.3,1.5,1,2.1c0.7,0.6,1.5,0.9,2.5,0.9s1.8-0.3,2.4-0.9
		c0.7-0.6,1.1-1.3,1.1-2.1s-0.4-1.5-1.1-2.1c-0.7-0.6-1.5-0.9-2.4-0.9S44.7,57.3,44,57.9z"/>
	<path d="M46,67.5c-0.3,0-0.5-0.2-0.5-0.5v-3c0-0.3,0.2-0.5,0.5-0.5s0.5,0.2,0.5,0.5v3C46.5,67.3,46.3,67.5,46,67.5z"/>
	<path class="st0" d="M64.6,27.1h1.1c9,0,16.4,8,16.4,17.8v21.3c0,9.8-7.3,17.8-16.4,17.8h-1.1c-9,0-16.4-8-16.4-17.8
		c0-6.1,0-10.8,0-13.8c0-1.7,0-4.2,0-7.5C48.2,35,55.6,27.1,64.6,27.1z"/>
	<path d="M65.7,83.9h-1.1c-9,0-16.4-8-16.4-17.8V44.9c0-9.8,7.3-17.8,16.4-17.8h1.1c9,0,16.4,8,16.4,17.8v21.3
		C82.1,76,74.7,83.9,65.7,83.9z M64.6,28.1c-8.5,0-15.4,7.5-15.4,16.8v21.3c0,9.2,6.9,16.8,15.4,16.8h1.1c8.5,0,15.4-7.5,15.4-16.8
		V44.9c0-9.2-6.9-16.8-15.4-16.8H64.6z"/>
	<path class="st4" d="M77.2,36.4c-4.4,0-8.2,0.9-11.5,2.8c-3.1-1.8-6.7-2.8-10.9-2.8c-6.3,0-5.2,19-5.8,25.1l-2.9-6.9
		c-0.4-11.1,0.2-18.1,1.6-21c10.3-10.4,30.8-8.1,32.3,0c2.5,0.4,4,0.9,4.3,2.8c1.6,9,0,13.8,0,18.6l-2.8,7
		C81.5,58.7,83.7,36.4,77.2,36.4z"/>
	<path d="M81.5,62.5L81.5,62.5C81.2,62.4,81,62.2,81,62c0-0.5,0-1.3,0.1-2.4c0.3-5.5,1-18.5-2.3-21.9c-0.5-0.5-1-0.8-1.7-0.8
		c-4.3,0-8,0.9-11.2,2.7c-0.2,0.1-0.3,0.1-0.5,0c-3-1.8-6.6-2.7-10.7-2.7c-4.5,0-4.9,12.4-5.1,19.7c-0.1,2-0.1,3.7-0.2,4.9
		c0,0.2-0.2,0.4-0.4,0.4c-0.2,0-0.4-0.1-0.5-0.3l-2.9-6.9l0-0.2c-0.4-11.2,0.2-18.2,1.7-21.2l0.1-0.1c6.9-7,18.5-8.4,25.9-6.1
		c3.9,1.2,6.5,3.4,7.2,6c2.1,0.3,4,0.9,4.3,3.1c1.1,6.3,0.7,10.5,0.3,14.2c-0.2,1.6-0.3,3-0.3,4.5l0,0.2l-2.8,7
		C81.9,62.4,81.7,62.5,81.5,62.5z M46.6,54.5l2.1,4.8c0-0.8,0.1-1.8,0.1-2.7c0.2-8.2,0.6-20.7,6.1-20.7c4.1,0,7.8,0.9,10.9,2.7
		c3.3-1.8,7.1-2.7,11.5-2.7c0.9,0,1.7,0.4,2.4,1.1c3.4,3.6,2.9,15.7,2.6,22l1.6-4.1c0-1.5,0.2-2.9,0.3-4.5c0.4-3.6,0.8-7.7-0.3-13.9
		c-0.2-1.4-1.1-2-3.8-2.4c-0.2,0-0.4-0.2-0.4-0.4c-0.4-2.4-2.8-4.5-6.6-5.6c-7.1-2.2-18.2-0.9-24.8,5.8
		C46.7,36.8,46.2,43.8,46.6,54.5z"/>
	<path d="M84,67.5c-0.3,0-0.5-0.2-0.5-0.5v-3c0-0.3,0.2-0.5,0.5-0.5s0.5,0.2,0.5,0.5v3C84.5,67.3,84.3,67.5,84,67.5z"/>
	<path class="st5" d="M59,70c0,1.9,3.1,5,6.2,5c3.5,0,6.8-3.3,6.8-5H59z"/>
	<path d="M65.2,75.5c-3.2,0-6.7-3.2-6.7-5.5v-0.5h14V70C72.5,72,68.9,75.5,65.2,75.5z M59.6,70.5c0.5,1.6,3.1,4,5.6,4
		c2.9,0,5.7-2.5,6.2-4H59.6z"/>
	<path class="st6" d="M58.7,56.7c0.2-0.2,0.3-0.4,0.3-0.7s-0.1-0.5-0.3-0.7C58.5,55.1,58.3,55,58,55s-0.5,0.1-0.7,0.3
		C57.1,55.5,57,55.7,57,56s0.1,0.5,0.3,0.7c0.2,0.2,0.4,0.3,0.7,0.3S58.5,56.9,58.7,56.7z"/>
	<path class="st6" d="M72.7,56.7c0.2-0.2,0.3-0.4,0.3-0.7s-0.1-0.5-0.3-0.7C72.5,55.1,72.3,55,72,55s-0.5,0.1-0.7,0.3
		C71.1,55.5,71,55.7,71,56s0.1,0.5,0.3,0.7c0.2,0.2,0.4,0.3,0.7,0.3S72.5,56.9,72.7,56.7z"/>
	<path d="M68,66.5h-5.5v-9c0-0.3,0.2-0.5,0.5-0.5s0.5,0.2,0.5,0.5v8H68c0.3,0,0.5,0.2,0.5,0.5S68.3,66.5,68,66.5z"/>
</g>
</svg>
