<?xml version="1.0" encoding="utf-8"?>
<!-- Generator: Adobe Illustrator 22.0.1, SVG Export Plug-In . SVG Version: 6.00 Build 0)  -->
<!DOCTYPE svg PUBLIC "-//W3C//DTD SVG 1.1//EN" "http://www.w3.org/Graphics/SVG/1.1/DTD/svg11.dtd">
<svg version="1.1" id="Layer_1" xmlns="http://www.w3.org/2000/svg" xmlns:xlink="http://www.w3.org/1999/xlink" x="0px" y="0px"
	 viewBox="0 0 130 270" style="enable-background:new 0 0 130 270;" xml:space="preserve">
<style type="text/css">
	.st0{fill:#51889C;}
	.st1{fill:#236B86;}
	.st2{fill:#FFD9B3;}
	.st3{fill:#EAAF75;}
	.st4{fill:#F7F7F7;}
	.st5{fill:#283836;}
	.st6{fill:#212E2C;}
	.st7{fill:#D1D1D1;}
	.st8{fill:#F7DAC7;}
	.st9{fill:#E0AC89;}
	.st10{fill:#DA8D5A;}
	.st11{clip-path:url(#SVGID_2_);fill:#FFFFFF;}
	.st12{clip-path:url(#SVGID_2_);fill:#51889C;}
	.st13{clip-path:url(#SVGID_2_);fill:#236B86;}
	.st14{clip-path:url(#SVGID_2_);fill:#283836;}
	.st15{clip-path:url(#SVGID_2_);}
	.st16{clip-path:url(#SVGID_2_);fill:#D1D1D1;}
	.st17{clip-path:url(#SVGID_2_);fill:#212E2C;}
	.st18{fill:#FFCC99;}
	.st19{fill:#DDBBA5;}
	.st20{fill:#D7B587;}
	.st21{fill:#DCCBA9;}
	.st22{fill:#433210;}
	.st23{fill:#513600;}
	.st24{fill:#9A7B4C;}
</style>
<title>Artboard Copy</title>
<desc>Created with Sketch.</desc>
<g>
	<polyline class="st0" points="80.6,155 49.6,155 49.6,254 60.5,254 60.5,175.2 68.7,175.2 68.7,254 80.6,254 80.6,155 	"/>
	<path class="st1" d="M77.9,155.6l0.5,98.8h2.7l0.5-98.8H77.9 M57.3,171.9c-0.5,55.1-0.3,82.8,0.5,83c0.2,0.1,1.4-0.1,3.7-0.6
		L61,175.9h8.4v78.6h3.8l-0.8-82.5H57.3 M52.3,155.6l-2.7-0.6l0.5,99.4h2L52.3,155.6"/>
	<path d="M61.2,154.5h-3.9c-0.3,0-0.5,0.2-0.5,0.5c-0.3,3.6-0.8,6.4-1.6,8.1c-0.4,0.9-0.8,1.5-1.3,1.9c-0.5,0.4-1,0.6-1.5,0.6
		c-0.2,0-0.4,0-0.7-0.1l-0.1,0h-1.8c-0.3,0-0.5,0.2-0.5,0.5c0,0.3,0.2,0.5,0.5,0.5h1.8v-0.5l-0.1,0.5c0.3,0.1,0.6,0.1,0.9,0.1
		c0.8,0,1.5-0.3,2.2-0.8c0.9-0.8,1.6-2.1,2.2-3.9c0.5-1.8,0.9-4,1.1-6.8l-0.5,0v0.5h3.9c0.3,0,0.5-0.2,0.5-0.5
		C61.7,154.7,61.5,154.5,61.2,154.5 M58.2,253.9h-6.6c-0.3,0-0.5,0.2-0.5,0.5c0,0.3,0.2,0.5,0.5,0.5h6.6c0.3,0,0.5-0.2,0.5-0.5
		C58.7,254.1,58.5,253.9,58.2,253.9 M63.2,172.2l-1.5-16.7h10H78h2.1V167v86.8H78h-7h-1.6V175c0-0.1-0.1-0.3-0.1-0.4
		c-0.1-0.1-0.2-0.1-0.4-0.1h-1.6h-4.3H61c-0.1,0-0.3,0.1-0.4,0.1c-0.1,0.1-0.1,0.2-0.1,0.4v78.8h-2.3c-0.3,0-0.5,0.2-0.5,0.5
		c0,0.3,0.2,0.5,0.5,0.5H61c0.1,0,0.3-0.1,0.4-0.1c0.1-0.1,0.1-0.2,0.1-0.4v-78.8h1.4h4.3h1.1v78.8c0,0.1,0.1,0.3,0.1,0.4
		c0.1,0.1,0.2,0.1,0.4,0.1H71h7h2.6c0.1,0,0.3-0.1,0.4-0.1c0.1-0.1,0.1-0.2,0.1-0.4V167v-12c0-0.1-0.1-0.3-0.1-0.4
		c-0.1-0.1-0.2-0.1-0.4-0.1H78h-6.3H61.1c-0.1,0-0.3,0.1-0.4,0.2c-0.1,0.1-0.1,0.2-0.1,0.4l1.5,17.2c0,0.3,0.3,0.5,0.5,0.5
		C63,172.7,63.2,172.5,63.2,172.2 M57.4,154.5h-7.9c-0.1,0-0.3,0.1-0.4,0.1c-0.1,0.1-0.1,0.2-0.1,0.4v11.3v88.1
		c0,0.1,0.1,0.3,0.1,0.4c0.1,0.1,0.2,0.1,0.4,0.1h2c0.3,0,0.5-0.2,0.5-0.5c0-0.3-0.2-0.5-0.5-0.5h-1.5v-87.6v-10.8h7.4
		c0.3,0,0.5-0.2,0.5-0.5C57.9,154.7,57.7,154.5,57.4,154.5 M71.4,155c0.1,3.2,0.7,5.9,1.8,8c1.1,2.1,2.6,3.6,4.7,4.4l0.1,0l2.5,0.4
		c0.3,0,0.5-0.1,0.6-0.4c0-0.3-0.1-0.5-0.4-0.6l-2.5-0.4l-0.1,0.5l0.2-0.5c-1.8-0.8-3.2-2-4.1-3.9c-1-1.9-1.5-4.4-1.7-7.6
		c0-0.3-0.2-0.5-0.5-0.5C71.6,154.5,71.4,154.7,71.4,155 M67.1,155l-0.2,16.7l0,0l-0.1,2.8c0,0.3,0.2,0.5,0.5,0.5
		c0.3,0,0.5-0.2,0.5-0.5l0.1-2.8l0,0l0.2-16.7c0-0.3-0.2-0.5-0.5-0.5C67.3,154.5,67.1,154.7,67.1,155 M62.3,171.9l0.3,2.6
		c0,0.3,0.3,0.5,0.5,0.4c0.3,0,0.5-0.3,0.4-0.5l-0.3-2.6c0-0.3-0.3-0.5-0.5-0.4C62.4,171.4,62.2,171.7,62.3,171.9"/>
	<path class="st2" d="M95.7,168.2c3.5-12.1,4.8-24.2,3.8-36c0-3.8-0.5-15.3-3.8-25.7c-2.1-6.7-8.8-1.5-11.7,4.5
		c2.6,8.8,4.4,16.7,5.3,23.7c1.8,14.1,0.8,29.3,0,35.8L95.7,168.2"/>
	<path d="M89.4,171.1L89.4,171.1c-0.3,0-0.5-0.3-0.5-0.6c0.8-6.8,1.8-21.9,0-35.7c-0.9-7-2.7-14.9-5.3-23.6l-0.1-0.2l0.1-0.2
		c2-4.1,5.9-8.1,9.1-7.9c1.1,0.1,2.7,0.8,3.5,3.5c3.5,11.1,3.8,23.4,3.8,25.8c1,11.9-0.3,24-3.8,36.2c-0.1,0.3-0.4,0.4-0.6,0.3
		c-0.3-0.1-0.4-0.4-0.3-0.6c3.5-12,4.8-24.1,3.8-35.9c0-2.4-0.3-14.6-3.8-25.6c-0.6-1.8-1.4-2.7-2.7-2.8c-2.4-0.2-6,3-8,7.2
		c2.6,8.7,4.4,16.6,5.3,23.6c2.2,17.1,0.2,34.1,0,36C89.8,170.9,89.6,171.1,89.4,171.1"/>
	<path class="st2" d="M89.8,167l-5.1,2.6L83,183.3c-0.1,0.7-0.1,1.3,0.3,1.8c0.4,0.5,1,0.8,1.6,0.9c0.7,0.1,1.3,0,1.8-0.3
		c0.4-0.4,0.7-1,0.8-1.7l1.3-8.6l1.4,3l-2,12.7c-0.1,0.6,0.1,1.2,0.5,1.6c0.3,0.6,0.8,1,1.5,1.1c0.6,0.1,1.2-0.1,1.8-0.5
		c0.4-0.3,0.7-0.8,0.8-1.2c0.5,0,0.9-0.2,1.3-0.4c0.4-0.3,0.7-0.7,0.8-1.2c0.5,0,1-0.2,1.4-0.5c0.4-0.4,0.7-0.9,0.8-1.5l2.3-14.6
		c0.5-2.6-1.9-4.7-3.4-7.3"/>
	<path d="M90.7,194.4c-0.1,0-0.3,0-0.4,0c-0.8-0.1-1.5-0.6-1.8-1.3c-0.5-0.6-0.7-1.3-0.6-2l2-12.5l-0.7-1.4l-1.1,7
		c-0.1,0.8-0.5,1.5-1,1.9l-0.1,0.1c-0.7,0.4-1.4,0.5-2.2,0.4c-0.8-0.1-1.4-0.4-1.9-1c-0.4-0.7-0.6-1.5-0.4-2.3l1.7-13.7
		c0-0.2,0.1-0.3,0.3-0.4l5.1-2.6c0.2-0.1,0.5,0,0.7,0.2c0.1,0.2,0,0.5-0.2,0.7l-4.8,2.5l-1.7,13.5c-0.1,0.6-0.1,1.1,0.2,1.5
		c0.3,0.3,0.7,0.6,1.3,0.6c0.5,0.1,1,0,1.5-0.2c0.3-0.3,0.6-0.8,0.7-1.3l1.3-8.6c0-0.2,0.2-0.4,0.4-0.4c0.2,0,0.4,0.1,0.5,0.3l1.4,3
		c0,0.1,0.1,0.2,0,0.3l-2,12.7c-0.1,0.5,0,0.9,0.4,1.2l0.1,0.1c0.2,0.5,0.6,0.7,1.1,0.8c0.5,0.1,1-0.1,1.4-0.4
		c0.3-0.3,0.5-0.6,0.6-1c0.1-0.2,0.2-0.3,0.4-0.4c0.4,0,0.8-0.1,1.1-0.3c0.3-0.2,0.5-0.5,0.6-0.9c0-0.2,0.2-0.4,0.5-0.4
		c0.4,0,0.8-0.2,1.1-0.4c0.3-0.3,0.5-0.7,0.6-1.1l2.3-14.6c0.3-1.7-0.7-3.1-1.9-4.8c-0.5-0.7-1-1.4-1.4-2.2
		c-0.1-0.2-0.1-0.5,0.2-0.7c0.2-0.1,0.5-0.1,0.7,0.2c0.4,0.7,0.9,1.4,1.4,2.1c1.3,1.8,2.5,3.5,2.1,5.6l-2.3,14.6
		c-0.1,0.7-0.4,1.3-0.9,1.7c-0.4,0.3-0.8,0.5-1.3,0.6c-0.2,0.4-0.5,0.8-0.9,1.1c-0.4,0.2-0.8,0.4-1.2,0.5c-0.2,0.4-0.5,0.8-0.8,1.1
		C92,194.1,91.4,194.4,90.7,194.4z"/>
	<path class="st3" d="M98.1,170.9c1.1,2.3,1.5,2.9,1.3,1.6c0.2,0.4,0.3,0.9,0.2,1.5l-2.2,14.4c-0.1,0.6-0.4,1.1-0.8,1.4
		c-0.4,0.3-0.8,0.5-1.4,0.5c0.1-0.1,0.1-0.3,0.1-0.5c0,0.2-0.1,0.3-0.1,0.5c-0.1,0.5-0.4,0.8-0.8,1.2c-0.4,0.2-0.8,0.4-1.3,0.4
		c0.1-0.1,0.1-0.2,0.1-0.2l2-12.7l2.3-2.8L98.1,170.9z"/>
	<path class="st2" d="M34.6,168.2c-3.5-12.1-4.8-24.2-3.8-36c0-3.8,0.5-15.3,3.8-25.7c2.1-6.7,8.8-1.5,11.7,4.5
		c-2.6,8.8-4.4,16.7-5.3,23.7c-1.8,14.1-0.8,29.3,0,35.8L34.6,168.2"/>
	<path d="M41,171.1c-0.2,0-0.5-0.2-0.5-0.4c-0.2-1.9-2.2-18.9,0-36c0.9-7,2.7-14.9,5.3-23.6c-2.1-4.1-5.6-7.3-8-7.2
		c-1.2,0.1-2.1,1-2.7,2.8c-3.5,10.9-3.8,23.2-3.8,25.5c-1,11.8,0.3,23.9,3.8,35.9c0.1,0.3-0.1,0.5-0.3,0.6c-0.3,0.1-0.5-0.1-0.6-0.3
		c-3.5-12.1-4.8-24.3-3.8-36.2c0-2.3,0.3-14.7,3.8-25.8c0.9-2.7,2.4-3.4,3.5-3.5c3.2-0.2,7.1,3.8,9.1,7.9l0.1,0.2l-0.1,0.2
		c-2.6,8.7-4.4,16.7-5.3,23.6c-1.8,13.8-0.8,28.9,0,35.7C41.5,170.8,41.3,171,41,171.1L41,171.1"/>
	<path class="st2" d="M39.8,167.2l5.4,1.8l3.8,13.3c0.3,0.7,0.3,1.3,0,1.9c-0.3,0.6-0.8,0.9-1.5,1.1c-0.6,0.2-1.3,0.2-1.9,0
		c-0.5-0.3-0.9-0.8-1.1-1.5l-2.7-8.3l-1,3.2l4,12.2c0.2,0.6,0.1,1.2-0.3,1.7c-0.2,0.6-0.6,1.1-1.3,1.3c-0.6,0.2-1.2,0.1-1.9-0.2
		c-0.4-0.3-0.8-0.6-1-1.1c-0.5,0-0.9,0-1.4-0.2c-0.5-0.3-0.8-0.6-1-1c-0.5,0-1,0-1.4-0.3c-0.5-0.3-0.8-0.7-1-1.3l-4.5-14.1
		c-0.9-2.5,1.2-4.9,2.2-7.7"/>
	<path d="M42.8,194.5c-0.5,0-1-0.1-1.5-0.4c-0.4-0.3-0.8-0.6-1-1c-0.4,0-0.9-0.1-1.3-0.2c-0.5-0.3-0.9-0.6-1.1-1
		c-0.5,0-0.9-0.1-1.4-0.4c-0.6-0.4-1-0.9-1.2-1.6l-4.5-14.1c-0.7-2,0.2-3.8,1.2-5.8c0.4-0.7,0.7-1.5,1-2.3c0.1-0.3,0.4-0.4,0.6-0.3
		c0.3,0.1,0.4,0.4,0.3,0.6c-0.3,0.8-0.7,1.6-1.1,2.4c-0.9,1.9-1.7,3.5-1.2,5l4.5,14.1c0.2,0.5,0.4,0.8,0.8,1
		c0.3,0.2,0.7,0.3,1.1,0.2c0.2,0,0.4,0.1,0.5,0.3c0.1,0.3,0.4,0.6,0.7,0.8c0.3,0.1,0.7,0.2,1.1,0.1c0.2,0,0.4,0.1,0.5,0.3
		c0.2,0.4,0.4,0.6,0.8,0.9c0.5,0.3,1,0.3,1.5,0.2c0.5-0.2,0.8-0.5,1-0.9l0.1-0.1c0.3-0.4,0.3-0.8,0.2-1.3l-4-12.2c0-0.1,0-0.2,0-0.3
		l1-3.2c0.1-0.2,0.3-0.4,0.5-0.4c0.3,0,0.4,0.1,0.5,0.3l2.7,8.3c0.2,0.5,0.5,0.9,0.9,1.2c0.5,0.2,1,0.2,1.5,0
		c0.5-0.2,0.9-0.4,1.2-0.9c0.2-0.4,0.2-0.9-0.1-1.4l-3.8-13.1l-5.2-1.7c-0.3-0.1-0.4-0.4-0.3-0.6c0.1-0.3,0.4-0.4,0.6-0.3l5.4,1.8
		c0.2,0.1,0.3,0.2,0.3,0.3l3.8,13.3c0.3,0.7,0.3,1.5,0,2.2c-0.4,0.7-1,1.2-1.8,1.4c-0.7,0.2-1.5,0.2-2.2-0.1l-0.1-0.1
		c-0.6-0.4-1-1-1.3-1.7l-2.2-6.7l-0.5,1.5l3.9,12c0.2,0.7,0.1,1.4-0.3,2.1c-0.2,0.8-0.8,1.3-1.6,1.5C43.3,194.5,43,194.5,42.8,194.5
		z"/>
	<path class="st3" d="M32.2,172.4c-0.7,2.5-1.1,3.1-1,1.8c-0.1,0.4-0.1,1,0.1,1.5l4.5,13.9c0.2,0.6,0.5,1,1,1.3
		c0.4,0.2,0.9,0.3,1.4,0.3c-0.1-0.1-0.2-0.3-0.2-0.4c0,0.2,0.1,0.3,0.2,0.4c0.2,0.4,0.5,0.8,1,1c0.4,0.2,0.9,0.2,1.3,0.2
		c-0.1-0.1-0.2-0.1-0.2-0.2L36.3,180l-2.8-2.4L32.2,172.4z"/>
	<path class="st4" d="M82.4,87.5L82.4,87.5c-3.5-1.7-9.4-2.5-17.8-2.5s-14.3,0.8-17.7,2.4c-0.2,0.1-0.3,0.2-0.5,0.3
		c-5.9,1.7-10.7,6.4-12.4,12.6L30.1,115h14.5v49h40v-49h15l-3.9-14.7C93.9,93.8,88.7,89,82.4,87.5"/>
	<path d="M84.6,164h-40v-49H30.1l3.9-14.7c1.6-6,6.4-10.9,12.4-12.6l0.1,0c0.1-0.1,0.3-0.2,0.4-0.3c3.4-1.6,9.4-2.4,17.7-2.4
		c8.3,0,14.3,0.8,17.7,2.4l0.2,0.1c6.4,1.5,11.5,6.4,13.2,12.8l3.9,14.7h-15V164 M45.6,163h38v-49h14.7l-3.6-13.4
		c-1.6-6.1-6.4-10.7-12.5-12.2l-0.3-0.1c-3.3-1.5-9.1-2.3-17.3-2.3c-8.2,0-14,0.8-17.3,2.3c-0.1,0.1-0.3,0.1-0.4,0.2l-0.2,0.1
		c-5.7,1.7-10.2,6.2-11.7,12L31.4,114h14.2V163"/>
	<path class="st5" d="M82.4,87.5L82.4,87.5c-3.5-1.7-9.4-2.5-17.8-2.5s-14.3,0.8-17.7,2.4c-0.2,0.1-0.3,0.2-0.5,0.3
		c-5.9,1.7-10.7,6.4-12.4,12.6L30.1,115h14.5v49h40v-49h15l-3.9-14.7C93.9,93.8,88.7,89,82.4,87.5"/>
	<path d="M84.6,164h-40v-49H30.1l3.9-14.7c1.6-6,6.4-10.9,12.4-12.6l0.1,0c0.1-0.1,0.3-0.2,0.4-0.3c3.4-1.6,9.4-2.4,17.7-2.4
		c8.3,0,14.3,0.8,17.7,2.4l0.2,0.1c6.4,1.5,11.5,6.4,13.2,12.8l3.9,14.7h-15V164 M45.6,163h38v-49h14.7l-3.6-13.4
		c-1.6-6.1-6.4-10.7-12.5-12.2l-0.3-0.1c-3.3-1.5-9.1-2.3-17.3-2.3c-8.2,0-14,0.8-17.3,2.3c-0.1,0.1-0.3,0.1-0.4,0.2l-0.2,0.1
		c-5.7,1.7-10.2,6.2-11.7,12L31.4,114h14.2V163"/>
	<path class="st6" d="M46.6,102.5c-3.9,0-5.2,3.7-4,11l1.6,0.5h1.4v0.4l0.2,0.1V163H51C48.7,124.6,47.3,104.4,46.6,102.5"/>
	<path d="M51,163h-5.2v1h5.3C51,163.7,51,163.3,51,163 M45.6,114h-1.4l1.4,0.4V114"/>
	<path class="st7" d="M62.9,85c-1,0-1.9,0-2.8,0v0c1.2,0,2.4-0.1,3.6-0.1C63.4,85,63.1,85,62.9,85"/>
	<path class="st6" d="M64.6,86c-1.6,0-3.1,0-4.5,0.1v1.5c0,1.1,0.2,1.9,0.5,2.3c0.3,0.4,0.7,0.6,1.3,0.6h5.5c0.7-0.1,1.3-0.3,2-0.4
		c0.1-0.1,0.1-0.1,0.2-0.2c0.3-0.4,0.5-1.2,0.5-2.3v-1.4C68.4,86,66.5,86,64.6,86 M63.7,85c-1.3,0-2.5,0-3.6,0.1v0
		C61.2,85,62.4,85,63.7,85C63.7,85,63.7,85,63.7,85"/>
	<path d="M63.7,85c-1.3,0-2.5,0-3.6,0.1v1C61.5,86,63,86,64.6,86c2,0,3.8,0,5.5,0.1v-0.9C68.1,85.1,65.9,85,63.7,85"/>
	<path class="st7" d="M57.1,85.2c-0.9,0.1-1.7,0.2-2.3,0.3C55.6,85.4,56.3,85.3,57.1,85.2L57.1,85.2 M59.1,85.1
		C59.1,85.1,59,85.1,59.1,85.1L59.1,85.1C59,85.1,59.1,85.1,59.1,85.1L59.1,85.1"/>
	<path class="st6" d="M57.1,86.3c-1.7,0.1-3.2,0.3-4.6,0.6c-0.3,1.2,1.5,2.7,4.6,3.6V86.3 M59.1,86.1C59.1,86.1,59,86.1,59.1,86.1
		l0,4.6c0.4,0.1,0.7,0.1,1.1,0.1c-0.2-0.1-0.3-0.3-0.4-0.5c-0.5-0.7-0.7-1.7-0.7-2.9V86.1 M57.1,85.3c-0.8,0.1-1.6,0.1-2.3,0.2
		c0,0,0,0-0.1,0C55.5,85.4,56.3,85.3,57.1,85.3L57.1,85.3 M59.1,85.1C59.1,85.1,59,85.1,59.1,85.1L59.1,85.1
		C59,85.1,59.1,85.1,59.1,85.1L59.1,85.1"/>
	<path d="M57.1,85.3c-0.8,0.1-1.6,0.1-2.4,0.2c-0.3,0.1-0.6,0.1-0.9,0.2c-0.8,0.3-1.2,0.7-1.3,1.1c1.4-0.2,2.9-0.4,4.6-0.6V85.3
		 M59.1,85.1C59.1,85.1,59,85.1,59.1,85.1l0,1c0,0,0,0,0,0V85.1"/>
	<path class="st6" d="M70.9,89c-0.1,0.3-0.1,0.5-0.2,0.7c0.1,0,0.2-0.1,0.3-0.1L70.9,89"/>
	<path class="st8" d="M68.2,91c1.6,0,2.3-1.1,2.3-3.3v-8c0,2-0.8,3-2.3,3h-6.3c-1.5,0-2.3-1-2.3-3.1v8.1c0,2.2,0.8,3.3,2.3,3.3H68.2
		z"/>
	<path class="st9" d="M68.2,64h-6.3c-1.6,0-2.3,1.1-2.3,3.3v12.3c0.1,2.1,0.8,3.1,2.3,3.1h6.3c1.5,0,2.3-1,2.3-3V67.3
		C70.6,65.1,69.8,64,68.2,64"/>
	<path d="M59.6,79.2h0.5V66.4c0-1.1,0.2-1.9,0.5-2.3c0.3-0.4,0.7-0.6,1.3-0.6h6.3c0.7,0,1,0.2,1.3,0.6c0.3,0.4,0.5,1.2,0.5,2.3v12.9
		v8.2c0,1.1-0.2,1.9-0.5,2.3c-0.3,0.4-0.7,0.6-1.3,0.6h-6.3c-0.7,0-1-0.2-1.3-0.6c-0.3-0.4-0.5-1.2-0.5-2.3v-8.3H59.6h-0.5v8.3
		c0,1.2,0.2,2.2,0.7,2.9c0.5,0.7,1.3,1.1,2.2,1.1h6.3c0.9,0,1.7-0.4,2.2-1.1c0.5-0.7,0.7-1.7,0.7-2.9v-8.2V66.4
		c0-1.2-0.2-2.2-0.7-2.9c-0.5-0.7-1.3-1.1-2.2-1.1h-6.3c-0.9,0-1.7,0.4-2.2,1.1c-0.5,0.7-0.7,1.7-0.7,2.9v12.8H59.6"/>
	<path class="st10" d="M71.1,78.5c4.7,1,7.3,2.5,8,4.5c5.2,4,9.2,2.1,13.3,7.5c2.7,3.6,5.1,10.2,7.1,19.6
		c0.9,10.1,1.3,19.7,0.9,28.6c-0.3,8.9-1.3,17.6-2.8,26.1l0.9,4.5l-12.3-1l4.1-28.5l0.2-1.1l-4.3-25.1l-0.7,49.6
		c-3.7,6.8-6.5,9.7-8.4,8.5c-1.9-1.2-3.6-4.5-5.2-10c0.2-13.1,0.5-23.3,0.9-30.6c0.7-10.9,2.6-12.5,2.4-21.1c-0.1-5.7-1.3-11-3.3-16
		l-0.9-8.5V78.5"/>
	<path d="M71.1,78.5L71,79c2.3,0.5,4.1,1.1,5.4,1.8c1.3,0.7,2,1.5,2.3,2.4l0,0.1l0.1,0.1c2.7,2.1,5.1,2.6,7.2,3.3
		c2.1,0.7,4,1.5,6,4.1c2.7,3.5,5,10,7,19.4l0.5-0.1l-0.5,0c0.7,7.6,1.1,14.9,1.1,21.8c0,2.3,0,4.5-0.1,6.7c-0.3,8.9-1.3,17.6-2.8,26
		l0,0.1l0.8,4l-11.1-0.9l4-27.9l0.2-1.1l0-0.1l-4.3-25.1l-1,0.1l-0.7,49.6l0.5,0l-0.4-0.2c-1.6,2.9-3,5.1-4.2,6.5
		c-0.6,0.7-1.2,1.2-1.6,1.6c-0.5,0.3-0.9,0.5-1.2,0.5c-0.2,0-0.4-0.1-0.6-0.2l0,0c-0.8-0.5-1.7-1.6-2.5-3.2
		c-0.8-1.6-1.7-3.8-2.5-6.6l-0.5,0.1l0.5,0c0.2-13.1,0.5-23.3,0.9-30.6c0.3-5.1,0.9-8.1,1.4-10.9c0.5-2.7,1-5.1,1-8.9
		c0-0.4,0-0.9,0-1.3c-0.1-5.8-1.3-11.2-3.4-16.2L72,94l0.5-0.1l-0.9-8.5v-7H71.1L71,79L71.1,78.5h-0.5v7l0.9,8.6l0,0.1
		c2,4.9,3.1,10.2,3.3,15.9c0,0.5,0,0.9,0,1.3c0,3.7-0.4,6-0.9,8.7c-0.5,2.7-1.1,5.8-1.4,11c-0.5,7.3-0.8,17.5-1,30.6l0,0.1l0,0.1
		c0.8,2.8,1.6,5,2.5,6.7c0.9,1.7,1.8,2.9,2.9,3.6l0,0c0.3,0.2,0.7,0.3,1.1,0.3c0.6,0,1.2-0.2,1.8-0.6c1.8-1.2,3.8-4,6.1-8.4l0.1-0.1
		l0.6-44.3l3.3,19.6l-0.1,1l-4.2,29l13.5,1.1l-1.1-5.2l-0.5,0.1l0.5,0.1c1.6-8.5,2.5-17.2,2.9-26.1c0.1-2.2,0.1-4.5,0.1-6.7
		c0-7-0.4-14.3-1.1-21.9l0,0l0,0c-2-9.4-4.4-16-7.2-19.7c-2.1-2.8-4.3-3.8-6.5-4.5c-2.2-0.7-4.4-1.2-6.9-3.1L79.1,83l0.5-0.2
		c-0.4-1.2-1.4-2.2-2.8-2.9c-1.4-0.8-3.3-1.4-5.6-1.9l-0.6-0.1v0.6H71.1"/>
	<g>
		<defs>
			<polyline id="SVGID_1_" points="57.1,79 59,79 59,173 57.1,173 57.1,79 			"/>
		</defs>
		<clipPath id="SVGID_2_">
			<use xlink:href="#SVGID_1_"  style="overflow:visible;"/>
		</clipPath>
		<path class="st11" d="M59,79h-1.9v6.2c0.6,0,1.2-0.1,1.9-0.1V79"/>
		<path class="st12" d="M59,164h-1.9v9h0.2c0-0.4,0-0.7,0-1.1H59V164"/>
		<path class="st13" d="M59,171.9h-1.7c0,0.4,0,0.7,0,1.1H59V171.9"/>
		<path class="st14" d="M57.1,90.4V163H59V90.8C58.4,90.7,57.7,90.5,57.1,90.4"/>
		<polyline class="st15" points="59,163 57.1,163 57.1,164 59,164 59,163 		"/>
		<path class="st16" d="M59,85.1c-0.7,0-1.3,0.1-1.9,0.1v0.1C57.8,85.2,58.4,85.2,59,85.1L59,85.1"/>
		<path class="st17" d="M59,86.1c-0.6,0-1.3,0.1-1.9,0.1v4.1c0.6,0.2,1.2,0.3,1.9,0.4V86.1 M59,85.1c-0.6,0-1.3,0.1-1.9,0.1v0
			C57.8,85.2,58.4,85.2,59,85.1L59,85.1"/>
		<path class="st15" d="M59,85.1c-0.6,0-1.3,0.1-1.9,0.1v1c0.6,0,1.2-0.1,1.9-0.1V85.1"/>
	</g>
	<path class="st10" d="M59.6,80c-4.3,0.6-6.8,2-7.5,4c-5.5,4-9.7,2.1-14,7.5c-2.9,3.6-5.4,10.1-7.5,19.5c-1,10.1-1.3,19.6-1,28.5
		c0.3,8.9,1.3,17.6,3,26l-1,4.5l13-1l-4.3-28.4l-0.2-1.1l4.5-25l0.7,49.5c3.9,7.2,6.8,10.2,8.8,9s3.8-4.7,5.5-10.5
		c-0.2-13.1-0.5-23.3-1-30.5c-0.7-10.8-1.2-7.5-1-16c0.2-5.7,0.8-12.7,2-21l1.5-9L59.6,80z"/>
	<path d="M59.6,80l-0.1-0.5c-2.2,0.3-3.9,0.8-5.2,1.5c-1.3,0.7-2.2,1.6-2.7,2.8l0.5,0.2l-0.3-0.4c-2.7,1.9-5,2.4-7.3,3.1
		c-2.3,0.7-4.6,1.6-6.8,4.5c-3,3.7-5.5,10.3-7.6,19.7l0,0l0,0c-0.7,7.6-1.1,14.9-1.1,21.8c0,2.3,0,4.5,0.1,6.7
		c0.3,8.9,1.3,17.6,3,26.1l0.5-0.1l-0.5-0.1l-1.1,5.2l14.2-1.1l-4.4-28.9l-0.2-1l3.6-19.8l0.6,44.4l0.1,0.1c1.7,3.1,3.2,5.4,4.5,7
		c0.7,0.8,1.3,1.4,2,1.8c0.6,0.4,1.2,0.7,1.9,0.7c0.4,0,0.8-0.1,1.1-0.3c1.1-0.7,2.1-1.9,3.1-3.7c0.9-1.8,1.8-4.2,2.7-7.1l0-0.1
		l0-0.1c-0.2-13.1-0.5-23.3-1-30.5c-0.3-4.5-0.6-6.6-0.8-8.1c-0.2-1.5-0.3-2.3-0.3-4.5c0-0.9,0-2,0.1-3.4c0.2-5.7,0.8-12.6,2-20.9
		L59.6,95l0.5,0.1l1.5-9.1l-1.6-6.5l-0.4,0.1L59.6,80l-0.5,0.1l1.5,5.9l-1.5,8.9l0,0c-1.2,8.3-1.9,15.3-2,21.1
		c0,1.4-0.1,2.5-0.1,3.4c0,2.2,0.1,3.1,0.3,4.6c0.2,1.5,0.4,3.5,0.8,8c0.5,7.2,0.8,17.4,1,30.5l0.5,0l-0.5-0.1
		c-0.8,2.9-1.7,5.2-2.6,6.9c-0.9,1.7-1.8,2.8-2.7,3.3c-0.2,0.1-0.4,0.2-0.6,0.2c-0.4,0-0.8-0.1-1.3-0.5c-1.6-1-3.7-3.9-6.2-8.5
		l-0.4,0.2l0.5,0l-0.7-49.5l-1-0.1l-4.5,25.1l0.2,1.2l4.2,27.9l-11.8,0.9l0.9-3.9l0-0.1c-1.7-8.4-2.7-17.1-3-25.9
		c-0.1-2.2-0.1-4.4-0.1-6.7c0-6.9,0.4-14.1,1.1-21.7l-0.5,0l0.5,0.1c2.1-9.3,4.6-15.8,7.4-19.3c2.1-2.6,4.1-3.4,6.3-4.1
		c2.2-0.7,4.8-1.2,7.6-3.3l0.1-0.1l0.1-0.1c0.3-0.9,1-1.6,2.2-2.3c1.2-0.6,2.8-1.1,4.9-1.4L59.6,80l-0.5,0.1L59.6,80z"/>
	<path d="M73.1,94c0-3.5,0.5-6,1.4-7.8L74.1,86v0.5c0.4,0,1,0.2,1.5,0.6c0.8,0.6,1.7,1.5,2.5,2.3c0.4,0.4,0.8,0.8,1.1,1.1
		c0.4,0.3,0.7,0.5,1.2,0.5c0.1,0,0.3,0,0.4-0.1l0.4-0.2L81,90.4c-0.7-3-1-5.3-1-6.9c0-0.3-0.2-0.5-0.5-0.5s-0.5,0.2-0.5,0.5
		c0,1.7,0.3,4.1,1,7.1l0.5-0.1L80.4,90l0,0v0l0,0l0,0v0c0,0-0.1,0-0.3-0.1c-0.3-0.2-0.7-0.5-1.1-1c-0.7-0.7-1.4-1.5-2.2-2.2
		c-0.8-0.7-1.7-1.3-2.7-1.3h-0.3l-0.1,0.3c-1.1,2-1.6,4.7-1.6,8.2c0,0.3,0.2,0.5,0.5,0.5C72.8,94.5,73.1,94.3,73.1,94L73.1,94z"/>
	<path d="M52.1,83.5c0,2.6-0.5,5-1.5,7.3l-0.2,0.4l0.3,0.2c0.2,0.2,0.5,0.2,0.8,0.2c0.6,0,1.2-0.3,1.9-0.6c1-0.5,2-1.3,3-1.9
		c0.5-0.3,0.9-0.6,1.3-0.8c0.4-0.2,0.7-0.3,0.8-0.3l0,0l0,0c0.2,0,0.3,0.1,0.4,0.1c0.2,0.1,0.3,0.4,0.5,0.8c0.1,0.5,0.2,1.1,0.2,1.9
		c0,0.2,0,0.4,0,0.6c0,0.3,0.2,0.5,0.5,0.5c0.3,0,0.5-0.2,0.5-0.5c0-0.2,0-0.5,0-0.7c0-1.1-0.1-2-0.4-2.7c-0.2-0.3-0.4-0.6-0.6-0.8
		c-0.3-0.2-0.6-0.3-0.9-0.3l0,0l-0.1,0c-0.6,0-1.1,0.3-1.7,0.6c-0.9,0.5-1.9,1.3-2.9,1.9c-0.5,0.3-0.9,0.6-1.3,0.8
		c-0.4,0.2-0.7,0.3-1,0.3c-0.1,0-0.2,0-0.2-0.1L51.1,91l0.5,0.2c1-2.4,1.5-5,1.5-7.7c0-0.3-0.2-0.5-0.5-0.5
		C52.3,83,52.1,83.2,52.1,83.5L52.1,83.5z"/>
	<path d="M86.9,158.5l11,2.5c0.3,0.1,0.5-0.1,0.6-0.4c0.1-0.3-0.1-0.5-0.4-0.6l-11-2.5c-0.3-0.1-0.5,0.1-0.6,0.4
		C86.5,158.2,86.7,158.4,86.9,158.5"/>
	<polyline class="st18" points="52.2,68.9 51.9,67.9 53.6,67.4 53.9,68.3 52.2,68.9 	"/>
	<path class="st8" d="M79.1,50.5c-1,1-1.6,2.1-1.6,3.5s0.5,2.6,1.6,3.6c1.1,1,2.4,1.5,3.9,1.5c1.5,0,2.8-0.5,3.8-1.5
		c1.1-1,1.7-2.2,1.7-3.6s-0.6-2.5-1.7-3.5c-1.1-1-2.4-1.5-3.8-1.5C81.5,49,80.2,49.5,79.1,50.5"/>
	<path d="M83.1,59.5c-1.6,0-3.1-0.5-4.3-1.6c-1.2-1.1-1.7-2.4-1.7-3.9c0-1.5,0.6-2.8,1.7-3.9l0,0c1.2-1,2.6-1.6,4.3-1.6
		c1.6,0,3,0.5,4.2,1.6c1.2,1.1,1.8,2.4,1.8,3.9c0,1.5-0.6,2.8-1.8,3.9C86.1,59,84.7,59.5,83.1,59.5 M79.5,50.8
		c-0.9,0.9-1.4,1.9-1.4,3.1c0,1.2,0.5,2.3,1.4,3.2c1,0.9,2.2,1.3,3.6,1.3c1.4,0,2.5-0.4,3.5-1.3c1-0.9,1.5-2,1.5-3.2
		c0-1.2-0.5-2.3-1.5-3.1c-1-0.9-2.1-1.3-3.5-1.3C81.7,49.5,80.5,49.9,79.5,50.8"/>
	<path class="st19" d="M80.6,51.9c-0.7,0.6-1,1.3-1,2.1c0,0.8,0.3,1.5,1,2.1c0.7,0.6,1.5,0.9,2.5,0.9c1,0,1.8-0.3,2.4-0.9
		c0.7-0.6,1.1-1.3,1.1-2.1c0-0.8-0.4-1.5-1.1-2.1C84.8,51.3,84,51,83.1,51C82.1,51,81.3,51.3,80.6,51.9"/>
	<path class="st8" d="M42.1,50.5c-1,1-1.6,2.1-1.6,3.5s0.5,2.6,1.6,3.6c1.1,1,2.4,1.5,3.9,1.5c1.5,0,2.8-0.5,3.8-1.5
		c1.1-1,1.7-2.2,1.7-3.6s-0.6-2.5-1.7-3.5c-1.1-1-2.4-1.5-3.8-1.5C44.5,49,43.2,49.5,42.1,50.5"/>
	<path d="M46.1,59.5c-1.6,0-3.1-0.5-4.3-1.6c-1.2-1.1-1.7-2.4-1.7-3.9c0-1.5,0.6-2.8,1.7-3.9l0,0c1.2-1,2.6-1.6,4.3-1.6
		c1.6,0,3,0.5,4.2,1.6c1.2,1.1,1.8,2.4,1.8,3.9c0,1.5-0.6,2.8-1.8,3.9C49.1,59,47.7,59.5,46.1,59.5 M42.5,50.8
		c-0.9,0.9-1.4,1.9-1.4,3.1c0,1.2,0.5,2.3,1.4,3.2c1,0.9,2.2,1.3,3.6,1.3c1.4,0,2.5-0.4,3.5-1.3c1-0.9,1.5-2,1.5-3.2
		c0-1.2-0.5-2.3-1.5-3.1c-1-0.9-2.1-1.3-3.5-1.3C44.7,49.5,43.5,49.9,42.5,50.8"/>
	<path class="st9" d="M43.6,51.9c-0.7,0.6-1,1.3-1,2.1c0,0.8,0.3,1.5,1,2.1c0.7,0.6,1.5,0.9,2.5,0.9c1,0,1.8-0.3,2.4-0.9
		c0.7-0.6,1.1-1.3,1.1-2.1c0-0.8-0.4-1.5-1.1-2.1C47.8,51.3,47,51,46.1,51C45.1,51,44.3,51.3,43.6,51.9"/>
	<path class="st8" d="M50.1,32.3c1.8-2,6.2-3.5,11.2-4.1c7.6-0.8,16.6,0.5,19.5,5.4c3.7,6.3,3.5,17.6-0.4,33.9
		C78.9,74.3,72.8,79,65.9,79h-1.8c-6.9,0-12.9-4.7-14.5-11.3C45.4,51.2,45.6,39.4,50.1,32.3"/>
	<path d="M65.9,79h-1.8c-6.9,0-12.9-4.7-14.5-11.3c-4.1-16.4-4-28.3,0.6-35.4l0.1-0.1c1.8-2,5.9-3.5,11.2-4c9.2-1,17,1.2,19.5,5.4
		c3.7,6.3,3.5,17.7-0.4,33.9C78.9,74.3,72.9,79,65.9,79 M50.9,32.9c-4.3,6.8-4.5,18.4-0.4,34.5C52.1,73.7,57.7,78,64.1,78h1.8
		c6.5,0,12.1-4.4,13.6-10.7c3.9-15.9,4-27.1,0.5-33.1c-2.3-3.9-9.8-5.9-18.6-5C56.6,29.8,52.5,31.2,50.9,32.9"/>
	<path class="st20" d="M82.2,52.1c-0.3,0-0.9,0.3-1.6,0.9c-5.3,3-9.7,4.8-13,5.5c-1.7,0.3-2.4,0.4-2.7,0.4c-0.7,0,0.2-0.4-1.8-0.4
		c-2,0-6.5-1.9-13.5-5.8c-0.7-0.3-1.2-0.5-1.5-0.5c-0.1,0-0.2,0-0.3,0c0.4,4.5,1.3,9.6,2.7,15.2C52.1,73.7,57.7,78,64.1,78h1.8
		c6.5,0,12.1-4.4,13.6-10.7C80.9,61.6,81.8,56.6,82.2,52.1C82.2,52.1,82.2,52.1,82.2,52.1"/>
	<path class="st21" d="M81.4,63.4c0,0.2-0.1,0.4-0.1,0.6c0,0.1,0.1,0.4,0.1,0.8C81.4,64.3,81.4,63.8,81.4,63.4"/>
	<path class="st20" d="M81.4,63.4c0,0.2-0.1,0.4-0.1,0.6c0,0,0,0,0,0C81.4,63.8,81.4,63.6,81.4,63.4C81.4,63.4,81.4,63.4,81.4,63.4"
		/>
	<path class="st22" d="M47.8,52.3c-0.2,0.1-0.2,0.2-0.2,0.4l0.6,6.6c0,0.1,0,0.3,0,0.6c0,0.9,1.3,4.8,1.4,7.1c1.5,3,2.2,4.9,4.5,7.5
		c2.9,3.2,4.8,3.5,9,3.5h1c-6.4,0-12-4.3-13.6-10.6C49.1,61.8,48.2,56.8,47.8,52.3 M82.2,52.1c-0.4,4.4-1.3,9.5-2.7,15.2
		C78,73.6,72.4,78,65.9,78h3.6c4-1.5,4.1-1.3,7-4.5c2.4-2.5,3.5-4.7,4-8c0-0.1,0.4-1.6,0.7-1.6c0,0,0.1,0,0.1,0.1
		c0-0.2,0.1-0.4,0.1-0.6c0.1-1.2,0.1-2.1,0.1-2.9c0-0.6,0-1,0-1.2l1-6.6C82.6,52.4,82.5,52.2,82.2,52.1"/>
	<path d="M65.3,64.5c-2.6,0-5.2-0.7-7.9-2c-0.2-0.1-0.3-0.4-0.2-0.7c0.1-0.2,0.4-0.3,0.7-0.2c5.1,2.6,10,2.6,14.5,0
		c0.2-0.1,0.5,0,0.7,0.2c0.1,0.2,0,0.5-0.2,0.7C70.4,63.8,67.8,64.5,65.3,64.5z"/>
	<path class="st8" d="M67.6,58L65,60c0,0-2.2-1.3-2.9-2"/>
	<path d="M65,60.6l-0.3-0.2c-0.1-0.1-2.2-1.3-3-2.1c-0.2-0.2-0.2-0.5,0-0.7c0.2-0.2,0.5-0.2,0.7,0c0.6,0.5,2,1.4,2.6,1.8l2.3-1.8
		c0.2-0.2,0.5-0.1,0.7,0.1c0.2,0.2,0.1,0.5-0.1,0.7L65,60.6z"/>
	<path class="st23" d="M60.3,51.7c0.2-0.2,0.3-0.4,0.3-0.7s-0.1-0.5-0.3-0.7c-0.2-0.2-0.4-0.3-0.7-0.3s-0.5,0.1-0.7,0.3
		c-0.2,0.2-0.3,0.4-0.3,0.7s0.1,0.5,0.3,0.7c0.2,0.2,0.4,0.3,0.7,0.3S60.1,51.9,60.3,51.7z"/>
	<path class="st23" d="M71.3,51.7c0.2-0.2,0.3-0.4,0.3-0.7s-0.1-0.5-0.3-0.7c-0.2-0.2-0.4-0.3-0.7-0.3s-0.5,0.1-0.7,0.3
		c-0.2,0.2-0.3,0.4-0.3,0.7s0.1,0.5,0.3,0.7c0.2,0.2,0.4,0.3,0.7,0.3S71.1,51.9,71.3,51.7z"/>
	<path d="M65.9,79h-1.8c-6.9,0-12.9-4.7-14.5-11.3c-4.1-16.4-4-28.3,0.6-35.4l0.1-0.1c1.8-2,5.9-3.5,11.2-4c9.2-1,17,1.2,19.5,5.4
		c3.7,6.3,3.5,17.7-0.4,33.9C78.9,74.3,72.9,79,65.9,79z M50.9,32.9c-4.3,6.8-4.5,18.4-0.4,34.5C52.1,73.7,57.7,78,64.1,78h1.8
		c6.5,0,12.1-4.4,13.6-10.7c3.9-15.9,4-27.1,0.5-33.1c-2.3-3.9-9.8-5.9-18.6-5C56.6,29.8,52.5,31.2,50.9,32.9z"/>
	<path class="st24" d="M72.6,35.1c-2.4,0.5-4.2,1.4-8.5,1.4s-4.8-1-7-1.4c-2.2-0.4-4.7,0.7-6,3.7s-1.3,8.2-1.5,13.7h-2.5
		c-0.8-10.2-0.8-16.3,0-18.3c1.2-2.9,8.2-9,17.1-9.1c8.9-0.1,15.1,5.9,17.3,9.3c2.3,3.4,0.5,13.9,1.1,19h-2c0-3.3,0.6-11.1-1-14.7
		C77.9,35.1,74.9,34.5,72.6,35.1z"/>
	<path d="M82.6,54h-2c-0.3,0-0.5-0.2-0.5-0.5c0-0.6,0-1.4,0-2.3c0.1-3.7,0.3-9.4-1-12.2c-1.8-4-5.1-3.7-6.4-3.4l0,0
		c-0.6,0.1-1.1,0.3-1.7,0.4c-1.8,0.5-3.6,1-6.9,1c-2.9,0-4.2-0.5-5.3-0.9c-0.6-0.2-1.1-0.4-1.8-0.5c-2.2-0.4-4.3,0.9-5.5,3.4
		c-1.2,2.6-1.3,7.1-1.4,11.9l0,1.6c0,0.3-0.2,0.5-0.5,0.5h-2.5c-0.3,0-0.5-0.2-0.5-0.5c-0.8-10.4-0.8-16.5,0-18.5
		c1.3-3.2,8.4-9.3,17.5-9.4c11-0.1,17.1,8.6,17.8,9.6c1.5,2.3,1.4,7.4,1.2,12.3c-0.1,2.6-0.2,5.1,0,6.9c0,0.1,0,0.3-0.1,0.4
		C82.8,53.9,82.7,54,82.6,54z M81.1,53H82c-0.1-1.8-0.1-4.1,0-6.5c0.2-4.5,0.4-9.6-1-11.7c-0.6-0.9-6.4-9.1-16.7-9.1l-0.2,0
		c-8.5,0.1-15.4,5.8-16.6,8.7c-0.7,1.8-0.7,7.7,0,17.6h1.6l0-1.1c0.1-4.9,0.3-9.6,1.5-12.3c1.3-2.9,3.9-4.5,6.6-4
		c0.8,0.1,1.4,0.4,2,0.6c1.1,0.4,2.3,0.8,5,0.8c3.1,0,4.9-0.5,6.6-1c0.6-0.2,1.1-0.3,1.8-0.4c3.3-0.7,6.1,0.7,7.5,4
		c1.4,3.1,1.2,8.8,1.1,12.7C81.1,51.9,81.1,52.5,81.1,53z M72.6,35.1L72.6,35.1L72.6,35.1z"/>
</g>
</svg>
