<?xml version="1.0" encoding="utf-8"?>
<!-- Generator: Adobe Illustrator 22.0.1, SVG Export Plug-In . SVG Version: 6.00 Build 0)  -->
<!DOCTYPE svg PUBLIC "-//W3C//DTD SVG 1.1//EN" "http://www.w3.org/Graphics/SVG/1.1/DTD/svg11.dtd">
<svg version="1.1" id="Layer_1" xmlns="http://www.w3.org/2000/svg" xmlns:xlink="http://www.w3.org/1999/xlink" x="0px" y="0px"
	 viewBox="0 0 130 270" style="enable-background:new 0 0 130 270;" xml:space="preserve">
<style type="text/css">
	.st0{fill:#32CFCA;}
	.st1{fill:#0070D2;}
	.st2{fill:#02539A;}
	.st3{fill:#FFD9B3;}
	.st4{fill:#EAAF75;}
	.st5{fill:#125896;}
	.st6{fill:#222222;}
	.st7{fill:#F9D2B7;}
	.st8{fill:#E2A981;}
	.st9{fill:#F1C1A0;}
	.st10{fill:#FADDC8;}
	.st11{fill:#FD8261;}
	.st12{fill:#FFFFFF;}
	.st13{fill:#E5BB9D;}
</style>
<title>diana</title>
<desc>Created with Sketch.</desc>
<g>
	<path class="st0" d="M57.8,209L57.8,209c2.1,0,3.8,1.7,3.8,3.8v40.5c0,2.1-1.7,3.8-3.8,3.8c-2.1,0-3.8-1.7-3.8-3.8v-40.5
		C53.9,210.7,55.7,209,57.8,209z"/>
	<path d="M57.8,209.5v0.5c1.5,0,2.8,1.2,2.8,2.8v40.5c0,1.5-1.2,2.8-2.8,2.8c-1.5,0-2.8-1.2-2.8-2.8v-40.5c0-1.5,1.2-2.8,2.8-2.8
		V209.5V209c-2.1,0-3.8,1.7-3.8,3.8v40.5c0,2.1,1.7,3.8,3.8,3.8s3.8-1.7,3.8-3.8v-40.5c0-2.1-1.7-3.8-3.8-3.8V209.5z"/>
	<path class="st0" d="M72.8,209L72.8,209c2.1,0,3.8,1.7,3.8,3.8v40.5c0,2.1-1.7,3.8-3.8,3.8c-2.1,0-3.8-1.7-3.8-3.8v-40.5
		C68.9,210.7,70.6,209,72.8,209z"/>
	<path d="M72.8,209.5v0.5c1.5,0,2.8,1.2,2.8,2.8v40.5c0,1.5-1.2,2.8-2.8,2.8c-1.5,0-2.8-1.2-2.8-2.8v-40.5c0-1.5,1.2-2.8,2.8-2.8
		V209.5V209c-2.1,0-3.8,1.7-3.8,3.8v40.5c0,2.1,1.7,3.8,3.8,3.8c2.1,0,3.8-1.7,3.8-3.8v-40.5c0-2.1-1.7-3.8-3.8-3.8V209.5z"/>
	<path d="M57.7,264.3c3.5-1.8,5.2-6.1,3.8-9.8l-0.4-1.1c-1.4-3.7-5.1-4.7-8.3-2.4l-12,8.9c-3.2,2.3-2.9,5.8,0.5,7.6l-1.5-0.8
		c3.4,1.9,9.1,2,12.6,0.2L57.7,264.3z"/>
	<path class="st0" d="M59.9,253.5l-6.5,6c-0.7-2.7-3.2-3.5-7.5-2.5c4-3,6.5-4.5,7.5-4.5L59.9,253.5z"/>
	<path d="M73.9,265.8c-3.8-2-5.9-6.9-4.7-11l0.6-2c1.2-4.1,4.6-5,7.7-2.1l12.1,11.6c3.1,2.9,2.3,6.4-1.8,7.7l3.7-1.2
		c-4.1,1.3-10.4,0.7-14.2-1.3L73.9,265.8z"/>
	<path class="st0" d="M70.9,252l5,7.5c0.7-2.7,3.2-3.5,7.5-2.5c-4-3-6.2-4.8-6.5-5.5L70.9,252z"/>
	<path class="st1" d="M84.2,189v-4.8c0-10.6-8.6-19.1-19.1-19.1c-10.6,0-19.1,8.6-19.1,19.1v5.7V222h38.3v-33H84.2z"/>
	<path d="M46.4,221.5v0.5h37.8v-37.9c0-10.6-8.6-19.1-19.1-19.1c-10.6,0-19.1,8.6-19.1,19.1V222h0.4V221.5h0.5v-37.4
		c0-5,2-9.5,5.3-12.8C55.5,168,60,166,65,166s9.5,2,12.8,5.3s5.3,7.8,5.3,12.8V221H46.4V221.5h0.5H46.4z"/>
	<polyline class="st2" points="49.9,177 49.9,222 51.9,222 51.9,177 	"/>
	<polyline class="st2" points="53.9,177 53.9,222 55.9,222 55.9,177 	"/>
	<polyline class="st2" points="73.9,177 73.9,222 75.9,222 75.9,177 	"/>
	<polyline class="st2" points="63.9,177 63.9,222 65.9,222 65.9,177 	"/>
	<polyline class="st2" points="58.9,177 58.9,222 60.9,222 60.9,177 	"/>
	<polyline class="st2" points="68.9,177 68.9,222 70.9,222 70.9,177 	"/>
	<polyline class="st2" points="77.9,177 77.9,222 79.9,222 79.9,177 	"/>
	<path class="st3" d="M49.4,179.8l4.1,10.1c0.3,0.5,0.3,1,0.2,1.5c-0.2,0.5-0.6,0.8-1.1,1s-1,0.3-1.5,0.1c-0.4-0.2-0.7-0.6-1-1.1
		l-2.8-6.3l-0.5,2.6l4.1,9.2c0.2,0.5,0.2,0.9-0.1,1.4c-0.1,0.5-0.4,0.9-0.9,1.1c-0.5,0.2-1,0.2-1.5,0c-0.4-0.2-0.7-0.4-0.9-0.8
		c-0.4,0.1-0.7,0.1-1.1,0c-0.4-0.2-0.7-0.4-0.9-0.7c-0.4,0.1-0.8,0-1.2-0.1c-0.4-0.2-0.7-0.5-0.9-0.9l-4.7-10.7
		c-0.9-1.9,1.2-8.1,1.3-8.5L49.4,179.8z"/>
	<path d="M49.4,179.8l-0.5,0.2l4.1,10.1l0,0c0.1,0.3,0.2,0.5,0.2,0.7c0,0.1,0,0.2-0.1,0.4l0.5,0.1l-0.5-0.2
		c-0.2,0.4-0.4,0.6-0.8,0.7l0,0c-0.2,0.1-0.5,0.2-0.7,0.2c-0.1,0-0.3,0-0.4-0.1l-0.1,0.5l0.3-0.4c-0.3-0.2-0.6-0.4-0.8-0.9l-0.5,0.2
		l0.5-0.2l-2.8-6.3c-0.1-0.2-0.3-0.3-0.5-0.3c-0.2,0-0.4,0.2-0.4,0.4l-0.5,2.6c0,0.1,0,0.2,0,0.3l4.1,9.2l0,0
		c0.1,0.1,0.1,0.3,0.1,0.4c0,0.2,0,0.3-0.1,0.5l-0.1,0.1c0,0.2-0.1,0.3-0.2,0.4c-0.1,0.1-0.2,0.2-0.4,0.3l0,0
		c-0.2,0.1-0.3,0.1-0.5,0.1c-0.2,0-0.4,0-0.6-0.1l-0.2,0.5l0.2-0.4c-0.3-0.2-0.5-0.3-0.7-0.6c-0.1-0.2-0.3-0.3-0.5-0.2
		c-0.1,0-0.2,0-0.4,0c-0.2,0-0.3,0-0.5-0.1l-0.1,0.5l0.2-0.5c-0.3-0.1-0.5-0.3-0.6-0.5s-0.3-0.3-0.5-0.3c-0.1,0-0.2,0-0.3,0
		c-0.2,0-0.4,0-0.5-0.1l-0.2,0.5l0.2-0.4c-0.3-0.1-0.5-0.4-0.7-0.7l-0.5,0.2l0.5-0.2l-4.7-10.7l0,0c-0.1-0.2-0.2-0.6-0.2-1.1
		c0-1.2,0.3-2.9,0.7-4.3c0.2-0.7,0.4-1.3,0.5-1.8c0.1-0.2,0.1-0.4,0.2-0.6c0-0.2,0.1-0.2,0.1-0.3l-0.5-0.1l-0.1,0.5l9.1,2.1
		L49.4,179.8l-0.5,0.2L49.4,179.8l0.1-0.5l-9.1-2.1c-0.1,0-0.3,0-0.4,0.1c-0.1,0.1-0.2,0.2-0.2,0.3l0,0c0,0.1-0.1,0.4-0.3,0.9
		c-0.4,1.5-1.2,4.3-1.2,6.3c0,0.6,0.1,1.1,0.3,1.6l0.5-0.2l-0.5,0.2l4.7,10.7l0,0c0.2,0.5,0.6,0.9,1.1,1.2l0,0
		c0.3,0.1,0.6,0.2,0.9,0.2c0.2,0,0.3,0,0.5-0.1l-0.1-0.5l-0.4,0.2c0.2,0.5,0.6,0.8,1.1,1l0,0c0.2,0.1,0.5,0.1,0.8,0.1
		c0.2,0,0.4,0,0.5-0.1l-0.1-0.5l-0.4,0.3c0.3,0.4,0.6,0.7,1.1,0.9l0,0c0.3,0.1,0.7,0.2,1,0.2c0.3,0,0.6-0.1,0.9-0.2l-0.2-0.5
		l0.2,0.5c0.3-0.1,0.6-0.3,0.8-0.6c0.2-0.3,0.3-0.6,0.4-0.9l-0.5-0.1l0.4,0.2c0.2-0.3,0.3-0.6,0.3-1c0-0.3-0.1-0.6-0.2-0.8l0,0
		l-4-9.1l0.2-0.9l2.1,4.8l0,0c0.3,0.6,0.7,1,1.2,1.3H51c0.2,0.1,0.5,0.1,0.7,0.1c0.4,0,0.8-0.1,1.1-0.2l-0.2-0.5l0.2,0.5
		c0.6-0.2,1.1-0.7,1.3-1.2v-0.1c0.1-0.2,0.1-0.4,0.1-0.7c0-0.4-0.1-0.8-0.3-1.2l-0.4,0.2l0.5-0.2l-4.1-10.1
		c-0.1-0.2-0.2-0.3-0.3-0.3L49.4,179.8z"/>
	<path class="st4" d="M39.5,183.5c-0.4,2-0.6,2.5-0.6,1.5c-0.1,0.4,0,0.8,0.2,1.2l4.7,10.5c0.2,0.4,0.5,0.7,0.9,0.9s0.7,0.2,1.1,0.1
		c-0.1-0.1-0.2-0.2-0.2-0.3c0,0.1,0.1,0.2,0.2,0.3c0.2,0.3,0.5,0.6,0.8,0.7c0.3,0.1,0.7,0.1,1.1,0l-0.2-0.1l-4.1-9.3l-2.4-1.6
		L39.5,183.5z"/>
	<path class="st3" d="M40,179.4l2.8-33.8c0.3-3.1,3.6-6,7.9-6.9l-5.6,41"/>
	<path d="M40.5,179.4l2.8-33.8c0.1-1.4,0.9-2.8,2.3-3.9c1.3-1.2,3.2-2.1,5.3-2.5l-0.1-0.5l-0.5-0.1l-5.6,41c0,0.3,0.2,0.5,0.4,0.6
		c0.2,0.1,0.5-0.2,0.6-0.4l5.7-41.8l-0.7,0.1c-2.3,0.5-4.2,1.5-5.7,2.8c-1.5,1.3-2.5,2.9-2.6,4.6l-2.8,33.8c0,0.3,0.2,0.5,0.5,0.5
		C40.4,179.8,40.5,179.7,40.5,179.4L40.5,179.4z"/>
	<path class="st3" d="M79.6,180.9l-2.3,10.7c-0.2,0.5-0.1,1,0.1,1.5c0.3,0.4,0.7,0.7,1.2,0.8s1,0.1,1.5-0.1c0.4-0.3,0.6-0.7,0.8-1.2
		l1.6-6.6l0.9,2.5l-2.4,9.8c-0.1,0.5,0,0.9,0.3,1.3c0.2,0.5,0.5,0.8,1.1,0.9c0.5,0.1,1,0,1.5-0.3c0.3-0.2,0.6-0.5,0.7-0.9
		c0.4,0,0.7-0.1,1.1-0.2c0.4-0.2,0.6-0.5,0.7-0.9c0.4,0,0.8-0.1,1.1-0.3c0.4-0.3,0.6-0.6,0.7-1.1l2.8-11.3c0.6-2-2.6-7.8-2.7-8.1
		L79.6,180.9z"/>
	<path d="M79.6,180.9l-0.5-0.1l-2.3,10.7l0.5,0.1l-0.5-0.1c-0.1,0.3-0.1,0.5-0.1,0.8c0,0.4,0.1,0.7,0.2,1v0.1c0.4,0.5,0.9,0.9,1.5,1
		l0.1-0.5l-0.1,0.5c0.2,0.1,0.4,0.1,0.7,0.1c0.4,0,0.8-0.1,1.1-0.2l0.1-0.1c0.5-0.4,0.8-0.9,1-1.5l0,0l1.3-5.1l0.3,0.8l-2.4,9.7l0,0
		c0,0.2-0.1,0.3-0.1,0.5c0,0.4,0.2,0.9,0.5,1.2l0.4-0.3l-0.5,0.2c0.1,0.3,0.3,0.6,0.6,0.8c0.3,0.2,0.6,0.4,0.9,0.4l0.1-0.5l-0.1,0.5
		c0.2,0,0.4,0.1,0.5,0.1c0.5,0,0.9-0.2,1.3-0.4l0,0c0.4-0.3,0.7-0.7,0.9-1.1l-0.5-0.2v0.5l0,0c0.4,0,0.9-0.1,1.2-0.3l0,0
		c0.4-0.3,0.8-0.7,0.9-1.2l-0.2-0.3v0.5h0.1c0.5,0,0.9-0.1,1.3-0.4l0,0c0.4-0.3,0.8-0.8,0.9-1.4l0,0l2.8-11.3l-0.5-0.1l0.5,0.1
		c0.1-0.2,0.1-0.5,0.1-0.7c0-0.7-0.2-1.5-0.4-2.3c-0.4-1.2-1-2.5-1.5-3.6c-0.2-0.5-0.5-1-0.6-1.3c-0.1-0.2-0.2-0.3-0.2-0.4l-0.1-0.1
		l0,0l0,0l0,0l0,0l0,0l0,0l0,0c-0.1-0.1-0.1-0.2-0.3-0.3c-0.1-0.1-0.3,0-0.4,0l-8.6,3.7c-0.1,0.1-0.3,0.2-0.3,0.4L79.6,180.9
		l0.2,0.5l8.6-3.7l-0.2-0.5l-0.5,0.2c0,0.1,0.1,0.2,0.2,0.4c0.3,0.6,1,1.9,1.5,3.3c0.6,1.4,1.1,2.9,1.1,3.8c0,0.2,0,0.3,0,0.4l0,0
		l-2.8,11.3l0.5,0.1l-0.5-0.1c-0.1,0.4-0.3,0.6-0.5,0.8l0.3,0.4l-0.3-0.4c-0.2,0.2-0.5,0.2-0.8,0.2l0,0c-0.2,0-0.4,0.1-0.5,0.4
		c-0.1,0.2-0.2,0.4-0.5,0.6l0.3,0.4l-0.2-0.4c-0.2,0.1-0.5,0.2-0.8,0.2l0,0c-0.2,0-0.4,0.1-0.5,0.3c-0.1,0.3-0.3,0.5-0.6,0.7
		l0.3,0.4l-0.3-0.4c-0.3,0.2-0.5,0.3-0.8,0.3c-0.1,0-0.2,0-0.3,0l0,0c-0.2,0-0.4-0.1-0.5-0.2c-0.1-0.1-0.2-0.2-0.3-0.4l-0.1-0.1
		c-0.2-0.2-0.2-0.4-0.2-0.6c0-0.1,0-0.2,0-0.3l0,0l2.4-9.8c0-0.1,0-0.2,0-0.3l-0.9-2.5c-0.1-0.2-0.3-0.3-0.5-0.3s-0.4,0.2-0.5,0.4
		l-1.6,6.6l0.5,0.1l-0.5-0.1c-0.1,0.4-0.3,0.8-0.6,1L80,194l-0.2-0.5c-0.2,0.1-0.5,0.2-0.7,0.2c-0.1,0-0.3,0-0.4-0.1l0,0
		c-0.4-0.1-0.7-0.3-0.9-0.6l-0.4,0l0.4-0.2c-0.1-0.2-0.1-0.4-0.1-0.6c0-0.2,0-0.3,0.1-0.5l0,0l2.3-10.7L79.6,180.9l0.2,0.5
		L79.6,180.9z"/>
	<path class="st4" d="M90.1,182.8c0.7,1.9,1,2.4,0.9,1.3c0.1,0.3,0.2,0.7,0,1.2l-2.8,11.2c-0.1,0.5-0.4,0.8-0.7,1.1
		c-0.3,0.2-0.7,0.3-1.1,0.3c0.1-0.1,0.1-0.2,0.1-0.4c0,0.1-0.1,0.3-0.1,0.4c-0.1,0.4-0.3,0.6-0.7,0.9c-0.3,0.2-0.7,0.2-1,0.2
		l0.1-0.2l2.4-9.8l2-2L90.1,182.8z"/>
	<path class="st3" d="M89.4,179.8L86.6,146c-0.3-3.1-3.6-6-7.9-6.9l5.6,41"/>
	<path d="M89.9,179.8L87.1,146c-0.1-1.7-1.1-3.3-2.6-4.6c-1.5-1.3-3.5-2.3-5.7-2.8l-0.7-0.1l5.7,41.7c0,0.3,0.3,0.5,0.6,0.4
		c0.3,0,0.5-0.3,0.4-0.6l-5.6-41l-0.5,0.1l-0.1,0.5c2.1,0.4,3.9,1.4,5.3,2.5c1.3,1.2,2.1,2.6,2.3,3.9l2.8,33.8
		c0,0.3,0.3,0.5,0.5,0.5C89.8,180.3,89.9,180,89.9,179.8L89.9,179.8z"/>
	<path class="st1" d="M82,148v1.3l0,0c0,0.3,0,0.6,0,0.9c0,8.7-7.1,15.8-15.8,15.8h-2.5c-8.7,0-15.8-7.1-15.8-15.8
		c0-0.3,0-0.6,0-0.9l0,0v-2.5c-0.5,0.1-1,0.2-1.5,0.2h-0.5c-3.3,0-6-2.7-6-6v-9c0-3.3,2.7-6,6-6h0.5c1.6,0,3,0.6,4.1,1.6
		c1.2-1,2.8-1.6,4.5-1.6h20.1c1.8,0,3.3,0.6,4.6,1.7c0.7-0.4,1.7-0.7,2.7-0.7h0.5c3.3,0,6,2.7,6,6v9c0,3.3-2.7,6-6,6h-0.5
		C82.3,148,82.2,148,82,148z"/>
	<path d="M48.4,148.8h-0.5v0.5h0.5V148.8h-0.5H48.4v-0.5h-0.5h-0.5v1v0.5h1h0.5v-1v-0.5h-0.5V148.8z M81.5,148.8v0.5H82v-0.5H81.5
		v0.5V148.8H81v0.5v0.5h1h0.5v-1v-0.5h-1H81v0.5H81.5z M48.4,148.8v0.5h0.1L48.4,148.8H48v0.5c0,0.3,0,0.6,0,0.9
		c0,8.7,7.1,15.8,15.8,15.8h2.5c8.7,0,15.8-7.1,15.8-15.8c0-0.3,0-0.6,0-0.9v-0.5h-0.5v0.5h0.1h0.5v-1.8h-0.5v0.5h0.5l0,0l0,0
		c0.1,0,0.3,0,0.4,0h0.5c3.3,0,6-2.7,6-6v-9c0-3.3-2.7-6-6-6h-0.7c-1,0-2,0.2-2.8,0.7l0,0l0,0c-1.3-1.1-2.9-1.7-4.6-1.7H54.9
		c-1.6,0-3.2,0.6-4.5,1.6l0,0l0,0l0,0c-1.1-1-2.5-1.6-4.1-1.6h-0.5c-3.3,0-6,2.7-6,6v9c0,3.3,2.7,6,6,6h0.6c0.5,0,1-0.1,1.5-0.2l0,0
		l0,0v2.5h0.5V148.8h0.5v-3.3l-1.3,0.3l0,0c-0.4,0.1-0.8,0.2-1.3,0.2h-0.5c-1.4,0-2.6-0.6-3.5-1.5s-1.5-2.2-1.5-3.5v-9
		c0-1.4,0.6-2.6,1.5-3.5c0.9-0.9,2.2-1.5,3.5-1.5h0.6c1.3,0,2.5,0.5,3.4,1.3l0.3,0.3l0.3,0.3l0.7-0.6l0,0c1.1-0.9,2.4-1.4,3.8-1.4
		H75c1.5,0,2.8,0.5,3.9,1.5l0.3,0.2l0.3,0.2l0.6-0.3c0.7-0.4,1.5-0.6,2.4-0.6h0.5c1.4,0,2.6,0.6,3.5,1.5c0.9,0.9,1.5,2.2,1.5,3.5v9
		c0,1.4-0.6,2.6-1.5,3.5s-2.2,1.5-3.5,1.5h-0.6c-0.1,0-0.2,0-0.3,0l0,0h-0.5h-0.5v1.9h0.5v-0.5h-0.1H81l0.1,1.1l0,0
		c0,0.3,0,0.5,0,0.8c0,4.1-1.7,7.8-4.3,10.5c-2.7,2.7-6.4,4.3-10.5,4.3h-2.5c-4.1,0-7.8-1.7-10.5-4.3c-2.7-2.7-4.3-6.4-4.3-10.5
		c0-0.3,0-0.5,0-0.8v-0.5v-0.5h-0.6V148.8h0.5H48.4z"/>
	<polyline class="st2" points="55.9,127 55.9,163 57.9,163 57.9,127 	"/>
	<polyline class="st2" points="51.9,127 51.9,161 53.9,161 53.9,127 	"/>
	<path class="st2" d="M48.9,129v26c0,0.6,0.4,1,1,1s1-0.4,1-1v-26c0-0.6-0.4-1-1-1S48.9,128.4,48.9,129"/>
	<path class="st2" d="M78.9,129v26c0,0.6,0.4,1,1,1s1-0.4,1-1v-26c0-0.6-0.4-1-1-1S78.9,128.4,78.9,129"/>
	<polyline class="st2" points="75.9,127 75.9,161 77.9,161 77.9,127 	"/>
	<polyline class="st2" points="71.9,127 71.9,163 73.9,163 73.9,127 	"/>
	<rect x="52.9" y="162" class="st5" width="24" height="7"/>
	<polygon points="53.4,162.5 53.4,163 75.9,163 75.9,168 53.9,168 53.9,162.5 53.4,162.5 53.4,163 53.4,162.5 52.9,162.5 52.9,169 
		76.9,169 76.9,162 52.9,162 52.9,162.5 	"/>
	<path class="st6" d="M49.2,113.6c10.2,14.4,14.6,10.8,29.2,17c0-8.4,1.2-12.1,4.6-30.2c0.9-5,0.1-6.4,0.1-6.4
		C82,83,72.3,73.8,63.8,73.4c0,0-0.9,0,0,0C53.4,73.8,44.3,83,44.3,94C44.3,94,41.3,102.5,49.2,113.6"/>
	<path d="M78.3,131.1h-0.2c-4.3-1.8-7.7-2.8-10.6-3.6c-7.2-2-11.5-3.3-18.8-13.5c-7.6-10.7-5.3-19-5-20c0.1-10.8,8.9-20.2,19.4-21
		h0.2h0.4l0,0c8.4,0.4,18.6,9.4,19.7,20.9c0.2,0.5,0.7,2.2-0.1,6.7c-0.7,3.9-1.4,7.2-1.9,10c-1.9,9.9-2.7,13.6-2.7,20.2
		c0,0.2-0.1,0.3-0.2,0.4C78.5,131,78.4,131.1,78.3,131.1z M49.7,113.3c7.1,10,11.3,11.2,18.2,13.2c2.8,0.8,6,1.7,10.1,3.4
		c0.1-6.2,0.8-10,2.7-19.6c0.5-2.8,1.2-6,1.9-10c0.9-4.7,0.2-6.1,0.2-6.1L82.6,94c-1.1-11-10.8-19.7-18.8-20
		c-10.3,0.4-19,9.6-19,20.1v0.2C44.8,94.2,42,102.6,49.7,113.3z"/>
	<path class="st6" d="M84.1,82.3c0.3,18.3-9.1,33.3-21.1,33.5S41.2,101.4,40.8,83S83.8,64,84.1,82.3"/>
	<path d="M62.8,116.8c-6,0-11.7-3.5-16.1-9.9c-4.3-6.4-6.8-14.8-6.9-23.9c-0.1-4.6,2.3-8.4,6.9-11.2c8.4-5,22.6-5.3,31.1-0.5
		c4.7,2.6,7.2,6.4,7.3,10.9c0.2,9.1-2,17.6-6.1,24.1c-4.2,6.6-9.8,10.3-16,10.4C62.9,116.8,62.8,116.8,62.8,116.8z M62.8,69.9
		c-5.5,0-11.1,1.2-15.2,3.7c-2.8,1.7-6,4.6-5.9,9.4c0.2,8.7,2.5,16.8,6.6,22.8c4,5.9,9.2,9.1,14.6,9s10.5-3.5,14.3-9.5
		c3.9-6.2,5.9-14.3,5.8-23c-0.1-4.8-3.4-7.7-6.3-9.2C73,71,67.9,69.9,62.8,69.9z"/>
	<path class="st7" d="M63.9,105.2c2.8,0,5,2.2,5,5v16.3c0,2.8-2.2,5-5,5s-5-2.2-5-5v-16.3C58.9,107.4,61.1,105.2,63.9,105.2"/>
	<path d="M63.9,131.4c-2.8,0-5-2.2-5-5v-16.2c0-2.8,2.2-5,5-5s5,2.2,5,5v16.3C68.9,129.2,66.6,131.4,63.9,131.4 M63.9,106.2
		c-2.2,0-4,1.8-4,4v16.3c0,2.2,1.8,4,4,4s4-1.8,4-4v-16.3C67.9,108,66.1,106.2,63.9,106.2"/>
	<path class="st8" d="M64,95.8h1.1c2.2,0,4,1.8,4,4v18.3c0,2.2-1.8,4-4,4h-1.8c-2.2,0-4-1.8-4-4v-0.2L60,99.6
		C60.1,97.5,61.8,95.8,64,95.8"/>
	<path class="st8" d="M80.8,95.8c1.5,0,2.8,1.2,2.8,2.8c0,1.5-1.2,2.8-2.8,2.8s-2.8-1.2-2.8-2.8C78.1,97.1,79.3,95.8,80.8,95.8z"/>
	<path class="st7" d="M47.9,94.3c-3.3,0-6,2.1-6,4.6s2.7,4.6,6,4.6"/>
	<path d="M47.9,104c-3.6,0-6.5-2.3-6.5-5.1s2.9-5.1,6.5-5.1v1c-3,0-5.5,1.9-5.5,4.1s2.5,4.1,5.5,4.1V104z"/>
	<path class="st9" d="M79.3,94.3c3.3,0,6,2.1,6,4.6s-2.7,4.6-6,4.6"/>
	<path d="M79.3,104v-1c3,0,5.5-1.9,5.5-4.1s-2.5-4.1-5.5-4.1v-1c3.6,0,6.5,2.3,6.5,5.1S82.9,104,79.3,104z"/>
	<path class="st8" d="M80.8,95.8c1.5,0,2.8,1.2,2.8,2.8c0,1.5-1.2,2.8-2.8,2.8s-2.8-1.2-2.8-2.8C78.1,97.1,79.3,95.8,80.8,95.8z"/>
	<circle class="st8" cx="46.5" cy="98.6" r="2.8"/>
	<path class="st10" d="M74,85.6c4.1,3.1,6.8,8.1,6.8,13.7v2.5c0,9.5-7.7,17.2-17.2,17.2c-9.5,0-17.2-7.7-17.2-17.2v-2.5
		c0-2.7,0.6-5.2,1.7-7.4c3.6-1.4,6.3-4.2,7.1-7.6c0.1-0.1,0.2-0.1,0.3-0.2c3.1,1.4,7.1,2.3,11.4,2.3C69.4,86.4,71.8,86.1,74,85.6"/>
	<path d="M63.6,119.5c-9.8,0-17.7-7.9-17.7-17.7v-2.5c0-2.7,0.6-5.3,1.7-7.7l0.1-0.2l0.2-0.1c3.5-1.3,6-4,6.8-7.2l0.1-0.2l0.7-0.4
		l0.2,0.1c3.2,1.5,7.1,2.2,11.2,2.2c2.4,0,4.7-0.3,7-0.8l0.2-0.1l0.2,0.1c4.4,3.4,7,8.5,7,14.1v2.5
		C81.3,111.5,73.3,119.5,63.6,119.5z M48.4,92.3c-1,2.2-1.6,4.6-1.6,7v2.5c0,9.2,7.5,16.7,16.7,16.7s16.8-7.5,16.8-16.7v-2.5
		c0-5.2-2.3-10-6.4-13.2c-2.2,0.5-4.5,0.8-7,0.8c-4.1,0-8.1-0.8-11.3-2.2C54.8,88,52,90.8,48.4,92.3z"/>
	<path class="st11" d="M67.9,109.7c0,0-4.5,0-8.3,0c0,1.8,2.1,2.8,4.2,2.8C65.8,112.5,67.9,111.6,67.9,109.7"/>
	<path class="st12" d="M59.5,107.9c0,3.6,8.3,3.7,8.3,0C67.9,107.9,63.4,107.9,59.5,107.9z"/>
	<path d="M63.8,111.1c-1.2,0-2.3-0.3-3.1-0.8c-1-0.6-1.6-1.5-1.6-2.5v-0.5h9.4v0.5C68.4,110.1,66,111.1,63.8,111.1z M60.1,108.4
		c0.6,1.9,4.5,2.2,6.2,1.1c0.5-0.3,0.8-0.7,1-1.1H60.1z"/>
	<circle cx="54.8" cy="98.3" r="1"/>
	<circle cx="71.5" cy="98.3" r="1"/>
	<path class="st13" d="M66,104c0,0-2.2,2-4.5,0"/>
	<path d="M63.8,105.4c-0.8,0-1.7-0.3-2.5-1c-0.2-0.2-0.2-0.5,0-0.7s0.5-0.2,0.7,0c1.9,1.7,3.7,0.1,3.8,0c0.2-0.2,0.5-0.2,0.7,0
		s0.2,0.5,0,0.7C65.8,104.9,64.8,105.4,63.8,105.4z"/>
	<path class="st6" d="M78.9,130c-7.4,8.7-7.9,17.1-1.5,25.3c6.5,8.2,8.9,12.8,7.4,13.8c5-9.7,6.2-16.6,3.7-20.7
		C88.4,148.2,85.2,142,78.9,130z"/>
</g>
</svg>
