<?xml version="1.0" encoding="utf-8"?>
<!-- Generator: Adobe Illustrator 22.0.1, SVG Export Plug-In . SVG Version: 6.00 Build 0)  -->
<!DOCTYPE svg PUBLIC "-//W3C//DTD SVG 1.1//EN" "http://www.w3.org/Graphics/SVG/1.1/DTD/svg11.dtd">
<svg version="1.1" id="Layer_1" xmlns="http://www.w3.org/2000/svg" xmlns:xlink="http://www.w3.org/1999/xlink" x="0px" y="0px"
	 viewBox="0 0 130 270" style="enable-background:new 0 0 130 270;" xml:space="preserve">
<style type="text/css">
	.st0{fill:#FF0000;}
	.st1{fill:#7D7A9C;}
	.st2{fill:#55517F;}
	.st3{fill:#D6CEDC;}
	.st4{fill:#F7F7F7;}
	.st5{fill:#8B572A;}
	.st6{fill:#BEBCD8;}
	.st7{fill:#FFCC00;}
	.st8{fill:#FF6699;}
	.st9{fill:#990053;}
</style>
<g>
	<path class="st0" d="M64.5,235.4L64.5,235.4L64.5,235.4L64.5,235.4h-0.2l0,0l0,0l0,0l-0.2-0.1l-0.1-0.2l0,0l0,0v-0.2v-11.2
		c0-0.3,0.2-0.5,0.5-0.5s0.5,0.2,0.5,0.5v0.6c0.2,0.1,0.4,0.3,0.4,0.5l-0.4,10v0.2l-0.1,0.2l-0.2,0.1l0,0l0,0L64.5,235.4z"/>
	<path d="M71.2,239.3L71.2,239.3l-12.3-0.5c-0.3,0-0.5-0.2-0.5-0.5s0.2-0.5,0.5-0.5l12.3,0.5c0.3,0,0.5,0.2,0.5,0.5
		C71.7,239,71.5,239.3,71.2,239.3z"/>
	<path class="st1" d="M67.9,209.4l15.8,12.1l3-22.5C88,190.9,81.7,194.4,67.9,209.4z"/>
	<path class="st2" d="M84.6,203.9l-3.2,17.2l-14.6-7.6C80.1,199.8,86.3,196.3,84.6,203.9z"/>
	<path d="M83.7,222c-0.1,0-0.2,0-0.3-0.1l-15.8-12.1c-0.1-0.1-0.2-0.2-0.2-0.4s0-0.3,0.1-0.4c13.5-14.7,17.1-15.4,18.7-14.7
		c1.1,0.5,1.4,2.1,1,4.7l-3,22.5c0,0.2-0.1,0.3-0.3,0.4L83.7,222z M68.6,209.4l14.7,11.2l2.9-21.7c0.3-2,0.2-3.3-0.4-3.6
		C84.7,194.8,81,195.9,68.6,209.4z"/>
	<path class="st3" d="M41.4,247.6c-0.4-0.4-0.9-0.5-1.5-0.4c-2.2,0.4-3.3,2.5-3.3,6.4c0,2.6,0.3,5.4,1.1,8.4
		c0.5,1.9,1.5,3.3,3.2,4.2c1.7,1,3.8,1.3,6.2,0.9c0.7-0.1,3-0.4,6.8-0.9c4-0.5,6.9-0.9,8.7-1.2c2.9-0.5,4.2-0.9,4.1-1.2
		c-0.1-0.4-2.4-0.6-6.9-0.8c-4.4-0.2-8-1.1-10.6-2.9c-2-1.3-3.6-3.2-4.8-5.6c-0.4-0.8-0.8-1.7-1.2-2.9c-0.5-1.4-0.8-2.2-0.9-2.4
		C42.1,248.5,41.7,247.9,41.4,247.6z"/>
	<path d="M45.1,267.8c-1.7,0-3.2-0.4-4.5-1.2c-1.7-1-2.9-2.5-3.4-4.5c-0.8-3-1.2-5.9-1.1-8.5c0-4.1,1.3-6.4,3.7-6.9
		c0.7-0.1,1.4,0.1,1.9,0.5c0.4,0.4,0.8,1,1.1,1.8c0.1,0.2,0.4,1,0.9,2.5c0.4,1.1,0.8,2.1,1.1,2.8c1.1,2.3,2.6,4.1,4.6,5.4
		c2.6,1.7,6.1,2.6,10.4,2.8c7.1,0.3,7.3,0.7,7.4,1.2c0.1,0.2,0,0.3-0.1,0.5c-0.2,0.3-0.7,0.7-4.5,1.3c-1.8,0.3-4.8,0.7-8.7,1.2
		c-3.8,0.5-6.1,0.8-6.8,0.9l0,0C46.4,267.7,45.8,267.8,45.1,267.8z M47.1,267.1L47.1,267.1L47.1,267.1z M40.3,247.7
		c-0.1,0-0.2,0-0.3,0c-1.9,0.3-2.8,2.3-2.9,5.9c0,2.6,0.3,5.4,1.1,8.3c0.5,1.7,1.4,3,2.9,3.9c1.6,1,3.6,1.2,5.8,0.9
		c0.7-0.1,2.9-0.4,6.8-0.9c4-0.5,6.9-0.9,8.7-1.2c1.5-0.2,2.4-0.4,2.9-0.6c-0.9-0.1-2.5-0.3-5.7-0.4c-4.5-0.2-8.2-1.2-10.9-3
		c-2.1-1.4-3.7-3.3-4.9-5.8c-0.4-0.8-0.8-1.8-1.2-2.9c-0.5-1.4-0.8-2.2-0.9-2.4c-0.3-0.7-0.6-1.2-0.8-1.4
		C40.8,247.8,40.6,247.7,40.3,247.7z"/>
	<path class="st3" d="M88.7,248.7c0.4-0.4,0.9-0.5,1.5-0.4c2.2,0.4,3.3,2.5,3.3,6.4c0,2.6-0.3,5.4-1.1,8.4c-0.5,1.9-1.5,3.3-3.2,4.2
		c-1.7,1-3.8,1.3-6.2,0.9c-0.7-0.1-3-0.4-6.8-0.9c-4-0.5-6.9-0.9-8.7-1.2c-2.9-0.5-4.2-0.9-4.1-1.2c0.1-0.4,2.4-0.6,6.9-0.8
		c4.4-0.2,8-1.1,10.6-2.9c2-1.3,3.6-3.2,4.8-5.6c0.4-0.8,0.8-1.7,1.2-2.9c0.5-1.4,0.8-2.2,0.9-2.4C88.1,249.6,88.4,249,88.7,248.7z"
		/>
	<path d="M85,268.9c-0.7,0-1.3-0.1-2-0.2l0,0c-0.7-0.1-3-0.4-6.8-0.9c-4-0.5-6.9-0.9-8.7-1.2c-3.8-0.6-4.3-1-4.5-1.3
		c-0.1-0.2-0.1-0.3-0.1-0.5c0.1-0.5,0.3-0.9,7.4-1.2c4.3-0.2,7.8-1.1,10.4-2.8c1.9-1.3,3.5-3.1,4.6-5.4c0.4-0.8,0.8-1.7,1.1-2.8
		c0.5-1.4,0.8-2.2,0.9-2.5c0.3-0.8,0.7-1.4,1.1-1.8c0.5-0.5,1.2-0.6,1.9-0.5c2.4,0.4,3.7,2.7,3.7,6.9c0,2.7-0.3,5.5-1.1,8.5
		c-0.5,2-1.7,3.5-3.4,4.5C88.2,268.5,86.7,268.9,85,268.9z M83.2,267.7c2.3,0.4,4.2,0.1,5.8-0.9c1.5-0.9,2.5-2.2,2.9-3.9
		c0.8-2.9,1.2-5.7,1.1-8.3c0-3.6-1-5.6-2.9-5.9c-0.4-0.1-0.8,0-1.1,0.3c-0.3,0.3-0.5,0.7-0.8,1.4c-0.1,0.2-0.3,0.7-0.9,2.4
		c-0.4,1.1-0.8,2.1-1.2,2.9c-1.2,2.5-2.8,4.4-4.9,5.8c-2.7,1.8-6.4,2.8-10.9,3c-3.2,0.1-4.8,0.3-5.7,0.4c0.6,0.1,1.5,0.3,2.9,0.6
		c1.8,0.3,4.7,0.7,8.7,1.2C80.2,267.3,82.5,267.6,83.2,267.7z"/>
	<path class="st4" d="M56.3,235.2c-2.5,0.9-4.8,2.2-6.7,3.9c-2,1.7-3.5,3.6-4.5,5.8c-1.1,2.3-1.7,4.6-1.7,7.1c0,2.9,0.2,5.1,0.6,6.6
		c0.5,2,1.4,3.6,2.8,4.8c1.5,1.3,3.7,2.3,6.6,2.9c3,0.6,7,1,11.9,1s8.8-0.3,11.7-1c2.7-0.6,4.8-1.6,6.1-2.9c1.2-1.2,2-2.7,2.4-4.8
		c0.3-1.4,0.4-3.6,0.4-6.6c0-2.5-0.6-4.8-1.7-7.1c-1.1-2.2-2.6-4.1-4.5-5.8s-4.2-3-6.7-3.9c-2.6-1-5.4-1.4-8.3-1.4
		S58.9,234.3,56.3,235.2z"/>
	<path d="M65.2,267.8c-4.9,0-9-0.3-12-1c-2.9-0.6-5.2-1.6-6.8-3c-1.4-1.2-2.4-2.9-3-5c-0.4-1.6-0.6-3.9-0.6-6.8c0-2.5,0.6-5,1.7-7.3
		c1.1-2.2,2.7-4.2,4.7-6c2-1.7,4.3-3.1,6.9-4c5.3-1.9,11.5-1.9,16.8,0c2.6,0.9,4.9,2.3,6.9,4s3.6,3.7,4.7,6s1.7,4.8,1.7,7.3
		c0,3.1-0.1,5.3-0.4,6.7c-0.4,2.1-1.2,3.8-2.5,5c-1.4,1.4-3.6,2.4-6.4,3C74,267.4,70.1,267.8,65.2,267.8z M64.5,234.3
		c-2.8,0-5.5,0.5-8.1,1.4c-2.5,0.9-4.7,2.2-6.6,3.8c-1.9,1.6-3.4,3.5-4.4,5.6c-1.1,2.2-1.6,4.5-1.6,6.9c0,2.8,0.2,5,0.6,6.5
		c0.5,1.9,1.4,3.4,2.6,4.5c1.4,1.2,3.6,2.2,6.3,2.8c2.9,0.6,6.9,1,11.8,1c4.8,0,8.7-0.3,11.6-1c2.6-0.6,4.6-1.5,5.9-2.8
		c1.1-1.1,1.9-2.6,2.2-4.5c0.3-1.3,0.4-3.6,0.4-6.5c0-2.4-0.5-4.7-1.6-6.9c-1-2.1-2.5-4-4.4-5.6s-4.1-2.9-6.6-3.8
		C70,234.8,67.3,234.3,64.5,234.3z"/>
	<path class="st3" d="M49.9,263.6c-0.5,0.3-0.8,0.6-1,0.8c-0.3,0.6,0.6,1,2.7,1.2c2.5,0.3,6.9,1,13.5,1c6.5,0,11-0.7,13.5-1
		c2.1-0.3,3-0.7,2.7-1.2c-0.1-0.2-0.4-0.5-1-0.8c-0.7-0.4-1.2-0.7-1.6-1c-1.4-0.9-2.1-1.6-2.1-2.2c0-0.7-0.3-1-0.9-1
		c-0.4,0-1.2,0.4-2.5,1c-1.5,0.7-2.8,1.2-3.7,1.6c-1.6,0.5-3.1,0.8-4.5,0.8s-2.9-0.3-4.5-0.8c-0.9-0.3-2.1-0.8-3.7-1.6
		c-1.2-0.6-2.1-0.9-2.5-1c-0.6-0.1-0.9,0.2-0.9,1c0,0.6-0.7,1.3-2.1,2.2C50.8,263.1,50.2,263.4,49.9,263.6z"/>
	<path class="st5" d="M74,223.5c-1.2-1.3-2.7-2.4-4.3-3.1c-1.7-0.8-3.4-1.1-5.2-1.1s-3.6,0.4-5.2,1.1c-1.6,0.7-3,1.8-4.3,3.1
		s-2.2,2.9-2.9,4.6c-0.7,1.8-1.1,3.7-1.1,5.6s0.4,3.9,1.1,5.6c0.7,1.7,1.6,3.3,2.9,4.6c1.2,1.3,2.7,2.4,4.3,3.1
		c1.7,0.8,3.4,1.1,5.2,1.1s3.6-0.4,5.2-1.1c1.6-0.7,3-1.8,4.3-3.1c1.2-1.3,2.2-2.9,2.9-4.6c0.7-1.8,1.1-3.7,1.1-5.6
		s-0.4-3.9-1.1-5.6C76.2,226.4,75.2,224.9,74,223.5z"/>
	<path class="st2" d="M42.4,207.1l3.3,17.8l18.8-10.7C48,201.7,40.6,199.3,42.4,207.1z"/>
	<path class="st1" d="M64.5,214.5l1.2-0.7c-18.9-15-27.4-18.4-25.5-10.3l4.2,22.5l2.2-1.3l-3.2-17.1
		C41.6,200.2,48.7,202.5,64.5,214.5z"/>
	<path d="M44.2,226.5H44c-0.2-0.1-0.3-0.2-0.3-0.4l-4-22.5c-0.5-2.4-0.2-3.9,0.9-4.5c1.7-1.1,6.2-0.7,24.3,14.3
		c0.1,0.1,0.2,0.3,0.2,0.4s-0.1,0.3-0.3,0.4l-1.1,0.7l0,0l-19.2,11.5C44.4,226.5,44.3,226.5,44.2,226.5z M42,199.7
		c-0.4,0-0.7,0.1-0.9,0.2c-0.8,0.5-0.7,2.2-0.4,3.4l3.8,21.8l19-11.5C49.6,202.1,44.1,199.7,42,199.7z M63.4,214.4L63.4,214.4
		L63.4,214.4z"/>
	<path class="st4" d="M72.3,208.5c-2.5-1-5.1-1.5-7.8-1.5c-2.7,0-5.3,0.5-7.8,1.5c-2.4,1-4.5,2.3-6.4,4.1s-3.3,3.8-4.3,6
		c-1.1,2.3-1.6,4.8-1.6,7.4c0,2.6,0.5,5,1.6,7.4c1,2.3,2.4,4.3,4.3,6c1.9,1.8,4,3.1,6.4,4.1c2.5,1,5.1,1.5,7.8,1.5s5.3-0.5,7.8-1.5
		c2.4-1,4.5-2.3,6.4-4.1s3.3-3.8,4.3-6c1.1-2.3,1.6-4.8,1.6-7.4c0-2.6-0.5-5-1.6-7.4c-1-2.3-2.4-4.3-4.3-6
		C76.9,210.8,74.7,209.5,72.3,208.5z"/>
	<path class="st6" d="M56.9,208.3c-2.4,1-4.6,2.3-6.5,4s-3.3,3.7-4.4,6c-1.1,2.3-1.6,4.8-1.6,7.3s0.5,5,1.6,7.3c1,2.2,2.5,4.2,4.4,6
		c0.2,0.2,0.4,0.3,0.6,0.5c-0.1-0.7-1.1-2.3-3-4.9c-1.9-2.6,2.9-6.7,14.4-12.3C61.2,211.9,59.4,207.3,56.9,208.3z"/>
	<path d="M73.8,220.4c-0.4,0-0.8,0.1-1.1,0.4c-0.3,0.3-0.4,0.6-0.4,1.1c0,0.4,0.1,0.8,0.4,1.1s0.7,0.4,1.1,0.4s0.8-0.1,1.1-0.4
		c0.3-0.3,0.4-0.6,0.4-1.1c0-0.4-0.1-0.8-0.4-1.1C74.6,220.5,74.2,220.4,73.8,220.4z"/>
	<path d="M52.6,220.4c-0.4,0-0.8,0.1-1.1,0.4c-0.3,0.3-0.4,0.6-0.4,1.1c0,0.4,0.1,0.8,0.4,1.1c0.3,0.3,0.7,0.4,1.1,0.4
		c0.4,0,0.8-0.1,1.1-0.4c0.3-0.3,0.4-0.6,0.4-1.1c0-0.4-0.1-0.8-0.4-1.1C53.4,220.5,53,220.4,52.6,220.4z"/>
	<path d="M64.5,245.4c-2.8,0-5.5-0.5-8-1.5c-2.4-1-4.7-2.4-6.6-4.2c-1.9-1.8-3.4-3.9-4.4-6.2c-1.1-2.4-1.6-5-1.6-7.6
		s0.5-5.2,1.6-7.6c1-2.3,2.5-4.4,4.4-6.2s4.1-3.2,6.6-4.2c5.1-2,10.9-2,16,0c2.4,1,4.7,2.4,6.6,4.2s3.4,3.9,4.4,6.2
		c1.1,2.4,1.6,5,1.6,7.6s-0.5,5.2-1.6,7.6c-1,2.3-2.5,4.4-4.4,6.2s-4.1,3.2-6.5,4.2C70,244.9,67.3,245.4,64.5,245.4z M64.5,207.5
		c-2.6,0-5.2,0.5-7.6,1.4c-2.3,0.9-4.4,2.3-6.2,4s-3.2,3.7-4.2,5.9c-1,2.3-1.5,4.7-1.5,7.2s0.5,4.9,1.5,7.2c1,2.2,2.4,4.2,4.2,5.9
		s3.9,3,6.2,4c4.8,1.9,10.4,1.9,15.3,0c2.3-0.9,4.4-2.3,6.2-4c1.8-1.7,3.2-3.7,4.2-5.9c1-2.3,1.5-4.7,1.5-7.2s-0.5-4.9-1.5-7.2
		c-1-2.2-2.4-4.2-4.2-5.9c-1.8-1.7-3.9-3-6.2-4C69.7,208,67.2,207.5,64.5,207.5z"/>
	<path d="M68.6,222.6h-8.1c-0.4,0-0.8,0.2-1.1,0.5c-0.3,0.3-0.5,0.7-0.5,1.2s0.2,0.8,0.5,1.2c0.3,0.3,0.7,0.5,1.1,0.5l4.1-0.2
		l0.2-1.1l-0.2,1.1l4,0.2c0.5,0,0.8-0.2,1.1-0.5c0.3-0.3,0.5-0.7,0.5-1.2s-0.1-0.8-0.5-1.2C69.4,222.8,69,222.6,68.6,222.6z"/>
	<path d="M72.5,235.4c-3,0-5.7-1.8-8-5.3c-4.3,5.6-8.9,6.7-13.7,3.3c-0.2-0.2-0.3-0.5-0.1-0.7s0.5-0.3,0.7-0.1
		c4.4,3.2,8.5,2,12.6-3.5l0.1-4.2c-0.1-0.1-0.1-0.3-0.1-0.4l0.2-0.9c0.1-0.3,0.3-0.4,0.6-0.4c0.3,0.1,0.4,0.3,0.4,0.6l-0.2,0.7
		c0,0.1,0.1,0.2,0.1,0.3L65,229c3.5,5.5,7.6,6.7,12.6,3.6c0.2-0.1,0.5-0.1,0.7,0.2c0.1,0.2,0.1,0.5-0.2,0.7
		C76.2,234.8,74.3,235.4,72.5,235.4z"/>
	<path class="st4" d="M46.7,253.5v10.3c0,1.2,0.4,2.3,1.3,3.2c0.9,0.9,1.9,1.4,3.2,1.4h2.1c1.2,0,2.3-0.5,3.2-1.4s1.3-2,1.3-3.2
		v-10.3c0-0.3,0-0.5-0.1-0.7h-11C46.7,253,46.7,253.2,46.7,253.5z"/>
	<path d="M53.3,268.9h-2.1c-1.4,0-2.6-0.5-3.5-1.5c-1-1-1.5-2.2-1.5-3.6v-10.3c0-0.3,0-0.6,0.1-0.8c0-0.3,0.3-0.5,0.6-0.4
		c0.3,0,0.5,0.3,0.4,0.6c0,0.2,0,0.4,0,0.7v10.3c0,1.1,0.4,2.1,1.2,2.9s1.7,1.2,2.8,1.2h2.1c1.1,0,2-0.4,2.8-1.2s1.2-1.8,1.2-2.9
		v-10.3c0-0.2,0-0.5,0-0.7c0-0.3,0.1-0.5,0.4-0.6c0.3,0,0.5,0.1,0.6,0.4c0,0.3,0.1,0.5,0.1,0.8v10.3c0,1.4-0.5,2.6-1.5,3.6
		C55.8,268.4,54.7,268.9,53.3,268.9z"/>
	<path class="st4" d="M56.8,264.4c-1.4-1.1-3.1-1.6-5.1-1.6s-3.7,0.5-5.1,1.6c-1.4,1-2.1,2.3-2.1,3.8c0,0.4,0.1,0.9,0.2,1.3h14.2
		c0.1-0.4,0.2-0.8,0.2-1.3C58.9,266.7,58.2,265.5,56.8,264.4z"/>
	<path d="M58.8,270H44.6c-0.2,0-0.4-0.2-0.5-0.4c-0.1-0.5-0.2-0.9-0.2-1.4c0-1.6,0.8-3.1,2.3-4.2c1.5-1.1,3.3-1.7,5.4-1.7
		c2.1,0,4,0.6,5.4,1.7c1.5,1.1,2.3,2.5,2.3,4.2c0,0.5-0.1,1-0.2,1.4C59.2,269.8,59,270,58.8,270z M45,269h13.4
		c0-0.3,0.1-0.5,0.1-0.8c0-1.3-0.6-2.4-1.9-3.4c-1.3-1-2.9-1.5-4.8-1.5c-1.9,0-3.5,0.5-4.8,1.5c-1.3,0.9-1.9,2.1-1.9,3.4
		C44.9,268.5,45,268.7,45,269z"/>
	<path class="st4" d="M82.3,252.8h-11c0,0.2-0.1,0.5-0.1,0.7v10.3c0,1.3,0.4,2.4,1.3,3.2c0.9,0.9,2,1.4,3.2,1.4h2.1
		c1.2,0,2.3-0.5,3.2-1.4c0.9-0.9,1.3-2,1.3-3.2v-10.3C82.4,253.2,82.4,253,82.3,252.8z"/>
	<path d="M77.8,268.9h-2.1c-1.4,0-2.6-0.5-3.6-1.5c-0.9-1-1.4-2.2-1.4-3.6v-10.3c0-0.3,0-0.5,0.1-0.8c0-0.3,0.3-0.5,0.6-0.4
		c0.3,0,0.5,0.3,0.4,0.6c0,0.2,0,0.4,0,0.6v10.3c0,1.2,0.4,2.1,1.1,2.9c0.8,0.8,1.7,1.2,2.9,1.2h2.1c1.1,0,2-0.4,2.8-1.2
		c0.8-0.8,1.2-1.7,1.2-2.9v-10.3c0-0.2,0-0.4,0-0.6c0-0.3,0.1-0.5,0.4-0.6c0.3,0,0.5,0.1,0.6,0.4c0,0.3,0.1,0.5,0.1,0.8v10.3
		c0,1.4-0.5,2.6-1.5,3.6C80.4,268.4,79.2,268.9,77.8,268.9z"/>
	<path class="st4" d="M76.2,262.8c-2,0-3.7,0.5-5.1,1.6c-1.4,1-2.1,2.3-2.1,3.8c0,0.5,0.1,0.9,0.2,1.3h14.1c0.1-0.4,0.2-0.9,0.2-1.3
		c0-1.5-0.7-2.8-2.1-3.8S78.2,262.8,76.2,262.8z"/>
	<path d="M83.3,270H69.2c-0.2,0-0.4-0.1-0.5-0.3c-0.2-0.5-0.3-1-0.3-1.5c0-1.7,0.8-3.1,2.3-4.2c1.5-1.1,3.3-1.7,5.4-1.7
		s3.9,0.6,5.4,1.7c1.6,1.1,2.3,2.6,2.3,4.2c0,0.5-0.1,1-0.3,1.5C83.7,269.9,83.5,270,83.3,270z M69.6,269h13.3
		c0.1-0.3,0.1-0.5,0.1-0.8c0-1.3-0.6-2.5-1.9-3.4c-1.3-1-3-1.5-4.8-1.5s-3.5,0.5-4.8,1.5s-1.9,2.1-1.9,3.4
		C69.5,268.5,69.5,268.7,69.6,269z"/>
	<path class="st7" d="M66.7,251.8c0.8-0.7,1.2-1.5,1.2-2.4s-0.4-1.7-1.2-2.4c-0.7-0.7-1.7-1-2.7-1s-2,0.3-2.7,1
		c-0.8,0.7-1.2,1.4-1.2,2.4c0,0.9,0.4,1.7,1.2,2.4c0.7,0.6,1.7,0.9,2.7,0.9S66,252.4,66.7,251.8z"/>
	<path d="M64,253.3c-1.2,0-2.2-0.4-3.1-1.1c-0.9-0.8-1.3-1.7-1.3-2.8s0.5-2,1.3-2.7s1.9-1.1,3.1-1.1s2.2,0.4,3.1,1.1
		c0.9,0.8,1.3,1.7,1.3,2.7c0,1.1-0.5,2-1.3,2.8C66.2,252.9,65.2,253.3,64,253.3z M64,246.6c-1,0-1.8,0.3-2.4,0.9c-0.7,0.6-1,1.2-1,2
		s0.3,1.5,1,2c0.7,0.6,1.4,0.8,2.4,0.8s1.8-0.3,2.4-0.8c0.7-0.6,1-1.2,1-2s-0.3-1.4-1-2C65.7,246.8,64.9,246.6,64,246.6z"/>
	<path d="M58.1,235.4c1.2,0.6,2.4,1,3.7,1.3c4,1,7.5,0.3,10.5-1.9c-1.8,0.3-3.6-0.6-5.5-2.5c-0.6-0.6-1.2-1.3-1.7-2.1l-0.6-0.9
		c0,0.7-0.8,1.7-2.6,3c-1.8,1.3-3.6,2.1-5.2,2.4L58.1,235.4z"/>
	<path class="st8" d="M67.6,233.1c-1.8-0.6-3.8-0.6-5.9,0c-0.2,0.1-0.5,0.2-0.7,0.3c-0.2,0-0.3,0.1-0.4,0.1
		c-0.3,0.1-0.5,0.3-0.8,0.3l-0.8,5c0,1.1,0.5,2,1.6,2.8s2.4,1.1,3.9,1.1s2.8-0.4,3.9-1.1c1.1-0.8,1.6-1.7,1.6-2.8l-0.8-4.9l-0.1-0.1
		c-0.2-0.1-0.4-0.2-0.6-0.3c-0.1-0.1-0.3-0.1-0.4-0.2C68,233.3,67.8,233.2,67.6,233.1z"/>
	<path class="st9" d="M62.5,232.7c-0.5,0.4-1,0.5-1.4,0.8c0.2-0.1,2-0.2,2.2-0.3c0,6.7,2.8,7.3,2.8,0.3c0.4-0.6,2.1-0.1,2.2,0
		c-0.5-0.4-1.5-0.6-2-1.1c-0.9-0.9-1.4-1.5-1.7-2C64.3,231,63.6,231.8,62.5,232.7z"/>
</g>
</svg>
