<?xml version="1.0" encoding="utf-8"?>
<!-- Generator: Adobe Illustrator 22.0.1, SVG Export Plug-In . SVG Version: 6.00 Build 0)  -->
<!DOCTYPE svg PUBLIC "-//W3C//DTD SVG 1.1//EN" "http://www.w3.org/Graphics/SVG/1.1/DTD/svg11.dtd">
<svg version="1.1" id="Layer_1" xmlns="http://www.w3.org/2000/svg" xmlns:xlink="http://www.w3.org/1999/xlink" x="0px" y="0px"
	 viewBox="0 0 130 270" style="enable-background:new 0 0 130 270;" xml:space="preserve">
<style type="text/css">
	.st0{fill:#ECE4CE;}
	.st1{fill:#B49D87;}
	.st2{fill:#695C50;}
	.st3{fill:#CC9900;}
	.st4{fill:#FFCC99;}
	.st5{fill:#EAAF75;}
	.st6{fill:#FFD5AC;}
	.st7{fill:#2B292F;}
	.st8{fill:#FFD9B3;}
	.st9{fill:#CFCF55;}
	.st10{fill:#F7F7F7;}
	.st11{fill:#AAAA46;}
	.st12{fill:#CACACA;}
	.st13{fill:#D1D1D1;}
	.st14{fill:#E6DCC9;}
	.st15{fill:#E6B57B;}
	.st16{fill:#221805;}
	.st17{fill:#513600;}
</style>
<title>ian</title>
<desc>Created with Sketch.</desc>
<g>
	<path class="st0" d="M57.9,262.5c3-1.1,4.6-4.5,3.6-7.6l-0.2-0.5c-1.1-3.1-4.3-4.4-7.2-3.1c0,0-22.2,10.1-23.6,12.1s1,3.2,1,3.2
		c2.3,2.3,6.6,3.2,9.6,2.1L57.9,262.5z"/>
	<path d="M57.9,262.5l0.2,0.5c2.6-1,4.2-3.5,4.2-6.1c0-0.7-0.1-1.4-0.4-2.1l0,0l-0.2-0.5l0,0c-0.8-2.4-3-3.9-5.4-3.9
		c-0.8,0-1.7,0.2-2.5,0.6l0,0c0,0-5.6,2.5-11.3,5.3c-2.9,1.4-5.8,2.9-8.1,4.1c-1.1,0.6-2.1,1.2-2.9,1.7c-0.4,0.2-0.7,0.5-1,0.7
		s-0.5,0.4-0.6,0.6l0,0c-0.4,0.5-0.6,1.1-0.6,1.5c0,0.8,0.5,1.4,0.9,1.8c0.4,0.4,0.8,0.6,0.8,0.6l0.2-0.4l-0.4,0.4
		c1.8,1.7,4.5,2.7,7.1,2.7c1.1,0,2.1-0.2,3-0.5l0,0l16.8-6.3L57.9,262.5l-0.2-0.5l-16.8,6.3l0,0c-0.8,0.3-1.7,0.5-2.7,0.5
		c-2.4,0-4.9-0.9-6.4-2.4l-0.1-0.1h-0.1l0,0c-0.1,0-0.4-0.2-0.7-0.5s-0.5-0.6-0.5-1c0-0.3,0.1-0.6,0.4-1l0,0c0,0,0.2-0.2,0.4-0.4
		c0.8-0.7,2.7-1.7,5.1-2.9c3.5-1.8,8-4,11.6-5.7c1.8-0.9,3.4-1.6,4.5-2.1s1.8-0.8,1.8-0.8l0,0l0,0c0.7-0.3,1.4-0.5,2.1-0.5
		c2,0,3.7,1.2,4.4,3.3l0.2,0.5l0,0c0.2,0.6,0.3,1.2,0.3,1.8c0,2.2-1.4,4.4-3.6,5.2L57.9,262.5z"/>
	<path class="st1" d="M57.3,260.7c3.6-1.3,5.8-5.4,4.8-9.2l-0.4-1.4c-1-3.7-4.5-5.2-7.9-3.3l-20.6,11.7c-3.4,1.9-3.4,5,0,6.9l-1.7-1
		c3.4,1.9,9.1,2.4,12.7,1L57.3,260.7z"/>
	<path d="M57.3,260.7l0.2,0.5c3.3-1.2,5.4-4.4,5.4-7.8c0-0.7-0.1-1.3-0.3-2l-0.4-1.4l0,0c-0.4-1.4-1.1-2.5-2.1-3.3s-2.1-1.2-3.4-1.2
		c-1,0-2.1,0.3-3.2,0.9l-20.7,11.7l0,0c-0.9,0.5-1.6,1.1-2.1,1.7c-0.5,0.7-0.7,1.4-0.7,2.1s0.3,1.5,0.7,2.1c0.5,0.7,1.2,1.3,2.1,1.8
		l0.5-0.9l-1.7-1l-0.5,0.9c2.2,1.2,5.2,1.8,8.1,1.9c1.8,0,3.6-0.2,5-0.8l13.1-4.8l0,0L57.3,260.7l-0.2-0.5L44,265
		c-1.3,0.5-3,0.7-4.7,0.7c-2.7,0-5.6-0.6-7.6-1.7l-0.5,0.9l1.7,1l0.5-0.9c-0.8-0.4-1.4-1-1.7-1.5c-0.4-0.5-0.5-1-0.5-1.5
		s0.2-1,0.5-1.5c0.4-0.5,0.9-1,1.7-1.5l0,0L54,247.4c0.9-0.5,1.9-0.8,2.7-0.8c1,0,2,0.3,2.8,1c0.8,0.6,1.4,1.6,1.7,2.8l0,0l0.4,1.3
		l0,0c0.2,0.6,0.2,1.2,0.2,1.8c0,2.9-1.9,5.8-4.7,6.8l0,0L57.3,260.7z"/>
	<path class="st2" d="M49.9,248.7l-0.5,6.2l-2.8-1.6l8.7-1.2c0.3,0,0.5-0.3,0.4-0.6c0-0.3-0.3-0.5-0.6-0.4l-11.6,1.7l6.7,3.9
		l0.7-7.8c0-0.3-0.2-0.5-0.5-0.5C50.2,248.2,50,248.5,49.9,248.7L49.9,248.7z"/>
	<path class="st0" d="M69.9,254.5L69.9,254.5c0.5-3.2,3.6-5.3,6.7-4.7c0.5,0.1,1.1,0.3,1.5,0.5l20.1,9.8c1.5,0.7,2.1,2.5,1.4,4
		c-0.1,0.2-0.2,0.4-0.4,0.6l-0.5,0.7c-1.8,2.2-4.7,3.2-7.4,2.5L76,264.1C71.9,262.9,69.2,258.8,69.9,254.5z"/>
	<path d="M69.9,254.5l0.5,0.1c0.4-2.6,2.7-4.4,5.2-4.4c0.3,0,0.6,0,0.9,0.1c0.5,0.1,1,0.2,1.4,0.5l20.1,9.8c0.9,0.4,1.4,1.3,1.4,2.3
		c0,0.4-0.1,0.7-0.3,1.1l0,0c-0.1,0.2-0.2,0.3-0.3,0.5l0,0l-0.5,0.7l0,0c-1.3,1.6-3.3,2.5-5.3,2.5c-0.5,0-1.1-0.1-1.6-0.2l-15.3-3.8
		c-3.5-0.9-5.9-4-5.9-7.6c0-0.4,0-0.9,0.1-1.3l0,0l0,0L69.9,254.5l-0.5-0.1c-0.1,0.5-0.1,1-0.1,1.5c0,4,2.7,7.5,6.7,8.5l15.3,3.8
		c0.6,0.2,1.3,0.2,1.9,0.2c2.3,0,4.6-1,6.1-2.9l0,0l0.5-0.7l0,0c0.2-0.2,0.3-0.4,0.4-0.7l0,0c0.2-0.5,0.4-1,0.4-1.5
		c0-1.3-0.7-2.5-2-3.2l-20.2-9.6l0,0c-0.5-0.3-1.1-0.4-1.7-0.5c-0.4-0.1-0.7-0.1-1.1-0.1c-3,0-5.7,2.2-6.2,5.2l0,0l0,0L69.9,254.5z"
		/>
	<path class="st1" d="M70.8,249.2L70.8,249.2c0.7-0.9,1.4-1.8,2.1-2.6c1.2-1.5,3.4-1.7,4.8-0.5c0.5,0.4,0.9,1,1.1,1.7l3.1,2
		c0,0,5.3,2.8,15.7,8.3c1.7,0.9,2.4,3,1.5,4.7c-0.1,0.2-0.2,0.4-0.4,0.6c-1.7,2-4.3,3-6.9,2.4l-14.6-3.1c-5.1-1.1-8.3-6.1-7.2-11.2
		C70.1,250.8,70.4,250,70.8,249.2z"/>
	<path d="M70.8,249.2l0.4,0.3c0.7-0.9,1.4-1.8,2.1-2.6l0,0c0.6-0.7,1.4-1.1,2.3-1.1c0.6,0,1.3,0.2,1.8,0.6l0,0
		c0.5,0.4,0.8,0.9,1,1.5l0.1,0.2l3.2,2.1l0.3-0.4l-0.3,0.4h0.1c0.1,0,0.4,0.2,1.1,0.6c2,1.1,6.9,3.7,14.6,7.7l0,0
		c1,0.5,1.6,1.6,1.6,2.6c0,0.5-0.1,0.9-0.3,1.4l0,0c-0.1,0.2-0.2,0.3-0.3,0.5l0,0l0,0c-1.3,1.5-3.1,2.4-5.1,2.4
		c-0.5,0-0.9,0-1.4-0.1l-14.6-3.1c-4.2-0.9-7.1-4.6-7.1-8.7c0-0.6,0.1-1.2,0.2-1.9c0.2-0.8,0.4-1.5,0.8-2.2L70.8,249.2l0.4,0.3
		L70.8,249.2l-0.4-0.2c-0.4,0.8-0.7,1.6-0.9,2.5c-0.1,0.7-0.2,1.4-0.2,2.1c0,4.6,3.2,8.7,7.9,9.7l14.6,3.1c0.5,0.1,1,0.2,1.6,0.2
		c2.2,0,4.4-1,5.8-2.7l0,0c0.2-0.2,0.3-0.4,0.5-0.7l0,0c0.3-0.6,0.5-1.2,0.5-1.9c0-1.4-0.8-2.8-2.1-3.5l0,0
		c-5.2-2.8-9.1-4.8-11.8-6.2c-1.3-0.7-2.3-1.2-3-1.6c-0.3-0.2-0.6-0.3-0.7-0.4l-0.2-0.1l0,0l0,0l-0.2,0.4l0.3-0.4l0,0l-0.2,0.4
		l0.3-0.4l0,0l-3.1-2l-0.3,0.4l0.5-0.1c-0.2-0.8-0.7-1.5-1.3-2l0,0c-0.7-0.6-1.6-0.9-2.5-0.9c-1.1,0-2.3,0.5-3.1,1.5l0,0l0,0
		c-0.7,0.9-1.4,1.8-2.1,2.6l0,0l0,0L70.8,249.2z"/>
	<path class="st2" d="M78.8,249.7l1.3,6.8l6.5-4.3l-11.8-0.1c-0.3,0-0.5,0.2-0.5,0.5s0.2,0.5,0.5,0.5l8.6,0.1l-2.5,1.7l-1-5.4
		c-0.1-0.3-0.3-0.4-0.6-0.4C78.9,249.2,78.7,249.4,78.8,249.7L78.8,249.7z"/>
	<path class="st3" d="M85,45.1c0,0-0.2-3.3-0.6-9.8l1.6-1.9c0,0-1.7-1.7-5.2-5.1l2.2-1.9l-8.6-2.8l2-1.9l-8.9-0.1
		c0,0,0.3-1.2,0.8-3.5l-9.2,3.5c0,0,0.2-0.9,0.6-2.8L52.1,23c0,0-0.8-1.2-2.4-3.5c-1.5,4.5-2.2,6.8-2.2,6.8l-5.4,1.4l5,2.8
		c-1.8,3.9-2.6,5.8-2.6,5.8c0,6.1,0,9.1,0,9.1l3.4,0.8L85,45.1z"/>
	<path d="M85,45.1v0.5c0.2,0,0.3-0.1,0.3-0.1c0.1-0.1,0.1-0.2,0.1-0.2v-0.1v-0.1c0-0.3-0.1-1.2-0.2-2.8c-0.1-1.6-0.3-3.9-0.5-7h-0.5
		l0.4,0.3l1.6-1.9l-0.4-0.3v0.5c0.1,0,0.2,0,0.4-0.1c0.1-0.1,0.1-0.3,0.1-0.4s0-0.2,0-0.2l-0.1-0.1L86.1,33
		c-0.2-0.2-0.6-0.7-1.5-1.5s-2.1-2-3.7-3.6l-0.3,0.4l0.3,0.4l2.2-1.9c0.1-0.1,0.2-0.3,0.2-0.5S83.1,26,83,25.9l-7.8-2.5l1.4-1.3
		c0.1-0.1,0.2-0.4,0.1-0.5c-0.1-0.2-0.3-0.3-0.5-0.3l-8.7-0.2v0.5v0.5c0.2,0,0.3-0.1,0.3-0.1c0.1-0.1,0.1-0.1,0.1-0.2
		c0-0.1,0-0.1,0.1-0.2c0.1-0.4,0.4-1.5,0.8-3.4c0-0.2,0-0.4-0.2-0.5c-0.1-0.1-0.3-0.2-0.5-0.1l-9.2,3.5c-0.2,0.1-0.4,0.3-0.3,0.6
		c0,0.2,0.3,0.4,0.5,0.4s0.3-0.1,0.3-0.1c0.1-0.1,0.1-0.1,0.1-0.1v-0.1c0-0.1,0.1-0.2,0.1-0.3c0.1-0.4,0.3-1.3,0.5-2.5
		c0-0.2,0-0.4-0.2-0.5c-0.2-0.1-0.4-0.1-0.5,0l-7.6,4.2c-0.2,0.1-0.3,0.3-0.2,0.6c0.1,0.2,0.3,0.4,0.5,0.4c0.1,0,0.3-0.1,0.4-0.2
		c0-0.3,0-0.4,0-0.5v-0.2c0,0,0,0,0-0.1s-0.1-0.2-0.2-0.4c-0.3-0.5-1.1-1.6-2.2-3.1C50,19,49.8,19,49.6,19s-0.3,0.2-0.4,0.3
		c-0.7,2.2-1.3,3.9-1.7,5c-0.2,0.6-0.3,1-0.4,1.3c0,0.1-0.1,0.3-0.1,0.3V26v0.1v0.1c0,0,0,0.1,0,0.2l0.1,0.2
		c0.1,0.1,0.2,0.2,0.4,0.1v-0.5l-0.2-0.4l-5.4,1.4c-0.2,0.1-0.3,0.2-0.4,0.4c0,0.2,0.1,0.4,0.3,0.5l5,2.8l0.2-0.4l-0.5-0.2
		c-0.9,1.9-1.5,3.3-2,4.3c-0.2,0.5-0.4,0.9-0.5,1.1c-0.1,0.1-0.1,0.2-0.1,0.3v0.1v0.1c0,0,0,0,0,0.2c0,0,0,0.1,0,0.2l0.2,0.2
		c0.1,0.1,0.2,0.1,0.3,0.1v-0.5h-0.5c0,3,0,5.3,0,6.8c0,0.8,0,1.3,0,1.7c0,0.2,0,0.3,0,0.4v0.1v0.1v0.1l0.1,0.1l0.1,0.1
		c0.1,0,0.2,0.1,0.3,0.1v-0.5l-0.1,0.4l3.4,0.8h0.1l37.2-1V45.1v0.5V45.1v-0.5l-37.1,1l-3.4-0.7h-0.1v0.5l0.3-0.4
		c-0.1,0-0.2-0.1-0.3-0.1v0.5l0.3-0.4l-0.3,0.4l0.5-0.2c0,0,0-0.1-0.2-0.2l-0.3,0.4l0.5-0.2l-0.4,0.2l0.5-0.1v-0.1l-0.4,0.2l0.5-0.1
		l-0.3,0.1h0.3l0,0l-0.3,0.1h0.3c0,0,0-0.3,0-0.6c0-0.4,0-0.9,0-1.6c0-1.5,0-3.8,0-6.8c0-0.1-0.1-0.3-0.1-0.4
		c-0.3-0.3-0.5-0.3-0.6-0.3v0.5l0.3-0.4l-0.3-0.1v0.5l0.3-0.4l-0.3,0.4l0.5-0.1c0-0.1-0.1-0.2-0.2-0.3l-0.3,0.4l0.5-0.1l-0.5,0.1
		h0.5v-0.1l-0.5,0.1h0.5h-0.4l0.4,0.1c0,0,0,0,0-0.1h-0.4l0.4,0.1l-0.2-0.1l0.2,0.1l0,0l-0.2-0.1l0.2,0.1c0,0,0.1-0.2,0.2-0.5
		c0.4-0.8,1.2-2.6,2.4-5.3c0.1-0.2,0-0.5-0.2-0.6l-4-2.2l4.2-1c0.2-0.1,0.4-0.3,0.4-0.5s-0.2-0.5-0.5-0.5v0.5l0.4-0.4
		c-0.1-0.1-0.2-0.1-0.4-0.1v0.5l0.4-0.4l-0.4,0.4l0.5-0.1c0,0,0-0.1-0.1-0.3l-0.4,0.4l0.5-0.1l-0.5,0.1h0.5v-0.1l-0.5,0.1h0.5h-0.4
		l0.4,0.1v-0.1h-0.4l0.4,0.1h-0.1h0.1l0,0h-0.1h0.1c0,0,0.1-0.2,0.2-0.5c0.3-0.9,1-3,2-6.1l-0.5-0.2l-0.4,0.2c0.8,1.1,1.4,2,1.8,2.6
		c0.2,0.3,0.3,0.5,0.4,0.7l0.1,0.2l0,0l0.3-0.2l-0.3,0.1l0,0l0.3-0.2l-0.3,0.1l0.4-0.2L51.5,23l0,0l0.4-0.2l-0.4,0.1l0.5-0.1h-0.5
		v0.1l0.5-0.1h-0.5H52l-0.4-0.3c-0.1,0.4-0.1,0.5-0.1,0.5H52l-0.4-0.3L52,23v-0.5c-0.1,0-0.3,0.1-0.4,0.2L52,23v-0.5V23l0.2,0.4
		l7.6-4.2l-0.1-0.4l-0.5-0.1c-0.2,0.9-0.3,1.6-0.4,2.1c0,0.2-0.1,0.4-0.1,0.5v0.1l0,0l0,0l0,0l0,0l0,0l0.3,0.1l-0.3-0.2v0.1l0.3,0.1
		l-0.3-0.2l0.4,0.2l-0.3-0.3l-0.1,0.1l0.4,0.2l-0.3-0.3l0.4,0.3l-0.3-0.4l-0.1,0.1l0.4,0.3l-0.3-0.4l0.3,0.4v-0.4
		c-0.1,0-0.2,0-0.3,0.1l0.3,0.4v-0.5v0.5l0.2,0.5l9.1-3.5l-0.2-0.5L67.8,18c-0.3,1.2-0.4,2-0.6,2.6c-0.1,0.3-0.1,0.5-0.2,0.6v0.1
		l0,0l0.3,0.1L67,21.3l0,0l0.3,0.1L67,21.3l0.5,0.3l-0.4-0.3L67,21.4l0.5,0.2l-0.4-0.3l0.4,0.3l-0.3-0.4l-0.1,0.1l0.4,0.3l-0.3-0.4
		l0.3,0.4v-0.5c-0.1,0-0.2,0.1-0.3,0.1l0.3,0.4v-0.5c-0.3,0-0.5,0.2-0.5,0.5c0,0.3,0.2,0.5,0.5,0.5l7.6,0.2l-1.1,1
		c-0.1,0.1-0.2,0.3-0.1,0.5c0,0.2,0.2,0.3,0.3,0.4l7.8,2.5L80.5,28c-0.1,0.1-0.2,0.2-0.2,0.4c0,0.1,0.1,0.3,0.2,0.4
		c1.7,1.7,3,3,3.9,3.8c0.4,0.4,0.8,0.7,1,1c0.1,0.1,0.2,0.2,0.2,0.2v0.1l0,0l0.2-0.2l-0.2,0.1l0,0l0.2-0.2l-0.2,0.2l0.4-0.3
		l-0.4,0.2l0,0l0.4-0.3l-0.4,0.2l0.4-0.2l-0.5,0.3v0.1l0.4-0.2l-0.4,0.1l0.5-0.2h-0.5c0,0.1,0,0.2,0,0.2l0.5-0.2h-0.5H86l-0.4-0.4
		c-0.1,0.2-0.1,0.3-0.1,0.4H86l-0.4-0.4l0.4,0.4V33c-0.1,0-0.2,0-0.4,0.1l0.4,0.4V33c-0.1,0-0.3,0.1-0.4,0.2L84,35.1
		c-0.1,0.1-0.1,0.2-0.1,0.4c0.2,3,0.4,5.4,0.5,7s0.2,2.6,0.2,2.7l0,0L85,45.1L84.5,45v0.1L85,45.1L84.5,45L85,45.1l-0.5-0.2V45
		L85,45.1l-0.5-0.2L85,45.1l-0.3-0.3l-0.2,0.1L85,45.1l-0.3-0.3L85,45.1v-0.5c-0.2,0-0.3,0.1-0.3,0.1L85,45.1v-0.5l0,0V45.1z"/>
	<path class="st4" d="M88.3,52.7c1.1-1,1.7-2.2,1.7-3.6s-0.6-2.5-1.7-3.5s-2.4-1.5-3.8-1.5c-1.5,0-2.8,0.5-3.9,1.5
		c-1,1-1.6,2.1-1.6,3.5s0.5,2.6,1.6,3.6s2.4,1.5,3.9,1.5C86,54.1,87.3,53.6,88.3,52.7 M88,49.1c0,0.8-0.4,1.5-1.1,2.1
		c-0.6,0.6-1.4,0.9-2.4,0.9s-1.8-0.3-2.5-0.9c-0.7-0.6-1-1.3-1-2.1s0.3-1.5,1-2.1s1.5-0.9,2.5-0.9s1.8,0.3,2.4,0.9
		C87.6,47.6,88,48.3,88,49.1"/>
	<path class="st5" d="M86.9,51.2c0.7-0.6,1.1-1.3,1.1-2.1s-0.4-1.5-1.1-2.1s-1.5-0.9-2.4-0.9S82.7,46.4,82,47c-0.7,0.6-1,1.3-1,2.1
		s0.3,1.5,1,2.1s1.5,0.9,2.5,0.9S86.3,51.8,86.9,51.2z"/>
	<path d="M90,49.1h-0.5c0,1.2-0.5,2.3-1.5,3.2l0,0c-1,0.9-2.1,1.3-3.5,1.3s-2.6-0.4-3.6-1.3l-0.3,0.4l0.3-0.4c-1-0.9-1.4-2-1.4-3.2
		s0.4-2.3,1.4-3.2l-0.3-0.4l0.3,0.4c1-0.9,2.2-1.3,3.6-1.3S87,45,88,45.9l0,0c1,0.9,1.5,1.9,1.5,3.1H90h0.5c0-1.5-0.6-2.9-1.8-3.9
		l-0.3,0.4l0.3-0.4c-1.2-1.1-2.6-1.6-4.2-1.6s-3.1,0.5-4.3,1.6l0,0c-1.1,1-1.7,2.4-1.7,3.9s0.6,2.8,1.7,3.9l0,0
		c1.2,1,2.6,1.6,4.3,1.6c1.6,0,3-0.5,4.2-1.6l0,0c1.2-1.1,1.8-2.4,1.8-3.9H90"/>
	<path class="st4" d="M50.3,45.6c-1.1-1-2.4-1.5-3.8-1.5c-1.5,0-2.8,0.5-3.9,1.5c-1,1-1.6,2.1-1.6,3.5s0.5,2.6,1.6,3.6
		s2.4,1.5,3.9,1.5s2.8-0.5,3.8-1.5c1.1-1,1.7-2.2,1.7-3.6S51.4,46.5,50.3,45.6 M47,46.1c1.1,0,2,0.3,2.8,0.9
		c0.8,0.6,1.2,1.3,1.2,2.1s-0.4,1.5-1.2,2.1s-1.7,0.9-2.8,0.9s-2-0.3-2.8-0.9c-0.8-0.6-1.2-1.3-1.2-2.1s0.4-1.5,1.2-2.1
		C45,46.4,45.9,46.1,47,46.1"/>
	<path class="st5" d="M48.9,47c-0.7-0.6-1.5-0.9-2.4-0.9S44.7,46.4,44,47c-0.7,0.6-1,1.3-1,2.1s0.3,1.5,1,2.1s1.5,0.9,2.5,0.9
		s1.8-0.3,2.4-0.9c0.7-0.6,1.1-1.3,1.1-2.1S49.6,47.6,48.9,47z"/>
	<path d="M52,49.1h-0.5c0,1.2-0.5,2.3-1.5,3.2l0,0c-1,0.9-2.1,1.3-3.5,1.3s-2.6-0.4-3.6-1.3l-0.3,0.4l0.3-0.4c-1-0.9-1.4-2-1.4-3.2
		s0.5-2.3,1.4-3.2l-0.3-0.4l0.3,0.4c1-0.9,2.2-1.3,3.6-1.3c1.4,0,2.5,0.4,3.5,1.3l0,0c1,0.9,1.5,1.9,1.5,3.1H52h0.5
		c0-1.5-0.6-2.9-1.8-3.9l-0.3,0.4l0.3-0.4c-1.2-1.1-2.6-1.6-4.2-1.6c-1.6,0-3.1,0.5-4.3,1.6l0,0c-1.1,1-1.7,2.4-1.7,3.9
		s0.6,2.8,1.7,3.9l0,0c1.2,1,2.6,1.6,4.3,1.6c1.6,0,3-0.5,4.2-1.6l0,0c1.2-1.1,1.8-2.4,1.8-3.9H52"/>
	<path class="st6" d="M56,198.1L56,198.1c2.2,0,4,1.8,4,4v46c0,2.2-1.8,4-4,4s-4-1.8-4-4v-46C52,199.9,53.8,198.1,56,198.1z"/>
	<path d="M56,252.1c-2.2,0-4-1.8-4-4v-46c0-2.2,1.8-4,4-4s4,1.8,4,4v46C60,250.3,58.2,252.1,56,252.1z M56,199.1c-1.7,0-3,1.3-3,3
		v46c0,1.7,1.3,3,3,3s3-1.3,3-3v-46C59,200.5,57.7,199.1,56,199.1z"/>
	<path class="st6" d="M76,198.1L76,198.1c2.2,0,4,1.8,4,4v46c0,2.2-1.8,4-4,4s-4-1.8-4-4v-46C72,199.9,73.8,198.1,76,198.1z"/>
	<path d="M76,252.1c-2.2,0-4-1.8-4-4v-46c0-2.2,1.8-4,4-4s4,1.8,4,4v46C80,250.3,78.2,252.1,76,252.1z M76,199.1c-1.7,0-3,1.3-3,3
		v46c0,1.7,1.3,3,3,3s3-1.3,3-3v-46C79,200.5,77.7,199.1,76,199.1z"/>
	<polyline class="st7" points="82,156.6 82,142.1 56,142.1 50,142.1 50,244.1 62,244.1 62,171.1 70,171.1 70,244.1 82,244.1 
		82,156.6 	"/>
	<path d="M82,244.6H70c-0.3,0-0.5-0.2-0.5-0.5v-72.5h-7v72.5c0,0.3-0.2,0.5-0.5,0.5H50c-0.3,0-0.5-0.2-0.5-0.5v-102
		c0-0.3,0.2-0.5,0.5-0.5h32c0.3,0,0.5,0.2,0.5,0.5v102C82.5,244.4,82.3,244.6,82,244.6 M70.5,243.6h11v-101h-31v101h11v-72.5
		c0-0.3,0.2-0.5,0.5-0.5h8c0.3,0,0.5,0.2,0.5,0.5V243.6"/>
	<path class="st8" d="M96.2,169.3c3.5-12.1,4.8-24.2,3.8-36c0-3.8-0.5-15.3-3.8-25.7c-2.1-6.7-8.8-1.5-11.7,4.5
		c2.6,8.8,4.4,16.7,5.3,23.7c1.8,14.1,0.8,29.3,0,35.8L96.2,169.3"/>
	<path d="M89.8,172.2L89.8,172.2c-0.3,0-0.5-0.3-0.5-0.6c0.8-6.8,1.8-21.9,0-35.7c-0.9-7-2.7-14.9-5.3-23.6l-0.1-0.2l0.1-0.2
		c2-4.1,5.9-8.1,9.1-7.9c1.1,0.1,2.7,0.8,3.5,3.5c3.5,11.1,3.8,23.4,3.8,25.8c1,11.9-0.3,24-3.8,36.2c-0.1,0.3-0.4,0.4-0.6,0.3
		c-0.3-0.1-0.4-0.4-0.3-0.6c3.5-12,4.8-24.1,3.8-35.9c0-2.4-0.3-14.6-3.8-25.6c-0.6-1.8-1.4-2.7-2.7-2.8c-2.4-0.2-6,3-8,7.2
		c2.6,8.7,4.4,16.6,5.3,23.6c2.2,17.1,0.2,34.1,0,36C90.3,172,90,172.2,89.8,172.2"/>
	<path class="st8" d="M90.2,168.1l-5.1,2.6l-1.7,13.7c-0.1,0.7-0.1,1.3,0.3,1.8s1,0.8,1.6,0.9c0.7,0.1,1.3,0,1.8-0.3
		c0.4-0.4,0.7-1,0.8-1.7l1.3-8.6l1.4,3l-2,12.7c-0.1,0.6,0.1,1.2,0.5,1.6c0.3,0.6,0.8,1,1.5,1.1c0.6,0.1,1.2-0.1,1.8-0.5
		c0.4-0.3,0.7-0.8,0.8-1.2c0.5,0,0.9-0.2,1.3-0.4c0.4-0.3,0.7-0.7,0.8-1.2c0.5,0,1-0.2,1.4-0.5c0.4-0.4,0.7-0.9,0.8-1.5l2.3-14.6
		c0.5-2.6-1.9-4.7-3.4-7.3"/>
	<path d="M91.2,195.5c-0.1,0-0.3,0-0.4,0c-0.8-0.1-1.5-0.6-1.8-1.3c-0.5-0.6-0.7-1.3-0.6-2l2-12.5l-0.7-1.4l-1.1,7
		c-0.1,0.8-0.5,1.5-1,1.9l-0.1,0.1c-0.7,0.4-1.4,0.5-2.2,0.4c-0.8-0.1-1.4-0.4-1.9-1c-0.4-0.7-0.6-1.5-0.4-2.3l1.7-13.7
		c0-0.2,0.1-0.3,0.3-0.4l5.1-2.6c0.2-0.1,0.5,0,0.7,0.2c0.1,0.2,0,0.5-0.2,0.7l-4.8,2.5l-1.7,13.5c-0.1,0.6-0.1,1.1,0.2,1.5
		c0.3,0.3,0.7,0.6,1.3,0.6c0.5,0.1,1,0,1.5-0.2c0.3-0.3,0.6-0.8,0.7-1.3l1.3-8.6c0-0.2,0.2-0.4,0.4-0.4c0.2,0,0.4,0.1,0.5,0.3l1.4,3
		c0,0.1,0.1,0.2,0,0.3l-2,12.7c-0.1,0.5,0,0.9,0.4,1.2l0.1,0.1c0.2,0.5,0.6,0.7,1.1,0.8s1-0.1,1.4-0.4c0.3-0.3,0.5-0.6,0.6-1
		c0.1-0.2,0.2-0.3,0.4-0.4c0.4,0,0.8-0.1,1.1-0.3c0.3-0.2,0.5-0.5,0.6-0.9c0-0.2,0.2-0.4,0.5-0.4c0.4,0,0.8-0.2,1.1-0.4
		c0.3-0.3,0.5-0.7,0.6-1.1l2.3-14.6c0.3-1.7-0.7-3.1-1.9-4.8c-0.5-0.7-1-1.4-1.4-2.2c-0.1-0.2-0.1-0.5,0.2-0.7
		c0.2-0.1,0.5-0.1,0.7,0.2c0.4,0.7,0.9,1.4,1.4,2.1c1.3,1.8,2.5,3.5,2.1,5.6l-2.3,14.6c-0.1,0.7-0.4,1.3-0.9,1.7
		c-0.4,0.3-0.8,0.5-1.3,0.6c-0.2,0.4-0.5,0.8-0.9,1.1c-0.4,0.2-0.8,0.4-1.2,0.5c-0.2,0.4-0.5,0.8-0.8,1.1
		C92.4,195.3,91.8,195.5,91.2,195.5z"/>
	<path class="st5" d="M98.6,172c1.1,2.3,1.5,2.9,1.3,1.6c0.2,0.4,0.3,0.9,0.2,1.5l-2.2,14.4c-0.1,0.6-0.4,1.1-0.8,1.4
		c-0.4,0.3-0.8,0.5-1.4,0.5c0.1-0.1,0.1-0.3,0.1-0.5c0,0.2-0.1,0.3-0.1,0.5c-0.1,0.5-0.4,0.8-0.8,1.2c-0.4,0.2-0.8,0.4-1.3,0.4
		c0.1-0.1,0.1-0.2,0.1-0.2l2-12.7l2.3-2.8L98.6,172z"/>
	<path class="st8" d="M35,169.3c-3.5-12.1-4.8-24.2-3.8-36c0-3.8,0.5-15.3,3.8-25.7c2.1-6.7,8.8-1.5,11.7,4.5
		c-2.6,8.8-4.4,16.7-5.3,23.7c-1.8,14.1-0.8,29.3,0,35.8L35,169.3"/>
	<path d="M41.4,172.2c-0.2,0-0.5-0.2-0.5-0.4c-0.2-1.9-2.2-18.9,0-36c0.9-7,2.7-14.9,5.3-23.6c-2.1-4.1-5.6-7.3-8-7.2
		c-1.2,0.1-2.1,1-2.7,2.8c-3.5,10.9-3.8,23.2-3.8,25.5c-1,11.8,0.3,23.9,3.8,35.9c0.1,0.3-0.1,0.5-0.3,0.6c-0.3,0.1-0.5-0.1-0.6-0.3
		c-3.5-12.1-4.8-24.3-3.8-36.2c0-2.3,0.3-14.7,3.8-25.8c0.9-2.7,2.4-3.4,3.5-3.5c3.2-0.2,7.1,3.8,9.1,7.9l0.1,0.2l-0.1,0.2
		c-2.6,8.7-4.4,16.7-5.3,23.6c-1.8,13.8-0.8,28.9,0,35.7C42,171.9,41.8,172.1,41.4,172.2L41.4,172.2"/>
	<path class="st8" d="M41,168.1l5.1,2.6l1.7,13.7c0.1,0.7,0.1,1.3-0.3,1.8c-0.4,0.5-1,0.8-1.6,0.9c-0.7,0.1-1.3,0-1.8-0.3
		c-0.4-0.4-0.7-1-0.8-1.7l-1.3-8.6l-1.4,3l2,12.7c0.1,0.6-0.1,1.2-0.5,1.6c-0.3,0.6-0.8,1-1.5,1.1c-0.6,0.1-1.2-0.1-1.8-0.5
		c-0.4-0.3-0.7-0.8-0.8-1.2c-0.5,0-0.9-0.2-1.3-0.4c-0.4-0.3-0.7-0.7-0.8-1.2c-0.5,0-1-0.2-1.4-0.5c-0.4-0.4-0.7-0.9-0.8-1.5
		L31.4,175c-0.5-2.6,1.9-4.7,3.4-7.3"/>
	<path d="M40.1,195.5c-0.6,0-1.2-0.2-1.8-0.7c-0.4-0.3-0.7-0.7-0.9-1.2c-0.4-0.1-0.8-0.2-1.2-0.4c-0.5-0.3-0.8-0.7-0.9-1.2
		c-0.5-0.1-0.9-0.3-1.3-0.6c-0.5-0.5-0.8-1.1-1-1.8L30.7,175c-0.4-2,0.8-3.7,2.1-5.5c0.5-0.7,1-1.4,1.4-2.1c0.1-0.2,0.4-0.3,0.7-0.2
		c0.2,0.1,0.3,0.4,0.2,0.7c-0.4,0.8-0.9,1.5-1.4,2.2c-1.2,1.7-2.2,3.1-1.9,4.8l2.3,14.6c0.1,0.5,0.3,0.9,0.6,1.2
		c0.3,0.2,0.6,0.4,1.1,0.4c0.2,0,0.4,0.2,0.5,0.4c0.1,0.3,0.3,0.6,0.6,0.9c0.3,0.2,0.6,0.3,1,0.3c0.2,0,0.4,0.2,0.4,0.4
		c0.1,0.4,0.3,0.7,0.7,1c0.4,0.4,0.9,0.5,1.4,0.4s0.9-0.3,1.1-0.8l0.1-0.1c0.3-0.4,0.5-0.8,0.4-1.2l-2-12.7c0-0.1,0-0.2,0-0.3l1.4-3
		c0.1-0.2,0.3-0.3,0.5-0.3s0.4,0.2,0.4,0.4l1.3,8.6c0.1,0.5,0.3,1,0.7,1.3c0.5,0.2,0.9,0.3,1.5,0.2c0.5-0.1,1-0.3,1.3-0.7
		c0.2-0.4,0.3-0.8,0.2-1.4L45.6,171l-4.8-2.5c-0.2-0.1-0.3-0.4-0.2-0.7c0.1-0.2,0.4-0.3,0.7-0.2l5.1,2.6c0.1,0.1,0.2,0.2,0.3,0.4
		l1.7,13.7c0.2,0.8,0.1,1.5-0.3,2.2c-0.6,0.7-1.2,1-2,1.1s-1.5,0-2.2-0.4l-0.1-0.1c-0.5-0.5-0.9-1.1-1-1.9l-1.1-7l-0.7,1.4l2,12.5
		c0.1,0.8-0.1,1.4-0.6,2c-0.4,0.7-1,1.1-1.8,1.3C40.3,195.5,40.2,195.5,40.1,195.5z"/>
	<path class="st5" d="M32.7,172c-1.1,2.3-1.5,2.9-1.3,1.6c-0.2,0.4-0.3,0.9-0.2,1.5l2.2,14.4c0.1,0.6,0.4,1.1,0.8,1.4
		c0.4,0.3,0.8,0.5,1.4,0.5c-0.1-0.1-0.1-0.3-0.1-0.5c0,0.2,0.1,0.3,0.1,0.5c0.1,0.5,0.4,0.8,0.8,1.2c0.4,0.2,0.8,0.4,1.3,0.4
		c-0.1-0.1-0.1-0.2-0.1-0.2l-2-12.7l-2.3-2.8L32.7,172z"/>
	<path class="st9" d="M82.8,88.6L82.8,88.6c-3.5-1.7-9.4-2.5-17.8-2.5s-14.3,0.8-17.7,2.4c-0.2,0.1-0.3,0.2-0.5,0.3
		c-5.9,1.7-10.7,6.4-12.4,12.6l-3.9,14.7H45v49h40v-49h15l-3.9-14.7C94.3,95,89.2,90.1,82.8,88.6"/>
	<path d="M85,165.1H45v-49H30.5l3.9-14.7c1.6-6,6.4-10.9,12.4-12.6h0.1c0.1-0.1,0.3-0.2,0.4-0.3c3.4-1.6,9.4-2.4,17.7-2.4
		s14.3,0.8,17.7,2.4l0.2,0.1c6.4,1.5,11.5,6.4,13.2,12.8l3.9,14.7H85L85,165.1 M46,164.1h38v-49h14.7l-3.6-13.4
		c-1.6-6.1-6.4-10.7-12.5-12.2l-0.3-0.1c-3.3-1.5-9.1-2.3-17.3-2.3s-14,0.8-17.3,2.3c-0.1,0.1-0.3,0.1-0.4,0.2l-0.2,0.2
		c-5.7,1.7-10.2,6.2-11.7,12l-3.6,13.4H46V164.1"/>
	<path class="st10" d="M86,91.1H46c-0.6,0-1-0.4-1-1s0.4-1,1-1h40c0.6,0,1,0.4,1,1S86.6,91.1,86,91.1"/>
	<path class="st10" d="M96,101.1H37c-0.6,0-1-0.4-1-1s0.4-1,1-1h59c0.6,0,1,0.4,1,1S96.6,101.1,96,101.1z"/>
	<path class="st10" d="M98,111.1H34c-0.6,0-1-0.4-1-1s0.4-1,1-1h64c0.6,0,1,0.4,1,1S98.6,111.1,98,111.1"/>
	<path class="st10" d="M85,121.1H46c-0.6,0-1-0.4-1-1s0.4-1,1-1h39c0.6,0,1,0.4,1,1S85.6,121.1,85,121.1"/>
	<path class="st10" d="M85,131.1H46c-0.6,0-1-0.4-1-1s0.4-1,1-1h39c0.6,0,1,0.4,1,1S85.6,131.1,85,131.1"/>
	<path class="st10" d="M85,141.1H46c-0.6,0-1-0.4-1-1s0.4-1,1-1h39c0.6,0,1,0.4,1,1S85.6,141.1,85,141.1"/>
	<path class="st10" d="M85,151.1H46c-0.6,0-1-0.4-1-1s0.4-1,1-1h39c0.6,0,1,0.4,1,1C86,150.7,85.6,151.1,85,151.1"/>
	<path class="st10" d="M84,161.1H46c-0.6,0-1-0.4-1-1s0.4-1,1-1h38c0.6,0,1,0.4,1,1C85,160.7,84.6,161.1,84,161.1"/>
	<path d="M85,165.1H45v-49H30.5l3.9-14.7c1.6-6,6.4-10.9,12.4-12.6h0.1c0.1-0.1,0.3-0.2,0.4-0.3c3.4-1.6,9.4-2.4,17.7-2.4
		s14.3,0.8,17.7,2.4l0.2,0.1c6.4,1.5,11.5,6.4,13.2,12.8l3.9,14.7H85L85,165.1 M46,164.1h38v-49h14.7l-3.6-13.4
		c-1.6-6.1-6.4-10.7-12.5-12.2l-0.3-0.1c-3.3-1.5-9.1-2.3-17.3-2.3s-14,0.8-17.3,2.3c-0.1,0.1-0.3,0.1-0.4,0.2l-0.2,0.2
		c-5.7,1.7-10.2,6.2-11.7,12l-3.6,13.4H46V164.1"/>
	<path class="st11" d="M51.3,161.1h-5v3h5.2C51.4,163.1,51.3,162.1,51.3,161.1 M50.7,151.1h-4.4v8h4.9
		C51,156.3,50.8,153.7,50.7,151.1 M50,141.1h-3.8v8h4.3C50.4,146.3,50.2,143.7,50,141.1 M49.4,131.1h-3.2v8h3.7
		C49.7,136.3,49.6,133.6,49.4,131.1 M48.7,121.1h-2.5v8h3C49.1,126.2,48.9,123.5,48.7,121.1 M47.9,111.1h-5.3
		c0.1,1.1,0.2,2.2,0.4,3.5l1.6,0.5H46v0.4l0.2,0.1v3.5h2.3C48.3,116,48.1,113.3,47.9,111.1 M47,103.6c-2.7,0-4.2,1.8-4.4,5.5h5.1
		C47.4,106,47.2,104.1,47,103.6"/>
	<path class="st12" d="M47.7,109.1h-5.1c0,0.6,0,1.3,0,2h5.3C47.9,110.4,47.8,109.7,47.7,109.1"/>
	<path class="st12" d="M48.6,119.1h-2.3v2h2.5C48.7,120.4,48.6,119.8,48.6,119.1"/>
	<path class="st12" d="M49.3,129.1h-3v2h3.2C49.3,130.4,49.3,129.8,49.3,129.1"/>
	<path class="st12" d="M49.9,139.1h-3.7v2H50C50,140.4,50,139.8,49.9,139.1"/>
	<path class="st12" d="M50.5,149.1h-4.3v2h4.4C50.6,150.4,50.6,149.8,50.5,149.1"/>
	<path class="st12" d="M51.1,159.1h-4.9v2h5C51.2,160.4,51.2,159.8,51.1,159.1"/>
	<path d="M51.4,164.1h-5.2v1h5.3C51.5,164.8,51.5,164.4,51.4,164.1 M46,115.1h-1.4l1.4,0.4V115.1"/>
	<path class="st13" d="M85.1,121.1C85.1,121.1,85,121.1,85.1,121.1l-0.1,3.5L85.1,121.1 M85.1,116.1L85.1,116.1l-0.1,3h0.1l0.1-2.7
		C85.2,116.3,85.2,116.2,85.1,116.1"/>
	<path d="M85.2,116.1L85.2,116.1c-0.1,0.1,0,0.2,0,0.3V116.1"/>
	<path class="st11" d="M84,161.1h-3.5c0,1,0,2,0,3H84V161.1 M84,151.1h-3.4c0,2.6-0.1,5.2-0.1,8h3.4L84,151.1 M84,141.1h-3.2
		c0,2.5-0.1,5.2-0.1,8H84L84,141.1 M84,131.1h-3.1c0,2.5-0.1,5.2-0.1,8H84V131.1 M84,121.1h-2.9c-0.1,2.4-0.1,5.1-0.2,8h3L84,121.1
		 M89.7,111.1h-8.3c-0.1,2.3-0.2,4.9-0.2,8H84v-4h1.2v-0.5h5.3C90.3,113.4,90,112.2,89.7,111.1 M82.1,101.1c-0.2,0.6-0.4,3.3-0.6,8
		h7.7C87.4,103.8,85.1,101.1,82.1,101.1"/>
	<path class="st12" d="M89.1,109.1h-7.6c0,0.6-0.1,1.3-0.1,2h8.3C89.5,110.4,89.3,109.7,89.1,109.1"/>
	<path class="st12" d="M84,119.1L84,119.1h-2.8c0,0.7,0,1.3,0,2h2.9L84,119.1 M85,119.1v2h0.1L85,119.1L85,119.1"/>
	<path class="st12" d="M84,129.1L84,129.1h-3c0,0.7,0,1.3,0,2h3.1L84,129.1"/>
	<path class="st12" d="M84,139.1L84,139.1h-3.2c0,0.7,0,1.3,0,2H84V139.1"/>
	<path class="st12" d="M84,149.1L84,149.1h-3.3c0,0.7,0,1.3,0,2h3.4L84,149.1"/>
	<path class="st12" d="M84,159.1L84,159.1h-3.4c0,0.7,0,1.3,0,2h3.5l0,0L84,159.1L84,159.1"/>
	<path d="M85.2,115.1H84v4v2v8v2v8v2v8v2v8v2v3h-3.5c0,0.2,0,0.3,0,0.5H84l1-40v-3.5v-2v-3h0.2V115.1"/>
	<path class="st13" d="M63.3,86.1c-1.7,0-3.4,0-4.8,0.1v0.1c1.7-0.1,3.6-0.2,5.6-0.2C63.9,86.1,63.6,86.1,63.3,86.1"/>
	<path class="st11" d="M65,87.1c-2.4,0-4.5,0.1-6.5,0.2c0.1,0.8,0.3,1.3,0.6,1.6c0.1,0.1,0.1,0.1,0.2,0.2h12.3
		c0.1-0.1,0.1-0.1,0.2-0.2c0.3-0.3,0.6-0.8,0.6-1.6C70.3,87.2,67.8,87.1,65,87.1 M64.1,86.1c-2,0-3.9,0.1-5.6,0.2l0,0
		C60.2,86.2,62.1,86.1,64.1,86.1L64.1,86.1"/>
	<path class="st12" d="M71.6,89.1H59.4c0.4,0.3,1,0.5,1.8,0.5h8.6C70.6,89.6,71.2,89.4,71.6,89.1"/>
	<path d="M64.1,86.1c-2,0-3.9,0.1-5.6,0.2v0.5c0,0.2,0,0.3,0,0.5c2-0.1,4.1-0.2,6.5-0.2c2.8,0,5.3,0.1,7.5,0.3c0-0.2,0-0.4,0-0.6
		v-0.3C70.1,86.3,67.1,86.1,64.1,86.1"/>
	<path class="st13" d="M57.5,86.3c-0.9,0.1-1.6,0.2-2.2,0.3C56,86.5,56.7,86.4,57.5,86.3L57.5,86.3"/>
	<path class="st11" d="M70.2,91.1H56.4c1.6,0.6,3.6,1,6.1,1C65.1,92.1,67.8,91.7,70.2,91.1 M73.5,87.5c-0.1,0.6-0.2,1.2-0.5,1.6h2.7
		c0.7-0.4,1.2-0.8,1.3-1.2C75.9,87.7,74.7,87.6,73.5,87.5 M57.5,87.4c-1.7,0.1-3.2,0.3-4.5,0.5c-0.1,0.4,0,0.8,0.3,1.2H58
		C57.7,88.6,57.6,88,57.5,87.4 M57.5,86.4c-0.8,0.1-1.5,0.1-2.2,0.2c0,0,0,0-0.1,0C55.9,86.5,56.7,86.5,57.5,86.4L57.5,86.4"/>
	<path class="st12" d="M75.7,89.1H73c-0.1,0.2-0.2,0.4-0.4,0.5c-0.7,0.7-1.6,1-2.7,1l0,0h-8.6l0,0c-1.1,0-2.1-0.3-2.7-1
		c-0.2-0.2-0.3-0.3-0.4-0.5h-4.7c0.5,0.7,1.6,1.4,3.1,2h13.8C72.5,90.5,74.4,89.8,75.7,89.1"/>
	<path d="M73.5,86.6v0.2c0,0.2,0,0.5,0,0.7c1.3,0.1,2.4,0.3,3.5,0.5c0.1-0.2,0-0.4-0.3-0.6C76.3,87.1,75.1,86.8,73.5,86.6
		 M57.5,86.4c-0.8,0.1-1.6,0.1-2.3,0.2c-0.3,0.1-0.6,0.1-0.9,0.2c-0.8,0.3-1.2,0.7-1.3,1.1c1.3-0.2,2.8-0.4,4.5-0.5
		c0-0.2,0-0.4,0-0.6V86.4"/>
	<path class="st4" d="M61.2,81.1c-2.1,0-3.1-1-3.2-3v8.8c0,2.1,1.1,3.2,3.2,3.2h8.6c2.1,0,3.2-1.1,3.2-3.2v-8.8c-0.1,2-1.1,3-3.2,3
		H61.2z"/>
	<path class="st5" d="M73,66.3c0-2.1-1.1-3.2-3.2-3.2h-8.6c-2.1,0-3.2,1.1-3.2,3.2v11.8c0.1,2,1.1,3,3.2,3h8.6c2.1,0,3.1-1,3.2-3
		V66.3"/>
	<path d="M58,77.7h0.5V65.4c0-1,0.2-1.7,0.7-2.1c0.4-0.4,1.1-0.7,2-0.7h8.6c1,0,1.6,0.2,2,0.7c0.4,0.4,0.7,1.1,0.7,2.1v12.3v9.1
		c0,1-0.2,1.7-0.7,2.1c-0.4,0.4-1.1,0.7-2,0.7h-8.6c-1,0-1.6-0.2-2-0.7c-0.5-0.4-0.7-1.1-0.7-2.1v-9.1H58h-0.5v9.1
		c0,1.2,0.3,2.2,0.9,2.8c0.7,0.7,1.6,1,2.8,1h8.6c1.1,0,2.1-0.3,2.8-1c0.7-0.7,0.9-1.7,0.9-2.8v-9.1V65.4c0-1.2-0.3-2.2-0.9-2.8
		c-0.7-0.7-1.6-1-2.8-1h-8.6c-1.1,0-2.1,0.3-2.8,1s-0.9,1.7-0.9,2.8v12.3L58,77.7"/>
	<path class="st4" d="M84,56.1v-8c0-5.5-1.6-10.2-4.9-14.2c-3.3-3.9-7.2-5.8-11.8-5.8h-3.5c-4.6,0-8.6,1.9-11.9,5.8
		c-3.3,3.9-4.9,8.7-4.9,14.2v8c0,5.5,1.6,10.2,4.9,14.1c3.3,3.9,7.2,5.9,11.9,5.9h3.5c4.6,0,8.6-2,11.8-5.9
		C82.4,66.3,84,61.6,84,56.1"/>
	<path d="M63.7,28.1v0.5h3.5c4.5,0,8.3,1.9,11.4,5.6l0,0c3.2,3.9,4.8,8.4,4.8,13.9v8c0,5.4-1.6,10-4.8,13.8l0,0
		c-3.2,3.8-7,5.7-11.4,5.7h-3.5c-4.5,0-8.3-1.9-11.5-5.7l0,0c-3.2-3.8-4.8-8.3-4.8-13.8v-8c0-5.4,1.6-10,4.8-13.9l-0.4-0.3l0.4,0.3
		c3.2-3.8,7-5.6,11.5-5.6V28.1v-0.5c-4.8,0-8.9,2-12.3,6l0,0c-3.3,4-5,8.9-5,14.5v8c0,5.6,1.7,10.4,5,14.4l0,0
		c3.3,4,7.5,6.1,12.3,6.1h3.5c4.8,0,8.9-2.1,12.2-6.1L79,70.2l0.4,0.3c3.4-4,5-8.8,5-14.4v-8c0-5.6-1.7-10.5-5-14.5l0,0
		c-3.3-4-7.4-6-12.2-6h-3.5V28.1"/>
	<path class="st3" d="M64.9,35.1l1.2-7l9.6,6.3l1.4-2.9l1-0.3c-3.4-6.4-8.6-9-15.6-7.8l-11.4,1.9c1.3,4.1,1.9,6.2,1.8,6.2
		c2.3-1.5,3.5-2.3,3.5-2.3l0.6,0.6L64.9,35.1z"/>
	<path d="M56.7,30.2l7.9,5.4c0.1,0.1,0.3,0.1,0.5,0.1s0.3-0.2,0.3-0.3l1.4-5.8l8.5,5.5c0.1,0.1,0.3,0.1,0.4,0.1s0.3-0.1,0.3-0.3
		l1.1-2.3l1.5,1.6c0.2,0.2,0.5,0.2,0.7,0s0.2-0.5,0-0.7l-2-2.1c-0.1-0.1-0.3-0.2-0.4-0.2c-0.2,0-0.3,0.1-0.4,0.3l-1.2,2.4l-8.7-5.5
		c-0.1-0.1-0.3-0.1-0.5,0s-0.3,0.2-0.3,0.3l-1.4,5.8l-7.3-5c-0.2-0.2-0.5-0.1-0.7,0.1C56.4,29.7,56.5,30,56.7,30.2L56.7,30.2z"/>
	<path class="st14" d="M84.4,58.3c-0.4,4.6-2,8.6-4.8,12c1.6-1.6,2.8-3.6,3.6-5.8l0.7-1.9c0.4-1,0.5-2.1,0.5-3.1
		C84.5,59.1,84.5,58.7,84.4,58.3 M46.5,58c-0.2,1.5-0.1,3.1,0.4,4.6l0.7,1.9c0.8,2.3,2.1,4.3,3.8,6C48.5,67,46.9,62.8,46.5,58"/>
	<path class="st15" d="M75.1,50.1H55.8c-1.1,0-2.1,0.2-3.1,0.5c-2.3,0.8-4.1,2.5-5.2,4.5v1c0,5.4,1.6,10,4.8,13.8l0,0
		c1.7,2.1,3.6,3.6,5.7,4.5c1.5,0.5,3.1,0.7,4.8,0.7h5.5c1.7,0,3.4-0.3,5-0.8c2-0.9,3.8-2.4,5.5-4.4l0,0c3.2-3.8,4.8-8.3,4.8-13.8
		v-0.8C82,52.2,78.8,50.1,75.1,50.1"/>
	<path class="st16" d="M83.5,55.3v0.8c0,5.4-1.6,10-4.8,13.8l0,0c-1.7,2-3.5,3.5-5.5,4.4c2.4-0.8,4.7-2.2,6.4-4
		c2.8-3.4,4.4-7.4,4.8-12C84.3,57.3,84,56.2,83.5,55.3 M47.5,55.2C47,56.1,46.7,57,46.6,58c0.3,4.8,2,9,4.9,12.5
		c1.8,1.8,4,3.1,6.5,3.9c-2.1-0.9-3.9-2.4-5.7-4.5l0,0c-3.2-3.8-4.8-8.3-4.8-13.8V55.2"/>
	<path d="M65.7,55.6c-2.6,0-5.2-0.7-7.9-2c-0.2-0.1-0.3-0.4-0.2-0.7c0.1-0.2,0.4-0.3,0.7-0.2c5.1,2.6,10,2.6,14.5,0
		c0.2-0.1,0.5,0,0.7,0.2c0.1,0.2,0,0.5-0.2,0.7C70.8,54.9,68.3,55.6,65.7,55.6z M64,50.6v-0.5L63.5,50c0-0.1,0-0.9,0-4.9
		c0-0.3,0.2-0.5,0.5-0.5s0.5,0.2,0.5,0.5c0,2.5,0,3.8,0,4.5l3.5-0.2c0.3,0,0.5,0.2,0.5,0.5s-0.2,0.5-0.5,0.5L64,50.6z"/>
	<path d="M45.3,43.9h41.5c0.3,0,0.5-0.2,0.5-0.5c0-0.3-0.2-0.5-0.5-0.5H45.3c-0.3,0-0.5,0.2-0.5,0.5C44.8,43.7,45,43.9,45.3,43.9"/>
	<path class="st6" d="M53,41.1h8c1.1,0,2,0.9,2,2v3c0,1.1-0.9,2-2,2h-8c-1.1,0-2-0.9-2-2v-3C51,42,51.9,41.1,53,41.1z"/>
	<path d="M53.5,41.6v0.5h7c0.8,0,1.5,0.7,1.5,1.5v2c0,0.8-0.7,1.5-1.5,1.5h-7c-0.8,0-1.5-0.7-1.5-1.5v-2c0-0.8,0.7-1.5,1.5-1.5V41.6
		v-0.5c-1.4,0-2.5,1.1-2.5,2.5v2c0,1.4,1.1,2.5,2.5,2.5h7c1.4,0,2.5-1.1,2.5-2.5v-2c0-1.4-1.1-2.5-2.5-2.5h-7V41.6z"/>
	<path class="st6" d="M70,41.1h8c1.1,0,2,0.9,2,2v3c0,1.1-0.9,2-2,2h-8c-1.1,0-2-0.9-2-2v-3C68,42,68.9,41.1,70,41.1z"/>
	<path d="M70.5,41.6v0.5h7c0.8,0,1.5,0.7,1.5,1.5v2c0,0.8-0.7,1.5-1.5,1.5h-7c-0.8,0-1.5-0.7-1.5-1.5v-2c0-0.8,0.7-1.5,1.5-1.5V41.6
		v-0.5c-1.4,0-2.5,1.1-2.5,2.5v2c0,1.4,1.1,2.5,2.5,2.5h7c1.4,0,2.5-1.1,2.5-2.5v-2c0-1.4-1.1-2.5-2.5-2.5h-7V41.6z"/>
	<path class="st17" d="M59.7,44.8c0.2-0.2,0.3-0.4,0.3-0.7s-0.1-0.5-0.3-0.7s-0.4-0.3-0.7-0.3s-0.6,0.1-0.8,0.3
		c-0.1,0.2-0.2,0.4-0.2,0.7s0.1,0.5,0.2,0.7c0.2,0.2,0.5,0.3,0.8,0.3S59.5,45,59.7,44.8z"/>
	<path class="st17" d="M72.7,44.8c0.2-0.2,0.3-0.4,0.3-0.7s-0.1-0.5-0.3-0.7c-0.2-0.2-0.4-0.3-0.7-0.3s-0.6,0.1-0.8,0.3
		c-0.1,0.2-0.2,0.4-0.2,0.7s0.1,0.5,0.2,0.7c0.2,0.2,0.5,0.3,0.8,0.3S72.5,45,72.7,44.8z"/>
</g>
</svg>
