<?xml version="1.0" encoding="utf-8"?>
<!-- Generator: Adobe Illustrator 22.0.1, SVG Export Plug-In . SVG Version: 6.00 Build 0)  -->
<!DOCTYPE svg PUBLIC "-//W3C//DTD SVG 1.1//EN" "http://www.w3.org/Graphics/SVG/1.1/DTD/svg11.dtd">
<svg version="1.1" id="Layer_1" xmlns="http://www.w3.org/2000/svg" xmlns:xlink="http://www.w3.org/1999/xlink" x="0px" y="0px"
	 viewBox="0 0 130 270" style="enable-background:new 0 0 130 270;" xml:space="preserve">
<style type="text/css">
	.st0{fill:#FFD9B3;}
	.st1{fill:#EAAF75;}
	.st2{fill:#1D2A42;}
	.st3{fill:#FFFFFF;}
	.st4{fill:#FFD5AC;}
	.st5{fill:#353339;}
	.st6{fill:#B1B1B1;}
	.st7{fill:#F7DAC7;}
	.st8{fill:#E0AC89;}
	.st9{fill:#FFCC99;}
	.st10{fill:#DDBBA5;}
	.st11{fill:#E5BB9D;}
	.st12{fill:#513600;}
</style>
<g>
	<path class="st0" d="M87,171.6l-4.5-1.3l-7.8,6.8c-0.4,0.3-0.7,0.7-0.7,1.2c0,0.5,0.2,1,0.6,1.4c0.4,0.4,0.8,0.7,1.3,0.8
		c0.5,0,0.9-0.2,1.3-0.5l5.1-4.1l-0.6,2.5l-7.5,6.1c-0.4,0.3-0.5,0.7-0.5,1.2c-0.1,0.5,0,1,0.4,1.4c0.4,0.4,0.8,0.6,1.4,0.7
		c0.4,0,0.8-0.1,1.1-0.2c0.3,0.2,0.7,0.4,1,0.5c0.4,0.1,0.8,0,1.1-0.2c0.3,0.3,0.7,0.4,1.1,0.5c0.4,0,0.8-0.1,1.2-0.4l8.6-7
		c1.6-1.2,1.1-3.7,1.4-6"/>
	<path d="M80,188.9l-0.1,0c-0.4,0-0.8-0.2-1.1-0.4c-0.3,0.1-0.7,0.2-1.1,0.1c-0.4-0.1-0.7-0.2-1-0.4c-0.3,0.1-0.7,0.2-1.1,0.2
		c-0.7-0.1-1.3-0.4-1.8-0.9c-0.5-0.5-0.7-1.1-0.5-1.8c0-0.6,0.2-1.2,0.7-1.6l7.3-6l0.2-0.9l-3.9,3.2c-0.5,0.4-1.1,0.6-1.7,0.6
		l-0.1,0c-0.6-0.2-1.2-0.5-1.6-1c-0.4-0.5-0.7-1.1-0.7-1.7c0.1-0.7,0.4-1.2,0.9-1.6l7.8-6.8c0.1-0.1,0.3-0.2,0.5-0.1l4.5,1.3
		c0.3,0.1,0.4,0.4,0.3,0.6c-0.1,0.3-0.4,0.4-0.6,0.3l-4.2-1.2l-7.6,6.7c-0.4,0.3-0.5,0.5-0.6,0.9c0,0.3,0.2,0.7,0.5,1
		c0.3,0.3,0.6,0.6,1,0.7c0.3,0,0.7-0.1,1-0.4l5-4.1c0.2-0.1,0.4-0.2,0.6,0c0.2,0.1,0.3,0.3,0.2,0.5l-0.6,2.5c0,0.1-0.1,0.2-0.2,0.3
		l-7.5,6.1c-0.2,0.2-0.3,0.4-0.3,0.8l0,0.2c0,0.2-0.1,0.5,0.3,1c0.3,0.3,0.6,0.5,1.1,0.5c0.3,0,0.6,0,0.8-0.2c0.2-0.1,0.4-0.1,0.6,0
		c0.3,0.2,0.5,0.3,0.8,0.4c0.3,0,0.5,0,0.7-0.1c0.2-0.1,0.4-0.1,0.6,0c0.3,0.2,0.6,0.3,0.9,0.4c0.3,0,0.6-0.1,0.8-0.3l8.6-7
		c1-0.7,1-2.1,1.1-3.7c0-0.7,0.1-1.4,0.2-2c0-0.3,0.3-0.5,0.6-0.4c0.3,0,0.5,0.3,0.4,0.6c-0.1,0.6-0.1,1.3-0.2,1.9
		c-0.1,1.7-0.2,3.4-1.5,4.4l-8.6,7C81,188.7,80.6,188.9,80,188.9z"/>
	<path class="st1" d="M90.4,178.4c-0.4,1.9-0.4,2.5,0,1.6c-0.1,0.4-0.3,0.7-0.6,1l-8.5,7c-0.4,0.3-0.7,0.4-1.2,0.4
		c-0.4,0-0.8-0.2-1.1-0.5c0.1,0,0.2-0.1,0.3-0.2c-0.1,0.1-0.2,0.2-0.3,0.2c-0.3,0.2-0.6,0.3-1.1,0.2c-0.4-0.1-0.7-0.2-1-0.5
		c0.1,0,0.2,0,0.2-0.1l7.5-6.1l2.8-0.3L90.4,178.4z"/>
	<path d="M98.2,142.4c0.2-3.8-2-15.3-4.3-26.1c-0.9-4.3-4.8-7-11.5-8c0.7,8.8,1.2,14.3,1.5,16.5c2.1,6,3.5,12.6,4,19.6
		c1.1,14.2-0.3,20.5-3,26.9c-2.5,6,8,6.5,9,3.5C98,162.8,99.5,152,98.2,142.4z"/>
	<path d="M89.7,177c-1.9,0-4-0.6-5-1.9c-0.6-0.8-1.2-2.1-0.3-4.1c2.7-6.6,4-12.8,3-26.6c-0.5-7-1.9-13.6-4-19.5
		c-0.3-2.3-0.8-7.9-1.5-16.6l0-0.6l0.6,0.1c6.9,1,11,3.9,11.9,8.4c3,14.1,4.5,23,4.3,26.2c1.3,9.7-0.2,20.6-4.4,32.6
		c-0.3,1-1.4,1.7-3.1,2C90.8,177,90.3,177,89.7,177z M82.9,108.8c0.7,8.4,1.1,13.7,1.4,15.8c2.1,5.9,3.5,12.6,4,19.7
		c1.1,14.1-0.2,20.4-3,27.1c-0.5,1.2-0.5,2.3,0.2,3c1.1,1.4,3.7,1.8,5.6,1.4c1.2-0.2,2.1-0.7,2.3-1.3c4.1-11.8,5.6-22.6,4.3-32.2
		l0,0l0,0c0.1-3.1-1.4-12.1-4.3-26C92.5,112.4,89,109.9,82.9,108.8z"/>
	<path class="st0" d="M44.9,172.2l5.2-1.7l9.1,7.6c0.5,0.3,0.8,0.8,0.8,1.3c0,0.6-0.3,1.1-0.7,1.6c-0.4,0.5-0.9,0.8-1.5,1
		c-0.6,0-1.1-0.1-1.6-0.5l-5.9-4.6L51,180l8.7,6.7c0.4,0.3,0.6,0.8,0.6,1.4c0.1,0.6,0,1.1-0.5,1.7c-0.4,0.5-1,0.8-1.6,0.9
		c-0.5,0-0.9,0-1.3-0.2c-0.4,0.3-0.8,0.5-1.2,0.6c-0.5,0.1-0.9,0-1.3-0.2c-0.4,0.3-0.8,0.5-1.3,0.6c-0.5,0-1-0.1-1.4-0.4l-10-7.8
		c-1.8-1.3-1.3-4.2-1.7-6.9"/>
	<path d="M52.9,191.8c-0.6,0-1.1-0.2-1.5-0.5l-10-7.8c-1.5-1.1-1.6-3-1.7-5c0-0.7-0.1-1.5-0.2-2.2c0-0.3,0.1-0.5,0.4-0.6
		c0.3,0,0.5,0.1,0.6,0.4c0.1,0.8,0.2,1.6,0.2,2.3c0.1,1.8,0.2,3.4,1.3,4.2l10,7.8c0.3,0.2,0.7,0.3,1,0.3c0.3,0,0.7-0.2,1-0.5
		c0.2-0.1,0.4-0.1,0.6,0c0.2,0.2,0.5,0.2,0.9,0.1c0.3-0.1,0.6-0.3,1-0.5c0.2-0.1,0.4-0.1,0.5,0c0.3,0.2,0.6,0.2,1,0.2
		c0.5-0.1,1-0.3,1.3-0.7c0.4-0.4,0.5-0.8,0.4-1.2l0-0.2c0-0.4-0.1-0.7-0.4-0.9l-8.7-6.7c-0.1-0.1-0.2-0.2-0.2-0.3l-0.7-2.9
		c0-0.2,0-0.4,0.2-0.5c0.2-0.1,0.4-0.1,0.6,0l5.9,4.6c0.4,0.3,0.7,0.4,1.2,0.4c0.5-0.2,0.9-0.4,1.2-0.8c0.4-0.4,0.6-0.8,0.6-1.3
		c0-0.3-0.2-0.7-0.6-0.9l-8.9-7.4l-4.9,1.6c-0.3,0.1-0.5-0.1-0.6-0.3c-0.1-0.3,0.1-0.5,0.3-0.6l5.2-1.7c0.2,0,0.3,0,0.5,0.1l9.1,7.6
		c0.6,0.4,0.9,1,1,1.7c0,0.8-0.3,1.4-0.8,2c-0.5,0.6-1.1,1-1.8,1.2l-0.1,0c-0.7,0-1.3-0.2-1.9-0.6l-4.8-3.7l0.3,1.3l8.5,6.6
		c0.5,0.4,0.8,1,0.8,1.7c0.1,0.7-0.1,1.4-0.6,2c-0.5,0.6-1.1,0.9-1.9,1c-0.5,0-0.9,0-1.3-0.2c-0.4,0.2-0.7,0.4-1.1,0.5
		c-0.5,0.1-1,0-1.3-0.1c-0.4,0.3-0.8,0.4-1.3,0.5L52.9,191.8z"/>
	<path class="st1" d="M41,180.2c0.5,2.2,0.5,2.9,0,1.8c0.1,0.4,0.3,0.8,0.7,1.1l9.9,7.7c0.4,0.3,0.9,0.4,1.4,0.4
		c0.5-0.1,0.9-0.3,1.3-0.6c-0.1,0-0.3-0.1-0.4-0.2c0.1,0.1,0.2,0.2,0.4,0.2c0.3,0.2,0.7,0.3,1.2,0.2c0.4-0.1,0.8-0.3,1.2-0.6
		c-0.1,0-0.2,0-0.2-0.1l-8.7-6.8l-3.3-0.2L41,180.2z"/>
	<path d="M33.9,142.2c-0.2-3.8,2-15.3,4.3-26.1c0.9-4.3,4.7-7,11.5-8c-0.7,8.8-1.2,14.3-1.5,16.5c-2.1,6-3.5,12.6-4,19.6
		c-1.1,14.2,0.3,20.5,3,26.9c2.5,6-8,6.5-9,3.5C34.1,162.7,32.6,151.9,33.9,142.2z"/>
	<path d="M42.3,176.9c-0.5,0-1,0-1.5-0.1c-1.6-0.3-2.7-1-3.1-2c-4.2-11.9-5.6-22.9-4.3-32.6c-0.1-3.2,1.3-12,4.3-26.2
		c1-4.5,5-7.4,11.9-8.4l0.6-0.1l0,0.6c-0.7,8.8-1.2,14.3-1.5,16.5c-2.1,6-3.5,12.6-4,19.6c-1.1,13.9,0.2,20.1,3,26.6
		c0.8,2,0.3,3.3-0.3,4.1C46.3,176.3,44.2,176.9,42.3,176.9z M49.2,108.7c-6.1,1-9.6,3.6-10.5,7.5c-2.9,13.9-4.4,22.9-4.3,26l0,0l0,0
		c-1.3,9.5,0.2,20.3,4.3,32.2c0.2,0.6,1.1,1.1,2.3,1.3c1.9,0.3,4.5-0.1,5.6-1.4c0.6-0.8,0.7-1.8,0.2-3c-2.8-6.7-4.1-13-3-27.1
		c0.5-7.1,1.9-13.7,4-19.8C48,122.4,48.5,117.1,49.2,108.7z"/>
	<path class="st2" d="M96.1,261.8c-1.4-1.4-4.1-3.1-7.9-5.1C91.6,258.6,94.3,260.3,96.1,261.8z M72.7,250.3c0,0.1,0,0.2-0.1,0.4
		c-2.4,3.6-3.1,6.4-2.2,8.4c0.6,0.8,1.5,1.5,2.9,2.2c11.5,4.5,19,6.1,22.3,4.7c0.9-0.2,1.4-1.1,1.4-2.7c0-0.6-0.4-1.2-1.1-2
		c-1.8-1.4-4.4-3-7.8-4.9c-0.4-0.2-0.9-0.4-1.3-0.7C79.9,252.4,75.2,250.6,72.7,250.3z"/>
	<path class="st3" d="M86.7,255.8c-7.3-3.9-12.2-5.9-14.9-6.1c0,0.1,0,0.3-0.1,0.5c-2.7,4.6-3.6,8.1-2.6,10.6c0.5,1,0.8,1.6,2.4,2.5
		c11,4.6,20.4,7.3,24.5,5.9c1.1-0.2,2.6-1.8,2.6-3.8c0-1-1-2.4-2.9-3.9c0.8,0.8,1.2,1.5,1.1,2c0,1.6-0.5,2.6-1.4,2.8
		c-3.3,1.4-10.7-0.2-22.1-4.7c-1.4-0.7-2.3-1.5-2.9-2.3c-0.9-2-0.1-4.9,2.2-8.5c0-0.1,0-0.3,0.1-0.4
		C75.1,250.6,79.8,252.4,86.7,255.8c0.2,0.1,0.4,0.2,0.6,0.3c0.3,0.1,0.5,0.2,0.7,0.4c3.8,1.9,6.3,3.6,7.7,4.9
		c-1.8-1.4-4.4-3.1-7.7-4.9C87.5,256.3,87.1,256,86.7,255.8z"/>
	<path d="M93.3,270c-5.6,0-14.8-3.3-22-6.3c-1.6-0.9-2-1.6-2.5-2.5l-0.1-0.2c-1-2.7-0.2-6.3,2.6-11l0.1-0.4c0-0.3,0.2-0.4,0.5-0.4
		c2.8,0.2,7.7,2.2,15.1,6.2l0,0l0,0c0.2,0.1,0.4,0.2,0.6,0.3c0.3,0.1,0.5,0.2,0.7,0.4c3.7,1.9,6.4,3.6,7.8,5c2,1.7,3,3.1,3,4.3
		c-0.1,2.2-1.6,4-3,4.3C95.3,269.8,94.3,270,93.3,270z M72.2,250.2l-0.1,0.2c-2.6,4.4-3.5,7.9-2.6,10.2l0.1,0.1
		c0.5,0.8,0.7,1.4,2.1,2.1c11.9,5,20.5,7.1,24.1,5.9c1-0.2,2.3-1.5,2.3-3.3c0-0.4-0.2-0.9-0.7-1.6c-0.1,1.7-0.7,2.8-1.8,3
		c-3.4,1.4-10.7-0.1-22.4-4.7c-1.5-0.8-2.5-1.6-3.1-2.4l-0.1-0.1c-0.9-2.2-0.2-5.1,2.2-8.9L72.2,250.2L72.2,250.2L72.2,250.2z
		 M70.8,259c0.5,0.7,1.4,1.4,2.7,2.1c11.2,4.4,18.6,6,21.7,4.7c0.3-0.1,1.1-0.3,1.1-2.3c0-0.3-0.1-0.8-1-1.7c-1.8-1.4-4.3-3-7.6-4.9
		c-0.4-0.2-0.9-0.4-1.3-0.7c-6.4-3.1-10.8-4.9-13.3-5.3l0,0.1C70.8,254.5,70.1,257.2,70.8,259z"/>
	<path class="st2" d="M33.9,261.8c1.4-1.4,4.1-3.1,7.9-5.1C38.3,258.6,35.7,260.4,33.9,261.8z M57.2,250.4c0,0.1,0,0.2,0.1,0.4
		c2.4,3.6,3.1,6.4,2.2,8.4c-0.6,0.8-1.5,1.5-2.9,2.2c-11.5,4.5-19,6.1-22.3,4.7c-0.9-0.2-1.4-1.1-1.4-2.7c0-0.6,0.4-1.2,1.1-2
		c1.8-1.4,4.4-3,7.8-4.9c0.4-0.2,0.9-0.4,1.3-0.7C50.1,252.4,54.8,250.6,57.2,250.4z"/>
	<path class="st3" d="M43.3,255.8c7.3-3.9,12.2-5.9,14.9-6.1c0,0.1,0,0.3,0.1,0.5c2.7,4.6,3.6,8.1,2.6,10.6c-0.5,1-0.8,1.6-2.4,2.5
		c-11,4.6-20.4,7.3-24.5,5.9c-1.1-0.2-2.6-1.8-2.6-3.8c0-1,1-2.4,2.9-3.9c-0.8,0.8-1.2,1.5-1.1,2c0,1.6,0.5,2.6,1.4,2.8
		c3.3,1.4,10.7-0.2,22.1-4.7c1.4-0.7,2.3-1.5,2.9-2.3c0.9-2,0.1-4.9-2.2-8.5c0-0.1,0-0.3-0.1-0.4C54.8,250.6,50.2,252.4,43.3,255.8
		c-0.2,0.1-0.4,0.2-0.6,0.3c-0.3,0.1-0.5,0.2-0.7,0.4c-3.8,1.9-6.3,3.6-7.7,4.9c1.8-1.4,4.4-3.1,7.7-4.9
		C42.4,256.3,42.9,256.1,43.3,255.8z"/>
	<path d="M36.7,270c-1.1,0-2-0.1-2.8-0.4c-1.4-0.2-2.9-2-3-4.3c0-1.2,1-2.6,3-4.3c1.4-1.4,4.1-3.1,7.8-5c0.2-0.1,0.4-0.3,0.7-0.4
		c0.2-0.1,0.4-0.2,0.6-0.3l0,0c7.4-3.9,12.3-6,15.1-6.2c0.3,0,0.5,0.2,0.5,0.4l0.1,0.4c2.8,4.7,3.6,8.3,2.6,11l-0.1,0.2
		c-0.5,0.9-0.9,1.6-2.5,2.5C51.5,266.7,42.3,270,36.7,270z M32.6,263.7c-0.6,0.7-0.7,1.3-0.7,1.6c0,1.8,1.3,3.1,2.2,3.3
		c3.7,1.2,12.2-0.9,24.2-5.9c1.3-0.7,1.6-1.2,2-2.1l0.1-0.2c0.9-2.3,0-5.7-2.6-10.1l-0.1-0.2l-0.1,0l0,0l0,0.3
		c2.4,3.8,3.2,6.7,2.2,8.9l-0.1,0.1c-0.6,0.8-1.6,1.7-3.1,2.4c-11.8,4.6-19.1,6.2-22.6,4.7C33.3,266.5,32.7,265.5,32.6,263.7z
		 M34.6,261.8c-0.8,0.8-1,1.3-1,1.6c0,2.1,0.8,2.3,1,2.3c3.2,1.4,10.6-0.2,21.8-4.7c1.2-0.6,2.1-1.3,2.6-2c0.7-1.9,0-4.6-2.2-8
		l0-0.1c-2.5,0.4-6.9,2.2-13.3,5.3c-0.4,0.3-0.9,0.5-1.3,0.7C38.9,258.8,36.3,260.4,34.6,261.8z"/>
	<path class="st4" d="M54.8,206.8L54.8,206.8c2.2,0,4,1.8,4,4v42c0,2.2-1.8,4-4,4s-4-1.8-4-4v-42C50.8,208.5,52.6,206.8,54.8,206.8z
		"/>
	<path d="M54.8,256.8c-2.2,0-4-1.8-4-4v-42c0-2.2,1.8-4,4-4s4,1.8,4,4v42C58.8,255,57,256.8,54.8,256.8z M54.8,207.8
		c-1.7,0-3,1.3-3,3v42c0,1.7,1.3,3,3,3s3-1.3,3-3v-42C57.8,209.1,56.5,207.8,54.8,207.8z"/>
	<path class="st4" d="M74.8,206.8L74.8,206.8c2.2,0,4,1.8,4,4v42c0,2.2-1.8,4-4,4s-4-1.8-4-4v-42C70.8,208.5,72.6,206.8,74.8,206.8z
		"/>
	<path d="M74.8,256.8c-2.2,0-4-1.8-4-4v-42c0-2.2,1.8-4,4-4s4,1.8,4,4v42C78.8,255,77.1,256.8,74.8,256.8z M74.8,207.8
		c-1.7,0-3,1.3-3,3v42c0,1.7,1.3,3,3,3s3-1.3,3-3v-42C77.8,209.1,76.5,207.8,74.8,207.8z"/>
	<rect x="50.8" y="243.8" class="st5" width="8" height="5"/>
	<path d="M58.8,248.8h-8v-5h8V248.8z M51.8,247.8h6v-3h-6V247.8z"/>
	<rect x="70.8" y="243.8" class="st5" width="8" height="5"/>
	<path d="M78.8,248.8h-8v-5h8V248.8z M71.8,247.8h6v-3h-6V247.8z"/>
	<path class="st5" d="M80.4,165.4l0.4-10.7h-32v10c1.6-2,5.6-2,12,0v28.5h8v47.5c0,2.2,1.8,4,4,4h4.2c2.1,0,3.9-1.7,4-3.8
		c1.5-28.6,2.3-44.9,2.3-48.7c2-3,4.7-8.6,4-9c-3.7-2.3-5.5-7.8-5.5-16.5L80.4,165.4z"/>
	<path d="M77.1,245.3h-4.2c-2.5,0-4.5-2-4.5-4.5v-47h-7.5c-0.3,0-0.5-0.2-0.5-0.5v-28.1c-6-1.8-9.7-1.9-11.1-0.1
		c-0.1,0.2-0.4,0.2-0.6,0.2c-0.2-0.1-0.3-0.3-0.3-0.5v-10c0-0.3,0.2-0.5,0.5-0.5h32c0.1,0,0.3,0.1,0.4,0.2c0.1,0.1,0.1,0.2,0.1,0.4
		l-0.4,10.5l1.2,1.2c0.1,0.1,0.2,0.2,0.2,0.4c0,8.4,1.8,13.9,5.3,16.1c0.1,0.1,0.3,0.2,0.3,0.5c0.3,1.4-2.5,6.6-4.1,9.1
		c0,4.1-0.8,20.4-2.3,48.6C81.4,243.4,79.4,245.3,77.1,245.3z M61.3,192.8h7.5c0.3,0,0.5,0.2,0.5,0.5v47.5c0,1.9,1.6,3.5,3.5,3.5
		h4.2c1.9,0,3.4-1.5,3.5-3.3c1.5-28.5,2.3-44.9,2.3-48.7c0-0.1,0-0.2,0.1-0.3c2-3,4-7.4,4-8.4c-3.7-2.4-5.6-8-5.6-16.6l-1.3-1.2
		c-0.1-0.1-0.2-0.2-0.2-0.4l0.4-10.2h-31v8.4c2.1-1.4,5.9-1.2,11.7,0.7c0.2,0.1,0.3,0.3,0.3,0.5V192.8z"/>
	<path d="M65.8,123.3c-3.3-13.8-11.1-20.6-14-24.3c2.1-3.4,27.6-4.9,28-0.5C77.8,102.4,68.7,118.9,65.8,123.3z"/>
	<path d="M65.6,124.5l-0.3-1.1c-2.7-11.4-8.6-18-12.1-22c-0.7-0.8-1.3-1.5-1.8-2.1L51.2,99l0.2-0.3c1.8-3,18.1-4.4,25.3-2.8
		c2.3,0.5,3.5,1.4,3.6,2.5l0,0.1l-0.1,0.1c-1.8,3.4-11,20.3-14,24.8L65.6,124.5z M52.5,99c0.4,0.5,0.9,1.1,1.5,1.7
		c3.5,3.9,9.2,10.4,12.1,21.3c3.3-5.3,11-19.4,13.3-23.6c-0.2-0.6-1.2-1.1-2.8-1.5C69.3,95.3,54.8,96.9,52.5,99z"/>
	<path d="M46.3,112.3c0-10.5,38.5-10.5,38.5,0c0,6.7-0.3,22.9-0.9,48.6c-0.1,2.2-1.8,3.9-4,3.9H50.3c-2.2,0-4-1.8-4-4
		C46.3,144.6,46.3,128.4,46.3,112.3z"/>
	<path d="M79.9,164.8H50.3c-2.2,0-4-1.8-4-4v-48.5c0-4.6,7.9-7.9,19.2-7.9c11.3,0,19.3,3.2,19.3,7.9c0,6.6-0.3,23-0.9,48.6
		C83.9,163,82.1,164.8,79.9,164.8z M65.6,105.4c-10.4,0-18.2,3-18.2,6.9v48.5c0,1.7,1.3,3,3,3h29.6c1.6,0,3-1.3,3-2.9
		c0.6-25.6,0.9-42,0.9-48.6C83.8,108.3,76,105.4,65.6,105.4z"/>
	<path class="st3" d="M65.8,123.3c-1-5.7-3.8-11.3-8.5-17c1.9-0.9,4.7-1.4,8.5-1.5c3.8-0.1,7.1,0.4,10,1.5
		C71.8,113.3,68.5,118.9,65.8,123.3z"/>
	<rect x="47.8" y="163.8" width="34" height="6"/>
	<path d="M81.8,169.8h-34v-6h34V169.8z M48.8,168.8h32v-4h-32V168.8z"/>
	<path class="st6" d="M65.8,170.3c-0.3,0-0.5-0.2-0.5-0.5c-0.4-4-0.5-7.5-0.3-10.4c0.3-4.4,0.6-12.9-0.3-16.6
		c-0.6-2.6-0.6-6.4,0-11.5l0.1-8.6c-0.3-3.2-1.5-6.5-3.4-9.7c-2-3.3-5.5-7.8-10.4-13.4c-0.2-0.2-0.2-0.5,0-0.7
		c0.2-0.2,0.5-0.2,0.7,0c5,5.7,8.5,10.2,10.6,13.6c2,3.4,3.2,6.8,3.6,10.2l-0.1,8.7c-0.6,5-0.6,8.8,0,11.2
		c0.9,3.8,0.6,12.4,0.3,16.9c-0.2,2.8-0.1,6.3,0.3,10.2C66.4,170,66.2,170.2,65.8,170.3L65.8,170.3z"/>
	<path class="st7" d="M68.5,106.8c1.6,0,2.3-1,2.3-2.9v-7c0,1.8-0.8,2.6-2.3,2.6h-6.3c-1.5,0-2.3-0.9-2.3-2.7v7.1
		c0,1.9,0.8,2.9,2.3,2.9H68.5z"/>
	<path class="st8" d="M68.5,85.8h-6.3c-1.6,0-2.3,0.9-2.3,2.8v10.5c0.1,1.8,0.8,2.7,2.3,2.7h6.3c1.5,0,2.3-0.9,2.3-2.6V88.6
		C70.8,86.7,70.1,85.8,68.5,85.8z"/>
	<path d="M68.5,107.3h-6.3c-1.3,0-2.8-0.6-2.8-3.4V85.7c0-2.8,1.5-3.4,2.8-3.4h6.3c1.3,0,2.8,0.6,2.8,3.4v18.1
		C71.3,106.7,69.8,107.3,68.5,107.3z M62.2,83.3c-0.9,0-1.8,0.3-1.8,2.4v18.1c0,2.2,1,2.4,1.8,2.4h6.3c0.9,0,1.8-0.3,1.8-2.4V85.7
		c0-2.2-1-2.4-1.8-2.4H62.2z"/>
	<rect x="52.3" y="87.4" transform="matrix(0.9488 -0.3159 0.3159 0.9488 -25.0379 21.3148)" class="st9" width="1.8" height="1"/>
	<path class="st7" d="M79.4,71.2c-1,1-1.6,2.1-1.6,3.5s0.5,2.6,1.6,3.6c1.1,1,2.4,1.5,3.9,1.5c1.5,0,2.8-0.5,3.8-1.5
		c1.1-1,1.7-2.2,1.7-3.6s-0.6-2.5-1.7-3.5c-1.1-1-2.4-1.5-3.8-1.5C81.8,69.8,80.5,70.2,79.4,71.2z"/>
	<path d="M83.3,80.3c-1.6,0-3.1-0.5-4.3-1.6c-1.2-1.1-1.7-2.4-1.7-3.9c0-1.5,0.6-2.8,1.7-3.9l0,0c1.2-1,2.6-1.6,4.3-1.6
		c1.6,0,3,0.5,4.2,1.6c1.2,1.1,1.8,2.4,1.8,3.9c0,1.5-0.6,2.8-1.8,3.9C86.4,79.7,85,80.3,83.3,80.3z M79.7,71.6
		c-0.9,0.9-1.4,1.9-1.4,3.1c0,1.2,0.5,2.3,1.4,3.2c1,0.9,2.2,1.3,3.6,1.3c1.4,0,2.5-0.4,3.5-1.3c1-0.9,1.5-2,1.5-3.2
		c0-1.2-0.5-2.3-1.5-3.1c-1-0.9-2.1-1.3-3.5-1.3C81.9,70.3,80.8,70.7,79.7,71.6z"/>
	<path class="st10" d="M80.9,72.6c-0.7,0.6-1,1.3-1,2.1s0.3,1.5,1,2.1c0.7,0.6,1.5,0.9,2.5,0.9s1.8-0.3,2.4-0.9
		c0.7-0.6,1.1-1.3,1.1-2.1s-0.4-1.5-1.1-2.1c-0.7-0.6-1.5-0.9-2.4-0.9S81.6,72,80.9,72.6z"/>
	<path class="st7" d="M42.4,71.2c-1,1-1.6,2.1-1.6,3.5s0.5,2.6,1.6,3.6c1.1,1,2.4,1.5,3.9,1.5c1.5,0,2.8-0.5,3.8-1.5
		c1.1-1,1.7-2.2,1.7-3.6s-0.6-2.5-1.7-3.5c-1.1-1-2.4-1.5-3.8-1.5C44.8,69.8,43.5,70.2,42.4,71.2z"/>
	<path d="M46.3,80.3c-1.6,0-3.1-0.5-4.3-1.6c-1.2-1.1-1.7-2.4-1.7-3.9c0-1.5,0.6-2.8,1.7-3.9l0,0c1.2-1,2.6-1.6,4.3-1.6
		c1.6,0,3,0.5,4.2,1.6c1.2,1.1,1.8,2.4,1.8,3.9c0,1.5-0.6,2.8-1.8,3.9C49.4,79.7,48,80.3,46.3,80.3z M42.7,71.6
		c-0.9,0.9-1.4,1.9-1.4,3.1c0,1.2,0.5,2.3,1.4,3.2c1,0.9,2.2,1.3,3.6,1.3c1.4,0,2.5-0.4,3.5-1.3c1-0.9,1.5-2,1.5-3.2
		c0-1.2-0.5-2.3-1.5-3.1c-1-0.9-2.1-1.3-3.5-1.3C44.9,70.3,43.8,70.7,42.7,71.6z"/>
	<path class="st8" d="M43.9,72.6c-0.7,0.6-1,1.3-1,2.1s0.3,1.5,1,2.1c0.7,0.6,1.5,0.9,2.5,0.9s1.8-0.3,2.4-0.9
		c0.7-0.6,1.1-1.3,1.1-2.1s-0.4-1.5-1.1-2.1c-0.7-0.6-1.5-0.9-2.4-0.9S44.6,72,43.9,72.6z"/>
	<path class="st7" d="M50.4,52c4.6-5.2,25.9-6.7,30.8,1.4c3.7,6.3,3.5,17.6-0.4,33.9c-1.6,6.7-7.7,11.5-14.6,11.5h-1.8
		c-6.9,0-12.9-4.7-14.5-11.3C45.7,70.9,45.9,59.1,50.4,52z"/>
	<path d="M66.2,98.8h-1.8c-6.9,0-12.9-4.7-14.5-11.3c-4.1-16.4-4-28.3,0.6-35.4l0.1-0.1c2.3-2.5,8.5-4.2,15.3-4.3h0.1
		c7.5,0,13.2,2.1,15.3,5.7c3.7,6.3,3.5,17.7-0.4,33.9C79.1,94,73.1,98.8,66.2,98.8z M51.2,52.6c-4.3,6.8-4.5,18.4-0.4,34.5
		c1.6,6.2,7.2,10.6,13.6,10.6h1.8c6.5,0,12.1-4.4,13.6-10.7c3.9-15.9,4-27.1,0.5-33.1c-1.9-3.2-7.3-5.2-14.5-5.2h-0.1
		C59.4,48.8,53.3,50.4,51.2,52.6z"/>
	<path class="st3" d="M59.8,85.8c0,5.3,11,5.4,11,0C70.8,85.8,65,85.8,59.8,85.8z"/>
	<path d="M65.4,90.3c-1.5,0-3-0.4-4.1-1.1c-1.3-0.8-2-2-2-3.4v-0.5h12v0.5C71.3,88.8,68.3,90.3,65.4,90.3z M60.4,86.3
		c0.3,2.1,2.7,3,5,3c2.2,0,4.6-0.9,4.9-3H60.4z"/>
	<path class="st11" d="M67.5,81.3c0,0-2.2,2-4.5,0"/>
	<path d="M65.2,82.6c-0.8,0-1.7-0.3-2.5-1c-0.2-0.2-0.2-0.5,0-0.7c0.2-0.2,0.5-0.2,0.7,0c1.9,1.6,3.7,0.1,3.8,0
		c0.2-0.2,0.5-0.2,0.7,0c0.2,0.2,0.2,0.5,0,0.7C67.3,82.1,66.4,82.6,65.2,82.6z"/>
	<path d="M76.9,56c-9.9,2.5-17.5,3-23.3,0.5c-4-1-3,3.6-3.5,6.1c-0.5,2.4-2,8.7-2,15.7h-1c-2.3-9.8-2.8-16.4-1.5-19.8
		c2-5.1,7.9-12.7,15.9-18.7c4,6.6,17.5,6.9,17.5,12.7c10.8,6.1,3.2,21.2,3.8,26.3h-1.5c0.5-5.1,0.1-12.5-1.5-16.2
		C78.2,58.8,78.8,54.4,76.9,56z"/>
	<path d="M82.8,79.3h-1.5c-0.1,0-0.3-0.1-0.4-0.2s-0.1-0.2-0.1-0.4c0.5-5.1,0.1-12.4-1.5-16c-0.6-1.5-0.9-3.1-1.2-4.3
		c-0.2-0.8-0.4-2.1-0.6-2.2c0,0-0.1,0-0.4,0.2L77,56.4c-10.8,2.8-18.1,2.9-23.7,0.5c-0.7-0.2-1.3-0.1-1.7,0.1
		c-0.8,0.6-0.8,2.1-0.9,3.5c0,0.7-0.1,1.4-0.2,2l-0.2,0.9c-0.6,2.8-1.8,8.5-1.8,14.7c0,0.3-0.2,0.5-0.5,0.5h-1
		c-0.2,0-0.4-0.2-0.5-0.4c-2.4-10-2.8-16.5-1.5-20.1c1.9-4.7,7.5-12.4,16.1-19c0.1-0.1,0.3-0.1,0.4-0.1c0.1,0,0.3,0.1,0.3,0.2
		c1.8,3,5.9,4.7,9.6,6.3c4,1.7,7.8,3.3,8,6.4c7.9,4.7,6,14,4.6,20.8c-0.5,2.4-0.9,4.5-0.8,5.8c0,0.1,0,0.3-0.1,0.4
		C83.1,79.2,83,79.3,82.8,79.3z M81.9,78.3h0.4c0-1.4,0.4-3.3,0.8-5.5c1.4-6.6,3.2-15.6-4.4-19.8c-0.2-0.1-0.3-0.3-0.3-0.4
		c0-2.7-3.4-4.1-7.4-5.8c-3.6-1.5-7.6-3.2-9.7-6.2C53.2,46.8,47.8,54.1,46,58.7c-1.3,3.2-0.8,9.6,1.4,19.1h0.1
		c0.1-6.1,1.2-11.7,1.8-14.4l0.2-0.9c0.1-0.5,0.1-1.2,0.2-1.9c0.1-1.7,0.2-3.4,1.3-4.3c0.6-0.5,1.5-0.6,2.6-0.3
		c5.4,2.3,12.5,2.2,23-0.5c0.2-0.2,0.7-0.5,1.3-0.3c0.8,0.3,1,1.4,1.3,3c0.2,1.2,0.5,2.7,1.1,4.1C81.9,66,82.3,73.2,81.9,78.3z
		 M76.9,56L76.9,56L76.9,56z"/>
	<path class="st12" d="M58.5,73.4c0.2-0.2,0.3-0.4,0.3-0.7s-0.1-0.5-0.3-0.7c-0.2-0.2-0.4-0.3-0.7-0.3s-0.5,0.1-0.7,0.3
		c-0.2,0.2-0.3,0.4-0.3,0.7s0.1,0.5,0.3,0.7c0.2,0.2,0.4,0.3,0.7,0.3S58.4,73.7,58.5,73.4z"/>
	<path class="st12" d="M73.5,73.4c0.2-0.2,0.3-0.4,0.3-0.7s-0.1-0.5-0.3-0.7c-0.2-0.2-0.4-0.3-0.7-0.3s-0.5,0.1-0.7,0.3
		c-0.2,0.2-0.3,0.4-0.3,0.7s0.1,0.5,0.3,0.7c0.2,0.2,0.4,0.3,0.7,0.3S73.4,73.7,73.5,73.4z"/>
</g>
</svg>
