<?xml version="1.0" encoding="utf-8"?>
<!-- Generator: Adobe Illustrator 22.0.1, SVG Export Plug-In . SVG Version: 6.00 Build 0)  -->
<!DOCTYPE svg PUBLIC "-//W3C//DTD SVG 1.1//EN" "http://www.w3.org/Graphics/SVG/1.1/DTD/svg11.dtd">
<svg version="1.1" id="Layer_1" xmlns="http://www.w3.org/2000/svg" xmlns:xlink="http://www.w3.org/1999/xlink" x="0px" y="0px"
	 viewBox="0 0 130 270" style="enable-background:new 0 0 130 270;" xml:space="preserve">
<style type="text/css">
	.st0{fill:#FFFFFF;}
	.st1{clip-path:url(#SVGID_2_);}
	.st2{clip-path:url(#SVGID_4_);}
	.st3{clip-path:url(#SVGID_8_);}
	.st4{clip-path:url(#SVGID_12_);}
	.st5{clip-path:url(#SVGID_16_);}
	.st6{clip-path:url(#SVGID_20_);}
	.st7{clip-path:url(#SVGID_24_);}
	.st8{clip-path:url(#SVGID_28_);}
	.st9{clip-path:url(#SVGID_32_);}
	.st10{clip-path:url(#SVGID_36_);}
	.st11{clip-path:url(#SVGID_40_);}
	.st12{clip-path:url(#SVGID_44_);}
	.st13{clip-path:url(#SVGID_48_);}
	.st14{clip-path:url(#SVGID_54_);}
	.st15{clip-path:url(#SVGID_56_);}
	.st16{clip-path:url(#SVGID_60_);}
	.st17{clip-path:url(#SVGID_64_);}
	.st18{clip-path:url(#SVGID_68_);}
	.st19{clip-path:url(#SVGID_72_);}
	.st20{clip-path:url(#SVGID_76_);}
	.st21{clip-path:url(#SVGID_80_);}
	.st22{clip-path:url(#SVGID_84_);}
	.st23{clip-path:url(#SVGID_88_);}
	.st24{clip-path:url(#SVGID_94_);}
	.st25{fill:#FFD5AC;}
	.st26{fill:#2B292F;}
	.st27{fill:#FFD9B3;}
	.st28{fill:#EAAF75;}
	.st29{fill:#D3D6DC;}
	.st30{fill:#B1B1B1;}
	.st31{fill:#9C9EA2;}
	.st32{fill:#BCBCBC;}
	.st33{fill:#201E23;}
	.st34{fill:#828282;}
	.st35{fill:#B4B4B4;}
	.st36{fill:#95979B;}
	.st37{fill:#513600;}
	.st38{fill:#FFCC99;}
</style>
<g>
	<path class="st0" d="M35.3,262.1c-0.3-0.6-0.3-1.5-0.2-2.7c0.1-1,1.1-2.2,2.9-3.4c1.3-1.1,3.7-2.3,7-3.7c0.2-0.1,0.4-0.2,0.6-0.2
		c0.2-0.1,0.4-0.1,0.5-0.2c6.5-2.7,10.8-3.9,13-3.7c0,0.1,0,0.3,0,0.5c1.1,3.4,1.6,6.2,1.4,8.3c0.9,0.5,1.5,1.5,1.5,2.6
		c0,1.7-1.3,3-3,3l-0.2,0c-0.4,1.2-1.5,2-2.8,2c-0.4,0-0.8-0.1-1.1-0.2c-0.3,1.3-1.5,2.2-2.9,2.2c-0.5,0-1-0.1-1.5-0.4
		c-0.5,0.8-1.5,1.4-2.5,1.4c-0.5,0-1-0.1-1.5-0.4c-0.5,0.8-1.5,1.4-2.5,1.4c-0.8,0-1.5-0.3-2-0.8c-0.5,0.5-1.2,0.8-2,0.8
		c-0.9,0-1.8-0.4-2.3-1.1c-0.2,0.1-0.5,0.1-0.7,0.1c-1.7,0-3-1.3-3-3C34,263.5,34.5,262.6,35.3,262.1"/>
	<path d="M44,269c-0.7,0-1.4-0.2-2-0.6c-1.3,0.9-3.3,0.8-4.5-0.4c-0.2,0-0.3,0-0.5,0c-1.9,0-3.5-1.6-3.5-3.5c0-1,0.4-2,1.2-2.6
		c-0.2-0.7-0.2-1.5-0.1-2.6c0.2-1.2,1.2-2.4,3.1-3.8c1.3-1.1,3.7-2.4,7.1-3.7c0.2-0.1,0.4-0.2,0.7-0.3c0.1,0,0.3-0.1,0.4-0.2
		c6.6-2.8,10.9-4,13.3-3.8c0.3,0,0.5,0.2,0.5,0.5v0.4c1,3.3,1.5,6,1.4,8.1c0.9,0.6,1.5,1.7,1.5,2.9c0,1.9-1.5,3.4-3.3,3.5
		c-0.6,1.2-1.8,2-3.2,2c-0.3,0-0.5,0-0.8-0.1c-0.6,1.3-1.8,2.1-3.2,2.1c-0.5,0-0.9-0.1-1.3-0.3c-0.9,1.1-2.6,1.6-4,1
		C46,268.5,45,269,44,269 M42,267.2c0.1,0,0.2,0,0.3,0.1c0.5,0.4,1,0.6,1.7,0.6c0.9,0,1.6-0.4,2.1-1.2c0.1-0.2,0.4-0.3,0.7-0.2
		c1.1,0.6,2.6,0.3,3.3-0.8c0.1-0.2,0.4-0.3,0.7-0.2c0.4,0.2,0.8,0.3,1.2,0.3c1.1,0,2.1-0.8,2.4-1.8c0-0.1,0.1-0.3,0.3-0.3
		c0.1-0.1,0.3-0.1,0.4,0c0.3,0.1,0.6,0.2,0.9,0.2c1.1,0,2-0.7,2.4-1.7c0.1-0.2,0.3-0.4,0.5-0.3l0.1,0c1.4,0,2.5-1.1,2.5-2.5
		c0-0.9-0.5-1.7-1.3-2.2c-0.2-0.1-0.3-0.3-0.3-0.5c0.2-2.1-0.3-4.8-1.4-8.1l0-0.2h-0.1c-2.3,0-6.4,1.2-12.3,3.7
		c-0.2,0.1-0.3,0.1-0.5,0.2c-0.3,0.1-0.4,0.1-0.6,0.2c-3.3,1.3-5.6,2.5-6.9,3.6c-1.7,1.2-2.6,2.2-2.7,3.1c-0.1,1.1-0.1,1.9,0.2,2.5
		c0.1,0.2,0,0.5-0.2,0.6c-0.7,0.5-1.1,1.2-1.1,2c0,1.4,1.1,2.5,2.5,2.5c0.2,0,0.4,0,0.6-0.1c0.2,0,0.4,0,0.5,0.2
		c0.9,1,2.6,1.2,3.6,0.3C41.8,267.3,41.9,267.2,42,267.2"/>
	<g>
		<defs>
			<path id="SVGID_1_" d="M44.7,253c-3.4,1.4-5.8,2.7-7.1,3.8C39.2,255.6,41.6,254.4,44.7,253 M58.2,249.5c0-0.1,0-0.3,0-0.4
				c-2-0.1-6.1,0.9-12.2,3.2c-0.4,0.2-0.8,0.3-1.2,0.5c-3,1.3-5.4,2.5-7,3.6c-0.7,0.6-1.1,1.2-1.2,1.8c-0.2,1.6,0.1,2.6,0.8,2.9
				c2.5,1.9,8.8,1.5,18.8-1.2c1.2-0.5,2.1-1.1,2.7-1.7C59.9,256.4,59.6,253.5,58.2,249.5"/>
		</defs>
		<clipPath id="SVGID_2_">
			<use xlink:href="#SVGID_1_"  style="overflow:visible;"/>
		</clipPath>
		<g class="st1">
			<defs>
				<polyline id="SVGID_3_" points="53.6,252.1 58.4,252.1 58.4,256.9 53.6,256.9 53.6,252.1 				"/>
			</defs>
			<clipPath id="SVGID_4_">
				<use xlink:href="#SVGID_3_"  style="overflow:visible;"/>
			</clipPath>
			<g class="st2">
				<defs>
					<polyline id="SVGID_5_" points="58.4,255.8 57.8,255.8 57.8,256.9 58.4,256.9 58.4,255.8 					"/>
				</defs>
				<clipPath id="SVGID_6_">
					<use xlink:href="#SVGID_5_"  style="overflow:visible;"/>
				</clipPath>
				<g transform="matrix(1 0 0 1 0 -1.525879e-05)" style="clip-path:url(#SVGID_6_);">
					
						<image style="overflow:visible;" width="7" height="13" xlink:href="EE6D6C78A34CC879.jpg"  transform="matrix(0.1 0 0 0.1 57.7273 255.6727)">
					</image>
				</g>
			</g>
		</g>
		<g class="st1">
			<defs>
				<polyline id="SVGID_7_" points="53.6,247.3 58.4,247.3 58.4,252.1 53.6,252.1 53.6,247.3 				"/>
			</defs>
			<clipPath id="SVGID_8_">
				<use xlink:href="#SVGID_7_"  style="overflow:visible;"/>
			</clipPath>
			<g class="st3">
				<defs>
					<polyline id="SVGID_9_" points="58.4,251 57.8,251 57.8,252.1 58.4,252.1 58.4,251 					"/>
				</defs>
				<clipPath id="SVGID_10_">
					<use xlink:href="#SVGID_9_"  style="overflow:visible;"/>
				</clipPath>
				<g transform="matrix(1 0 0 1 0 1.525879e-05)" style="clip-path:url(#SVGID_10_);">
					
						<image style="overflow:visible;" width="7" height="13" xlink:href="EE6D6C78A34CC87B.jpg"  transform="matrix(0.1 0 0 0.1 57.7273 250.8727)">
					</image>
				</g>
			</g>
		</g>
		<g class="st1">
			<defs>
				<polyline id="SVGID_11_" points="48.8,256.9 53.6,256.9 53.6,261.7 48.8,261.7 48.8,256.9 				"/>
			</defs>
			<clipPath id="SVGID_12_">
				<use xlink:href="#SVGID_11_"  style="overflow:visible;"/>
			</clipPath>
			<g class="st4">
				<defs>
					<path id="SVGID_13_" d="M53.6,260.6H53v0.2C53.2,260.7,53.4,260.7,53.6,260.6L53.6,260.6"/>
				</defs>
				<clipPath id="SVGID_14_">
					<use xlink:href="#SVGID_13_"  style="overflow:visible;"/>
				</clipPath>
				<g style="clip-path:url(#SVGID_14_);">
					
						<image style="overflow:visible;" width="7" height="4" xlink:href="EE6D6C78A34CC87E.jpg"  transform="matrix(0.1 0 0 0.1 52.9273 260.4727)">
					</image>
				</g>
			</g>
		</g>
		<g class="st1">
			<defs>
				<polyline id="SVGID_15_" points="48.8,252.1 53.6,252.1 53.6,256.9 48.8,256.9 48.8,252.1 				"/>
			</defs>
			<clipPath id="SVGID_16_">
				<use xlink:href="#SVGID_15_"  style="overflow:visible;"/>
			</clipPath>
			<g class="st5">
				<defs>
					<polyline id="SVGID_17_" points="53.6,255.8 53,255.8 53,256.9 53.6,256.9 53.6,255.8 					"/>
				</defs>
				<clipPath id="SVGID_18_">
					<use xlink:href="#SVGID_17_"  style="overflow:visible;"/>
				</clipPath>
				<g transform="matrix(1 0 0 1 0 -1.525879e-05)" style="clip-path:url(#SVGID_18_);">
					
						<image style="overflow:visible;" width="7" height="13" xlink:href="EE6D6C78A34CC87F.jpg"  transform="matrix(0.1 0 0 0.1 52.9273 255.6727)">
					</image>
				</g>
			</g>
		</g>
		<g class="st1">
			<defs>
				<polyline id="SVGID_19_" points="48.8,247.3 53.6,247.3 53.6,252.1 48.8,252.1 48.8,247.3 				"/>
			</defs>
			<clipPath id="SVGID_20_">
				<use xlink:href="#SVGID_19_"  style="overflow:visible;"/>
			</clipPath>
			<g class="st6">
				<defs>
					<polyline id="SVGID_21_" points="53.6,251 53,251 53,252.1 53.6,252.1 53.6,251 					"/>
				</defs>
				<clipPath id="SVGID_22_">
					<use xlink:href="#SVGID_21_"  style="overflow:visible;"/>
				</clipPath>
				<g transform="matrix(1 0 0 1 0 1.525879e-05)" style="clip-path:url(#SVGID_22_);">
					
						<image style="overflow:visible;" width="7" height="13" xlink:href="EE6D6C78A34CC87A.jpg"  transform="matrix(0.1 0 0 0.1 52.9273 250.8727)">
					</image>
				</g>
			</g>
		</g>
		<g class="st1">
			<defs>
				<polyline id="SVGID_23_" points="44,256.9 48.8,256.9 48.8,261.7 44,261.7 44,256.9 				"/>
			</defs>
			<clipPath id="SVGID_24_">
				<use xlink:href="#SVGID_23_"  style="overflow:visible;"/>
			</clipPath>
			<g class="st7">
				<defs>
					<path id="SVGID_25_" d="M48.8,260.6h-0.5v1.1h0.5c0,0,0,0,0.1,0V260.6"/>
				</defs>
				<clipPath id="SVGID_26_">
					<use xlink:href="#SVGID_25_"  style="overflow:visible;"/>
				</clipPath>
				<g style="clip-path:url(#SVGID_26_);">
					
						<image style="overflow:visible;" width="7" height="13" xlink:href="EE6D6C78A34CC875.jpg"  transform="matrix(0.1 0 0 0.1 48.1273 260.4727)">
					</image>
				</g>
			</g>
		</g>
		<g class="st1">
			<defs>
				<polyline id="SVGID_27_" points="44,252.1 48.8,252.1 48.8,256.9 44,256.9 44,252.1 				"/>
			</defs>
			<clipPath id="SVGID_28_">
				<use xlink:href="#SVGID_27_"  style="overflow:visible;"/>
			</clipPath>
			<g class="st8">
				<defs>
					<polyline id="SVGID_29_" points="48.8,255.8 48.2,255.8 48.2,256.9 48.8,256.9 48.8,255.8 					"/>
				</defs>
				<clipPath id="SVGID_30_">
					<use xlink:href="#SVGID_29_"  style="overflow:visible;"/>
				</clipPath>
				<g transform="matrix(1 0 0 1 0 -1.525879e-05)" style="clip-path:url(#SVGID_30_);">
					
						<image style="overflow:visible;" width="7" height="13" xlink:href="EE6D6C78A34CC876.jpg"  transform="matrix(0.1 0 0 0.1 48.1273 255.6727)">
					</image>
				</g>
			</g>
		</g>
		<g class="st1">
			<defs>
				<polyline id="SVGID_31_" points="44,247.3 48.8,247.3 48.8,252.1 44,252.1 44,247.3 				"/>
			</defs>
			<clipPath id="SVGID_32_">
				<use xlink:href="#SVGID_31_"  style="overflow:visible;"/>
			</clipPath>
			<g class="st9">
				<defs>
					<path id="SVGID_33_" d="M48.8,251.3c-0.2,0.1-0.4,0.1-0.5,0.2v0.6h0.5V251.3"/>
				</defs>
				<clipPath id="SVGID_34_">
					<use xlink:href="#SVGID_33_"  style="overflow:visible;"/>
				</clipPath>
				<g transform="matrix(1 0 0 1 0 -1.525879e-05)" style="clip-path:url(#SVGID_34_);">
					
						<image style="overflow:visible;" width="7" height="10" xlink:href="EE6D6C78A34CC877.jpg"  transform="matrix(0.1 0 0 0.1 48.1273 251.1727)">
					</image>
				</g>
			</g>
		</g>
		<g class="st1">
			<defs>
				<polyline id="SVGID_35_" points="39.2,256.9 44,256.9 44,261.7 39.2,261.7 39.2,256.9 				"/>
			</defs>
			<clipPath id="SVGID_36_">
				<use xlink:href="#SVGID_35_"  style="overflow:visible;"/>
			</clipPath>
			<g class="st10">
				<defs>
					<polyline id="SVGID_37_" points="44,260.6 43.4,260.6 43.4,261.7 44,261.7 44,260.6 					"/>
				</defs>
				<clipPath id="SVGID_38_">
					<use xlink:href="#SVGID_37_"  style="overflow:visible;"/>
				</clipPath>
				<g style="clip-path:url(#SVGID_38_);">
					
						<image style="overflow:visible;" width="7" height="13" xlink:href="EE6D6C78A34CC889.jpg"  transform="matrix(0.1 0 0 0.1 43.3273 260.4727)">
					</image>
				</g>
			</g>
		</g>
		<g class="st1">
			<defs>
				<polyline id="SVGID_39_" points="39.2,252.1 44,252.1 44,256.9 39.2,256.9 39.2,252.1 				"/>
			</defs>
			<clipPath id="SVGID_40_">
				<use xlink:href="#SVGID_39_"  style="overflow:visible;"/>
			</clipPath>
			<g class="st11">
				<defs>
					<polyline id="SVGID_41_" points="44,255.8 43.4,255.8 43.4,256.9 44,256.9 44,255.8 					"/>
				</defs>
				<clipPath id="SVGID_42_">
					<use xlink:href="#SVGID_41_"  style="overflow:visible;"/>
				</clipPath>
				<g transform="matrix(1 0 0 1 0 -1.525879e-05)" style="clip-path:url(#SVGID_42_);">
					
						<image style="overflow:visible;" width="7" height="13" xlink:href="75D0AD6F9A18F982.jpg"  transform="matrix(0.1 0 0 0.1 43.3273 255.6727)">
					</image>
				</g>
			</g>
		</g>
		<g class="st1">
			<defs>
				<polyline id="SVGID_43_" points="34.4,256.9 39.2,256.9 39.2,261.7 34.4,261.7 34.4,256.9 				"/>
			</defs>
			<clipPath id="SVGID_44_">
				<use xlink:href="#SVGID_43_"  style="overflow:visible;"/>
			</clipPath>
			<g class="st12">
				<defs>
					<polyline id="SVGID_45_" points="39.2,260.6 38.6,260.6 38.6,261.7 39.2,261.7 39.2,260.6 					"/>
				</defs>
				<clipPath id="SVGID_46_">
					<use xlink:href="#SVGID_45_"  style="overflow:visible;"/>
				</clipPath>
				<g style="clip-path:url(#SVGID_46_);">
					
						<image style="overflow:visible;" width="7" height="13" xlink:href="75D0AD6F9A18F985.jpg"  transform="matrix(0.1 0 0 0.1 38.5273 260.4727)">
					</image>
				</g>
			</g>
		</g>
		<g class="st1">
			<defs>
				<polyline id="SVGID_47_" points="34.4,252.1 39.2,252.1 39.2,256.9 34.4,256.9 34.4,252.1 				"/>
			</defs>
			<clipPath id="SVGID_48_">
				<use xlink:href="#SVGID_47_"  style="overflow:visible;"/>
			</clipPath>
			<g class="st13">
				<defs>
					<path id="SVGID_49_" d="M39.2,255.8h-0.2c-0.1,0.1-0.2,0.2-0.3,0.2v0.9h0.5V255.8"/>
				</defs>
				<clipPath id="SVGID_50_">
					<use xlink:href="#SVGID_49_"  style="overflow:visible;"/>
				</clipPath>
				<g transform="matrix(1 0 0 1 0 -1.525879e-05)" style="clip-path:url(#SVGID_50_);">
					
						<image style="overflow:visible;" width="7" height="13" xlink:href="75D0AD6F9A18F986.jpg"  transform="matrix(0.1 0 0 0.1 38.5273 255.6727)">
					</image>
				</g>
			</g>
			<g class="st13">
				<defs>
					<path id="SVGID_51_" d="M38.9,255.8h-0.2c-0.1,0-0.1,0.1-0.2,0.1v0.1C38.7,255.9,38.8,255.8,38.9,255.8"/>
				</defs>
				<clipPath id="SVGID_52_">
					<use xlink:href="#SVGID_51_"  style="overflow:visible;"/>
				</clipPath>
				<g transform="matrix(1 0 0 1 0 -1.525879e-05)" style="clip-path:url(#SVGID_52_);">
					
						<image style="overflow:visible;" width="5" height="4" xlink:href="75D0AD6F9A18F984.jpg"  transform="matrix(0.1 0 0 0.1 38.5273 255.6727)">
					</image>
				</g>
			</g>
		</g>
	</g>
	<path d="M42.6,262.9c-2.4,0-4.2-0.4-5.3-1.3c-0.9-0.5-1.3-1.6-1-3.5c0.1-0.7,0.5-1.4,1.4-2.1c1.7-1.2,4.1-2.4,7.1-3.7
		c0.2-0.1,0.5-0.2,0.7-0.3c0.1,0,0.3-0.1,0.4-0.2c6.6-2.8,10.9-4,13.3-3.8c0.3,0,0.5,0.2,0.5,0.5v0.4c1.6,5,0.8,7.5-0.2,9.5
		l-0.1,0.1c-0.6,0.7-1.6,1.4-2.9,1.9C50.5,262.1,46,262.9,42.6,262.9z M58.5,249.1c-2.3,0-6.4,1.2-12.3,3.7
		c-0.2,0.1-0.3,0.1-0.5,0.2c-0.3,0.1-0.4,0.1-0.6,0.2l-0.1,0c-3,1.3-5.3,2.5-6.9,3.6c-0.6,0.5-0.9,1-1,1.4c-0.1,1-0.1,2.2,0.5,2.5
		l0.1,0.1c2.4,1.8,8.5,1.4,18.3-1.3c1-0.4,1.9-0.9,2.4-1.5c0.9-1.7,1.7-4,0.1-8.8L58.5,249.1L58.5,249.1z M44.9,252.8L44.9,252.8
		L44.9,252.8z"/>
	<path class="st0" d="M94.7,263.1c0.3-0.6,0.3-1.5,0.2-2.7c-0.1-1-1.1-2.2-2.9-3.4c-1.3-1.1-3.7-2.3-7-3.7c-0.2-0.1-0.4-0.2-0.6-0.3
		c-0.2-0.1-0.4-0.1-0.5-0.2c-6.5-2.7-10.8-3.9-13-3.7c0,0.1,0,0.3,0,0.5c-1.1,3.4-1.6,6.2-1.4,8.3c-0.9,0.5-1.5,1.5-1.5,2.6
		c0,1.7,1.3,3,3,3l0.2,0c0.4,1.2,1.5,2,2.8,2c0.4,0,0.8-0.1,1.1-0.2c0.3,1.3,1.5,2.2,2.9,2.2c0.5,0,1-0.1,1.5-0.4
		c0.5,0.8,1.5,1.4,2.5,1.4c0.5,0,1-0.1,1.5-0.4c0.5,0.8,1.5,1.4,2.5,1.4c0.8,0,1.5-0.3,2-0.8c0.5,0.5,1.2,0.8,2,0.8
		c0.9,0,1.8-0.4,2.3-1.1c0.2,0.1,0.5,0.1,0.7,0.1c1.7,0,3-1.3,3-3C96,264.5,95.5,263.6,94.7,263.1"/>
	<path d="M90,270c-0.7,0-1.4-0.2-2-0.6c-0.6,0.4-1.3,0.6-2,0.6c-1,0-2-0.5-2.7-1.3c-1.4,0.6-3.1,0.1-4-1c-0.4,0.2-0.9,0.3-1.3,0.3
		c-1.4,0-2.7-0.8-3.2-2.1c-0.3,0.1-0.5,0.1-0.8,0.1c-1.4,0-2.6-0.8-3.2-2c-1.9-0.1-3.3-1.6-3.3-3.5c0-1.2,0.6-2.2,1.5-2.9
		c-0.1-2.1,0.4-4.9,1.4-8.1v-0.4c0-0.3,0.2-0.5,0.5-0.5c2.3-0.2,6.7,1,13.3,3.8c0.2,0.1,0.3,0.1,0.5,0.2c0.2,0,0.5,0.1,0.7,0.3
		c3.3,1.3,5.7,2.5,7,3.7c1.9,1.3,2.9,2.5,3,3.7c0.1,1.1,0.1,1.9-0.1,2.6c0.7,0.7,1.2,1.6,1.2,2.6c0,1.9-1.6,3.5-3.5,3.5
		c-0.2,0-0.3,0-0.5,0C91.8,269.6,90.9,270,90,270 M88,268.2c0.1,0,0.2,0,0.3,0.1c1,0.9,2.7,0.8,3.6-0.3c0.1-0.1,0.3-0.2,0.5-0.2
		c0.2,0,0.4,0.1,0.6,0.1c1.4,0,2.5-1.1,2.5-2.5c0-0.8-0.4-1.6-1.1-2c-0.2-0.1-0.3-0.4-0.2-0.6c0.2-0.5,0.3-1.4,0.2-2.5
		c-0.1-0.9-1-1.9-2.6-3.1c-1.3-1.1-3.6-2.3-6.9-3.6c-0.2-0.1-0.4-0.2-0.6-0.2c-0.3-0.1-0.4-0.2-0.6-0.3c-5.9-2.5-10-3.7-12.3-3.7
		h-0.1l0,0.2c-1.1,3.3-1.5,6.1-1.4,8.1c0,0.2-0.1,0.4-0.3,0.5c-0.8,0.4-1.3,1.3-1.3,2.2c0,1.4,1.1,2.5,2.5,2.5l0.1,0
		c0.2,0,0.4,0.1,0.5,0.3c0.4,1,1.3,1.7,2.4,1.7c0.3,0,0.6-0.1,0.9-0.2c0.1-0.1,0.3,0,0.4,0c0.1,0.1,0.2,0.2,0.3,0.3
		c0.3,1.1,1.3,1.8,2.4,1.8c0.4,0,0.9-0.1,1.2-0.3c0.2-0.1,0.5-0.1,0.7,0.2c0.7,1.1,2.2,1.5,3.3,0.8c0.2-0.1,0.5-0.1,0.7,0.2
		c0.5,0.7,1.3,1.2,2.1,1.2c0.6,0,1.2-0.2,1.7-0.6C87.8,268.3,87.9,268.2,88,268.2"/>
	<g>
		<defs>
			<path id="SVGID_53_" d="M85.3,254c3.4,1.4,5.8,2.7,7.1,3.8C90.8,256.6,88.4,255.4,85.3,254 M71.8,250.5c0-0.1,0-0.3,0-0.4
				c2-0.1,6.1,0.9,12.2,3.2c0.4,0.2,0.8,0.3,1.2,0.5c3,1.3,5.4,2.5,7,3.6c0.7,0.6,1.1,1.2,1.2,1.8c0.2,1.6-0.1,2.6-0.8,2.9
				c-2.5,1.9-8.8,1.5-18.8-1.2c-1.2-0.5-2.1-1.1-2.7-1.7C70.1,257.4,70.4,254.5,71.8,250.5"/>
		</defs>
		<clipPath id="SVGID_54_">
			<use xlink:href="#SVGID_53_"  style="overflow:visible;"/>
		</clipPath>
		<g class="st14">
			<defs>
				<polyline id="SVGID_55_" points="78,260.7 73.2,260.7 73.2,255.9 78,255.9 78,260.7 				"/>
			</defs>
			<clipPath id="SVGID_56_">
				<use xlink:href="#SVGID_55_"  style="overflow:visible;"/>
			</clipPath>
			<g class="st15">
				<defs>
					<polyline id="SVGID_57_" points="73.8,259.6 73.2,259.6 73.2,260.7 73.8,260.7 73.8,259.6 					"/>
				</defs>
				<clipPath id="SVGID_58_">
					<use xlink:href="#SVGID_57_"  style="overflow:visible;"/>
				</clipPath>
				<g style="clip-path:url(#SVGID_58_);">
					
						<image style="overflow:visible;" width="7" height="13" xlink:href="75D0AD6F9A18F983.jpg"  transform="matrix(-0.1 0 0 0.1 73.8733 259.4727)">
					</image>
				</g>
			</g>
		</g>
		<g class="st14">
			<defs>
				<polyline id="SVGID_59_" points="78,255.9 73.2,255.9 73.2,251.1 78,251.1 78,255.9 				"/>
			</defs>
			<clipPath id="SVGID_60_">
				<use xlink:href="#SVGID_59_"  style="overflow:visible;"/>
			</clipPath>
			<g class="st16">
				<defs>
					<polyline id="SVGID_61_" points="73.8,254.8 73.2,254.8 73.2,255.9 73.8,255.9 73.8,254.8 					"/>
				</defs>
				<clipPath id="SVGID_62_">
					<use xlink:href="#SVGID_61_"  style="overflow:visible;"/>
				</clipPath>
				<g transform="matrix(1 0 0 1 0 -1.525879e-05)" style="clip-path:url(#SVGID_62_);">
					
						<image style="overflow:visible;" width="7" height="13" xlink:href="75D0AD6F9A18F99D.jpg"  transform="matrix(-0.1 0 0 0.1 73.8733 254.6727)">
					</image>
				</g>
			</g>
		</g>
		<g class="st14">
			<defs>
				<polyline id="SVGID_63_" points="78,251.1 73.2,251.1 73.2,246.3 78,246.3 78,251.1 				"/>
			</defs>
			<clipPath id="SVGID_64_">
				<use xlink:href="#SVGID_63_"  style="overflow:visible;"/>
			</clipPath>
			<g class="st17">
				<defs>
					<path id="SVGID_65_" d="M73.2,250.2v0.9h0.5v-0.8C73.6,250.3,73.4,250.2,73.2,250.2"/>
				</defs>
				<clipPath id="SVGID_66_">
					<use xlink:href="#SVGID_65_"  style="overflow:visible;"/>
				</clipPath>
				<g transform="matrix(1 0 0 1 0 1.525879e-05)" style="clip-path:url(#SVGID_66_);">
					
						<image style="overflow:visible;" width="7" height="11" xlink:href="75D0AD6F9A18F99E.jpg"  transform="matrix(-0.1 0 0 0.1 73.8733 250.0727)">
					</image>
				</g>
			</g>
		</g>
		<g class="st14">
			<defs>
				<polyline id="SVGID_67_" points="82.8,260.7 78,260.7 78,255.9 82.8,255.9 82.8,260.7 				"/>
			</defs>
			<clipPath id="SVGID_68_">
				<use xlink:href="#SVGID_67_"  style="overflow:visible;"/>
			</clipPath>
			<g class="st18">
				<defs>
					<polyline id="SVGID_69_" points="78.6,259.6 78,259.6 78,260.7 78.6,260.7 78.6,259.6 					"/>
				</defs>
				<clipPath id="SVGID_70_">
					<use xlink:href="#SVGID_69_"  style="overflow:visible;"/>
				</clipPath>
				<g style="clip-path:url(#SVGID_70_);">
					
						<image style="overflow:visible;" width="7" height="13" xlink:href="75D0AD6F9A18F99C.jpg"  transform="matrix(-0.1 0 0 0.1 78.6733 259.4727)">
					</image>
				</g>
			</g>
		</g>
		<g class="st14">
			<defs>
				<polyline id="SVGID_71_" points="82.8,255.9 78,255.9 78,251.1 82.8,251.1 82.8,255.9 				"/>
			</defs>
			<clipPath id="SVGID_72_">
				<use xlink:href="#SVGID_71_"  style="overflow:visible;"/>
			</clipPath>
			<g class="st19">
				<defs>
					<polyline id="SVGID_73_" points="78.6,254.8 78,254.8 78,255.9 78.6,255.9 78.6,254.8 					"/>
				</defs>
				<clipPath id="SVGID_74_">
					<use xlink:href="#SVGID_73_"  style="overflow:visible;"/>
				</clipPath>
				<g transform="matrix(1 0 0 1 0 -1.525879e-05)" style="clip-path:url(#SVGID_74_);">
					
						<image style="overflow:visible;" width="7" height="13" xlink:href="75D0AD6F9A18F987.jpg"  transform="matrix(-0.1 0 0 0.1 78.6733 254.6727)">
					</image>
				</g>
			</g>
		</g>
		<g class="st14">
			<defs>
				<polyline id="SVGID_75_" points="87.6,260.7 82.8,260.7 82.8,255.9 87.6,255.9 87.6,260.7 				"/>
			</defs>
			<clipPath id="SVGID_76_">
				<use xlink:href="#SVGID_75_"  style="overflow:visible;"/>
			</clipPath>
			<g class="st20">
				<defs>
					<polyline id="SVGID_77_" points="83.4,259.6 82.8,259.6 82.8,260.7 83.4,260.7 83.4,259.6 					"/>
				</defs>
				<clipPath id="SVGID_78_">
					<use xlink:href="#SVGID_77_"  style="overflow:visible;"/>
				</clipPath>
				<g style="clip-path:url(#SVGID_78_);">
					
						<image style="overflow:visible;" width="7" height="13" xlink:href="75D0AD6F9A18F989.jpg"  transform="matrix(-0.1 0 0 0.1 83.4733 259.4727)">
					</image>
				</g>
			</g>
		</g>
		<g class="st14">
			<defs>
				<polyline id="SVGID_79_" points="87.6,255.9 82.8,255.9 82.8,251.1 87.6,251.1 87.6,255.9 				"/>
			</defs>
			<clipPath id="SVGID_80_">
				<use xlink:href="#SVGID_79_"  style="overflow:visible;"/>
			</clipPath>
			<g class="st21">
				<defs>
					<polyline id="SVGID_81_" points="83.4,254.8 82.8,254.8 82.8,255.9 83.4,255.9 83.4,254.8 					"/>
				</defs>
				<clipPath id="SVGID_82_">
					<use xlink:href="#SVGID_81_"  style="overflow:visible;"/>
				</clipPath>
				<g transform="matrix(1 0 0 1 0 -1.525879e-05)" style="clip-path:url(#SVGID_82_);">
					
						<image style="overflow:visible;" width="7" height="13" xlink:href="75D0AD6F9A18F9B9.jpg"  transform="matrix(-0.1 0 0 0.1 83.4733 254.6727)">
					</image>
				</g>
			</g>
		</g>
		<g class="st14">
			<defs>
				<polyline id="SVGID_83_" points="92.4,260.7 87.6,260.7 87.6,255.9 92.4,255.9 92.4,260.7 				"/>
			</defs>
			<clipPath id="SVGID_84_">
				<use xlink:href="#SVGID_83_"  style="overflow:visible;"/>
			</clipPath>
			<g class="st22">
				<defs>
					<polyline id="SVGID_85_" points="88.2,259.6 87.6,259.6 87.6,260.7 88.2,260.7 88.2,259.6 					"/>
				</defs>
				<clipPath id="SVGID_86_">
					<use xlink:href="#SVGID_85_"  style="overflow:visible;"/>
				</clipPath>
				<g style="clip-path:url(#SVGID_86_);">
					
						<image style="overflow:visible;" width="7" height="13" xlink:href="75D0AD6F9A18F9BB.jpg"  transform="matrix(-0.1 0 0 0.1 88.2733 259.4727)">
					</image>
				</g>
			</g>
		</g>
		<g class="st14">
			<defs>
				<polyline id="SVGID_87_" points="92.4,255.9 87.6,255.9 87.6,251.1 92.4,251.1 92.4,255.9 				"/>
			</defs>
			<clipPath id="SVGID_88_">
				<use xlink:href="#SVGID_87_"  style="overflow:visible;"/>
			</clipPath>
			<g class="st23">
				<defs>
					<path id="SVGID_89_" d="M87.6,254.9v1h0.5v-0.7c-0.1,0-0.1,0-0.2-0.1C87.9,255,87.8,254.9,87.6,254.9"/>
				</defs>
				<clipPath id="SVGID_90_">
					<use xlink:href="#SVGID_89_"  style="overflow:visible;"/>
				</clipPath>
				<g style="clip-path:url(#SVGID_90_);">
					
						<image style="overflow:visible;" width="7" height="12" xlink:href="75D0AD6F9A18F9B8.jpg"  transform="matrix(-0.1 0 0 0.1 88.2733 254.7727)">
					</image>
				</g>
			</g>
			<g class="st23">
				<defs>
					<path id="SVGID_91_" d="M87.6,254.9L87.6,254.9c0.1,0.1,0.3,0.1,0.4,0.2C87.9,255,87.8,254.9,87.6,254.9"/>
				</defs>
				<clipPath id="SVGID_92_">
					<use xlink:href="#SVGID_91_"  style="overflow:visible;"/>
				</clipPath>
				<g style="clip-path:url(#SVGID_92_);">
					
						<image style="overflow:visible;" width="5" height="4" xlink:href="75D0AD6F9A18F9A7.jpg"  transform="matrix(-0.1 0 0 0.1 88.0733 254.7727)">
					</image>
				</g>
			</g>
		</g>
		<g class="st14">
			<defs>
				<polyline id="SVGID_93_" points="97.2,260.7 92.4,260.7 92.4,255.9 97.2,255.9 97.2,260.7 				"/>
			</defs>
			<clipPath id="SVGID_94_">
				<use xlink:href="#SVGID_93_"  style="overflow:visible;"/>
			</clipPath>
			<g class="st24">
				<defs>
					<polyline id="SVGID_95_" points="93,259.6 92.4,259.6 92.4,260.7 93,260.7 93,259.6 					"/>
				</defs>
				<clipPath id="SVGID_96_">
					<use xlink:href="#SVGID_95_"  style="overflow:visible;"/>
				</clipPath>
				<g style="clip-path:url(#SVGID_96_);">
					
						<image style="overflow:visible;" width="7" height="13" xlink:href="75D0AD6F9A18F9A9.jpg"  transform="matrix(-0.1 0 0 0.1 93.0733 259.4727)">
					</image>
				</g>
			</g>
		</g>
	</g>
	<path d="M87.4,263.9c-3.3,0-7.9-0.8-13.8-2.4c-1.3-0.5-2.3-1.2-2.9-1.9l-0.1-0.1c-1-2-1.8-4.6-0.2-9.5v-0.4c0-0.3,0.2-0.5,0.5-0.5
		c2.3-0.2,6.7,1,13.3,3.8c0.2,0.1,0.3,0.1,0.5,0.2c0.2,0,0.4,0.1,0.7,0.3c3,1.3,5.4,2.6,7,3.7c0.9,0.8,1.3,1.5,1.4,2.2
		c0.2,1.8-0.1,3-1,3.4C91.6,263.5,89.8,263.9,87.4,263.9z M71.5,259.1c0.5,0.6,1.3,1.1,2.4,1.6c9.7,2.6,15.9,3,18.2,1.2l0.1-0.1
		c0.6-0.3,0.6-1.5,0.5-2.5c0-0.4-0.4-0.9-1-1.5c-1.6-1.1-3.9-2.3-6.8-3.6l-0.1,0c-0.1-0.1-0.3-0.1-0.5-0.2c-0.3-0.1-0.4-0.2-0.6-0.3
		c-5.9-2.5-10-3.7-12.3-3.7h-0.1l0,0.2C69.8,255.1,70.6,257.3,71.5,259.1z"/>
	<path class="st25" d="M54.8,206L54.8,206c2.1,0,3.8,1.7,3.8,3.8v40.5c0,2.1-1.7,3.8-3.8,3.8s-3.8-1.7-3.8-3.8v-40.5
		C51,207.7,52.7,206,54.8,206z"/>
	<path d="M54.8,254c-2.1,0-3.8-1.7-3.8-3.8v-40.5c0-2.1,1.7-3.8,3.8-3.8s3.8,1.7,3.8,3.8v40.5C58.5,252.4,56.8,254,54.8,254z
		 M54.8,207c-1.5,0-2.8,1.2-2.8,2.8v40.5c0,1.5,1.2,2.8,2.8,2.8s2.8-1.2,2.8-2.8v-40.5C57.5,208.3,56.3,207,54.8,207z"/>
	<path class="st25" d="M74.8,206L74.8,206c2.1,0,3.8,1.7,3.8,3.8v40.5c0,2.1-1.7,3.8-3.8,3.8c-2.1,0-3.8-1.7-3.8-3.8v-40.5
		C71,207.7,72.7,206,74.8,206z"/>
	<path d="M74.8,254c-2.1,0-3.8-1.7-3.8-3.8v-40.5c0-2.1,1.7-3.8,3.8-3.8s3.8,1.7,3.8,3.8v40.5C78.5,252.4,76.8,254,74.8,254z
		 M74.8,207c-1.5,0-2.8,1.2-2.8,2.8v40.5c0,1.5,1.2,2.8,2.8,2.8s2.8-1.2,2.8-2.8v-40.5C77.5,208.3,76.3,207,74.8,207z"/>
	<path class="st26" d="M80.9,171.4V161h-32v10.4V229c0,2.2,1.8,4,4,4H57c2.2,0,4-1.8,4-4v-47.5h7.9V229c0,2.2,1.8,4,4,4h4
		c2.2,0,4-1.8,4-4V171.4"/>
	<path d="M76.9,233.5h-4c-2.5,0-4.5-2-4.5-4.5v-47h-6.9v47c0,2.5-2,4.5-4.5,4.5h-4.1c-2.5,0-4.5-2-4.5-4.5v-68
		c0-0.3,0.2-0.5,0.5-0.5h32c0.3,0,0.5,0.2,0.5,0.5v68C81.4,231.5,79.4,233.5,76.9,233.5 M61,181h7.9c0.3,0,0.5,0.2,0.5,0.5V229
		c0,1.9,1.6,3.5,3.5,3.5h4c1.9,0,3.5-1.6,3.5-3.5v-67.5h-31V229c0,1.9,1.6,3.5,3.5,3.5H57c1.9,0,3.5-1.6,3.5-3.5v-47.5
		C60.5,181.3,60.7,181,61,181"/>
	<path class="st27" d="M83,171.3l-4.6,9.9c-0.3,0.5-0.4,1-0.2,1.4c0.2,0.5,0.5,0.8,1,1c0.5,0.2,1,0.3,1.5,0.2c0.4-0.2,0.8-0.5,1-1
		l3.1-6.1l0.3,2.6l-4.6,9c-0.2,0.4-0.2,0.9,0,1.4c0.1,0.5,0.4,0.9,0.9,1.2c0.5,0.2,1,0.2,1.5,0c0.4-0.2,0.7-0.4,0.9-0.7
		c0.4,0.1,0.7,0.1,1.1,0c0.4-0.1,0.7-0.4,0.9-0.7c0.4,0.1,0.8,0.1,1.2,0c0.4-0.2,0.7-0.5,0.9-0.9l5.3-10.4c1-1.8-0.8-8.2-0.8-8.5
		L83,171.3z"/>
	<path d="M82.1,191.6c-0.3,0-0.7-0.1-1-0.2c-0.6-0.3-1-0.8-1.1-1.5c-0.3-0.6-0.2-1.2,0.1-1.7l4.5-8.9l-0.1-0.9l-2.4,4.7
		c-0.3,0.6-0.7,1-1.3,1.3l-0.1,0c-0.6,0.1-1.2,0-1.8-0.2c-0.6-0.3-1-0.7-1.2-1.3c-0.2-0.7-0.1-1.3,0.3-1.9l4.6-9.8
		c0.1-0.1,0.2-0.3,0.4-0.3l9.2-1.7c0.1,0,0.3,0,0.4,0.1c0.1,0.1,0.2,0.2,0.2,0.3c0,0,0,0.2,0.1,0.4c1.1,4.6,1.3,7.3,0.7,8.5
		l-5.3,10.4c-0.3,0.5-0.7,0.9-1.2,1.1c-0.4,0.1-0.8,0.2-1.1,0.1c-0.2,0.3-0.6,0.5-1,0.6c-0.4,0.1-0.7,0.1-1,0.1
		c-0.2,0.3-0.5,0.5-0.9,0.6C82.7,191.5,82.4,191.6,82.1,191.6z M84.7,176.2L84.7,176.2c0.3,0,0.5,0.2,0.5,0.4l0.3,2.6
		c0,0.1,0,0.2-0.1,0.3l-4.6,9c-0.2,0.3-0.2,0.6,0,0.9l0,0.2c0,0.4,0.2,0.6,0.6,0.8c0.3,0.2,0.7,0.2,1.1,0c0.3-0.1,0.5-0.3,0.7-0.5
		c0.1-0.2,0.3-0.2,0.5-0.2c0.3,0.1,0.6,0.1,0.8,0c0.2-0.1,0.4-0.2,0.6-0.5c0.1-0.2,0.3-0.3,0.6-0.2c0.3,0.1,0.6,0.1,0.9,0
		c0.3-0.1,0.5-0.3,0.7-0.7l5.3-10.4c0.4-0.7,0.5-2.5-0.8-7.7l-8.5,1.5l-4.5,9.7c-0.2,0.4-0.3,0.8-0.2,1.1c0.1,0.3,0.4,0.5,0.7,0.7
		c0.4,0.2,0.7,0.2,1.1,0.2c0.3-0.2,0.6-0.4,0.8-0.8l3.1-6.1C84.4,176.3,84.6,176.2,84.7,176.2z"/>
	<path class="st28" d="M92.8,175.5c0.3,2,0.5,2.5,0.6,1.5c0.1,0.4,0,0.8-0.2,1.2l-5.2,10.3c-0.2,0.4-0.5,0.7-0.9,0.9
		c-0.4,0.1-0.7,0.1-1.1,0c0.1-0.1,0.2-0.2,0.2-0.3c0,0.1-0.1,0.2-0.2,0.3c-0.2,0.3-0.5,0.5-0.9,0.7c-0.3,0.1-0.7,0.1-1.1,0L84,190
		l4.6-9l2.4-1.5L92.8,175.5z"/>
	<path class="st27" d="M92.4,171.4l-1.1-33.9c-0.1-3.1-3.3-6.2-7.6-7.3l3.4,41.3L92.4,171.4"/>
	<path d="M87.2,171.9c-0.3,0-0.5-0.2-0.5-0.5l-3.5-42l0.7,0.2c4.6,1.2,7.8,4.4,7.9,7.8l1.1,33.9c0,0.3-0.2,0.5-0.5,0.5
		c-0.3,0-0.5-0.2-0.5-0.5l-1.1-33.9c-0.1-2.7-2.8-5.4-6.5-6.7l3.4,40.6C87.7,171.6,87.5,171.9,87.2,171.9L87.2,171.9"/>
	<path class="st27" d="M47.3,172.3l4.6,9.9c0.3,0.5,0.4,1,0.2,1.4c-0.2,0.5-0.5,0.8-1,1c-0.5,0.2-1,0.3-1.5,0.2
		c-0.4-0.2-0.8-0.5-1-1l-3.1-6.1l-0.4,2.6l4.6,9c0.2,0.4,0.2,0.9,0,1.4c-0.1,0.5-0.4,0.9-0.9,1.2c-0.5,0.2-1,0.2-1.5,0
		c-0.4-0.2-0.7-0.4-0.9-0.7c-0.4,0.1-0.7,0.1-1.1,0c-0.4-0.1-0.7-0.4-0.9-0.7c-0.4,0.1-0.8,0.1-1.2,0c-0.4-0.2-0.7-0.5-0.9-0.9
		l-5.3-10.4c-1-1.8,0.8-8.2,0.8-8.5L47.3,172.3z"/>
	<path d="M48.2,192.5c-0.3,0-0.6-0.1-0.9-0.2c-0.4-0.2-0.7-0.4-0.9-0.6c-0.3,0-0.7,0-1,0c-0.4-0.1-0.8-0.4-1-0.6
		c-0.4,0-0.7,0-1.1-0.1c-0.5-0.2-0.9-0.6-1.2-1.1l-5.3-10.4c-0.7-1.2-0.4-3.9,0.7-8.5c0-0.2,0.1-0.3,0.1-0.4c0-0.3,0.3-0.5,0.6-0.4
		l9.2,1.7c0.2,0,0.3,0.1,0.4,0.3l4.6,9.9c0.3,0.6,0.4,1.2,0.3,1.8c-0.3,0.7-0.7,1.1-1.3,1.4c-0.6,0.3-1.2,0.4-1.8,0.2l-0.1,0
		c-0.5-0.2-1-0.7-1.3-1.2l-2.4-4.7l-0.1,0.9l4.5,8.9c0.3,0.5,0.3,1.1,0.1,1.7c-0.1,0.7-0.5,1.2-1.1,1.5
		C48.9,192.4,48.5,192.5,48.2,192.5z M46.6,190.7c0.2,0,0.3,0.1,0.4,0.2c0.2,0.2,0.4,0.4,0.7,0.5c0.4,0.1,0.7,0.1,1.1,0
		c0.4-0.2,0.5-0.4,0.6-0.8l0-0.1c0.2-0.3,0.2-0.6,0-0.9l-4.6-9c0-0.1-0.1-0.2,0-0.3l0.4-2.6c0-0.2,0.2-0.4,0.4-0.4
		c0.2,0,0.4,0.1,0.5,0.3l3.1,6.1c0.2,0.4,0.4,0.6,0.8,0.8c0.4,0.1,0.7,0,1.1-0.2c0.4-0.2,0.6-0.4,0.8-0.8c0.1-0.3,0-0.6-0.2-1
		l-4.5-9.7l-8.5-1.5c-1.3,5.2-1.1,7.1-0.8,7.7l5.3,10.4c0.2,0.3,0.4,0.5,0.7,0.7c0.2,0.1,0.5,0.1,0.8,0c0.2-0.1,0.4,0,0.6,0.2
		c0.1,0.2,0.3,0.4,0.6,0.5c0.2,0.1,0.5,0,0.8,0L46.6,190.7z"/>
	<path class="st28" d="M37.6,176.5c-0.3,2-0.5,2.5-0.6,1.5c-0.1,0.4,0,0.8,0.2,1.2l5.2,10.3c0.2,0.4,0.5,0.7,0.9,0.9
		c0.4,0.1,0.7,0.1,1.1,0c-0.1-0.1-0.2-0.2-0.2-0.3c0,0.1,0.1,0.2,0.2,0.3c0.2,0.3,0.5,0.5,0.9,0.7c0.3,0.1,0.7,0.1,1.1,0l-0.2-0.1
		l-4.6-9l-2.4-1.5L37.6,176.5z"/>
	<path class="st27" d="M37.9,172.3l1.1-33.9c0.1-3.1,3.3-6.2,7.6-7.3l-3.4,41.3L37.9,172.3"/>
	<path d="M43.1,172.8L43.1,172.8c-0.3,0-0.5-0.3-0.5-0.5l3.4-40.6c-3.7,1.2-6.4,3.9-6.5,6.7l-1.1,33.9c0,0.3-0.2,0.5-0.5,0.5
		c-0.3,0-0.5-0.2-0.5-0.5l1.1-33.9c0.1-3.4,3.4-6.6,7.9-7.8l0.7-0.2l-3.5,42C43.6,172.7,43.3,172.8,43.1,172.8"/>
	<path class="st29" d="M39,112.9c-0.6,1.9-1,4-1,6.1c0,2.1,0.4,4.2,1,6.1V138h53v-18l0,0c0-0.3,0-0.6,0-1c0-10.5-8.5-19-19-19H57
		c-8,0-14.9,5-17.7,12l-0.3,0V112.9"/>
	<path d="M91,139.3V138H40v1.2l-2.2-2.2H39l0-12c-0.6-1.9-1-3.9-1-6c0-2.1,0.3-4.1,1-6l-0.6-0.1l0.2-1.4h1c3-7,9.8-11.5,17.5-11.5
		h16c10.5,0,19,8.5,19,19c0,0.2,0,0.3,0,0.5h0.6l-0.2,1.6L92,121v16h1.2L91,139.3 M40,137h51l0-17.1c0-0.3,0-0.6,0-0.9
		c0-9.9-8.1-18-18-18H57c-7.5,0-14,4.5-16.8,11.4l-0.2,0.7l0,0c-0.6,1.9-1,3.9-1,5.8c0,2,0.3,3.9,0.9,5.8l0,0.2L40,137"/>
	<path class="st29" d="M83.6,140.3l9,1.9c1.4,0.3,2.4,1.5,2.4,2.9v0.3c0,1.5-1.2,2.7-2.7,2.7H83c-1.7,0-3-1.3-3-3v-1.8
		c0-1.7,1.3-3,3-3C83.2,140.2,83.4,140.2,83.6,140.3"/>
	<path class="st30" d="M92.3,148H83c-1.7,0-3-1.3-3-3v-1.8c0-1.7,1.3-3,3-3c0.2,0,0.4,0,0.6,0.1l0,0l9,1.9c1.4,0.3,2.4,1.5,2.4,2.9
		v0.3C95,146.8,93.8,148,92.3,148 M83,141.2c-1.1,0-2,0.9-2,2v1.8c0,1.1,0.9,2,2,2h9.3c0.9,0,1.7-0.8,1.7-1.7v-0.3
		c0-0.9-0.7-1.8-1.6-2l-9-1.9C83.3,141.2,83.1,141.2,83,141.2"/>
	<path class="st29" d="M82.2,136.2l0.2,0.2l8.9-2.1c1.6-0.4,3.2,0.6,3.6,2.2c0.1,0.2,0.1,0.5,0.1,0.7v2.7c0,1.7-1.3,3-3,3
		c-0.2,0-0.4,0-0.6-0.1l-9-1.8c-1.4-0.3-2.4-1.5-2.4-2.9V137c0-0.7,0.6-1.2,1.2-1.2C81.6,135.8,82,135.9,82.2,136.2"/>
	<path class="st30" d="M92,142.9c-0.2,0-0.4,0-0.6-0.1l-9-1.8c-1.4-0.3-2.4-1.5-2.4-2.9V137c0-0.7,0.6-1.2,1.2-1.2
		c0.4,0,0.7,0.2,1,0.5v0l0.2,0.2l8.9-2.1c1.6-0.4,3.2,0.6,3.6,2.2c0.1,0.2,0.1,0.5,0.1,0.7v2.7C95,141.6,93.7,142.9,92,142.9
		 M81.2,136.8c-0.1,0-0.2,0.1-0.2,0.2v1.1c0,1,0.7,1.8,1.6,2l9,1.8c0.1,0,0.3,0,0.4,0c1.1,0,2-0.9,2-2v-2.7c0-0.2,0-0.3-0.1-0.5
		c-0.3-1.1-1.3-1.7-2.4-1.5l-9.6,2.3l-0.6-0.7L81.2,136.8"/>
	<path class="st29" d="M83,132h10.2c1,0,1.8,0.8,1.8,1.8v0.1c0,1-0.7,1.8-1.6,2l-10,2c-1.1,0.2-2.1-0.5-2.4-1.6c0-0.1,0-0.3,0-0.4
		V134C81,132.9,81.9,132,83,132"/>
	<path class="st30" d="M83,138c-0.9,0-1.8-0.7-2-1.6c0-0.1,0-0.3,0-0.4V134c0-1.1,0.9-2,2-2h10.2c1,0,1.8,0.8,1.8,1.8v0.1
		c0,0.9-0.7,1.8-1.6,2l-10,2C83.3,137.9,83.1,138,83,138 M83,133c-0.6,0-1,0.4-1,1v1.9l0,0.2c0.1,0.5,0.6,0.9,1.2,0.8l10-2
		c0.5-0.1,0.8-0.5,0.8-1v-0.1c0-0.4-0.3-0.8-0.8-0.8H83"/>
	<path d="M92.4,148H83c-1.7,0-3-1.3-3-3v-1.5c0-1.1,0.5-2,1.4-2.6v0c-0.9-0.5-1.4-1.5-1.4-2.6v-1.1c0-0.6,0.4-1.1,1-1.2V134
		c0-1.1,0.9-2,2-2h10.1c1,0,1.9,0.8,1.9,1.9v0.3c0,0.6-0.2,1.1-0.7,1.5c0.3,0.4,0.5,0.8,0.6,1.2c0.1,0.2,0.1,0.5,0.1,0.7v2.7
		c0,1.1-0.5,2-1.4,2.6c0.9,0.5,1.4,1.5,1.4,2.6v0.1C95,146.9,93.9,148,92.4,148 M83,133c-0.6,0-1,0.4-1,1v2.9l-0.8,0.2
		c-0.1,0-0.2,0.1-0.2,0.2v1.1c0,0.7,0.4,1.3,1,1.7l1.4,0.9l-1.4,0.9c-0.6,0.4-1,1-1,1.7v1.5c0,1.1,0.9,2,2,2h9.4
		c0.9,0,1.6-0.7,1.6-1.6v-0.1c0-0.7-0.4-1.3-1-1.7l-1.4-0.9L93,142c0.6-0.4,1-1,1-1.7v-2.7c0-0.2,0-0.3-0.1-0.5
		c-0.1-0.3-0.2-0.6-0.4-0.8l-0.6-0.7l0.7-0.6c0.2-0.2,0.3-0.5,0.3-0.8v-0.3c0-0.5-0.4-0.9-0.9-0.9H83"/>
	<path class="st29" d="M82,115l0.8,44.8c0.1,5.5-4.3,10.1-9.8,10.2l-0.2,0H56.6c-5.5,0-10-4.5-10-10c0-0.2,0-0.4,0-0.5L49,115H82"/>
	<path d="M72.8,170.5H56.6c-5.8,0-10.5-4.7-10.5-10.5c0-0.2,0-0.4,0-0.6l2.3-44.5l1,0.1l-2.3,44.5c0,0.2,0,0.3,0,0.5
		c0,5.2,4.3,9.5,9.5,9.5l16.3,0c2.5,0,4.9-1.1,6.7-2.9c1.8-1.8,2.7-4.2,2.7-6.8l-0.8-44.8l1,0l0.8,44.8c0.1,2.8-1,5.5-2.9,7.5
		c-1.9,2-4.6,3.2-7.4,3.2L72.8,170.5"/>
	<path class="st29" d="M37.6,140.3l9,1.9c1.4,0.3,2.4,1.5,2.4,2.9v0.3c0,1.5-1.2,2.7-2.7,2.7H37c-1.7,0-3-1.3-3-3v-1.8
		c0-1.7,1.3-3,3-3C37.2,140.2,37.4,140.2,37.6,140.3"/>
	<path class="st30" d="M46.3,148H37c-1.7,0-3-1.3-3-3v-1.8c0-1.7,1.3-3,3-3c0.2,0,0.4,0,0.6,0.1l0,0l9,1.9c1.4,0.3,2.4,1.5,2.4,2.9
		v0.3C49,146.8,47.8,148,46.3,148 M37,141.2c-1.1,0-2,0.9-2,2v1.8c0,1.1,0.9,2,2,2h9.3c0.9,0,1.7-0.8,1.7-1.7v-0.3
		c0-0.9-0.7-1.8-1.6-2l-9-1.9C37.3,141.2,37.1,141.2,37,141.2"/>
	<path class="st29" d="M36.2,136.2l0.2,0.2l8.9-2.1c1.6-0.4,3.2,0.6,3.6,2.2c0.1,0.2,0.1,0.5,0.1,0.7v2.7c0,1.7-1.3,3-3,3
		c-0.2,0-0.4,0-0.6-0.1l-9-1.8c-1.4-0.3-2.4-1.5-2.4-2.9V137c0-0.7,0.6-1.2,1.2-1.2C35.6,135.8,36,135.9,36.2,136.2"/>
	<path class="st30" d="M46,142.9c-0.2,0-0.4,0-0.6-0.1l-9-1.8c-1.4-0.3-2.4-1.5-2.4-2.9V137c0-0.7,0.6-1.2,1.2-1.2
		c0.4,0,0.7,0.2,1,0.5l0.2,0.2l8.9-2.1c0.8-0.2,1.6-0.1,2.3,0.4c0.7,0.4,1.2,1.1,1.3,1.9c0.1,0.2,0.1,0.5,0.1,0.7v2.7
		C49,141.6,47.7,142.9,46,142.9 M35.2,136.8c-0.1,0-0.2,0.1-0.2,0.2v1.1c0,1,0.7,1.8,1.6,2l9,1.8c1.2,0.2,2.4-0.7,2.4-2v-2.7
		c0-0.2,0-0.3-0.1-0.5c-0.1-0.5-0.4-1-0.9-1.2c-0.5-0.3-1-0.4-1.5-0.2l-9.6,2.3l-0.6-0.7L35.2,136.8"/>
	<path class="st29" d="M37,132h10.2c1,0,1.8,0.8,1.8,1.8v0.1c0,1-0.7,1.8-1.6,2l-10,2c-1.1,0.2-2.1-0.5-2.4-1.6c0-0.1,0-0.3,0-0.4
		V134C35,132.9,35.9,132,37,132"/>
	<path class="st30" d="M37,138c-0.9,0-1.8-0.7-2-1.6c0-0.1,0-0.3,0-0.4V134c0-1.1,0.9-2,2-2h10.2c1,0,1.8,0.8,1.8,1.8v0.1
		c0,0.9-0.7,1.8-1.6,2l-10,2C37.3,137.9,37.1,138,37,138 M37,133c-0.6,0-1,0.4-1,1v1.9l0,0.2c0.1,0.5,0.6,0.9,1.2,0.8l10-2
		c0.5-0.1,0.8-0.5,0.8-1v-0.1c0-0.4-0.3-0.8-0.8-0.8H37"/>
	<path d="M46.4,148H37c-1.7,0-3-1.3-3-3v-1.5c0-1.1,0.5-2,1.4-2.6l0,0h0c-0.9-0.5-1.4-1.5-1.4-2.6v-1.1c0-0.6,0.4-1.1,1-1.2V134
		c0-1.1,0.9-2,2-2h10.1c1,0,1.9,0.8,1.9,1.9v0.3c0,0.6-0.2,1.1-0.7,1.5c0.3,0.4,0.5,0.8,0.6,1.2c0.1,0.2,0.1,0.5,0.1,0.7v2.7
		c0,1.1-0.5,2-1.4,2.6c0.9,0.5,1.4,1.5,1.4,2.6v0.1C49,146.9,47.9,148,46.4,148 M37,133c-0.6,0-1,0.4-1,1v2.9l-0.8,0.2
		c-0.1,0-0.2,0.1-0.2,0.2v1.1c0,0.7,0.4,1.3,1,1.7l1.4,0.9l-1.4,0.9c-0.6,0.4-1,1-1,1.7v1.5c0,1.1,0.9,2,2,2h9.4
		c0.9,0,1.6-0.7,1.6-1.6v-0.1c0-0.7-0.4-1.3-1-1.7l-1.4-0.9L47,142c0.6-0.4,1-1,1-1.7v-2.7c0-0.2,0-0.3-0.1-0.5
		c-0.1-0.3-0.2-0.6-0.4-0.8l-0.6-0.7l0.7-0.6c0.2-0.2,0.3-0.5,0.3-0.8v-0.3c0-0.5-0.4-0.9-0.9-0.9H37"/>
	<path d="M50.5,167.5l-0.1,0c-0.3-0.1-0.4-0.3-0.4-0.6l5.6-24.4l21.4,1l1.5,23.4c0,0.3-0.2,0.5-0.5,0.5c-0.2,0-0.5-0.2-0.5-0.5
		L76,144.5l-19.6-1L51,167.2C50.9,167.4,50.7,167.5,50.5,167.5"/>
	<path class="st31" d="M46.5,113v18c0,0.3,0,0.7-0.1,1h0.7l0,0h0.1l0,0c0.1,0,0.2,0,0.4,0l0.9-17.1l0.5,0h0.3L46.5,113"/>
	<path class="st32" d="M47.2,164.7c0.3,0.8,0.7,1.6,1.2,2.2v-0.3C48,166,47.6,165.4,47.2,164.7 M46.8,148c-0.1,0-0.2,0-0.3,0h-0.1
		l0,0h-0.4c-0.1,4.8,0,8.6,0.3,11.3L46.8,148"/>
	<path class="st33" d="M49.4,167.7v0.4c1,1,2.4,1.6,3.9,2C51.8,169.5,50.5,168.7,49.4,167.7"/>
	<path d="M48.4,166.6v0.3c0.3,0.4,0.6,0.8,1,1.1v-0.4C49,167.3,48.7,166.9,48.4,166.6"/>
	<path class="st31" d="M51.5,164.9l-0.5,2.3c0,0.1-0.1,0.3-0.2,0.3c0.7,0.5,1.4,1,2.1,1.3C52.4,167.6,51.9,166.3,51.5,164.9
		 M49.5,115.2l-0.9,17.5c0.3,0.3,0.4,0.7,0.4,1.2l0,0v0.1l0,0v0.3c0,0.5-0.2,1-0.5,1.4c0.1,0.1,0.2,0.3,0.2,0.4
		c0.1,0.2,0.2,0.4,0.2,0.6c0.1,0.2,0.1,0.5,0.1,0.7l0,0v0.4l0,0v2.7c0,0.8-0.3,1.6-0.9,2.2l0,0.4c0.6,0.6,1,1.3,1,2.2l0,0v0.3l0,0
		c0,0,0,0,0,0c0,0,0,0,0,0v0.1c0,0.9-0.5,1.7-1.2,2.2l-0.6,11.9c0,0.2,0,0.3,0,0.5c0,2.7,1.1,5.1,2.9,6.8l1-4.2
		c-0.7-3.2-1-6.9-1-11.1c0-7.9,0-19.9,0-36L49.5,115.2 M49.3,115H49H49.3L49.3,115"/>
	<path d="M47.8,147.7c-0.3,0.2-0.7,0.3-1,0.4l-0.6,11.3c0.1,1.1,0.2,2,0.3,2.7c0.2,1,0.4,1.9,0.7,2.6c0.3,0.7,0.7,1.3,1.2,1.9
		c0.3,0.4,0.6,0.8,1,1.1c1.1,1.1,2.4,1.9,3.9,2.4c0.1,0,0.1,0,0.2,0c-0.2-0.4-0.4-0.8-0.6-1.3c-0.8-0.3-1.5-0.8-2.1-1.3
		c-0.1,0-0.2,0.1-0.2,0.1l-0.1,0c-0.3-0.1-0.4-0.3-0.4-0.6l0-0.1c-1.8-1.7-2.9-4.1-2.9-6.8c0-0.2,0-0.3,0-0.5L47.8,147.7
		 M48.1,142.5c-0.1,0.1-0.2,0.2-0.3,0.2c0.1,0.1,0.2,0.1,0.3,0.2L48.1,142.5 M48.5,115l-0.9,17.1c0.4,0.1,0.7,0.3,1,0.6l0.9-17.5
		l-0.2-0.1l-0.3,0L48.5,115"/>
	<path class="st31" d="M49,145.4C49,145.4,49,145.4,49,145.4L49,145.4C49,145.4,49,145.4,49,145.4L49,145.4 M47.8,142.7
		C47.8,142.7,47.8,142.7,47.8,142.7c0.7,0.6,1.2,1.4,1.2,2.4c0-0.9-0.4-1.7-1-2.2C48,142.8,47.9,142.7,47.8,142.7"/>
	<path class="st34" d="M47.8,142.7c-0.1,0-0.1,0.1-0.2,0.1c0.9,0.5,1.4,1.5,1.4,2.5c0,0,0,0,0,0l0,0v-0.3l0,0
		C49,144.1,48.5,143.2,47.8,142.7"/>
	<path class="st31" d="M48.7,135.9c0.1,0.2,0.2,0.4,0.2,0.6c0.1,0.2,0.1,0.5,0.1,0.7c0-0.2,0-0.5-0.1-0.7
		C48.9,136.3,48.8,136.1,48.7,135.9"/>
	<path class="st34" d="M48.5,135.5c0,0.1-0.1,0.1-0.2,0.2c0.3,0.4,0.5,0.8,0.6,1.2c0.1,0.2,0.1,0.5,0.1,0.7v-0.4l0,0
		c0-0.2,0-0.5-0.1-0.7c-0.1-0.2-0.1-0.4-0.2-0.6C48.6,135.8,48.6,135.7,48.5,135.5"/>
	<path class="st31" d="M47.2,132c1,0,1.8,0.8,1.8,1.8c0-0.4-0.2-0.8-0.4-1.2c-0.2-0.3-0.6-0.5-1-0.6C47.5,132.1,47.4,132,47.2,132"
		/>
	<path class="st34" d="M47.2,132h-0.1c1,0,1.9,0.8,1.9,1.9v-0.1l0,0C49,132.8,48.2,132,47.2,132L47.2,132"/>
	<path class="st31" d="M47.2,135.9l-1,0.2c-0.1,2-0.2,4-0.2,5.8c1,0,2-0.9,2-2v-2.3c0-0.2,0-0.3-0.1-0.5c-0.1-0.3-0.2-0.6-0.4-0.8
		L47.2,135.9"/>
	<path class="st34" d="M48,137.6v2.3c0,1.1-0.9,2-2,2c0,0.2,0,0.5,0,0.7l1-0.6c0.6-0.4,1-1,1-1.7V137.6L48,137.6"/>
	<path class="st31" d="M47.1,133h-0.7c0,0.7-0.1,1.4-0.1,2l0.9-0.2c0.5-0.1,0.8-0.5,0.8-1v0C48,133.4,47.6,133,47.1,133"/>
	<path class="st34" d="M48,133.9L48,133.9c0,0.5-0.3,0.9-0.8,1l-0.9,0.2c0,0.3,0,0.7,0,1l1-0.2l-0.3-0.4l0.7-0.6
		c0.2-0.2,0.3-0.5,0.3-0.8V133.9L48,133.9"/>
	<path class="st31" d="M46,143.1c0,1.4-0.1,2.7-0.1,4h0.4c0.9,0,1.7-0.8,1.7-1.7c0-0.7-0.4-1.3-1-1.7L46,143.1L46,143.1"/>
	<path class="st34" d="M48,145.4c0,0.9-0.8,1.7-1.7,1.7h0.1c0.9,0,1.6-0.7,1.6-1.6L48,145.4C48,145.4,48,145.4,48,145.4 M46,143
		C46,143,46,143.1,46,143L46,143L46,143"/>
	<path d="M47.1,132h-0.7c0,0.3,0,0.7,0,1h0.7l0,0c0.5,0,0.9,0.4,0.9,0.9l0,0v0.3c0,0.3-0.1,0.6-0.3,0.8l-0.7,0.6l0.3,0.4l0.3,0.4
		c0.2,0.2,0.3,0.5,0.4,0.8c0,0.2,0.1,0.3,0.1,0.5l0,0v2.7c0,0.7-0.4,1.3-1,1.7l-1,0.6c0,0.2,0,0.3,0,0.4l0,0l1,0.6
		c0.6,0.4,1,1,1,1.7c0,0,0,0,0,0v0.1c0,0.9-0.7,1.6-1.6,1.6h-0.1h-0.4c0,0.3,0,0.7,0,1h0.4h0.1c0.1,0,0.2,0,0.3,0
		c0.4,0,0.7-0.2,1-0.4c0.7-0.5,1.2-1.3,1.2-2.2v-0.1c0,0,0,0,0,0v0c0-1-0.6-2-1.4-2.5c0.1,0,0.1-0.1,0.2-0.1c0,0,0,0,0,0
		c0.1-0.1,0.2-0.1,0.3-0.2c0.6-0.6,0.9-1.3,0.9-2.2v-2.7l0,0c0-0.2,0-0.5-0.1-0.7c-0.1-0.5-0.3-0.9-0.6-1.2c0.1,0,0.1-0.1,0.2-0.2
		c0.3-0.4,0.5-0.8,0.5-1.4v-0.3l0,0C49,132.9,48.2,132,47.1,132L47.1,132"/>
	<path d="M51,162.7l-1,4.2l0,0.1c-0.1,0.3,0.1,0.5,0.4,0.6l0.1,0c0.1,0,0.2,0,0.2-0.1c0.1-0.1,0.2-0.2,0.2-0.3l0.5-2.3
		C51.3,164.2,51.1,163.4,51,162.7"/>
	<path class="st32" d="M83.6,148h-0.5l0.1,7.2C83.4,153.2,83.5,150.8,83.6,148"/>
	<path class="st31" d="M84,113l-2.8,2H82l0.5,0l0.3,17c0.1,0,0.1,0,0.2,0l0,0h1c0-0.3,0-0.7,0-1V113"/>
	<path class="st31" d="M83,141.2L83,141.2l0,5.8h0.6c0.1-1.8,0.1-3.7,0.2-5.7l-0.4-0.1C83.3,141.2,83.2,141.2,83,141.2"/>
	<path class="st34" d="M83.1,141.2L83.1,141.2c0.1,0,0.2,0,0.3,0.1l0.4,0.1c0,0,0,0,0,0L83.1,141.2"/>
	<path class="st31" d="M83.9,137.8l-0.5,0.1l0,0c-0.1,0-0.2,0-0.3,0c0,0-0.1,0-0.1,0c0,0-0.1,0-0.1,0l0,2.2l0.9,0.2
		C83.9,139.5,83.9,138.7,83.9,137.8"/>
	<path class="st34" d="M83,140.1l0,0.7l0.4,0.2l-0.3,0.2l0.7,0.1c0-0.3,0-0.7,0-1L83,140.1"/>
	<path class="st31" d="M83.1,137.9c0,0-0.1,0-0.1,0c0,0-0.1,0-0.1,0l0,0c0,0,0.1,0,0.1,0C83,138,83.1,137.9,83.1,137.9 M84,133h-1
		c-0.1,0-0.1,0-0.2,0l0.1,3.9c0,0,0.1,0,0.1,0c0.1,0,0.1,0,0.2,0l0.7-0.1C83.9,135.6,84,134.3,84,133 M83,132c-0.1,0-0.1,0-0.2,0v0
		C82.9,132.1,82.9,132,83,132"/>
	<path class="st34" d="M83.9,136.8l-0.7,0.1c-0.1,0-0.1,0-0.2,0c0,0-0.1,0-0.1,0l0,1c0,0,0.1,0,0.1,0c0,0,0.1,0,0.1,0
		c0.1,0,0.2,0,0.3,0l0,0l0.5-0.1C83.9,137.5,83.9,137.1,83.9,136.8"/>
	<path d="M83.6,147h-0.6l0,1h0.5C83.6,147.7,83.6,147.4,83.6,147 M83,140.8l0,0.5l0.1,0l0,0l0.3-0.2L83,140.8 M84,132h-1l0,0
		c-0.1,0-0.1,0-0.2,0l0,1c0.1,0,0.1,0,0.2,0h1C84,132.7,84,132.4,84,132"/>
	<path class="st31" d="M82,115h-0.8l-0.7,0.5c0,16.1,0,28.1,0,36c0,4.5-0.8,8.3-2.3,11.6l0.3,3.9c0,0.3-0.2,0.5-0.5,0.5c0,0,0,0,0,0
		c-0.2,0-0.5-0.2-0.5-0.5l-0.1-2.2c-1,1.8-2.3,3.3-3.8,4.7c2.3-0.2,4.5-1.2,6.1-2.9c1.8-1.8,2.7-4.2,2.7-6.8l-0.8-44.8L82,115"/>
	<path d="M82.5,115l-0.5,0l-0.5,0l0.8,44.8c0,2.5-0.9,4.9-2.7,6.8c-1.6,1.7-3.8,2.7-6.1,2.9c0,0,0,0,0,0c5.2-0.4,8.2-2.9,9-7.5
		c0.3-1.6,0.5-3.8,0.7-6.8l-0.1-7.2l0-1l-0.1-5.8l0-0.5l0-0.7l0-2.2l0,0l0-1l-0.1-3.9l0-1v0L82.5,115"/>
	<path d="M78.2,163.1c-0.3,0.6-0.6,1.2-0.9,1.7l0.1,2.2c0,0.3,0.3,0.5,0.5,0.5c0,0,0,0,0,0c0.3,0,0.5-0.3,0.5-0.5L78.2,163.1"/>
	<path class="st29" d="M63.8,111.3c-5.3-3.3-12.8-6-22.5-8c-6.3-9.3-5.7-15.5,2-18.5c11.5-4.5,37-5.5,41,0c4,5.5,16.5,17.5,3,21
		C83.3,104.8,74.8,106.8,63.8,111.3"/>
	<path d="M63.7,111.9l-0.2-0.1c-5.3-3.3-12.8-6-22.3-7.9l-0.2,0l-0.1-0.2c-3.7-5.5-5.1-10-4-13.4c0.8-2.5,2.9-4.5,6.3-5.8
		c5.5-2.2,14.8-3.7,23.5-3.8c4.5-0.1,15.4,0.2,18.1,4c0.6,0.8,1.3,1.7,2.1,2.7c3.5,4.3,8.2,10.1,6.8,14.5c-0.7,2.1-2.8,3.7-6.2,4.5
		l-0.1,0l-0.1,0c-3.9-1-12.3,1-23.2,5.5L63.7,111.9 M41.6,102.9c9.5,2,16.9,4.6,22.2,7.9c11-4.5,19.3-6.4,23.4-5.5
		c3-0.8,4.8-2.1,5.4-3.9c1.3-3.9-3.3-9.5-6.6-13.6c-0.8-1-1.6-2-2.2-2.8c-3.7-5.1-29-4.3-40.4,0.2c-3.1,1.2-5,2.9-5.7,5.2
		C36.9,93.5,38.1,97.7,41.6,102.9"/>
	<path class="st30" d="M63.9,108.2L49.4,94.7c-1.7-4.3,2.2-5.7,11.5-4c14,2.5,21.8,1.5,23,6C84.7,99.7,78,103.5,63.9,108.2z"/>
	<path class="st35" d="M42.9,106.2l-0.4,0.3l0.1,0C42.7,106.5,42.8,106.3,42.9,106.2"/>
	<path class="st36" d="M45.9,104.9c-0.8,0.6-1.5,1.3-2.1,2l19,4.4C58.5,108.7,52.8,106.6,45.9,104.9"/>
	<path d="M45.1,104.7l-2.2,1.6c-0.1,0.1-0.2,0.2-0.3,0.3l1.1,0.3c0.7-0.7,1.4-1.4,2.1-2C45.6,104.8,45.4,104.7,45.1,104.7"/>
	<path class="st36" d="M84.9,106.1c-4.3,0-11.3,1.9-19.9,5.3l19.5-3.6l1.1-1.6c-0.1-0.1-0.1-0.1-0.2-0.2
		C85.3,106.1,85.1,106.1,84.9,106.1"/>
	<path d="M85.5,106.1c0.1,0.1,0.1,0.1,0.2,0.2l0.1-0.2C85.7,106.1,85.6,106.1,85.5,106.1"/>
	<path class="st36" d="M59.4,108.4c1.6,0.7,3.1,1.5,4.4,2.3c1.1-0.5,2.2-0.9,3.3-1.3l-2.7,0.6L59.4,108.4 M86.5,105l-0.3,0.1
		C86.3,105.1,86.4,105.1,86.5,105L86.5,105"/>
	<path d="M46,104l-0.9,0.6c0.3,0.1,0.5,0.1,0.8,0.2c6.9,1.7,12.6,3.9,16.9,6.4l1.2,0.3l1-0.2c8.6-3.5,15.6-5.3,19.9-5.3
		c0.2,0,0.4,0,0.6,0c0.1,0,0.2,0,0.3,0l0.7-0.9c-0.1,0-0.2,0-0.2,0l-19,4.3c-1.1,0.4-2.2,0.8-3.3,1.3c-1.3-0.8-2.8-1.6-4.4-2.3
		L46,104"/>
	<path class="st37" d="M62.4,75c-0.7,0-1.2,0.2-1.7,0.7c-0.5,0.5-0.7,1.1-0.7,1.8s0.2,1.3,0.7,1.8c0.5,0.5,1,0.7,1.7,0.7h4.1
		c0.7,0,1.2-0.2,1.7-0.7c0.5-0.5,0.7-1.1,0.7-1.8s-0.2-1.3-0.7-1.8c-0.5-0.5-1-0.7-1.7-0.7H62.4z"/>
	<path d="M66.6,80.5h-4.1c-0.8,0-1.5-0.3-2.1-0.9c-0.6-0.6-0.8-1.3-0.8-2.1s0.3-1.5,0.8-2.1c0.6-0.6,1.3-0.9,2.1-0.9h4.1
		c0.8,0,1.5,0.3,2.1,0.9c0.6,0.6,0.8,1.3,0.8,2.1s-0.3,1.5-0.8,2.1C68.1,80.3,67.4,80.5,66.6,80.5z M62.4,75.5c-0.5,0-1,0.2-1.4,0.6
		c-0.4,0.4-0.6,0.9-0.6,1.4s0.2,1,0.6,1.4c0.4,0.4,0.8,0.6,1.4,0.6h4.1c0.5,0,1-0.2,1.4-0.6c0.4-0.4,0.6-0.9,0.6-1.4s-0.2-1-0.6-1.4
		c-0.4-0.4-0.8-0.6-1.4-0.6H62.4z"/>
	<path class="st38" d="M69,106c2,0,3-2.1,3-4.2v-7.7c-0.1,1.9-1.1,2.9-3,2.9H61c-1.9,0-2.9-1-3-3v7.8c0,2.1,4,6.2,6,6.2L69,106z"/>
	<path class="st28" d="M69,81H61c-2,0-3,0.9-3,2.8v10.5c0.1,1.8,1.1,2.7,3,2.7H69c1.9,0,2.9-0.9,3-2.6V83.9C72,82,71,81,69,81z"/>
	<path d="M64,108.5c-0.1,0-0.3-0.1-0.4-0.1c-0.4-0.4-1.1-0.9-1.8-1.5c-2.1-1.6-4.4-3.4-4.4-5.2V81.4c0-3.2,1.9-3.8,3.5-3.8H69
		c1.6,0,3.5,0.7,3.5,3.8v20.4c0,2.2,0,4.2-3.3,4.8l-5,2L64,108.5z M61,78.5c-1.7,0-2.5,0.9-2.5,2.8v20.4c0,1.3,2.3,3.1,4,4.4
		c0.6,0.5,1.2,0.9,1.6,1.3l4.7-1.9l0.1,0c2.6-0.4,2.6-1.6,2.6-3.8V81.4c0-1.9-0.8-2.8-2.5-2.8H61z"/>
	<polygon class="st37" points="58.4,68.3 58.4,68.2 58.4,68.1 58.2,68 58,68.1 58,68.2 58,68.3 58,68.5 58.2,68.5 58.4,68.5 	"/>
	<path d="M57.9,62.5H55c-1.3,0-2.3-0.5-3.2-1.5c-0.9-1-1.3-2.2-1.3-3.5c0-1.4,0.4-2.5,1.3-3.5c0.8-1,1.9-1.5,3.2-1.5h2.9
		c1.3,0,2.4,0.5,3.2,1.5c0.9,0.9,1.3,2.1,1.3,3.5c0,1.4-0.4,2.6-1.3,3.5C60.3,62.1,59.2,62.5,57.9,62.5z M55,53.5
		c-1,0-1.8,0.4-2.4,1.2c-0.7,0.8-1.1,1.7-1.1,2.8c0,1.1,0.3,2.1,1.1,2.9c0.7,0.8,1.5,1.1,2.5,1.1h2.9c1,0,1.8-0.4,2.5-1.1
		c0.7-0.8,1.1-1.7,1.1-2.9c0-1.1-0.3-2-1.1-2.8c-0.7-0.8-1.5-1.2-2.5-1.2H55z"/>
	<path d="M58.2,69c-0.3,0-0.4-0.1-0.5-0.2c-0.1-0.1-0.2-0.3-0.2-0.5c0-0.4,0.1-0.5,0.2-0.6c0.1-0.1,0.3-0.2,0.5-0.2
		c0.3,0,0.4,0.1,0.5,0.2c0.1,0.1,0.2,0.3,0.2,0.5c0,0.4-0.1,0.5-0.2,0.6C58.6,68.9,58.5,69,58.2,69z M57.9,68.3l0.1,0.1
		c0.2,0.2,0.3,0.2,0.4,0l0.1-0.2l-0.1-0.1c-0.2-0.2-0.3-0.2-0.4,0L57.9,68.3L57.9,68.3z"/>
	<rect x="52.5" y="73.7" transform="matrix(0.9488 -0.3159 0.3159 0.9488 -20.7003 20.6621)" class="st38" width="1.8" height="1"/>
	<path class="st38" d="M84.5,55c-1.5,0-2.8,0.5-3.9,1.5c-1,1-1.6,2.1-1.6,3.5s0.5,2.6,1.6,3.6c1.1,1,2.4,1.5,3.9,1.5
		c1.5,0,2.8-0.5,3.8-1.5c1.1-1,1.7-2.2,1.7-3.6s-0.6-2.5-1.7-3.5C87.3,55.5,86,55,84.5,55z M81,59.5c0-0.7,0.3-1.3,0.9-1.8
		c0.6-0.5,1.3-0.7,2.1-0.7s1.5,0.2,2.1,0.7c0.6,0.5,0.9,1.1,0.9,1.8s-0.3,1.3-0.9,1.8C85.5,61.8,84.8,62,84,62s-1.5-0.2-2.1-0.7
		C81.3,60.8,81,60.2,81,59.5z"/>
	<path class="st28" d="M82,57.9c-0.7,0.6-1,1.3-1,2.1s0.3,1.5,1,2.1c0.7,0.6,1.5,0.9,2.5,0.9s1.8-0.3,2.4-0.9
		c0.7-0.6,1.1-1.3,1.1-2.1s-0.4-1.5-1.1-2.1c-0.7-0.6-1.5-0.9-2.4-0.9S82.7,57.3,82,57.9z"/>
	<path d="M84.5,65.5c-1.6,0-3.1-0.5-4.3-1.6c-1.2-1.1-1.7-2.4-1.7-3.9c0-1.5,0.6-2.8,1.7-3.9c1.2-1.1,2.6-1.6,4.3-1.6
		c1.6,0,3,0.5,4.2,1.6c1.2,1.1,1.8,2.4,1.8,3.9c0,1.5-0.6,2.8-1.8,3.9C87.5,65,86.1,65.5,84.5,65.5z M84.5,55.5
		c-1.4,0-2.6,0.4-3.6,1.3c-0.9,0.9-1.4,1.9-1.4,3.1c0,1.2,0.5,2.3,1.4,3.2c1,0.9,2.2,1.3,3.6,1.3c1.4,0,2.5-0.4,3.5-1.3
		c1-0.9,1.5-2,1.5-3.2c0-1.2-0.5-2.3-1.5-3.1C87,56,85.9,55.5,84.5,55.5z"/>
	<path class="st38" d="M41.6,55.5c-1,1-1.6,2.1-1.6,3.5s0.5,2.6,1.6,3.6c1.1,1,2.4,1.5,3.9,1.5c1.5,0,2.8-0.5,3.8-1.5
		c1.1-1,1.7-2.2,1.7-3.6s-0.6-2.5-1.7-3.5c-1.1-1-2.4-1.5-3.8-1.5C44,54,42.7,54.5,41.6,55.5z M42,59c0-0.8,0.4-1.5,1.2-2.1
		C44,56.3,44.9,56,46,56s2,0.3,2.8,0.9c0.8,0.6,1.2,1.3,1.2,2.1s-0.4,1.5-1.2,2.1C48,61.8,47.1,62,46,62s-2-0.3-2.8-0.9
		C42.4,60.6,42,59.9,42,59z"/>
	<path class="st28" d="M43,56.9c-0.7,0.6-1,1.3-1,2.1s0.3,1.5,1,2.1c0.7,0.6,1.5,0.9,2.5,0.9s1.8-0.3,2.4-0.9
		c0.7-0.6,1.1-1.3,1.1-2.1s-0.4-1.5-1.1-2.1c-0.7-0.6-1.5-0.9-2.4-0.9S43.7,56.3,43,56.9z"/>
	<path d="M45.5,64.5c-1.6,0-3.1-0.5-4.3-1.6c-1.2-1.1-1.7-2.4-1.7-3.9c0-1.5,0.6-2.8,1.7-3.9c1.2-1.1,2.6-1.6,4.3-1.6
		c1.6,0,3,0.5,4.2,1.6c1.2,1.1,1.8,2.4,1.8,3.9c0,1.5-0.6,2.8-1.8,3.9C48.5,64,47.1,64.5,45.5,64.5z M45.5,54.5
		c-1.4,0-2.6,0.4-3.6,1.3c-0.9,0.9-1.4,1.9-1.4,3.1c0,1.2,0.5,2.3,1.4,3.2c1,0.9,2.2,1.3,3.6,1.3c1.4,0,2.5-0.4,3.5-1.3
		c1-0.9,1.5-2,1.5-3.2c0-1.2-0.5-2.3-1.5-3.1C48,55,46.9,54.5,45.5,54.5z"/>
	<path class="st25" d="M82,65.1v-8c0-5.5-1.6-10.2-4.8-14.2c-3.2-3.9-7-5.8-11.5-5.8h-3.4c-4.5,0-8.4,1.9-11.5,5.8
		C47.6,46.8,46,51.5,46,57v8c0,5.5,1.6,10.2,4.7,14.1c3.2,3.9,7,5.9,11.5,5.9h3.4c4.5,0,8.3-2,11.5-5.9C80.4,75.3,82,70.6,82,65.1z"
		/>
	<path d="M66.3,85.5h-3.5c-4.8,0-8.9-2-12.3-6.1c-3.3-3.9-5-8.8-5-14.4v-8c0-5.6,1.7-10.5,5-14.5c3.4-4,7.5-6,12.3-6h3.5
		c4.8,0,8.9,2,12.2,6c3.3,4,5,8.9,5,14.5v8c0,5.6-1.7,10.5-5,14.4C75.1,83.5,71,85.5,66.3,85.5z M62.7,37.5c-4.5,0-8.3,1.9-11.5,5.6
		c-3.2,3.8-4.8,8.5-4.8,13.9v8c0,5.4,1.6,10,4.8,13.8c3.2,3.8,7,5.7,11.5,5.7h3.5c4.5,0,8.3-1.9,11.4-5.7c3.2-3.8,4.8-8.4,4.8-13.8
		v-8c0-5.4-1.6-10-4.8-13.9c-3.1-3.7-7-5.6-11.4-5.6H62.7z"/>
	<path class="st37" d="M81.2,53c-0.5,1.9-0.7,4.7-0.6,8.5c-0.2,3.9-1,7.8-2.3,11.6c-1.3,3.8-4,1.7-8.1-6.1l-0.6-0.8L59.2,66
		c-1,0.4-2.5,2.2-4.6,5.6c-2.1,3.4-3.9,3.7-5.4,1.1c-1.5-2.6-2.1-6.2-1.8-10.7l0.2-8l-1.6-0.1C46,56.2,46,58,46,59.1v8
		c0,0.2,0,0.4,0,0.8c0,1.1,0.1,3.1,0.2,5.9c0,0.2,0,0.4,0,0.6c0.5,4.1,2,7.7,4.6,10.8c3.3,3.9,7.2,5.9,11.9,5.9h3.5
		c4.6,0,8.6-2,11.9-5.9c2.6-3.1,4.2-6.6,4.7-10.7c0-0.2,0-0.5,0-0.7c0.1-2.3,0.2-4,0.2-5.2c0-0.7,0-1.2,0-1.5v-8
		c0-1.5-0.1-3.3-0.3-5.4L81.2,53z"/>
	<path d="M66.2,91.5h-3.5c-4.8,0-8.9-2-12.2-6c-2.6-3.1-4.2-6.8-4.7-10.9c0-0.2-0.1-0.4-0.1-0.7c-0.1-2.8-0.2-4.7-0.2-5.8v-8.7
		c0-1.1,0-2.8,0.1-5.1c0-0.3,0.3-0.5,0.5-0.5c0.3,0,0.5,0.2,0.5,0.5c-0.1,2.3-0.1,4-0.1,5.1v8.7c0,1.1,0.1,3,0.2,5.8
		c0,0.2,0,0.4,0,0.5c0.5,4,2,7.5,4.5,10.4c3.1,3.8,7,5.7,11.5,5.7h3.5c4.5,0,8.3-1.9,11.5-5.7c2.6-3,4.1-6.4,4.6-10.3l0-0.6
		c0.1-2.3,0.2-4,0.2-5.1v-9.4c0-1.5-0.1-3.3-0.3-5.3c0-0.3,0.2-0.5,0.5-0.5c0.3,0,0.5,0.2,0.5,0.4c0.2,2.1,0.3,3.9,0.3,5.4v9.4
		c0,1.2-0.1,2.9-0.2,5.1l0,0.7c-0.5,4.2-2.2,7.8-4.9,10.9C75.1,89.5,71,91.5,66.2,91.5z"/>
	<path class="st37" d="M63,80v1h4v-1v-3.8c-1.7,0.8-3,0.7-4-0.2V80z"/>
	<path class="st25" d="M72,71.9c0-1.9-0.6-2.9-1.8-2.9H58.8c-1.2,0-1.8,1-1.8,2.9v4.2c0,1.9,0.6,2.9,1.8,2.9h3.4v-3.7
		c1.1,0.8,2.6,0.9,4.4,0.1V79h3.5c1.2,0,1.8-1,1.8-2.9V71.9z"/>
	<path class="st0" d="M68,67h-7c-0.5,0-1,0.2-1.4,0.6S59,68.5,59,69.1V71c0,0.5,0.2,1,0.6,1.4S60.5,73,61,73h7c0.5,0,1-0.2,1.4-0.6
		S70,71.6,70,71v-1.9c0-0.5-0.2-1-0.6-1.4S68.5,67,68,67z"/>
	<path d="M68,73.5h-7c-0.7,0-1.3-0.3-1.7-0.8c-0.5-0.5-0.7-1.1-0.7-1.8v-1.9c0-0.7,0.2-1.3,0.7-1.8c0.5-0.5,1.1-0.8,1.7-0.8h7
		c0.7,0,1.3,0.3,1.7,0.8c0.5,0.5,0.7,1.1,0.7,1.8V71c0,0.7-0.2,1.3-0.7,1.8C69.3,73.3,68.7,73.5,68,73.5z M61,67.5
		c-0.4,0-0.7,0.2-1,0.5c-0.3,0.3-0.5,0.7-0.5,1.1V71c0,0.4,0.1,0.8,0.5,1.1c0.3,0.3,0.6,0.5,1,0.5h7c0.4,0,0.7-0.2,1-0.5
		c0.3-0.3,0.5-0.7,0.5-1.1v-1.9c0-0.4-0.1-0.8-0.5-1.1c-0.3-0.3-0.6-0.5-1-0.5H61z"/>
	<path class="st37" d="M64.3,69.1c0.9,1.1,3,2.3,6.4,3.5c3.4,1.2,5.4,3,5.9,5.5c0.5-6.2,0.5-9.5-0.1-10.2c-0.8-0.8-1.8-1.3-3.2-1.5
		c-4.9-0.1-7.7-0.2-8.6-0.2c-5-0.2-8.3-0.1-9.9,0.4c-2.1,0.6-3,3.4-2.8,8.2c0.3-0.7,1.4-1.2,3.5-1.5C58.3,72.9,61.2,71.5,64.3,69.1z
		"/>
	<path class="st38" d="M67,67.1c0.7-0.6,1-1.4,1-2.3v0c-3.6-1-6-1-7,0v0c0,0.9,0.3,1.6,1,2.3s1.4,0.9,2.3,0.9h0.3
		C65.6,68,66.4,67.7,67,67.1z"/>
	<path class="st37" d="M80.9,57l1.5-2c0.2-5.2,0.4-8.5,0.5-9.8c0.1-1.3-0.5-3.1-1.7-5.3c-1.2-2.2-2.7-2-4.4,0.7
		c-1.8,2.7-1.2,1.6,1.8-3.3c-0.4-8.6-5.7-11.8-15.8-9.6c-10.2,2.2-15.7,4.6-16.5,7.3c-0.9,2.7-1.3,4.4-1.3,5.2l0.7,14.6l1.7,0.4
		c-0.1-2.5,0.2-5.3,1.1-8.3c0.9-3,3.4-4.6,7.6-4.7c4.1-0.1,8.1-0.3,11.7-0.6c4.9-0.4,8.4,0.8,10.6,3.8C80.5,48.5,81.3,52.3,80.9,57z
		"/>
	<path d="M80.9,57.5L80.9,57.5c-0.3,0-0.5-0.3-0.5-0.5c0.4-4.4-0.4-8.1-2.4-10.9c-2-2.7-5.5-3.9-10.2-3.5c-3.7,0.3-7.7,0.5-11.9,0.6
		c-4,0.1-6.4,1.5-7.2,4.2c-0.9,2.8-1.3,5.5-1.1,7.9c0,0.3-0.2,0.5-0.5,0.5c-0.3,0-0.5-0.2-0.5-0.5c-0.1-2.5,0.3-5.3,1.2-8.2
		c0.9-3.1,3.7-4.8,8.1-4.9c4.2-0.1,8.1-0.3,11.9-0.6c5.1-0.4,8.9,0.9,11.1,3.9c2.2,3,3.1,6.9,2.6,11.6
		C81.4,57.4,81.1,57.5,80.9,57.5z M82.4,55.5L82.4,55.5c-0.3,0-0.5-0.2-0.5-0.5c0.2-5.2,0.4-8.5,0.5-9.8c0.1-1.2-0.5-2.9-1.6-5
		c-0.3-0.6-0.8-1.2-1.3-1.3c-0.4,0-1.2,0.3-2.2,2c-1.2,1.8-1.2,1.9-1.7,1.6c-0.5-0.3-0.5-0.3,2.5-5.3c-0.2-3.7-1.3-6.3-3.4-7.9
		c-2.5-1.9-6.5-2.3-11.8-1.1c-12.4,2.6-15.6,5.2-16.2,7c-1.1,3.3-1.3,4.5-1.3,5l0.7,14.6c0,0.3-0.2,0.5-0.5,0.5
		c-0.3,0-0.5-0.2-0.5-0.5l-0.7-14.7c0-0.9,0.5-2.6,1.4-5.3c0.9-2.9,6.5-5.4,16.9-7.6c5.6-1.2,9.9-0.8,12.6,1.3
		c2.3,1.8,3.6,4.7,3.8,8.8c0,0.1,0,0.2-0.1,0.3c-0.1,0.2-0.2,0.3-0.3,0.5C79,38,79.3,38,79.6,38c0.8,0,1.5,0.6,2.2,1.8
		c1.3,2.3,1.9,4.1,1.8,5.5c-0.1,1.3-0.3,4.6-0.5,9.8C82.9,55.3,82.7,55.5,82.4,55.5z"/>
	<path d="M70.7,58.7c0.2-0.2,0.3-0.4,0.3-0.7s-0.1-0.5-0.3-0.7C70.5,57.1,70.3,57,70,57s-0.5,0.1-0.7,0.3C69.1,57.5,69,57.8,69,58
		s0.1,0.5,0.3,0.7c0.2,0.2,0.4,0.3,0.7,0.3S70.5,58.9,70.7,58.7z M58.7,58.7c0.2-0.2,0.3-0.4,0.3-0.7s-0.1-0.5-0.3-0.7
		C58.5,57.1,58.3,57,58,57s-0.5,0.1-0.7,0.3C57.1,57.5,57,57.8,57,58s0.1,0.5,0.3,0.7c0.2,0.2,0.4,0.3,0.7,0.3S58.5,58.9,58.7,58.7z
		"/>
</g>
</svg>
