<?xml version="1.0" encoding="utf-8"?>
<!-- Generator: Adobe Illustrator 22.0.1, SVG Export Plug-In . SVG Version: 6.00 Build 0)  -->
<!DOCTYPE svg PUBLIC "-//W3C//DTD SVG 1.1//EN" "http://www.w3.org/Graphics/SVG/1.1/DTD/svg11.dtd">
<svg version="1.1" id="Layer_1" xmlns="http://www.w3.org/2000/svg" xmlns:xlink="http://www.w3.org/1999/xlink" x="0px" y="0px"
	 viewBox="0 0 130 270" style="enable-background:new 0 0 130 270;" xml:space="preserve">
<style type="text/css">
	.st0{fill:#FFE478;}
	.st1{fill:#E7B938;}
	.st2{fill:#3B3B3B;}
	.st3{fill:#FFD9B3;}
	.st4{fill:#EAAF75;}
	.st5{fill:#FFBC00;}
	.st6{fill:#B9951C;}
	.st7{fill:#FFCC99;}
	.st8{fill:#CFC6A6;}
	.st9{fill:#FF98B3;}
</style>
<title>Artboard Copy</title>
<desc>Created with Sketch.</desc>
<g>
	<path class="st0" d="M85.7,88.7c-0.4-4.3-2.6-8.1-6.5-11.2c-3.8-3.1-8.1-4.6-13.1-4.6c-5,0-9.3,1.5-13.1,4.6
		c-3.9,3.1-6,6.8-6.4,11.2c-0.1,5-0.3,8.6-0.5,10.7c-0.5,5.4-1.6,10-1.7,13.5c-0.1,1.5,0.2,4.2,0.9,8c-1.6,5.7-1.9,9.5-1,11.5
		c1.4,3-3.2,16.3,3.5,14.5c4.7-1.3,19.2,10.8,40.3,0c2-1.1-1-5.5,1.8-12.5c2.7-7-3.4-13.5-2-22.2C88.7,106.4,88,98.5,85.7,88.7z"/>
	<path d="M85.7,88.7l0.5,0c-0.4-4.5-2.7-8.3-6.7-11.5l-0.3,0.4l0.3-0.4c-3.8-3.1-8.3-4.7-13.4-4.7c-5.1,0-9.6,1.6-13.4,4.7l0,0
		c-3.9,3.2-6.2,7-6.6,11.5l0,0l0,0c-0.1,5-0.3,8.6-0.5,10.7c-0.5,5.4-1.6,9.9-1.7,13.5l0,0c0,0.1,0,0.3,0,0.5c0,1.6,0.3,4.1,0.9,7.6
		l0.5-0.1l-0.5-0.1c-1,3.6-1.5,6.5-1.5,8.7c0,1.3,0.2,2.3,0.6,3.2l0,0l0,0c0.2,0.3,0.3,1,0.2,1.8c0,2.1-0.5,5.4-0.5,8.1
		c0,1.3,0.1,2.5,0.6,3.5c0.2,0.5,0.5,0.9,1,1.2c0.4,0.3,1,0.4,1.6,0.4c0.4,0,0.8-0.1,1.3-0.2l0,0c0.2-0.1,0.4-0.1,0.7-0.1
		c0.8,0,1.9,0.3,3.3,0.7c4.1,1.3,10.4,3.9,18.4,3.9c5.3,0,11.4-1.1,18.1-4.6l0,0l0,0c0.4-0.2,0.7-0.6,0.8-0.9
		c0.1-0.4,0.2-0.8,0.2-1.3c0-1.1-0.2-2.4-0.2-4.1c0-1.8,0.2-3.9,1.3-6.4l0,0l0,0c0.5-1.3,0.7-2.7,0.7-4c0-2.6-0.8-5.1-1.5-7.7
		c-0.7-2.6-1.4-5.3-1.4-8.1c0-0.8,0.1-1.7,0.2-2.5l0,0l0,0c0.2-1.5,0.3-3.2,0.3-5c0-5.1-0.9-11.4-2.5-18.7L85.7,88.7l0.5,0
		L85.7,88.7l-0.5,0.1c1.6,7.3,2.5,13.4,2.5,18.4c0,1.8-0.1,3.4-0.3,4.9l0.5,0.1l-0.5-0.1c-0.1,0.9-0.2,1.8-0.2,2.7
		c0,3.1,0.8,5.8,1.5,8.4c0.7,2.6,1.4,5,1.4,7.4c0,1.2-0.2,2.4-0.7,3.7l0.5,0.2l-0.5-0.2c-1.1,2.6-1.3,4.9-1.3,6.8
		c0,1.8,0.2,3.2,0.2,4.1c0,0.4,0,0.7-0.1,0.9c-0.1,0.2-0.2,0.3-0.4,0.4l0.2,0.4l-0.2-0.4c-6.6,3.3-12.5,4.5-17.6,4.5
		c-5.2,0-9.7-1.1-13.3-2.3c-1.8-0.6-3.4-1.1-4.8-1.6c-1.4-0.4-2.6-0.7-3.6-0.7c-0.3,0-0.6,0-0.9,0.1l0,0c-0.4,0.1-0.7,0.2-1,0.2
		c-0.4,0-0.8-0.1-1-0.3c-0.4-0.3-0.7-0.7-0.8-1.4c-0.2-0.7-0.3-1.5-0.3-2.5c0-2.6,0.5-5.8,0.5-8.1c0-0.9-0.1-1.6-0.3-2.2l0,0
		c-0.3-0.6-0.5-1.6-0.5-2.7c0-2,0.5-4.9,1.5-8.4l0-0.1l0-0.1c-0.6-3.5-0.9-6-0.9-7.5c0-0.2,0-0.3,0-0.4l0,0c0.2-3.5,1.2-8,1.7-13.5
		c0.2-2.2,0.4-5.8,0.5-10.8l-0.5,0l0.5,0c0.4-4.2,2.5-7.8,6.3-10.8l0,0l0,0c3.7-3,7.9-4.5,12.8-4.5c4.9,0,9.1,1.5,12.8,4.5l0,0l0,0
		c3.8,3,5.9,6.6,6.3,10.8l0,0l0,0L85.7,88.7z"/>
	<path class="st1" d="M52.7,113.4l2.5,9c-0.8,1-1.2,2.2-1.2,3.5c0,2,2.2,2,1.8,5s5,8.5,8,9c2,0.3,6.2-0.3,12.5-2l1.5-5
		c1.3-1,1.7-2.7,1-5c-1-3.5-1-5,0-8s2-3.5,2.5-6.5c0.3-2-0.8-4.3-3.5-7L52.7,113.4z"/>
	<path class="st2" d="M55.2,171.3c-3.1,2.9-5,7-5,11.6v7.1h0.1l1,64.8H61l1-64.8h8.4l0.8,65.9h10l0.8-65.9h0.2v-7.1
		c0-4.6-1.9-8.7-5-11.6v-5.4h-22V171.3z"/>
	<path d="M55.2,171.3l-0.3-0.4c-3.2,3-5.2,7.3-5.2,12v7.1c0,0.1,0.1,0.3,0.1,0.4c0.1,0.1,0.2,0.1,0.4,0.1h0.1v-0.5l-0.5,0l1,64.8
		c0,0.3,0.2,0.5,0.5,0.5H61c0.3,0,0.5-0.2,0.5-0.5l1-64.3h7.4l0.8,65.4c0,0.3,0.2,0.5,0.5,0.5h10c0.3,0,0.5-0.2,0.5-0.5l0.8-65.9
		l-0.5,0v0.5h0.2c0.1,0,0.3-0.1,0.4-0.1c0.1-0.1,0.1-0.2,0.1-0.4v-7.1c0-4.7-2-9-5.2-12l-0.3,0.4h0.5v-5.4c0-0.1-0.1-0.3-0.1-0.4
		c-0.1-0.1-0.2-0.1-0.4-0.1h-22c-0.1,0-0.3,0.1-0.4,0.1c-0.1,0.1-0.1,0.2-0.1,0.4v5.4H55.2l-0.3-0.4L55.2,171.3h0.5v-4.9h21v4.9
		c0,0.1,0.1,0.3,0.2,0.4c3,2.8,4.8,6.8,4.8,11.3v7.1h0.5v-0.5H82c-0.3,0-0.5,0.2-0.5,0.5l-0.8,65.4h-9l-0.8-65.4
		c0-0.3-0.2-0.5-0.5-0.5H62c-0.3,0-0.5,0.2-0.5,0.5l-1,64.3h-8.7l-1-64.3c0-0.3-0.2-0.5-0.5-0.5h-0.1v0.5h0.5v-7.1
		c0-4.4,1.9-8.4,4.8-11.3c0.1-0.1,0.2-0.2,0.2-0.4H55.2z"/>
	<polyline points="65.7,189.4 64.7,165.4 63.7,165.5 64.7,189.5 	"/>
	<polyline points="68.1,190 71.3,166 70.3,165.9 67.1,189.9 	"/>
	<polyline points="55.2,171.9 78.2,171.9 78.2,170.9 55.2,170.9 	"/>
	<path d="M59.7,172c0,0.3,0,0.6,0,0.9c0,2.6-0.7,4.5-2.1,5.7c-1.4,1.2-3.5,1.9-6.4,1.9c-0.3,0-0.5,0.2-0.5,0.5
		c0,0.3,0.2,0.5,0.5,0.5c3.1,0,5.5-0.7,7.1-2.2c1.6-1.5,2.4-3.7,2.4-6.5c0-0.3,0-0.6,0-0.9c0-0.3-0.3-0.5-0.5-0.5
		C59.9,171.5,59.7,171.7,59.7,172L59.7,172z"/>
	<path d="M70.7,171.9c0,0.3,0,0.6,0,0.9c0,2.8,0.8,5,2.4,6.5c1.6,1.5,4,2.2,7.1,2.2c0.3,0,0.5-0.2,0.5-0.5c0-0.3-0.2-0.5-0.5-0.5
		c-2.9,0-5-0.7-6.4-1.9c-1.4-1.2-2.1-3.1-2.1-5.7c0-0.3,0-0.6,0-0.8c0-0.3-0.2-0.5-0.5-0.5S70.7,171.6,70.7,171.9L70.7,171.9z"/>
	<path class="st3" d="M53.9,186.2l4.6,9.9c0.3,0.5,0.4,1,0.2,1.4c-0.2,0.5-0.5,0.8-1,1c-0.5,0.2-1,0.3-1.5,0.2c-0.4-0.2-0.8-0.5-1-1
		l-3.1-6.1l-0.4,2.6l4.6,9c0.2,0.4,0.2,0.9,0,1.4c-0.1,0.5-0.4,0.9-0.9,1.2c-0.5,0.2-1,0.2-1.5,0c-0.4-0.2-0.7-0.4-0.9-0.7
		c-0.4,0.1-0.7,0.1-1.1,0c-0.4-0.1-0.7-0.4-0.9-0.7c-0.4,0.1-0.8,0.1-1.2,0c-0.4-0.2-0.7-0.5-0.9-0.9l-5.3-10.4
		c-1-1.8,0.8-8.2,0.8-8.5L53.9,186.2z"/>
	<path d="M53.9,186.2l-0.5,0.2l4.6,9.9l0,0c0.2,0.3,0.2,0.5,0.2,0.8c0,0.1,0,0.2,0,0.3l0.5,0.1l-0.5-0.2c-0.2,0.4-0.4,0.6-0.8,0.8
		l0,0c-0.3,0.1-0.5,0.2-0.8,0.2c-0.1,0-0.2,0-0.4,0l-0.1,0.5l0.2-0.5c-0.3-0.2-0.6-0.4-0.8-0.8l-0.4,0.2l0.4-0.2l-3.1-6.1
		c-0.1-0.2-0.3-0.3-0.5-0.3s-0.4,0.2-0.4,0.4l-0.4,2.6c0,0.1,0,0.2,0,0.3l4.6,9l0,0c0.1,0.2,0.1,0.3,0.1,0.5c0,0.1,0,0.3-0.1,0.5
		l0,0.2c0,0.2-0.1,0.3-0.2,0.4c-0.1,0.1-0.2,0.2-0.4,0.3l0,0c-0.2,0.1-0.3,0.1-0.5,0.1c-0.2,0-0.4,0-0.6-0.1l-0.2,0.5l0.2-0.5
		c-0.3-0.1-0.5-0.3-0.7-0.5c-0.1-0.2-0.3-0.2-0.5-0.2c-0.2,0-0.3,0.1-0.4,0.1c-0.1,0-0.3,0-0.4,0l-0.1,0.5l0.2-0.5
		c-0.3-0.1-0.5-0.3-0.6-0.5c-0.1-0.2-0.3-0.3-0.6-0.2c-0.1,0-0.3,0.1-0.4,0.1c-0.2,0-0.3,0-0.5-0.1l-0.2,0.5l0.2-0.5
		c-0.3-0.1-0.5-0.3-0.7-0.7l-0.4,0.2l0.4-0.2l-5.3-10.4l0,0c-0.1-0.3-0.2-0.8-0.2-1.5c0-1.2,0.3-2.8,0.5-4.1
		c0.1-0.7,0.3-1.3,0.4-1.7c0.1-0.2,0.1-0.4,0.1-0.5c0-0.1,0.1-0.2,0.1-0.3l-0.5-0.1l-0.1,0.5l9.2,1.7L53.9,186.2l-0.5,0.2
		L53.9,186.2l0.1-0.5l-9.2-1.7c-0.1,0-0.3,0-0.4,0.1c-0.1,0.1-0.2,0.2-0.2,0.3l0,0c0,0.1-0.1,0.4-0.2,0.8c-0.3,1.4-0.9,4-0.9,6
		c0,0.8,0.1,1.4,0.4,2l0.4-0.2l-0.4,0.2l5.3,10.4l0,0c0.3,0.5,0.7,0.9,1.2,1.1l0,0c0.3,0.1,0.5,0.1,0.8,0.1c0.2,0,0.4,0,0.6-0.1
		l-0.1-0.5l-0.4,0.3c0.3,0.4,0.7,0.8,1.2,0.9l0,0c0.2,0,0.4,0.1,0.6,0.1c0.2,0,0.5,0,0.7-0.1l-0.1-0.5l-0.4,0.3
		c0.3,0.4,0.7,0.7,1.1,0.9l0,0c0.3,0.1,0.6,0.2,0.9,0.2c0.3,0,0.7-0.1,1-0.2l-0.2-0.4l0.2,0.4c0.3-0.2,0.6-0.4,0.8-0.6
		c0.2-0.3,0.3-0.6,0.4-0.9l-0.5-0.1l0.5,0.2c0.1-0.3,0.2-0.6,0.2-0.9c0-0.3-0.1-0.6-0.2-0.9l0,0l-4.5-8.9l0.1-0.9l2.4,4.7l0,0
		c0.3,0.6,0.7,1,1.3,1.2l0.1,0c0.2,0,0.4,0.1,0.6,0.1c0.4,0,0.8-0.1,1.2-0.3l-0.2-0.4L58,199c0.6-0.3,1-0.7,1.3-1.3l0-0.1
		c0-0.2,0.1-0.4,0.1-0.5c0-0.4-0.1-0.9-0.4-1.3l-0.4,0.3l0.5-0.2l-4.6-9.9c-0.1-0.1-0.2-0.3-0.4-0.3L53.9,186.2z"/>
	<path class="st4" d="M44.2,190.4c-0.3,2-0.5,2.5-0.6,1.5c-0.1,0.4,0,0.8,0.2,1.2l5.2,10.3c0.2,0.4,0.5,0.7,0.9,0.9
		c0.4,0.1,0.7,0.1,1.1,0c-0.1-0.1-0.2-0.2-0.2-0.3c0,0.1,0.1,0.2,0.2,0.3c0.2,0.3,0.5,0.5,0.9,0.7c0.3,0.1,0.7,0.1,1.1,0l-0.2-0.1
		l-4.6-9l-2.4-1.5L44.2,190.4z"/>
	<path class="st3" d="M44.5,186.3l1.1-33.9c0.1-3.1,3.3-6.2,7.6-7.3l-3.4,41.3"/>
	<path d="M45,186.3l1.1-33.9c0-1.4,0.8-2.8,2.1-4.1c1.3-1.2,3.1-2.3,5.1-2.8l-0.1-0.5l-0.5,0l-3.4,41.3c0,0.3,0.2,0.5,0.5,0.5
		s0.5-0.2,0.5-0.5l3.5-42l-0.7,0.2c-2.2,0.6-4.2,1.7-5.6,3.1c-1.4,1.4-2.3,3-2.4,4.7L44,186.2c0,0.3,0.2,0.5,0.5,0.5
		S45,186.6,45,186.3L45,186.3z"/>
	<path class="st3" d="M78.3,183.8L74.4,194c-0.2,0.5-0.3,1-0.1,1.5c0.2,0.5,0.6,0.8,1.1,1c0.5,0.2,1,0.2,1.5,0.1
		c0.4-0.2,0.7-0.6,1-1.1l2.7-6.3l0.5,2.6L77,201c-0.2,0.5-0.2,0.9,0.1,1.4c0.1,0.5,0.4,0.9,0.9,1.1c0.5,0.2,1,0.2,1.5-0.1
		c0.4-0.2,0.7-0.5,0.8-0.8c0.4,0.1,0.7,0,1.1-0.1c0.4-0.2,0.7-0.4,0.8-0.8c0.4,0.1,0.8,0,1.1-0.1c0.4-0.2,0.7-0.5,0.9-1l4.5-10.8
		c0.9-1.9-1.3-8.1-1.4-8.4L78.3,183.8z"/>
	<path d="M78.3,183.8l-0.5-0.2l-3.9,10.2l0.5,0.2l-0.4-0.2c-0.2,0.4-0.3,0.7-0.3,1.1c0,0.2,0,0.5,0.1,0.7l0,0.1
		c0.3,0.6,0.8,1,1.3,1.2l0.2-0.5l-0.2,0.5c0.3,0.1,0.7,0.2,1.1,0.2c0.2,0,0.5,0,0.7-0.1l0.1,0c0.5-0.3,0.9-0.8,1.2-1.3l0,0l2-4.8
		l0.2,0.9l-3.9,9.2l0,0c-0.1,0.3-0.2,0.5-0.2,0.8c0,0.3,0.1,0.7,0.3,1l0.4-0.2l-0.5,0.1c0.1,0.3,0.2,0.6,0.4,0.9
		c0.2,0.3,0.5,0.4,0.8,0.6l0.2-0.5l-0.2,0.5c0.3,0.1,0.6,0.2,0.8,0.2c0.4,0,0.7-0.1,1-0.2l0,0c0.4-0.2,0.8-0.6,1-1l-0.4-0.3
		l-0.1,0.5c0.2,0,0.3,0,0.5,0c0.3,0,0.6,0,0.8-0.1l0,0c0.5-0.2,0.9-0.5,1.1-1l-0.4-0.2l-0.1,0.5c0.2,0,0.3,0,0.5,0
		c0.3,0,0.7-0.1,1-0.2l0,0c0.5-0.3,0.9-0.7,1.1-1.2l0,0l4.5-10.8l-0.5-0.2l0.5,0.2c0.2-0.4,0.2-0.9,0.2-1.4c0-1.4-0.4-3.1-0.8-4.6
		c-0.2-0.7-0.4-1.4-0.6-1.9c-0.1-0.2-0.1-0.5-0.2-0.6l-0.1-0.2l0-0.1l0,0l0,0c0-0.1-0.1-0.2-0.2-0.3c-0.1-0.1-0.3-0.1-0.4-0.1
		l-9.1,2.3c-0.2,0-0.3,0.2-0.3,0.3L78.3,183.8l0.1,0.5l9.1-2.3l-0.1-0.5l-0.5,0.1c0,0.1,0.1,0.2,0.1,0.3c0.2,0.5,0.6,1.7,0.9,3
		c0.3,1.3,0.6,2.7,0.6,3.8c0,0.5-0.1,0.8-0.2,1l0,0l-4.5,10.8l0.5,0.2l-0.5-0.2c-0.2,0.4-0.4,0.6-0.6,0.7l0.2,0.4l-0.2-0.5
		c-0.2,0.1-0.4,0.1-0.6,0.1c-0.1,0-0.2,0-0.3,0c-0.2,0-0.4,0.1-0.5,0.3c-0.1,0.2-0.3,0.4-0.6,0.5l0.2,0.5l-0.1-0.5
		c-0.2,0.1-0.3,0.1-0.5,0.1c-0.1,0-0.2,0-0.3,0c-0.2,0-0.4,0.1-0.5,0.2c-0.2,0.2-0.4,0.4-0.7,0.6l0.2,0.4l-0.2-0.5
		c-0.2,0.1-0.4,0.2-0.6,0.2c-0.2,0-0.3,0-0.5-0.1l0,0c-0.2-0.1-0.3-0.2-0.4-0.3c-0.1-0.1-0.2-0.2-0.2-0.4l-0.1-0.1
		c-0.1-0.2-0.1-0.4-0.1-0.5c0-0.1,0-0.3,0.1-0.4l0,0l3.9-9.3c0-0.1,0-0.2,0-0.3l-0.5-2.6c0-0.2-0.2-0.4-0.4-0.4
		c-0.2,0-0.4,0.1-0.5,0.3l-2.7,6.3l0.5,0.2l-0.5-0.2c-0.2,0.4-0.4,0.7-0.8,0.9l0.2,0.4l-0.1-0.5c-0.2,0-0.3,0.1-0.5,0.1
		c-0.2,0-0.4,0-0.7-0.1l0,0c-0.4-0.2-0.6-0.4-0.8-0.7l-0.4,0.2l0.5-0.2c0-0.1-0.1-0.3-0.1-0.4c0-0.2,0.1-0.4,0.2-0.7l0,0l3.9-10.2
		L78.3,183.8l0.1,0.5L78.3,183.8z"/>
	<path class="st4" d="M88.3,187.3c0.4,2,0.6,2.5,0.7,1.5c0.1,0.4,0,0.8-0.2,1.2l-4.5,10.6c-0.2,0.4-0.5,0.8-0.9,1
		c-0.4,0.2-0.7,0.2-1.1,0.1c0.1-0.1,0.2-0.2,0.2-0.3c0,0.1-0.1,0.2-0.2,0.3c-0.2,0.3-0.4,0.6-0.8,0.7c-0.3,0.1-0.7,0.1-1.1,0.1
		l0.1-0.1l3.9-9.3l2.3-1.7L88.3,187.3z"/>
	<path class="st3" d="M87.7,183.2l-3.4-33.8c-0.3-3.1-3.7-5.9-8.1-6.8l6.3,40.9"/>
	<path d="M88.2,183.2l-3.4-33.8c-0.2-1.7-1.2-3.3-2.7-4.6c-1.5-1.3-3.5-2.2-5.8-2.7l-0.7-0.1l6.4,41.6c0,0.3,0.3,0.5,0.6,0.4
		s0.5-0.3,0.4-0.6l-6.3-40.9l-0.5,0.1l-0.1,0.5c2.1,0.4,4,1.3,5.3,2.4c1.4,1.1,2.2,2.5,2.3,3.9l3.4,33.8c0,0.3,0.3,0.5,0.5,0.4
		C88,183.7,88.2,183.4,88.2,183.2L88.2,183.2z"/>
	<path class="st5" d="M84.7,142.6c0-0.8,0-1.6-0.2-2.5l-0.1-0.5c-1.2-5.4-6.7-9.8-12.2-9.8h-9.2c-5.5,0-11.2,4.3-12.7,9.6l-0.2,0.8
		c0,0.1-0.1,0.3-0.1,0.4l-4.2,9.2c0,0-1.5,5.2-1.5,7.5s3.5,7,3.5,7s-3.8,0,6.5-2c0.5-0.1,0.7-6,1-8.5c0.2-1.7,0.9-3.1,1.6-4
		c0.1,0,0.3,0,0.4,0h18.9c1.4,3.1,0.9,14,2.6,14.5c1.1,0.4,4.6,2.3,7,0c2.5-2.4,2-5,2-5L84.7,142.6z"/>
	<path d="M53.9,162l-0.5-0.2l0,0.1l0.9,0.4l-0.3-0.1l0.2,0.2l0.1-0.1l-0.3-0.1l0.2,0.2l-0.1-0.1l0.1,0.2l0,0l-0.1-0.1l0.1,0.2l0,0
		l0,0l0,0l0,0l0,0l0,0l-0.2-1l-0.2,0l-0.3,0.1l-0.1,0.3L53.9,162l0.1,0.5l0.2,0l-0.2-1c-0.1,0-0.3,0.1-0.4,0.1
		c-0.1,0.1-0.2,0.2-0.2,0.3l0.4,0.2l0.5,0.2l0-0.1L53.9,162l0.1,0.5L53.9,162z M47.6,163.4l-0.2-0.5c-0.1,0-0.2,0.1-0.3,0.1l0,0
		c-0.3,0.1-0.5,0.2-0.7,0.4c-0.1,0.1-0.2,0.2-0.3,0.3c-0.1,0.1-0.1,0.3-0.1,0.5c0,0.1,0,0.3,0.1,0.4c0.1,0.2,0.2,0.5,0.5,0.6
		c0.2,0.1,0.4,0.2,0.7,0.2l0,0c0.2,0,0.3,0,0.5,0l0,0l1,0l1,0l-1.2-1.6l0,0c-0.1-0.1-0.3-0.4-0.5-0.7l-0.2-0.3l-0.4,0.1L47.6,163.4
		l-0.4,0.3c0.2,0.3,0.4,0.6,0.5,0.7l0,0l0.6,0.8l0.4-0.3l0-0.5l-1,0l0,0c-0.1,0-0.2,0-0.3,0l0,0c-0.2,0-0.3-0.1-0.3-0.1l0,0l0,0l0,0
		l0,0l0,0l0,0l0,0l0,0l0,0l0,0l0-0.1l0-0.1h0l0,0l0,0h0l0,0l0,0l0,0l0,0l0,0l0,0c0,0,0.2-0.1,0.5-0.3l0,0l0,0l0.2-0.1L47.6,163.4
		l-0.4,0.3L47.6,163.4z M53.9,162l-0.1-0.5c-3.3,0.6-5.3,1.1-6.4,1.4l0.2,0.5l0.4-0.3l0,0l0,0c-0.4-0.6-0.8-1.2-1.2-1.8
		c-0.3-0.5-0.6-1-0.8-1.5l0,0c-0.5-1.1-0.8-1.9-0.8-2.4c0-0.6,0.1-1.7,0.4-3c0.1-0.5,0.2-0.9,0.3-1.4c0.2-0.7,0.3-1.4,0.5-2l0,0
		c0.1-0.4,0.2-0.7,0.2-0.8l-0.5-0.1l0.5,0.2l4.2-9.2l0,0c0.1-0.2,0.1-0.3,0.1-0.4l0,0l0.2-0.8c0.7-2.4,2.4-4.7,4.5-6.3
		c2.1-1.6,4.8-2.6,7.3-2.6h9.2c2.5,0,5.1,1,7.1,2.6c2,1.6,3.6,3.9,4.2,6.3l0.1,0.5l0,0c0.1,0.7,0.2,1.3,0.2,1.9c0,0.1,0,0.2,0,0.3
		l0,0l0,0.1l0,0l3,16.8l0,0.1l0.5-0.1l-0.5,0.1c0,0.1,0,0.3,0,0.4c0,0.9-0.3,2-1.2,3.1c-0.2,0.2-0.3,0.4-0.5,0.5l0,0
		c-0.5,0.5-1.1,0.7-1.8,0.8c-0.1,0-0.2,0-0.4,0c-0.7,0-1.5-0.2-2.4-0.5l0,0c-0.1,0-0.4-0.2-0.7-0.3c-0.3-0.1-0.6-0.2-0.7-0.3
		l-0.1,0.3l0.2-0.2l-0.1-0.1l-0.1,0.3l0.2-0.2l-0.1,0.1l0.1-0.1l0,0l-0.1,0.1l0.1-0.1l0,0c0-0.1-0.1-0.3-0.2-0.6
		c-0.2-0.9-0.4-2.7-0.7-5.5l0,0c0-0.4,0-0.6-0.1-0.7l0,0c-0.3-4-0.6-5.9-1.2-7.2l-0.1-0.3l-0.1-0.3H57.2c-0.1,0-0.3,0-0.4,0l-0.3,0
		l-0.3,0l-0.3,0.4l0,0c-0.9,1.2-1.6,2.8-1.8,4.5c-0.1,0.7-0.2,1.5-0.3,3.2c0,0.3,0,0.3,0,0.6c-0.1,1.6-0.2,2.5-0.3,3.2
		c-0.1,0.4-0.1,0.8-0.2,1l0.5,0.1l-0.5-0.1l0,0.1L53.9,162l-0.1-0.5L53.9,162l0.5,0.1l0-0.1l0,0l0,0c0.1-0.3,0.1-0.6,0.2-1.1
		c0.1-0.8,0.2-1.6,0.3-3.3c0-0.3,0-0.3,0-0.6c0.1-1.6,0.2-2.5,0.3-3.1c0.2-1.5,0.8-3,1.6-4l0,0l0,0h0l0,0c0.1,0,0.3,0,0.4,0h19.2
		v-0.5l-0.5,0.2l0.1,0.3c0.5,1.1,0.8,2.9,1.1,6.9l0,0c0,0.2,0,0.4,0.1,0.7l0,0c0.2,2.2,0.4,3.8,0.5,4.9c0.1,0.5,0.2,1,0.3,1.3
		c0.1,0.2,0.1,0.3,0.2,0.4c0.1,0.1,0.2,0.3,0.4,0.3c0.1,0,0.4,0.1,0.7,0.2c0.3,0.1,0.6,0.2,0.7,0.3l0,0c1,0.4,1.9,0.6,2.8,0.6
		c0.2,0,0.3,0,0.5,0c0.9-0.1,1.7-0.4,2.4-1.1l0,0c0.2-0.2,0.4-0.4,0.6-0.6c1.1-1.2,1.5-2.6,1.5-3.7c0-0.2,0-0.3,0-0.5l0,0l0-0.1l0,0
		l-3-16.8l0-0.1l-0.5,0l0.5,0c0-0.1,0-0.2,0-0.3c0-0.7-0.1-1.4-0.2-2.1l0,0l-0.1-0.5l0,0c-0.6-2.7-2.3-5.1-4.5-6.9
		c-2.2-1.8-4.9-2.9-7.7-2.9h-9.2c-2.8,0-5.6,1.1-7.9,2.8c-2.3,1.7-4.1,4.1-4.9,6.8l-0.2,0.8l0,0c0,0.1-0.1,0.2-0.1,0.4l0.5,0.1
		l-0.5-0.2l-4.1,9.2l0,0c0,0.2-0.1,0.5-0.2,0.8l0,0c-0.2,0.7-0.4,1.3-0.5,2l0,0c-0.1,0.5-0.2,1-0.3,1.4c-0.3,1.3-0.4,2.4-0.4,3.2
		c0,0.8,0.3,1.7,0.9,2.8l0,0c0.2,0.5,0.5,1,0.9,1.5c0.4,0.6,0.8,1.3,1.2,1.9l0,0l0,0l0.2,0.3l0.4-0.1c1-0.3,3-0.8,6.3-1.4l0.3-0.1
		l0.1-0.3L53.9,162z"/>
	<path class="st5" d="M79.8,144.9c1.3,4.6,0.6,7.6-2.1,9c-0.4,3.8-2.7,5.6,0,13.9c0.1,0.4,1.9,2.1,1,4.6c-3.5,4.2-30.3,2.8-24.9-3.8
		c5.4-6.5,2.4-8.6,2.9-13.5c-2.3-2.5-3.3-5.9-2.9-10.2"/>
	<path d="M79.3,145.1c0.4,1.5,0.6,2.8,0.6,3.9c0,1.1-0.2,2.1-0.6,2.8c-0.4,0.7-1,1.3-1.8,1.7l-0.2,0.1l0,0.3
		c-0.1,1.1-0.4,2.1-0.7,3.2c-0.3,1.1-0.6,2.3-0.6,3.9c0,1.8,0.3,4,1.3,7l0,0c0,0.1,0.1,0.2,0.1,0.3c0.2,0.3,0.4,0.6,0.7,1.1
		c0.2,0.5,0.4,1,0.4,1.7c0,0.4-0.1,0.8-0.2,1.3l0.5,0.2l-0.4-0.3c-0.3,0.3-0.7,0.6-1.4,0.9c-2,0.8-5.6,1.3-9.3,1.3
		c-3.5,0-7.1-0.4-9.8-1.1c-1.4-0.4-2.5-0.8-3.2-1.3c-0.4-0.3-0.6-0.5-0.8-0.8c-0.2-0.3-0.3-0.5-0.3-0.8c0-0.4,0.2-0.8,0.6-1.3
		c1.4-1.7,2.2-3,2.7-4.3c0.5-1.2,0.7-2.3,0.7-3.4c0-1.7-0.4-3.2-0.4-5c0-0.4,0-0.7,0.1-1.1l0-0.2l-0.2-0.2c-1.9-2-2.9-4.7-2.9-8.1
		c0-0.6,0-1.1,0.1-1.8l-1-0.1c-0.1,0.6-0.1,1.2-0.1,1.8c0,3.6,1,6.6,3.1,8.8l0.4-0.3l-0.5-0.1c0,0.4-0.1,0.8-0.1,1.2
		c0,2,0.4,3.5,0.4,5c0,0.9-0.1,1.9-0.6,3c-0.5,1.1-1.3,2.4-2.6,4c-0.5,0.7-0.8,1.3-0.8,2c0,0.5,0.2,0.9,0.4,1.3
		c0.5,0.7,1.2,1.2,2.2,1.7c2.9,1.3,7.8,2,12.4,2c2.5,0,5-0.2,7-0.6c1-0.2,1.9-0.5,2.7-0.8c0.8-0.3,1.4-0.7,1.8-1.2l0.1-0.1l0-0.1
		c0.2-0.6,0.3-1.1,0.3-1.6c0-1-0.3-1.8-0.7-2.3c-0.2-0.3-0.3-0.5-0.5-0.7l-0.1-0.2l0-0.1l0,0l-0.2,0.1l0.2-0.1l0,0l-0.2,0.1l0.2-0.1
		l0,0l0,0c-1-3-1.3-5.1-1.3-6.7c0-1.5,0.2-2.6,0.5-3.6c0.3-1.1,0.6-2.1,0.8-3.4l-0.5-0.1l0.2,0.4c1-0.5,1.7-1.2,2.2-2.1
		c0.5-0.9,0.7-2,0.7-3.3c0-1.2-0.2-2.6-0.6-4.2L79.3,145.1L79.3,145.1z"/>
	<path class="st5" d="M79.8,162l6.7,1.2c1,0.2,1.7,1,1.7,2c0,0.9-0.8,1.7-1.7,1.7h-6.6c-1.5,0-2.7-1.2-2.7-2.7c0-1.2,1-2.2,2.2-2.2
		C79.6,162,79.7,162,79.8,162z"/>
	<path class="st6" d="M79.8,162.5l0.1-0.5c-0.1,0-0.3,0-0.4,0c-1.2,0-2.2,1-2.2,2.2c0,1.5,1.2,2.7,2.7,2.7h6.6
		c0.9,0,1.7-0.8,1.7-1.7c0-1-0.7-1.8-1.7-2l0,0l-6.7-1.2L79.8,162.5l-0.1,0.5l6.7,1.2l0,0c0.5,0.1,0.8,0.5,0.8,1
		c0,0.4-0.3,0.7-0.7,0.7h-6.6c-0.9,0-1.7-0.8-1.7-1.7c0-0.7,0.6-1.2,1.2-1.2l0.2,0L79.8,162.5z"/>
	<path class="st5" d="M78.6,158.9l0.3,0.3l6.4-1.2c1.3-0.2,2.6,0.6,2.8,1.9c0,0.1,0,0.3,0,0.4c0,1.4-1.1,2.5-2.5,2.5
		c-0.1,0-0.3,0-0.4,0l-6.2-1c-1.2-0.2-2-1.2-2-2.3c0-0.5,0.4-0.8,0.9-0.8C78.3,158.7,78.5,158.8,78.6,158.9z"/>
	<path class="st6" d="M78.3,159.3l0.4-0.4c-0.2-0.2-0.4-0.2-0.6-0.2c-0.5,0-0.8,0.4-0.9,0.8c0,1.2,0.8,2.2,2,2.3l6.2,1l0,0
		c0.1,0,0.3,0,0.4,0c1.4,0,2.5-1.1,2.5-2.5c0-0.1,0-0.3,0-0.4l0,0c-0.2-1.2-1.2-2-2.4-2c-0.1,0-0.3,0-0.4,0l-6.4,1.2l-0.3-0.3l0,0
		L78.3,159.3l-0.4,0.4l0.5,0.5l0.2,0.2l6.9-1.3l0.3,0c0.7,0,1.2,0.5,1.4,1.1l0,0l0,0l0,0.2c0,0.8-0.7,1.5-1.5,1.5l-0.2,0l-6.2-1
		c-0.7-0.1-1.2-0.7-1.2-1.3H78v0.2l0.1-0.2H78v0.2v-0.2l-0.1,0.1l0.1,0v-0.2l-0.1,0.1l0,0L78.3,159.3z"/>
	<path class="st5" d="M80.2,156.9H87c0.7,0,1.2,0.5,1.2,1.2c0,0.7-0.5,1.3-1.2,1.4l-6.7,1.3c-1,0.2-1.9-0.4-2.1-1.4
		c0-0.1,0-0.2,0-0.3v-0.2C78.2,157.8,79.1,156.9,80.2,156.9z"/>
	<path class="st6" d="M80.2,157.4v-0.5c-1.1,0-2,0.9-2,2v0.2v0l0,0.3l0,0l0,0c0.2,0.9,0.9,1.4,1.7,1.4c0.1,0,0.2,0,0.3,0l6.7-1.3
		c0.7-0.1,1.2-0.7,1.2-1.4c0-0.7-0.5-1.2-1.2-1.2h-6.8V157.4v0.5H87c0.1,0,0.2,0.1,0.2,0.2c0,0.2-0.2,0.4-0.4,0.4l-6.7,1.3l-0.1,0
		c-0.4,0-0.7-0.3-0.8-0.6l-0.5,0.1l0.5,0l0-0.2l0-0.1c0-0.6,0.4-1,1-1V157.4z"/>
	<path d="M78.5,159.3l-0.5,0.1l0.1,0.5l0.5-0.1L78.5,159.3l-0.5,0.1l0,0c-0.4,0.1-0.8,0.4-0.8,0.9c0,0.9,0.5,1.7,1.2,2.2l0,0
		l0.7,0.5l0.3-0.4l-0.2-0.4l-0.8,0.4l0,0c-0.7,0.4-1.2,1.1-1.2,1.9c0,1.4,1.1,2.5,2.5,2.5h6.9c0.9,0,1.6-0.7,1.6-1.6
		c0-0.8-0.6-1.6-1.4-1.8l-1.1-0.3l-0.1,0.5l0.2,0.4l1-0.6l0,0c0.8-0.5,1.4-1.4,1.4-2.3c0-0.2,0-0.3-0.1-0.5c-0.1-0.5-0.4-1-0.7-1.3
		l-0.5-0.5l-0.4,0.4l0.2,0.4l0.6-0.3l0,0c0.5-0.2,0.8-0.7,0.8-1.3c0-0.6-0.5-1.2-1.2-1.2h-7.1c-1.1,0-2,0.9-2,2v0.1v0l0,0.2l0,0l0,0
		l0,0l0,0L78.5,159.3l0.5-0.1l0,0L78.5,159.3l0.5-0.1l0-0.2v-0.1c0-0.6,0.4-1,1-1H87c0.1,0,0.2,0.1,0.2,0.2c0,0.2-0.1,0.3-0.2,0.4
		l0,0l-0.6,0.3l-0.6,0.3l1,1l0,0c0.2,0.2,0.4,0.5,0.4,0.8c0,0.1,0,0.2,0,0.3c0,0.6-0.3,1.2-0.8,1.5l0,0l-2,1.2l2.2,0.7
		c0.4,0.1,0.6,0.5,0.6,0.9c0,0.3-0.3,0.6-0.6,0.6h-6.9c-0.8,0-1.5-0.7-1.5-1.5c0-0.4,0.3-0.8,0.6-1l0,0l0.8-0.4l0.8-0.4l-1.5-1l0,0
		c-0.5-0.3-0.7-0.8-0.7-1.4h-0.1l0,0.1l0.1-0.1h-0.1l0,0.1l0.5-0.1l0.5-0.1l-0.2-1.1L78.5,159.3l0.5-0.1L78.5,159.3z"/>
	<path class="st5" d="M44.8,161.5l8.6,1.5c1,0.2,1.7,1,1.7,2c0,1-0.8,1.7-1.8,1.7l-8.6-0.2c-1.5,0-2.7-1.3-2.7-2.8
		c0-1.3,1.1-2.3,2.4-2.3C44.5,161.5,44.6,161.5,44.8,161.5z"/>
	<path class="st6" d="M44.7,162l0.1-0.5c-0.1,0-0.2,0-0.4,0l0,0l0,0l0,0c-1.3,0-2.3,1-2.3,2.3l0,0c0,1.5,1.2,2.7,2.7,2.7l8.6,0.2h0
		l0,0c0.9,0,1.7-0.8,1.7-1.7l0,0c0-1-0.7-1.8-1.7-2l-8.6-1.5l0,0L44.7,162l-0.1,0.5l8.6,1.5l0,0c0.5,0.1,0.8,0.5,0.8,1l0,0
		c0,0.4-0.3,0.7-0.7,0.7l0,0h0l-8.6-0.2c-0.9,0-1.7-0.8-1.7-1.7l0,0c0-0.7,0.6-1.3,1.3-1.3l0,0l0,0l0.2,0l0,0L44.7,162z"/>
	<path class="st5" d="M43.8,158.7l0.3,0.3l7.6-1.3c1.6-0.3,3.1,0.8,3.4,2.4c0,0.2,0,0.4,0,0.5c0,1.7-1.4,3-3.1,2.9
		c-0.2,0-0.3,0-0.5,0l-7.1-1.3c-1.4-0.2-2.4-1.5-2.4-2.9c0-0.6,0.5-1,1-1C43.4,158.4,43.6,158.5,43.8,158.7z"/>
	<path class="st6" d="M43.5,159.1l0.4-0.3c-0.2-0.2-0.4-0.3-0.7-0.3l0,0l0,0c-0.6,0-1,0.4-1,1l0,0.1c0,1.4,1,2.6,2.4,2.9l7.1,1.3
		l0,0c0.2,0,0.3,0,0.5,0l0,0l0,0l0.1,0c1.6,0,3-1.3,3-2.9l0,0l0-0.1c0-0.2,0-0.3,0-0.5c-0.2-1.4-1.5-2.4-2.9-2.4c-0.2,0-0.3,0-0.5,0
		l-7.6,1.3l-0.3-0.3l0,0L43.5,159.1l-0.4,0.3l0.5,0.5l0.2,0.2l8.1-1.4c0.1,0,0.2,0,0.3,0c0.9,0,1.7,0.7,1.9,1.6c0,0.1,0,0.2,0,0.3
		l0,0l0,0c0,1.1-0.9,2-2,2l0,0l0,0c-0.1,0-0.2,0-0.3,0l0,0l-7.1-1.3c-0.9-0.2-1.6-0.9-1.6-1.9l0,0l0,0h0l0,0l0,0l0,0L43.5,159.1z"/>
	<path class="st5" d="M45.2,156.6l8.8,0.2c0.7,0,1.2,0.6,1.2,1.2c0,0.7-0.5,1.3-1.2,1.4l-8.7,1.2c-1,0.1-1.9-0.6-2.1-1.6
		c0-0.1,0-0.2,0-0.3l0-0.2C43.2,157.4,44.1,156.5,45.2,156.6z"/>
	<path class="st6" d="M45.2,157.1l0-0.5l0,0c-1.1,0-2,0.9-2,2l0,0l0,0.2l0,0l0,0.2l0,0l0,0c0.1,0.9,0.9,1.6,1.8,1.6l0.3,0l8.7-1.2
		l0,0c0.7-0.1,1.2-0.7,1.2-1.4l0,0c0-0.7-0.5-1.2-1.2-1.2l-8.8-0.2l0,0L45.2,157.1l0,0.5l8.8,0.2c0.1,0,0.2,0.1,0.2,0.2l0,0
		c0,0.2-0.2,0.4-0.3,0.4l-8.7,1.2l0,0l-0.1,0c-0.4,0-0.8-0.3-0.8-0.7l-0.5,0.1l0.5,0l0-0.2l0-0.1l0,0c0-0.5,0.5-1,1-1l0,0l0,0
		L45.2,157.1z"/>
	<path d="M43.5,158.8l-0.5,0.1l0.1,0.5l0.5-0.1L43.5,158.8l-0.5,0.1l0,0c-0.5,0-0.9,0.5-0.9,1l0,0c0,0.9,0.4,1.7,1.2,2.2l0,0
		l0.7,0.5l0.3-0.4l-0.2-0.4l-0.8,0.4c-0.7,0.4-1.2,1.1-1.2,1.9l0,0c0,1.4,1.1,2.5,2.5,2.5l8.9,0.2l0,0c0.9,0,1.6-0.7,1.6-1.6l0,0
		l0,0c0-0.8-0.5-1.5-1.3-1.8l0,0l-1.1-0.3l-0.1,0.5l0.2,0.4l1-0.6l0,0c0.8-0.5,1.4-1.4,1.4-2.3l0,0l0,0c0-0.1,0-0.3,0-0.4l0,0
		c-0.1-0.5-0.3-1-0.7-1.4l0,0l-0.5-0.5l-0.4,0.3l0.2,0.5l0.6-0.3l0,0c0.5-0.2,0.8-0.7,0.8-1.2l0,0l0,0l0,0c0-0.6-0.5-1.2-1.2-1.2
		l0,0l-9-0.2l0,0l0,0c-1.1,0-2,0.9-2,2l0,0.1l0,0l0,0.2l0,0l0,0L43.5,158.8l0.5,0l0-0.2l0-0.1c0-0.5,0.5-1,1-1l0,0l9,0.2l0,0
		c0.1,0,0.2,0.1,0.2,0.2l0,0l0,0c0,0.1-0.1,0.3-0.2,0.3l0,0l-0.6,0.3l-0.6,0.3l0.9,1l0,0c0.2,0.2,0.4,0.6,0.4,0.9l0,0l0,0.3l0,0l0,0
		c0,0.6-0.3,1.2-0.9,1.5l-2,1.2l2.2,0.7l0,0c0.4,0.1,0.6,0.4,0.6,0.8l0,0l0,0c0,0.3-0.3,0.6-0.6,0.6l0,0l-8.9-0.2
		c-0.8,0-1.5-0.7-1.5-1.5l0,0c0-0.5,0.3-0.9,0.7-1.1l0.8-0.4l0.8-0.4l-1.5-1l0,0c-0.4-0.3-0.7-0.8-0.7-1.3l0,0l0,0l0,0l0,0l0,0l0,0
		l0,0l0.5,0l0.5,0l-0.1-1L43.5,158.8l0.5,0L43.5,158.8z"/>
	<path class="st7" d="M67.2,110.9L67.2,110.9c2.8,0,5,2.2,5,5v16.3c0,2.8-2.2,5-5,5c-2.8,0-5-2.2-5-5v-16.3
		C62.2,113.2,64.4,110.9,67.2,110.9z"/>
	<path d="M67.2,111.4v0.5c1.1,0,2.1,0.4,2.8,1.2c0.7,0.7,1.2,1.7,1.2,2.8v16.3c0,1.1-0.4,2.1-1.2,2.8c-0.7,0.7-1.7,1.2-2.8,1.2
		c-1.1,0-2.1-0.4-2.8-1.2c-0.7-0.7-1.2-1.7-1.2-2.8v-16.3c0-1.1,0.4-2.1,1.2-2.8c0.7-0.7,1.7-1.2,2.8-1.2V111.4v-0.5
		c-2.8,0-5,2.2-5,5v16.3c0,2.8,2.2,5,5,5c2.8,0,5-2.2,5-5v-16.3c0-2.8-2.2-5-5-5V111.4z"/>
	<path class="st4" d="M66.6,107l0.6-0.1c2-0.2,3.8,1.2,4.1,3.2c0,0.1,0,0.3,0,0.4v11.9c0,2.2-1.8,4-4,4H67c-2.2,0-4-1.8-4-4V111
		C63,109,64.6,107.3,66.6,107z"/>
	<polyline class="st8" points="67.4,128.2 66.9,128.2 66.9,174.2 67.4,174.2 67.4,128.2 	"/>
	<polyline class="st8" points="69.4,129.2 68.9,129.2 68.9,174.2 69.4,174.2 69.4,129.2 	"/>
	<polyline class="st8" points="71.4,134.2 71,134.2 71,174.2 71.4,174.2 71.4,134.2 	"/>
	<polyline class="st8" points="73.4,130.2 72.9,130.2 72.9,174.2 73.4,174.2 73.4,130.2 	"/>
	<polyline class="st8" points="75.4,130.2 74.9,130.2 74.9,174.2 75.4,174.2 75.4,130.2 	"/>
	<polyline class="st8" points="77,131.2 76.4,173.7 76.9,173.7 77.5,131.2 77,131.2 	"/>
	<polyline class="st8" points="79.5,133.2 78.9,133.2 78.9,157.7 79.5,157.7 79.5,133.2 	"/>
	<polyline class="st8" points="65.4,129.2 64.9,129.2 64.9,174.2 65.4,174.2 65.4,129.2 	"/>
	<polyline class="st8" points="63.4,130.2 62.9,130.2 62.9,175.2 63.4,175.2 63.4,130.2 	"/>
	<polyline class="st8" points="61.4,130.2 60.9,130.2 60.9,174.2 61.4,174.2 61.4,130.2 	"/>
	<polyline class="st8" points="59.4,130.2 58.9,130.2 58.9,174.2 59.4,174.2 59.4,130.2 	"/>
	<polyline class="st8" points="57.4,131.7 56.9,131.7 56.9,173.7 57.4,173.7 57.4,131.7 	"/>
	<polyline class="st8" points="55.4,133.7 54.9,133.7 55.5,153.7 56,153.7 55.4,133.7 	"/>
	<polyline class="st8" points="53.4,135.2 52.9,135.2 52.9,156.7 53.4,156.7 53.4,135.2 	"/>
	<polyline class="st8" points="51.4,137.2 50.9,137.2 50.9,156.7 51.4,156.7 51.4,137.2 	"/>
	<polyline class="st8" points="49.4,142.2 48.9,142.2 48.9,156.7 49.4,156.7 49.4,142.2 	"/>
	<polyline class="st8" points="47.4,146.2 46.9,146.2 46.9,156.7 47.4,156.7 47.4,146.2 	"/>
	<polyline class="st8" points="83.4,139.2 82.9,139.2 82.9,160.7 83.4,160.7 83.4,139.2 	"/>
	<polyline class="st8" points="85.5,150.2 84.9,150.2 84.9,157.7 85.5,157.7 85.5,150.2 	"/>
	<polyline class="st8" points="81.4,135.2 80.9,135.2 80.9,156.7 81.4,156.7 81.4,135.2 	"/>
	<path class="st7" d="M56.5,109.5c1.1-1,1.7-2.2,1.7-3.6s-0.6-2.5-1.7-3.5c-1.1-1-2.4-1.5-3.8-1.5c-1.5,0-2.8,0.5-3.9,1.5
		c-1,1-1.6,2.1-1.6,3.5s0.5,2.6,1.6,3.6c1.1,1,2.4,1.5,3.9,1.5C54.2,110.9,55.5,110.5,56.5,109.5z"/>
	<path d="M52.7,111.4c-1.6,0-3.1-0.5-4.3-1.6c-1.2-1.1-1.7-2.4-1.7-3.9c0-1.5,0.6-2.8,1.7-3.9c1.2-1.1,2.6-1.6,4.3-1.6
		c1.6,0,3,0.5,4.2,1.6c1.2,1.1,1.8,2.4,1.8,3.9c0,1.5-0.6,2.8-1.8,3.9l0,0C55.7,110.9,54.3,111.4,52.7,111.4z M52.7,101.4
		c-1.4,0-2.6,0.4-3.6,1.3c-0.9,0.9-1.4,1.9-1.4,3.1c0,1.2,0.5,2.3,1.4,3.2c1,0.9,2.2,1.3,3.6,1.3c1.4,0,2.5-0.4,3.5-1.3
		c1-0.9,1.5-2,1.5-3.2c0-1.2-0.5-2.3-1.5-3.1C55.2,101.9,54.1,101.4,52.7,101.4z"/>
	<path class="st4" d="M48.2,105.9c0,0.8,0.3,1.5,1,2.1c0.7,0.6,1.5,0.9,2.5,0.9s1.8-0.3,2.4-0.9c0.7-0.6,1.1-1.3,1.1-2.1
		s-0.4-1.5-1.1-2.1c-0.7-0.6-1.5-0.9-2.4-0.9s-1.8,0.3-2.5,0.9C48.5,104.4,48.2,105.1,48.2,105.9z"/>
	<path class="st7" d="M74.2,105.9c0,1.4,0.5,2.6,1.6,3.6c1.1,1,2.4,1.5,3.9,1.5c1.5,0,2.8-0.5,3.8-1.5c1.1-1,1.7-2.2,1.7-3.6
		s-0.6-2.5-1.7-3.5c-1.1-1-2.4-1.5-3.8-1.5c-1.5,0-2.8,0.5-3.9,1.5C74.7,103.4,74.2,104.5,74.2,105.9z"/>
	<path class="st4" d="M76.2,105.9c0,0.8,0.3,1.5,1,2.1c0.7,0.6,1.5,0.9,2.5,0.9s1.8-0.3,2.4-0.9c0.7-0.6,1.1-1.3,1.1-2.1
		s-0.4-1.5-1.1-2.1c-0.7-0.6-1.5-0.9-2.4-0.9s-1.8,0.3-2.5,0.9C76.5,104.4,76.2,105.1,76.2,105.9z"/>
	<path d="M79.7,111.4c-1.6,0-3.1-0.5-4.3-1.6c-1.2-1.1-1.7-2.4-1.7-3.9c0-1.5,0.6-2.8,1.7-3.9c1.2-1.1,2.6-1.6,4.3-1.6
		c1.6,0,3,0.5,4.2,1.6c1.2,1.1,1.8,2.4,1.8,3.9c0,1.5-0.6,2.8-1.8,3.9C82.7,110.9,81.3,111.4,79.7,111.4z M79.7,101.4
		c-1.4,0-2.6,0.4-3.6,1.3c-0.9,0.9-1.4,1.9-1.4,3.1c0,1.2,0.5,2.3,1.4,3.2c1,0.9,2.2,1.3,3.6,1.3c1.4,0,2.5-0.4,3.5-1.3
		c1-0.9,1.5-2,1.5-3.2c0-1.2-0.5-2.3-1.5-3.1C82.2,101.9,81.1,101.4,79.7,101.4z"/>
	<path class="st7" d="M66.2,76.9c-4.2,0-7.7,1.6-10.6,4.7c-2.9,3.2-4.4,7-4.4,11.5v13.6c0,4.5,1.5,8.3,4.4,11.5
		c2.9,3.2,6.5,4.7,10.6,4.7c4.2,0,7.7-1.6,10.6-4.7s4.4-7,4.4-11.5V93.2c0-4.5-1.5-8.3-4.4-11.5S70.4,76.9,66.2,76.9"/>
	<path class="st4" d="M66.2,121.4c-0.3,0-0.5-0.2-0.5-0.5v-0.5c0-0.3,0.2-0.5,0.5-0.5c0.3,0,0.5,0.2,0.5,0.5v0.5
		C66.7,121.2,66.5,121.4,66.2,121.4z"/>
	<path d="M66.2,123.4c-4.1,0-7-1.4-10.3-4.9c-3.5-3.8-5.2-7.7-5.2-11.8V93.2c0-4.6,1.5-8.6,4.5-11.8c3-3.3,6.7-4.9,11-4.9
		c4.3,0,8,1.6,11,4.9c3,3.2,4.5,7.2,4.5,11.8v13.6c0,4.1-1.7,8.1-5.2,11.8C73.4,122,70.3,123.4,66.2,123.4 M66.2,77.4
		c-4,0-7.4,1.5-10.2,4.6c-2.8,3-4.3,6.8-4.3,11.1v13.6c0,3.8,1.7,7.6,5,11.1c3,3.3,5.8,4.6,9.5,4.6c3.8,0,6.6-1.3,9.6-4.6
		c3.2-3.5,4.9-7.3,4.9-11.1V93.2c0-4.3-1.4-8.1-4.3-11.1C73.6,79,70.2,77.4,66.2,77.4"/>
	<path class="st9" d="M65.3,111.2c-0.7,0-1.4,0.1-2,0.4c-0.7,0.3-1.1,0.8-1.1,1.3c0,0.5,0.2,1,0.9,1.5c0.7,0.5,1.5,0.7,2.4,0.8
		c0.2,0,0.4,0,0.5,0c0.7,0,1.4-0.1,2-0.4c0.7-0.3,1.1-0.7,1.2-1.3c0-0.6-0.3-1.1-0.9-1.5c-0.7-0.5-1.5-0.7-2.4-0.8
		C65.6,111.2,65.5,111.2,65.3,111.2"/>
	<path d="M65.8,113.6c-0.4,0-0.8,0-1.1-0.1c-2.1-0.3-3.8-1.2-4.7-2.5c-0.1-0.2-0.1-0.5,0.2-0.7c0.2-0.1,0.5-0.1,0.7,0.2
		c0.7,1.1,2.1,1.8,3.9,2c1.9,0.2,3.8-0.2,4.7-1.1c0.2-0.2,0.5-0.2,0.7,0c0.2,0.2,0.2,0.5,0,0.7C69.3,113.1,67.7,113.6,65.8,113.6z"
		/>
	<path class="st7" d="M63.2,106.4c0,1.4,1.3,2.5,3,2.5c1.7,0,3-1.1,3-2.5"/>
	<path d="M66.2,108.9c-1.4,0-2.5-0.8-2.9-1.8l1-0.3c0.2,0.7,1,1.2,1.9,1.2s1.7-0.5,1.9-1.2l1,0.3C68.7,108.2,67.5,108.9,66.2,108.9z
		"/>
	<path d="M58.5,99.2c-0.2,0.2-0.3,0.5-0.3,0.7s0.1,0.5,0.3,0.7c0.2,0.2,0.4,0.3,0.7,0.3s0.5-0.1,0.7-0.3c0.2-0.2,0.3-0.4,0.3-0.7
		s-0.1-0.5-0.3-0.7c-0.2-0.2-0.4-0.3-0.7-0.3S58.7,99,58.5,99.2z"/>
	<path d="M72.9,100.6c0.2-0.2,0.3-0.4,0.3-0.7s-0.1-0.5-0.3-0.7c-0.2-0.2-0.4-0.3-0.7-0.3s-0.5,0.1-0.7,0.3
		c-0.2,0.2-0.3,0.5-0.3,0.7s0.1,0.5,0.3,0.7c0.2,0.2,0.4,0.3,0.7,0.3S72.7,100.8,72.9,100.6z"/>
	<path class="st0" d="M65.7,73.4c-0.8,0-1.7-0.1-2.5,0c-4.5,0.5-6.5,2-10,4.7c-4.8,3.7-5.5,9.2-5.5,15c0,2.5,0.2,3.7,0.5,3.7h0.7
		h1.7l2.1-0.6c4.5-1.7,6.1-4.5,4.9-8.6c-1.4-4.7,0.2-7,4.8-7c0.7,0,1.5,0,2.4,0.1c6.2,0.8,9.1,1.4,8.6,1.9c0.5,3.7,1.2,6.7,2,9
		c1.2,3.4,2.6,5.3,4.3,5.6c0.7-0.9,2-0.7,3.7,0.6l1.9-3.3v-1.5c0-5.9-2-10.9-5.9-15c-3.3-3.5-7.2-4.2-11.6-4.7
		C66.9,73.3,66.5,73.4,65.7,73.4z"/>
	<path d="M81.2,97.3c-5,0-6.7-4.8-8-14.2c-0.5-0.2-2.3-0.7-8.5-1.5c-0.9-0.1-1.7-0.2-2.4-0.1l-0.1,0c-1.9,0-3.2,0.5-3.9,1.5
		c-0.8,1.1-0.9,2.9-0.2,5.4c1.4,5.1-2.4,7.3-6.7,8.8c-0.3,0.1-0.5,0-0.6-0.3c-0.1-0.3,0-0.5,0.3-0.6c4.6-1.7,7.2-3.5,6-7.6
		c-0.8-2.8-0.7-4.9,0.3-6.3c0.9-1.2,2.5-1.8,4.8-1.9l0.1,0c0.8,0,1.6,0,2.5,0.2c9.1,1.2,9.3,1.7,9.4,2.2c0,0.1,0,0.3,0,0.4
		c1.5,10,3.2,13.2,7,13.2c0.3,0,0.5,0.2,0.5,0.5S81.5,97.3,81.2,97.3z M73.3,82.7L73.3,82.7L73.3,82.7z"/>
	<path d="M50,248.9l-4,10c-3.9,1.9-6.2,3.2-7,4s-1,2.1-0.5,4c1.4,1.1,3.9,1.8,7.5,2c3.6,0.2,7.3-0.6,11-2.5l2-9l1.5,7h2
		c0.9-6.9,1.2-11.1,1-12.5c-0.2-1.4-1.1-2.6-2.5-3.5v-7.5l-11.5,0.5L50,248.9z"/>
	<path d="M50,248.9l-0.5-0.2l-4,10l0.5,0.2l-0.2-0.4c-1.9,1-3.5,1.8-4.7,2.5c-1.2,0.7-2,1.2-2.4,1.6c-0.6,0.6-0.9,1.5-0.9,2.5
		c0,0.6,0.1,1.3,0.3,2l0,0.2l0.1,0.1c1.6,1.3,4.1,1.9,7.8,2.1c0.3,0,0.7,0,1,0c3.4,0,6.8-0.9,10.2-2.6l0.2-0.1l1.6-7l1.1,5.2h2.8
		l0.1-0.4c0.7-5.6,1.1-9.3,1.1-11.4c0-0.5,0-0.9-0.1-1.2l0,0c-0.2-1.6-1.2-2.9-2.7-3.8l-0.3,0.4h0.5v-8L48.9,241l0.5,8L50,248.9
		l-0.5-0.2L50,248.9l0.5,0l-0.5-7l10.5-0.5l0,7.3l0.2,0.1c1.4,0.9,2.1,1.9,2.3,3.2l0,0c0,0.2,0.1,0.6,0.1,1.1c0,2-0.4,5.7-1.1,11.3
		l0.5,0.1v-0.5h-1.6l-1.4-6.6l-1,0l-2,9l0.5,0.1l-0.2-0.4c-3.3,1.7-6.6,2.5-9.8,2.5c-0.3,0-0.7,0-1,0c-3.6-0.2-6-0.9-7.2-1.9
		l-0.3,0.4l0.5-0.1c-0.2-0.7-0.2-1.3-0.2-1.8c0-0.9,0.2-1.4,0.6-1.8c0.3-0.3,1.1-0.8,2.3-1.5c1.2-0.7,2.7-1.5,4.6-2.4l0.2-0.1
		l4.1-10.3l0-0.1L50,248.9z"/>
	<path d="M81.8,248.9l3.4,9.5c3.2,3.6,5.2,5.7,6,6.5c0.8,0.8,0.8,1.9,0,3.5c-2.6,1.7-5.6,2-8.9,1s-6.1-2.7-8.1-5l-1.4-7l-0.6,7.5
		l-2-0.5c-1.2-5.9-1.7-9.6-1.5-11c0.2-1.4,0.9-3.1,2.1-5v-7.5l11.5,0.5L81.8,248.9z"/>
	<path d="M81.8,248.9l-0.5,0.2l3.5,9.6l0.1,0.1c3.2,3.6,5.2,5.7,6,6.5l0,0c0.3,0.3,0.4,0.6,0.4,1.1c0,0.5-0.2,1.1-0.5,1.8l0.4,0.2
		l-0.3-0.4c-1.5,1-3.2,1.5-5,1.5c-1.1,0-2.3-0.2-3.5-0.5c-3.3-1-5.9-2.6-7.8-4.8l-0.4,0.3l0.5-0.1l-1.4-7l-1,0.1l-0.5,6.9l-1.4-0.4
		l-0.1,0.5l0.5-0.1c-1-5-1.5-8.4-1.5-10.1c0-0.3,0-0.5,0-0.7l0,0c0.2-1.3,0.9-2.9,2-4.8l0.1-0.1v-7.1l10.5,0.5l-0.5,7.1l0,0.1
		L81.8,248.9l0.5,0l0.5-8l-12.5-0.5v8h0.5l-0.4-0.3c-1.2,2-1.9,3.7-2.1,5.2l0,0c0,0.3-0.1,0.5-0.1,0.9c0,1.9,0.5,5.3,1.6,10.3
		l0.1,0.3l2.9,0.7L73,261l0.7,3.6l0.1,0.1c2.1,2.4,4.9,4.1,8.3,5.2l0,0c1.3,0.4,2.6,0.6,3.8,0.6c2,0,3.9-0.5,5.6-1.6l0.1-0.1
		l0.1-0.1c0.4-0.8,0.7-1.6,0.7-2.3c0-0.7-0.3-1.3-0.8-1.8l0,0l0,0c-0.8-0.7-2.8-2.9-6-6.5l-0.4,0.3l0.5-0.2l-3.4-9.5L81.8,248.9
		l0.5,0L81.8,248.9z"/>
</g>
</svg>
