<?xml version="1.0" encoding="utf-8"?>
<!-- Generator: Adobe Illustrator 22.0.1, SVG Export Plug-In . SVG Version: 6.00 Build 0)  -->
<!DOCTYPE svg PUBLIC "-//W3C//DTD SVG 1.1//EN" "http://www.w3.org/Graphics/SVG/1.1/DTD/svg11.dtd">
<svg version="1.1" id="Layer_1" xmlns="http://www.w3.org/2000/svg" xmlns:xlink="http://www.w3.org/1999/xlink" x="0px" y="0px"
	 viewBox="0 0 130 270" style="enable-background:new 0 0 130 270;" xml:space="preserve">
<style type="text/css">
	.st0{fill:#F7DAC7;}
	.st1{fill:#E0AC89;}
	.st2{fill:#513600;}
	.st3{fill:#C5A88B;}
	.st4{fill:#181000;}
	.st5{fill:#FFFFFF;}
	.st6{fill:#0D497E;}
	.st7{fill:#033562;}
	.st8{fill:#085FAB;}
	.st9{fill:#E2E9EF;}
</style>
<g>
	<path class="st0" d="M77.1,28.8C76,30,75.4,31.4,75.4,33c0,1.6,0.6,3.1,1.7,4.2c1.2,1.2,2.7,1.7,4.4,1.7c1.6,0,3.1-0.6,4.2-1.7
		c1.2-1.2,1.8-2.6,1.8-4.2c0-1.6-0.6-3-1.8-4.2c-1.2-1.2-2.6-1.7-4.2-1.7C79.8,27.1,78.4,27.7,77.1,28.8z"/>
	<path d="M81.5,39.5c-1.8,0-3.4-0.6-4.7-1.9c-1.2-1.3-1.9-2.8-1.9-4.6c0-1.8,0.6-3.3,1.9-4.5l0,0c1.3-1.2,2.9-1.9,4.7-1.9
		c1.8,0,3.3,0.6,4.6,1.9c1.3,1.2,2,2.8,2,4.5c0,1.8-0.7,3.3-2,4.6C84.8,38.9,83.3,39.5,81.5,39.5z M77.5,29.2
		c-1.1,1.1-1.6,2.3-1.6,3.8c0,1.5,0.5,2.8,1.6,3.9c1.1,1.1,2.4,1.6,4,1.6c1.5,0,2.8-0.5,3.9-1.6c1.1-1.1,1.7-2.4,1.7-3.9
		c0-1.5-0.5-2.8-1.7-3.8c-1.1-1.1-2.4-1.6-3.9-1.6C79.9,27.6,78.6,28.1,77.5,29.2z"/>
	<path class="st1" d="M78.7,30.5c-0.7,0.7-1.1,1.5-1.1,2.5c0,1,0.4,1.8,1.1,2.5c0.8,0.7,1.7,1.1,2.8,1.1s2-0.4,2.7-1.1
		c0.8-0.7,1.2-1.5,1.2-2.5c0-1-0.4-1.8-1.2-2.5c-0.7-0.7-1.6-1.1-2.7-1.1S79.5,29.8,78.7,30.5z"/>
	<path class="st0" d="M44.1,28.8C43,30,42.4,31.4,42.4,33c0,1.6,0.6,3.1,1.7,4.2c1.2,1.2,2.7,1.7,4.4,1.7c1.6,0,3.1-0.6,4.2-1.7
		c1.2-1.2,1.8-2.6,1.8-4.2c0-1.6-0.6-3-1.8-4.2c-1.2-1.2-2.6-1.7-4.2-1.7C46.8,27.1,45.4,27.7,44.1,28.8z"/>
	<path d="M48.5,39.5c-1.8,0-3.4-0.6-4.7-1.9c-1.2-1.3-1.9-2.8-1.9-4.6c0-1.8,0.6-3.3,1.9-4.5l0,0c1.3-1.2,2.9-1.9,4.7-1.9
		c1.8,0,3.3,0.6,4.6,1.9c1.3,1.2,2,2.8,2,4.5c0,1.8-0.7,3.3-2,4.6C51.8,38.9,50.3,39.5,48.5,39.5z M44.5,29.2
		c-1.1,1.1-1.6,2.3-1.6,3.8c0,1.5,0.5,2.8,1.6,3.9c1.1,1.1,2.4,1.6,4,1.6c1.5,0,2.8-0.5,3.9-1.6c1.1-1.1,1.7-2.4,1.7-3.9
		c0-1.5-0.5-2.8-1.7-3.8c-1.1-1.1-2.4-1.6-3.9-1.6C46.9,27.6,45.6,28.1,44.5,29.2z"/>
	<path class="st1" d="M45.7,30.5c-0.7,0.7-1.1,1.5-1.1,2.5c0,1,0.4,1.8,1.1,2.5c0.8,0.7,1.7,1.1,2.8,1.1s2-0.4,2.7-1.1
		c0.8-0.7,1.2-1.5,1.2-2.5c0-1-0.4-1.8-1.2-2.5c-0.7-0.7-1.6-1.1-2.7-1.1S46.5,29.8,45.7,30.5z"/>
	<path class="st0" d="M61.2,61.5c-1.8,0-2.7-1.2-2.8-3.5v10.3c0,2.5,0.9,3.7,2.8,3.7h7.5c1.8,0,2.8-1.2,2.8-3.7V58
		c-0.1,2.3-1,3.5-2.8,3.5H61.2"/>
	<path class="st1" d="M71.4,47.2c0-2.1-0.9-3.2-2.8-3.2h-7.5c-1.8,0-2.8,1.1-2.8,3.2V59c0.1,2,1,3,2.8,3h7.5c1.8,0,2.7-1,2.8-3V47.2
		"/>
	<path d="M68.7,72.5h-7.5c-1.5,0-3.3-0.7-3.3-3.8V47.3c0-3.1,1.8-3.8,3.3-3.8h7.5c1.5,0,3.3,0.7,3.3,3.8v21.4
		C71.9,71.8,70.2,72.5,68.7,72.5 M61.2,44.5c-1.1,0-2.3,0.3-2.3,2.8v21.4c0,2.5,1.2,2.8,2.3,2.8h7.5c1.1,0,2.3-0.3,2.3-2.8V47.3
		c0-2.5-1.2-2.8-2.3-2.8H61.2"/>
	<path class="st2" d="M50,38.5L47.4,27l3-4.5C68.8,22.8,78.6,23,79.9,23c1.3,0,2.2,1.3,2.5,4c-0.3,1.9-0.5,2.9-0.5,3
		c0,0.1-0.5,2.9-1.5,8.5h-1L79.9,24l-29.4,0.5"/>
	<path d="M50,39c-0.2,0-0.4-0.2-0.5-0.4l-2.6-11.7l3.3-4.9l0.3,0c18.2,0.3,28.1,0.5,29.4,0.5c1.6,0,2.6,1.5,3,4.4l0,0.1l0,0.1
		c-0.4,2.6-0.5,2.9-0.5,3c0,0.1,0,0.2-1.5,8.5L80.8,39h-1.9l0.5-14.5L50.5,25c-0.3,0-0.5-0.2-0.5-0.5c0-0.3,0.2-0.5,0.5-0.5
		l29.4-0.5c-1.3,0-11.1-0.2-29.2-0.5L48,27.1l2.5,11.3c0.1,0.3-0.1,0.5-0.4,0.6L50,39z M79.9,38L79.9,38c1.2-6.4,1.5-7.9,1.5-8.1
		c0,0,0-0.2,0.5-2.9c-0.3-1.9-0.8-3-1.5-3.4L79.9,38z"/>
	<path class="st0" d="M65.4,9c8.4,0,15.3,6.8,15.3,15.3l0,0.3l-0.3,19.7c-0.1,8.4-7,15.1-15.4,15.1c-8.3,0-15.1-6.8-15.1-15.1V24.5
		C49.9,16,56.8,9,65.4,9"/>
	<path d="M65,59.3c-8.3,0-15.1-6.8-15.1-15.1V24.5C49.9,16,56.8,9,65.4,9c8.4,0,15.3,6.8,15.3,15.3l0,0.3l-0.3,19.7
		C80.2,52.5,73.3,59.3,65,59.3 M65.4,10c-8,0-14.5,6.5-14.5,14.5v19.7c0,7.8,6.3,14.1,14.1,14.1c7.8,0,14.2-6.3,14.4-14.1l0.3-19.9
		C79.7,16.4,73.3,10,65.4,10"/>
	<path class="st1" d="M79.5,24c0-1.5-2.3-5.5-6.2-5.5H57.6c-3.9,0-6.7,4-6.7,5.5v3.5c1.9-1.5,3.4-4.7,7.2-4.7l14.3-0.3
		c3.8,0,6.1,6,7,6.5V24z"/>
	<path class="st3" d="M72.6,40H57.3c-0.8,0-1.6,0.1-2.4,0.4c-1.9,0.7-3.4,2.2-4.1,4C51,52.1,57.3,58.3,65,58.3
		c7.4,0,13.6-5.7,14.3-13C78.6,42.3,75.8,40,72.6,40"/>
	<path class="st4" d="M50.9,44.4c-0.6,1.5-0.6,3.2,0,4.8c2,5.5,7.3,9.2,13.2,9.2h1.8c5.9,0,11.2-3.7,13.2-9.2
		c0.3-0.8,0.4-1.6,0.4-2.4c0-0.5-0.1-1.1-0.2-1.6c-0.7,7.3-6.9,13-14.3,13C57.3,58.3,51,52.1,50.9,44.4"/>
	<path class="st0" d="M62.5,41h4.9c2.5,0,4.5,2,4.5,4.5c0,0.2,0,0.3,0,0.5l-0.4,3.5c-0.3,2.3-2.2,4-4.5,4h-4c-2.3,0-4.2-1.7-4.5-3.9
		l-0.4-3.5c-0.3-2.5,1.4-4.7,3.9-5C62.2,41,62.4,41,62.5,41z"/>
	<path class="st5" d="M57.1,45.6c-1-2,0-3.6,2.2-3.6h11.1c2.2,0,3.2,1.6,2.2,3.6l-0.9,1.8c-1,2-3.5,3.5-5.8,3.3l-2.5-0.2
		c-2.2-0.1-4.8-1.9-5.8-3.8L57.1,45.6z"/>
	<path d="M66.3,50.8c-0.1,0-0.2,0-0.3,0l-2.5-0.2c-2.2-0.1-4.8-1.9-5.8-3.8l-0.6-1.2c-0.5-1-0.5-1.9-0.1-2.5c0.4-0.7,1.2-1,2.3-1
		h11.1c1.1,0,1.9,0.4,2.3,1.1c0.4,0.7,0.4,1.6-0.1,2.5l-0.9,1.8C70.9,49.3,68.5,50.8,66.3,50.8z M58,45.1l0.6,1.2
		c0.8,1.7,3.1,3.2,5,3.3l2.5,0.2c1.8,0.1,4-1.2,4.8-2.8l0.9-1.8c0.3-0.6,0.4-1.2,0.1-1.6c-0.2-0.4-0.8-0.6-1.5-0.6H59.3
		c-0.7,0-1.2,0.2-1.4,0.6C57.7,43.9,57.7,44.5,58,45.1z"/>
	<path class="st2" d="M52.4,44.9c3.2,0.2,5.9,0.2,8,0c2.1-0.2,3.6-0.9,4.4-2c0.8,1.3,2.7,2,5.8,2.1c2.5,0.1,4.8,0.1,6.8,0
		c-0.6-1.6-1.2-2.9-1.7-3.6c-0.7-1-1.6-1.6-2.8-1.8c-4.3-0.1-6.9-0.2-7.6-0.3c-4.4-0.3-7.4-0.1-8.8,0.5
		C54.5,40.4,53.2,42.2,52.4,44.9z"/>
	<path class="st0" d="M63.9,29c0,6-1,8-2.5,10c0,2.5,5.5,3,5.5,0"/>
	<path d="M64.4,41.6c-1.7,0-3.4-1-3.4-2.6c0-0.1,0-0.2,0.1-0.3c1.4-1.8,2.4-3.7,2.4-9.7h1c0,6.2-1.1,8.2-2.5,10.2
		c0.1,0.9,1.3,1.4,2.4,1.4c0.6,0,1.1-0.1,1.5-0.4c0.4-0.3,0.6-0.7,0.6-1.2h1c0,0.8-0.3,1.5-1,2C65.9,41.4,65.2,41.6,64.4,41.6z"/>
	<path d="M57.7,29.3c-0.2,0.2-0.3,0.5-0.3,0.7s0.1,0.5,0.3,0.7c0.2,0.2,0.4,0.3,0.7,0.3s0.5-0.1,0.7-0.3c0.2-0.2,0.3-0.4,0.3-0.7
		s-0.1-0.5-0.3-0.7c-0.2-0.2-0.4-0.3-0.7-0.3S57.9,29.1,57.7,29.3z"/>
	<path d="M71.1,30.7c0.2-0.2,0.3-0.4,0.3-0.7s-0.1-0.5-0.3-0.7c-0.2-0.2-0.4-0.3-0.7-0.3c-0.3,0-0.5,0.1-0.7,0.3
		c-0.2,0.2-0.3,0.5-0.3,0.7s0.1,0.5,0.3,0.7c0.2,0.2,0.4,0.3,0.7,0.3C70.7,31,70.9,30.9,71.1,30.7z"/>
	<path class="st6" d="M62.1,0h6.1c6.5,0,11.8,5.1,12,11.6l0.3,8.9c-6.7-1.7-11.7-2.5-15-2.5c-3.3,0-8.6,0.8-16,2.5l0.7-9.4
		C50.6,4.9,55.8,0,62.1,0"/>
	<path d="M49.4,20.5l0.7-9.4C50.6,4.9,55.8,0,62.1,0h6.1c6.5,0,11.8,5.1,12,11.6l0.3,8.9l-0.6-0.2C73.4,18.8,68.6,18,65.4,18
		c-3.2,0-8.3,0.8-15.3,2.4L49.4,20.5 M62.1,1c-5.7,0-10.6,4.5-11,10.2l-0.6,8c6.7-1.5,11.8-2.2,14.9-2.2c3.1,0,7.8,0.7,14,2.2
		l-0.3-7.6c-0.2-6-5-10.6-11-10.6H62.1"/>
	<path class="st7" d="M78.4,20.5l-13-4l-14,4l1.5-10.2C53.8,4.4,58.9,0,64.8,0h0.3c5.9,0,11,4.4,11.9,10.3L78.4,20.5 M64.8,1
		c-5.4,0-10.1,4-10.9,9.4l-1.3,8.7l12.8-3.7l11.8,3.6l-1.3-8.7C75.2,5,70.5,1,65.1,1H64.8"/>
	<path class="st8" d="M60.4,13h8.8c6.6,0,12,5.4,12,12c0,0.3,0,0.7,0,1c-7-8.2-25-7.8-32.8,0c0-0.3,0-0.7,0-1
		C48.4,18.4,53.8,13,60.4,13z"/>
	<path d="M48.4,26l0-1.1c0.1-6.5,5.5-11.8,12-11.8h8.8c6.5,0,11.9,5.3,12,11.7l0,1.2l-0.9-0.8c-7.1-6.8-23.1-6.8-31.1,0.1L48.4,26z
		 M60.4,14c-5.6,0-10.3,4.3-10.9,9.8c8.2-6.2,23.1-6.3,30.6-0.2c-0.7-5.4-5.4-9.6-10.9-9.6H60.4z"/>
	<path class="st9" d="M67.4,11h-4.9c0.6,0.6,1.5,1,2.4,1C65.9,12,66.7,11.6,67.4,11 M68.4,9h-6.9c0.1,0.4,0.2,0.7,0.3,1h6.3
		C68.2,9.7,68.3,9.4,68.4,9 M68.1,7h-6.3c-0.1,0.3-0.3,0.6-0.3,1h6.9C68.3,7.6,68.2,7.3,68.1,7 M64.9,5c-1,0-1.8,0.4-2.4,1h4.9
		C66.7,5.4,65.9,5,64.9,5"/>
</g>
</svg>
