<?xml version="1.0" encoding="utf-8"?>
<!-- Generator: Adobe Illustrator 22.0.1, SVG Export Plug-In . SVG Version: 6.00 Build 0)  -->
<!DOCTYPE svg PUBLIC "-//W3C//DTD SVG 1.1//EN" "http://www.w3.org/Graphics/SVG/1.1/DTD/svg11.dtd">
<svg version="1.1" id="Layer_1" xmlns="http://www.w3.org/2000/svg" xmlns:xlink="http://www.w3.org/1999/xlink" x="0px" y="0px"
	 viewBox="0 0 130 270" style="enable-background:new 0 0 130 270;" xml:space="preserve">
<style type="text/css">
	.st0{fill:#6D6666;}
	.st1{fill:#526372;}
	.st2{fill:#303E4B;}
	.st3{fill:#FFD9B3;}
	.st4{fill:#EAAF75;}
	.st5{fill:#55AFCF;}
	.st6{fill:#468FAA;}
	.st7{fill:#D1D1D1;}
	.st8{fill:#FFCC99;}
	.st9{fill:#B1B1B1;}
</style>
<g>
	<path d="M58.2,254c0-0.1,0-0.3,0-0.4c-2-0.1-6.1,0.9-12.2,3.2c-0.4,0.2-0.8,0.3-1.2,0.5c-3,1.3-5.4,2.5-7,3.6
		c-0.7,0.6-1.1,1.2-1.2,1.8c-0.2,1.6,0.1,2.6,0.8,2.9c2.5,1.9,8.8,1.5,18.8-1.2c1.2-0.5,2.1-1.1,2.7-1.7
		C59.9,260.8,59.6,257.9,58.2,254z"/>
	<path class="st0" d="M44.9,257.3c0.2-0.1,0.4-0.2,0.6-0.2c0.2-0.1,0.4-0.1,0.5-0.2c6.5-2.7,10.8-3.9,13-3.7c0,0.1,0,0.3,0,0.5
		c1.6,5,1.9,8.6,0.8,10.9c-0.6,0.9-1.5,1.6-2.9,2.2c-11.1,3.3-18,3.7-20.8,1.3c-0.9-0.4-1.3-1.6-1-3.6c0.1-1,1.1-2.2,2.9-3.4
		C39.2,259.8,41.6,258.6,44.9,257.3c0.4-0.1,0.8-0.3,1.2-0.5c6.1-2.3,10.1-3.3,12.1-3.2c0,0.1,0,0.2,0,0.4c1.4,4,1.7,6.9,0.7,8.8
		c-0.6,0.7-1.4,1.3-2.7,1.7c-10,2.7-16.2,3.1-18.7,1.2c-0.7-0.4-1-1.3-0.8-3c0.1-0.6,0.4-1.2,1.2-1.8
		C39.6,259.8,41.9,258.6,44.9,257.3z"/>
	<path d="M41.9,270c-2.8,0-4.8-0.5-6.1-1.6c-1.1-0.5-1.5-1.9-1.3-4.1c0.2-1.2,1.2-2.4,3.1-3.8c1.3-1.1,3.7-2.4,7-3.7
		c0.2-0.1,0.5-0.2,0.7-0.3c0.1,0,0.3-0.1,0.4-0.2c6.6-2.8,10.9-4,13.3-3.8c0.3,0,0.5,0.2,0.5,0.5v0.4c1.6,5.1,1.9,8.7,0.7,11.2
		c-0.7,1-1.7,1.8-3.2,2.5C50.6,269,45.6,270,41.9,270z M36.2,263.1c-0.4,0.5-0.6,0.9-0.6,1.3c-0.1,1.2-0.1,2.7,0.7,3.1l0.1,0.1
		c2.6,2.3,9.4,1.8,20.3-1.4c1.2-0.5,2.1-1.2,2.7-2c0.5-1,0.6-2.2,0.6-3.7c0,1-0.3,1.8-0.6,2.6l-0.1,0.1c-0.6,0.7-1.6,1.4-2.9,1.9
		c-10.2,2.8-16.5,3.1-19.2,1.1C36.4,265.7,36.1,264.7,36.2,263.1z M45.1,257.7c-2.9,1.3-5.3,2.5-6.9,3.6c-0.6,0.5-0.9,1-1,1.4
		c-0.1,1-0.1,2.2,0.5,2.5l0.1,0.1c2.4,1.8,8.5,1.4,18.3-1.3c1-0.4,1.9-0.9,2.4-1.5c0.9-1.7,0.6-4.5-0.8-8.3v-0.1
		c-2.1,0-5.9,1.1-11.4,3.2l0,0C45.9,257.4,45.5,257.6,45.1,257.7z"/>
	<path d="M71.8,254c0-0.1,0-0.3,0-0.4c2-0.1,6.1,0.9,12.2,3.2c0.4,0.2,0.8,0.3,1.2,0.5c3,1.3,5.4,2.5,7,3.6c0.7,0.6,1.1,1.2,1.2,1.8
		c0.2,1.6-0.1,2.6-0.8,2.9c-2.5,1.9-8.8,1.5-18.8-1.2c-1.2-0.5-2.1-1.1-2.7-1.7C70.1,260.8,70.4,257.9,71.8,254z"/>
	<path class="st0" d="M85.1,257.3c-0.2-0.1-0.4-0.2-0.6-0.2c-0.2-0.1-0.4-0.1-0.5-0.2c-6.5-2.7-10.8-3.9-13-3.7c0,0.1,0,0.3,0,0.5
		c-1.6,5-1.9,8.6-0.8,10.9c0.6,0.9,1.5,1.6,2.9,2.2c11.1,3.3,18,3.7,20.8,1.3c0.9-0.4,1.3-1.6,1-3.6c-0.1-1-1.1-2.2-2.9-3.4
		C90.8,259.8,88.4,258.6,85.1,257.3c-0.4-0.1-0.8-0.3-1.2-0.5c-6.1-2.3-10.1-3.3-12.1-3.2c0,0.1,0,0.2,0,0.4c-1.4,4-1.7,6.9-0.7,8.8
		c0.6,0.7,1.4,1.3,2.7,1.7c10,2.7,16.2,3.1,18.7,1.2c0.7-0.4,1-1.3,0.8-3c0-0.6-0.4-1.2-1.2-1.8C90.4,259.8,88.1,258.6,85.1,257.3z"
		/>
	<path d="M88.1,270c-3.7,0-8.7-1-15.1-2.9c-1.5-0.7-2.6-1.5-3.2-2.5c-1.2-2.5-1-6.1,0.7-11.2V253c0-0.3,0.2-0.5,0.5-0.5
		c2.3-0.2,6.7,1,13.3,3.8c0.2,0.1,0.3,0.1,0.5,0.2c0.2,0,0.4,0.1,0.7,0.3c3.4,1.3,5.7,2.6,7.1,3.7c1.9,1.3,2.9,2.5,3,3.7
		c0.2,2.2-0.2,3.6-1.3,4.1C92.9,269.5,90.9,270,88.1,270z M70,260.5c-0.1,1.5,0.1,2.7,0.6,3.7c0.5,0.7,1.4,1.4,2.7,2
		c10.8,3.2,17.6,3.7,20.3,1.4l0.1-0.1c0.8-0.4,0.9-1.9,0.7-3.1c-0.1-0.4-0.3-0.8-0.6-1.3c0.1,1.6-0.2,2.6-1.1,3
		c-2.7,2-8.9,1.6-19.1-1.1c-1.3-0.5-2.3-1.2-2.9-1.9l-0.1-0.1C70.3,262.3,70.1,261.5,70,260.5z M71.5,262.5c0.5,0.6,1.3,1.1,2.4,1.6
		c9.7,2.6,15.9,3,18.2,1.2l0.1-0.1c0.6-0.3,0.6-1.5,0.5-2.5c0-0.4-0.4-0.9-1-1.5c-1.6-1.1-3.9-2.3-6.8-3.6c-0.4-0.1-0.8-0.3-1.2-0.5
		l0,0c-5.5-2.1-9.3-3.1-11.4-3.1v0.1C70.9,258,70.6,260.8,71.5,262.5z"/>
	<polyline class="st1" points="82,173.5 48,173.5 48,255.5 60,255.5 60,190.3 69,190.3 69,255.5 82,255.5 82,173.5 	"/>
	<path class="st2" d="M79,174l0.5,82h3l0.5-82H79 M56.5,187.6c2,18.4,0.8,68.1,2,68.5c0.2,0.1,1,0.1,2.5,0l-0.5-65.3h9.2V256h4.1
		l-0.9-68.5C66.3,188.2,60.8,188.2,56.5,187.6 M51,174l-3-0.5l0.5,82.5h2.2L51,174"/>
	<path d="M82,256.5H69.2c-0.3,0-0.5-0.2-0.5-0.5v-65.3h-7.6V256c0,0.3-0.2,0.5-0.5,0.5H48c-0.3,0-0.5-0.2-0.5-0.5v-82.5
		c0-0.3,0.2-0.5,0.5-0.5h19.7l0,0h4.8l0,0H82c0.3,0,0.5,0.2,0.5,0.5v10.2l0,0V256C82.5,256.2,82.3,256.5,82,256.5 M69.7,255.5h11.8
		v-71.3l-2.3-0.3c-4.4-1.4-6.7-4.7-7.1-9.9h-3.8l-0.2,15.6h1.2c0.3,0,0.5,0.2,0.5,0.5L69.7,255.5 M57.5,255.5h2.6v-65.3
		c0-0.3,0.2-0.5,0.5-0.5h1.7l-0.2-1.4c-0.1-0.1-0.2-0.2-0.2-0.4L60.3,174H57c-0.5,4.3-1.5,7-3.2,8.3c-1,0.8-2.2,1-3.6,0.8h-1.6v72.4
		H57.5 M63.3,189.6H67l0.1-2.3l0.2-13.3h-6l1.5,13.1c0.1,0.1,0.2,0.2,0.2,0.3L63.3,189.6L63.3,189.6 M73.1,174
		c0.4,4.8,2.5,7.7,6.3,8.9l2.1,0.2V174H73.1 M48.5,182.1h1.7c1.2,0.2,2.1,0,2.9-0.6c1.5-1.1,2.4-3.6,2.8-7.5h-7.4V182.1"/>
	<path class="st3" d="M37.6,184.7c-2.7-11.7-3.7-28-2.9-49c0.1-6.2,6.7-12.4,12.8-14.9c-4.3,31.5-5.7,52.8-4.2,63.9H37.6"/>
	<path d="M37.6,185.2c-0.2,0-0.4-0.2-0.5-0.4c-2.7-11.7-3.7-28.2-3-49.1c0.1-6.3,6.7-12.7,13.1-15.3l0.8-0.3l-0.1,0.9
		c-4.3,31.3-5.7,52.7-4.2,63.7c0,0.3-0.2,0.5-0.4,0.6c-0.3,0-0.5-0.2-0.6-0.4c-1.5-11-0.1-32.2,4.1-63.1c-5.8,2.6-11.6,8.4-11.7,14
		c-0.8,20.9,0.2,37.3,2.9,48.9c0.1,0.3-0.1,0.5-0.4,0.6L37.6,185.2"/>
	<path class="st3" d="M41.8,179.3l4,2.1l1.4,10.8c0.1,0.5,0,1-0.2,1.5c-0.3,0.4-0.8,0.6-1.3,0.7c-0.5,0.1-1,0-1.5-0.3
		c-0.3-0.3-0.6-0.8-0.7-1.3l-1.1-6.8l-1.1,2.4l1.6,10c0.1,0.5-0.1,0.9-0.4,1.3c-0.2,0.5-0.6,0.8-1.2,0.8c-0.5,0.1-1-0.1-1.4-0.4
		c-0.3-0.3-0.5-0.6-0.6-1c-0.4,0-0.7-0.1-1-0.3c-0.3-0.3-0.6-0.6-0.6-0.9c-0.4,0-0.8-0.2-1.1-0.4c-0.3-0.3-0.5-0.7-0.6-1.1
		l-1.8-11.5c-0.4-2,1.5-3.7,2.7-5.8"/>
	<path d="M41,201.1c-0.5,0-1-0.2-1.5-0.6c-0.3-0.3-0.5-0.6-0.7-0.9c-0.3-0.1-0.6-0.2-0.9-0.4c-0.4-0.3-0.6-0.6-0.8-0.9
		c-0.4-0.1-0.7-0.2-1-0.5c-0.4-0.4-0.7-0.9-0.8-1.5l-1.8-11.5c-0.3-1.7,0.7-3.1,1.7-4.4c0.4-0.5,0.8-1.1,1.1-1.6
		c0.1-0.2,0.4-0.3,0.7-0.2c0.2,0.1,0.3,0.4,0.2,0.7c-0.3,0.6-0.8,1.2-1.1,1.7c-0.9,1.3-1.7,2.4-1.5,3.7l1.8,11.5
		c0.1,0.4,0.2,0.6,0.5,0.9c0.2,0.2,0.5,0.3,0.8,0.3c0.2,0,0.4,0.2,0.5,0.4c0.1,0.2,0.2,0.5,0.4,0.6c0.2,0.1,0.5,0.2,0.8,0.2
		c0.2,0,0.4,0.2,0.4,0.4c0.1,0.3,0.2,0.5,0.5,0.7c0.3,0.3,0.7,0.4,1,0.3c0.4-0.1,0.6-0.2,0.8-0.6l0.1-0.1c0.2-0.3,0.3-0.5,0.3-0.9
		l-1.6-10c0-0.1,0-0.2,0-0.3l1.1-2.4c0.1-0.2,0.3-0.3,0.5-0.3s0.4,0.2,0.4,0.4l1.1,6.8c0.1,0.4,0.2,0.7,0.5,1
		c0.3,0.2,0.7,0.2,1.1,0.2c0.4,0,0.7-0.2,1-0.5c0.1-0.3,0.2-0.6,0.1-1l-1.3-10.6l-3.8-2c-0.2-0.1-0.3-0.4-0.2-0.7
		c0.1-0.2,0.4-0.3,0.7-0.2l4,2.1c0.1,0.1,0.2,0.2,0.3,0.4l1.4,10.8c0.1,0.6,0,1.2-0.3,1.8c-0.5,0.6-1,0.8-1.6,0.9
		c-0.6,0.1-1.2,0-1.8-0.3l-0.1-0.1c-0.4-0.4-0.7-0.9-0.8-1.6l-0.8-5.2l-0.4,0.8l1.6,9.8c0.1,0.6-0.1,1.2-0.5,1.7
		c-0.3,0.6-0.8,0.9-1.5,1C41.2,201.1,41.1,201.1,41,201.1z"/>
	<path class="st4" d="M35.2,182.4c-0.9,1.9-1.2,2.3-1,1.3c-0.2,0.3-0.2,0.7-0.1,1.2l1.8,11.4c0.1,0.5,0.3,0.8,0.6,1.1
		c0.3,0.2,0.7,0.4,1.1,0.4c-0.1-0.1-0.1-0.2-0.1-0.4c0,0.1,0,0.3,0.1,0.4c0.1,0.4,0.3,0.7,0.6,0.9c0.3,0.2,0.6,0.3,1,0.3l-0.1-0.2
		l-1.6-10l-1.8-2.2L35.2,182.4z"/>
	<path class="st3" d="M93.2,179.7c2.2-14.5,2.6-29.3,1.2-44.6c-0.1-6.2-5.1-10-11.2-12.4c3.8,28.2,5,48,3.6,59.4L93.2,179.7"/>
	<path d="M86.8,182.6L86.8,182.6c-0.3,0-0.5-0.3-0.5-0.6c1.4-11.3,0.2-31.3-3.6-59.3l-0.1-0.9l0.8,0.3c7.7,3.1,11.4,7.3,11.5,12.9
		c1.5,15.2,1.1,30.3-1.2,44.7c0,0.3-0.3,0.5-0.6,0.4c-0.3,0-0.5-0.3-0.4-0.6c2.2-14.4,2.6-29.3,1.2-44.5c-0.1-5-3.3-8.8-10.1-11.7
		c3.7,27.6,4.9,47.4,3.5,58.7C87.3,182.4,87,182.6,86.8,182.6"/>
	<path class="st3" d="M88.8,178.6l-4,2.1l-1.4,10.8c-0.1,0.5,0,1,0.2,1.4c0.3,0.4,0.8,0.6,1.3,0.7c0.5,0.1,1,0,1.5-0.3
		c0.3-0.3,0.6-0.8,0.7-1.3l1.1-6.8l1.1,2.4l-1.6,10c-0.1,0.5,0.1,0.9,0.4,1.3c0.2,0.5,0.6,0.8,1.2,0.8c0.5,0.1,1-0.1,1.4-0.4
		c0.3-0.3,0.5-0.6,0.6-1c0.4,0,0.7-0.1,1-0.3c0.3-0.3,0.6-0.6,0.6-0.9c0.4,0,0.8-0.2,1.1-0.4c0.3-0.3,0.5-0.7,0.6-1.1l1.8-11.5
		c0.4-2-1.5-3.7-2.7-5.8"/>
	<path d="M89.5,200.4c-0.1,0-0.2,0-0.3,0c-0.7-0.1-1.2-0.5-1.5-1c-0.4-0.5-0.6-1-0.5-1.7l1.5-9.8l-0.4-0.8l-0.8,5.2
		c-0.1,0.7-0.4,1.2-0.8,1.6l-0.1,0.1c-0.6,0.3-1.2,0.4-1.8,0.3c-0.6-0.1-1.2-0.4-1.6-0.8c-0.4-0.6-0.5-1.2-0.3-1.9l1.3-10.8
		c0-0.2,0.1-0.3,0.3-0.4l4-2.1c0.2-0.1,0.5,0,0.7,0.2c0.1,0.2,0,0.5-0.2,0.7l-3.8,2l-1.3,10.6c-0.1,0.5,0,0.8,0.1,1.1
		c0.2,0.2,0.5,0.4,0.9,0.4c0.4,0.1,0.8,0,1.1-0.2c0.2-0.2,0.4-0.6,0.5-1l1.1-6.8c0-0.2,0.2-0.4,0.4-0.4c0.2,0,0.4,0.1,0.5,0.3
		l1.1,2.4c0,0.1,0.1,0.2,0,0.3l-1.6,10c-0.1,0.3,0,0.6,0.3,0.9l0.1,0.1c0.2,0.3,0.4,0.5,0.8,0.6s0.7,0,1.1-0.3
		c0.2-0.2,0.4-0.4,0.5-0.7c0.1-0.2,0.2-0.3,0.4-0.4c0.3,0,0.6-0.1,0.8-0.3c0.2-0.2,0.4-0.4,0.4-0.6c0-0.2,0.2-0.4,0.5-0.4
		s0.6-0.1,0.8-0.3c0.2-0.2,0.4-0.5,0.4-0.8l1.8-11.5c0.2-1.3-0.6-2.4-1.5-3.7c-0.4-0.5-0.8-1.1-1.1-1.7c-0.1-0.2-0.1-0.5,0.2-0.7
		c0.2-0.1,0.5-0.1,0.7,0.2c0.3,0.6,0.7,1.1,1.1,1.6c1,1.4,2,2.8,1.7,4.5l-1.8,11.5c-0.1,0.6-0.4,1.1-0.8,1.4c-0.3,0.2-0.7,0.4-1,0.5
		c-0.1,0.3-0.4,0.6-0.7,0.9c-0.3,0.2-0.6,0.3-1,0.4c-0.2,0.3-0.4,0.6-0.7,0.9C90.5,200.2,90,200.4,89.5,200.4z"/>
	<path class="st4" d="M95.3,181.7c0.9,1.9,1.2,2.3,1,1.3c0.2,0.3,0.2,0.7,0.1,1.2l-1.8,11.4c-0.1,0.5-0.3,0.8-0.6,1.1
		c-0.3,0.2-0.7,0.4-1.1,0.4c0.1-0.1,0.1-0.2,0.1-0.4c0,0.1,0,0.3-0.1,0.4c-0.1,0.4-0.3,0.7-0.6,0.9c-0.3,0.2-0.6,0.3-1,0.3l0.1-0.2
		l1.6-10l1.8-2.2L95.3,181.7z"/>
	<path class="st5" d="M83.8,118.1c-0.4-0.4-1-0.8-1.6-1c-3.5-1.1-9.2-1.7-17.2-1.7s-13.7,0.6-17.2,1.7c-0.6,0.2-1.2,0.5-1.6,1
		c-7.6,2.1-13.2,9.1-13.2,17.3v10h12v30h40v-30h12v-10C97,127.2,91.4,120.3,83.8,118.1"/>
	<path d="M85,175.5H45v-30H33v-10c0-8.1,5.4-15.2,13.2-17.3l0,0c0.4-0.4,1-0.8,1.6-1c3.5-1.1,9.3-1.7,17.2-1.7
		c8,0,13.7,0.6,17.2,1.7c0.6,0.2,1.2,0.5,1.6,1c7.8,2.2,13.2,9.3,13.2,17.3v10H85V175.5 M46,174.5h38v-30h12v-9
		c0-7.6-5.1-14.4-12.4-16.4l-0.3-0.1l-0.2-0.2c-0.3-0.3-0.7-0.6-1.2-0.7c-3.4-1.1-9.1-1.6-16.9-1.6s-13.5,0.5-16.9,1.6
		c-0.5,0.1-0.9,0.4-1.2,0.7l-0.2,0.2l-0.3,0.1c-7.3,2-12.4,8.8-12.4,16.4v9h12L46,174.5"/>
	<path class="st6" d="M47,133c-3.9,0-5.2,3.7-4,11l1.6,0.5H46v0.4l0.2,0.1v29.5H51C49,148.8,47.7,135,47,133"/>
	<polyline points="46,144.5 44.6,144.5 46,144.9 46,144.5 	"/>
	<polyline class="st7" points="85.2,145.5 85,145.5 85,159.7 85.2,145.5 	"/>
	<path class="st6" d="M82.1,130.5c-0.7,2-1.4,16.6-2.1,44h4v-30h1.2V144h5.3C88.8,135,86,130.5,82.1,130.5"/>
	<polyline points="85.2,144.5 84,144.5 84,174.5 84.8,174.5 85,159.7 85,145.5 85.2,145.5 85.2,144.5 	"/>
	<path class="st7" d="M63.3,115.5c-2.1,0-4.1,0.1-5.8,0.2c2-0.1,4.1-0.2,6.5-0.2C63.8,115.5,63.6,115.5,63.3,115.5"/>
	<path class="st6" d="M65,116.5c-4.8,0-8.8,0.2-11.9,0.6c-0.8,1.7,3.1,4.4,9.4,4.4c7,0,14.7-2.9,14.5-4.4
		C73.8,116.7,69.8,116.5,65,116.5 M64.1,115.5c-2.4,0-4.6,0.1-6.5,0.2h-0.1C59.5,115.6,61.7,115.5,64.1,115.5L64.1,115.5"/>
	<path d="M64.1,115.5c-2.4,0-4.6,0.1-6.6,0.2c-1.4,0.1-2.5,0.3-3.1,0.5c-0.7,0.2-1.1,0.5-1.2,0.9c3.1-0.4,7.1-0.6,11.9-0.6
		s8.8,0.2,12,0.6c0-0.1-0.1-0.3-0.3-0.4C75.6,116,69.6,115.5,64.1,115.5"/>
	<path class="st8" d="M69,118.5c2,0,3-0.9,3-2.6v-6.3c-0.1,1.6-1.1,2.4-3,2.4h-8.1c-1.9,0-2.9-0.8-3-2.5v6.4c0,1.7,1,2.6,3,2.6H69z"
		/>
	<path class="st4" d="M69,97.5h-8.1c-2,0-3,1-3,3v11.2c0.1,1.9,1.1,2.8,3,2.8H69c1.9,0,2.9-0.9,3-2.7v-11.3C72,98.5,71,97.5,69,97.5
		z"/>
	<path d="M69,119h-8.1c-2.9,0-3.5-1.7-3.5-3.2V99.2c0-1.5,0.6-3.2,3.5-3.2H69c2.9,0,3.5,1.7,3.5,3.2v16.6
		C72.5,117.3,71.9,119,69,119z M61,97c-1.7,0-2.5,0.7-2.5,2.2v16.6c0,1.5,0.8,2.2,2.5,2.2h8.1c1.7,0,2.5-0.7,2.5-2.2V99.2
		c0-1.5-0.8-2.2-2.5-2.2H61z"/>
	<rect x="52.5" y="100.1" transform="matrix(0.9488 -0.3159 0.3159 0.9488 -29.0453 22.012)" class="st8" width="1.8" height="1"/>
	<path class="st8" d="M84.3,80.5c-1.6,0-2.9,0.6-4,1.7c-1.1,1.2-1.6,2.6-1.6,4.2s0.5,3.1,1.6,4.3c1.1,1.2,2.5,1.7,4,1.7
		s2.8-0.6,3.9-1.7c1.1-1.2,1.7-2.6,1.7-4.3c0-1.6-0.6-3.1-1.7-4.2C87.2,81.1,85.9,80.5,84.3,80.5z"/>
	<path d="M84.3,93c-1.7,0-3.2-0.6-4.4-1.9s-1.7-2.9-1.7-4.6c0-1.8,0.6-3.3,1.7-4.6c1.2-1.3,2.7-1.9,4.4-1.9c1.7,0,3.1,0.6,4.3,1.9
		c1.2,1.3,1.8,2.8,1.8,4.6c0,1.8-0.6,3.3-1.8,4.6C87.4,92.4,86,93,84.3,93z M84.3,81c-1.4,0-2.6,0.5-3.7,1.6c-1,1.1-1.4,2.3-1.4,3.9
		c0,1.5,0.5,2.8,1.5,4c1,1.1,2.2,1.6,3.6,1.6s2.5-0.5,3.5-1.6s1.6-2.4,1.6-3.9s-0.5-2.8-1.6-3.9C86.9,81.5,85.7,81,84.3,81z"/>
	<path class="st4" d="M81.8,84c-0.7,0.7-1,1.6-1,2.5s0.3,1.8,1,2.5s1.6,1.1,2.5,1.1c1,0,1.8-0.4,2.5-1.1s1.1-1.6,1.1-2.5
		s-0.4-1.8-1.1-2.5s-1.5-1.1-2.5-1.1C83.4,82.9,82.5,83.3,81.8,84z"/>
	<path class="st8" d="M40.6,81.3c-1.1,1.2-1.6,2.6-1.6,4.2s0.5,3.1,1.6,4.2c1.1,1.2,2.5,1.7,4,1.7s2.8-0.6,3.9-1.7
		c1.1-1.2,1.7-2.6,1.7-4.2s-0.6-3-1.7-4.2c-1.1-1.2-2.4-1.7-3.9-1.7C43.1,79.6,41.7,80.2,40.6,81.3z"/>
	<path class="st4" d="M42.1,83c-0.7,0.7-1,1.5-1,2.5s0.3,1.8,1,2.5s1.6,1.1,2.5,1.1c1,0,1.8-0.4,2.5-1.1c0.7-0.7,1.1-1.5,1.1-2.5
		s-0.4-1.8-1.1-2.5c-0.7-0.7-1.5-1.1-2.5-1.1C43.6,82,42.8,82.3,42.1,83z"/>
	<path d="M44.6,92c-1.7,0-3.2-0.6-4.4-1.9c-1.2-1.3-1.7-2.8-1.7-4.6c0-1.8,0.6-3.3,1.7-4.5c1.2-1.3,2.7-1.9,4.4-1.9
		c1.7,0,3.1,0.6,4.3,1.9c1.2,1.2,1.8,2.8,1.8,4.5c0,1.8-0.6,3.3-1.8,4.6C47.7,91.4,46.3,92,44.6,92z M44.6,80.1
		c-1.4,0-2.6,0.5-3.7,1.6c-1,1.1-1.4,2.3-1.4,3.8s0.5,2.8,1.5,3.9c1,1,2.2,1.6,3.6,1.6c1.4,0,2.5-0.5,3.5-1.6s1.6-2.4,1.6-3.9
		s-0.5-2.8-1.5-3.8C47.1,80.6,46,80.1,44.6,80.1z"/>
	<path class="st9" d="M47.7,88.5h-3.1l-0.5-11.7L42,70.9l4.1-0.5L41,64.5l7.7-0.5c-3.6-2.1-5.2-3.5-4.6-4.3c0.5-0.7,3.1-0.7,7.7,0
		l7.7-8.5v5.3l14.9-8l-4.1,8l5.1-3.2l2.1,5.3l6.7-3.2l-2.6,5.3l11.3,0.5L85.7,66l5.1,4.8h-5.1v5.3v11.2L47.7,88.5z"/>
	<path d="M47.7,89h-3.1l-0.5-0.5l-0.5-11.7l-2-5.8l0.4-0.7l3.2-0.4l-4.5-5.2l0.3-0.8l6.1-0.4c-2.9-1.8-3.5-2.7-3.6-3.3
		c-0.1-0.3,0-0.6,0.2-0.9c0.5-0.7,1.8-1.2,7.9-0.2l7.5-8.3l0.9,0.3v4.5L74.2,48l0.7,0.7l-3.3,6.4l3.6-2.2l0.7,0.2l1.9,4.8l6.2-3
		l0.7,0.7l-2.2,4.7l10.6,0.5l0.3,0.9l-6.7,4.4l4.7,4.4l-0.3,0.9h-4.6v16L86,87.9L47.7,89z M45.1,88h2.6l37.6-1.1v-16l0.5-0.5h3.9
		l-4.2-3.9l0.1-0.8l5.9-4l-9.8-0.5l-0.4-0.7l2-4.1L77.9,59l-0.7-0.3l-2-4.7l-4.6,2.9l-0.7-0.7l3.4-6.6l-13.5,7.2l-0.7-0.4v-4
		L52.2,60l-0.4,0.2c-6.3-1-7.1-0.3-7.2-0.2c0.1,0.4,0.6,1.3,4.5,3.5l-0.2,0.9l-6.7,0.5l4.3,5.1l-0.3,0.8l-3.5,0.5l1.9,5.4L45.1,88z"
		/>
	<path class="st8" d="M78.2,71.2c0.2,0.2,0.5,0.5,0.7,0.7c3.4,3.6,5.1,7.9,5.1,13v7.4c0,5-1.7,9.3-5.1,12.9
		c-3.3,3.6-7.4,5.4-12.1,5.4h-3.6c-4.7,0-8.8-1.8-12.2-5.4c-3.3-3.5-5-7.8-5-12.9v-7.4c0-3.9,1-7.4,3-10.4l1.5,3.1l6.5-7.3l-1.5,7.2
		l10-6.1L63,77.5l13-7.3L78.2,71.2z"/>
	<path d="M66.8,111h-3.6c-4.9,0-9.1-1.9-12.6-5.5c-3.4-3.6-5.1-8.1-5.1-13.2v-7.4c0-4,1-7.6,3.1-10.7c0.1-0.2,0.3-0.2,0.5-0.2
		s0.3,0.1,0.4,0.3l1.1,2.4l6-6.7c0.2-0.2,0.4-0.2,0.6-0.1c0.2,0.1,0.3,0.3,0.3,0.6l-1.3,6.1l9-5.5c0.2-0.1,0.4-0.1,0.6,0
		s0.2,0.4,0.1,0.6L64,76.4l11.7-6.5c0.1-0.1,0.3-0.1,0.4,0l2.2,0.9l0.2,0.1c0.2,0.2,0.5,0.5,0.7,0.7c3.5,3.7,5.2,8.1,5.2,13.3v7.4
		c0,5.2-1.8,9.6-5.2,13.2C75.9,109.1,71.7,111,66.8,111z M49,75.5c-1.6,2.8-2.5,5.9-2.5,9.4v7.4c0,4.9,1.6,9.1,4.9,12.5
		c3.3,3.5,7.2,5.2,11.8,5.2h3.6c4.6,0,8.5-1.8,11.8-5.2c3.3-3.4,4.9-7.7,4.9-12.5v-7.4c0-4.9-1.7-9.1-4.9-12.6
		c-0.2-0.2-0.4-0.4-0.6-0.6l-1.9-0.8L63.3,78c-0.2,0.1-0.4,0.1-0.6-0.1c-0.2-0.2-0.2-0.4-0.2-0.6l1.9-4.6L55.7,78
		c-0.2,0.1-0.4,0.1-0.6,0c-0.2-0.1-0.2-0.3-0.2-0.5l1.1-5.4L50.7,78c0.1,0-0.1,0-0.3,0s-0.3-0.1-0.4-0.3L49,75.5z"/>
	<path d="M65,99c-4.3,0-7.5-1.5-7.5-3.5c0-0.3,0.2-0.5,0.5-0.5s0.5,0.2,0.5,0.5c0,1.2,2.7,2.5,6.5,2.5c3.8,0,6.5-1.3,6.5-2.5
		c0-0.3,0.2-0.5,0.5-0.5c0.3,0,0.5,0.2,0.5,0.5C72.5,97.5,69.3,99,65,99z"/>
	<path class="st4" d="M67.5,106.5H63c-0.6,0-1-0.4-1-1s0.4-1,1-1h4.5c0.6,0,1,0.4,1,1S68.1,106.5,67.5,106.5z"/>
	<path class="st8" d="M62,90.5L62,90.5c0,0.9,0.3,1.6,1,2.1s1.4,0.9,2.3,0.9h0.3c0.9,0,1.7-0.3,2.3-0.9c0.7-0.6,1-1.3,1-2.1l0,0"/>
	<path d="M65.7,94h-0.3c-1,0-1.9-0.3-2.7-1s-1.1-1.5-1.1-2.5h1l0,0c0,0.7,0.3,1.2,0.8,1.7c0.6,0.5,1.2,0.7,2,0.7h0.3
		c0.8,0,1.5-0.2,2-0.7s0.8-1,0.8-1.7h1c0,1-0.4,1.8-1.1,2.5C67.6,93.7,66.7,94,65.7,94z"/>
	<path d="M58.7,85.2c0.2-0.2,0.3-0.4,0.3-0.7s-0.1-0.5-0.3-0.7s-0.4-0.3-0.7-0.3s-0.5,0.1-0.7,0.3C57.1,84,57,84.2,57,84.5
		s0.1,0.5,0.3,0.7s0.4,0.3,0.7,0.3S58.5,85.4,58.7,85.2z"/>
	<path d="M71.7,85.2c0.2-0.2,0.3-0.4,0.3-0.7s-0.1-0.5-0.3-0.7c-0.2-0.2-0.4-0.3-0.7-0.3c-0.3,0-0.5,0.1-0.7,0.3
		C70.1,84,70,84.2,70,84.5s0.1,0.5,0.3,0.7c0.2,0.2,0.4,0.3,0.7,0.3C71.3,85.5,71.5,85.4,71.7,85.2z"/>
</g>
</svg>
