<?xml version="1.0" encoding="utf-8"?>
<!-- Generator: Adobe Illustrator 22.0.1, SVG Export Plug-In . SVG Version: 6.00 Build 0)  -->
<!DOCTYPE svg PUBLIC "-//W3C//DTD SVG 1.1//EN" "http://www.w3.org/Graphics/SVG/1.1/DTD/svg11.dtd">
<svg version="1.1" id="Layer_1" xmlns="http://www.w3.org/2000/svg" xmlns:xlink="http://www.w3.org/1999/xlink" x="0px" y="0px"
	 viewBox="0 0 130 270" style="enable-background:new 0 0 130 270;" xml:space="preserve">
<style type="text/css">
	.st0{fill:#222222;}
	.st1{fill:#FFD9B3;}
	.st2{fill:#E2A981;}
	.st3{fill:#FFA67E;}
	.st4{fill:#FFFFFF;}
	.st5{fill:#E5BB9D;}
</style>
<g>
	<path class="st0" d="M72,42.2c0,4.3-3.3,7.8-7.3,7.8s-7.3-3.5-7.3-7.8C57.3,37.9,72,37.9,72,42.2z"/>
	<path d="M64.7,50.5c-4.3,0-7.8-3.7-7.8-8.3c0-2.6,3.9-3.7,7.8-3.7c3.9,0,7.8,1.2,7.8,3.7C72.5,46.8,69,50.5,64.7,50.5z M64.7,39.5
		c-3.3,0-6.8,1-6.8,2.7c0,4,3.1,7.3,6.8,7.3s6.8-3.3,6.8-7.3c0-1-1.1-1.6-2-2C68.3,39.8,66.5,39.5,64.7,39.5z"/>
	<path class="st0" d="M49.3,78h32l1.8-9.5C84.6,60.8,79.6,53,72,51.2c0,0-7.6-1.7-6.9-1.7s-7.4,1.8-7.4,1.8
		c-7.7,1.8-12.4,9.4-10.6,17.1L49.3,78z"/>
	<path d="M81.3,78.5h-32c-0.2,0-0.4-0.2-0.5-0.4l-2.2-9.6c-0.9-3.8-0.2-7.8,1.8-11.1c2.1-3.3,5.3-5.7,9.2-6.5
		c2.4-0.5,6.2-1.4,7.1-1.7c0.2-0.2,0.6-0.1,0.8,0c0.9,0.3,3.9,1,6.6,1.6c7.9,1.9,13.1,9.9,11.6,17.8l-1.8,9.5
		C81.8,78.3,81.6,78.5,81.3,78.5z M49.7,77.5h31.2l1.7-9.1c1.4-7.4-3.4-14.9-10.8-16.7c-4.2-1-6-1.4-6.8-1.7
		c-0.8,0.3-2.7,0.7-7.3,1.7c-3.6,0.8-6.6,3-8.5,6.1c-1.9,3.1-2.5,6.8-1.7,10.4L49.7,77.5z"/>
	<path class="st1" d="M65,83.2c3.7,0,6.7,3,6.7,6.7v12.8c0,3.7-3,6.7-6.7,6.7c-3.7,0-6.7-3-6.7-6.7V89.9
		C58.3,86.2,61.3,83.2,65,83.2"/>
	<path d="M65,109.4c-3.7,0-6.7-3-6.7-6.7V89.9c0-3.7,3-6.7,6.7-6.7c3.7,0,6.7,3,6.7,6.7v12.8C71.7,106.4,68.7,109.4,65,109.4z
		 M65,84.2c-3.2,0-5.7,2.6-5.7,5.7v12.8c0,3.2,2.6,5.7,5.7,5.7s5.7-2.6,5.7-5.7V89.9C70.7,86.7,68.2,84.2,65,84.2z"/>
	<path class="st2" d="M63.5,73.8h3.1c2.2,0,4,1.8,4,4v18.3c0,2.2-1.8,4-4,4h-3.1c-2.2,0-4-1.8-4-4V77.8
		C59.5,75.6,61.3,73.8,63.5,73.8"/>
	<circle class="st2" cx="82.3" cy="76.6" r="2.8"/>
	<path class="st1" d="M49.3,72.3c-3.3,0-6,2.1-6,4.6s2.7,4.6,6,4.6"/>
	<path d="M49.3,82c-3.6,0-6.5-2.3-6.5-5.1s2.9-5.1,6.5-5.1v1c-3,0-5.5,1.9-5.5,4.1s2.5,4.1,5.5,4.1V82z"/>
	<path class="st1" d="M80.7,72.3c3.3,0,6,2.1,6,4.6s-2.7,4.6-6,4.6"/>
	<path d="M80.7,82v-1c3,0,5.5-1.9,5.5-4.1s-2.5-4.1-5.5-4.1v-1c3.6,0,6.5,2.3,6.5,5.1S84.3,82,80.7,82z"/>
	<circle class="st2" cx="82.3" cy="76.6" r="2.8"/>
	<circle class="st2" cx="48" cy="76.6" r="2.8"/>
	<path class="st1" d="M58.5,61.5c-5.4,2.5-9.2,7.9-9.2,14.3v5.5C49.3,90,56.3,97,65,97c8.7,0,15.7-7,15.7-15.7v-5.5
		c0-6.8-4.4-12.6-10.4-14.8c-1.7,0.3-3.3,1.2-5,2.5c-2-1.7-4-2.3-6-2C58.9,61.6,58.6,61.6,58.5,61.5"/>
	<path d="M65,97.5c-8.9,0-16.2-7.3-16.2-16.2v-5.5c0-6.3,3.7-12.1,9.5-14.8l0.3-0.1l0.2,0.2c0.1,0,0.2,0,0.4,0
		c2-0.3,4.1,0.3,6.1,1.9c1.6-1.2,3.2-2,4.8-2.3l0.1,0l0.1,0c6.4,2.3,10.8,8.4,10.8,15.3v5.5C81.2,90.2,73.9,97.5,65,97.5z M58.5,62
		c-5.3,2.5-8.7,7.9-8.7,13.8v5.5c0,8.4,6.8,15.2,15.2,15.2s15.2-6.8,15.2-15.2v-5.5c0-6.4-4-12.1-10-14.3c-1.5,0.3-3.1,1.1-4.6,2.4
		l-0.3,0.3L65,63.9c-1.9-1.6-3.8-2.2-5.6-1.9C59.1,62.1,58.8,62.1,58.5,62z"/>
	<path class="st3" d="M69.3,89.7c0,0-4.5,0-8.3,0c0,1.8,2.1,2.8,4.2,2.8C67.2,92.5,69.3,91.6,69.3,89.7"/>
	<path class="st4" d="M60.9,87.9c0,3.6,8.3,3.7,8.3,0C69.3,87.9,64.8,87.9,60.9,87.9z"/>
	<path d="M65.1,91.1c-1.2,0-2.3-0.3-3.1-0.8c-1-0.6-1.6-1.5-1.6-2.5v-0.5h9.3v0.5C69.8,90.1,67.4,91.1,65.1,91.1z M61.5,88.4
		c0.6,1.9,4.5,2.2,6.2,1.1c0.5-0.3,0.8-0.7,1-1.1H61.5z"/>
	<circle cx="57.2" cy="76.3" r="1"/>
	<circle cx="72.9" cy="76.3" r="1"/>
	<path class="st5" d="M67.4,84c0,0-2.2,2-4.5,0"/>
	<path d="M65.1,85.4c-0.8,0-1.7-0.3-2.5-1c-0.2-0.2-0.2-0.5,0-0.7c0.2-0.2,0.5-0.2,0.7,0c1.9,1.7,3.7,0.1,3.8,0
		c0.2-0.2,0.5-0.2,0.7,0c0.2,0.2,0.2,0.5,0,0.7C67.2,84.9,66.3,85.4,65.1,85.4z"/>
</g>
</svg>
