<?xml version="1.0" encoding="utf-8"?>
<!-- Generator: Adobe Illustrator 22.0.1, SVG Export Plug-In . SVG Version: 6.00 Build 0)  -->
<!DOCTYPE svg PUBLIC "-//W3C//DTD SVG 1.1//EN" "http://www.w3.org/Graphics/SVG/1.1/DTD/svg11.dtd">
<svg version="1.1" id="Layer_1" xmlns="http://www.w3.org/2000/svg" xmlns:xlink="http://www.w3.org/1999/xlink" x="0px" y="0px"
	 viewBox="0 0 130 270" style="enable-background:new 0 0 130 270;" xml:space="preserve">
<style type="text/css">
	.st0{fill:#ECE4CE;stroke:#000000;stroke-linecap:round;}
	.st1{fill:#E9D5C2;stroke:#000000;stroke-linecap:round;}
	.st2{fill:#925A0F;}
	.st3{fill:#2DB4E5;}
	.st4{fill:none;stroke:#FFFFFF;stroke-linecap:round;}
	.st5{fill:none;stroke:#F7F7F7;stroke-width:2;stroke-linecap:square;stroke-linejoin:round;}
	.st6{fill:none;stroke:#D30000;stroke-linecap:square;stroke-linejoin:round;}
	.st7{fill:#C5B68B;}
	.st8{fill:#9D8A52;}
	.st9{fill:none;stroke:#000000;stroke-linecap:round;stroke-linejoin:round;}
	.st10{fill:#FFCC99;stroke:#000000;stroke-linecap:round;stroke-linejoin:round;}
	.st11{fill:#EAAF75;}
	.st12{fill:#FFCC99;stroke:#000000;stroke-linecap:round;}
	.st13{fill:#FFB3B3;}
	.st14{fill:#F2A6A6;}
	.st15{fill:#402929;}
	.st16{fill:#BB5757;}
	.st17{fill:#F1A5A5;}
	.st18{fill:#FFCC99;}
	.st19{fill:#EDB37A;}
	.st20{fill:#454545;}
	.st21{fill:#D4C6B8;}
	.st22{fill:#D4A16E;}
	.st23{fill:#1C0E00;}
	.st24{fill:#513600;}
</style>
<title>sasha</title>
<desc>Created with Sketch.</desc>
<g id="Page-1">
	<g id="Artboard-Copy" transform="translate(-908.000000, -197.000000)">
		<g id="sasha" transform="translate(901.000000, 198.000000)">
			<g id="shoe" transform="translate(18.000000, 178.000000)">
				<path id="Rectangle-50" class="st0" d="M46.9,86.8c3.2-1.6,4.8-5.7,3.6-9.1l-0.4-1.1c-1.3-3.4-4.7-4.4-7.6-2.3l-12.9,9.3
					c-2.9,2.1-2.7,5.2,0.5,6.8L29,89.8c3.2,1.6,8.5,1.6,11.7,0L46.9,86.8z"/>
				<path id="Rectangle-50_1_" class="st1" d="M46.5,84.4c3.1-1.5,4.6-5.4,3.4-8.7l-0.4-1c-1.2-3.2-4.5-4.2-7.3-2.2l-13.4,9.6
					c-2.8,2-2.6,4.8,0.6,6.3L28.5,88c3.1,1.5,8.2,1.4,11.3-0.1L46.5,84.4z"/>
				<path id="Path-19" class="st2" d="M29.9,81.7c-0.8,1-1,1.9-0.5,2.5c0.7,0.9,1.8,1.3,3.5,1.5s2,0,4-0.5s2.2-0.2,3.5-1.5
					c0.9-0.9,1.2-1.9,1-3c2.7,1.4,3.7,2.7,3,3.9c-1.1,1.8-4.8,3-7.5,3.6s-4.6,0.3-6.5,0c-1.3-0.2-2.3-0.7-3-1.5
					c-0.4-0.8-0.4-1.6,0-2.5C27.8,83.4,28.7,82.5,29.9,81.7z"/>
				<path id="Path-20" class="st3" d="M43.9,85.7c-0.1-1.8-1-3.3-2.8-4.5s-4.2-2.1-7.2-2.5l5-3.5h7c3,1.1,4.4,2.6,4,4.5
					S47.5,83.6,43.9,85.7z"/>
				<polyline id="Path-10" class="st4" points="40.8,74.2 37.9,80.7 33.4,78.7 45.4,76.2 				"/>
				<g id="Path-21">
					<g>
						<polyline id="path-1" class="st5" points="45.7,83.2 42.9,80.2 48.4,81.2 45.9,77.2 						"/>
					</g>
					<g>
						<polyline id="path-1_1_" class="st6" points="45.7,83.2 42.9,80.2 48.4,81.2 45.9,77.2 						"/>
					</g>
				</g>
			</g>
			
				<g id="shoe-copy" transform="translate(62.000000, 188.000000) scale(-1, 1) translate(-62.000000, -188.000000) translate(50.000000, 178.000000)">
				<path id="Rectangle-50_2_" class="st0" d="M-6.9,86.8c3.2-1.6,4.8-5.7,3.6-9.1l-0.4-1.1c-1.3-3.4-4.7-4.4-7.6-2.3l-12.9,9.3
					c-2.9,2.1-2.7,5.2,0.5,6.8l-1.1-0.6c3.2,1.6,8.5,1.6,11.7,0L-6.9,86.8z"/>
				<path id="Rectangle-50_3_" class="st1" d="M-7.3,84.4c3.1-1.5,4.6-5.4,3.4-8.7l-0.4-1c-1.2-3.2-4.5-4.2-7.3-2.2L-25,82.1
					c-2.8,2-2.6,4.8,0.6,6.3l-0.9-0.4c3.1,1.5,8.2,1.4,11.3-0.1L-7.3,84.4z"/>
				<path id="Path-19_1_" class="st2" d="M-23.9,81.7c-0.8,1-1,1.9-0.5,2.5c0.7,0.9,1.8,1.3,3.5,1.5s2,0,4-0.5s2.2-0.2,3.5-1.5
					c0.9-0.9,1.2-1.9,1-3c2.7,1.4,3.7,2.7,3,3.9c-1.1,1.8-4.8,3-7.5,3.6s-4.6,0.3-6.5,0c-1.3-0.2-2.3-0.7-3-1.5
					c-0.4-0.8-0.4-1.6,0-2.5C-26,83.4-25.1,82.5-23.9,81.7z"/>
				<path id="Path-20_1_" class="st3" d="M-9.9,85.7c-0.1-1.8-1-3.3-2.8-4.5s-4.2-2.1-7.2-2.5l5-3.5h7c3,1.1,4.4,2.6,4,4.5
					S-6.3,83.6-9.9,85.7z"/>
				<polyline id="Path-10_1_" class="st4" points="-13,74.2 -15.9,81.2 -19.9,79.2 -8.4,76.2 				"/>
				
					<g id="Path-21_1_" transform="translate(18.750000, 9.000000) scale(1, -1) rotate(71.000000) translate(-18.750000, -9.000000) ">
					<g>
						<polyline id="path-2" class="st5" points="-57.3,14.3 -60.1,11.3 -54.6,12.3 -57.1,8.3 						"/>
					</g>
					<g>
						<polyline id="path-2_1_" class="st6" points="-57.3,14.3 -60.1,11.3 -54.6,12.3 -57.1,8.3 						"/>
					</g>
				</g>
			</g>
			<g id="pants" transform="translate(29.000000, 108.000000)">
				<polygon id="pant" class="st7" points="60.9,71.2 27,71.2 27,144.2 39,144.2 39,86.2 48,86.2 48,144.2 60.9,144.2 				"/>
				<path id="shadow" class="st8" d="M58,71.7l0.5,73.1h3L62,71.7C62,71.7,58,71.7,58,71.7z M35.5,83.8C35,124.6,35.2,145,36,145.3
					c0.2,0,1.5-0.1,4-0.4l-0.5-58.2h9.2v58.1h4.1l-0.9-61L35.5,83.8L35.5,83.8z M30,71.7l-3-0.5l0.5,73.6h2.2L30,71.7z"/>
				<path id="pant-lines" class="st9" d="M39.7,71.2h-4.2c-0.6,6-2.7,8.7-6.3,8.1h-2 M36.5,144.7h-7.2 M41.4,84l-1.7-12.7h11.6h6.9
					H61v8.8v64.6h-2.8h-7.7h-2.3V86.1h-1.8h-4.7h-2.2v58.7h-3 M35.5,71.2h-8.6v8.4v65.2h2.2 M51.5,71.2c0.3,4.7,2.5,7.7,6.7,8.8
					l2.7,0.3 M46.7,71.2l-0.2,12.3v2.1 M41.5,83.7l0.3,1.9"/>
			</g>
			
				<g id="arm1" transform="translate(70.777984, 103.375896) scale(-1, 1) rotate(-15.000000) translate(-70.777984, -103.375896) translate(58.777984, 71.875896)">
				
					<g id="Group" transform="translate(8.047326, 50.407529) rotate(-4.000000) translate(-8.047326, -50.407529) translate(1.547326, 38.407529)">
					<path id="Layer0_17_MEMBER_3_MEMBER_0_MEMBER_1_1_STROKES" class="st10" d="M-36.8,63.5l1.2,10.9c0.1,0.5,0,1-0.2,1.4
						c-0.3,0.4-0.8,0.6-1.3,0.7s-1,0-1.5-0.3c-0.3-0.3-0.6-0.8-0.6-1.3l-0.9-6.8l-1.2,2.4l1.4,10c0.1,0.5-0.1,0.9-0.4,1.3
						c-0.2,0.5-0.6,0.7-1.2,0.8c-0.5,0.1-1-0.1-1.4-0.4c-0.3-0.3-0.5-0.6-0.6-1c-0.4,0-0.7-0.1-1-0.3c-0.3-0.3-0.5-0.6-0.6-0.9
						c-0.4,0-0.8-0.2-1.1-0.4c-0.3-0.3-0.5-0.7-0.6-1.2l-1.6-11.6c-0.4-2,3.4-7.5,3.6-7.8L-36.8,63.5z"/>
					<path id="Shape" class="st11" d="M-47.4,64.3c-0.9,1.8-1.3,2.3-1,1.2c-0.2,0.3-0.2,0.7-0.2,1.2l1.6,11.4
						c0.1,0.5,0.3,0.8,0.6,1.1c0.3,0.2,0.7,0.4,1.1,0.4c-0.1-0.1-0.1-0.2-0.1-0.4c0,0.1,0,0.3,0.1,0.4c0.1,0.4,0.3,0.7,0.6,0.9
						c0.3,0.2,0.6,0.3,1,0.3c-0.1-0.1-0.1-0.1-0.1-0.2l-1.4-10l-1.8-2.2L-47.4,64.3z"/>
				</g>
				<path id="Rectangle-49" class="st12" d="M-40.8,102.4l-0.4-18c0.9-3,5.1-22.2,9.6-22.2l10.7,6.4c-6.2,8.5-10,14.6-11.3,18.2
					c-1.3,3.6-2.5,9.3-3.6,17"/>
			</g>
			
				<g id="arm1_1_" transform="translate(19.743910, 103.532492) rotate(-15.000000) translate(-19.743910, -103.532492) translate(7.743910, 72.032492)">
				
					<g id="Group_1_" transform="translate(8.047326, 50.407529) rotate(-4.000000) translate(-8.047326, -50.407529) translate(1.547326, 38.407529)">
					<path id="Layer0_17_MEMBER_3_MEMBER_0_MEMBER_1_1_STROKES_1_" class="st10" d="M14.1,81l1.2,10.9c0.1,0.5,0,1-0.2,1.4
						c-0.3,0.4-0.8,0.6-1.3,0.7s-1,0-1.5-0.3c-0.3-0.3-0.6-0.8-0.6-1.3l-0.9-6.8L9.6,88L11,98c0.1,0.5-0.1,0.9-0.4,1.3
						c-0.2,0.5-0.6,0.7-1.2,0.8c-0.5,0.1-1-0.1-1.4-0.4c-0.3-0.3-0.5-0.6-0.6-1c-0.4,0-0.7-0.1-1-0.3c-0.3-0.3-0.5-0.6-0.6-0.9
						c-0.4,0-0.8-0.2-1.1-0.4c-0.3-0.3-0.5-0.7-0.6-1.2L2.5,84.3c-0.4-2,3.4-7.5,3.6-7.8L14.1,81z"/>
					<path id="Shape_1_" class="st11" d="M3.5,81.8c-0.9,1.8-1.3,2.3-1,1.2c-0.2,0.3-0.2,0.7-0.2,1.2l1.6,11.4
						c0.1,0.5,0.3,0.8,0.6,1.1c0.3,0.2,0.7,0.4,1.1,0.4c-0.1-0.1-0.1-0.2-0.1-0.4c0,0.1,0,0.3,0.1,0.4c0.1,0.4,0.3,0.7,0.6,0.9
						c0.3,0.2,0.6,0.3,1,0.3c-0.1-0.1-0.1-0.1-0.1-0.2l-1.4-10l-1.8-2.2L3.5,81.8z"/>
				</g>
				<path id="Rectangle-49_1_" class="st12" d="M11.3,116.4l-0.4-18c0.9-3,5.1-22.2,9.6-22.2l10.7,6.4c-6.2,8.5-10,14.6-11.3,18.2
					c-1.3,3.6-2.5,9.3-3.6,17"/>
			</g>
			<g>
				<path class="st13" d="M51,153.7l2.5,8.9c0.2,0.8,0.5,1.5,0.9,2.2v14.5h36.5v-14.5c0.4-0.7,0.7-1.4,0.9-2.1l1.8-6.7l0.3,2.4
					l15.5-7.5l-1.5-9c-1.4-8.1-8.1-14.2-16.2-14.9c-3.8-3.3-8.7-5.2-14-5.2h-13c-4.9,0-9.4,1.9-12.8,5.1
					c-5.9,1.5-10.8,5.7-13.3,11.4l-4.2,9.9l16.5,7L51,153.7"/>
				<path d="M89.9,180.4v-1.2H55.5v1.2l-2.2-2.2h1.2v-13.5c-0.4-0.7-0.7-1.4-0.9-2.2l-2.1-7.4l-1.6,1l0.1-1.3l-14.6-6.2l0,0
					l-0.5,1.1l-1.2-2.9l1.1,0.5l3.9-9.2c2.4-5.6,7.3-9.9,13.3-11.4l0,0c3.5-3.3,8-5.1,12.8-5.1h13c5.1,0,10.1,1.8,14,5.2
					c8.2,0.7,14.8,6.8,16.2,14.9l1.3,7.9l1.1-0.5l-1.7,3.2l-0.2-1.2l-13.6,6.6l0.2,1.3l-2-1.1l-1.2,4.6c-0.2,0.7-0.5,1.5-0.9,2.1
					v13.5h1.2L89.9,180.4 M55.5,178.2H90v-13.8l0.1-0.2c0.3-0.6,0.6-1.2,0.8-1.9l2.5-9.3l1,0.1l0.4,3.6l13.6-6.6l-1.4-8.2
					c-1.3-7.6-7.6-13.4-15.3-14h-0.3l-0.2-0.2c-3.7-3.2-8.4-4.9-13.3-4.9h-13c-4.5,0-8.8,1.7-12.1,4.8l-0.2,0.2l-0.3,0.1
					c-5.6,1.4-10.3,5.5-12.6,10.8l-3.9,9.2l14.3,6.1l0.3-2.9l1-0.1l3.2,11.6c0.2,0.7,0.5,1.3,0.8,1.9l0.1,0.2L55.5,178.2
					 M93.6,155.8l-0.4,1.6l0.6-0.3L93.6,155.8 M51,154.2l0.2,0.1l-0.2-0.6V154.2"/>
				<path class="st14" d="M48,138.7l-4.8,12.1l6.5,2.7l0.6-0.7l0.2-2l1-0.1l0.1,0.4l0,0l3.9,13l0,0l0.1,0.2V178h5l0,0
					c-1.3-4.3-1.8-9.2-1.5-14.5l2-10c-2.3-1.7-4.8-3.3-7.5-5s-4-4.5-4-8.5L48,138.7"/>
				<path class="st15" d="M55.4,164.2l0.1,0.5v13.5c0.6,0.2,1.3,0.2,2.1,0.2s1.8-0.1,2.9-0.2h-5v-13.7L55.4,164.2
					C55.4,164.3,55.4,164.3,55.4,164.2 M43.2,150.8l-0.2,0.4l6.5,2.5l0.1-0.2L43.2,150.8 M51.4,150.8l-1,0.1l-0.2,2l1.3-1.6
					L51.4,150.8"/>
				<path class="st14" d="M97.9,143.7h-3c0.7,3.7,0,6.2-2,7.5s-4.8,2.3-8.5,3l2,10c0.3,5-0.2,9.7-1.5,14l0,0h5l0,0v-13v-0.1v-0.7
					l0.1-0.2c0.1-0.2,0.2-0.4,0.3-0.5l2.3-8.1l0.7-2.5l0,0l0.5-1.8l0.3,1.9h0.1l0.2,2l0.3,1.6l5.5-2.7L97.9,143.7"/>
				<path class="st15" d="M89.9,178.2h-5c1.1,0.2,2.1,0.2,2.9,0.2S89.3,178.4,89.9,178.2 M90.3,163.7c-0.1,0.2-0.2,0.4-0.3,0.5
					l-0.1,0.2v0.7L90.3,163.7 M100.3,154l-5.5,2.7l0.1,0.6l5.5-3L100.3,154 M94.3,153.1l0.3,2l-0.2-2H94.3 M93.3,153l-0.7,2.5
					L93.3,153L93.3,153"/>
				<rect x="62.3" y="138.9" transform="matrix(0.5 -0.866 0.866 0.5 -91.9821 125.6288)" width="1" height="7.1"/>
				<rect x="65.4" y="145.9" transform="matrix(0.5 -0.866 0.866 0.5 -93.4729 130.6464)" width="2" height="0.7"/>
				<path d="M57.7,159c0.1,0.2,0.3,0.4,0.5,0.5s0.4,0.1,0.7,0.1c0.1,0,0.3,0,0.4-0.1s0.3-0.1,0.4-0.2s0.2-0.2,0.3-0.3
					c0.1-0.1,0.1-0.3,0.1-0.4c0-0.2-0.1-0.4-0.2-0.5s-0.3-0.2-0.5-0.3s-0.4-0.2-0.7-0.2c-0.2-0.1-0.5-0.2-0.7-0.3s-0.4-0.3-0.5-0.5
					s-0.2-0.5-0.2-0.9c0-0.2,0-0.3,0.1-0.5s0.2-0.4,0.3-0.5c0.2-0.2,0.4-0.3,0.6-0.4c0.2-0.1,0.5-0.2,0.9-0.2c0.3,0,0.6,0,0.9,0.1
					s0.5,0.3,0.7,0.5l-0.6,0.6c-0.1-0.1-0.2-0.3-0.4-0.4c-0.2-0.1-0.4-0.1-0.6-0.1s-0.4,0-0.5,0.1s-0.3,0.1-0.3,0.2
					s-0.1,0.2-0.2,0.3s-0.1,0.2-0.1,0.3c0,0.2,0.1,0.4,0.2,0.6c0.1,0.2,0.3,0.2,0.5,0.3s0.4,0.2,0.7,0.2c0.2,0.1,0.5,0.2,0.7,0.3
					s0.4,0.3,0.5,0.5s0.2,0.5,0.2,0.8s-0.1,0.5-0.2,0.7s-0.2,0.4-0.4,0.6c-0.2,0.1-0.4,0.3-0.6,0.3c-0.2,0.1-0.5,0.1-0.8,0.1
					c-0.4,0-0.7-0.1-1-0.2s-0.6-0.3-0.8-0.6L57.7,159z"/>
				<path d="M63.8,154.6h0.7l2.4,5.7H66l-0.6-1.4h-2.7l-0.6,1.4h-0.9L63.8,154.6z M65.3,158.2l-1.1-2.6l0,0l-1.1,2.6H65.3z"/>
				<path d="M68.4,154.6v3.5c0,0.2,0,0.4,0.1,0.5c0,0.2,0.1,0.4,0.2,0.5c0.1,0.2,0.3,0.3,0.4,0.4c0.2,0.1,0.4,0.2,0.7,0.2
					s0.5-0.1,0.7-0.2c0.2-0.1,0.3-0.2,0.4-0.4s0.2-0.3,0.2-0.5s0.1-0.4,0.1-0.5v-3.5H72v3.6c0,0.3-0.1,0.6-0.2,0.9
					c-0.1,0.3-0.3,0.5-0.5,0.7s-0.4,0.3-0.7,0.5c-0.3,0.1-0.6,0.2-0.9,0.2s-0.6-0.1-0.9-0.2c-0.3-0.1-0.5-0.3-0.7-0.5
					s-0.4-0.4-0.5-0.7s-0.2-0.6-0.2-0.9v-3.6H68.4z"/>
				<polygon points="73.4,154.6 74.4,154.6 77.5,159.2 77.5,159.2 77.5,154.6 78.3,154.6 78.3,160.2 77.3,160.2 74.3,155.6 
					74.3,155.6 74.3,160.2 73.4,160.2 				"/>
				<path d="M81.6,154.6h0.7l2.4,5.7h-0.9l-0.6-1.4h-2.7l-0.6,1.4H79L81.6,154.6z M82.9,158.2l-1.1-2.6l0,0l-1.1,2.6H82.9z"/>
				<path d="M85.6,159c0.1,0.2,0.3,0.4,0.5,0.5s0.4,0.1,0.7,0.1c0.1,0,0.3,0,0.4-0.1c0.1,0,0.3-0.1,0.4-0.2s0.2-0.2,0.3-0.3
					c0.1-0.1,0.1-0.3,0.1-0.4c0-0.2-0.1-0.4-0.2-0.5s-0.3-0.2-0.5-0.3s-0.4-0.2-0.7-0.2c-0.2-0.1-0.5-0.2-0.7-0.3s-0.4-0.3-0.5-0.5
					s-0.2-0.5-0.2-0.9c0-0.2,0-0.3,0.1-0.5s0.2-0.4,0.3-0.5c0.2-0.2,0.4-0.3,0.6-0.4c0.2-0.1,0.5-0.2,0.9-0.2c0.3,0,0.6,0,0.9,0.1
					s0.5,0.3,0.7,0.5l-0.6,0.6c-0.1-0.1-0.2-0.3-0.4-0.4c-0.2-0.1-0.4-0.1-0.6-0.1s-0.4,0-0.5,0.1s-0.3,0.1-0.3,0.2
					c-0.1,0.1-0.1,0.2-0.2,0.3c0,0.1-0.1,0.2-0.1,0.3c0,0.2,0.1,0.4,0.2,0.6s0.3,0.2,0.5,0.3s0.4,0.2,0.7,0.2
					c0.2,0.1,0.5,0.2,0.7,0.3s0.4,0.3,0.5,0.5s0.2,0.5,0.2,0.8s-0.1,0.5-0.2,0.7s-0.2,0.4-0.4,0.6s-0.4,0.3-0.6,0.3
					c-0.2,0.1-0.5,0.1-0.8,0.1c-0.4,0-0.7-0.1-1-0.2s-0.6-0.3-0.8-0.6L85.6,159z"/>
				<path class="st16" d="M74.4,145.4c-0.9-0.6-1.5-1.6-1.5-2.8c0-1.9,1.5-3.4,3.4-3.4c1.1,0,2.1,0.5,2.7,1.3
					c0.6-0.8,1.6-1.3,2.7-1.3c1.9,0,3.4,1.5,3.4,3.4c0,1.2-0.6,2.2-1.5,2.8l-4.6,3.3L74.4,145.4z"/>
				<path class="st17" d="M65.4,124.2c-1-0.3-3-0.2-6,0.5c0.8,2.7,3.2,5.5,8,6.5s8.8,1,14.5-1s4.5-4.5-0.5-6
					C78.1,124.2,72.7,124.2,65.4,124.2z"/>
				<path class="st18" d="M72.7,108.2c4.7,0,8.5,3.8,8.5,8.5v7c0,4.7-3.8,8.5-8.5,8.5s-8.5-3.8-8.5-8.5v-7
					C64.3,112,68,108.2,72.7,108.2"/>
				<path d="M72.7,132.2c-4.7,0-8.5-3.8-8.5-8.5v-7c0-4.7,3.8-8.5,8.5-8.5s8.5,3.8,8.5,8.5v7C81.3,128.4,77.4,132.2,72.7,132.2
					 M72.7,109.2c-4.1,0-7.5,3.4-7.5,7.5v7c0,4.1,3.4,7.5,7.5,7.5s7.5-3.4,7.5-7.5v-7C80.3,112.6,76.9,109.2,72.7,109.2"/>
				<path class="st19" d="M65.3,118.7l0.1,1.6c0.1,2,3.4,3,5.5,3h3.5c2.1,0,5.4-1,5.5-3v-1.4c-1.6,0.6-3.4,0.9-5.2,0.9h-0.6
					c-0.1,0-0.2,0-0.3,0c-0.1,0-0.2,0-0.3,0H71C69.1,119.7,67.1,119.4,65.3,118.7"/>
				<path d="M73.9,119.7c-0.7,0-1.5,0-2.3-0.1l-4.8-0.5h-0.1c-2.8-1-5.9-5.2-9.5-12.6c-0.1-0.2-0.2-0.3-0.2-0.5
					c-0.3-0.3-0.6-0.5-0.8-0.9c-1.6-1.7-2.5-3.6-2.7-5.7c0-0.3-0.1-1,0.4-1.1s0.8,0.4,1.4,1.5c0.4,0.9,1.2,2.7,2.5,5.5l0.7,0.5
					c1-1.7,2.1-3.6,3.3-5.6c0.9-1.5,2.5-2.3,4.7-2.6c1.1-0.1,2.1-0.1,2.9,0.1l-0.2,1c-0.8-0.2-1.7-0.2-2.6-0.1
					c-1.9,0.2-3.2,0.9-3.9,2.1c-1.3,2.1-2.5,4.2-3.6,6c-0.1,0.1-0.2,0.2-0.3,0.2h-0.1c3.2,6.4,6,10.1,8.4,11l4.7,0.5
					c3.4,0.2,6,0,7.5-0.7c1.1-0.4,3.2-2.6,7.5-10.2c1.3-2.3,2.5-4.6,3.6-6.9l-5,4.7c-0.1,0.1-0.3,0.2-0.5,0.1
					c-0.2,0-0.3-0.2-0.3-0.3c-0.4-1.1-1-2.1-2-3.2c-1.8-2.1-4-3.1-6.7-3.1v-1c2.9,0,5.4,1.1,7.5,3.4c0.8,0.9,1.4,1.9,1.9,2.8
					l6.3-5.6c0.2-0.2,0.4-0.2,0.6,0c0.2,0.1,0.3,0.4,0.2,0.6c-1.4,3-3,6.1-4.8,9.2c-3.6,6.4-6.2,9.9-8,10.6
					C78.3,119.4,76.4,119.7,73.9,119.7"/>
				<path class="st20" d="M79.9,108.5L79.9,108.5l-16-0.8c-0.3,0-0.5-0.2-0.5-0.5s0.2-0.5,0.5-0.5l16,0.8c0.3,0,0.5,0.2,0.5,0.5
					S80.3,108.5,79.9,108.5"/>
				<path d="M78.9,109.3L78.9,109.3l-12-0.6c-0.3,0-0.5-0.2-0.5-0.5s0.3-0.5,0.5-0.5l12,0.6c0.3,0,0.5,0.2,0.5,0.5
					S79.3,109.3,78.9,109.3"/>
				<polyline class="st18" points="60.6,109.1 60.3,108.2 62,107.6 62.3,108.5 60.6,109.1 				"/>
				<path class="st18" d="M52.5,92.2c-1.5,0-2.8,0.5-3.9,1.5c-1,1-1.6,2.1-1.6,3.5s0.5,2.6,1.6,3.6s2.4,1.5,3.9,1.5s2.8-0.5,3.8-1.5
					c1.1-1,1.7-2.2,1.7-3.6s-0.6-2.5-1.7-3.5C55.3,92.7,54,92.2,52.5,92.2z M57,97.2c0,0.8-0.4,1.5-1.2,2.1s-1.7,0.9-2.8,0.9
					s-2-0.3-2.8-0.9S49,98,49,97.2s0.4-1.5,1.2-2.1s1.8-0.9,2.8-0.9s2,0.3,2.8,0.9S57,96.4,57,97.2z"/>
				<path class="st11" d="M54.9,99.3c0.7-0.6,1.1-1.3,1.1-2.1s-0.4-1.5-1.1-2.1c-0.7-0.6-1.5-0.9-2.4-0.9s-1.8,0.3-2.5,0.9
					s-1,1.3-1,2.1s0.3,1.5,1,2.1s1.5,0.9,2.5,0.9S54.3,99.9,54.9,99.3z"/>
				<path d="M52.5,102.7c-1.6,0-3.1-0.5-4.3-1.6s-1.7-2.4-1.7-3.9s0.6-2.8,1.7-3.9c1.2-1.1,2.6-1.6,4.3-1.6c1.6,0,3,0.5,4.2,1.6
					s1.8,2.4,1.8,3.9s-0.6,2.8-1.8,3.9S54,102.7,52.5,102.7z M52.5,92.7c-1.4,0-2.6,0.4-3.6,1.3c-0.9,0.9-1.4,1.9-1.4,3.1
					s0.5,2.3,1.4,3.2c1,0.9,2.2,1.3,3.6,1.3c1.4,0,2.5-0.4,3.5-1.3s1.5-2,1.5-3.2S57,94.8,56,94C55,93.2,53.9,92.7,52.5,92.7z"/>
				<path class="st18" d="M92.4,92.2c-1.5,0-2.8,0.5-3.9,1.5c-1,1-1.6,2.1-1.6,3.5s0.5,2.6,1.6,3.6s2.4,1.5,3.9,1.5s2.8-0.5,3.8-1.5
					c1.1-1,1.7-2.2,1.7-3.6s-0.6-2.5-1.7-3.5C95.3,92.7,93.9,92.2,92.4,92.2z M95.9,97.2c0,0.8-0.4,1.5-1.1,2.1s-1.5,0.9-2.4,0.9
					s-1.8-0.3-2.5-0.9s-1-1.3-1-2.1s0.3-1.5,1-2.1s1.5-0.9,2.5-0.9s1.8,0.3,2.4,0.9C95.5,95.7,95.9,96.4,95.9,97.2z"/>
				<path class="st11" d="M94.8,99.3c0.7-0.6,1.1-1.3,1.1-2.1s-0.4-1.5-1.1-2.1s-1.5-0.9-2.4-0.9s-1.8,0.3-2.5,0.9s-1,1.3-1,2.1
					s0.3,1.5,1,2.1s1.5,0.9,2.5,0.9S94.3,99.9,94.8,99.3z"/>
				<path d="M92.4,102.7c-1.6,0-3.1-0.5-4.3-1.6c-1.2-1.1-1.7-2.4-1.7-3.9s0.6-2.8,1.7-3.9c1.2-1.1,2.6-1.6,4.3-1.6
					c1.6,0,3,0.5,4.2,1.6s1.8,2.4,1.8,3.9s-0.6,2.8-1.8,3.9C95.4,102.2,94,102.7,92.4,102.7z M92.4,92.7c-1.4,0-2.6,0.4-3.6,1.3
					c-0.9,0.9-1.4,1.9-1.4,3.1s0.5,2.3,1.4,3.2c1,0.9,2.2,1.3,3.6,1.3s2.5-0.4,3.5-1.3s1.5-2,1.5-3.2s-0.5-2.3-1.5-3.1
					C94.9,93.2,93.8,92.7,92.4,92.7z"/>
				<path d="M74.7,119.7h-3.6c-4.9,0-9.1-2-12.6-6.1c-3.4-3.9-5.1-8.8-5.1-14.4v-8c0-5.6,1.7-10.5,5.1-14.5c3.5-4,7.7-6,12.6-6h3.6
					c4.9,0,9.1,2,12.5,6s5.2,8.9,5.2,14.5v8c0,5.6-1.7,10.5-5.2,14.4C83.8,117.7,79.6,119.7,74.7,119.7 M71.1,71.7
					c-4.6,0-8.6,1.9-11.8,5.6c-3.2,3.8-4.9,8.5-4.9,13.9v8c0,5.4,1.6,10,4.9,13.8s7.2,5.7,11.8,5.7h3.6c4.6,0,8.5-1.9,11.8-5.7
					c3.3-3.8,4.9-8.4,4.9-13.8v-8c0-5.4-1.7-10-4.9-13.9c-3.2-3.7-7.2-5.6-11.8-5.6H71.1"/>
				<path class="st18" d="M91.9,99.2v-8c0-5.5-1.7-10.2-5.1-14.2c-3.3-3.9-7.4-5.8-12.1-5.8h-3.6c-4.8,0-8.8,1.9-12.2,5.8
					c-3.3,3.9-5,8.7-5,14.2v8c0,5.5,1.7,10.2,5,14.1c3.4,3.9,7.4,5.9,12.2,5.9h3.6c4.8,0,8.8-2,12.1-5.9
					C90.3,109.4,91.9,104.7,91.9,99.2"/>
				<path d="M74.7,119.7h-3.6c-4.9,0-9.1-2-12.6-6.1c-3.4-3.9-5.1-8.8-5.1-14.4v-8c0-5.6,1.7-10.5,5.1-14.5c3.5-4,7.7-6,12.6-6h3.6
					c4.9,0,9.1,2,12.5,6s5.2,8.9,5.2,14.5v8c0,5.6-1.7,10.5-5.2,14.4C83.8,117.7,79.6,119.7,74.7,119.7 M71.1,71.7
					c-4.6,0-8.6,1.9-11.8,5.6c-3.2,3.8-4.9,8.5-4.9,13.9v8c0,5.4,1.6,10,4.9,13.8s7.2,5.7,11.8,5.7h3.6c4.6,0,8.5-1.9,11.8-5.7
					c3.3-3.8,4.9-8.4,4.9-13.8v-8c0-5.4-1.7-10-4.9-13.9c-3.2-3.7-7.2-5.6-11.8-5.6H71.1"/>
				<path class="st21" d="M88.9,111.5c-0.5,0.7-1,1.4-1.6,2.1c0,0.1-0.1,0.1-0.1,0.2C87.8,113.1,88.4,112.4,88.9,111.5
					C88.9,111.6,88.9,111.5,88.9,111.5 M56.3,110.4c-0.1,0.1-0.2,0.3-0.3,0.4c0.7,1.2,1.6,2.3,2.7,3.4c1,1,2.1,1.9,3.2,2.6
					c-1.2-0.8-2.3-1.9-3.3-3.1C57.7,112.6,57,111.5,56.3,110.4"/>
				<path class="st22" d="M74,103.2h-3.6c-4.8,0-8.9,1.7-12.3,5c-0.4,0.4-0.8,0.8-1.2,1.3c0.7,1.2,1.5,2.4,2.4,3.5
					c3.3,3.8,7.2,5.7,11.8,5.7h3.6c4.6,0,8.5-1.9,11.8-5.7c0.7-0.8,1.3-1.6,1.8-2.4c-0.6-0.8-1.3-1.6-2-2.4
					C82.8,104.9,78.8,103.2,74,103.2"/>
				<path class="st23" d="M57,109.5c-0.2,0.3-0.5,0.6-0.7,0.8c0.7,1.2,1.4,2.2,2.3,3.3c1,1.2,2.1,2.2,3.3,3.1
					c2.7,1.7,5.7,2.5,9.1,2.5h3.5c4.8,0,8.9-1.7,12.2-5.1c0.1-0.1,0.2-0.2,0.3-0.3c0-0.1,0.1-0.1,0.1-0.2c0.6-0.7,1.1-1.4,1.6-2.1
					c-0.2-0.3-0.4-0.6-0.6-0.9c-0.5,0.8-1.1,1.6-1.8,2.4c-3.2,3.8-7.2,5.7-11.8,5.7h-3.6c-4.6,0-8.6-1.9-11.8-5.7
					C58.4,111.9,57.5,110.7,57,109.5"/>
				<path class="st24" d="M67.6,94.9c0.2-0.2,0.3-0.4,0.3-0.7s-0.1-0.5-0.3-0.7c-0.2-0.2-0.4-0.3-0.7-0.3s-0.5,0.1-0.7,0.3
					c-0.2,0.2-0.3,0.4-0.3,0.7s0.1,0.5,0.3,0.7c0.2,0.2,0.4,0.3,0.7,0.3S67.4,95.1,67.6,94.9z"/>
				<path class="st24" d="M79.6,94.9c0.2-0.2,0.3-0.4,0.3-0.7s-0.1-0.5-0.3-0.7c-0.2-0.2-0.4-0.3-0.7-0.3s-0.5,0.1-0.7,0.3
					c-0.2,0.2-0.3,0.4-0.3,0.7s0.1,0.5,0.3,0.7c0.2,0.2,0.4,0.3,0.7,0.3S79.4,95.1,79.6,94.9z"/>
				<path class="st18" d="M76.3,107.8c-0.4-0.4-0.9-0.6-1.4-0.6H71c-0.5,0-1,0.2-1.4,0.6s-0.6,0.9-0.6,1.4s0.2,1,0.6,1.4
					s0.9,0.6,1.4,0.6h3.9c0.5,0,1-0.2,1.4-0.6s0.6-0.9,0.6-1.4S76.7,108.2,76.3,107.8z"/>
				<path class="st24" d="M85,105.8c-0.8-1.1-1.8-1.8-3.2-2.1c-4.8-0.2-7.7-0.3-8.5-0.3c-5-0.3-8.2-0.1-9.9,0.6
					c-2.2,0.9-3.7,3-4.5,6.1c3.6,0.2,6.6,0.2,9,0s4-1,5-2.4c0.9,1.5,3,2.3,6.5,2.5c2.8,0.2,5.3,0.1,7.6,0
					C86.3,108.1,85.6,106.7,85,105.8z"/>
				<path class="st18" d="M75.9,105.4c0.7-0.6,1-1.3,1-2.1l0,0h-7l0,0c0,0.8,0.3,1.5,1,2.1s1.4,0.9,2.4,0.9h0.3
					C74.5,106.2,75.3,105.9,75.9,105.4z"/>
			</g>
		</g>
	</g>
</g>
</svg>
