<?xml version="1.0" encoding="utf-8"?>
<!-- Generator: Adobe Illustrator 22.0.1, SVG Export Plug-In . SVG Version: 6.00 Build 0)  -->
<!DOCTYPE svg PUBLIC "-//W3C//DTD SVG 1.1//EN" "http://www.w3.org/Graphics/SVG/1.1/DTD/svg11.dtd">
<svg version="1.1" id="Layer_1" xmlns="http://www.w3.org/2000/svg" xmlns:xlink="http://www.w3.org/1999/xlink" x="0px" y="0px"
	 viewBox="0 0 130 270" style="enable-background:new 0 0 130 270;" xml:space="preserve">
<style type="text/css">
	.st0{fill:#FFCC99;}
	.st1{fill:#EAAF75;}
	.st2{fill:#454545;}
	.st3{fill:#E5DDD4;}
	.st4{fill:#E5B27F;}
	.st5{fill:#110900;}
	.st6{fill:#D4C6B8;}
	.st7{fill:#D4A16E;}
	.st8{fill:#1C0E00;}
	.st9{fill:#C58C54;}
	.st10{fill:#513600;}
</style>
<g>
	<path class="st0" d="M68.8,102c2.1,0,3.2-1.1,3.2-3.2V90c-0.1,2-1.1,3-3.2,3h-8.6c-2.1,0-3.1-1-3.2-3v8.8c0,2.1,1.1,3.2,3.2,3.2
		H68.8z"/>
	<path class="st1" d="M68.8,75h-8.6c-2.1,0-3.2,1.1-3.2,3.2V90c0.1,2,1.1,3,3.2,3h8.6c2.1,0,3.1-1,3.2-3V78.2
		C72,76.1,70.9,75,68.8,75"/>
	<path d="M68.8,102.5h-8.6c-2.4,0-3.7-1.3-3.7-3.8V77.3c0-2.5,1.3-3.8,3.7-3.8h8.6c2.4,0,3.7,1.3,3.7,3.8v21.4
		C72.5,101.2,71.2,102.5,68.8,102.5 M60.2,74.5c-1.9,0-2.7,0.9-2.7,2.8v21.4c0,1.9,0.8,2.8,2.7,2.8h8.6c1.9,0,2.7-0.9,2.7-2.8V77.3
		c0-1.9-0.8-2.8-2.7-2.8H60.2"/>
	<path d="M66,89.5c-0.7,0-1.5,0-2.3-0.1l-4.8-0.5l-0.1,0c-2.8-1-5.9-5.2-9.5-12.6c-0.1-0.2-0.2-0.3-0.2-0.5
		c-0.3-0.3-0.6-0.5-0.8-0.9c-1.6-1.7-2.5-3.6-2.7-5.7c0-0.3-0.1-1,0.4-1.1c0.5-0.1,0.8,0.4,1.4,1.5c0.4,0.9,1.2,2.7,2.5,5.5l0.7,0.5
		c1-1.7,2.1-3.6,3.3-5.6c0.9-1.5,2.5-2.3,4.7-2.6c1.1-0.1,2.1-0.1,2.9,0.1l-0.2,1c-0.8-0.2-1.7-0.2-2.6-0.1
		c-1.9,0.2-3.2,0.9-3.9,2.1c-1.3,2.1-2.5,4.2-3.6,6c-0.1,0.1-0.2,0.2-0.3,0.2l-0.1,0c3.2,6.4,6,10.1,8.4,11l4.7,0.5
		c3.4,0.2,6,0,7.5-0.7c1.1-0.4,3.2-2.6,7.5-10.2c1.3-2.3,2.5-4.6,3.6-6.9l-4.9,4.4c-0.1,0.1-0.3,0.2-0.5,0.1c-0.2,0-0.3-0.2-0.3-0.3
		c-0.4-1.1-1-2.1-2-3.2c-1.8-2.1-4-3.1-6.6-3.1l-0.1,0l0-1c2.9,0,5.4,1.1,7.5,3.4c0.8,0.9,1.4,1.9,1.9,2.8l6.3-5.6
		c0.2-0.2,0.4-0.2,0.6,0c0.2,0.1,0.3,0.4,0.2,0.6c-1.4,3-3,6.1-4.8,9.2c-3.6,6.4-6.2,9.9-8,10.6C70.4,89.2,68.5,89.5,66,89.5"/>
	<polyline class="st0" points="52.7,78.9 52.4,77.9 54.1,77.4 54.4,78.3 52.7,78.9 	"/>
	<path d="M71,79.1L71,79.1l-12-0.6c-0.3,0-0.5-0.2-0.5-0.5c0-0.3,0.3-0.5,0.5-0.5l12,0.6c0.3,0,0.5,0.2,0.5,0.5
		C71.5,78.9,71.3,79.1,71,79.1"/>
	<path class="st2" d="M72,78.3L72,78.3l-16-0.8c-0.3,0-0.5-0.2-0.5-0.5c0-0.3,0.3-0.5,0.5-0.5l16,0.8c0.3,0,0.5,0.2,0.5,0.5
		C72.5,78.1,72.3,78.3,72,78.3"/>
	<path class="st0" d="M85.5,63c-1.5,0-2.8,0.5-3.9,1.5c-1,1-1.6,2.1-1.6,3.5c0,1.4,0.5,2.6,1.6,3.6c1.1,1,2.4,1.5,3.9,1.5
		c1.5,0,2.8-0.5,3.8-1.5c1.1-1,1.7-2.2,1.7-3.6c0-1.4-0.6-2.5-1.7-3.5C88.3,63.5,87,63,85.5,63"/>
	<path class="st1" d="M89,68c0-0.8-0.4-1.5-1.1-2.1c-0.7-0.6-1.5-0.9-2.4-0.9c-1,0-1.8,0.3-2.5,0.9c-0.7,0.6-1,1.3-1,2.1
		s0.3,1.5,1,2.1c0.7,0.6,1.5,0.9,2.5,0.9c1,0,1.8-0.3,2.4-0.9C88.6,69.5,89,68.8,89,68"/>
	<path d="M85.5,73.5c-1.6,0-3.1-0.5-4.3-1.6c-1.2-1.1-1.7-2.4-1.7-3.9c0-1.5,0.6-2.8,1.7-3.9c1.2-1.1,2.6-1.6,4.3-1.6
		c1.6,0,3,0.5,4.2,1.6c1.2,1.1,1.8,2.4,1.8,3.9c0,1.5-0.6,2.8-1.8,3.9C88.5,73,87.1,73.5,85.5,73.5 M85.5,63.5
		c-1.4,0-2.6,0.4-3.6,1.3c-0.9,0.9-1.4,1.9-1.4,3.1c0,1.2,0.5,2.3,1.4,3.2c1,0.9,2.2,1.3,3.6,1.3c1.4,0,2.5-0.4,3.5-1.3
		c1-0.9,1.5-2,1.5-3.2c0-1.2-0.5-2.3-1.5-3.1C88,63.9,86.9,63.5,85.5,63.5"/>
	<path class="st0" d="M44.5,62c-1.5,0-2.8,0.5-3.9,1.5c-1,1-1.6,2.1-1.6,3.5c0,1.4,0.5,2.6,1.6,3.6c1.1,1,2.4,1.5,3.9,1.5
		c1.5,0,2.8-0.5,3.8-1.5c1.1-1,1.7-2.2,1.7-3.6c0-1.4-0.6-2.5-1.7-3.5C47.3,62.5,46,62,44.5,62 M49,67c0,0.8-0.4,1.5-1.2,2.1
		C47,69.7,46.1,70,45,70s-2-0.3-2.8-0.9C41.4,68.5,41,67.8,41,67s0.4-1.5,1.2-2.1C43,64.3,43.9,64,45,64s2,0.3,2.8,0.9
		C48.6,65.5,49,66.2,49,67"/>
	<path class="st1" d="M46.9,69.1c0.7-0.6,1.1-1.3,1.1-2.1s-0.4-1.5-1.1-2.1c-0.7-0.6-1.5-0.9-2.4-0.9c-1,0-1.8,0.3-2.5,0.9
		c-0.7,0.6-1,1.3-1,2.1s0.3,1.5,1,2.1c0.7,0.6,1.5,0.9,2.5,0.9C45.5,70,46.3,69.7,46.9,69.1"/>
	<path d="M44.5,72.5c-1.6,0-3.1-0.5-4.3-1.6c-1.2-1.1-1.7-2.4-1.7-3.9c0-1.5,0.6-2.8,1.7-3.9c1.2-1.1,2.6-1.6,4.3-1.6
		c1.6,0,3,0.5,4.2,1.6c1.2,1.1,1.8,2.4,1.8,3.9c0,1.5-0.6,2.8-1.8,3.9C47.5,72,46.1,72.5,44.5,72.5 M44.5,62.5
		c-1.4,0-2.6,0.4-3.6,1.3c-0.9,0.9-1.4,1.9-1.4,3.1c0,1.2,0.5,2.3,1.4,3.2c1,0.9,2.2,1.3,3.6,1.3c1.4,0,2.5-0.4,3.5-1.3
		c1-0.9,1.5-2,1.5-3.2c0-1.2-0.5-2.3-1.5-3.1C47,62.9,45.9,62.5,44.5,62.5"/>
	<path d="M66.8,89.5h-3.6c-4.9,0-9.1-2-12.6-6.1c-3.4-3.9-5.1-8.8-5.1-14.4v-8c0-5.6,1.7-10.5,5.1-14.5c3.5-4,7.7-6,12.6-6h3.6
		c4.9,0,9.1,2,12.5,6c3.4,4,5.2,8.9,5.2,14.5v8c0,5.6-1.7,10.5-5.2,14.4C75.9,87.5,71.7,89.5,66.8,89.5 M63.2,41.5
		c-4.6,0-8.6,1.9-11.8,5.6c-3.2,3.8-4.9,8.5-4.9,13.9v8c0,5.4,1.6,10,4.9,13.8c3.3,3.8,7.2,5.7,11.8,5.7h3.6c4.6,0,8.5-1.9,11.8-5.7
		c3.3-3.8,4.9-8.4,4.9-13.8v-8c0-5.4-1.7-10-4.9-13.9c-3.2-3.7-7.2-5.6-11.8-5.6H63.2"/>
	<path class="st0" d="M84,69v-8c0-5.5-1.7-10.2-5.1-14.2c-3.3-3.9-7.4-5.8-12.1-5.8h-3.6c-4.8,0-8.8,1.9-12.2,5.8
		c-3.3,3.9-5,8.7-5,14.2v8c0,5.5,1.7,10.2,5,14.1C54.4,87,58.4,89,63.2,89h3.6c4.8,0,8.8-2,12.1-5.9C82.3,79.2,84,74.5,84,69"/>
	<path d="M66.8,89.5h-3.6c-4.9,0-9.1-2-12.6-6.1c-3.4-3.9-5.1-8.8-5.1-14.4v-8c0-5.6,1.7-10.5,5.1-14.5c3.5-4,7.7-6,12.6-6h3.6
		c4.9,0,9.1,2,12.5,6c3.4,4,5.2,8.9,5.2,14.5v8c0,5.6-1.7,10.5-5.2,14.4C75.9,87.5,71.7,89.5,66.8,89.5 M63.2,41.5
		c-4.6,0-8.6,1.9-11.8,5.6c-3.2,3.8-4.9,8.5-4.9,13.9v8c0,5.4,1.6,10,4.9,13.8c3.3,3.8,7.2,5.7,11.8,5.7h3.6c4.6,0,8.5-1.9,11.8-5.7
		c3.3-3.8,4.9-8.4,4.9-13.8v-8c0-5.4-1.7-10-4.9-13.9c-3.2-3.7-7.2-5.6-11.8-5.6H63.2"/>
	<path class="st3" d="M81.9,79.7c-0.7,1.3-1.6,2.5-2.6,3.7c-0.8,0.9-1.6,1.7-2.4,2.4c1-0.8,2-1.8,3-2.9c0.8-0.9,1.5-2,2.1-3
		C82,79.9,81.9,79.8,81.9,79.7"/>
	<path class="st4" d="M67.1,70h-3.6c-4.8,0-8.9,2-12.3,5.9c-0.8,1-1.5,2-2.1,3c0.7,1.4,1.6,2.7,2.7,4c0.8,0.9,1.6,1.7,2.4,2.4
		c2.7,2.1,5.7,3.1,9.1,3.1h3.6c4.6,0,8.5-1.9,11.8-5.7c1.1-1.3,2-2.6,2.7-4.1c-0.6-1-1.3-1.9-2-2.8C75.9,72,71.9,70,67.1,70"/>
	<path class="st5" d="M81.3,78.7c-0.7,1.4-1.6,2.8-2.7,4.1c-3.2,3.8-7.2,5.7-11.8,5.7h-3.6c-3.4,0-6.4-1-9.1-3.1
		C57,87.8,60.3,89,64,89h3.6c3.5,0,6.5-1,9.3-3.1c0.9-0.7,1.7-1.5,2.4-2.4c1-1.2,1.9-2.4,2.6-3.7C81.7,79.4,81.5,79,81.3,78.7"/>
	<path class="st0" d="M62,70L62,70c0,0.9,0.3,1.6,1,2.1s1.4,0.9,2.3,0.9h0.3c0.9,0,1.7-0.3,2.3-0.9c0.7-0.6,1-1.3,1-2.1v0"/>
	<path d="M65.7,73.5h-0.3c-1,0-1.9-0.3-2.7-1c-0.8-0.7-1.1-1.5-1.1-2.5l1,0v0c0,0.7,0.3,1.2,0.8,1.7c0.6,0.5,1.2,0.7,2,0.7h0.3
		c0.8,0,1.5-0.2,2-0.7c0.5-0.5,0.8-1,0.8-1.7l1,0c0,1-0.4,1.8-1.1,2.5C67.6,73.2,66.7,73.5,65.7,73.5z"/>
	<path class="st6" d="M75.5,43.1c0.2,0.1,0.3,0.2,0.5,0.3c0,0,0,0,0,0C75.8,43.3,75.7,43.2,75.5,43.1"/>
	<path class="st7" d="M66.8,41.5h-3.6c-2.8,0-5.3,0.7-7.6,2.1c0.2,0.2,0.4,0.4,0.5,0.6c2.6,3,5.8,4.6,9.6,4.8c0.3,0,0.5,0,0.8,0
		c3.3,0,6.3-1.6,8.8-4.8C72.8,42.4,70,41.5,66.8,41.5"/>
	<path class="st8" d="M67.7,41H64c-3.6,0-6.6,0.7-9,2c0.2,0.2,0.4,0.3,0.6,0.5c2.3-1.4,4.8-2.1,7.6-2.1h3.6c3.2,0,6,0.9,8.5,2.7
		c0.1-0.1,0.2-0.3,0.3-0.4c0.1-0.1,0.2-0.2,0.3-0.3c-0.2-0.1-0.3-0.2-0.5-0.3C73.2,41.7,70.6,41,67.7,41"/>
	<path class="st6" d="M51.9,45c-0.3,0.3-0.6,0.6-0.9,1h0.1c0.2-0.3,0.5-0.5,0.7-0.8C51.8,45.2,51.9,45.1,51.9,45"/>
	<path class="st8" d="M51.8,45.2c-0.3,0.2-0.5,0.5-0.7,0.8h0.4C51.6,45.8,51.7,45.5,51.8,45.2"/>
	<path class="st7" d="M49,50.6c-1.7,3.1-2.5,6.5-2.5,10.4v8h1.2c0.5,0,0.9-0.1,1.3-0.3V50.6"/>
	<path class="st8" d="M49,50c-1.2,2.5-2.2,5.7-3,9.5c0.1-0.2,0.2-0.4,0.3-0.6L46.3,69h0.2v-8c0-3.8,0.8-7.3,2.5-10.4V50"/>
	<path class="st6" d="M84.3,57.8c0.1,0.9,0.2,1.7,0.2,2.6c0-0.5,0.1-0.9,0.2-1.4c0.1,0.2,0.2,0.4,0.3,0.6c-0.1-0.2-0.1-0.4-0.2-0.6
		C84.6,58.6,84.5,58.2,84.3,57.8"/>
	<path class="st7" d="M84.6,63.6C84.5,63.6,84.5,63.6,84.6,63.6l-0.1,1.6c0.1,0,0.1,0,0.2,0c0-0.3,0-0.5,0-0.5
		C84.7,64.3,84.6,63.9,84.6,63.6"/>
	<path class="st9" d="M84.7,65.1c-0.1,0-0.1,0-0.2,0v3.6c0.1,0,0.2,0,0.3-0.1C84.7,66.9,84.7,65.7,84.7,65.1"/>
	<path class="st8" d="M84.5,62.8v0.8c0,0,0,0,0.1,0C84.5,63.3,84.5,63,84.5,62.8"/>
	<path class="st7" d="M82,52.8v16c0.2,0.1,0.5,0.2,0.9,0.2c0.2,0,0.4,0,0.6-0.1v-8C83.5,58,83,55.3,82,52.8"/>
	<path class="st8" d="M82,52v0.8c1,2.5,1.5,5.2,1.5,8.2v8c0.3,0,0.6-0.1,1-0.2v-3.6v-1.5v-0.8c-0.1-0.9-0.1-1.6,0-2.3
		c0-0.9-0.1-1.8-0.2-2.6C83.5,55.5,82.7,53.6,82,52"/>
	<path class="st10" d="M59.7,64.7c0.2-0.2,0.3-0.4,0.3-0.7s-0.1-0.5-0.3-0.7C59.5,63.1,59.3,63,59,63s-0.5,0.1-0.7,0.3
		C58.1,63.5,58,63.7,58,64s0.1,0.5,0.3,0.7c0.2,0.2,0.4,0.3,0.7,0.3S59.5,64.9,59.7,64.7z"/>
	<path class="st10" d="M71.7,64.7c0.2-0.2,0.3-0.4,0.3-0.7s-0.1-0.5-0.3-0.7C71.5,63.1,71.3,63,71,63s-0.5,0.1-0.7,0.3
		C70.1,63.5,70,63.7,70,64s0.1,0.5,0.3,0.7c0.2,0.2,0.4,0.3,0.7,0.3S71.5,64.9,71.7,64.7z"/>
	<path d="M65.5,78.5c-2.3,0-4.6-0.7-6.7-2.1c-0.2-0.1-0.3-0.5-0.2-0.7c0.1-0.2,0.5-0.3,0.7-0.2c3.6,2.3,7.4,2.5,11.5,0.7
		c0.2-0.1,0.5,0,0.7,0.3c0.1,0.3,0,0.5-0.3,0.7C69.3,78.1,67.3,78.5,65.5,78.5z"/>
</g>
</svg>
