<?xml version="1.0" encoding="utf-8"?>
<!-- Generator: Adobe Illustrator 22.0.1, SVG Export Plug-In . SVG Version: 6.00 Build 0)  -->
<!DOCTYPE svg PUBLIC "-//W3C//DTD SVG 1.1//EN" "http://www.w3.org/Graphics/SVG/1.1/DTD/svg11.dtd">
<svg version="1.1" id="Layer_1" xmlns="http://www.w3.org/2000/svg" xmlns:xlink="http://www.w3.org/1999/xlink" x="0px" y="0px"
	 viewBox="0 0 130 270" style="enable-background:new 0 0 130 270;" xml:space="preserve">
<style type="text/css">
	.st0{fill:#FFD9B3;}
	.st1{fill:#170E2B;}
	.st2{fill:#ECE4CE;}
	.st3{fill:#B49D87;}
	.st4{fill:#695C50;}
	.st5{fill:#676565;}
	.st6{fill:#4F3519;}
	.st7{fill:#B3A1B7;}
	.st8{fill:#E2A981;}
	.st9{fill:#E5BB9D;}
	.st10{fill:#FFFFFF;}
</style>
<title>shannon</title>
<desc>Created with Sketch.</desc>
<g>
	<path class="st0" d="M80.3,195.1l4.3-33.7c0.4-3.1-2.2-6.6-6.3-8.4l-3.1,41.3"/>
	<path d="M80.3,195.6L80.3,195.6c-0.3,0-0.5-0.3-0.5-0.6l4.3-33.7c0.3-2.7-1.9-5.8-5.4-7.6l-3,40.6c0,0.3-0.3,0.5-0.5,0.5
		c-0.3,0-0.5-0.3-0.5-0.5l3.1-42l0.6,0.3c4.3,1.9,7,5.6,6.6,8.9l-4.3,33.7C80.7,195.4,80.5,195.6,80.3,195.6z"/>
	<path class="st0" d="M52.5,194.8L43,162.2c-0.9-3,1.2-6.9,4.9-9.3l9.5,40.3"/>
	<path d="M52.5,195.3c-0.2,0-0.4-0.1-0.5-0.4l-9.5-32.6c-0.9-3.2,1.2-7.3,5.1-9.9l0.6-0.4l9.7,41c0.1,0.3-0.1,0.5-0.4,0.6
		c-0.3,0.1-0.5-0.1-0.6-0.4l-9.3-39.6c-3.2,2.3-4.9,5.7-4.1,8.3l9.5,32.6c0.1,0.3-0.1,0.5-0.3,0.6L52.5,195.3z"/>
	<path class="st1" d="M77.3,162.8l8.8-2c1.6-0.4,3.2,0.6,3.6,2.2c0.4,1.6-0.6,3.2-2.2,3.6l-8.8,2c-1.6,0.4-3.2-0.6-3.6-2.2
		S75.7,163.1,77.3,162.8z"/>
	<path d="M78,168.7c-0.6,0-1.1-0.2-1.6-0.5c-0.7-0.4-1.2-1.1-1.3-1.9c-0.4-1.6,0.6-3.2,2.2-3.6l8.8-2c1.6-0.4,3.2,0.6,3.6,2.2
		c0.2,0.8,0,1.6-0.4,2.3s-1.1,1.2-1.9,1.3l-8.8,2C78.4,168.7,78.2,168.7,78,168.7z M77.5,163.7c-1.1,0.2-1.7,1.3-1.5,2.4
		c0.1,0.5,0.4,1,0.9,1.2c0.5,0.3,1,0.4,1.5,0.3l8.8-2c0.5-0.1,1-0.4,1.2-0.9s0.4-1,0.3-1.5c-0.2-1.1-1.3-1.7-2.4-1.5L77.5,163.7z"/>
	<path class="st1" d="M75.9,156.9l8.8-2c1.6-0.4,3.2,0.6,3.6,2.2c0.4,1.6-0.6,3.2-2.2,3.6l-8.8,2c-1.6,0.4-3.2-0.6-3.6-2.2
		C73.3,158.9,74.3,157.3,75.9,156.9z"/>
	<path d="M76.6,162.8c-0.6,0-1.1-0.2-1.6-0.5c-0.7-0.4-1.2-1.1-1.3-1.9c-0.4-1.6,0.6-3.2,2.2-3.6l8.8-2c1.6-0.4,3.2,0.6,3.6,2.2
		s-0.6,3.2-2.2,3.6l-8.8,2C77.1,162.8,76.8,162.8,76.6,162.8z M76.2,157.9c-1.1,0.2-1.7,1.3-1.5,2.4c0.1,0.5,0.4,1,0.9,1.2
		c0.5,0.3,1,0.4,1.5,0.3l8.8-2c1.1-0.2,1.7-1.3,1.5-2.4c-0.2-1.1-1.3-1.7-2.4-1.5L76.2,157.9z"/>
	<path class="st1" d="M75,153l9.7-2.2c1.1-0.2,2.2,0.4,2.4,1.5c0.2,1.1-0.4,2.1-1.5,2.4l-9.7,2.2c-1.1,0.2-2.2-0.4-2.4-1.5
		C73.3,154.3,74,153.3,75,153z"/>
	<path d="M75.5,157c-0.9,0-1.7-0.6-1.9-1.5c-0.2-1.1,0.4-2.2,1.5-2.4l9.7-2.2c1.1-0.2,2.1,0.4,2.4,1.5c0.2,1.1-0.4,2.1-1.5,2.4
		L76,157C75.8,156.9,75.6,157,75.5,157z M75.3,154c-0.5,0.1-0.9,0.7-0.7,1.2c0.1,0.5,0.7,0.9,1.2,0.7l9.7-2.2
		c0.5-0.1,0.9-0.7,0.7-1.2c-0.1-0.5-0.7-0.9-1.2-0.8L75.3,154z"/>
	<rect x="49.5" y="145.3" class="st1" width="31" height="36"/>
	<path d="M80.5,181.3h-31v-36h31V181.3z M50.5,180.3h29v-34h-29V180.3z"/>
	<path class="st2" d="M57.2,265.6c3.5-1.8,5.2-6.1,3.8-9.8l-0.4-1.1c-1.4-3.7-5.1-4.7-8.3-2.4l-12,8.9c-3.2,2.3-2.9,5.8,0.5,7.6
		l-1.5-0.8c3.4,1.9,9.1,2,12.6,0.2L57.2,265.6z"/>
	<path d="M45.9,270c-1.8,0-3.7-0.3-5.3-0.8l-0.1,0.1l-1.5-0.8l0,0l0.1-0.2c-1-0.9-1.5-1.9-1.6-3.1c-0.1-1.6,0.7-3.2,2.4-4.4l12-8.9
		c1.7-1.2,3.5-1.6,5.2-1.1c1.7,0.5,3.1,1.8,3.8,3.8l0.4,1.1c1.5,3.9-0.3,8.6-4,10.4l-5.3,2.6C50.4,269.6,48.2,270,45.9,270z
		 M40.4,268c3.3,1.4,8.2,1.4,11.3-0.2l5.3-2.6c3.3-1.6,4.9-5.8,3.6-9.2l-0.4-1.1c-0.6-1.6-1.7-2.7-3.1-3.2c-1.4-0.4-3-0.1-4.3,1
		l-12,8.9c-1.4,1-2.1,2.3-2,3.6C38.7,266.2,39.3,267.2,40.4,268z M57.2,265.6L57.2,265.6L57.2,265.6z"/>
	<path class="st3" d="M57.2,263.6c3.5-1.8,5.2-6.1,3.8-9.8l-0.4-1.1c-1.4-3.7-5.1-4.7-8.3-2.4l-12,8.9c-3.2,2.3-2.9,5.8,0.5,7.6
		l-1.5-0.8c3.4,1.9,9.1,2,12.6,0.2L57.2,263.6z"/>
	<path d="M45.9,268c-1.8,0-3.7-0.3-5.3-0.8l-0.1,0.1l-1.5-0.8l0,0l0.1-0.2c-1-0.9-1.5-1.9-1.6-3.1c-0.1-1.6,0.7-3.2,2.4-4.4l12-8.9
		c1.7-1.2,3.5-1.6,5.2-1.1c1.7,0.5,3.1,1.8,3.8,3.8l0.4,1.1c1.5,3.9-0.3,8.6-4,10.4l-5.3,2.6C50.4,267.6,48.2,268,45.9,268z
		 M40.4,266c3.3,1.4,8.2,1.4,11.3-0.2l5.3-2.6c3.3-1.6,4.9-5.8,3.6-9.2l-0.4-1.1c-0.6-1.6-1.7-2.7-3.1-3.2c-1.4-0.4-3-0.1-4.3,1
		l-12,8.9c-1.4,1-2.1,2.3-2,3.6C38.7,264.2,39.3,265.2,40.4,266z M57.2,263.6L57.2,263.6L57.2,263.6z"/>
	<path class="st4" d="M51.7,259l-7.2-2.9l6.2-1.2v-2.6c0-0.3,0.2-0.5,0.5-0.5s0.5,0.2,0.5,0.5v2.4l4.4-0.9c0.3-0.1,0.5,0.1,0.6,0.4
		c0.1,0.3-0.1,0.5-0.4,0.6l-4.6,0.9V259z M48,256.5l2.8,1.1v-1.7L48,256.5z"/>
	<path class="st2" d="M72.8,265.6c-3.5-1.8-5.2-6.1-3.8-9.8l0.4-1.1c1.4-3.7,5.1-4.7,8.3-2.4l12,8.9c3.2,2.3,2.9,5.8-0.5,7.6
		l1.5-0.8c-3.4,1.9-9.1,2-12.6,0.2L72.8,265.6z"/>
	<path d="M84.1,270c-2.3,0-4.5-0.4-6.2-1.3l-5.3-2.6c-3.7-1.9-5.5-6.5-4-10.4l0.4-1.1c0.7-1.9,2.1-3.3,3.8-3.8
		c1.7-0.5,3.6-0.1,5.2,1.1l12,8.9c1.7,1.2,2.5,2.8,2.4,4.4c-0.1,1.1-0.6,2.2-1.6,3.1l0.1,0.2l-1.5,0.8l-0.1-0.1
		C87.7,269.7,85.9,270,84.1,270z M73,265.2l5.3,2.6c3.1,1.6,8,1.6,11.3,0.2c1.1-0.8,1.7-1.8,1.8-2.8c0.1-1.3-0.6-2.5-2-3.6l-12-8.9
		c-1.4-1-2.9-1.4-4.3-1s-2.5,1.5-3.1,3.2l-0.4,1.1C68.1,259.4,69.7,263.5,73,265.2z"/>
	<path class="st3" d="M72.8,263.6c-3.5-1.8-5.2-6.1-3.8-9.8l0.4-1.1c1.4-3.7,5.1-4.7,8.3-2.4l12,8.9c3.2,2.3,2.9,5.8-0.5,7.6
		l1.5-0.8c-3.4,1.9-9.1,2-12.6,0.2L72.8,263.6z"/>
	<path d="M84.1,268c-2.3,0-4.5-0.4-6.2-1.3l-5.3-2.6c-3.7-1.9-5.5-6.5-4-10.4l0.4-1.1c0.7-1.9,2.1-3.3,3.8-3.8
		c1.7-0.5,3.6-0.1,5.2,1.1l12,8.9c1.7,1.2,2.5,2.8,2.4,4.4c-0.1,1.1-0.6,2.2-1.6,3.1l0.1,0.2l-1.5,0.8l-0.1-0.1
		C87.7,267.7,85.9,268,84.1,268z M73,263.2l5.3,2.6c3.1,1.6,8,1.6,11.3,0.2c1.1-0.8,1.7-1.8,1.8-2.8c0.1-1.3-0.6-2.5-2-3.6l-12-8.9
		c-1.4-1-2.9-1.4-4.3-1s-2.5,1.5-3.1,3.2l-0.4,1.1C68.1,257.4,69.7,261.5,73,263.2z"/>
	<path class="st4" d="M78.3,259v-3.3l-4.6-0.9c-0.3-0.1-0.4-0.3-0.4-0.6c0.1-0.3,0.3-0.4,0.6-0.4l4.4,0.9v-2.4
		c0-0.3,0.2-0.5,0.5-0.5s0.5,0.2,0.5,0.5v2.6l6.2,1.2L78.3,259z M79.3,255.9v1.7l2.8-1.1L79.3,255.9z"/>
	<path class="st5" d="M54.2,175.6c-3.1,2.9-5,7-5,11.6v5.1h0.1l1,59H60l1-59h8.4l0.8,60h10l0.8-60h0.2v-5.1c0-4.6-1.9-8.7-5-11.6
		v-5.3h-22C54.2,170.3,54.2,175.6,54.2,175.6z"/>
	<path d="M80.2,252.8h-10c-0.3,0-0.5-0.2-0.5-0.5l-0.8-59.5h-7.4l-1,58.5c0,0.3-0.2,0.5-0.5,0.5h-9.7c-0.3,0-0.5-0.2-0.5-0.5
		l-1-58.7c-0.1-0.1-0.1-0.2-0.1-0.3v-5.1c0-4.5,1.8-8.7,5-11.8v-5.1c0-0.3,0.2-0.5,0.5-0.5h22c0.3,0,0.5,0.2,0.5,0.5v5.1
		c3.2,3.1,5,7.3,5,11.8v5.1c0,0.2-0.1,0.3-0.2,0.4l-0.8,59.6C80.7,252.6,80.5,252.8,80.2,252.8z M70.7,251.8h9l0.8-59.5
		c0-0.1,0.1-0.3,0.2-0.4v-4.7c0-4.3-1.7-8.3-4.8-11.3c-0.1-0.1-0.2-0.2-0.2-0.4v-4.8h-21v4.8c0,0.1-0.1,0.3-0.2,0.4
		c-3.1,3-4.8,7-4.8,11.3v4.8c0.1,0.1,0.1,0.2,0.1,0.3l1,58.5h8.7l1-58.5c0-0.3,0.2-0.5,0.5-0.5h8.4c0.3,0,0.5,0.2,0.5,0.5
		L70.7,251.8z M54.2,175.6L54.2,175.6L54.2,175.6z"/>
	<rect x="63.2" y="169.8" transform="matrix(0.9989 -4.710537e-02 4.710537e-02 0.9989 -8.4508 3.2015)" width="1" height="22.2"/>
	<rect x="57.1" y="180.9" transform="matrix(0.1406 -0.9901 0.9901 0.1406 -120.9025 223.4788)" width="22.4" height="1"/>
	<rect x="54.2" y="174.9" width="23" height="1"/>
	<path d="M50.2,184.8c-0.3,0-0.5-0.2-0.5-0.5s0.2-0.5,0.5-0.5c3.2,0,5.5-0.7,6.9-2.2c1.2-1.3,1.8-3.2,1.6-5.7c0-0.3,0.2-0.5,0.5-0.5
		s0.5,0.2,0.5,0.5c0.2,2.8-0.5,5-1.9,6.5C56.3,183.9,53.7,184.8,50.2,184.8z"/>
	<path d="M79.3,184.8c-3.5,0-6-0.8-7.6-2.5c-1.4-1.5-2.1-3.7-1.9-6.5c0-0.3,0.3-0.5,0.5-0.5c0.3,0,0.5,0.3,0.5,0.5
		c-0.1,2.5,0.4,4.4,1.6,5.7c1.4,1.5,3.7,2.2,6.9,2.2c0.3,0,0.5,0.2,0.5,0.5S79.5,184.8,79.3,184.8z"/>
	<path class="st1" d="M84.2,153c0.8-1.9,1.3-4,1.3-6.2c0-8.6-6.9-15.5-15.5-15.5H58c-8.6,0-15.5,6.9-15.5,15.5
		c0,0.9,0.1,1.7,0.2,2.5L84.2,153z"/>
	<path d="M84.2,153l-41.5-3.7l-0.1-0.4c-0.1-0.7-0.1-1.4-0.1-2.1c0-8.5,7-15.5,15.5-15.5h12c8.5,0,15.5,7,15.5,15.5
		c0,2-0.4,4-1.1,5.9L84.2,153z M43.6,148.4l40,3.5c0.6-1.6,0.9-3.4,0.9-5.1c0-8-6.5-14.5-14.5-14.5H58c-8,0-14.5,6.5-14.5,14.5
		C43.5,147.3,43.5,147.9,43.6,148.4z"/>
	<path class="st6" d="M50,118.7c10.2,14.9,15.1,11.6,30.5,18.6c9.5-11,6.6-34.7,6.6-34.7c-0.4-11.8-10.2-22.3-19.3-23.2
		c0,0-1-0.1,0,0c-11.1-0.2-21.5,9.2-22,21.1C45.8,100.5,42.2,107.2,50,118.7z"/>
	<path d="M80.5,137.8h-0.2c-4.5-2.1-8.1-3.2-11.2-4.2c-7.6-2.4-12.1-3.9-19.4-14.6c-7.5-11-4.8-17.7-4.3-18.6
		C46,88.8,55.9,79.1,67.3,79h0.2h0.4l0,0c9,0.9,19.3,11.2,19.7,23.7c0,0,0.7,6,0.3,13.3c-0.4,6.7-2,16-7,21.8
		C80.8,137.8,80.6,137.8,80.5,137.8z M50.4,118.4c7.1,10.4,11.5,11.8,18.9,14.2c3.1,1,6.6,2.1,11,4.1c9-10.8,6.2-33.8,6.2-34.1
		c-0.4-12-10.2-21.9-18.8-22.7h-0.3c-11,0-20.7,9.4-21.2,20.6l-0.1,0.2C46.2,100.8,42.9,107.3,50.4,118.4z"/>
	<path class="st7" d="M56.8,131.3h16.4c2.8,0,5,2.2,5,5v41c-13,0-22,0-27,0c2.4-7.6,2.6-21.1,0.6-40.5c-0.3-2.7,1.7-5.2,4.5-5.5
		C56.5,131.3,56.7,131.3,56.8,131.3z"/>
	<path d="M77.8,177.3H51.2l0.2-0.6c2.2-7.7,2.4-21.1,0.4-39.8c-0.3-2.7,1.7-5.2,4.5-5.5c0.2,0,0.3,0,0.5,0h16.4c2.8,0,5,2.2,5,5
		L77.8,177.3z M52.6,176.3h24.2l0.4-40c0-2.2-1.8-4-4-4H56.8c-0.1,0-0.3,0-0.4,0c-1.1,0.1-2,0.6-2.7,1.5c-0.7,0.8-1,1.9-0.9,2.9
		C54.8,155.1,54.7,168.4,52.6,176.3z"/>
	<path class="st1" d="M41.5,158.3h9c1.7,0,3,1.3,3,3s-1.3,3-3,3h-9c-1.7,0-3-1.3-3-3S39.8,158.3,41.5,158.3z"/>
	<path d="M50.5,164.3h-9c-1.7,0-3-1.3-3-3s1.3-3,3-3h9c1.7,0,3,1.3,3,3S52.2,164.3,50.5,164.3z M41.5,159.3c-1.1,0-2,0.9-2,2
		s0.9,2,2,2h9c1.1,0,2-0.9,2-2s-0.9-2-2-2H41.5z"/>
	<path class="st1" d="M41.5,152.3h9c1.7,0,3,1.3,3,3s-1.3,3-3,3h-9c-1.7,0-3-1.3-3-3S39.8,152.3,41.5,152.3z"/>
	<path d="M50.5,158.3h-9c-1.7,0-3-1.3-3-3s1.3-3,3-3h9c1.7,0,3,1.3,3,3S52.2,158.3,50.5,158.3z M41.5,153.3c-1.1,0-2,0.9-2,2
		s0.9,2,2,2h9c1.1,0,2-0.9,2-2s-0.9-2-2-2H41.5z"/>
	<path class="st1" d="M41.5,148.3h10c1.1,0,2,0.9,2,2s-0.9,2-2,2h-10c-1.1,0-2-0.9-2-2S40.4,148.3,41.5,148.3z"/>
	<path d="M51.5,152.3h-10c-1.1,0-2-0.9-2-2s0.9-2,2-2h10c1.1,0,2,0.9,2,2S52.6,152.3,51.5,152.3z M41.5,149.3c-0.6,0-1,0.4-1,1
		s0.4,1,1,1h10c0.6,0,1-0.4,1-1s-0.4-1-1-1H41.5z"/>
	<path class="st0" d="M64.4,111.1L64.4,111.1c2.7,0,4.9,2.2,4.9,4.9c0,0.1,0,0.2,0,0.3l-1.5,23c-4.3-0.6-7.6-4.2-7.8-8.6l-0.5-14.4
		C59.4,113.5,61.6,111.2,64.4,111.1L64.4,111.1z"/>
	<path d="M67.7,139.3l-0.6-0.1c-4.1-0.8-7.1-4.3-7.2-8.5l-0.5-14.4c-0.1-2.8,2.1-5.1,4.8-5.2h0.2c2.7,0,4.9,2.2,4.9,4.9
		c0,0.1,0,0.2,0,0.3L67.7,139.3z M64.4,112.1L64.4,112.1c-2.3,0.1-4,1.9-3.9,4.1l0.5,14.4c0.1,3.5,2.5,6.5,5.9,7.4l1.4-21.9v-0.3
		C68.3,113.8,66.5,112.1,64.4,112.1z"/>
	<path class="st8" d="M65.2,103.8L65.2,103.8c2,0.1,3.5,1.7,3.4,3.7l-0.7,19.2c-0.1,2-1.7,3.5-3.7,3.4c-2-0.1-3.5-1.7-3.4-3.7
		l0.7-19.2C61.6,105.2,63.2,103.7,65.2,103.8z"/>
	<path class="st0" d="M52.1,96.4c-2.6-0.8-5.4,0.4-6.2,2.9c-0.8,2.4,0.7,5.1,3.3,5.9"/>
	<path d="M49.1,105.7c-2.9-0.9-4.5-3.9-3.6-6.6s3.9-4.1,6.8-3.2l-0.3,1c-2.4-0.8-4.8,0.4-5.5,2.5c-0.7,2.2,0.6,4.6,3,5.3L49.1,105.7
		z"/>
	<path class="st8" d="M50.9,97.9c1.5,0.2,2.6,1.6,2.4,3.1c-0.2,1.5-1.6,2.5-3.1,2.3s-2.6-1.6-2.4-3.1C48,98.7,49.4,97.7,50.9,97.9z"
		/>
	<path class="st0" d="M52.6,96c-1.4,2.1-2.3,4.5-2.7,7.1l-0.3,2.5c-1.3,9.4,5.2,18.1,14.6,19.4s18.1-5.2,19.4-14.6l0.3-2.5
		c1.3-9.4-5.2-18.1-14.6-19.4c-3-0.4-6,0-8.7,1C59.4,92.7,56.4,95.1,52.6,96z"/>
	<path d="M66.6,125.6c-0.8,0-1.6-0.1-2.5-0.2c-4.7-0.7-8.8-3.1-11.7-6.9c-2.8-3.8-4-8.4-3.4-13.1l0.3-2.5c0.4-2.7,1.3-5.1,2.8-7.3
		l0.1-0.2h0.2c3.6-0.8,6.5-3.1,7.7-6.2l0.1-0.2l0.3,0c2.8-1.1,5.9-1.5,8.9-1c9.7,1.4,16.4,10.3,15.1,20l-0.3,2.5
		C82.9,119.2,75.3,125.6,66.6,125.6z M52.9,96.4c-1.3,2-2.2,4.3-2.5,6.8l-0.3,2.5c-0.6,4.4,0.5,8.8,3.2,12.4s6.6,5.9,11,6.5
		c9.1,1.3,17.6-5.1,18.9-14.2l0.3-2.5c1.3-9.1-5.1-17.6-14.2-18.9c-2.8-0.4-5.6-0.1-8.2,0.9C59.7,93.1,56.7,95.5,52.9,96.4z"/>
	<path d="M66.7,116.5c-0.8,0-1.5-0.1-2.3-0.3c-2.1-0.6-3.6-1.7-4.3-3.1c-0.1-0.3,0-0.5,0.3-0.7c0.3-0.1,0.5,0,0.7,0.3
		c0.5,1.1,1.9,2.1,3.6,2.6c1.9,0.5,3.8,0.3,4.9-0.5c0.2-0.2,0.5-0.1,0.7,0.1s0.1,0.5-0.1,0.7C69.2,116.1,68,116.5,66.7,116.5z"/>
	<path d="M58.8,101.6c0.5,0.1,0.9,0.7,0.7,1.2c-0.1,0.5-0.7,0.9-1.2,0.7c-0.5-0.1-0.9-0.7-0.7-1.2C57.7,101.8,58.2,101.4,58.8,101.6
		z"/>
	<path d="M75,105.3c0.5,0.1,0.9,0.7,0.7,1.2s-0.7,0.9-1.2,0.7c-0.5-0.1-0.9-0.7-0.7-1.2C74,105.5,74.5,105.2,75,105.3z"/>
	<path class="st9" d="M68.7,110.7c0,0-2.6,1.4-4.3-1.1"/>
	<path d="M67.1,111.6c-1,0-2.2-0.4-3.1-1.7c-0.2-0.2-0.1-0.5,0.1-0.7s0.5-0.1,0.7,0.1c1.4,2,3.6,1,3.7,0.9c0.2-0.1,0.5,0,0.7,0.2
		c0.1,0.2,0,0.5-0.2,0.7C68.5,111.4,67.9,111.6,67.1,111.6z"/>
	<path class="st6" d="M61,89.3c10.7,5.7,16.4,13,16.9,21.7s-0.1,23.7-1.7,45c7.4-0.5,11.6-4.5,12.7-12.1c2.7-18.4,2.7-33.4-4.1-47.6
		C80.3,86.7,72.3,84.4,61,89.3z"/>
	<path d="M75.6,156.5v-0.6c1.6-21.2,2.2-36.3,1.7-44.9c-0.5-8.5-6.1-15.6-16.6-21.2l-0.9-0.5l1-0.4c11.6-5,19.8-2.6,24.4,7.1
		c7.4,15.6,6.4,32.2,4.1,47.9c-1.1,7.9-5.6,12.1-13.1,12.6H75.6z M62.2,89.4c10.2,5.7,15.7,13,16.2,21.6s0,23.6-1.7,44.5
		c6.8-0.6,10.6-4.5,11.6-11.7c3.8-26.2,0.3-38.2-4-47.3C80,87.4,72.8,85.1,62.2,89.4z"/>
	<path class="st10" d="M65.2,151.8c-0.2,0-0.4-0.1-0.5-0.4l-5.5-19.5c-0.1-0.3,0.1-0.5,0.3-0.6c0.3-0.1,0.5,0.1,0.6,0.3l5.5,19.5
		C65.7,151.4,65.5,151.6,65.2,151.8L65.2,151.8z"/>
	<path class="st10" d="M66,156.3c-0.8,0-1.5-0.7-1.5-1.5v-4c0-0.8,0.7-1.5,1.5-1.5s1.5,0.7,1.5,1.5v4
		C67.5,155.6,66.8,156.3,66,156.3z"/>
	<path class="st10" d="M65.5,150.8L65.5,150.8c-0.4-0.1-0.5-0.3-0.5-0.6l4-17c0.1-0.3,0.3-0.4,0.6-0.4c0.3,0.1,0.4,0.3,0.4,0.6
		l-4,17C65.9,150.7,65.7,150.8,65.5,150.8z"/>
</g>
</svg>
