<?xml version="1.0" encoding="utf-8"?>
<!-- Generator: Adobe Illustrator 22.0.1, SVG Export Plug-In . SVG Version: 6.00 Build 0)  -->
<!DOCTYPE svg PUBLIC "-//W3C//DTD SVG 1.1//EN" "http://www.w3.org/Graphics/SVG/1.1/DTD/svg11.dtd">
<svg version="1.1" id="Layer_1" xmlns="http://www.w3.org/2000/svg" xmlns:xlink="http://www.w3.org/1999/xlink" x="0px" y="0px"
	 viewBox="0 0 130 270" style="enable-background:new 0 0 130 270;" xml:space="preserve">
<style type="text/css">
	.st0{fill:#000066;}
	.st1{fill:#FFCC99;}
	.st2{fill:#EAAF75;}
	.st3{fill:#FFFFFF;}
	.st4{fill:#513600;}
	.st5{fill:#003366;}
	.st6{fill:#4A6E6E;}
	.st7{fill:#669999;}
	.st8{fill:#99CCCC;}
</style>
<title>steffan</title>
<desc>Created with Sketch.</desc>
<g>
	<path class="st0" d="M47.3,120.8c-1.1-1.5-2.5-2.3-4.2-2.6s-3.4,0.2-4.8,1.3c-1.4,1.2-2.3,2.6-2.5,4.5L32,151.3
		c-0.3,1.8,0.1,3.5,1.2,4.9c1.1,1.5,2.5,2.4,4.3,2.6s3.4-0.2,4.8-1.4c1.5-1.1,2.3-2.6,2.6-4.4l3.6-27.2
		C48.8,123.9,48.3,122.3,47.3,120.8z"/>
	<path d="M38.2,160.1c-0.3,0-0.7,0-1-0.1c-1.9-0.3-3.5-1.2-4.7-2.9c-1.2-1.6-1.6-3.4-1.4-5.3l3.8-27.4c0.3-2,1.2-3.6,2.7-4.8
		c1.6-1.2,3.4-1.7,5.3-1.4l0,0c1.9,0.3,3.5,1.2,4.7,2.8c1.2,1.6,1.7,3.4,1.4,5.4l-3.8,27.4c-0.3,2-1.2,3.6-2.8,4.8
		C41.2,159.6,39.7,160.1,38.2,160.1z M41.9,119.1c-1.3,0-2.5,0.4-3.6,1.3c-1.4,1.1-2.1,2.4-2.4,4.1l-3.8,27.4
		c-0.2,1.7,0.1,3.2,1.2,4.6c1,1.4,2.4,2.2,4,2.5c1.7,0.2,3.1-0.2,4.5-1.2s2.2-2.4,2.4-4.1l3.8-27.4c0.2-1.7-0.2-3.2-1.2-4.7
		c-1-1.4-2.3-2.2-4-2.4l0,0C42.5,119.1,42.2,119.1,41.9,119.1z"/>
	<path class="st1" d="M45.5,188.5l-0.1-1.1c-0.1-0.6-0.3-1.1-0.7-1.5c-0.4-0.3-0.8-0.4-1.2-0.5l0.7,0.8
		C44.9,186.9,45.4,187.6,45.5,188.5z M33.6,189.7c-0.2,1,0.1,0.6,1-1.2l0.4,4.2l1.9,2.2l1.4,10l0.1,0.2c0.1,0.4,0.3,0.7,0.6,0.9
		c0.5,0.4,0.9,0.5,1.5,0.4s1-0.3,1.2-0.8c0.3-0.4,0.5-0.8,0.4-1.3l-1.4-9.9l1.2-2.3l0.9,6.7c0.1,0.5,0.3,1,0.7,1.3
		c0.5,0.3,0.9,0.4,1.5,0.3c0.5-0.1,1-0.3,1.3-0.6c0.3-0.4,0.4-0.9,0.3-1.4L45.1,188c-0.1-0.7-0.6-1.4-1.2-1.9l-0.7-0.6l-3-2.4
		c-1.2-0.9-2.3-0.6-3.4,0.7l-2.6,4.9C33.8,189,33.6,189.3,33.6,189.7z"/>
	<path class="st2" d="M34.7,188.5c-0.9,1.9-1.3,2.3-1,1.3c-0.2,0.3-0.2,0.7-0.2,1.2l1.6,11.6c0.1,0.5,0.3,0.9,0.6,1.2
		c0.3,0.2,0.7,0.4,1.1,0.4c-0.1-0.1-0.1-0.2-0.1-0.4c0,0.1,0,0.3,0.1,0.4c0.1,0.4,0.3,0.7,0.6,1c0.3,0.2,0.7,0.3,1,0.4l-0.1-0.2
		l-1.4-10.2l-1.9-2.3L34.7,188.5z"/>
	<path d="M40.1,207c-0.6,0-1.1-0.2-1.6-0.6c-0.3-0.3-0.5-0.6-0.7-0.9c-0.3-0.1-0.7-0.2-1-0.4c-0.5-0.3-0.7-0.7-0.8-1.2
		c-0.3-0.1-0.6-0.2-0.8-0.4c-0.4-0.4-0.6-0.9-0.7-1.5L33,190.7c0-0.4,0-0.7,0-1c-0.1-0.1-0.1-0.2-0.1-0.3c0.1-0.4,0.2-0.8,0.5-1.2
		l2.4-4.7l0.1-0.1c1.6-2,3.2-1.3,3.9-0.8l1.8,1.5c0.2-0.1,0.4-0.1,0.6,0l3,2.5c0.2,0.2,0.2,0.4,0.1,0.7v0.2l1.5,10.7
		c0.1,0.6,0,1.3-0.3,1.8c-0.5,0.5-1,0.8-1.7,0.9c-0.6,0.1-1.2,0-1.8-0.4l-0.1-0.1c-0.4-0.4-0.7-0.9-0.8-1.6l-0.6-5.3l-0.4,0.8
		l1.4,10c0.1,0.6-0.1,1.2-0.5,1.7c-0.3,0.6-0.9,0.9-1.6,1C40.3,207,40.2,207,40.1,207z M38.8,205.2c0.1,0.2,0.2,0.3,0.4,0.5
		c0.3,0.3,0.7,0.4,1.1,0.3c0.4,0,0.7-0.2,0.8-0.5l0.1-0.1c0.2-0.3,0.3-0.6,0.3-0.9l-1.4-10.1c0-0.1,0-0.2,0-0.3l1.2-2.4
		c0.1-0.2,0.3-0.3,0.5-0.3s0.4,0.2,0.4,0.4l1,6.9c0.1,0.4,0.2,0.7,0.5,1c0.3,0.2,0.7,0.3,1.1,0.2c0.4-0.1,0.8-0.2,1-0.5
		s0.2-0.6,0.1-1l-1.4-10.8c0-0.1,0-0.2,0.1-0.3l-1.8-1.5c-0.2,0.1-0.4,0.1-0.6,0l-2.9-2.4c-0.6-0.4-1.4-0.8-2.5,0.6l-2.4,4.7
		c-0.1,0.2-0.2,0.4-0.3,0.6c0.1,0.1,0.1,0.3,0,0.5s-0.1,0.5-0.1,0.9l1.5,11.3c0,0.4,0.2,0.6,0.4,0.8l0.1,0.1
		c0.1-0.1,0.2-0.2,0.4-0.2c0.3,0,0.5,0.2,0.5,0.5c0.1,0.1,0.1,0.3,0.1,0.4v0.1c0,0.3,0.2,0.5,0.4,0.7c0.2,0.1,0.3,0.2,0.6,0.2l0,0
		c0-0.3,0.2-0.5,0.5-0.5c0.2,0,0.4,0.2,0.5,0.4c0.2,0.2,0.1,0.5,0,0.7H38.8z"/>
	<path class="st0" d="M34.5,183.7c0,1.2,0.6,1.8,1.8,1.8h4.5c1.2,0,1.8-0.6,1.8-1.8v-4.4c0-1.2-0.6-1.8-1.8-1.8h-4.5
		c-1.2,0-1.8,0.6-1.8,1.8V183.7z"/>
	<path d="M40.7,186h-4.5c-1.5,0-2.3-0.8-2.3-2.3v-4.4c0-1.5,0.8-2.3,2.3-2.3h4.5c1.5,0,2.3,0.8,2.3,2.3v4.4
		C43,185.2,42.2,186,40.7,186z M36.3,178c-0.9,0-1.3,0.4-1.3,1.3v4.4c0,0.9,0.4,1.3,1.3,1.3h4.5c0.9,0,1.3-0.4,1.3-1.3v-4.4
		c0-0.9-0.4-1.3-1.3-1.3H36.3z"/>
	<path class="st0" d="M44.4,168.8L44.4,168.8l-0.2-10.1c0-1.5-0.6-2.7-1.7-3.7c-1.2-1.1-2.5-1.6-4.1-1.5c-1.6,0-4.7-1.1-5.8,0
		c-0.7,0.7-0.7,5.8,0.3,15.3l0.2,4l0.1,4.1c0,1.4,0.6,2.6,1.7,3.6H43l0,0c1.1-1.1,1.6-2.3,1.6-3.8L44.4,168.8z"/>
	<path d="M42.7,181h-8.4c-0.1,0-0.2,0-0.3-0.1c-1.3-1.1-1.9-2.5-1.9-4.1l-0.1-4.2L31.5,154c0-0.3,0.2-0.5,0.5-0.5s0.5,0.2,0.5,0.5
		l0.6,22.8c0,1.3,0.5,2.3,1.4,3.2h8c1-1,1.5-2.1,1.5-3.4V156c0-0.3,0.2-0.5,0.5-0.5s0.5,0.2,0.5,0.5v20.6c0,1.6-0.6,3-1.9,4.2
		C43.1,180.9,42.9,181,42.7,181z"/>
	<path class="st0" d="M82.6,121.3c1-1.5,2.4-2.4,4.2-2.7c1.8-0.3,3.4,0.1,4.9,1.2s2.3,2.6,2.6,4.4l4.4,27.2c0.3,1.8-0.1,3.5-1.1,5
		c-1.1,1.5-2.5,2.4-4.2,2.7c-1.8,0.3-3.4-0.1-4.8-1.3c-1.5-1.1-2.4-2.5-2.7-4.4l-4.4-27.2C81.2,124.6,81.5,122.9,82.6,121.3z"/>
	<path d="M91.8,158.9c-1.5,0-2.9-0.5-4.2-1.4c-1.6-1.1-2.6-2.7-3-4.6l-4.4-26.7c-0.3-1.9,0.1-3.7,1.3-5.3c1.2-1.6,2.7-2.5,4.7-2.8
		l0,0c1.9-0.3,3.8,0.1,5.4,1.2c1.6,1.2,2.6,2.7,2.9,4.7l4.4,26.7c0.3,1.9-0.1,3.7-1.3,5.3c-1.2,1.6-2.8,2.6-4.7,2.9
		C92.6,158.9,92.2,158.9,91.8,158.9z M86.3,119c-1.7,0.3-3,1.1-4,2.5s-1.4,2.9-1.1,4.6l4.4,26.7c0.3,1.7,1.1,3,2.5,3.9
		c1.4,1,2.9,1.4,4.7,1.1c1.7-0.3,3-1.1,4.1-2.5c1-1.4,1.4-2.9,1.1-4.5l-4.5-26.7c-0.3-1.7-1.1-3-2.5-4S88.1,118.7,86.3,119L86.3,119
		z"/>
	<path class="st2" d="M97.7,190.1c0.1-0.5,0-0.9-0.2-1.3c0.3,1.1-0.1,0.6-1.2-1.3L96,192l-2.1,2.4l-1.4,10.8v0.3
		c0.4,0,0.8-0.2,1.1-0.4c0.4-0.3,0.6-0.7,0.7-1.1c0.1-0.1,0.1-0.2,0.1-0.4c0,0.1,0,0.3-0.1,0.4c0.5,0,0.9-0.2,1.2-0.4
		c0.4-0.3,0.5-0.7,0.6-1.2L97.7,190.1z"/>
	<path class="st1" d="M87.8,186.3l0.7-0.8c-0.4,0-0.9,0.2-1.2,0.5c-0.4,0.4-0.6,0.9-0.7,1.5l-0.1,1
		C86.6,187.7,87.1,186.9,87.8,186.3z M94.4,183.6c-1.1-1.3-2.1-1.5-3.2-0.6l-2.8,2.5l-0.6,0.6c-0.6,0.6-1,1.2-1.1,1.9l-1.2,10.5
		c-0.1,0.5,0,1,0.2,1.4c0.4,0.4,0.8,0.6,1.3,0.6s0.9-0.1,1.3-0.3c0.3-0.3,0.5-0.8,0.6-1.3l0.7-6.7l1.2,2.3l-1.1,9.9
		c0,0.5,0.1,0.9,0.4,1.2c0.2,0.5,0.6,0.7,1.1,0.8s0.9-0.1,1.4-0.5c0.3-0.3,0.5-0.6,0.6-0.9v-0.2l1.1-10.1l1.7-2.2l0.2-4.2
		c0.9,1.8,1.3,2.2,1,1.2c-0.1-0.3-0.2-0.7-0.5-1.1L94.4,183.6z"/>
	<path d="M91.6,207c-0.1,0-0.2,0-0.3,0c-0.7-0.1-1.2-0.4-1.5-1c-0.4-0.4-0.6-1-0.5-1.6l1.1-9.8l-0.3-0.7l-0.6,5
		c-0.1,0.7-0.4,1.2-0.8,1.6c-0.6,0.4-1.1,0.5-1.7,0.5c-0.6-0.1-1.2-0.3-1.6-0.8l-0.1-0.1c-0.3-0.5-0.4-1.1-0.3-1.8l1.1-10.4
		c0.2-0.9,0.6-1.6,1.3-2.2l0.6-0.6l2.8-2.5c0.8-0.6,2.3-1.4,4,0.6l0.1,0.1l2.5,4.8c0.2,0.4,0.4,0.7,0.5,1.1c0.2,0.4,0.1,0.8,0.1,1.2
		v0.3l-1.2,11.8c0,0.6-0.2,1.1-0.6,1.5c-0.3,0.3-0.6,0.4-0.9,0.5c-0.1,0.3-0.3,0.7-0.6,0.9c-0.4,0.3-0.7,0.5-1.2,0.5h-0.1
		c-0.1,0.1-0.2,0.3-0.3,0.4C92.6,206.8,92.1,207,91.6,207z M89.8,191.8c0.2,0,0.4,0.1,0.4,0.3l1.2,2.3c0,0.1,0.1,0.2,0.1,0.3
		l-1.1,9.9c0,0.3,0.1,0.6,0.3,0.8l0.1,0.1c0.2,0.3,0.4,0.5,0.7,0.5c0.3,0,0.7-0.1,1-0.4c0.2-0.2,0.4-0.4,0.4-0.7v-0.1
		c0-0.2,0.1-0.3,0.3-0.4c0.2-0.1,0.5,0,0.7,0.2l0.1,0.2l0.1-0.1c0.2-0.2,0.3-0.4,0.4-0.7c0-0.2,0.2-0.4,0.4-0.4
		c0.3,0,0.5-0.1,0.7-0.3s0.3-0.5,0.3-0.8l1.2-12.1c0-0.2,0.1-0.4,0-0.6l-0.1-0.2c-0.1-0.3-0.2-0.6-0.4-0.9l-2.5-4.8
		c-1.1-1.3-1.9-1-2.5-0.5l-2.8,2.5l-0.6,0.6c-0.6,0.5-0.9,1-1,1.7l-1.1,10.4c-0.1,0.4,0,0.8,0.1,1.1c0.3,0.3,0.6,0.4,0.9,0.5
		c0.3,0,0.7-0.1,1-0.3c0.2-0.2,0.3-0.5,0.4-1l0.7-6.7C89.3,192,89.4,191.8,89.8,191.8L89.8,191.8z"/>
	<path class="st0" d="M94.6,176.5l-4.4,0.1c-1.2,0-1.7,0.6-1.7,1.8l0.1,4.4c0,1.2,0.6,1.7,1.8,1.7l4.4-0.1c1.2,0,1.7-0.6,1.7-1.8
		l-0.1-4.4C96.4,177,95.8,176.5,94.6,176.5z"/>
	<path d="M90.3,185c-0.7,0-1.2-0.2-1.6-0.5c-0.4-0.4-0.6-0.9-0.6-1.7l-0.1-4.4c0-1.5,0.7-2.3,2.2-2.3l4.4-0.1c0.7,0,1.3,0.2,1.7,0.5
		c0.4,0.4,0.6,0.9,0.6,1.7l0.1,4.4c0,1.5-0.7,2.3-2.2,2.3L90.3,185L90.3,185z M94.7,177L94.7,177l-4.5,0.1c-0.9,0-1.2,0.4-1.2,1.3
		l0.1,4.4c0,0.4,0.1,0.8,0.3,1c0.2,0.2,0.5,0.3,1,0.3l4.4-0.1c0.9,0,1.2-0.4,1.2-1.3l-0.1-4.4c0-0.4-0.1-0.8-0.3-1
		C95.4,177.1,95.1,177,94.7,177z M94.6,176.5L94.6,176.5L94.6,176.5z"/>
	<path class="st0" d="M98.5,171.4L98.5,171.4v-4V171.4z M86.7,157.9c0-1.5,0.5-2.7,1.6-3.7c1.1-1.1,2.5-1.6,4-1.6s2.9,0.5,4,1.5
		c1.1,1.1,1.8,1.1,1.8,0v13.7l-0.1,4v4.1c0,1.4-0.5,2.6-1.6,3.6l-8.1,0.2l0,0c-1.1-1-1.7-2.3-1.7-3.7v-7.9h0.1L86.7,157.9z"/>
	<path d="M88.4,180c-0.1,0-0.3-0.1-0.4-0.1c-1.3-1.2-2-2.6-2-4.2v-8.1v-0.2v-9.8c0-0.3,0.2-0.5,0.5-0.5l0,0c0.3,0,0.5,0.2,0.5,0.5
		v10v0.2v7.9c0,1.3,0.5,2.4,1.5,3.4l8-0.2c1-0.9,1.4-2,1.4-3.3v-4.2l0,0v-17.8c0-0.3,0.2-0.5,0.5-0.5s0.5,0.2,0.5,0.5v13.7
		c0.1,0.1,0.1,0.2,0.1,0.3l-0.1,4l0,0v4c0,1.6-0.6,3-1.8,4.1c-0.1,0.1-0.2,0.1-0.3,0.1L88.4,180L88.4,180z"/>
	<path class="st0" d="M91,121.7c0.2-0.9,0.4-1.8,0.5-2.6h-3.2v-0.9c-15.4-7.5-30.4-7.5-45.2-0.2c0,0-0.8,0.4-2.4,1.3l2.3,4.6
		l-0.9,2.2c-2.6-1.2-3.8-1.6-3.7-1.3c2.8,4.4,4.3,6.7,4.3,7c0.4,3.2,1.2,6.2,2.4,9c1.3,3.1,1.9,5.7,1.7,7.7
		c-0.4,12.7,0.5,19.8,2.7,21.3v0.5l32.6,0.2c1.8-3.2,2.6-10.5,2.3-21.8v-0.3l0,0c0,0.1,0,0.2,0,0.3c0.2-0.3,0.8-2.1,2-5.5
		c1.5-4.2,2.4-8.1,2.8-11.6C89.3,131.3,89.9,128,91,121.7z"/>
	<path d="M81.6,171L81.6,171l-32.1-0.3c-0.3,0-0.5-0.2-0.5-0.5c0-0.1,0.1-0.3,0.2-0.4c-2.4-1.7-3.3-8.8-2.9-21.7
		c0.2-2-0.4-4.5-1.7-7.5c-1.2-2.8-2.1-5.9-2.5-9.1c0-0.3,0.2-0.5,0.4-0.6c0.3,0,0.5,0.2,0.6,0.4c0.4,3.1,1.2,6.1,2.4,8.9
		c1.4,3.1,2,5.8,1.8,7.9c-0.5,15.4,1.1,19.8,2.5,20.8c0.2,0.2,0.3,0.4,0.1,0.7l31.3,0.2c1.6-3.2,2.3-10.2,2.1-20.7
		c-0.2-0.1-0.3-0.3-0.3-0.5c0-0.1,0-0.3,0-0.4c0-0.3,0.2-0.4,0.5-0.4l0,0c0.2-0.6,0.7-2,1.8-5c1.4-4.2,2.3-8.1,2.7-11.5
		c0-0.3,0.3-0.5,0.5-0.4c0.3,0,0.5,0.3,0.4,0.5c-0.4,3.6-1.3,7.5-2.8,11.8c-1.3,3.9-1.8,5.1-1.9,5.4c0.3,11.4-0.5,18.6-2.3,22
		C81.9,170.9,81.7,171,81.6,171z M40.5,120c-0.2,0-0.3-0.1-0.4-0.2c-0.1-0.2-0.1-0.5,0.2-0.7c1.4-0.9,2.1-1.3,2.4-1.4
		c14.7-7.6,29.8-7.5,45.1,0.3c0.2,0.1,0.3,0.4,0.2,0.7c-0.1,0.2-0.4,0.3-0.7,0.2c-14.9-7.7-29.8-7.8-44.2-0.3H43
		c-0.1,0.1-0.6,0.3-2.2,1.3L40.5,120z"/>
	<path class="st1" d="M69.5,117.5c2,0,3-1.1,3-3.2v-7.7c-0.1,1.9-1.1,2.9-3,2.9h-8c-1.9,0-2.9-1-3-3v7.8c0,2.1,1,3.2,3,3.2
		C61.5,117.5,69.5,117.5,69.5,117.5z"/>
	<path class="st2" d="M69.5,91.5h-8c-2,0-3,1.1-3,3.2v11.8c0.1,2,1.1,3,3,3h8c1.9,0,2.9-1,3-2.9V94.7C72.5,92.6,71.5,91.5,69.5,91.5
		z"/>
	<path d="M69.5,119h-8c-1.6,0-3.5-0.7-3.5-3.8V94.8c0-3.2,1.9-3.8,3.5-3.8h8c1.6,0,3.5,0.7,3.5,3.8v20.4C73,118.3,71.1,119,69.5,119
		z M61.5,92c-1.7,0-2.5,0.9-2.5,2.8v20.4c0,1.9,0.8,2.8,2.5,2.8h8c1.7,0,2.5-0.9,2.5-2.8V94.8c0-1.9-0.8-2.8-2.5-2.8H61.5z"/>
	<rect x="53" y="95.1" transform="matrix(0.9488 -0.3159 0.3159 0.9488 -27.4399 21.9228)" class="st1" width="1.8" height="1"/>
	<path class="st1" d="M85,76.5c-1.5,0-2.8,0.5-3.9,1.5c-1,1-1.6,2.1-1.6,3.5s0.5,2.6,1.6,3.6s2.4,1.5,3.9,1.5s2.8-0.5,3.8-1.5
		c1.1-1,1.7-2.2,1.7-3.6S89.9,79,88.8,78C87.8,77,86.5,76.5,85,76.5z"/>
	<path class="st2" d="M82.5,79.4c-0.7,0.6-1,1.3-1,2.1s0.3,1.5,1,2.1s1.5,0.9,2.5,0.9s1.8-0.3,2.4-0.9c0.7-0.6,1.1-1.3,1.1-2.1
		s-0.4-1.5-1.1-2.1s-1.5-0.9-2.4-0.9S83.2,78.8,82.5,79.4z"/>
	<path d="M85,87c-1.6,0-3.1-0.5-4.3-1.6C79.5,84.3,79,83,79,81.5s0.6-2.8,1.7-3.9c1.2-1.1,2.6-1.6,4.3-1.6c1.6,0,3,0.5,4.2,1.6
		S91,80,91,81.5s-0.6,2.8-1.8,3.9C88,86.5,86.6,87,85,87z M85,77c-1.4,0-2.6,0.4-3.6,1.3c-0.9,0.9-1.4,1.9-1.4,3.1s0.5,2.3,1.4,3.2
		c1,0.9,2.2,1.3,3.6,1.3s2.5-0.4,3.5-1.3s1.5-2,1.5-3.2s-0.5-2.3-1.5-3.1C87.5,77.4,86.4,77,85,77z"/>
	<path class="st1" d="M42.1,77c-1,1-1.6,2.1-1.6,3.5s0.5,2.6,1.6,3.6s2.4,1.5,3.9,1.5s2.8-0.5,3.8-1.5c1.1-1,1.7-2.2,1.7-3.6
		S50.9,78,49.8,77c-1.1-1-2.4-1.5-3.8-1.5C44.5,75.5,43.2,76,42.1,77z M42.5,80.5c0-0.8,0.4-1.5,1.2-2.1s1.7-0.9,2.8-0.9
		s2,0.3,2.8,0.9s1.2,1.3,1.2,2.1s-0.4,1.5-1.2,2.1s-1.7,0.9-2.8,0.9s-2-0.3-2.8-0.9S42.5,81.3,42.5,80.5z"/>
	<path class="st2" d="M43.5,78.4c-0.7,0.6-1,1.3-1,2.1s0.3,1.5,1,2.1s1.5,0.9,2.5,0.9s1.8-0.3,2.4-0.9c0.7-0.6,1.1-1.3,1.1-2.1
		s-0.4-1.5-1.1-2.1c-0.7-0.6-1.5-0.9-2.4-0.9S44.2,77.8,43.5,78.4z"/>
	<path d="M46,86c-1.6,0-3.1-0.5-4.3-1.6S40,82,40,80.5s0.6-2.8,1.7-3.9c1.2-1.1,2.6-1.6,4.3-1.6c1.6,0,3,0.5,4.2,1.6S52,79,52,80.5
		s-0.6,2.8-1.8,3.9S47.6,86,46,86z M46,76c-1.4,0-2.6,0.4-3.6,1.3c-0.9,0.9-1.4,1.9-1.4,3.1s0.5,2.3,1.4,3.2c1,0.9,2.2,1.3,3.6,1.3
		c1.4,0,2.5-0.4,3.5-1.3s1.5-2,1.5-3.2s-0.5-2.3-1.5-3.1C48.5,76.4,47.4,76,46,76z"/>
	<path class="st1" d="M67.3,58.5h-3.6c-4.7,0-8.8,1.9-12.2,5.8c-3.3,3.9-5,8.6-5,14.2v8c0,5.5,1.7,10.2,5,14.1
		c3.4,3.9,7.4,5.9,12.2,5.9h3.6c4.7,0,8.8-2,12.1-5.9c3.4-3.9,5.1-8.6,5.1-14.1v-8c0-5.5-1.7-10.2-5.1-14.2
		C76.1,60.4,72.1,58.5,67.3,58.5z"/>
	<path d="M67.3,107h-3.6c-4.9,0-9.1-2-12.6-6.1c-3.4-4-5.1-8.8-5.1-14.4v-8c0-5.6,1.7-10.5,5.1-14.5c3.5-4,7.7-6,12.6-6h3.6
		c4.9,0,9.1,2,12.5,6S85,72.9,85,78.5v8c0,5.6-1.7,10.5-5.2,14.4C76.4,105,72.2,107,67.3,107z M63.7,59c-4.6,0-8.5,1.9-11.8,5.6
		c-3.2,3.8-4.9,8.5-4.9,13.8v8.1c0,5.4,1.6,10,4.9,13.8c3.3,3.8,7.2,5.7,11.8,5.7h3.6c4.6,0,8.5-1.9,11.7-5.7
		c3.3-3.8,4.9-8.4,4.9-13.8v-8c0-5.4-1.7-10-4.9-13.8c-3.2-3.7-7.2-5.6-11.7-5.6L63.7,59L63.7,59z"/>
	<path class="st3" d="M70.7,87.5H59.3c-1.2,0-1.8,0.6-1.8,1.7v2.5c0,1.2,0.6,1.7,1.8,1.7h11.3c1.2,0,1.8-0.6,1.8-1.7v-2.5
		C72.5,88.1,71.9,87.5,70.7,87.5z"/>
	<path d="M70.7,94H59.3c-1.5,0-2.3-0.8-2.3-2.2v-2.5c0-1.4,0.8-2.2,2.3-2.2h11.3c1.5,0,2.3,0.8,2.3,2.2v2.5C73,93.2,72.2,94,70.7,94
		z M59.3,88c-0.9,0-1.3,0.4-1.3,1.2v2.5c0,0.9,0.4,1.2,1.3,1.2h11.3c0.9,0,1.3-0.4,1.3-1.2v-2.5c0-0.9-0.4-1.2-1.3-1.2H59.3z"/>
	<path class="st4" d="M51.5,91.3c3.6,0.2,6.6,0.2,9,0s4-1,5-2.4c0.9,1.5,3,2.3,6.5,2.5c2.8,0.2,5.3,0.1,7.6,0
		c-0.7-1.9-1.3-3.3-1.9-4.2c-0.8-1.1-1.8-1.8-3.2-2.1c-4.8-0.2-7.7-0.3-8.5-0.3c-5-0.3-8.2-0.1-9.9,0.6
		C53.8,86.2,52.3,88.2,51.5,91.3z"/>
	<path class="st1" d="M67.5,85.6c0.7-0.6,1-1.3,1-2.1l0,0h-7l0,0c0,0.8,0.3,1.5,1,2.1s1.4,0.9,2.3,0.9h0.3
		C66.1,86.5,66.9,86.2,67.5,85.6z"/>
	<path class="st4" d="M67.8,95.5h-4.5c-0.5,0-0.7,0.2-0.7,0.6v0.8c0,0.4,0.2,0.6,0.7,0.6h4.5c0.5,0,0.7-0.2,0.7-0.6v-0.8
		C68.5,95.7,68.3,95.5,67.8,95.5z"/>
	<path class="st4" d="M86.2,67c1.1-5.6-0.4-8.5-4.5-8.9C80.9,58,80.2,58,79.5,58c0.1-0.5,0.1-1.1-0.1-1.8c-0.9-2.6-1.5-4.2-1.9-4.7
		s-0.8-1.1-1.2-1.8c-0.1-0.1-0.2-0.2-0.2-0.4c-0.6-0.8-1.2-1.5-2-2c-0.5-0.3-0.8-0.6-1.1-0.8c-4.1-2.6-7.5-2.6-10.3,0
		c-0.1,0.1-0.2,0.1-0.2,0.1c1.8,0.5,2.8,1.1,2.8,1.8c0,0.4-0.1,0.8-0.3,1.2c-0.2,0.3-0.4,0.5-0.7,0.7c-0.8,0.6-2.9,1-6.5,1.3
		s-6.1,0.9-7.4,1.8c-1.9,1.4-3.3,3.1-4.1,5.2c-0.4,1.1-0.6,2-0.6,2.7l-1.2,14.5l3.4,1.4c0.2-5.5,0.6-8.8,1.3-10
		c0.9-1.4,1.5-2.2,1.7-2.4c0.9-0.7,2.5-0.8,4.7-0.4s5.3,0.4,9.3,0s7.1-0.9,9.5-1.4s4.4,1,6,4.7c1.6,3.6,2.2,6.9,1.7,9.8l3.5-1.6
		C85.8,71.5,85.9,68.6,86.2,67z"/>
	<path d="M82.3,78c-0.1,0-0.2,0-0.3-0.1c-0.1-0.1-0.2-0.3-0.2-0.5c0.5-2.8-0.1-6-1.7-9.6c-1.5-3.4-3.3-4.9-5.4-4.4l0,0
		c-2.4,0.5-5.6,1-9.6,1.4s-7.2,0.4-9.4,0c-2.1-0.4-3.5-0.3-4.4,0.3c-0.1,0.1-0.4,0.3-1.6,2.3c-0.5,0.7-1.1,3-1.3,9.7
		c0,0.2-0.1,0.3-0.2,0.4c-0.1,0.1-0.3,0.1-0.5,0l-3.4-1.4C44.1,76,44,75.8,44,75.6l0.8-14.1c0-0.8,0.3-1.8,0.7-2.9
		c0.9-2.2,2.3-4,4.3-5.5c1.4-1,3.9-1.7,7.7-1.9c4.3-0.4,5.8-0.9,6.3-1.2c0.3-0.2,0.4-0.4,0.6-0.6c0.2-0.3,0.3-0.6,0.3-0.9
		c0-0.2-0.2-0.7-2.5-1.4c-0.2-0.1-0.4-0.3-0.4-0.5s0.1-0.3,0.3-0.4l0.1-0.1c2.9-2.7,6.6-2.7,10.9-0.1c0.3,0.3,0.7,0.5,1.2,0.8
		c0.8,0.5,1.6,1.3,2.2,2.1c-0.1,0.2,0,0.3,0,0.3l0.1,0.1c0.4,0.7,0.8,1.3,1.2,1.8c0.4,0.6,1.1,2.2,2,4.9c0.2,0.6,0.3,1.1,0.2,1.5
		c0.6,0,1.1,0.1,1.7,0.1c1.8,0.2,3.2,0.8,4.1,2c1.2,1.6,1.5,4.1,0.8,7.5c-0.3,1.5-0.4,4.5-0.4,8.7c0,0.2-0.1,0.4-0.3,0.5L82.5,78
		H82.3z M75.5,62.4c2.2,0,4,1.7,5.6,5.1c1.5,3.3,2.1,6.4,1.9,9.2l2.4-1.1c0-4.2,0.1-7,0.4-8.6c0.6-3.1,0.4-5.3-0.6-6.7
		c-0.7-1-1.8-1.5-3.4-1.6c-1-0.2-1.7-0.2-2.4-0.2c-0.2,0-0.3-0.1-0.4-0.2c-0.1-0.1-0.1-0.3-0.1-0.4c0.1-0.4,0.1-0.9-0.1-1.6
		c-1.1-3.1-1.6-4.2-1.8-4.6c-0.4-0.5-0.8-1.1-1.2-1.8c-0.2-0.1-0.3-0.3-0.3-0.5c-0.5-0.7-1.1-1.3-1.9-1.8c-0.5-0.3-0.9-0.6-1.2-0.8
		c-3.6-2.3-6.6-2.4-9.1-0.5c1.5,0.5,2.2,1.2,2.3,2c0,0.6-0.1,1.1-0.4,1.5c-0.2,0.3-0.5,0.6-0.8,0.9c-0.5,0.4-1.8,1-6.8,1.5
		c-3.5,0.3-5.9,0.8-7.2,1.8c-1.8,1.3-3.1,3-3.9,5c-0.4,1-0.6,1.9-0.6,2.6l-0.8,13.9l2.4,1c0.2-5.2,0.6-8.3,1.4-9.5
		c1.2-2,1.7-2.4,1.9-2.6c1-0.8,2.7-0.9,5.1-0.5c2.2,0.4,5.2,0.4,9.1,0s7.1-0.9,9.5-1.4C74.8,62.4,75.1,62.4,75.5,62.4z M74.6,63
		L74.6,63L74.6,63z"/>
	<path class="st4" d="M60.2,80.2c0.2-0.2,0.3-0.4,0.3-0.7s-0.1-0.5-0.3-0.7c-0.2-0.2-0.4-0.3-0.7-0.3s-0.5,0.1-0.7,0.3
		c-0.2,0.2-0.3,0.4-0.3,0.7s0.1,0.5,0.3,0.7c0.2,0.2,0.4,0.3,0.7,0.3S60,80.4,60.2,80.2z"/>
	<path class="st4" d="M72.2,80.2c0.2-0.2,0.3-0.4,0.3-0.7s-0.1-0.5-0.3-0.7c-0.2-0.2-0.4-0.3-0.7-0.3s-0.5,0.1-0.7,0.3
		c-0.2,0.2-0.3,0.4-0.3,0.7s0.1,0.5,0.3,0.7c0.2,0.2,0.4,0.3,0.7,0.3S72,80.4,72.2,80.2z"/>
	<path class="st5" d="M91.4,261.3c-1.4-1.2-3.8-2.5-7.3-3.8C87.2,258.8,89.7,260.1,91.4,261.3z M70.4,253.6c0,0.1,0,0.2,0,0.4
		c-1.5,3.9-1.7,6.8-0.8,8.7c0.6,0.7,1.5,1.3,2.7,1.8c10.2,2.6,16.6,3,19.2,1.2c0.8-0.3,1-1.3,0.8-2.9c-0.1-0.6-0.5-1.2-1.2-1.8
		c-1.7-1.1-4.1-2.3-7.1-3.6c-0.4-0.1-0.8-0.3-1.2-0.5C76.6,254.5,72.5,253.5,70.4,253.6z"/>
	<path d="M86.9,270c-3.7,0-8.9-1-15.4-2.9c-1.5-0.6-2.6-1.5-3.3-2.4c-1.2-2.5-1-6.2,0.7-11.3V253c0-0.3,0.2-0.5,0.5-0.5
		c2.4-0.2,6.8,1,13.5,3.8l0,0l0,0c0.2,0.1,0.3,0.1,0.5,0.2s0.5,0.2,0.7,0.3c3.4,1.3,5.8,2.5,7.2,3.7c1.9,1.3,2.9,2.6,3.1,3.7
		c0.2,2.2-0.2,3.6-1.3,4.1C91.8,269.5,89.8,270,86.9,270z M68.5,260.3c-0.1,1.6,0.1,2.9,0.6,3.9c0.5,0.7,1.4,1.4,2.7,2
		c11,3.2,18,3.7,20.7,1.4l0.1-0.1c0.9-0.4,0.9-1.9,0.8-3.1c-0.1-0.4-0.3-0.8-0.7-1.3c0.1,1.6-0.2,2.6-1.1,3.1
		c-2.7,2-9.1,1.6-19.5-1.1c-1.4-0.5-2.3-1.2-3-1.9l-0.1-0.1C68.8,262.2,68.6,261.3,68.5,260.3z M70,262.5c0.5,0.6,1.3,1.1,2.5,1.6
		c9.9,2.6,16.2,3,18.6,1.2l0.1-0.1c0.7-0.3,0.7-1.5,0.5-2.5c0-0.4-0.4-1-1-1.5c-1.6-1.1-4-2.3-7-3.6c-0.4-0.1-0.8-0.3-1.2-0.5
		c-5.6-2.1-9.5-3.1-11.7-3.2v0.1C69.4,258,69.2,260.8,70,262.5z"/>
	<path class="st5" d="M46.2,257.4c-3.4,1.4-5.8,2.7-7.1,3.8C40.7,260.1,43.1,258.8,46.2,257.4z M59.7,254c0-0.1,0-0.3,0-0.4
		c-2-0.1-6.1,0.9-12.2,3.2c-0.4,0.2-0.8,0.3-1.2,0.5c-3,1.3-5.4,2.5-7,3.6c-0.7,0.6-1.1,1.2-1.2,1.8c-0.2,1.6,0.1,2.6,0.8,2.9
		c2.5,1.9,8.8,1.5,18.8-1.2c1.2-0.5,2.1-1.1,2.7-1.7C61.4,260.8,61.1,257.9,59.7,254z"/>
	<path d="M43.4,270c-2.8,0-4.8-0.5-6.1-1.6c-1.1-0.5-1.5-1.9-1.3-4.1c0.2-1.2,1.2-2.4,3.1-3.8c1.3-1.1,3.7-2.4,7-3.7
		c0.2-0.1,0.5-0.2,0.7-0.3c0.1,0,0.3-0.1,0.4-0.2c6.6-2.8,10.9-4,13.3-3.8c0.3,0,0.5,0.2,0.5,0.5v0.4c1.6,5.1,1.9,8.7,0.7,11.2
		c-0.7,1-1.7,1.8-3.2,2.5C52.1,269,47.1,270,43.4,270z M37.7,263.1c-0.4,0.5-0.6,0.9-0.6,1.3c-0.1,1.2-0.1,2.7,0.7,3.1l0.1,0.1
		c2.6,2.3,9.4,1.8,20.3-1.4c1.2-0.5,2.1-1.2,2.7-2c0.5-1,0.6-2.2,0.6-3.7c0,1-0.3,1.8-0.6,2.6l-0.1,0.1c-0.6,0.7-1.6,1.4-2.9,1.9
		c-10.2,2.8-16.5,3.1-19.2,1.1C37.9,265.7,37.6,264.7,37.7,263.1z M46.6,257.7c-2.9,1.3-5.3,2.5-6.9,3.6c-0.6,0.5-0.9,1-1,1.4
		c-0.1,1-0.1,2.2,0.5,2.5l0.1,0.1c2.4,1.8,8.5,1.4,18.3-1.3c1-0.4,1.9-0.9,2.4-1.5c0.9-1.7,0.6-4.5-0.8-8.3v-0.1
		c-2.1,0-5.9,1.1-11.4,3.2l0,0C47.4,257.4,47,257.6,46.6,257.7z"/>
	<path class="st6" d="M80.5,181l-2.5-0.3v75.8h2.5V181z M78,180.8l2.5,0.3v-10.6H78V180.8z M71.6,185.7l-16.5-3.1l12.2,5.5h1.6v68.4
		h3.8v-70.8H71.6z M58.1,185.1v71.4h2.7v-68.4H68v-2.4L58.1,185.1z M51.5,179.5l-2,0.8v76.2h2V179.5z M51.5,170.5h-2v10.1l2-0.8
		V170.5z"/>
	<path class="st7" d="M71.9,170.5c0.3,5.4,2.3,8.8,6.1,10.1v-10.1H71.9z M51.5,170.5v9.5c3.2,0.7,5-2.5,5.6-9.5H51.5z M62.7,185.4
		h4.6l0.2-14.6l-0.2,14.6H71v71.1h7v-75.9c-3.9-1.3-1.3-4.4-1.5-9.8l-15.3-0.3L62.7,185.4z M61.2,170.5h-8.9
		c-0.6,6.8,2.5,9.8-0.8,9.2v76.8h6.7v-71.1h4.5L61.2,170.5z"/>
	<path d="M80.5,257.4H68.8c-0.3,0-0.5-0.2-0.5-0.5v-68.5h-6.9v68.5c0,0.3-0.2,0.5-0.5,0.5H49.5c-0.3,0-0.5-0.2-0.5-0.5v-86.4
		c0-0.3,0.2-0.5,0.5-0.5h22.4l0,0l0,0h8.6c0.3,0,0.5,0.2,0.5,0.5v10.7l0,0v75.7C81,257.2,80.8,257.4,80.5,257.4z M69.3,256.4H80
		v-74.8l-2.1-0.3h-0.1c-3.9-1.4-6.1-4.9-6.4-10.4H68l-0.2,16.4h1c0.3,0,0.5,0.2,0.5,0.5V256.4z M58.1,256.4h2.3v-68.5
		c0-0.3,0.2-0.5,0.5-0.5h1.6l-0.2-1.6c-0.1-0.1-0.2-0.2-0.2-0.3L60.6,171h-2.9c-0.4,4.7-1.5,7.6-3.2,8.9c-0.9,0.6-1.9,0.9-3,0.6H50
		v75.9H58.1z M63.5,187.4h3.3l0,0l0.1-2.4l0.1-14h-5.3l1.4,13.8c0.1,0.1,0.2,0.2,0.2,0.3L63.5,187.4L63.5,187.4z M78.1,180.4
		l1.9,0.3V171h-7.6C72.7,176,74.6,179.1,78.1,180.4z M50,179.5h1.5h0.1c0.9,0.2,1.6,0,2.3-0.5c1.4-1.1,2.4-3.8,2.8-8.1H50
		C50,170.9,50,179.5,50,179.5z"/>
	<path class="st8" d="M81,250.1H68c-1,0-1.5,0.3-1.5,1v3.9c0,0.6,0.5,1,1.5,1h12.9c1,0,1.5-0.3,1.5-1v-3.9
		C82.5,250.4,82,250.1,81,250.1z"/>
	<path d="M80.5,256.5H68c-1.9,0-2.1-1.1-2.1-1.6V251c0-0.5,0.2-1.6,2.1-1.6h12.5c1.9,0,2.1,1.1,2.1,1.6v3.9
		C82.6,255.4,82.4,256.5,80.5,256.5z M68,250.7c-0.9,0-0.9,0.3-0.9,0.4v3.9c0,0.1,0,0.4,0.9,0.4h12.5c0.9,0,0.9-0.3,0.9-0.4v-3.9
		c0-0.1,0-0.4-0.9-0.4H68z"/>
	<path class="st8" d="M61.1,250.1H48.9c-0.9,0-1.4,0.3-1.4,1v3.9c0,0.6,0.5,1,1.4,1h12.2c0.9,0,1.4-0.3,1.4-1v-3.9
		C62.5,250.4,62,250.1,61.1,250.1z"/>
	<path d="M61.1,256.5H48.9c-1.8,0-2-1.1-2-1.6V251c0-0.5,0.2-1.6,2-1.6h12.2c1.8,0,2,1.1,2,1.6v3.9
		C63.1,255.4,62.9,256.5,61.1,256.5z M48.9,250.7c-0.8,0-0.8,0.3-0.8,0.4v3.9c0,0.1,0,0.4,0.8,0.4h12.2c0.8,0,0.8-0.3,0.8-0.4v-3.9
		c0-0.1,0-0.4-0.8-0.4H48.9z"/>
</g>
</svg>
