<?xml version="1.0" encoding="utf-8"?>
<!-- Generator: Adobe Illustrator 22.0.1, SVG Export Plug-In . SVG Version: 6.00 Build 0)  -->
<!DOCTYPE svg PUBLIC "-//W3C//DTD SVG 1.1//EN" "http://www.w3.org/Graphics/SVG/1.1/DTD/svg11.dtd">
<svg version="1.1" id="Layer_1" xmlns="http://www.w3.org/2000/svg" xmlns:xlink="http://www.w3.org/1999/xlink" x="0px" y="0px"
	 viewBox="0 0 130 270" style="enable-background:new 0 0 130 270;" xml:space="preserve">
<style type="text/css">
	.st0{fill:#000066;}
	.st1{fill:#FFCC99;}
	.st2{fill:#EAAF75;}
	.st3{fill:#E3365F;}
	.st4{fill:#FFFFFF;}
	.st5{fill:#513600;}
	.st6{fill:#003366;}
	.st7{fill:#4A6E6E;}
	.st8{fill:#669999;}
	.st9{fill:#99CCCC;}
</style>
<g>
	<path class="st0" d="M48.3,120.8c-1.1-1.5-2.5-2.3-4.2-2.6s-3.4,0.2-4.8,1.3c-1.4,1.2-2.3,2.6-2.5,4.5L33,151.3
		c-0.3,1.8,0.1,3.5,1.2,4.9c1.1,1.5,2.5,2.4,4.3,2.6s3.4-0.2,4.8-1.4c1.5-1.1,2.3-2.6,2.6-4.4l3.6-27.2
		C49.8,123.9,49.3,122.3,48.3,120.8z"/>
	<path d="M39.2,160.1c-0.3,0-0.7,0-1-0.1c-1.9-0.3-3.5-1.2-4.7-2.9c-1.2-1.6-1.6-3.4-1.4-5.3l3.8-27.4c0.3-2,1.2-3.6,2.7-4.8
		c1.6-1.2,3.4-1.7,5.3-1.4l0,0c1.9,0.3,3.5,1.2,4.7,2.8c1.2,1.6,1.7,3.4,1.4,5.4l-3.8,27.4c-0.3,2-1.2,3.6-2.8,4.8
		C42.2,159.6,40.7,160.1,39.2,160.1z M42.9,119.1c-1.3,0-2.5,0.4-3.6,1.3c-1.4,1.1-2.1,2.4-2.4,4.1l-3.8,27.4
		c-0.2,1.7,0.1,3.2,1.2,4.6c1,1.4,2.4,2.2,4,2.5c1.7,0.2,3.1-0.2,4.5-1.2s2.2-2.4,2.4-4.1l3.8-27.4c0.2-1.7-0.2-3.2-1.2-4.7
		c-1-1.4-2.3-2.2-4-2.4l0,0C43.5,119.1,43.2,119.1,42.9,119.1z"/>
	<path class="st1" d="M111,117l-0.9,0.6c-0.5,0.4-0.8,0.9-0.9,1.3s0,0.9,0.2,1.3l0.3-1C109.9,118.3,110.3,117.6,111,117z
		 M117.9,126.8c1-0.3,0.4-0.4-1.6-0.3l3.5-2.4l1-2.7l8-6.2c0.1,0,0.1-0.1,0.1-0.2c0.3-0.3,0.4-0.6,0.5-1c0.1-0.6,0-1.1-0.3-1.5
		s-0.8-0.7-1.3-0.6c-0.5-0.1-0.9,0-1.3,0.3l-7.9,6.2l-2.6,0.1l5.3-4.2c0.4-0.4,0.7-0.8,0.8-1.2c0-0.5-0.2-1-0.5-1.4
		s-0.7-0.7-1.2-0.8c-0.5,0-1,0.1-1.4,0.5l-8.3,6.5c-0.6,0.5-0.9,1.2-1,2l-0.2,0.9l-0.6,3.8c-0.2,1.4,0.6,2.3,2.3,2.6l5.5-0.2
		C117.2,126.9,117.6,126.9,117.9,126.8z"/>
	<path class="st2" d="M116.3,126.3c2.1-0.1,2.6,0,1.6,0.3c0.4,0,0.8-0.2,1.1-0.5l9.3-7.2c0.4-0.3,0.6-0.7,0.7-1.1
		c0-0.4,0-0.8-0.2-1.2c-0.1,0.1-0.1,0.2-0.3,0.3c0.1-0.1,0.2-0.2,0.3-0.3c0.3-0.2,0.5-0.6,0.5-1s-0.1-0.7-0.2-1.1
		c0,0.1-0.1,0.2-0.1,0.2l-8.1,6.3l-1,2.8L116.3,126.3z"/>
	<path d="M111.3,127.8L111.3,127.8c-2.6-0.4-2.8-2.1-2.7-3l0.4-2.3c-0.2-0.1-0.3-0.3-0.3-0.5l0.7-3.8c0-0.3,0.3-0.4,0.5-0.4l0.1-0.1
		l8.5-6.6c0.5-0.4,1.1-0.6,1.7-0.6c0.7,0.2,1.2,0.5,1.6,1s0.6,1.1,0.6,1.7v0.1c-0.1,0.6-0.5,1.1-1,1.5l-4.2,3.3h0.9l7.9-6.2
		c0.5-0.4,1.1-0.5,1.7-0.4c0.7,0,1.2,0.3,1.7,0.8c0.4,0.5,0.6,1.2,0.4,1.9c-0.1,0.4-0.2,0.7-0.4,1c0.1,0.3,0.2,0.7,0.1,1
		c-0.1,0.6-0.3,1-0.6,1.3c0.1,0.3,0.1,0.6,0,0.9c-0.2,0.6-0.5,1-0.9,1.3l-9.1,6.9c-0.3,0.2-0.6,0.4-0.9,0.5
		c-0.1,0.1-0.2,0.2-0.3,0.2c-0.4,0.1-0.8,0.2-1.3,0.2L111.3,127.8L111.3,127.8z M110,120.7c0.2,0.1,0.3,0.3,0.3,0.5l-0.6,3.7
		c-0.1,0.7,0,1.6,1.7,1.9l5.3-0.2c0.2,0,0.5,0,0.6,0c0.1-0.1,0.2-0.2,0.4-0.3c0.3,0,0.5-0.1,0.8-0.4l9.1-6.9
		c0.3-0.2,0.5-0.5,0.5-0.8V118c-0.1,0-0.3-0.1-0.4-0.2c-0.1-0.2-0.1-0.5,0.2-0.7c0.1-0.1,0.2-0.2,0.3-0.3l0,0
		c0.2-0.2,0.3-0.4,0.4-0.7c0-0.2,0-0.4-0.1-0.6l0,0c-0.2,0.1-0.5,0.1-0.7-0.2c-0.1-0.2-0.1-0.5,0.1-0.6c0.1-0.2,0.4-0.4,0.6-0.3
		l0.2,0.1c0.1-0.2,0.2-0.4,0.2-0.6c0.1-0.4,0-0.8-0.3-1.1c-0.2-0.3-0.5-0.5-0.9-0.5h-0.1c-0.3-0.1-0.6,0-0.9,0.2l-8.1,6.3
		c-0.1,0.1-0.2,0.1-0.3,0.1l-2.7,0.1c-0.2,0-0.4-0.1-0.5-0.3c-0.1-0.2,0-0.4,0.2-0.6l5.5-4.3c0.3-0.3,0.5-0.6,0.6-0.9
		c0-0.4-0.1-0.7-0.4-1.1c-0.3-0.3-0.6-0.5-1-0.6c-0.3,0-0.6,0.1-1,0.4l-8.5,6.6c-0.1,0.1-0.2,0.1-0.3,0.1L110,120.7z"/>
	<path class="st0" d="M113.5,129.3c0.7-1,0.5-1.8-0.5-2.5l-3.7-2.5c-1-0.7-1.8-0.5-2.5,0.5l-2.5,3.7c-0.7,1-0.5,1.8,0.5,2.5l3.7,2.5
		c1,0.7,1.8,0.5,2.5-0.5L113.5,129.3z"/>
	<path d="M109.7,134.3c-0.4,0-0.9-0.2-1.4-0.5l-3.7-2.5c-0.6-0.4-1-0.9-1.1-1.4s0.1-1.1,0.5-1.7l2.5-3.7c0.8-1.2,1.9-1.4,3.2-0.6
		l3.7,2.5c0.6,0.4,1,0.9,1.1,1.4s-0.1,1.1-0.5,1.7l-2.5,3.7C111,133.9,110.4,134.3,109.7,134.3z M108.9,133c0.7,0.5,1.3,0.4,1.8-0.4
		l2.5-3.7c0.3-0.4,0.4-0.7,0.3-1s-0.3-0.5-0.6-0.8l-3.7-2.5c-0.7-0.5-1.3-0.4-1.8,0.4l-2.5,3.7c-0.3,0.4-0.4,0.7-0.3,1
		s0.3,0.5,0.6,0.8L108.9,133z"/>
	<path class="st0" d="M32.2,138.5L32.2,138.5l7.2,7.1c1,1,1.6,2.3,1.5,3.8c0,1.6-0.6,2.9-1.7,4c-1.1,1.1-2.4,4.2-4,4.2
		c-1,0.1-4.7-3.5-11-10.7l-2.8-2.8l-2.9-2.9c-1-1-1.5-2.2-1.5-3.7l5.5-5.9h0.1c1.5-0.1,2.8,0.4,3.9,1.4L32.2,138.5z"/>
	<path d="M34.6,158.1c-0.1,0-0.3,0-0.4-0.1l-16.3-16c-1.2-1.1-1.7-2.5-1.7-4.2c0-0.1,0.1-0.2,0.1-0.3l5.7-6.1
		c0.1-0.1,0.2-0.2,0.4-0.2c1.8-0.1,3.2,0.4,4.4,1.5l15.1,14c0.2,0.2,0.2,0.5,0,0.7s-0.5,0.2-0.7,0l-14.9-13.9
		c-1-0.9-2.1-1.3-3.5-1.3l-5.5,5.9c0,1.3,0.4,2.4,1.4,3.2l3,3l13.2,13c0.2,0.2,0.2,0.5,0,0.7C34.9,158.1,34.8,158.1,34.6,158.1z"/>
	<path class="st0" d="M83.6,121.3c1-1.5,2.4-2.4,4.2-2.7c1.8-0.3,3.4,0.1,4.9,1.2s2.3,2.6,2.6,4.4l4.4,27.2c0.3,1.8-0.1,3.5-1.1,5
		c-1.1,1.5-2.5,2.4-4.2,2.7c-1.8,0.3-3.4-0.1-4.8-1.3c-1.5-1.1-2.4-2.5-2.7-4.4l-4.4-27.2C82.2,124.6,82.5,122.9,83.6,121.3z"/>
	<path d="M92.8,158.9c-1.5,0-2.9-0.5-4.2-1.4c-1.6-1.1-2.6-2.7-3-4.6l-4.4-26.7c-0.3-1.9,0.1-3.7,1.3-5.3c1.2-1.6,2.7-2.5,4.7-2.8
		l0,0c1.9-0.3,3.8,0.1,5.4,1.2c1.6,1.2,2.6,2.7,2.9,4.7l4.4,26.7c0.3,1.9-0.1,3.7-1.3,5.3c-1.2,1.6-2.8,2.6-4.7,2.9
		C93.6,158.9,93.2,158.9,92.8,158.9z M87.3,119c-1.7,0.3-3,1.1-4,2.5s-1.4,2.9-1.1,4.6l4.4,26.7c0.3,1.7,1.1,3,2.5,3.9
		c1.4,1,2.9,1.4,4.7,1.1c1.7-0.3,3-1.1,4.1-2.5c1-1.4,1.4-2.9,1.1-4.5l-4.5-26.7c-0.3-1.7-1.1-3-2.5-4S89.1,118.7,87.3,119L87.3,119
		z"/>
	<path class="st2" d="M7.6,128.5c0.3,0.4,0.6,0.7,1,0.9c-0.9-0.6-0.3-0.6,1.8,0.2l-2.7-3.7v-3.2l-6-9.2c-0.1,0-0.1-0.1-0.1-0.2
		c-0.3,0.3-0.5,0.6-0.6,1c-0.1,0.5,0,0.9,0.1,1.3c0,0.1,0.1,0.3,0.2,0.4c-0.1-0.1-0.1-0.2-0.2-0.4c-0.3,0.3-0.6,0.7-0.7,1.1
		c-0.1,0.5,0,0.9,0.3,1.3L7.6,128.5z"/>
	<path class="st1" d="M17.6,125.1l-0.1,1c0.3-0.3,0.5-0.7,0.6-1.1c0-0.5-0.1-1.1-0.5-1.6l-0.5-0.9C17.6,123.3,17.7,124.1,17.6,125.1
		z M14.2,131.3c1.6,0.3,2.6-0.2,2.8-1.6l0.5-3.7l0.1-0.9c0.1-0.8,0-1.6-0.4-2.2l-5.8-8.7c-0.3-0.5-0.6-0.8-1.1-0.9
		c-0.5,0-1,0.1-1.4,0.3c-0.4,0.3-0.7,0.7-0.8,1.1c0,0.5,0.1,0.9,0.3,1.4l3.7,5.6l-2.4-1l-5.5-8.3c-0.3-0.4-0.7-0.6-1.1-0.7
		c-0.5-0.2-0.9-0.2-1.4,0.1c-0.2,0.3-0.5,0.7-0.5,1.3c-0.1,0.4,0,0.8,0.2,1.1c0,0.1,0,0.2,0.1,0.2l5.6,8.4l0.1,2.8l2.5,3.4
		c-1.9-0.8-2.4-0.8-1.5-0.3c0.3,0.2,0.6,0.4,1.1,0.5L14.2,131.3z"/>
	<path d="M15,131.9c-0.3,0-0.6,0-0.9-0.1H14l-5-2c-0.5-0.2-0.9-0.3-1.2-0.5c-0.4-0.2-0.6-0.6-0.8-0.9l-0.1-0.2l-6.7-9.8
		c-0.3-0.5-0.5-1-0.5-1.5c0.1-0.4,0.2-0.7,0.4-1c-0.1-0.3-0.2-0.7-0.1-1.1c0.1-0.5,0.3-0.8,0.6-1.1l0.1-0.1c0-0.2,0-0.3,0-0.5
		c0.1-0.7,0.4-1.3,1-1.6c0.6-0.4,1.2-0.4,1.8-0.2c0.6,0.1,1,0.4,1.4,0.9l5.4,8.2l0.7,0.3l-2.8-4.2c-0.3-0.6-0.5-1.2-0.4-1.7
		c0.2-0.7,0.5-1.1,1-1.5c0.5-0.3,1.1-0.5,1.7-0.4h0.1c0.6,0.2,1.1,0.6,1.4,1.2l5.8,8.7c0.4,0.8,0.6,1.6,0.5,2.6l-0.1,0.9l-0.7,3.5
		C17.4,130.6,16.8,131.9,15,131.9z M14.3,130.9c1.7,0.3,2.1-0.5,2.2-1.2L17,126l0.1-0.9c0.1-0.8,0-1.4-0.3-1.9l-5.8-8.7
		c-0.2-0.4-0.5-0.6-0.8-0.7c-0.4,0-0.7,0.1-1,0.3c-0.3,0.2-0.5,0.5-0.6,0.8c0,0.3,0.1,0.6,0.3,1l3.7,5.6c0.1,0.2,0.1,0.4,0,0.6
		s-0.4,0.2-0.6,0.1l-2.4-1c-0.1,0-0.2-0.1-0.2-0.2l-5.5-8.3c-0.2-0.3-0.4-0.4-0.8-0.4H2.9c-0.3-0.1-0.6-0.1-0.9,0.1
		s-0.5,0.5-0.5,0.9c0,0.3,0,0.6,0.1,0.8v0.1c0.1,0.1,0.1,0.3,0.1,0.5C1.6,115,1.3,115.1,1,115l-0.2-0.1v0.2c0,0.3,0,0.6,0.2,0.8
		c0.1,0.2,0.1,0.4-0.1,0.6s-0.3,0.4-0.3,0.6s0.1,0.5,0.3,0.8L7.8,128c0.1,0.2,0.2,0.4,0.3,0.5l0.1,0.1c0.2,0.2,0.5,0.3,0.9,0.4
		L14.3,130.9z"/>
	<path class="st0" d="M18.6,136.9l3.3-2.9c0.9-0.8,0.9-1.6,0.1-2.5l-2.9-3.3c-0.8-0.9-1.6-0.9-2.5-0.2l-3.3,2.9
		c-0.8,0.9-0.8,1.7,0,2.6l2.9,3.3C17,137.6,17.8,137.7,18.6,136.9z"/>
	<path d="M17.5,137.9h-0.1c-0.5,0-1.1-0.3-1.5-0.9l-2.9-3.3c-1-1.1-0.9-2.2,0.2-3.2l3.3-2.9c0.5-0.5,1.1-0.7,1.6-0.7
		s1.1,0.3,1.5,0.9l2.9,3.3c1,1.1,0.9,2.2-0.2,3.2l-3.3,2.9C18.5,137.7,18,137.9,17.5,137.9z M17.9,128c-0.3,0-0.5,0.1-0.9,0.4
		l-3.3,2.9c-0.7,0.6-0.7,1.1-0.1,1.8l2.9,3.3c0.3,0.3,0.6,0.5,0.9,0.5s0.6-0.1,0.9-0.4l0,0l3.3-2.9c0.7-0.6,0.7-1.1,0.1-1.8
		l-2.9-3.3C18.5,128.2,18.2,128.1,17.9,128L17.9,128z"/>
	<path class="st0" d="M107.3,141.8L107.3,141.8l-2.2,3.4L107.3,141.8z M90.1,146.7c-0.8,1.2-1,2.6-0.7,4c0.4,1.5,1.2,2.7,2.5,3.6
		c1.3,0.9,2.7,1.2,4.2,0.9s2,0.1,1.5,1l7.4-11.4l2.1-3.4l2.2-3.4c0.8-1.2,1-2.5,0.6-3.9l-6.7-4.5h-0.1c-1.5,0.3-2.6,1-3.5,2.2
		l-4.3,6.6l0.1,0.1L90.1,146.7z"/>
	<path d="M97.6,157.3c-0.1,0-0.2,0-0.3-0.1c-0.2-0.2-0.3-0.5-0.1-0.7l9.8-15.1l0,0l2.2-3.4c0.7-1.1,0.9-2.2,0.6-3.5l-6.7-4.5
		c-1.4,0.3-2.4,0.9-3.1,2l-4.3,6.6l-0.1,0.2l-5.5,8.4c-0.2,0.2-0.5,0.3-0.7,0.1s-0.3-0.5-0.1-0.7l5.4-8.2l0.1-0.2l4.4-6.8
		c0.9-1.4,2.2-2.2,3.9-2.5c0.1,0,0.3,0,0.4,0.1l7,4.8c0.1,0.1,0.2,0.2,0.2,0.3c0.4,1.6,0.2,3.1-0.7,4.5l-2.2,3.4l-2.1,3.4
		c-0.1,0.1-0.2,0.2-0.3,0.2l-7.5,11.5C97.9,157.2,97.8,157.3,97.6,157.3z"/>
	<path class="st0" d="M92,121.7c0.2-0.9,0.4-1.8,0.5-2.6h-3.2v-0.9c-15.4-7.5-30.4-7.5-45.2-0.2c0,0-0.8,0.4-2.4,1.3l2.3,4.6
		l-0.9,2.2c-2.6-1.2-3.8-1.6-3.7-1.3c2.8,4.4,4.3,6.7,4.3,7c0.4,3.2,1.2,6.2,2.4,9c1.3,3.1,1.9,5.7,1.7,7.7
		c-0.4,12.7,0.5,19.8,2.7,21.3v0.5l32.6,0.2c1.8-3.2,2.6-10.5,2.3-21.8v-0.3l0,0c0,0.1,0,0.2,0,0.3c0.2-0.3,0.8-2.1,2-5.5
		c1.5-4.2,2.4-8.1,2.8-11.6C90.3,131.3,90.9,128,92,121.7z"/>
	<path d="M82.6,171L82.6,171l-32.1-0.3c-0.3,0-0.5-0.2-0.5-0.5c0-0.1,0.1-0.3,0.2-0.4c-2.4-1.7-3.3-8.8-2.9-21.7
		c0.2-2-0.4-4.5-1.7-7.5c-1.2-2.8-2.1-5.9-2.5-9.1c0-0.3,0.2-0.5,0.4-0.6c0.3,0,0.5,0.2,0.6,0.4c0.4,3.1,1.2,6.1,2.4,8.9
		c1.4,3.1,2,5.8,1.8,7.9c-0.5,15.4,1.1,19.8,2.5,20.8c0.2,0.2,0.3,0.4,0.1,0.7l31.3,0.2c1.6-3.2,2.3-10.2,2.1-20.7
		c-0.2-0.1-0.3-0.3-0.3-0.5c0-0.1,0-0.3,0-0.4c0-0.3,0.2-0.4,0.5-0.4l0,0c0.2-0.6,0.7-2,1.8-5c1.4-4.2,2.3-8.1,2.7-11.5
		c0-0.3,0.3-0.5,0.5-0.4c0.3,0,0.5,0.3,0.4,0.5c-0.4,3.6-1.3,7.5-2.8,11.8c-1.3,3.9-1.8,5.1-1.9,5.4c0.3,11.4-0.5,18.6-2.3,22
		C82.9,170.9,82.7,171,82.6,171z M41.5,120c-0.2,0-0.3-0.1-0.4-0.2c-0.1-0.2-0.1-0.5,0.2-0.7c1.4-0.9,2.1-1.3,2.4-1.4
		c14.7-7.6,29.8-7.5,45.1,0.3c0.2,0.1,0.3,0.4,0.2,0.7c-0.1,0.2-0.4,0.3-0.7,0.2c-14.9-7.7-29.8-7.8-44.2-0.3H44
		c-0.1,0.1-0.6,0.3-2.2,1.3L41.5,120z"/>
	<path class="st1" d="M70.5,117.5c2,0,3-1.1,3-3.2v-7.7c-0.1,1.9-1.1,2.9-3,2.9h-8c-1.9,0-2.9-1-3-3v7.8c0,2.1,1,3.2,3,3.2
		C62.5,117.5,70.5,117.5,70.5,117.5z"/>
	<path class="st2" d="M70.5,95.5h-8c-2,0-3,1.1-3,3.2v11.8c0.1,2,1.1,3,3,3h8c1.9,0,2.9-1,3-2.9V98.7C73.5,96.6,72.5,95.5,70.5,95.5
		z"/>
	<path d="M70.5,119h-8c-1.6,0-3.5-0.7-3.5-3.8V94.8c0-3.2,1.9-3.8,3.5-3.8h8c1.6,0,3.5,0.7,3.5,3.8v20.4C74,118.3,72.1,119,70.5,119
		z M62.5,92c-1.7,0-2.5,0.9-2.5,2.8v20.4c0,1.9,0.8,2.8,2.5,2.8h8c1.7,0,2.5-0.9,2.5-2.8V94.8c0-1.9-0.8-2.8-2.5-2.8H62.5z"/>
	<rect x="54" y="95.1" transform="matrix(0.9488 -0.3159 0.3159 0.9488 -27.3887 22.2387)" class="st1" width="1.8" height="1"/>
	<path class="st1" d="M86,76.5c-1.5,0-2.8,0.5-3.9,1.5c-1,1-1.6,2.1-1.6,3.5s0.5,2.6,1.6,3.6s2.4,1.5,3.9,1.5s2.8-0.5,3.8-1.5
		c1.1-1,1.7-2.2,1.7-3.6S90.9,79,89.8,78C88.8,77,87.5,76.5,86,76.5z"/>
	<path class="st2" d="M83.5,79.4c-0.7,0.6-1,1.3-1,2.1s0.3,1.5,1,2.1s1.5,0.9,2.5,0.9s1.8-0.3,2.4-0.9c0.7-0.6,1.1-1.3,1.1-2.1
		s-0.4-1.5-1.1-2.1s-1.5-0.9-2.4-0.9S84.2,78.8,83.5,79.4z"/>
	<path d="M86,87c-1.6,0-3.1-0.5-4.3-1.6C80.5,84.3,80,83,80,81.5s0.6-2.8,1.7-3.9c1.2-1.1,2.6-1.6,4.3-1.6c1.6,0,3,0.5,4.2,1.6
		S92,80,92,81.5s-0.6,2.8-1.8,3.9C89,86.5,87.6,87,86,87z M86,77c-1.4,0-2.6,0.4-3.6,1.3c-0.9,0.9-1.4,1.9-1.4,3.1s0.5,2.3,1.4,3.2
		c1,0.9,2.2,1.3,3.6,1.3s2.5-0.4,3.5-1.3s1.5-2,1.5-3.2s-0.5-2.3-1.5-3.1C88.5,77.4,87.4,77,86,77z"/>
	<path class="st1" d="M43.1,77c-1,1-1.6,2.1-1.6,3.5s0.5,2.6,1.6,3.6s2.4,1.5,3.9,1.5s2.8-0.5,3.8-1.5c1.1-1,1.7-2.2,1.7-3.6
		S51.9,78,50.8,77c-1.1-1-2.4-1.5-3.8-1.5C45.5,75.5,44.2,76,43.1,77z M43.5,80.5c0-0.8,0.4-1.5,1.2-2.1s1.7-0.9,2.8-0.9
		s2,0.3,2.8,0.9s1.2,1.3,1.2,2.1s-0.4,1.5-1.2,2.1s-1.7,0.9-2.8,0.9s-2-0.3-2.8-0.9S43.5,81.3,43.5,80.5z"/>
	<path class="st2" d="M44.5,78.4c-0.7,0.6-1,1.3-1,2.1s0.3,1.5,1,2.1s1.5,0.9,2.5,0.9s1.8-0.3,2.4-0.9c0.7-0.6,1.1-1.3,1.1-2.1
		s-0.4-1.5-1.1-2.1c-0.7-0.6-1.5-0.9-2.4-0.9S45.2,77.8,44.5,78.4z"/>
	<path d="M47,86c-1.6,0-3.1-0.5-4.3-1.6S41,82,41,80.5s0.6-2.8,1.7-3.9c1.2-1.1,2.6-1.6,4.3-1.6c1.6,0,3,0.5,4.2,1.6S53,79,53,80.5
		s-0.6,2.8-1.8,3.9S48.6,86,47,86z M47,76c-1.4,0-2.6,0.4-3.6,1.3c-0.9,0.9-1.4,1.9-1.4,3.1s0.5,2.3,1.4,3.2c1,0.9,2.2,1.3,3.6,1.3
		c1.4,0,2.5-0.4,3.5-1.3s1.5-2,1.5-3.2s-0.5-2.3-1.5-3.1C49.5,76.4,48.4,76,47,76z"/>
	<path class="st1" d="M68.3,57.5h-3.6C60,57.5,54.4,58.1,51,62c-3.3,3.9-3.5,14-3.5,19.5v8c0,5.5,1.7,10.2,5,14.1
		c3.4,3.9,7.4,5.9,12.2,5.9h3.6c4.7,0,8.8-2,12.1-5.9c3.4-3.9,5.1-8.6,5.1-14.1v-8c0-5.5-0.6-15-4-19C78.2,58.6,73.1,57.5,68.3,57.5
		z"/>
	<path d="M68.3,110h-3.6c-4.9,0-9.1-2-12.6-6.1c-3.4-4-5.1-8.8-5.1-14.4v-8c0-4.6,0-14,3.6-18.3c2.7-3.1,6.7-2.8,10.5-2.4
		c1.2,0.1,2.4,0.2,3.5,0.2h3.6c1.2,0,2.4-0.1,3.5-0.2c3.6-0.4,7.4-0.7,10.1,2.4c3.6,4.2,4.1,13.3,4.1,18.3v8
		c0,5.6-1.7,10.5-5.2,14.4C77.4,108,73.2,110,68.3,110z M57.4,61.5c-2.3,0-4.4,0.5-6,2.3C48,67.8,48,77,48,81.4v8.1
		c0,5.4,1.6,10,4.9,13.8c3.3,3.8,7.2,5.7,11.8,5.7h3.6c4.6,0,8.5-1.9,11.7-5.7c3.3-3.8,4.9-8.4,4.9-13.8v-8c0-4.9-0.5-13.7-3.9-17.6
		c-2.3-2.7-5.7-2.4-9.2-2.1c-1.2,0.1-2.4,0.2-3.6,0.2h-3.6c-1.2,0-2.4-0.1-3.6-0.2C59.8,61.7,58.6,61.5,57.4,61.5z"/>
	<path class="st3" d="M71.7,88.3H60.3c-1.2,0-1.8,0.7-1.8,2.1v3.1c0,1.4,0.6,2.1,1.8,2.1h11.3c1.2,0,1.8-0.7,1.8-2.1v-3.1
		C73.5,89,72.9,88.3,71.7,88.3z"/>
	<path class="st4" d="M71.7,92.5H60.3c-1.2,0-1.8,0.3-1.8,0.9v1.3c0,0.6,0.6,0.9,1.8,0.9h11.3c1.2,0,1.8-0.3,1.8-0.9v-1.3
		C73.5,92.8,72.9,92.5,71.7,92.5z"/>
	<path d="M71.7,96.2H60.3c-1.5,0-2.3-0.9-2.3-2.6v-3.1c0-1.7,0.8-2.6,2.3-2.6h11.3c1.5,0,2.3,0.9,2.3,2.6v3.1
		C74,95.3,73.2,96.2,71.7,96.2z M60.3,89c-0.7,0-1.3,0.2-1.3,1.6v3.1c0,1.4,0.7,1.6,1.3,1.6h11.3c0.7,0,1.3-0.2,1.3-1.6v-3.1
		c0-1.4-0.7-1.6-1.3-1.6H60.3z"/>
	<path class="st5" d="M52.5,90.3c3.6,0.2,6.6,0.2,9,0s4-1,5-2.4c0.9,1.5,3,2.3,6.5,2.5c2.8,0.2,5.3,0.1,7.6,0
		c-0.7-1.9-1.3-3.3-1.9-4.2c-0.8-1.1-1.8-1.8-3.2-2.1c-4.8-0.2-7.7-0.3-8.5-0.3c-5-0.3-8.2-0.1-9.9,0.6
		C54.8,85.2,53.3,87.2,52.5,90.3z"/>
	<path class="st1" d="M68.5,84.6c0.7-0.6,1-1.3,1-2.1l0,0h-7l0,0c0,0.8,0.3,1.5,1,2.1s1.4,0.9,2.4,0.9h0.3
		C67.1,85.5,67.9,85.2,68.5,84.6z"/>
	<path class="st5" d="M68.8,98.5h-4.5c-0.5,0-0.7,0.2-0.7,0.6v0.8c0,0.4,0.2,0.6,0.7,0.6h4.5c0.5,0,0.7-0.2,0.7-0.6v-0.8
		C69.5,98.7,69.3,98.5,68.8,98.5z"/>
	<path class="st5" d="M87.2,67c1.1-5.6-0.4-8.5-4.5-8.9C81.9,58,81.2,58,80.5,58c0.1-0.5,0.1-1.1-0.1-1.8c-0.9-2.6-1.5-4.2-1.9-4.7
		s-0.8-1.1-1.2-1.8c-0.1-0.1-0.2-0.2-0.2-0.4c-0.6-0.8-1.2-1.5-2-2c-0.5-0.3-0.8-0.6-1.1-0.8c-4.1-2.6-7.5-2.6-10.3,0
		c-0.1,0.1-0.2,0.1-0.2,0.1c1.8,0.5,2.8,1.1,2.8,1.8c0,0.4-0.1,0.8-0.3,1.2c-0.2,0.3-0.4,0.5-0.7,0.7c-0.8,0.6-2.9,1-6.5,1.3
		s-6.1,0.9-7.4,1.8c-1.9,1.4-3.3,3.1-4.1,5.2c-0.4,1.1-0.6,2-0.6,2.7l-1.2,14.5l3.4,1.4c0.2-5.5,0.6-8.8,1.3-10
		c0.9-1.4,1.5-2.2,1.7-2.4c0.9-0.7,2.5-0.8,4.7-0.4s5.3,0.4,9.3,0s7.1-0.9,9.5-1.4s4.4,1,6,4.7c1.6,3.6,2.2,6.9,1.7,9.8l3.5-1.6
		C86.8,71.5,86.9,68.6,87.2,67z"/>
	<path d="M83.3,78c-0.1,0-0.2,0-0.3-0.1c-0.1-0.1-0.2-0.3-0.2-0.5c0.5-2.8-0.1-6-1.7-9.6c-1.5-3.4-3.3-4.9-5.4-4.4l0,0
		c-2.4,0.5-5.6,1-9.6,1.4s-7.2,0.4-9.4,0c-2.1-0.4-3.5-0.3-4.4,0.3c-0.1,0.1-0.4,0.3-1.6,2.3c-0.5,0.7-1.1,3-1.3,9.7
		c0,0.2-0.1,0.3-0.2,0.4c-0.1,0.1-0.3,0.1-0.5,0l-3.4-1.4C45.1,76,45,75.8,45,75.6l0.8-14.1c0-0.8,0.3-1.8,0.7-2.9
		c0.9-2.2,2.3-4,4.3-5.5c1.4-1,3.9-1.7,7.7-1.9c4.3-0.4,5.8-0.9,6.3-1.2c0.3-0.2,0.4-0.4,0.6-0.6c0.2-0.3,0.3-0.6,0.3-0.9
		c0-0.2-0.2-0.7-2.5-1.4c-0.2-0.1-0.4-0.3-0.4-0.5s0.1-0.3,0.3-0.4l0.1-0.1c2.9-2.7,6.6-2.7,10.9-0.1c0.3,0.3,0.7,0.5,1.2,0.8
		c0.8,0.5,1.6,1.3,2.2,2.1c-0.1,0.2,0,0.3,0,0.3l0.1,0.1c0.4,0.7,0.8,1.3,1.2,1.8c0.4,0.6,1.1,2.2,2,4.9c0.2,0.6,0.3,1.1,0.2,1.5
		c0.6,0,1.1,0.1,1.7,0.1c1.8,0.2,3.2,0.8,4.1,2c1.2,1.6,1.5,4.1,0.8,7.5c-0.3,1.5-0.4,4.5-0.4,8.7c0,0.2-0.1,0.4-0.3,0.5L83.5,78
		H83.3z M76.5,62.4c2.2,0,4,1.7,5.6,5.1c1.5,3.3,2.1,6.4,1.9,9.2l2.4-1.1c0-4.2,0.1-7,0.4-8.6c0.6-3.1,0.4-5.3-0.6-6.7
		c-0.7-1-1.8-1.5-3.4-1.6c-1-0.2-1.7-0.2-2.4-0.2c-0.2,0-0.3-0.1-0.4-0.2c-0.1-0.1-0.1-0.3-0.1-0.4c0.1-0.4,0.1-0.9-0.1-1.6
		c-1.1-3.1-1.6-4.2-1.8-4.6c-0.4-0.5-0.8-1.1-1.2-1.8c-0.2-0.1-0.3-0.3-0.3-0.5c-0.5-0.7-1.1-1.3-1.9-1.8c-0.5-0.3-0.9-0.6-1.2-0.8
		c-3.6-2.3-6.6-2.4-9.1-0.5c1.5,0.5,2.2,1.2,2.3,2c0,0.6-0.1,1.1-0.4,1.5c-0.2,0.3-0.5,0.6-0.8,0.9c-0.5,0.4-1.8,1-6.8,1.5
		c-3.5,0.3-5.9,0.8-7.2,1.8c-1.8,1.3-3.1,3-3.9,5c-0.4,1-0.6,1.9-0.6,2.6l-0.8,13.9l2.4,1c0.2-5.2,0.6-8.3,1.4-9.5
		c1.2-2,1.7-2.4,1.9-2.6c1-0.8,2.7-0.9,5.1-0.5c2.2,0.4,5.2,0.4,9.1,0s7.1-0.9,9.5-1.4C75.8,62.4,76.1,62.4,76.5,62.4z M75.6,63
		L75.6,63L75.6,63z"/>
	<path class="st5" d="M61.2,80.2c0.2-0.2,0.3-0.4,0.3-0.7s-0.1-0.5-0.3-0.7c-0.2-0.2-0.4-0.3-0.7-0.3s-0.5,0.1-0.7,0.3
		c-0.2,0.2-0.3,0.4-0.3,0.7s0.1,0.5,0.3,0.7c0.2,0.2,0.4,0.3,0.7,0.3S61,80.4,61.2,80.2z"/>
	<path class="st5" d="M73.2,80.2c0.2-0.2,0.3-0.4,0.3-0.7s-0.1-0.5-0.3-0.7c-0.2-0.2-0.4-0.3-0.7-0.3s-0.5,0.1-0.7,0.3
		c-0.2,0.2-0.3,0.4-0.3,0.7s0.1,0.5,0.3,0.7c0.2,0.2,0.4,0.3,0.7,0.3S73,80.4,73.2,80.2z"/>
	<path class="st6" d="M92.4,261.3c-1.4-1.2-3.8-2.5-7.3-3.8C88.2,258.8,90.7,260.1,92.4,261.3z M71.4,253.6c0,0.1,0,0.2,0,0.4
		c-1.5,3.9-1.7,6.8-0.8,8.7c0.6,0.7,1.5,1.3,2.7,1.8c10.2,2.6,16.6,3,19.2,1.2c0.8-0.3,1-1.3,0.8-2.9c-0.1-0.6-0.5-1.2-1.2-1.8
		c-1.7-1.1-4.1-2.3-7.1-3.6c-0.4-0.1-0.8-0.3-1.2-0.5C77.6,254.5,73.5,253.5,71.4,253.6z"/>
	<path d="M87.9,270c-3.7,0-8.9-1-15.4-2.9c-1.5-0.6-2.6-1.5-3.3-2.4c-1.2-2.5-1-6.2,0.7-11.3V253c0-0.3,0.2-0.5,0.5-0.5
		c2.4-0.2,6.8,1,13.5,3.8l0,0l0,0c0.2,0.1,0.3,0.1,0.5,0.2s0.5,0.2,0.7,0.3c3.4,1.3,5.8,2.5,7.2,3.7c1.9,1.3,2.9,2.6,3.1,3.7
		c0.2,2.2-0.2,3.6-1.3,4.1C92.8,269.5,90.8,270,87.9,270z M69.5,260.3c-0.1,1.6,0.1,2.9,0.6,3.9c0.5,0.7,1.4,1.4,2.7,2
		c11,3.2,18,3.7,20.7,1.4l0.1-0.1c0.9-0.4,0.9-1.9,0.8-3.1c-0.1-0.4-0.3-0.8-0.7-1.3c0.1,1.6-0.2,2.6-1.1,3.1
		c-2.7,2-9.1,1.6-19.5-1.1c-1.4-0.5-2.3-1.2-3-1.9l-0.1-0.1C69.8,262.2,69.6,261.3,69.5,260.3z M71,262.5c0.5,0.6,1.3,1.1,2.5,1.6
		c9.9,2.6,16.2,3,18.6,1.2l0.1-0.1c0.7-0.3,0.7-1.5,0.5-2.5c0-0.4-0.4-1-1-1.5c-1.6-1.1-4-2.3-7-3.6c-0.4-0.1-0.8-0.3-1.2-0.5
		c-5.6-2.1-9.5-3.1-11.7-3.2v0.1C70.4,258,70.2,260.8,71,262.5z"/>
	<path class="st6" d="M47.2,257.4c-3.4,1.4-5.8,2.7-7.1,3.8C41.7,260.1,44.1,258.8,47.2,257.4z M60.7,254c0-0.1,0-0.3,0-0.4
		c-2-0.1-6.1,0.9-12.2,3.2c-0.4,0.2-0.8,0.3-1.2,0.5c-3,1.3-5.4,2.5-7,3.6c-0.7,0.6-1.1,1.2-1.2,1.8c-0.2,1.6,0.1,2.6,0.8,2.9
		c2.5,1.9,8.8,1.5,18.8-1.2c1.2-0.5,2.1-1.1,2.7-1.7C62.4,260.8,62.1,257.9,60.7,254z"/>
	<path d="M44.4,270c-2.8,0-4.8-0.5-6.1-1.6c-1.1-0.5-1.5-1.9-1.3-4.1c0.2-1.2,1.2-2.4,3.1-3.8c1.3-1.1,3.7-2.4,7-3.7
		c0.2-0.1,0.5-0.2,0.7-0.3c0.1,0,0.3-0.1,0.4-0.2c6.6-2.8,10.9-4,13.3-3.8c0.3,0,0.5,0.2,0.5,0.5v0.4c1.6,5.1,1.9,8.7,0.7,11.2
		c-0.7,1-1.7,1.8-3.2,2.5C53.1,269,48.1,270,44.4,270z M38.7,263.1c-0.4,0.5-0.6,0.9-0.6,1.3c-0.1,1.2-0.1,2.7,0.7,3.1l0.1,0.1
		c2.6,2.3,9.4,1.8,20.3-1.4c1.2-0.5,2.1-1.2,2.7-2c0.5-1,0.6-2.2,0.6-3.7c0,1-0.3,1.8-0.6,2.6l-0.1,0.1c-0.6,0.7-1.6,1.4-2.9,1.9
		c-10.2,2.8-16.5,3.1-19.2,1.1C38.9,265.7,38.6,264.7,38.7,263.1z M47.6,257.7c-2.9,1.3-5.3,2.5-6.9,3.6c-0.6,0.5-0.9,1-1,1.4
		c-0.1,1-0.1,2.2,0.5,2.5l0.1,0.1c2.4,1.8,8.5,1.4,18.3-1.3c1-0.4,1.9-0.9,2.4-1.5c0.9-1.7,0.6-4.5-0.8-8.3v-0.1
		c-2.1,0-5.9,1.1-11.4,3.2l0,0C48.4,257.4,48,257.6,47.6,257.7z"/>
	<path class="st7" d="M81.5,181l-2.5-0.3v75.8h2.5V181z M79,180.8l2.5,0.3v-10.6H79V180.8z M72.6,185.7l-16.5-3.1l12.2,5.5h1.6v68.4
		h3.8v-70.8H72.6z M59.1,185.1v71.4h2.7v-68.4H69v-2.4L59.1,185.1z M52.5,179.5l-2,0.8v76.2h2V179.5z M52.5,170.5h-2v10.1l2-0.8
		V170.5z"/>
	<path class="st8" d="M72.9,170.5c0.3,5.4,2.3,8.8,6.1,10.1v-10.1H72.9z M52.5,170.5v9.5c3.2,0.7,5-2.5,5.6-9.5H52.5z M63.7,185.4
		h4.6l0.2-14.6l-0.2,14.6H72v71.1h7v-75.9c-3.9-1.3-1.3-4.4-1.5-9.8l-15.3-0.3L63.7,185.4z M62.2,170.5h-8.9
		c-0.6,6.8,2.5,9.8-0.8,9.2v76.8h6.7v-71.1h4.5L62.2,170.5z"/>
	<path d="M81.5,257.4H69.8c-0.3,0-0.5-0.2-0.5-0.5v-68.5h-6.9v68.5c0,0.3-0.2,0.5-0.5,0.5H50.5c-0.3,0-0.5-0.2-0.5-0.5v-86.4
		c0-0.3,0.2-0.5,0.5-0.5h22.4l0,0l0,0h8.6c0.3,0,0.5,0.2,0.5,0.5v10.7l0,0v75.7C82,257.2,81.8,257.4,81.5,257.4z M70.3,256.4H81
		v-74.8l-2.1-0.3h-0.1c-3.9-1.4-6.1-4.9-6.4-10.4H69l-0.2,16.4h1c0.3,0,0.5,0.2,0.5,0.5V256.4z M59.1,256.4h2.3v-68.5
		c0-0.3,0.2-0.5,0.5-0.5h1.6l-0.2-1.6c-0.1-0.1-0.2-0.2-0.2-0.3L61.6,171h-2.9c-0.4,4.7-1.5,7.6-3.2,8.9c-0.9,0.6-1.9,0.9-3,0.6H51
		v75.9H59.1z M64.5,187.4h3.3l0,0l0.1-2.4l0.1-14h-5.3l1.4,13.8c0.1,0.1,0.2,0.2,0.2,0.3L64.5,187.4L64.5,187.4z M79.1,180.4
		l1.9,0.3V171h-7.6C73.7,176,75.6,179.1,79.1,180.4z M51,179.5h1.5h0.1c0.9,0.2,1.6,0,2.3-0.5c1.4-1.1,2.4-3.8,2.8-8.1H51
		C51,170.9,51,179.5,51,179.5z"/>
	<path class="st9" d="M82,250.1H69c-1,0-1.5,0.3-1.5,1v3.9c0,0.6,0.5,1,1.5,1h12.9c1,0,1.5-0.3,1.5-1v-3.9
		C83.5,250.4,83,250.1,82,250.1z"/>
	<path d="M81.5,256.5H69c-1.9,0-2.1-1.1-2.1-1.6V251c0-0.5,0.2-1.6,2.1-1.6h12.5c1.9,0,2.1,1.1,2.1,1.6v3.9
		C83.6,255.4,83.4,256.5,81.5,256.5z M69,250.7c-0.9,0-0.9,0.3-0.9,0.4v3.9c0,0.1,0,0.4,0.9,0.4h12.5c0.9,0,0.9-0.3,0.9-0.4v-3.9
		c0-0.1,0-0.4-0.9-0.4H69z"/>
	<path class="st9" d="M62.1,250.1H49.9c-0.9,0-1.4,0.3-1.4,1v3.9c0,0.6,0.5,1,1.4,1h12.2c0.9,0,1.4-0.3,1.4-1v-3.9
		C63.5,250.4,63,250.1,62.1,250.1z"/>
	<path d="M62.1,256.5H49.9c-1.8,0-2-1.1-2-1.6V251c0-0.5,0.2-1.6,2-1.6h12.2c1.8,0,2,1.1,2,1.6v3.9
		C64.1,255.4,63.9,256.5,62.1,256.5z M49.9,250.7c-0.8,0-0.8,0.3-0.8,0.4v3.9c0,0.1,0,0.4,0.8,0.4h12.2c0.8,0,0.8-0.3,0.8-0.4v-3.9
		c0-0.1,0-0.4-0.8-0.4H49.9z"/>
</g>
</svg>
