<?xml version="1.0" encoding="utf-8"?>
<!-- Generator: Adobe Illustrator 22.0.1, SVG Export Plug-In . SVG Version: 6.00 Build 0)  -->
<!DOCTYPE svg PUBLIC "-//W3C//DTD SVG 1.1//EN" "http://www.w3.org/Graphics/SVG/1.1/DTD/svg11.dtd">
<svg version="1.1" id="Layer_1" xmlns="http://www.w3.org/2000/svg" xmlns:xlink="http://www.w3.org/1999/xlink" x="0px" y="0px"
	 viewBox="0 0 130 270" style="enable-background:new 0 0 130 270;" xml:space="preserve">
<style type="text/css">
	.st0{fill:#F7DAC7;}
	.st1{fill:#E0AC89;}
	.st2{fill:#FFCC99;}
	.st3{fill:#DDBBA5;}
	.st4{fill:#FFFFFF;}
	.st5{fill:#5F3816;}
	.st6{fill:#513600;}
</style>
<title>Artboard Copy</title>
<desc>Created with Sketch.</desc>
<g>
	<path class="st0" d="M68.7,85c1.6,0,2.3-1.1,2.3-3.2v-7.7c0,1.9-0.8,2.9-2.3,2.9h-6.3c-1.5,0-2.3-1-2.3-3v7.8
		c0,2.1,0.8,3.2,2.3,3.2H68.7z"/>
	<path class="st1" d="M68.7,59h-6.3c-1.6,0-2.3,1.1-2.3,3.2V74c0.1,2,0.8,3,2.3,3h6.3c1.5,0,2.3-1,2.3-2.9V62.2
		C71,60.1,70.2,59,68.7,59z"/>
	<path d="M68.7,85.5h-6.3c-1.3,0-2.8-0.7-2.8-3.8V61.3c0-3.2,1.5-3.8,2.8-3.8h6.3c1.3,0,2.8,0.7,2.8,3.8v20.4
		C71.5,84.8,70,85.5,68.7,85.5z M62.3,58.5c-0.8,0-1.8,0.3-1.8,2.8v20.4c0,2.5,1,2.8,1.8,2.8h6.3c0.8,0,1.8-0.3,1.8-2.8V61.3
		c0-2.5-1-2.8-1.8-2.8H62.3z"/>
	<rect x="52.5" y="62.6" transform="matrix(0.9488 -0.3159 0.3159 0.9488 -17.2096 20.0962)" class="st2" width="1.8" height="1"/>
	<path class="st0" d="M79.6,45.5c-1,1-1.6,2.1-1.6,3.5s0.5,2.6,1.6,3.6c1.1,1,2.4,1.5,3.9,1.5c1.5,0,2.8-0.5,3.8-1.5
		c1.1-1,1.7-2.2,1.7-3.6s-0.6-2.5-1.7-3.5c-1.1-1-2.4-1.5-3.8-1.5C82,44,80.7,44.5,79.6,45.5z"/>
	<path d="M83.5,54.5c-1.6,0-3.1-0.5-4.3-1.6c-1.2-1.1-1.7-2.4-1.7-3.9c0-1.5,0.6-2.8,1.7-3.9l0,0c1.2-1,2.6-1.6,4.3-1.6
		c1.6,0,3,0.5,4.2,1.6c1.2,1.1,1.8,2.4,1.8,3.9c0,1.5-0.6,2.8-1.8,3.9C86.5,54,85.1,54.5,83.5,54.5z M79.9,45.8
		c-0.9,0.9-1.4,1.9-1.4,3.1c0,1.2,0.5,2.3,1.4,3.2c1,0.9,2.2,1.3,3.6,1.3c1.4,0,2.5-0.4,3.5-1.3c1-0.9,1.5-2,1.5-3.2
		c0-1.2-0.5-2.3-1.5-3.1c-1-0.9-2.1-1.3-3.5-1.3C82.1,44.5,80.9,44.9,79.9,45.8z"/>
	<path class="st3" d="M81,46.9c-0.7,0.6-1,1.3-1,2.1s0.3,1.5,1,2.1c0.7,0.6,1.5,0.9,2.5,0.9s1.8-0.3,2.4-0.9
		c0.7-0.6,1.1-1.3,1.1-2.1s-0.4-1.5-1.1-2.1c-0.7-0.6-1.5-0.9-2.4-0.9S81.7,46.3,81,46.9z"/>
	<path class="st0" d="M42.6,44.5c-1,1-1.6,2.1-1.6,3.5s0.5,2.6,1.6,3.6c1.1,1,2.4,1.5,3.9,1.5c1.5,0,2.8-0.5,3.8-1.5
		c1.1-1,1.7-2.2,1.7-3.6s-0.6-2.5-1.7-3.5c-1.1-1-2.4-1.5-3.8-1.5C45,43,43.7,43.5,42.6,44.5z"/>
	<path d="M46.5,53.5c-1.6,0-3.1-0.5-4.3-1.6c-1.2-1.1-1.7-2.4-1.7-3.9c0-1.5,0.6-2.8,1.7-3.9l0,0c1.2-1,2.6-1.6,4.3-1.6
		c1.6,0,3,0.5,4.2,1.6c1.2,1.1,1.8,2.4,1.8,3.9c0,1.5-0.6,2.8-1.8,3.9C49.5,53,48.1,53.5,46.5,53.5z M42.9,44.8
		c-0.9,0.9-1.4,1.9-1.4,3.1c0,1.2,0.5,2.3,1.4,3.2c1,0.9,2.2,1.3,3.6,1.3c1.4,0,2.5-0.4,3.5-1.3c1-0.9,1.5-2,1.5-3.2
		c0-1.2-0.5-2.3-1.5-3.1c-1-0.9-2.1-1.3-3.5-1.3C45.1,43.5,43.9,43.9,42.9,44.8z"/>
	<path class="st1" d="M44,45.9c-0.7,0.6-1,1.3-1,2.1s0.3,1.5,1,2.1c0.7,0.6,1.5,0.9,2.5,0.9s1.8-0.3,2.4-0.9
		c0.7-0.6,1.1-1.3,1.1-2.1s-0.4-1.5-1.1-2.1c-0.7-0.6-1.5-0.9-2.4-0.9S44.7,45.3,44,45.9z"/>
	<path class="st0" d="M50.6,27.3c4.6-5.2,25.9-6.7,30.8,1.4c3.7,6.3,3.5,17.6-0.4,33.9C79.3,69.3,73.3,74,66.4,74h-1.8
		c-6.9,0-12.9-4.7-14.5-11.3C45.8,46.2,46,34.4,50.6,27.3z"/>
	<path d="M66.4,74h-1.8c-6.9,0-12.9-4.7-14.5-11.3c-4.1-16.4-4-28.3,0.6-35.4l0.1-0.1c2.3-2.5,8.5-4.2,15.3-4.3H66
		c7.5,0,13.2,2.1,15.3,5.7c3.7,6.3,3.5,17.7-0.4,33.9C79.3,69.3,73.3,74,66.4,74z M51.4,27.9C47,34.7,46.9,46.3,51,62.4
		C52.5,68.7,58.1,73,64.5,73h1.8c6.5,0,12.1-4.4,13.6-10.7c3.9-15.9,4-27.1,0.5-33.1C78.5,25.9,73.1,24,66,24h-0.1
		C59.5,24,53.4,25.7,51.4,27.9z"/>
	<path d="M82.5,45.8H48c-0.3,0-0.5-0.2-0.5-0.5s0.2-0.5,0.5-0.5h34.5c0.3,0,0.5,0.2,0.5,0.5S82.8,45.8,82.5,45.8z"/>
	<path class="st0" d="M53,43h8c1.1,0,2,0.9,2,2v3c0,1.1-0.9,2-2,2h-8c-1.1,0-2-0.9-2-2v-3C51,43.9,51.9,43,53,43z"/>
	<path d="M60.5,50h-7c-1.4,0-2.5-1.1-2.5-2.5v-2c0-1.4,1.1-2.5,2.5-2.5h7c1.4,0,2.5,1.1,2.5,2.5v2C63,48.9,61.9,50,60.5,50z
		 M53.5,44c-0.8,0-1.5,0.7-1.5,1.5v2c0,0.8,0.7,1.5,1.5,1.5h7c0.8,0,1.5-0.7,1.5-1.5v-2c0-0.8-0.7-1.5-1.5-1.5H53.5z"/>
	<path class="st0" d="M70,43h8c1.1,0,2,0.9,2,2v3c0,1.1-0.9,2-2,2h-8c-1.1,0-2-0.9-2-2v-3C68,43.9,68.9,43,70,43z"/>
	<path d="M77.5,50h-7c-1.4,0-2.5-1.1-2.5-2.5v-2c0-1.4,1.1-2.5,2.5-2.5h7c1.4,0,2.5,1.1,2.5,2.5v2C80,48.9,78.9,50,77.5,50z
		 M70.5,44c-0.8,0-1.5,0.7-1.5,1.5v2c0,0.8,0.7,1.5,1.5,1.5h7c0.8,0,1.5-0.7,1.5-1.5v-2c0-0.8-0.7-1.5-1.5-1.5H70.5z"/>
	<path d="M69,55.5h-5c-0.3,0-0.5-0.2-0.5-0.5s0.2-0.5,0.5-0.5h4c0-4.2,0-7.4,0-9.5c0-0.3,0.2-0.5,0.5-0.5c0.3,0,0.5,0.2,0.5,0.5
		c0,2.2,0,5.6,0,10L69,55.5z"/>
	<path class="st4" d="M58,58c0,4.4,3.4,8,7.5,8c4.1,0,7.5-3.6,7.5-8c-3,0-5.4,0-7,0C64.3,58,61.6,58,58,58z"/>
	<path d="M65.5,66c-3.9,0-7.2-3.3-7.5-7.5l0-0.5h15l0,0.5C72.7,62.7,69.4,66,65.5,66z M59.1,59c0.5,3.4,3.2,6,6.4,6s6-2.6,6.4-6
		H59.1z"/>
	<path class="st5" d="M77.5,30C67,32.5,56.3,30.5,54,30.5c-2.5,0-3.2,1.4-4.5,4.3c-1.3,3-1.1,10.1-1.3,15.6L46,43.5
		c0.7-8.7,1.4-14.1,2.2-16c1.2-2.9,0.8-7.1,12.2-9s19.3,3.3,19.3,9c7.3,0,3.8,12,4.3,17L81.9,51c0-3.4,0.2-9.8-1.4-13.5
		C78.9,33.8,77.1,32.5,77.5,30z"/>
	<path d="M81.9,51.5L81.9,51.5c-0.3,0-0.5-0.3-0.5-0.5l0-1c0-3.4,0-9.1-1.4-12.3c-0.6-1.3-1.1-2.2-1.6-3.1c-0.8-1.4-1.5-2.5-1.5-4
		c-8.2,1.8-16.6,1-20.7,0.6c-1-0.1-1.8-0.2-2.3-0.2c-2.1,0-2.7,1-4.1,4c-1,2.3-1.1,7.5-1.2,12.2c0,1.1,0,2.2-0.1,3.2
		c0,0.2-0.2,0.4-0.4,0.5c-0.2,0-0.5-0.1-0.5-0.3l-2.2-6.9l0-0.2c0.7-8.9,1.4-14.1,2.2-16.2c0.1-0.4,0.3-0.8,0.4-1.2
		c0.9-2.9,2-6.4,12.2-8.1c6.7-1.1,13,0.1,16.7,3.4c1.9,1.6,3,3.6,3.1,5.6c1.2,0.1,2.3,0.5,3,1.4c2.1,2.3,1.8,7,1.5,11.1
		c-0.1,1.9-0.3,3.8-0.1,5l0,0.2l-2.1,6.4C82.3,51.4,82.1,51.5,81.9,51.5z M77.5,29.5c0.1,0,0.2,0,0.3,0.1C78,29.7,78,29.9,78,30
		c-0.3,1.5,0.4,2.5,1.3,4c0.5,0.9,1.1,1.9,1.7,3.2c1.2,2.8,1.4,7,1.5,10.5l1.1-3.3c-0.1-1.4,0-3.2,0.1-5.1c0.3-3.9,0.6-8.4-1.2-10.3
		c-0.7-0.7-1.6-1.1-2.8-1.1c-0.3,0-0.5-0.2-0.5-0.5c0-1.9-1-3.8-2.8-5.3c-3.6-3-9.5-4.2-15.9-3.1c-9.6,1.6-10.6,4.7-11.4,7.4
		c-0.1,0.4-0.3,0.8-0.4,1.2c-0.7,1.9-1.5,7.2-2.1,15.8l1.2,3.9l0-0.2c0.1-4.9,0.2-10,1.3-12.5c1.3-3,2.2-4.6,5-4.6
		c0.5,0,1.3,0.1,2.4,0.2c4.1,0.4,12.7,1.3,21-0.7L77.5,29.5z"/>
	<path class="st6" d="M60.7,47.7c0.2-0.2,0.3-0.4,0.3-0.7s-0.1-0.5-0.3-0.7C60.5,46.1,60.3,46,60,46s-0.5,0.1-0.7,0.3
		C59.1,46.5,59,46.7,59,47s0.1,0.5,0.3,0.7c0.2,0.2,0.4,0.3,0.7,0.3S60.5,47.9,60.7,47.7z"/>
	<path class="st6" d="M71.7,47.7c0.2-0.2,0.3-0.4,0.3-0.7s-0.1-0.5-0.3-0.7C71.5,46.1,71.3,46,71,46s-0.5,0.1-0.7,0.3
		C70.1,46.5,70,46.7,70,47s0.1,0.5,0.3,0.7c0.2,0.2,0.4,0.3,0.7,0.3S71.5,47.9,71.7,47.7z"/>
</g>
</svg>
