<?xml version="1.0" encoding="utf-8"?>
<!-- Generator: Adobe Illustrator 22.0.1, SVG Export Plug-In . SVG Version: 6.00 Build 0)  -->
<!DOCTYPE svg PUBLIC "-//W3C//DTD SVG 1.1//EN" "http://www.w3.org/Graphics/SVG/1.1/DTD/svg11.dtd">
<svg version="1.1" id="Layer_1" xmlns="http://www.w3.org/2000/svg" xmlns:xlink="http://www.w3.org/1999/xlink" x="0px" y="0px"
	 viewBox="0 0 130 270" style="enable-background:new 0 0 130 270;" xml:space="preserve">
<style type="text/css">
	.st0{fill:#E7B938;}
	.st1{fill:#FFCC99;}
	.st2{fill:#EAAF75;}
	.st3{fill:#2AE0A6;}
	.st4{fill:#FF98B3;}
	.st5{fill:#FFFFFF;}
</style>
<title>Artboard Copy</title>
<desc>Created with Sketch.</desc>
<g>
	<path class="st0" d="M72.7,34.2c0,4.3-3.3,7.8-7.3,7.8c-4.1,0-7.3-3.5-7.3-7.8C58,29.9,72.7,29.9,72.7,34.2z"/>
	<path d="M65.3,42.5c-4.3,0-7.8-3.7-7.8-8.3c0-2.6,3.9-3.7,7.8-3.7c3.9,0,7.8,1.2,7.8,3.7C73.2,38.8,69.7,42.5,65.3,42.5z
		 M65.3,31.5c-3.3,0-6.8,1-6.8,2.7c0,4,3.1,7.3,6.8,7.3s6.8-3.3,6.8-7.3c0-1-1.1-1.6-2-2C69,31.8,67.2,31.5,65.3,31.5z"/>
	<path class="st0" d="M84,58.7c0-5.4-1.9-10.1-5.7-14c-3.8-3.8-8.4-5.8-13.8-5.8c-5.4,0-10,1.9-13.8,5.8c-3.8,3.9-5.7,8.5-5.7,14
		l3.2,13.1L76.1,78L84,58.7z"/>
	<path d="M76.4,78.6l-28.6-6.4l-3.3-13.5c0-5.6,2-10.4,5.8-14.3c3.9-3.9,8.7-5.9,14.2-5.9c5.5,0,10.2,2,14.1,5.9
		c3.9,4,5.9,8.8,5.9,14.3l0,0.2L76.4,78.6z M48.7,71.4l27.1,6l7.7-18.8c0-5.2-1.9-9.8-5.6-13.5c-3.7-3.7-8.2-5.6-13.4-5.6
		c-5.2,0-9.7,1.9-13.4,5.6c-3.7,3.7-5.5,8.3-5.6,13.6L48.7,71.4z"/>
	<path class="st1" d="M62.1,91.8c-1.4,0-2.1-0.7-2.1-2.1V96c0,1.5,0.7,2.3,2.1,2.3h5.7c1.4,0,2.1-0.8,2.1-2.3v-6.3
		c-0.1,1.4-0.8,2.1-2.1,2.1H62.1z"/>
	<path class="st2" d="M67.9,79h-5.7c-1.4,0-2.1,0.8-2.1,2.3v8.5c0.1,1.4,0.8,2.1,2.1,2.1h5.7c1.4,0,2.1-0.7,2.1-2.1v-8.5
		C70,79.8,69.3,79,67.9,79"/>
	<path d="M67.9,98.5h-5.7c-1.7,0-2.6-1-2.6-2.9V80.4c0-1.8,0.9-2.9,2.6-2.9h5.7c1.7,0,2.6,1,2.6,2.9v15.3
		C70.5,97.5,69.6,98.5,67.9,98.5 M62.1,78.5c-1.1,0-1.6,0.6-1.6,1.9v15.3c0,1.3,0.5,1.9,1.6,1.9h5.7c1.1,0,1.6-0.6,1.6-1.9V80.4
		c0-1.3-0.5-1.9-1.6-1.9H62.1"/>
	<path class="st1" d="M56,69c0-1.4-0.6-2.5-1.7-3.5c-1.1-1-2.4-1.5-3.8-1.5c-1.5,0-2.8,0.5-3.9,1.5c-1,1-1.6,2.1-1.6,3.5
		s0.5,2.6,1.6,3.6c1.1,1,2.4,1.5,3.9,1.5c1.5,0,2.8-0.5,3.8-1.5C55.4,71.5,56,70.3,56,69z"/>
	<path d="M50.5,74.5c-1.6,0-3.1-0.5-4.3-1.6c-1.2-1.1-1.7-2.4-1.7-3.9c0-1.5,0.6-2.8,1.7-3.9c1.2-1.1,2.6-1.6,4.3-1.6
		c1.6,0,3,0.5,4.2,1.6c1.2,1.1,1.8,2.4,1.8,3.9c0,1.5-0.6,2.8-1.8,3.9C53.5,74,52.1,74.5,50.5,74.5z M50.5,64.5
		c-1.4,0-2.6,0.4-3.6,1.3c-0.9,0.9-1.4,1.9-1.4,3.1c0,1.2,0.5,2.3,1.4,3.2c1,0.9,2.2,1.3,3.6,1.3c1.4,0,2.5-0.4,3.5-1.3
		c1-0.9,1.5-2,1.5-3.2c0-1.2-0.5-2.3-1.5-3.1C53,64.9,51.9,64.5,50.5,64.5z"/>
	<path class="st3" d="M48.5,77c0.8,0,1.5-0.5,1.5-1.1c0-0.6-0.7-2.9-1.5-2.9S47,75.2,47,75.9C47,76.5,47.7,77,48.5,77z"/>
	<path class="st2" d="M47,69c0,0.8,0.3,1.5,1,2.1c0.7,0.6,1.5,0.9,2.5,0.9s1.8-0.3,2.4-0.9c0.7-0.6,1.1-1.3,1.1-2.1
		s-0.4-1.5-1.1-2.1c-0.7-0.6-1.5-0.9-2.4-0.9s-1.8,0.3-2.5,0.9C47.3,67.5,47,68.2,47,69z"/>
	<path class="st1" d="M74,69c0,1.4,0.5,2.6,1.6,3.6c1.1,1,2.4,1.5,3.9,1.5c1.5,0,2.8-0.5,3.8-1.5c1.1-1,1.7-2.2,1.7-3.6
		s-0.6-2.5-1.7-3.5c-1.1-1-2.4-1.5-3.8-1.5c-1.5,0-2.8,0.5-3.9,1.5C74.5,66.4,74,67.6,74,69z"/>
	<path class="st2" d="M76,69c0,0.8,0.3,1.5,1,2.1c0.7,0.6,1.5,0.9,2.5,0.9s1.8-0.3,2.4-0.9c0.7-0.6,1.1-1.3,1.1-2.1
		s-0.4-1.5-1.1-2.1c-0.7-0.6-1.5-0.9-2.4-0.9s-1.8,0.3-2.5,0.9C76.3,67.5,76,68.2,76,69z"/>
	<path d="M79.5,74.5c-1.6,0-3.1-0.5-4.3-1.6c-1.2-1.1-1.7-2.4-1.7-3.9c0-1.5,0.6-2.8,1.7-3.9c1.2-1.1,2.6-1.6,4.3-1.6
		c1.6,0,3,0.5,4.2,1.6c1.2,1.1,1.8,2.4,1.8,3.9c0,1.5-0.6,2.8-1.8,3.9C82.5,74,81.1,74.5,79.5,74.5z M79.5,64.5
		c-1.4,0-2.6,0.4-3.6,1.3c-0.9,0.9-1.4,1.9-1.4,3.1c0,1.2,0.5,2.3,1.4,3.2c1,0.9,2.2,1.3,3.6,1.3c1.4,0,2.5-0.4,3.5-1.3
		c1-0.9,1.5-2,1.5-3.2c0-1.2-0.5-2.3-1.5-3.1C82,64.9,80.9,64.5,79.5,64.5z"/>
	<path class="st3" d="M81.5,77c0.8,0,1.5-0.5,1.5-1.1c0-0.6-0.7-2.9-1.5-2.9S80,75.2,80,75.9C80,76.5,80.7,77,81.5,77z"/>
	<path class="st1" d="M80,63.5v6.3c0,4.5-1.5,8.3-4.4,11.5C72.7,84.4,69.2,86,65,86c-4.2,0-7.7-1.6-10.6-4.7
		c-2.9-3.2-4.4-7-4.4-11.5V64c3.3-6.7,4.7-11.3,4-14c2-5,22-1.4,21.5-1C76.9,58.3,80,58,80,63.5"/>
	<path d="M65,86.5c-4.1,0-7-1.4-10.3-4.9c-3.5-3.8-5.2-7.7-5.2-11.8v-6.3h1v6.3c0,3.8,1.7,7.6,5,11.1c3,3.3,5.8,4.6,9.5,4.6
		c3.8,0,6.6-1.3,9.6-4.6c3.2-3.5,4.9-7.3,4.9-11.1V63h1v6.8c0,4.1-1.7,8.1-5.2,11.8C72.2,85,69.1,86.5,65,86.5z"/>
	<path class="st1" d="M62,70L62,70c0,0.9,0.3,1.6,1,2.1s1.4,0.9,2.3,0.9h0.3c0.9,0,1.7-0.3,2.3-0.9c0.7-0.6,1-1.3,1-2.1v0"/>
	<path d="M65.7,73.5h-0.3c-1,0-1.9-0.3-2.7-1c-0.8-0.7-1.1-1.5-1.1-2.5l1,0v0c0,0.7,0.3,1.2,0.8,1.7c0.6,0.5,1.2,0.7,2,0.7h0.3
		c0.8,0,1.5-0.2,2-0.7c0.5-0.5,0.8-1,0.8-1.7l1,0c0,1-0.4,1.8-1.1,2.5C67.6,73.2,66.7,73.5,65.7,73.5z"/>
	<path d="M59,63c0,0.3,0.1,0.5,0.3,0.7c0.2,0.2,0.4,0.3,0.7,0.3s0.5-0.1,0.7-0.3c0.2-0.2,0.3-0.4,0.3-0.7s-0.1-0.5-0.3-0.7
		C60.5,62.1,60.3,62,60,62s-0.5,0.1-0.7,0.3C59.1,62.5,59,62.7,59,63z"/>
	<path d="M70.7,63.7c0.2-0.2,0.3-0.4,0.3-0.7s-0.1-0.5-0.3-0.7C70.5,62.1,70.3,62,70,62s-0.5,0.1-0.7,0.3C69.1,62.5,69,62.7,69,63
		s0.1,0.5,0.3,0.7c0.2,0.2,0.4,0.3,0.7,0.3S70.5,63.9,70.7,63.7z"/>
	<path class="st4" d="M65.5,78c-1.2,0-2.3,0.2-3.2,0.6C61.4,79,61,79.5,61,80c0,0.5,0.4,1,1.3,1.4c0.9,0.4,2,0.6,3.2,0.6
		c1.2,0,2.3-0.2,3.2-0.6C69.6,81,70,80.6,70,80c0-0.6-0.4-1-1.3-1.4C67.8,78.2,66.7,78,65.5,78"/>
	<path class="st5" d="M58.5,75c1.5,6.5,11.5,8,14,0C67,75,63.6,75,58.5,75z"/>
	<path d="M65.6,81c-0.1,0-0.2,0-0.3,0c-3.5-0.1-6.5-2.5-7.3-5.8l-0.1-0.6h15.3L73,75.1C71.6,79.4,68.3,81,65.6,81z M59.2,75.5
		c0.9,2.5,3.3,4.3,6.2,4.4c3,0.1,5.3-1.5,6.5-4.4H59.2z"/>
	<path d="M50,64.5l-0.2-0.1c-0.2-0.1-0.3-0.4-0.2-0.7c3.3-6.5,4.6-11.1,4-13.7c0-0.1,0-0.2,0-0.3c0.8-2.1,4.2-3,9.9-2.9
		c3,0.1,12.1,0.9,12.5,1.9l0,0.2c0.7,4.8,1.9,7,2.9,8.7c0.9,1.6,1.6,3,1.6,5.8c0,0.3-0.2,0.5-0.5,0.5s-0.5-0.2-0.5-0.5
		c0-2.5-0.6-3.7-1.5-5.3c-1-1.8-2.2-4.1-2.9-8.9c-1.7-0.6-13.6-2.5-18.6-0.6c-1,0.4-1.6,0.8-1.9,1.4c0.6,2.8-0.7,7.5-4.1,14.2
		C50.4,64.4,50.2,64.5,50,64.5z"/>
</g>
</svg>
